<?xml version="1.0" encoding="UTF-8"?>
<svg width="15px" height="13px" viewBox="0 0 15 13" version="1.1" xmlns="http://www.w3.org/2000/svg" xmlns:xlink="http://www.w3.org/1999/xlink">
    <!-- Generator: Sketch 53.2 (72643) - https://sketchapp.com -->
    <title>account_details</title>
    <desc>Created with Sketch.</desc>
    <g id="Page-1" stroke="none" stroke-width="1" fill="none" fill-rule="evenodd">
        <g id="profile-menu-copy" transform="translate(-38.000000, -62.000000)" fill="#BCC1C6" fill-rule="nonzero">
            <g id="account_details" transform="translate(38.000000, 62.000000)">
                <path d="M12.9530568,8.60043668 C12.6365093,8.60043668 12.3799127,8.34628384 12.3799127,8.03275109 L12.3799127,3.40611354 C12.3799127,2.1540262 11.3514629,1.13537118 10.0873362,1.13537118 L4.58515284,1.13537118 C3.3210262,1.13537118 2.29257642,2.1540262 2.29257642,3.40611354 L2.29257642,8.03275109 C2.29257642,8.34628384 2.0359798,8.60043668 1.71943231,8.60043668 C1.40288483,8.60043668 1.14628821,8.34628384 1.14628821,8.03275109 L1.14628821,3.40611354 C1.14628821,1.52798253 2.68896288,0 4.58515284,0 L10.0873362,0 C11.9835262,0 13.5262009,1.52798253 13.5262009,3.40611354 L13.5262009,8.03275109 C13.5262009,8.34628384 13.2696043,8.60043668 12.9530568,8.60043668 Z M14.6724891,11.2969432 C14.6724891,10.3578777 13.9011517,9.59388646 12.9530568,9.59388646 L1.71943231,9.59388646 C0.771337336,9.59388646 0,10.3578777 0,11.2969432 C0,12.2360087 0.771337336,13 1.71943231,13 L12.9530568,13 C13.9011517,13 14.6724891,12.2360087 14.6724891,11.2969432 Z M12.9530568,10.7292576 C13.2690884,10.7292576 13.5262009,10.9839214 13.5262009,11.2969432 C13.5262009,11.6099651 13.2690884,11.8646288 12.9530568,11.8646288 L1.71943231,11.8646288 C1.40340066,11.8646288 1.14628821,11.6099651 1.14628821,11.2969432 C1.14628821,10.9839214 1.40340066,10.7292576 1.71943231,10.7292576 L12.9530568,10.7292576 Z M9.25627729,3.77510917 C9.25627729,2.78909607 8.44636736,1.98689956 7.45087336,1.98689956 C6.45537937,1.98689956 5.64546943,2.78909607 5.64546943,3.77510917 C5.64546943,4.76112227 6.45537937,5.56331878 7.45087336,5.56331878 C8.44636736,5.56331878 9.25627729,4.76112227 9.25627729,3.77510917 Z M8.10998908,3.77510917 C8.10998908,4.1350786 7.8143327,4.4279476 7.45087336,4.4279476 C7.08741403,4.4279476 6.79175764,4.1350786 6.79175764,3.77510917 C6.79175764,3.41513974 7.08741403,3.12227074 7.45087336,3.12227074 C7.8143327,3.12227074 8.10998908,3.41513974 8.10998908,3.77510917 Z M9.34591703,8.58207205 C9.65220524,8.50293668 9.83575464,8.19286681 9.75585835,7.88949563 C9.49201146,6.88753057 8.57472298,6.18777293 7.52521015,6.18777293 L7.20459334,6.18777293 C6.15508051,6.18777293 5.23779203,6.88753057 4.97394514,7.88946725 C4.89404885,8.19283843 5.0775696,8.5029083 5.38388646,8.58204367 C5.6902893,8.66115066 6.00319733,8.47940611 6.08312227,8.17600655 C6.21537527,7.67386026 6.67652702,7.3231441 7.20459334,7.3231441 L7.52521015,7.3231441 C8.05327647,7.3231441 8.51445688,7.67386026 8.64668122,8.17603493 C8.71393968,8.43137991 8.94634962,8.6005786 9.20088291,8.6005786 C9.24874045,8.6005786 9.29742904,8.59458952 9.34591703,8.58207205 L9.34591703,8.58207205 Z" id="Shape"></path>
            </g>
        </g>
    </g>
</svg>