<?xml version="1.0" encoding="UTF-8"?>
<svg width="24px" height="24px" viewBox="0 0 24 24" version="1.1" xmlns="http://www.w3.org/2000/svg" xmlns:xlink="http://www.w3.org/1999/xlink">
    <!-- Generator: Sketch 53.2 (72643) - https://sketchapp.com -->
    <title>add_purchase</title>
    <desc>Created with Sketch.</desc>
    <g id="Page-1" stroke="none" stroke-width="1" fill="none" fill-rule="evenodd">
        <g id="trnsact-menu" transform="translate(-114.000000, -105.000000)" stroke="#F78200">
            <g id="add_purchase" transform="translate(115.000000, 106.000000)">
                <path d="M11.3333333,5.33333333 C12.8039931,5.33333333 14,4.1373264 14,2.66666667 C14,1.19600693 12.8039931,0 11.3333333,0 C9.8626736,0 8.66666667,1.19600693 8.66666667,2.66666667 C8.66666667,4.1373264 9.8626736,5.33333333 11.3333333,5.33333333 Z" id="Path"></path>
                <path d="M21.3554687,10.4484228 L19.8950348,10.4484228 C19.58284,9.84083947 19.1850433,9.28520622 18.7080231,8.79068095 L19.360611,6.12390772 C19.4072723,5.93275789 19.3631286,5.73178414 19.2411041,5.57743231 C19.1189118,5.42324702 18.9320984,5.33333333 18.734375,5.33333333 L16.8007812,5.33333333 C15.781784,5.33333333 14.8275757,5.81537059 14.228363,6.61210571 L9.7109375,6.61210571 C6.48844909,6.61210571 3.76631166,8.75787911 2.90744016,11.6832374 C2.44216921,11.7788124 2.08650209,11.6324529 1.90472412,11.5117354 C1.54603578,11.2732976 1.2890625,10.8755128 1.2890625,10.4484228 L1.2890625,9.80903666 C1.2890625,9.45570921 1.00070188,9.16965047 0.64453125,9.16965047 C0.288360617,9.16965047 0,9.45570921 0,9.80903666 L0,10.4484228 C0,11.3032689 0.470306375,12.0975064 1.18667605,12.5738824 C1.61837766,12.8611066 2.11134339,13.0066336 2.61723327,13.0066336 C2.62948606,13.0066336 2.6417389,13.003137 2.65382386,13.0029705 C2.63452148,13.2147672 2.62109375,13.4285619 2.62109375,13.6453538 C2.62109375,14.4445865 2.75587464,15.2301657 3.02140807,15.9794464 C3.45059206,17.191283 4.20036315,18.2967218 5.19921875,19.1141038 L5.19921875,21.3606138 C5.19921875,21.7139413 5.48757937,22 5.84375,22 L9.06640625,22 C9.42257688,22 9.7109375,21.7139413 9.7109375,21.3606138 L9.7109375,20.7212276 L13.578125,20.7212276 L13.578125,21.3606138 C13.578125,21.7139413 13.8664856,22 14.2226562,22 L17.4453125,22 C17.8014831,22 18.0898437,21.7139413 18.0898437,21.3606138 L18.0898437,19.1239277 L18.3441315,18.8954803 C19.0458984,18.2622549 19.6029816,17.4710145 20.002121,16.6249934 L21.727417,15.4461251 C21.8981171,15.3269062 22,15.1320932 22,14.9241262 L22,11.087809 C22,10.7344816 21.7116394,10.4484228 21.3554687,10.4484228 Z M12.9335938,10.4484228 L9.06640625,10.4484228 C8.71023562,10.4484228 8.421875,10.1623641 8.421875,9.80903666 C8.421875,9.45570921 8.71023562,9.16965047 9.06640625,9.16965047 L12.9335938,9.16965047 C13.2897644,9.16965047 13.578125,9.45570921 13.578125,9.80903666 C13.578125,10.1623641 13.2897644,10.4484228 12.9335938,10.4484228 Z M16.15625,12.3665814 C15.8002472,12.3665814 15.5117188,12.0803562 15.5117188,11.7271952 C15.5117188,11.3740343 15.8002472,11.087809 16.15625,11.087809 C16.5122528,11.087809 16.8007813,11.3740343 16.8007813,11.7271952 C16.8007813,12.0803562 16.5122528,12.3665814 16.15625,12.3665814 Z" id="Shape" fill-rule="nonzero"></path>
            </g>
        </g>
    </g>
</svg>