<svg width="15" height="16" viewBox="0 0 15 16" fill="none" xmlns="http://www.w3.org/2000/svg">
<g opacity="0.599049">
<path d="M13.6725 14.265H0.290914C0.130335 14.265 0 14.4484 0 14.6744C0 14.9004 0.130335 15.0838 0.290914 15.0838H13.6726C13.8331 15.0838 13.9635 14.9004 13.9635 14.6744C13.9635 14.4484 13.8331 14.265 13.6725 14.265Z" fill="#8F97A0" stroke="#8F97A0" stroke-width="0.2"/>
<path fill-rule="evenodd" clip-rule="evenodd" d="M1.1697 9.35223H3.50913C3.72435 9.35223 3.89904 9.53562 3.89904 9.76161V14.6744C3.89904 14.9004 3.72435 15.0838 3.50913 15.0838H1.1697C0.954474 15.0838 0.779785 14.9004 0.779785 14.6744V9.76165C0.779785 9.53566 0.954474 9.35223 1.1697 9.35223ZM1.55962 14.265H3.11921H3.11925V10.171H1.55962V14.265Z" fill="#8F97A0"/>
<path d="M1.55962 14.265H1.45962V14.365H1.55962V14.265ZM3.11925 14.265V14.365H3.21925V14.265H3.11925ZM3.11925 10.171H3.21925V10.071H3.11925V10.171ZM1.55962 10.171V10.071H1.45962V10.171H1.55962ZM3.50913 9.25223H1.1697V9.45223H3.50913V9.25223ZM3.99904 9.76161C3.99904 9.48503 3.78411 9.25223 3.50913 9.25223V9.45223C3.6646 9.45223 3.79904 9.58621 3.79904 9.76161H3.99904ZM3.99904 14.6744V9.76161H3.79904V14.6744H3.99904ZM3.50913 15.1838C3.78412 15.1838 3.99904 14.951 3.99904 14.6744H3.79904C3.79904 14.8498 3.66458 14.9838 3.50913 14.9838V15.1838ZM1.1697 15.1838H3.50913V14.9838H1.1697V15.1838ZM0.679785 14.6744C0.679785 14.951 0.89471 15.1838 1.1697 15.1838V14.9838C1.01424 14.9838 0.879785 14.8498 0.879785 14.6744H0.679785ZM0.679785 9.76165V14.6744H0.879785V9.76165H0.679785ZM1.1697 9.25223C0.894704 9.25223 0.679785 9.48508 0.679785 9.76165H0.879785C0.879785 9.58623 1.01424 9.45223 1.1697 9.45223V9.25223ZM3.11921 14.165H1.55962V14.365H3.11921V14.165ZM3.11925 14.165H3.11921V14.365H3.11925V14.165ZM3.01925 10.171V14.265H3.21925V10.171H3.01925ZM1.55962 10.271H3.11925V10.071H1.55962V10.271ZM1.65962 14.265V10.171H1.45962V14.265H1.65962Z" fill="#8F97A0"/>
<path fill-rule="evenodd" clip-rule="evenodd" d="M5.84866 5.25824H8.18808C8.40331 5.25824 8.578 5.44166 8.578 5.66765V14.6745C8.578 14.9004 8.40331 15.0839 8.18808 15.0839H5.84866C5.63343 15.0839 5.45874 14.9004 5.45874 14.6745V5.66765C5.45874 5.44166 5.63343 5.25824 5.84866 5.25824ZM6.23854 14.265H7.79817V6.07703H6.23854V14.265Z" fill="#8F97A0"/>
<path d="M7.79817 14.265V14.365H7.89817V14.265H7.79817ZM6.23854 14.265H6.13854V14.365H6.23854V14.265ZM7.79817 6.07703H7.89817V5.97703H7.79817V6.07703ZM6.23854 6.07703V5.97703H6.13854V6.07703H6.23854ZM8.18808 5.15824H5.84866V5.35824H8.18808V5.15824ZM8.678 5.66765C8.678 5.39109 8.46308 5.15824 8.18808 5.15824V5.35824C8.34354 5.35824 8.478 5.49224 8.478 5.66765H8.678ZM8.678 14.6745V5.66765H8.478V14.6745H8.678ZM8.18808 15.1839C8.46308 15.1839 8.678 14.951 8.678 14.6745H8.478C8.478 14.8499 8.34354 14.9839 8.18808 14.9839V15.1839ZM5.84866 15.1839H8.18808V14.9839H5.84866V15.1839ZM5.35874 14.6745C5.35874 14.951 5.57366 15.1839 5.84866 15.1839V14.9839C5.6932 14.9839 5.55874 14.8499 5.55874 14.6745H5.35874ZM5.35874 5.66765V14.6745H5.55874V5.66765H5.35874ZM5.84866 5.15824C5.57366 5.15824 5.35874 5.39109 5.35874 5.66765H5.55874C5.55874 5.49224 5.6932 5.35824 5.84866 5.35824V5.15824ZM7.79817 14.165H6.23854V14.365H7.79817V14.165ZM7.69817 6.07703V14.265H7.89817V6.07703H7.69817ZM6.23854 6.17703H7.79817V5.97703H6.23854V6.17703ZM6.33854 14.265V6.07703H6.13854V14.265H6.33854Z" fill="#8F97A0"/>
<path fill-rule="evenodd" clip-rule="evenodd" d="M10.5274 6.89581H12.8668C13.082 6.89581 13.2567 7.0792 13.2567 7.30523V14.6744C13.2567 14.9004 13.082 15.0838 12.8668 15.0838H10.5274C10.3121 15.0838 10.1375 14.9004 10.1375 14.6744V7.30523C10.1375 7.07924 10.3121 6.89581 10.5274 6.89581ZM10.9172 14.265H12.4769V7.7146H10.9172V14.265Z" fill="#8F97A0"/>
<path d="M12.4769 14.265V14.365H12.5769V14.265H12.4769ZM10.9172 14.265H10.8172V14.365H10.9172V14.265ZM12.4769 7.7146H12.5769V7.6146H12.4769V7.7146ZM10.9172 7.7146V7.6146H10.8172V7.7146H10.9172ZM12.8668 6.79581H10.5274V6.99581H12.8668V6.79581ZM13.3567 7.30523C13.3567 7.02862 13.1418 6.79581 12.8668 6.79581V6.99581C13.0223 6.99581 13.1567 7.12978 13.1567 7.30523H13.3567ZM13.3567 14.6744V7.30523H13.1567V14.6744H13.3567ZM12.8668 15.1838C13.1418 15.1838 13.3567 14.951 13.3567 14.6744H13.1567C13.1567 14.8498 13.0223 14.9838 12.8668 14.9838V15.1838ZM10.5274 15.1838H12.8668V14.9838H10.5274V15.1838ZM10.0375 14.6744C10.0375 14.951 10.2524 15.1838 10.5274 15.1838V14.9838C10.3719 14.9838 10.2375 14.8498 10.2375 14.6744H10.0375ZM10.0375 7.30523V14.6744H10.2375V7.30523H10.0375ZM10.5274 6.79581C10.2524 6.79581 10.0375 7.02866 10.0375 7.30523H10.2375C10.2375 7.12981 10.3719 6.99581 10.5274 6.99581V6.79581ZM12.4769 14.165H10.9172V14.365H12.4769V14.165ZM12.3769 7.7146V14.265H12.5769V7.7146H12.3769ZM10.9172 7.8146H12.4769V7.6146H10.9172V7.8146ZM11.0172 14.265V7.7146H10.8172V14.265H11.0172Z" fill="#8F97A0"/>
<path fill-rule="evenodd" clip-rule="evenodd" d="M0.779785 5.74442C0.779785 4.84127 1.47927 4.10681 2.33941 4.10681C3.19956 4.10681 3.89904 4.84127 3.89904 5.74442C3.89904 6.64757 3.19956 7.38203 2.33941 7.38203C1.47927 7.38203 0.779785 6.64757 0.779785 5.74442ZM1.55962 5.74442C1.55962 6.19555 1.90896 6.56321 2.33941 6.56321C2.76987 6.56321 3.11921 6.19555 3.11921 5.74442C3.11921 5.29329 2.76987 4.92564 2.33941 4.92564C1.90896 4.92564 1.55962 5.29325 1.55962 5.74442Z" fill="#8F97A0"/>
<path d="M2.33941 4.00681C1.4195 4.00681 0.679785 4.7907 0.679785 5.74442H0.879785C0.879785 4.89185 1.53904 4.20681 2.33941 4.20681V4.00681ZM3.99904 5.74442C3.99904 4.7907 3.25933 4.00681 2.33941 4.00681V4.20681C3.13979 4.20681 3.79904 4.89185 3.79904 5.74442H3.99904ZM2.33941 7.48203C3.25933 7.48203 3.99904 6.69814 3.99904 5.74442H3.79904C3.79904 6.597 3.13979 7.28203 2.33941 7.28203V7.48203ZM0.679785 5.74442C0.679785 6.69814 1.4195 7.48203 2.33941 7.48203V7.28203C1.53904 7.28203 0.879785 6.597 0.879785 5.74442H0.679785ZM2.33941 6.46321C1.9688 6.46321 1.65962 6.14505 1.65962 5.74442H1.45962C1.45962 6.24606 1.84912 6.66321 2.33941 6.66321V6.46321ZM3.01921 5.74442C3.01921 6.14505 2.71003 6.46321 2.33941 6.46321V6.66321C2.8297 6.66321 3.21921 6.24606 3.21921 5.74442H3.01921ZM2.33941 5.02564C2.71003 5.02564 3.01921 5.3438 3.01921 5.74442H3.21921C3.21921 5.24278 2.8297 4.82564 2.33941 4.82564V5.02564ZM1.65962 5.74442C1.65962 5.34376 1.96879 5.02564 2.33941 5.02564V4.82564C1.84913 4.82564 1.45962 5.24274 1.45962 5.74442H1.65962Z" fill="#8F97A0"/>
<path fill-rule="evenodd" clip-rule="evenodd" d="M5.45874 1.65037C5.45874 0.747219 6.15823 0.0127563 7.01837 0.0127563C7.87851 0.0127563 8.578 0.747219 8.578 1.65037C8.578 2.55351 7.87851 3.28798 7.01837 3.28798C6.15823 3.28798 5.45874 2.55351 5.45874 1.65037ZM6.23857 1.65037C6.23857 2.1015 6.58792 2.46915 7.01837 2.46915C7.44882 2.46915 7.79817 2.10154 7.79817 1.65037C7.79817 1.19923 7.44882 0.831581 7.01837 0.831581C6.58792 0.831581 6.23857 1.1992 6.23857 1.65037Z" fill="#8F97A0"/>
<path d="M7.01837 -0.0872437C6.09846 -0.0872437 5.35874 0.696644 5.35874 1.65037H5.55874C5.55874 0.797794 6.218 0.112756 7.01837 0.112756V-0.0872437ZM8.678 1.65037C8.678 0.696644 7.93828 -0.0872437 7.01837 -0.0872437V0.112756C7.81874 0.112756 8.478 0.797794 8.478 1.65037H8.678ZM7.01837 3.38798C7.93828 3.38798 8.678 2.60409 8.678 1.65037H8.478C8.478 2.50294 7.81874 3.18798 7.01837 3.18798V3.38798ZM5.35874 1.65037C5.35874 2.60409 6.09846 3.38798 7.01837 3.38798V3.18798C6.218 3.18798 5.55874 2.50294 5.55874 1.65037H5.35874ZM7.01837 2.36915C6.64775 2.36915 6.33857 2.05099 6.33857 1.65037H6.13857C6.13857 2.15201 6.52808 2.56915 7.01837 2.56915V2.36915ZM7.69817 1.65037C7.69817 2.05103 7.38899 2.36915 7.01837 2.36915V2.56915C7.50866 2.56915 7.89817 2.15205 7.89817 1.65037H7.69817ZM7.01837 0.931581C7.38899 0.931581 7.69817 1.24974 7.69817 1.65037H7.89817C7.89817 1.14873 7.50866 0.731581 7.01837 0.731581V0.931581ZM6.33857 1.65037C6.33857 1.24971 6.64775 0.931581 7.01837 0.931581V0.731581C6.52808 0.731581 6.13857 1.14869 6.13857 1.65037H6.33857Z" fill="#8F97A0"/>
<path fill-rule="evenodd" clip-rule="evenodd" d="M10.1375 3.288C10.1375 2.38485 10.8369 1.65039 11.6971 1.65039C12.5572 1.65039 13.2567 2.38485 13.2567 3.288C13.2567 4.19115 12.5572 4.92561 11.6971 4.92561C10.8369 4.92561 10.1375 4.19115 10.1375 3.288ZM10.9173 3.288C10.9173 3.73913 11.2666 4.10679 11.6971 4.10679C12.1275 4.10679 12.4769 3.73913 12.4769 3.288C12.4769 2.83687 12.1275 2.46922 11.6971 2.46922C11.2666 2.46922 10.9173 2.83683 10.9173 3.288Z" fill="#8F97A0"/>
<path d="M11.6971 1.55039C10.7772 1.55039 10.0375 2.33428 10.0375 3.288H10.2375C10.2375 2.43543 10.8967 1.75039 11.6971 1.75039V1.55039ZM13.3567 3.288C13.3567 2.33428 12.617 1.55039 11.6971 1.55039V1.75039C12.4975 1.75039 13.1567 2.43543 13.1567 3.288H13.3567ZM11.6971 5.02561C12.617 5.02561 13.3567 4.24172 13.3567 3.288H13.1567C13.1567 4.14057 12.4975 4.82561 11.6971 4.82561V5.02561ZM10.0375 3.288C10.0375 4.24172 10.7772 5.02561 11.6971 5.02561V4.82561C10.8967 4.82561 10.2375 4.14057 10.2375 3.288H10.0375ZM11.6971 4.00679C11.3265 4.00679 11.0173 3.68863 11.0173 3.288H10.8173C10.8173 3.78964 11.2068 4.20679 11.6971 4.20679V4.00679ZM12.3769 3.288C12.3769 3.68863 12.0677 4.00679 11.6971 4.00679V4.20679C12.1874 4.20679 12.5769 3.78964 12.5769 3.288H12.3769ZM11.6971 2.56922C12.0677 2.56922 12.3769 2.88737 12.3769 3.288H12.5769C12.5769 2.78636 12.1874 2.36922 11.6971 2.36922V2.56922ZM11.0173 3.288C11.0173 2.88734 11.3265 2.56922 11.6971 2.56922V2.36922C11.2068 2.36922 10.8173 2.78632 10.8173 3.288H11.0173Z" fill="#8F97A0"/>
<path d="M10.7545 2.34308L8.2497 1.59307C8.03992 1.5292 7.82703 1.65694 7.76855 1.87475C7.7093 2.09256 7.82937 2.31855 8.03601 2.38077L10.5408 3.13077C10.5766 3.14141 10.6125 3.14632 10.6476 3.14632C10.8176 3.14632 10.9736 3.02922 11.0227 2.84909C11.082 2.63213 10.9619 2.40529 10.7545 2.34308Z" fill="#8F97A0" stroke="#8F97A0" stroke-width="0.2"/>
<path d="M6.40998 2.16049C6.27587 1.98363 6.03099 1.95496 5.86256 2.09497L2.92267 4.55628C2.75423 4.69795 2.72615 4.95502 2.86107 5.13189C2.93827 5.2334 3.05214 5.28583 3.16597 5.28583C3.25095 5.28583 3.33674 5.25636 3.4085 5.1974L6.34839 2.73609C6.51683 2.59443 6.5449 2.33735 6.40998 2.16049Z" fill="#8F97A0" stroke="#8F97A0" stroke-width="0.2"/>
</g>
</svg>
