<svg width="137" height="90" viewBox="0 0 137 90" fill="none" xmlns="http://www.w3.org/2000/svg">
<path fill-rule="evenodd" clip-rule="evenodd" d="M34.9897 75.6506C24.2027 70.6185 18.851 65.8273 21.6118 58.7466C24.373 51.6662 23.6605 51.2876 18.2104 45.6556C12.7606 40.0245 16.8692 38.3324 17.8484 33.7248C18.8284 29.1167 14.4827 26.1235 11.3185 21.1368C8.15424 16.1497 14.5011 6.64409 20.6814 10.2703C26.8612 13.8966 20.5981 20.2556 25.3354 25.5085C30.0731 30.7614 40.4866 29.6851 39.3227 36.1328C38.1588 42.5806 30.3989 47.4606 36.6916 51.9443C42.9848 56.4284 47.2357 59.5991 43.6139 66.7923C39.9921 73.9851 34.9897 75.6506 34.9897 75.6506Z" fill="#A6D09E"/>
<path d="M34.835 74.4113L21.8398 24.9688" stroke="white"/>
<path fill-rule="evenodd" clip-rule="evenodd" d="M27.6695 77.5797C21.6529 78.1007 18.0848 77.3492 17.4984 73.5329C16.9121 69.7167 16.503 69.7307 12.6781 68.6343C8.85356 67.5381 10.2282 65.7515 9.48761 63.4754C8.74723 61.1989 6.07788 60.9836 3.42099 59.5915C0.763999 58.1991 1.13652 52.4062 4.77249 52.4348C8.40828 52.4636 7.27302 56.8504 10.6885 57.9608C14.1042 59.0711 18.4047 55.9567 19.5318 59.0894C20.6588 62.2222 18.4903 66.3377 22.3936 66.7152C26.2971 67.0927 28.9699 67.4101 29.2068 71.4942C29.4436 75.5782 27.6695 77.5797 27.6695 77.5797Z" fill="#A6D09E"/>
<path d="M27.2873 77.0732L9.0166 58.6094" stroke="white"/>
<path fill-rule="evenodd" clip-rule="evenodd" d="M96.645 78.6543H44.5182C41.5804 78.6543 39.1992 76.2767 39.1992 73.3438V5.50582C39.1992 2.57291 41.5804 0.195312 44.5182 0.195312H63.4794C65.2581 0.195312 66.9189 1.08267 67.9054 2.56008L69.0025 4.20326C69.989 5.68067 71.6498 6.56802 73.4282 6.56802H96.645C99.5826 6.56802 101.964 8.94563 101.964 11.8785V73.3438C101.964 76.2767 99.5826 78.6543 96.645 78.6543Z" fill="url(#paint0_linear)"/>
<path fill-rule="evenodd" clip-rule="evenodd" d="M86.2411 19.4028H46.5887C44.9065 19.4028 43.543 18.0414 43.543 16.3618V16.2479C43.543 14.5684 44.9065 13.207 46.5887 13.207H86.2411C87.923 13.207 89.2869 14.5684 89.2869 16.2479V16.3618C89.2869 18.0414 87.923 19.4028 86.2411 19.4028Z" fill="#F3F9FF"/>
<path fill-rule="evenodd" clip-rule="evenodd" d="M94.7835 19.4028H86.0071C84.2933 19.4028 82.9043 18.016 82.9043 16.3049C82.9043 14.5941 84.2933 13.207 86.0071 13.207H94.7835C96.497 13.207 97.8863 14.5941 97.8863 16.3049C97.8863 18.016 96.497 19.4028 94.7835 19.4028Z" fill="#E68639"/>
<path fill-rule="evenodd" clip-rule="evenodd" d="M92.3956 78.6528H48.7667C47.6195 78.6528 46.6895 77.7243 46.6895 76.5792V27.8666C46.6895 26.7215 47.6195 25.793 48.7667 25.793H92.3956C93.5425 25.793 94.4725 26.7215 94.4725 27.8666V76.5792C94.4725 77.7243 93.5425 78.6528 92.3956 78.6528Z" fill="#F3F9FF"/>
<path opacity="0.133371" fill-rule="evenodd" clip-rule="evenodd" d="M83.4364 39.5174H57.7276C56.0017 39.5174 54.6025 38.1205 54.6025 36.3974C54.6025 34.6743 56.0017 33.2773 57.7276 33.2773H83.4364C85.162 33.2773 86.5615 34.6743 86.5615 36.3974C86.5615 38.1205 85.162 39.5174 83.4364 39.5174Z" fill="#35427E"/>
<path opacity="0.133371" fill-rule="evenodd" clip-rule="evenodd" d="M83.4364 50.7557H57.7276C56.0017 50.7557 54.6025 49.3588 54.6025 47.6357C54.6025 45.9126 56.0017 44.5156 57.7276 44.5156H83.4364C85.162 44.5156 86.5615 45.9126 86.5615 47.6357C86.5615 49.3588 85.162 50.7557 83.4364 50.7557Z" fill="#35427E"/>
<path opacity="0.133371" fill-rule="evenodd" clip-rule="evenodd" d="M59.1744 63.2349H55.8673C55.1689 63.2349 54.6025 62.6694 54.6025 61.9716V58.8994C54.6025 58.2022 55.1689 57.6367 55.8673 57.6367H59.1744C59.8731 57.6367 60.4394 58.2022 60.4394 58.8994V61.9716C60.4394 62.6694 59.8731 63.2349 59.1744 63.2349Z" fill="#35427E"/>
<path fill-rule="evenodd" clip-rule="evenodd" d="M84.3777 61.996H75.0248C73.8192 61.996 72.8418 61.0201 72.8418 59.8165C72.8418 58.6126 73.8192 57.6367 75.0248 57.6367H84.3777C85.5832 57.6367 86.5606 58.6126 86.5606 59.8165C86.5606 61.0201 85.5832 61.996 84.3777 61.996Z" fill="#F78200"/>
<path fill-rule="evenodd" clip-rule="evenodd" d="M104.223 72.6982C104.223 74.5887 103.585 76.3519 102.521 77.7325C101.011 79.7505 98.585 81.0464 95.8616 81.0464C91.2448 81.0464 87.5215 77.3077 87.5215 72.6982C87.5215 69.5118 89.3087 66.7292 91.9469 65.3485C93.0957 64.7323 94.4362 64.3711 95.8616 64.3711C100.479 64.3711 104.223 68.0887 104.223 72.6982Z" fill="#F78200"/>
<path fill-rule="evenodd" clip-rule="evenodd" d="M104.223 72.6982C104.223 74.5887 103.584 76.3519 102.52 77.7325C101.35 78.3488 100.031 78.6883 98.6272 78.6883C94.01 78.6883 90.2656 74.9499 90.2656 70.3404C90.2656 68.4707 90.8826 66.7292 91.9462 65.3485C93.095 64.7323 94.4356 64.3711 95.861 64.3711C100.478 64.3711 104.223 68.0887 104.223 72.6982Z" fill="#F78200"/>
<path fill-rule="evenodd" clip-rule="evenodd" d="M95.3153 76.4259C94.964 76.4259 94.6359 76.2526 94.4375 75.9634L92.262 72.7885C91.9305 72.3038 92.0542 71.6431 92.5395 71.3122C93.0276 70.9825 93.6875 71.1049 94.0176 71.5891L95.3092 73.4727L98.9328 68.1052C99.2608 67.6178 99.9239 67.4911 100.409 67.8181C100.896 68.1456 101.025 68.8051 100.697 69.2917L96.1974 75.9569C96.0011 76.2494 95.6717 76.4248 95.3196 76.4259H95.3153Z" fill="#CCE9F1"/>
<path fill-rule="evenodd" clip-rule="evenodd" d="M110.594 50.9809L108.576 50.5625C108.24 51.1592 107.761 52.1763 107.784 53.0674C108.864 53.4016 110.297 53.7371 111.72 54.0563L110.594 50.9809Z" fill="#EDB6A4"/>
<path fill-rule="evenodd" clip-rule="evenodd" d="M108.576 50.5633L107.398 50.3187L101.994 48.7461L100.832 49.4091L106.645 52.6546C106.942 52.7915 107.336 52.93 107.784 53.0682C107.761 52.1771 108.24 51.1601 108.576 50.5633Z" fill="#EDB6A4"/>
<mask id="mask0" mask-type="alpha" maskUnits="userSpaceOnUse" x="100" y="48" width="9" height="6">
<path fill-rule="evenodd" clip-rule="evenodd" d="M108.576 50.563C108.24 51.1601 107.761 52.1771 107.784 53.0682C107.336 52.9297 106.942 52.7912 106.645 52.6546L100.832 49.4089L101.994 48.7461L107.397 50.3184" fill="white"/>
</mask>
<g mask="url(#mask0)">
<path fill-rule="evenodd" clip-rule="evenodd" d="M108.576 50.563L107.397 50.3184L101.994 48.7461L100.832 49.4089L106.645 52.6546C106.942 52.7912 107.336 52.9297 107.784 53.0682C107.761 52.1771 108.24 51.1601 108.576 50.563Z" fill="url(#paint1_linear)"/>
</g>
<path fill-rule="evenodd" clip-rule="evenodd" d="M117.018 45.6621L116.734 45.2201L115.673 43.609L122.045 40.5296L125.6 38.8036L130.532 36.4155L131.567 37.9908L131.881 38.4568L127.362 40.6424L125.615 41.4964L124.599 41.9896L123.552 42.4974L117.018 45.6621ZM88.709 54.9495C88.9406 56.1817 89.4208 57.2691 90.1625 58.177C90.6362 58.7794 91.2128 59.3141 91.8849 59.7664L123.706 44.3017L125.848 43.2639L127.56 42.4361L128.878 41.7918L134.877 38.8771C135.122 38.7439 135.34 38.575 135.528 38.3822C136.232 37.6325 136.464 36.4901 135.847 35.5624L135.444 34.9464C134.701 33.5029 133.219 33.2661 131.888 33.9061L125.09 37.2229L124.173 37.6603L123.582 37.9552L123.571 37.951L121.567 38.934L88.709 54.9495Z" fill="#125191"/>
<path fill-rule="evenodd" clip-rule="evenodd" d="M82.9043 60.9613L83.1108 60.9319L87.451 60.3517L91.885 59.7659C91.2128 59.3138 90.6366 58.7788 90.1626 58.1765C89.4211 57.2685 88.9409 56.1812 88.7093 54.9492L82.9841 60.8859L82.9043 60.9613Z" fill="#2065AD"/>
<path fill-rule="evenodd" clip-rule="evenodd" d="M131.884 38.4601L117.023 45.6601C115.519 46.3592 114.619 44.1575 115.674 43.614L130.535 36.4138C131.803 35.8614 132.787 37.9139 131.884 38.4601Z" fill="#135191"/>
<path fill-rule="evenodd" clip-rule="evenodd" d="M104.018 77.3438L104.056 77.9584C104.056 77.9584 104.065 77.9726 104.055 78.0188L104.052 78.0303C104.052 78.2004 104.044 78.6351 103.932 78.9265C103.903 79.0054 103.865 79.0698 103.818 79.1203C103.562 79.4051 106.111 79.5273 106.111 79.5273C106.111 79.5273 106.02 79.3866 105.958 79.1669C105.907 79.0102 105.919 78.5035 105.957 77.76L104.018 77.3438Z" fill="#EDB6A4"/>
<path fill-rule="evenodd" clip-rule="evenodd" d="M100.977 81.0452L106.22 80.8597C106.58 80.2993 106.529 79.7266 106.159 79.1449C105.298 79.2344 104.491 79.1804 103.779 78.8711C103.114 79.4593 102.109 79.937 100.953 80.3664C100.583 80.5365 100.66 80.7731 100.977 81.0452Z" fill="black"/>
<path fill-rule="evenodd" clip-rule="evenodd" d="M106.237 81.084L100.986 81.2698L100.978 81.0452L106.229 80.8594L106.237 81.084Z" fill="#393768"/>
<path fill-rule="evenodd" clip-rule="evenodd" d="M103.906 62.6103C103.107 62.7774 102.134 63.5624 102.032 64.3289C101.682 66.9573 103.87 77.8775 103.897 78.1539C104.615 78.2462 105.295 78.2536 105.891 78.0815L105.989 78.0622C106.573 75.286 106.73 71.9884 106.41 68.3451C107.022 69.529 116.422 71.6612 116.699 70.9738L116.889 70.4158L118.264 66.3982C118.208 66.3817 118.157 66.372 118.101 66.3557C117.735 66.268 117.332 66.2451 116.98 66.0785C115.038 65.1585 105.287 62.3219 103.906 62.6103Z" fill="#385575"/>
<path fill-rule="evenodd" clip-rule="evenodd" d="M126.898 78.6014C126.898 78.6014 127.81 78.5244 128.111 78.7704C128.411 79.0163 128.374 76.4102 128.374 76.4102C128.374 76.4102 127.034 77.1796 126.433 76.8713C125.832 76.5631 126.898 78.6014 126.898 78.6014Z" fill="#EDB6A4"/>
<path fill-rule="evenodd" clip-rule="evenodd" d="M130.196 81.4173L129.695 76.3552C129.129 76.0419 128.577 76.1258 128.034 76.5191C128.174 77.3466 128.171 78.1312 127.914 78.8392C128.526 79.4464 129.051 80.3899 129.538 81.482C129.726 81.8299 129.951 81.7403 130.196 81.4173Z" fill="black"/>
<path fill-rule="evenodd" clip-rule="evenodd" d="M129.912 76.3242L130.413 81.3944L130.196 81.4158L129.694 76.3456L129.912 76.3242Z" fill="#393768"/>
<path fill-rule="evenodd" clip-rule="evenodd" d="M122.267 66.418C121.731 71.0216 118.867 74.1325 117 76.9326C121.717 76.4786 123.923 76.5957 127.133 76.8115C127.303 77.4978 127.431 78.1651 127.345 78.7896L116.117 81.195C109.679 81.8768 112.453 70.6743 115.322 67.3601L122.267 66.418Z" fill="#385575"/>
<path fill-rule="evenodd" clip-rule="evenodd" d="M112.869 65.5533C113.544 62.3142 113.428 61.4808 112.425 59.2443C112.306 58.9794 111.476 58.7451 111.166 58.4335C110.696 57.9623 110.71 57.3803 110.578 56.7707C110.582 56.7637 110.525 55.2946 110.523 55.2895C110.368 54.5639 111.093 55.2767 110.954 54.4417C110.924 54.258 110.893 54.0696 110.865 53.8741C110.724 52.9598 110.603 51.9631 110.508 50.8821C111.284 50.8116 112.028 50.7305 112.737 50.6795C113.59 50.6142 114.391 50.5798 115.149 50.6423C116.123 50.7142 117.024 50.9404 117.86 51.4366C122.465 56.4923 120.073 59.7504 122.465 66.3351C117.876 68.29 112.798 67.5898 112.869 65.5533Z" fill="#71BFC6"/>
<path fill-rule="evenodd" clip-rule="evenodd" d="M112.425 49.159L115.35 48.6211C115.277 49.6574 115.389 49.9579 116.101 50.7936C115.975 51.9804 112.499 52.3347 113.156 50.9714C113.079 50.0097 112.963 49.9491 112.425 49.159Z" fill="#E0A494"/>
<path fill-rule="evenodd" clip-rule="evenodd" d="M111.939 50.3593C112.289 50.6155 113.989 49.9142 115.666 48.9405L115.043 44.1211L110.853 44.628C110.043 47.0222 111.211 50.0754 111.939 50.3593Z" fill="#EDB6A4"/>
<path fill-rule="evenodd" clip-rule="evenodd" d="M117.473 56.3769C117 56.7244 112.946 57.2412 112.644 56.852C112.21 57.2161 104.742 52.6919 104.237 51.966C103.836 51.923 103.468 51.7901 103.125 51.5821C102.851 51.1003 102.79 50.8148 102.785 50.2886C102.857 49.7946 102.971 49.312 103.209 49.1462C103.284 49.1021 103.704 49.9347 104.167 50.0568C104.364 49.8587 104.345 49.7304 104.296 49.4593C104.474 49.2914 104.527 49.227 104.797 49.3836C104.95 49.7793 105.162 50.2036 105.158 50.6768L113.175 54.5212L115.961 53.6843C116.114 54.569 116.934 55.7408 117.473 56.3769Z" fill="#EDB6A4"/>
<path fill-rule="evenodd" clip-rule="evenodd" d="M110.555 46.9079C111.507 46.7732 112.009 46.5518 112.727 45.9315C112.977 46.5392 113.371 47.4055 113.154 47.7498C113.154 47.7498 113.576 47.9613 113.924 47.7996C113.862 47.4039 113.917 47.0518 114.191 46.8459C114.368 46.721 114.407 46.7181 114.664 46.8168C114.981 46.9523 114.933 47.313 114.708 47.5672C114.159 48.1335 115.04 48.6762 115.331 49.1323C115.841 48.9211 116.253 48.4586 116.294 48.072C116.437 47.45 116.545 46.8774 116.453 46.3078C116.445 46.2587 117.053 47.5955 116.976 48.9966C116.962 49.2347 116.791 49.9509 117.278 50.4136C117.544 50.6667 118.709 50.9078 118.709 50.9078C118.709 50.9078 118.382 50.2728 118.115 49.1457C118.001 48.6678 118.511 47.6012 118.47 46.6702C118.438 45.9417 117.883 45.3233 117.656 44.9553C117.569 44.8148 116.79 44.4814 116.294 44.75C116.176 44.8138 115.979 45.0485 116.222 45.6639C116.465 46.2793 115.743 44.9286 115.683 44.8316C115.172 43.7333 113.677 42.8668 112.477 43.5165C111.198 45.0022 110.694 44.2172 109.79 45.0485C109.285 45.5332 110.014 46.3574 110.555 46.9079Z" fill="black"/>
<path fill-rule="evenodd" clip-rule="evenodd" d="M36.7249 33.6918C36.49 34.1174 36.1754 34.4845 35.7555 34.7569C35.4888 36.0563 31.3711 42.906 30.3082 43.6933C29.6889 44.2807 26.186 46.103 25.5944 45.7127C25.7669 44.7948 25.6713 43.8666 25.3184 42.9212L28.5012 42.1849L29.3806 40.904L33.1285 35.4842L33.8301 34.4503L34.2157 33.8907C33.9648 33.4314 33.9364 32.9362 33.8631 32.4777C34.0486 32.177 34.1309 32.2125 34.397 32.2743C34.5047 32.566 34.5545 32.7034 34.86 32.7871C35.2451 32.4053 35.1846 31.3663 35.2805 31.3594C35.6082 31.3893 35.9941 31.793 36.3323 32.2427C36.6263 32.7579 36.723 33.0694 36.7249 33.6918Z" fill="#EDB6A4"/>
<path fill-rule="evenodd" clip-rule="evenodd" d="M24.9201 42.9753L27.103 42.3008C27.5186 42.9475 28.2416 44.2268 28.2749 45.2267C27.2594 45.9775 25.9283 47.0279 24.3047 47.4193L24.9201 42.9753Z" fill="#D0E4FF"/>
<path fill-rule="evenodd" clip-rule="evenodd" d="M24.1205 85.8147C24.1205 85.8147 24.0576 86.7774 24.3235 87.0889C24.5894 87.4001 21.835 87.4137 21.835 87.4137C21.835 87.4137 22.6204 85.9863 22.2827 85.3594C21.945 84.7327 24.1205 85.8147 24.1205 85.8147Z" fill="#EDB6A4"/>
<path fill-rule="evenodd" clip-rule="evenodd" d="M27.1607 89.2339L21.8015 88.8094C21.4585 88.2196 21.5362 87.6354 21.9411 87.0561C22.8181 87.1865 23.6474 87.1675 24.3902 86.8828C25.0441 87.5146 26.0521 88.0488 27.2159 88.5399C27.5873 88.7308 27.497 88.9698 27.1607 89.2339Z" fill="black"/>
<path fill-rule="evenodd" clip-rule="evenodd" d="M21.7744 89.038L27.1424 89.4634L27.1603 89.2337L21.7926 88.8086L21.7744 89.038Z" fill="#A8CFEF"/>
<path fill-rule="evenodd" clip-rule="evenodd" d="M16.2109 60.6088C16.3023 60.804 16.4303 60.9788 16.4785 61.189C16.8335 62.7356 20.8224 68.9883 21.9538 72.2185C22.9709 75.4813 22.7087 80.4999 22.1399 86.0774C22.8501 86.3288 23.5876 86.3948 24.3615 86.2087C25.4752 80.5766 27.1775 73.5472 26.6433 71.8228C25.954 67.748 24.8571 63.7345 23.2491 59.7987L23.063 59.1375L22.7732 58.1133L21.6437 58.5445L17.6315 60.0709L16.2109 60.6088Z" fill="#385575"/>
<path fill-rule="evenodd" clip-rule="evenodd" d="M11.5484 83.9881C11.5484 83.9881 11.1286 84.8568 11.2584 85.245C11.388 85.6332 8.8291 84.6156 8.8291 84.6156C8.8291 84.6156 10.0933 83.5858 10.0154 82.8783C9.93746 82.1709 11.5484 83.9881 11.5484 83.9881Z" fill="#EDB6A4"/>
<path fill-rule="evenodd" clip-rule="evenodd" d="M13.0852 88.2963L8.27605 85.8973C8.17938 85.2223 8.47073 84.71 9.06333 84.3242C9.82759 84.7731 10.6034 85.0659 11.3992 85.08C11.7682 85.9104 12.5022 86.7828 13.3969 87.6737C13.6697 87.9897 13.4962 88.1771 13.0852 88.2963Z" fill="black"/>
<path fill-rule="evenodd" clip-rule="evenodd" d="M8.16504 86.0968L12.9819 88.4995L13.085 88.2936L8.26814 85.8906L8.16504 86.0968Z" fill="#A8CFEF"/>
<path fill-rule="evenodd" clip-rule="evenodd" d="M15.9682 58.3068C15.9795 58.522 13.8367 60.1644 13.7687 60.3691C12.4726 64.2659 14.5404 67.2635 14.6443 70.5749C14.3623 73.9803 12.2353 78.5352 9.61426 83.4931C10.1782 83.992 10.8372 84.3294 11.6248 84.4462C14.7712 79.641 18.9883 73.7613 19.1401 71.9625C20.0308 67.9268 20.5206 63.7956 20.5072 59.5449L20.5824 58.8623L20.6984 57.8044L19.4896 57.7814L15.1967 57.6953L15.9682 58.3068Z" fill="#385575"/>
<path fill-rule="evenodd" clip-rule="evenodd" d="M12.9463 62.2733C13.108 63.6777 24.0071 62.1984 24.0971 61.1924C22.9314 56.5155 23.3213 54.6202 24.194 49.6239C24.19 49.6164 24.19 49.6164 24.1921 49.6108C24.3346 48.7897 24.4677 47.9213 24.5877 46.9786C24.6128 46.7717 24.6399 46.5586 24.6632 46.338C24.7813 45.306 24.8731 44.1829 24.9328 42.9661C24.0588 42.8247 23.3299 42.8621 22.4234 42.8359C21.4682 42.9343 20.5631 42.7958 19.7156 42.8988C18.6265 43.022 17.6705 42.972 16.2036 43.9246C13.3782 46.623 15.3432 54.7822 12.9463 62.2733Z" fill="#D0E4FF"/>
<path fill-rule="evenodd" clip-rule="evenodd" d="M22.6916 40.875L19.6287 41.3824C19.8839 42.5481 19.9075 42.4802 18.9395 42.9465C19.1885 45.1019 24.4207 45.4808 22.7805 42.8609C21.643 42.7591 22.2827 42.0963 22.6916 40.875Z" fill="#E0A494"/>
<path fill-rule="evenodd" clip-rule="evenodd" d="M23.4743 41.4958C23.274 41.9016 21.3224 41.9241 19.2998 41.831L17.5469 37.0694L21.6702 35.5195C23.5771 37.3456 24.0106 40.8822 23.4743 41.4958Z" fill="#EDB6A4"/>
<path fill-rule="evenodd" clip-rule="evenodd" d="M23.6088 34.0195C24.3099 34.2251 24.3498 36.7014 23.0465 37.4845C22.1009 37.8184 21.5287 37.8553 20.5644 37.6272C20.627 38.3103 20.6809 39.302 21.0491 39.5156C21.0491 39.5156 20.7604 39.9147 20.3592 39.9332C20.2262 39.5367 20.0047 39.2375 19.6515 39.1787C19.4282 39.1485 19.3904 39.1645 19.1997 39.3798C18.9719 39.6581 19.1906 39.9688 19.5219 40.0957C20.3041 40.3551 20.2725 41.6598 20.2237 42.2223C19.6504 42.272 18.6808 41.6477 18.2981 41.3269C17.495 40.3893 17.1863 40.1412 16.9043 38.0775C17.2714 34.0714 19.8309 35.6247 23.6088 34.0195Z" fill="black"/>
<path fill-rule="evenodd" clip-rule="evenodd" d="M38.6933 48.2442L30.4188 39.9829C29.557 39.1225 29.557 37.7274 30.4188 36.8671L40.8642 26.438C41.7259 25.5779 43.1232 25.5779 43.9847 26.438L52.2595 34.6996C53.1212 35.56 53.1212 36.9548 52.2595 37.8151L41.8135 48.2442C40.952 49.1045 39.555 49.1045 38.6933 48.2442Z" fill="#E68639"/>
<path fill-rule="evenodd" clip-rule="evenodd" d="M40.6893 33.1199L39.1383 31.5714C38.7977 31.2313 38.7977 30.6792 39.1383 30.3391L40.6893 28.7906C41.0302 28.45 41.5829 28.45 41.9238 28.7906L43.4748 30.3391C43.8159 30.6792 43.8159 31.2313 43.4748 31.5714L41.9238 33.1199C41.5829 33.4603 41.0302 33.4603 40.6893 33.1199Z" fill="white"/>
<path fill-rule="evenodd" clip-rule="evenodd" d="M47.6706 39.0009L43.4749 34.8117C43.0995 34.4371 43.0995 33.8294 43.4749 33.4548L43.8089 33.1212C44.1843 32.7461 44.793 32.7461 45.1681 33.1212L49.364 37.3104C49.7395 37.6849 49.7395 38.2926 49.364 38.6672L49.0298 39.0009C48.6547 39.3757 48.046 39.3757 47.6706 39.0009Z" fill="white"/>
<path fill-rule="evenodd" clip-rule="evenodd" d="M36.8916 36.9129L35.3406 35.3644C34.9997 35.0243 34.9997 34.4722 35.3406 34.1321L36.8916 32.5836C37.2323 32.243 37.7852 32.243 38.1258 32.5836L39.6769 34.1321C40.018 34.4722 40.018 35.0243 39.6769 35.3644L38.1258 36.9129C37.7852 37.2532 37.2323 37.2532 36.8916 36.9129Z" fill="white"/>
<path fill-rule="evenodd" clip-rule="evenodd" d="M43.8717 42.7899L39.6761 38.6007C39.3007 38.2262 39.3007 37.6185 39.6761 37.2436L40.01 36.9102C40.3855 36.5351 40.9941 36.5351 41.3693 36.9102L45.5652 41.0992C45.9406 41.474 45.9406 42.0817 45.5652 42.4563L45.231 42.7899C44.8558 43.1645 44.2472 43.1645 43.8717 42.7899Z" fill="white"/>
<path fill-rule="evenodd" clip-rule="evenodd" d="M33.0928 40.7059L31.5418 39.1574C31.2009 38.8171 31.2009 38.2652 31.5418 37.9249L33.0928 36.3764C33.4334 36.036 33.9864 36.036 34.327 36.3764L35.878 37.9249C36.2192 38.2652 36.2192 38.8171 35.878 39.1574L34.327 40.7059C33.9864 41.0463 33.4334 41.0463 33.0928 40.7059Z" fill="white"/>
<path fill-rule="evenodd" clip-rule="evenodd" d="M40.0732 46.5829L35.8773 42.3937C35.5018 42.0191 35.5018 41.4114 35.8773 41.0366L36.2115 40.7032C36.5866 40.3281 37.1953 40.3281 37.5705 40.7032L41.7664 44.8921C42.1421 45.267 42.1421 45.8747 41.7664 46.2492L41.4322 46.5829C41.057 46.9575 40.4483 46.9575 40.0732 46.5829Z" fill="white"/>
<path fill-rule="evenodd" clip-rule="evenodd" d="M36.4682 35.3543C36.4024 35.2888 36.3734 35.195 36.3906 35.1038L36.5783 34.1042C36.6072 33.9518 36.754 33.8513 36.9069 33.8799C37.0598 33.9095 37.1602 34.0555 37.1315 34.2079L37.0201 34.8012L38.7029 34.4739C38.8555 34.444 39.0034 34.5442 39.0328 34.6958C39.0625 34.848 38.9629 34.9953 38.8105 35.0252L36.7208 35.4313C36.6294 35.4492 36.5349 35.4206 36.469 35.3551C36.4685 35.3549 36.4682 35.3546 36.4682 35.3543Z" fill="#003974"/>
<path fill-rule="evenodd" clip-rule="evenodd" d="M35.0721 44.2477C34.6512 44.491 34.1919 44.6436 33.6914 44.661C32.7914 45.6366 25.7254 49.3847 24.4082 49.5116C23.5738 49.6961 19.6314 49.4534 19.3262 48.8144C19.948 48.1171 20.3459 47.2723 20.532 46.2806L23.6394 47.2888L25.0543 46.6442L31.065 43.9308L32.2001 43.4066L32.8198 43.1258C32.842 42.6034 33.0734 42.1642 33.2477 41.7337C33.5618 41.5714 33.614 41.6444 33.8101 41.8342C33.7517 42.1396 33.7233 42.2829 33.9418 42.5123C34.4691 42.3829 34.954 41.4621 35.0397 41.5054C35.3048 41.7 35.4267 42.2446 35.4842 42.8042C35.4701 43.3964 35.3921 43.7132 35.0721 44.2477Z" fill="#EDB6A4"/>
<defs>
<linearGradient id="paint0_linear" x1="37.1827" y1="3.84604" x2="46.271" y2="86.9917" gradientUnits="userSpaceOnUse">
<stop stop-color="#CFEAFB"/>
<stop offset="1" stop-color="#7CAADB"/>
</linearGradient>
<linearGradient id="paint1_linear" x1="100.848" y1="44.2692" x2="99.8611" y2="51.4344" gradientUnits="userSpaceOnUse">
<stop stop-color="white"/>
<stop offset="1" stop-color="#1C1C1A"/>
</linearGradient>
</defs>
</svg>
