<svg width="199" height="51" viewBox="0 0 199 51" fill="none" xmlns="http://www.w3.org/2000/svg">
<g filter="url(#filter0_b)">
<path fill-rule="evenodd" clip-rule="evenodd" d="M0 2C0 0.895432 0.895431 0 2 0H191C192.105 0 193 0.895431 193 2V21.9221L198.152 25.7927L193 30.5947V48.7371C193 49.8416 192.105 50.7371 191 50.7371H102.011H88.9272H2C0.895432 50.7371 0 49.8416 0 48.7371V2Z" fill="white"/>
<path d="M192.5 21.9221V22.1718L192.7 22.3219L197.374 25.8339L192.659 30.2289L192.5 30.3772V30.5947V48.7371C192.5 49.5655 191.828 50.2371 191 50.2371H102.011H88.9272H2C1.17157 50.2371 0.5 49.5655 0.5 48.7371V2C0.5 1.17157 1.17157 0.5 2 0.5H191C191.828 0.5 192.5 1.17157 192.5 2V21.9221Z" stroke="#AAB2BA" stroke-opacity="0.169908"/>
</g>
<defs>
<filter id="filter0_b" x="-32.6194" y="-32.6194" width="263.39" height="115.976" filterUnits="userSpaceOnUse" color-interpolation-filters="sRGB">
<feFlood flood-opacity="0" result="BackgroundImageFix"/>
<feGaussianBlur in="BackgroundImage" stdDeviation="16.3097"/>
<feComposite in2="SourceAlpha" operator="in" result="effect1_backgroundBlur"/>
<feBlend mode="normal" in="SourceGraphic" in2="effect1_backgroundBlur" result="shape"/>
</filter>
</defs>
</svg>
