<svg width="26" height="26" viewBox="0 0 26 26" fill="none" xmlns="http://www.w3.org/2000/svg">
<path fill-rule="evenodd" clip-rule="evenodd" d="M2.76546 0.490479H23.1814C24.4509 0.490479 25.48 1.51961 25.48 2.78911V23.2109C25.48 24.4804 24.4509 25.5096 23.1814 25.5096H2.76546C1.49595 25.5096 0.46682 24.4804 0.46682 23.2109V2.78911C0.46682 1.51961 1.49595 0.490479 2.76546 0.490479ZM24.4341 2.78911C24.4309 2.0986 23.8719 1.53962 23.1814 1.53639H2.76546C2.07494 1.53962 1.51596 2.0986 1.51273 2.78911V23.2109C1.51596 23.9015 2.07494 24.4604 2.76546 24.4637H23.1814C23.8719 24.4604 24.4309 23.9015 24.4341 23.2109V2.78911Z" fill="#F58220"/>
<path d="M23.1814 1.53639L23.183 1.18639H23.1814V1.53639ZM24.4341 2.78911L24.7841 2.78911L24.7841 2.78748L24.4341 2.78911ZM2.76546 1.53639L2.76546 1.18638L2.76382 1.18639L2.76546 1.53639ZM1.51273 2.78911L1.16273 2.78748V2.78911H1.51273ZM1.51273 23.2109L1.16272 23.2109L1.16273 23.2126L1.51273 23.2109ZM2.76546 24.4637L2.76382 24.8137H2.76546V24.4637ZM23.1814 24.4637L23.1814 24.8137L23.183 24.8137L23.1814 24.4637ZM24.4341 23.2109L24.7841 23.2126V23.2109H24.4341ZM23.1814 0.140479H2.76546V0.840479H23.1814V0.140479ZM25.83 2.78911C25.83 1.32631 24.6442 0.140479 23.1814 0.140479V0.840479C24.2576 0.840479 25.13 1.71291 25.13 2.78911H25.83ZM25.83 23.2109V2.78911H25.13V23.2109H25.83ZM23.1814 25.8596C24.6442 25.8596 25.83 24.6737 25.83 23.2109H25.13C25.13 24.2871 24.2576 25.1596 23.1814 25.1596V25.8596ZM2.76546 25.8596H23.1814V25.1596H2.76546V25.8596ZM0.11682 23.2109C0.11682 24.6737 1.30266 25.8596 2.76546 25.8596V25.1596C1.68925 25.1596 0.81682 24.2871 0.81682 23.2109H0.11682ZM0.11682 2.78911V23.2109H0.81682V2.78911H0.11682ZM2.76546 0.140479C1.30265 0.140479 0.11682 1.32631 0.11682 2.78911H0.81682C0.81682 1.71291 1.68925 0.840479 2.76546 0.840479V0.140479ZM23.1797 1.88638C23.6782 1.88872 24.0818 2.29225 24.0841 2.79075L24.7841 2.78748C24.78 1.90494 24.0655 1.19053 23.183 1.18639L23.1797 1.88638ZM2.76546 1.88639H23.1814V1.18639H2.76546V1.88639ZM1.86272 2.79075C1.86506 2.29225 2.2686 1.88872 2.7671 1.88638L2.76382 1.18639C1.88128 1.19053 1.16687 1.90494 1.16273 2.78748L1.86272 2.79075ZM1.86273 23.2109V2.78911H1.16273V23.2109H1.86273ZM2.7671 24.1137C2.2686 24.1113 1.86506 23.7078 1.86272 23.2093L1.16273 23.2126C1.16687 24.0951 1.88128 24.8095 2.76382 24.8137L2.7671 24.1137ZM23.1814 24.1137H2.76546V24.8137H23.1814V24.1137ZM24.0841 23.2093C24.0818 23.7078 23.6782 24.1113 23.1797 24.1137L23.183 24.8137C24.0655 24.8095 24.78 24.0951 24.7841 23.2126L24.0841 23.2093ZM24.0841 2.78911V23.2109H24.7841V2.78911H24.0841Z" fill="#F58220"/>
<path d="M20.9005 6.73048H5.31818C5.02936 6.73048 4.79523 6.49634 4.79523 6.20752C4.79523 5.91871 5.02936 5.68457 5.31818 5.68457H20.9005C21.1893 5.68457 21.4234 5.91871 21.4234 6.20752C21.4234 6.49634 21.1893 6.73048 20.9005 6.73048Z" fill="#F58220" stroke="#F58220" stroke-width="0.7"/>
<path d="M20.9005 11.5141H5.31818C5.02936 11.5141 4.79523 11.28 4.79523 10.9912C4.79523 10.7023 5.02936 10.4682 5.31818 10.4682H20.9005C21.1893 10.4682 21.4234 10.7023 21.4234 10.9912C21.4234 11.28 21.1893 11.5141 20.9005 11.5141Z" fill="#F58220" stroke="#F58220" stroke-width="0.7"/>
<path d="M20.9005 16.5141H5.31818C5.02936 16.5141 4.79523 16.28 4.79523 15.9912C4.79523 15.7023 5.02936 15.4682 5.31818 15.4682H20.9005C21.1893 15.4682 21.4234 15.7023 21.4234 15.9912C21.4234 16.28 21.1893 16.5141 20.9005 16.5141Z" fill="#F58220" stroke="#F58220" stroke-width="0.7"/>
</svg>
