<?xml version="1.0" encoding="UTF-8"?>
<svg width="14px" height="12px" viewBox="0 0 14 12" version="1.1" xmlns="http://www.w3.org/2000/svg" xmlns:xlink="http://www.w3.org/1999/xlink">
    <!-- Generator: Sketch 53.2 (72643) - https://sketchapp.com -->
    <title>account_details</title>
    <desc>Created with Sketch.</desc>
    <g id="Page-1" stroke="none" stroke-width="1" fill="none" fill-rule="evenodd">
        <g id="profile-menu" transform="translate(-39.000000, -189.000000)" fill="#BCC1C6" fill-rule="nonzero">
            <g id="Group-2-Copy" transform="translate(39.000000, 184.000000)">
                <g id="account_details" transform="translate(0.000000, 5.000000)">
                    <g id="Group-3" transform="translate(0.159587, 0.000000)">
                        <path d="M12.8801112,9.38229456 C12.5347866,9.38229456 12.254863,9.10503692 12.254863,8.76300119 L12.254863,3.71576022 C12.254863,2.34984676 11.1329178,1.23858674 9.75387058,1.23858674 L3.75148869,1.23858674 C2.37244145,1.23858674 1.25049623,2.34984676 1.25049623,3.71576022 L1.25049623,8.76300119 C1.25049623,9.10503692 0.970572648,9.38229456 0.625248114,9.38229456 C0.279923581,9.38229456 2.66453526e-15,9.10503692 2.66453526e-15,8.76300119 L2.66453526e-15,3.71576022 C2.66453526e-15,1.66689004 1.68291782,9.29922805e-13 3.75148869,9.29922805e-13 L9.75387058,9.29922805e-13 C11.8224414,9.29922805e-13 13.5053593,1.66689004 13.5053593,3.71576022 L13.5053593,8.76300119 C13.5053593,9.10503692 13.2254357,9.38229456 12.8801112,9.38229456 Z M12.8801112,10.6137356 C13.224873,10.6137356 13.5053593,10.8915506 13.5053593,11.233029 C13.5053593,11.5745073 13.224873,11.8523224 12.8801112,11.8523224 L0.625248114,11.8523224 C0.280486304,11.8523224 2.66453526e-15,11.5745073 2.66453526e-15,11.233029 C2.66453526e-15,10.8915506 0.280486304,10.6137356 0.625248114,10.6137356 L12.8801112,10.6137356 Z M7.84726082,4.11830091 C7.84726082,3.04265026 6.96372271,2.1675268 5.87772926,2.1675268 C4.79173581,2.1675268 3.9081977,3.04265026 3.9081977,4.11830091 C3.9081977,5.19395157 4.79173581,6.06907503 5.87772926,6.06907503 C6.96372271,6.06907503 7.84726082,5.19395157 7.84726082,4.11830091 Z M6.59676459,4.11830091 C6.59676459,4.51099484 6.27423035,4.83048829 5.87772926,4.83048829 C5.48122817,4.83048829 5.15869393,4.51099484 5.15869393,4.11830091 C5.15869393,3.72560699 5.48122817,3.40611354 5.87772926,3.40611354 C6.27423035,3.40611354 6.59676459,3.72560699 6.59676459,4.11830091 Z M8.39225834,8.60672251 C8.10442537,7.51366971 7.10374702,6.75029774 5.95882394,6.75029774 L5.60906014,6.75029774 C4.46413706,6.75029774 3.46345871,7.51366971 3.17562574,8.60669154 C3.08846616,8.93764192 3.2886706,9.27589996 3.62283446,9.36222946 C3.9570921,9.44852799 4.29844631,9.25026121 4.38563716,8.91927987 C4.52991316,8.37148392 5.03298779,7.98888448 5.60906014,7.98888448 L5.95882394,7.98888448 C6.53489629,7.98888448 7.03800218,8.37148392 7.18224692,8.91931084 C7.25561979,9.197869 7.5091579,9.38244938 7.78683059,9.38244938 C7.83903881,9.38244938 7.89215363,9.37591584 7.94504962,9.36226042 C8.27918222,9.27593092 8.47941792,8.93767289 8.39225834,8.60672251 Z" id="Shape"></path>
                        <path d="M9.6552282,4.83664895 C9.6552282,4.56050658 9.87908582,4.33664895 10.1552282,4.33664895 C10.4313706,4.33664895 10.6552282,4.56050658 10.6552282,4.83664895 L10.6552282,7.06907503 C10.6552282,7.3452174 10.4313706,7.56907503 10.1552282,7.56907503 C9.87908582,7.56907503 9.6552282,7.3452174 9.6552282,7.06907503 L9.6552282,4.83664895 Z" id="Path-44"></path>
                        <path d="M9.6552282,4.83664895 C9.6552282,4.56050658 9.87908582,4.33664895 10.1552282,4.33664895 C10.4313706,4.33664895 10.6552282,4.56050658 10.6552282,4.83664895 L10.6552282,7.06907503 C10.6552282,7.3452174 10.4313706,7.56907503 10.1552282,7.56907503 C9.87908582,7.56907503 9.6552282,7.3452174 9.6552282,7.06907503 L9.6552282,4.83664895 Z" id="Path-44" transform="translate(10.155228, 5.952862) rotate(90.000000) translate(-10.155228, -5.952862) "></path>
                    </g>
                </g>
            </g>
        </g>
    </g>
</svg>