<svg width="76" height="77" viewBox="0 0 76 77" fill="none" xmlns="http://www.w3.org/2000/svg">
<g opacity="0.501707">
<path fill-rule="evenodd" clip-rule="evenodd" d="M31.1175 38.0895V41.0542L30.753 41.3051C29.9155 41.8818 29.4155 42.833 29.4155 43.8499C29.4155 45.5534 30.8015 46.9395 32.5051 46.9395H43.494C45.1975 46.9395 46.5836 45.5535 46.5836 43.8473C46.5836 42.8324 46.085 41.8822 45.25 41.3053L44.8871 41.0546V38.0896C44.8871 35.1939 43.0226 32.662 40.3003 31.7836L41.5102 27.4277H34.4944L35.7044 31.7836C32.982 32.662 31.1175 35.1938 31.1175 38.0895ZM35.6507 28.3066H40.3538L39.4261 31.6464H36.5785L35.6507 28.3066ZM39.7015 32.5253H36.3029C33.7649 33.1829 31.9964 35.4633 31.9964 38.0896V41.5161L31.2514 42.0291C30.6521 42.4417 30.2944 43.1223 30.2944 43.8499C30.2944 45.0688 31.2861 46.0605 32.5051 46.0605H43.4939C44.7129 46.0605 45.7046 45.0688 45.7046 43.8499C45.7046 43.1211 45.3479 42.4412 44.7504 42.0284L44.0081 41.5157V38.0895C44.0081 35.4633 42.2396 33.1829 39.7015 32.5253Z" fill="#AAB2BA"/>
<path d="M40.4845 39.0685H39.5545C39.5014 38.5559 39.225 38.0799 38.8204 37.787H40.4845C40.5852 37.787 40.6676 37.7047 40.6676 37.604C40.6676 37.5033 40.5852 37.4209 40.4845 37.4209H36.6108C36.5101 37.4209 36.4277 37.5033 36.4277 37.604C36.4277 37.7047 36.5101 37.787 36.6108 37.787H37.7202C38.4744 37.787 39.0968 38.3545 39.1865 39.0685H36.6108C36.5101 39.0685 36.4277 39.1509 36.4277 39.2516C36.4277 39.3522 36.5101 39.4346 36.6108 39.4346H39.1865C39.095 40.176 38.4653 40.7326 37.7202 40.7344H36.6126C36.5101 40.7362 36.4277 40.8204 36.4296 40.923C36.4296 40.9724 36.4515 41.02 36.4863 41.0548L39.2561 43.6744C39.3293 43.744 39.4447 43.7403 39.5142 43.6671C39.5838 43.5921 39.5801 43.4767 39.5069 43.4053L37.0703 41.1005H37.7184C38.674 41.1005 39.463 40.3683 39.5545 39.4346H40.4845C40.5852 39.4346 40.6676 39.3522 40.6676 39.2516C40.6676 39.1509 40.5852 39.0685 40.4845 39.0685Z" fill="#AAB2BA" stroke="#AAB2BA" stroke-width="0.5"/>
</g>
<g opacity="0.501707">
<path fill-rule="evenodd" clip-rule="evenodd" d="M56.1633 21.2238L57.2423 20.1818C46.9797 9.55454 30.0451 9.25895 19.4178 19.5216L20.4598 20.6006C30.4911 10.9134 46.4761 11.1925 56.1633 21.2238ZM19.8366 56.304L18.7576 57.346C29.0202 67.9733 45.9548 68.2689 56.582 58.0062L55.5401 56.9272C45.5087 66.6144 29.5237 66.3354 19.8366 56.304Z" fill="#AAB2BA"/>
<path fill-rule="evenodd" clip-rule="evenodd" d="M58.2392 21.2561L57.7326 20.7031C57.5717 20.5274 57.4082 20.3536 57.2423 20.1818L56.7213 19.6423L55.6423 20.6843L56.1633 21.2238C56.3201 21.3862 56.4745 21.5504 56.6266 21.7164L57.1332 22.2694L58.2392 21.2561ZM60.8155 24.7886L61.2079 25.4278L59.9295 26.2125L59.5371 25.5733C59.3679 25.2977 59.1933 25.0251 59.0132 24.7557L58.5965 24.1321L59.8436 23.2986L60.2603 23.9222C60.4511 24.2077 60.6362 24.4965 60.8155 24.7886ZM63.3496 30.1702L63.0893 29.4668C62.9703 29.1452 62.8451 28.8259 62.7137 28.5089L62.4264 27.8161L61.0408 28.3907L61.3281 29.0835C61.4521 29.3825 61.5702 29.6838 61.6825 29.9873L61.9428 30.6907L63.3496 30.1702ZM64.4067 34.4779L64.5262 35.2183L63.0454 35.4574L62.9258 34.717C62.8743 34.3975 62.8166 34.079 62.7528 33.7617L62.6049 33.0265L64.0755 32.7308L64.2233 33.4661C64.2909 33.8021 64.352 34.1395 64.4067 34.4779ZM64.7142 40.3375L64.7373 39.5878C64.7478 39.2452 64.7518 38.9024 64.7492 38.5596L64.7436 37.8096L63.2436 37.8208L63.2492 38.5708C63.2517 38.8945 63.2479 39.2182 63.238 39.5418L63.2149 40.2914L64.7142 40.3375ZM64.0844 44.7071L63.9185 45.4385L62.4556 45.1066L62.6216 44.3752C62.6932 44.0596 62.7587 43.7427 62.8182 43.4246L62.956 42.6874L64.4304 42.9629L64.2927 43.7001C64.2297 44.0371 64.1603 44.3728 64.0844 44.7071ZM62.1529 50.3026L62.4569 49.6169C62.5959 49.3033 62.7288 48.9872 62.8556 48.6686L63.1328 47.9717L61.739 47.4172L61.4618 48.1141C61.3422 48.4147 61.2168 48.7131 61.0856 49.009L60.7816 49.6946L62.1529 50.3026ZM59.9253 54.0969L59.4948 54.711L58.2665 53.8501L58.697 53.2359C58.8828 52.9709 59.0633 52.7025 59.2383 52.4309L59.6448 51.8006L60.9054 52.6134L60.499 53.2438C60.3135 53.5315 60.1222 53.816 59.9253 54.0969ZM56.0425 58.5272L56.582 58.0062C56.8288 57.7679 57.0706 57.5255 57.3072 57.279L57.8267 56.738L56.7447 55.6991L56.2253 56.2401C56.0017 56.473 55.7733 56.702 55.5401 56.9272L55.0005 57.4482L56.0425 58.5272ZM19.9573 19.0006L19.4178 19.5216C19.171 19.7599 18.9293 20.0023 18.6926 20.2488L18.1732 20.7898L19.2551 21.8287L19.7746 21.2877C19.9982 21.0549 20.2266 20.8258 20.4598 20.6006L20.9993 20.0796L19.9573 19.0006ZM16.505 22.8168L16.0745 23.4309C15.8776 23.7118 15.6864 23.9963 15.5008 24.284L15.0944 24.9144L16.3551 25.7272L16.7615 25.0969C16.9366 24.8253 17.1171 24.557 17.3029 24.2919L17.7333 23.6777L16.505 22.8168ZM13.543 27.9109L13.847 27.2252L15.2182 27.8332L14.9143 28.5188C14.7831 28.8147 14.6576 29.1131 14.5381 29.4137L14.2608 30.1106L12.8671 29.5561L13.1443 28.8592C13.271 28.5406 13.4039 28.2245 13.543 27.9109ZM12.0814 32.0893L11.9155 32.8207C11.8396 33.155 11.7702 33.4907 11.7072 33.8277L11.5694 34.5649L13.0439 34.8405L13.1817 34.1032C13.2411 33.7851 13.3067 33.4682 13.3783 33.1526L13.5442 32.4212L12.0814 32.0893ZM11.2626 37.94L11.2856 37.1903L12.7849 37.2364L12.7619 37.986C12.752 38.3096 12.7482 38.6333 12.7506 38.957L12.7562 39.707L11.2563 39.7182L11.2507 38.9682C11.2481 38.6254 11.2521 38.2826 11.2626 37.94ZM11.4737 42.3095L11.5932 43.0499C11.6478 43.3883 11.7089 43.7257 11.7765 44.0618L11.9244 44.797L13.3949 44.5013L13.2471 43.7661C13.1833 43.4488 13.1256 43.1303 13.074 42.8109L12.9545 42.0704L11.4737 42.3095ZM12.9105 48.061L12.6503 47.3576L14.0571 46.8371L14.3173 47.5405C14.4296 47.844 14.5478 48.1453 14.6718 48.4444L14.959 49.1372L13.5734 49.7117L13.2862 49.0189C13.1547 48.7019 13.0295 48.3826 12.9105 48.061ZM14.792 52.1L15.1843 52.7392C15.3636 53.0313 15.5487 53.3202 15.7395 53.6057L16.1563 54.2292L17.4034 53.3957L16.9866 52.7721C16.8066 52.5027 16.6319 52.2301 16.4627 51.9545L16.0704 51.3153L14.792 52.1ZM18.2672 56.8247L17.7606 56.2717L18.8666 55.2584L19.3733 55.8115C19.5253 55.9774 19.6798 56.1416 19.8366 56.304L20.3576 56.8435L19.2786 57.8855L18.7576 57.346C18.5916 57.1742 18.4282 57.0004 18.2672 56.8247Z" fill="#AAB2BA"/>
</g>
</svg>
