<svg width="75" height="75" viewBox="0 0 75 75" fill="none" xmlns="http://www.w3.org/2000/svg">
<path fill-rule="evenodd" clip-rule="evenodd" d="M30.118 37.0895V40.0542L29.7535 40.3051C28.916 40.8818 28.416 41.833 28.416 42.8499C28.416 44.5534 29.802 45.9395 31.5056 45.9395H42.4945C44.198 45.9395 45.584 44.5535 45.584 42.8473C45.584 41.8324 45.0855 40.8822 44.2504 40.3053L43.8876 40.0546V37.0896C43.8876 34.1939 42.0231 31.662 39.3007 30.7836L40.5106 26.4277H33.4949L34.7049 30.7836C31.9824 31.662 30.118 34.1938 30.118 37.0895ZM34.6512 27.3066H39.3543L38.4266 30.6464H35.579L34.6512 27.3066ZM38.702 31.5253H35.3034C32.7654 32.1829 30.9969 34.4633 30.9969 37.0896V40.5161L30.2519 41.0291C29.6526 41.4417 29.2949 42.1223 29.2949 42.8499C29.2949 44.0688 30.2866 45.0605 31.5056 45.0605H42.4944C43.7134 45.0605 44.7051 44.0688 44.7051 42.8499C44.7051 42.1211 44.3484 41.4412 43.7509 41.0284L43.0086 40.5157V37.0895C43.0086 34.4633 41.2401 32.1829 38.702 31.5253Z" fill="#003974"/>
<path d="M39.4845 38.0685H38.5545C38.5014 37.5559 38.225 37.0799 37.8204 36.787H39.4845C39.5852 36.787 39.6676 36.7047 39.6676 36.604C39.6676 36.5033 39.5852 36.4209 39.4845 36.4209H35.6108C35.5101 36.4209 35.4277 36.5033 35.4277 36.604C35.4277 36.7047 35.5101 36.787 35.6108 36.787H36.7202C37.4744 36.787 38.0968 37.3545 38.1865 38.0685H35.6108C35.5101 38.0685 35.4277 38.1509 35.4277 38.2516C35.4277 38.3522 35.5101 38.4346 35.6108 38.4346H38.1865C38.095 39.176 37.4653 39.7326 36.7202 39.7344H35.6126C35.5101 39.7362 35.4277 39.8204 35.4296 39.923C35.4296 39.9724 35.4515 40.02 35.4863 40.0548L38.2561 42.6744C38.3293 42.744 38.4447 42.7403 38.5142 42.6671C38.5838 42.5921 38.5801 42.4767 38.5069 42.4053L36.0703 40.1005H36.7184C37.674 40.1005 38.463 39.3683 38.5545 38.4346H39.4845C39.5852 38.4346 39.6676 38.3522 39.6676 38.2516C39.6676 38.1509 39.5852 38.0685 39.4845 38.0685Z" fill="#003974" stroke="#003974" stroke-width="0.5"/>
<path fill-rule="evenodd" clip-rule="evenodd" d="M55.1633 20.2238L56.2423 19.1818C45.9797 8.55454 29.0451 8.25895 18.4178 18.5216L19.4598 19.6006C29.4911 9.91343 45.4761 10.1925 55.1633 20.2238ZM18.8366 55.304L17.7576 56.346C28.0202 66.9733 44.9548 67.2689 55.582 57.0062L54.5401 55.9272C44.5087 65.6144 28.5237 65.3354 18.8366 55.304Z" fill="#F78200"/>
<path fill-rule="evenodd" clip-rule="evenodd" d="M57.2392 20.2561L56.7326 19.7031C56.5717 19.5274 56.4082 19.3536 56.2423 19.1818L55.7213 18.6423L54.6423 19.6843L55.1633 20.2238C55.3201 20.3862 55.4745 20.5504 55.6266 20.7164L56.1332 21.2694L57.2392 20.2561ZM59.8155 23.7886L60.2079 24.4278L58.9295 25.2125L58.5371 24.5733C58.3679 24.2977 58.1933 24.0251 58.0132 23.7557L57.5965 23.1321L58.8436 22.2986L59.2603 22.9222C59.4511 23.2077 59.6362 23.4965 59.8155 23.7886ZM62.3496 29.1702L62.0893 28.4668C61.9703 28.1452 61.8451 27.8259 61.7137 27.5089L61.4264 26.8161L60.0408 27.3907L60.3281 28.0835C60.4521 28.3825 60.5702 28.6838 60.6825 28.9873L60.9428 29.6907L62.3496 29.1702ZM63.4067 33.4779L63.5262 34.2183L62.0454 34.4574L61.9258 33.717C61.8743 33.3975 61.8166 33.079 61.7528 32.7617L61.6049 32.0265L63.0755 31.7308L63.2233 32.4661C63.2909 32.8021 63.352 33.1395 63.4067 33.4779ZM63.7142 39.3375L63.7373 38.5878C63.7478 38.2452 63.7518 37.9024 63.7492 37.5596L63.7436 36.8096L62.2436 36.8208L62.2492 37.5708C62.2517 37.8945 62.2479 38.2182 62.238 38.5418L62.2149 39.2914L63.7142 39.3375ZM63.0844 43.7071L62.9185 44.4385L61.4556 44.1066L61.6216 43.3752C61.6932 43.0596 61.7587 42.7427 61.8182 42.4246L61.956 41.6874L63.4304 41.9629L63.2927 42.7001C63.2297 43.0371 63.1603 43.3728 63.0844 43.7071ZM61.1529 49.3026L61.4569 48.6169C61.5959 48.3033 61.7288 47.9872 61.8556 47.6686L62.1328 46.9717L60.739 46.4172L60.4618 47.1141C60.3422 47.4147 60.2168 47.7131 60.0856 48.009L59.7816 48.6946L61.1529 49.3026ZM58.9253 53.0969L58.4948 53.711L57.2665 52.8501L57.697 52.2359C57.8828 51.9709 58.0633 51.7025 58.2383 51.4309L58.6448 50.8006L59.9054 51.6134L59.499 52.2438C59.3135 52.5315 59.1222 52.816 58.9253 53.0969ZM55.0425 57.5272L55.582 57.0062C55.8288 56.7679 56.0706 56.5255 56.3072 56.279L56.8267 55.738L55.7447 54.6991L55.2253 55.2401C55.0017 55.473 54.7733 55.702 54.5401 55.9272L54.0005 56.4482L55.0425 57.5272ZM18.9573 18.0006L18.4178 18.5216C18.171 18.7599 17.9293 19.0023 17.6926 19.2488L17.1732 19.7898L18.2551 20.8287L18.7746 20.2877C18.9982 20.0549 19.2266 19.8258 19.4598 19.6006L19.9993 19.0796L18.9573 18.0006ZM15.505 21.8168L15.0745 22.4309C14.8776 22.7118 14.6864 22.9963 14.5008 23.284L14.0944 23.9144L15.3551 24.7272L15.7615 24.0969C15.9366 23.8253 16.1171 23.557 16.3029 23.2919L16.7333 22.6777L15.505 21.8168ZM12.543 26.9109L12.847 26.2252L14.2182 26.8332L13.9143 27.5188C13.7831 27.8147 13.6576 28.1131 13.5381 28.4137L13.2608 29.1106L11.8671 28.5561L12.1443 27.8592C12.271 27.5406 12.4039 27.2245 12.543 26.9109ZM11.0814 31.0893L10.9155 31.8207C10.8396 32.155 10.7702 32.4907 10.7072 32.8277L10.5694 33.5649L12.0439 33.8405L12.1817 33.1032C12.2411 32.7851 12.3067 32.4682 12.3783 32.1526L12.5442 31.4212L11.0814 31.0893ZM10.2626 36.94L10.2856 36.1903L11.7849 36.2364L11.7619 36.986C11.752 37.3096 11.7482 37.6333 11.7506 37.957L11.7562 38.707L10.2563 38.7182L10.2507 37.9682C10.2481 37.6254 10.2521 37.2826 10.2626 36.94ZM10.4737 41.3095L10.5932 42.0499C10.6478 42.3883 10.7089 42.7257 10.7765 43.0618L10.9244 43.797L12.3949 43.5013L12.2471 42.7661C12.1833 42.4488 12.1256 42.1303 12.074 41.8109L11.9545 41.0704L10.4737 41.3095ZM11.9105 47.061L11.6503 46.3576L13.0571 45.8371L13.3173 46.5405C13.4296 46.844 13.5478 47.1453 13.6718 47.4444L13.959 48.1372L12.5734 48.7117L12.2862 48.0189C12.1547 47.7019 12.0295 47.3826 11.9105 47.061ZM13.792 51.1L14.1843 51.7392C14.3636 52.0313 14.5487 52.3202 14.7395 52.6057L15.1563 53.2292L16.4034 52.3957L15.9866 51.7721C15.8066 51.5027 15.6319 51.2301 15.4627 50.9545L15.0704 50.3153L13.792 51.1ZM17.2672 55.8247L16.7606 55.2717L17.8666 54.2584L18.3733 54.8115C18.5253 54.9774 18.6798 55.1416 18.8366 55.304L19.3576 55.8435L18.2786 56.8855L17.7576 56.346C17.5916 56.1742 17.4282 56.0004 17.2672 55.8247Z" fill="#F78200"/>
</svg>
