<svg width="16" height="19" viewBox="0 0 16 19" fill="none" xmlns="http://www.w3.org/2000/svg">
<path fill-rule="evenodd" clip-rule="evenodd" d="M13.5089 8.65V13.6L15.3089 15.4V16.3H0.0088501V15.4L1.80885 13.6V8.65C1.80885 5.86 3.69885 3.61 6.30885 2.98V2.35C6.30885 1.63 6.93885 1 7.65885 1C8.37885 1 9.00885 1.63 9.00885 2.35V2.98C11.6188 3.61 13.5089 5.86 13.5089 8.65ZM9.45885 17.2C9.45885 18.19 8.64885 19 7.65885 19C6.66885 19 5.85885 18.19 5.85885 17.2H9.45885Z" fill="#F58220"/>
<path d="M13.5089 13.6H13.3589V13.6621L13.4028 13.7061L13.5089 13.6ZM15.3089 15.4H15.4588V15.3379L15.4149 15.2939L15.3089 15.4ZM15.3089 16.3V16.45H15.4588V16.3H15.3089ZM0.0088501 16.3H-0.14115V16.45H0.0088501V16.3ZM0.0088501 15.4L-0.0972159 15.2939L-0.14115 15.3379V15.4H0.0088501ZM1.80885 13.6L1.91492 13.7061L1.95885 13.6621V13.6H1.80885ZM6.30885 2.98L6.34405 3.12581L6.45885 3.0981V2.98H6.30885ZM9.00885 2.98H8.85885V3.0981L8.97365 3.12581L9.00885 2.98ZM9.45885 17.2H9.60885V17.05H9.45885V17.2ZM5.85885 17.2V17.05H5.70885V17.2H5.85885ZM13.6588 13.6V8.65H13.3589V13.6H13.6588ZM15.4149 15.2939L13.6149 13.4939L13.4028 13.7061L15.2028 15.5061L15.4149 15.2939ZM15.4588 16.3V15.4H15.1589V16.3H15.4588ZM0.0088501 16.45H15.3089V16.15H0.0088501V16.45ZM-0.14115 15.4V16.3H0.15885V15.4H-0.14115ZM1.70278 13.4939L-0.0972159 15.2939L0.114916 15.5061L1.91492 13.7061L1.70278 13.4939ZM1.65885 8.65V13.6H1.95885V8.65H1.65885ZM6.27365 2.83419C3.59927 3.47973 1.65885 5.78771 1.65885 8.65H1.95885C1.95885 5.93229 3.79843 3.74027 6.34405 3.12581L6.27365 2.83419ZM6.15885 2.35V2.98H6.45885V2.35H6.15885ZM7.65885 0.85C6.85601 0.85 6.15885 1.54716 6.15885 2.35H6.45885C6.45885 1.71284 7.02169 1.15 7.65885 1.15V0.85ZM9.15885 2.35C9.15885 1.54716 8.46169 0.85 7.65885 0.85V1.15C8.29601 1.15 8.85885 1.71284 8.85885 2.35H9.15885ZM9.15885 2.98V2.35H8.85885V2.98H9.15885ZM13.6588 8.65C13.6588 5.78771 11.7184 3.47973 9.04405 2.83419L8.97365 3.12581C11.5193 3.74027 13.3589 5.93229 13.3589 8.65H13.6588ZM7.65885 19.15C8.73169 19.15 9.60885 18.2728 9.60885 17.2H9.30885C9.30885 18.1072 8.56601 18.85 7.65885 18.85V19.15ZM5.70885 17.2C5.70885 18.2728 6.58601 19.15 7.65885 19.15V18.85C6.75169 18.85 6.00885 18.1072 6.00885 17.2H5.70885ZM9.45885 17.05H5.85885V17.35H9.45885V17.05Z" fill="white"/>
</svg>
