<?xml version="1.0" encoding="UTF-8"?>
<svg width="20px" height="18px" viewBox="0 0 20 18" version="1.1" xmlns="http://www.w3.org/2000/svg" xmlns:xlink="http://www.w3.org/1999/xlink">
    <!-- Generator: Sketch 53.2 (72643) - https://sketchapp.com -->
    <title>Group 22</title>
    <desc>Created with Sketch.</desc>
    <g id="Page-1" stroke="none" stroke-width="1" fill="none" fill-rule="evenodd">
        <g id="03.a-bank-details" transform="translate(-706.000000, -471.000000)" fill="#003974">
            <g id="Group-22" transform="translate(706.400000, 471.233135)">
                <path d="M1.12805629,17.5048112 C0.796685442,17.5048112 0.528056292,17.236182 0.528056292,16.9048112 C0.528056292,16.5734403 0.796685442,16.3048112 1.12805629,16.3048112 L18.1924663,16.3048112 C18.5238371,16.3048112 18.7924663,16.5734403 18.7924663,16.9048112 C18.7924663,17.236182 18.5238371,17.5048112 18.1924663,17.5048112 L1.12805629,17.5048112 Z" id="Path-33" fill-rule="nonzero"></path>
                <path d="M3.10892013,-4.63984438e-11 L9.87826622,8.22764079e-12 C10.430551,1.21110447e-11 10.8782662,0.44771525 10.8782662,1 L10.8782662,3.8011898 L16.1041189,3.8011898 C16.6564036,3.8011898 17.1041189,4.24890505 17.1041189,4.8011898 L17.1041189,16.3301525 L2.10892013,16.3301525 L2.10892013,1 C2.10892013,0.44771525 2.55663538,-5.34291596e-11 3.10892013,-5.3429261e-11 Z M3.3515984,1.28646333 L3.3515984,16.2883411 L9.6,16.2883411 L9.6,1.28646333 L3.3515984,1.28646333 Z M10.8471522,5.02235186 L10.8471522,16.3052631 L15.8606591,16.3052631 L15.8606591,5.02235186 L10.8471522,5.02235186 Z" id="Combined-Shape"></path>
                <path d="M5.75598127,16.3052631 L4.55598127,16.3052631 L4.55598127,13.1897516 C4.55598127,12.8031522 4.86938195,12.4897515 5.25598129,12.4897515 L7.59145231,12.4897515 C7.97805164,12.4897515 8.29145233,12.8031522 8.29145233,13.1897516 L8.29145233,16.2883411 L7.09145233,16.2883411 L7.09145233,13.6897515 L5.75598127,13.6897515 L5.75598127,16.3052631 Z" id="Path-35" fill-rule="nonzero"></path>
                <path d="M5.15598127,11.2638075 C4.82461042,11.2638075 4.55598127,10.9951784 4.55598127,10.6638075 C4.55598127,10.3324367 4.82461042,10.0638075 5.15598127,10.0638075 L7.8166563,10.0638075 C8.14802715,10.0638075 8.4166563,10.3324367 8.4166563,10.6638075 C8.4166563,10.9951784 8.14802715,11.2638075 7.8166563,11.2638075 L5.15598127,11.2638075 Z" id="Path-36" fill-rule="nonzero"></path>
                <path d="M12.6713828,15.0536363 C12.340012,15.0536363 12.0713828,14.7850071 12.0713828,14.4536363 C12.0713828,14.1222654 12.340012,13.8536363 12.6713828,13.8536363 L14.031217,13.8536363 C14.3625878,13.8536363 14.631217,14.1222654 14.631217,14.4536363 C14.631217,14.7850071 14.3625878,15.0536363 14.031217,15.0536363 L12.6713828,15.0536363 Z" id="Path-36-Copy" fill-rule="nonzero"></path>
                <path d="M12.6713828,12.4545044 C12.340012,12.4545044 12.0713828,12.1858752 12.0713828,11.8545044 C12.0713828,11.5231335 12.340012,11.2545044 12.6713828,11.2545044 L14.031217,11.2545044 C14.3625878,11.2545044 14.631217,11.5231335 14.631217,11.8545044 C14.631217,12.1858752 14.3625878,12.4545044 14.031217,12.4545044 L12.6713828,12.4545044 Z" id="Path-36-Copy" fill-rule="nonzero"></path>
                <path d="M12.6713828,10.0536363 C12.340012,10.0536363 12.0713828,9.78500715 12.0713828,9.4536363 C12.0713828,9.12226545 12.340012,8.8536363 12.6713828,8.8536363 L14.031217,8.8536363 C14.3625878,8.8536363 14.631217,9.12226545 14.631217,9.4536363 C14.631217,9.78500715 14.3625878,10.0536363 14.031217,10.0536363 L12.6713828,10.0536363 Z" id="Path-36-Copy" fill-rule="nonzero"></path>
                <path d="M12.6713828,7.45450437 C12.340012,7.45450437 12.0713828,7.18587522 12.0713828,6.85450437 C12.0713828,6.52313352 12.340012,6.25450437 12.6713828,6.25450437 L14.031217,6.25450437 C14.3625878,6.25450437 14.631217,6.52313352 14.631217,6.85450437 C14.631217,7.18587522 14.3625878,7.45450437 14.031217,7.45450437 L12.6713828,7.45450437 Z" id="Path-36-Copy" fill-rule="nonzero"></path>
                <path d="M5.15598127,8.76507623 C4.82461042,8.76507623 4.55598127,8.49644708 4.55598127,8.16507623 C4.55598127,7.83370538 4.82461042,7.56507623 5.15598127,7.56507623 L7.8166563,7.56507623 C8.14802715,7.56507623 8.4166563,7.83370538 8.4166563,8.16507623 C8.4166563,8.49644708 8.14802715,8.76507623 7.8166563,8.76507623 L5.15598127,8.76507623 Z" id="Path-36" fill-rule="nonzero"></path>
                <path d="M5.15598127,6.2638075 C4.82461042,6.2638075 4.55598127,5.99517835 4.55598127,5.6638075 C4.55598127,5.33243665 4.82461042,5.0638075 5.15598127,5.0638075 L7.8166563,5.0638075 C8.14802715,5.0638075 8.4166563,5.33243665 8.4166563,5.6638075 C8.4166563,5.99517835 8.14802715,6.2638075 7.8166563,6.2638075 L5.15598127,6.2638075 Z" id="Path-36" fill-rule="nonzero"></path>
                <path d="M5.15598127,3.76507623 C4.82461042,3.76507623 4.55598127,3.49644708 4.55598127,3.16507623 C4.55598127,2.83370538 4.82461042,2.56507623 5.15598127,2.56507623 L7.8166563,2.56507623 C8.14802715,2.56507623 8.4166563,2.83370538 8.4166563,3.16507623 C8.4166563,3.49644708 8.14802715,3.76507623 7.8166563,3.76507623 L5.15598127,3.76507623 Z" id="Path-36" fill-rule="nonzero"></path>
            </g>
        </g>
    </g>
</svg>