<svg width="13" height="14" viewBox="0 0 13 14" fill="none" xmlns="http://www.w3.org/2000/svg">
<path d="M7.89536 5.45141C8.01997 5.45141 8.12107 5.35031 8.12107 5.2257C8.12107 5.1011 8.01997 5 7.89536 5H5.2257C5.1011 5 5 5.1011 5 5.2257C5 5.35031 5.1011 5.45141 5.2257 5.45141H5.98966C6.41888 5.45141 6.78036 5.71473 6.88116 6.12852H5.2257C5.1011 6.12852 5 6.22962 5 6.35423C5 6.47883 5.1011 6.57993 5.2257 6.57993H6.88116C6.78036 6.99372 6.41888 7.25704 5.98966 7.25704H5.2257C5.1321 7.26116 5.04981 7.32023 5.01616 7.40766C4.98251 7.49509 5.00397 7.59428 5.07068 7.65996L6.98006 9.46633C7.02326 9.50791 7.08115 9.5304 7.1411 9.52907C7.20106 9.5276 7.25792 9.50233 7.29907 9.45884C7.38474 9.36509 7.38062 9.2202 7.29011 9.1313L5.7932 7.70845H5.98966C6.65487 7.71139 7.2256 7.235 7.34168 6.57993H7.89522C8.01997 6.57993 8.12092 6.47883 8.12092 6.35423C8.12092 6.22962 8.01997 6.12852 7.89522 6.12852H7.34183C7.29877 5.87475 7.18181 5.6392 7.00562 5.45141H7.89536Z" fill="#606C78" stroke="#606C78" stroke-width="0.3"/>
<path fill-rule="evenodd" clip-rule="evenodd" d="M2.20984 6.52629C2.20984 4.18263 4.11653 2.27594 6.4603 2.27594C8.80396 2.27594 10.7106 4.18263 10.7106 6.52629C10.7106 7.86485 10.0823 9.11732 9.01929 9.91959V12.0769H8.47957C8.42798 13.146 7.54198 14 6.4603 14C5.37851 14 4.49261 13.146 4.44092 12.0769H3.9012V9.91948C2.83821 9.11732 2.20984 7.86485 2.20984 6.52629ZM5.26315 12.0769C5.31346 12.6934 5.83096 13.1797 6.4603 13.1797C7.08952 13.1797 7.60703 12.6934 7.65733 12.0769H5.26315ZM8.19897 11.2565H4.72151V10.2995H8.19897V11.2565ZM6.87045 9.4792H8.21649L8.37927 9.36908C9.32552 8.72885 9.89034 7.66618 9.89034 6.52629C9.89034 4.63498 8.35161 3.09625 6.4603 3.09625C6.02892 3.09625 5.61588 3.17629 5.23526 3.3223C3.94704 3.81648 3.03015 5.06634 3.03015 6.52629C3.03015 7.66618 3.59508 8.72896 4.54121 9.36908L4.70399 9.4792H6.05014H6.87045Z" fill="#606C78"/>
<path d="M11.8324 6.03645H12.9068V6.85677H11.8324L11.8324 6.03645Z" fill="#F58220"/>
<path d="M11.838 2.86778L12.2482 3.57819L11.3177 4.11545L10.9076 3.40504L11.838 2.86778Z" fill="#F58220"/>
<path d="M9.32805 0.6586L10.0385 1.06876L9.5013 1.99919L8.79089 1.58904L9.32805 0.6586Z" fill="#F58220"/>
<path d="M6.05017 0H6.87048V1.07442H6.05017V0Z" fill="#F58220"/>
<path d="M3.59224 0.658493L4.12939 1.58893L3.4191 1.99908L2.88184 1.06865L3.59224 0.658493Z" fill="#F58220"/>
<path d="M0.672119 3.57851L1.08228 2.8681L2.01271 3.40536L1.60255 4.11577L0.672119 3.57851Z" fill="#F58220"/>
<path d="M0.0136719 6.03645H1.08809V6.85677H0.0136719V6.03645Z" fill="#F58220"/>
</svg>
