<svg width="15" height="14" viewBox="0 0 15 14" fill="none" xmlns="http://www.w3.org/2000/svg">
<path d="M13.3 5.5988V12.6577C13.3 13.141 12.9083 13.5327 12.425 13.5327H2.50836C2.02507 13.5327 1.63336 13.141 1.63336 12.6577V5.5988V5.59868L5.13336 2.09868L6.27051 0.961533C6.93114 0.300908 8.00225 0.300908 8.66288 0.961533L9.80003 2.09865L13.3 5.59865V5.5988Z" fill="#003974" fill-opacity="0.01"/>
<path d="M13.3 5.59885V12.6578C13.3 13.1411 12.9083 13.5328 12.425 13.5328H12.0321C12.0969 13.4108 12.1333 13.272 12.1333 13.1244V6.06552L7.49611 1.42831C7.16565 1.09785 6.73282 0.932767 6.29999 0.932767C6.96265 0.301017 8.01178 0.310641 8.66278 0.961642L13.3 5.59885Z" fill="#E1EAF8"/>
<path fill-rule="evenodd" clip-rule="evenodd" d="M8.99281 0.631626L14.7967 6.43544C14.9789 6.6177 14.9789 6.91319 14.7966 7.0954C14.7055 7.18654 14.5861 7.2321 14.4667 7.2321C14.3473 7.2321 14.2278 7.18654 14.1367 7.0954L13.7667 6.72539V12.6578C13.7667 13.3976 13.1648 13.9995 12.425 13.9995H9.33333H5.59999H2.50833C1.76854 13.9995 1.16666 13.3976 1.16666 12.6578V6.72539L0.796651 7.0954C0.614418 7.27766 0.31893 7.27766 0.136697 7.0954C-0.0455656 6.91316 -0.0455656 6.6177 0.136697 6.43544L5.94051 0.631626C6.782 -0.209891 8.15129 -0.209891 8.99281 0.631626ZM6.06666 9.39116V13.0662H8.86666V9.39116C8.86666 9.10168 8.63114 8.86616 8.34166 8.86616H6.59166C6.30218 8.86616 6.06666 9.10168 6.06666 9.39116Z" fill="#F58220"/>
<path d="M12.8333 12.6578C12.8333 12.883 12.6501 13.0661 12.425 13.0661H9.79998V9.39113C9.79998 8.587 9.14577 7.9328 8.34164 7.9328H6.59164C5.78752 7.9328 5.13331 8.587 5.13331 9.39113V13.0661H2.50831C2.28314 13.0661 2.09998 12.883 2.09998 12.6578V5.79202L6.60045 1.29157C7.07811 0.813941 7.85523 0.813941 8.33283 1.29157L12.8333 5.79202V12.6578Z" fill="white"/>
</svg>
