<svg width="10" height="9" viewBox="0 0 10 9" fill="none" xmlns="http://www.w3.org/2000/svg">
<path d="M8.5498 3.5993V8.13717C8.5498 8.44786 8.29799 8.69967 7.9873 8.69967H1.6123C1.30162 8.69967 1.0498 8.44786 1.0498 8.13717V3.5993V3.59922L3.2998 1.34922L4.03083 0.618198C4.45552 0.193511 5.14409 0.193511 5.56878 0.618198L6.2998 1.3492L8.5498 3.5992V3.5993Z" fill="#003974" fill-opacity="0.01"/>
<path d="M8.5498 3.5993V8.13718C8.5498 8.44786 8.29799 8.69967 7.9873 8.69967H7.73474C7.77637 8.6213 7.7998 8.53205 7.7998 8.43717V3.8993L4.81874 0.918237C4.6063 0.7058 4.32805 0.599675 4.0498 0.599675C4.4758 0.19355 5.15024 0.199737 5.56874 0.618237L8.5498 3.5993Z" fill="#E1EAF8"/>
<path fill-rule="evenodd" clip-rule="evenodd" d="M5.78109 0.406036L9.51213 4.13706C9.6293 4.25423 9.6293 4.44419 9.51211 4.56132C9.45354 4.61991 9.37676 4.6492 9.3 4.6492C9.22323 4.6492 9.14645 4.61991 9.08788 4.56132L8.85 4.32346V8.13715C8.85 8.61274 8.46307 8.99965 7.9875 8.99965H6H3.6H1.6125C1.13692 8.99965 0.749995 8.61274 0.749995 8.13715V4.32346L0.512133 4.56132C0.394983 4.67849 0.205027 4.67849 0.0878766 4.56132C-0.0292922 4.44417 -0.0292922 4.25423 0.0878766 4.13706L3.8189 0.406036C4.35986 -0.134939 5.24011 -0.134939 5.78109 0.406036ZM3.9 6.03717V8.39967H5.7V6.03717C5.7 5.85107 5.54859 5.69967 5.3625 5.69967H4.2375C4.0514 5.69967 3.9 5.85107 3.9 6.03717Z" fill="#F58C32"/>
<path d="M8.2501 8.13718C8.2501 8.28193 8.13235 8.39968 7.9876 8.39968H6.3001V6.03718C6.3001 5.52024 5.87953 5.09968 5.3626 5.09968H4.2376C3.72066 5.09968 3.3001 5.52024 3.3001 6.03718V8.39968H1.6126C1.46785 8.39968 1.3501 8.28193 1.3501 8.13718V3.72347L4.24326 0.830324C4.55033 0.523274 5.0499 0.523274 5.35694 0.830324L8.2501 3.72347V8.13718Z" fill="white"/>
</svg>
