<svg width="11" height="13" viewBox="0 0 11 13" fill="none" xmlns="http://www.w3.org/2000/svg">
<path fill-rule="evenodd" clip-rule="evenodd" d="M7.33333 1.3V0.65C7.33333 0.2912 7.60711 0 7.94444 0C8.28178 0 8.55556 0.2912 8.55556 0.65V1.3C9.9055 1.3 11 2.46415 11 3.9V10.4C11 11.8358 9.9055 13 8.55556 13C6.80778 13 4.19161 13 2.44444 13C1.0945 13 0 11.8358 0 10.4V3.9C0 2.46415 1.0945 1.3 2.44444 1.3V0.65C2.44444 0.2912 2.71822 0 3.05556 0C3.39289 0 3.66667 0.2912 3.66667 0.65V1.3H7.33333ZM9.77778 6.5H1.22222V10.4C1.22222 11.1176 1.76917 11.7 2.44444 11.7H8.55556C9.23022 11.7 9.77778 11.1176 9.77778 10.4V6.5ZM8.55556 2.6V3.25C8.55556 3.6088 8.28178 3.9 7.94444 3.9C7.60711 3.9 7.33333 3.6088 7.33333 3.25V2.6H3.66667V3.25C3.66667 3.6088 3.39289 3.9 3.05556 3.9C2.71822 3.9 2.44444 3.6088 2.44444 3.25V2.6C1.76917 2.6 1.22222 3.18175 1.22222 3.9V5.2H9.77778V3.9C9.77778 3.18175 9.23022 2.6 8.55556 2.6Z" fill="#BAC5D1"/>
</svg>
