<?xml version="1.0" encoding="UTF-8"?>
<svg width="11px" height="13px" viewBox="0 0 11 13" version="1.1" xmlns="http://www.w3.org/2000/svg" xmlns:xlink="http://www.w3.org/1999/xlink">
    <!-- Generator: Sketch 63.1 (92452) - https://sketch.com -->
    <title>calendar (3)</title>
    <desc>Created with Sketch.</desc>
    <g id="Page-1" stroke="none" stroke-width="1" fill="none" fill-rule="evenodd">
        <g id="02-Portfolio---V1.1-schemes-Copy" transform="translate(-857.000000, -942.000000)" fill="#003974" fill-rule="nonzero">
            <g id="calendar-(3)" transform="translate(857.000000, 942.500000)">
                <rect id="Rectangle" x="5.40514286" y="6.59485714" width="2.99766745" height="2.99766745"></rect>
                <path d="M9.6018829,1.1990726 L9.00236066,1.1990726 L9.00236066,0 L7.80328806,0 L7.80328806,1.1990726 L3.00702576,1.1990726 L3.00702576,0 L1.80795316,0 L1.80795316,1.1990726 L1.20843091,1.1990726 C0.545957845,1.1990726 0.0153723653,1.73564403 0.0153723653,2.3981452 L0.00935831382,10.7915691 C0.00935831382,11.4540422 0.545929742,11.9906417 1.20843091,11.9906417 L9.6018829,11.9906417 C10.264356,11.9906417 10.8009555,11.4540703 10.8009555,10.7915691 L10.8009555,2.3981171 C10.8009555,1.73564403 10.264356,1.1990726 9.6018829,1.1990726 Z M9.6018829,10.7915691 L1.20843091,10.7915691 L1.20843091,4.19671194 L9.6018829,4.19671194 L9.6018829,10.7915691 Z" id="Shape"></path>
            </g>
        </g>
    </g>
</svg>