<?xml version="1.0" encoding="UTF-8"?>
<svg width="16px" height="16px" viewBox="0 0 16 16" version="1.1" xmlns="http://www.w3.org/2000/svg" xmlns:xlink="http://www.w3.org/1999/xlink">
    <!-- Generator: Sketch 53.2 (72643) - https://sketchapp.com -->
    <title>phone-call (2)</title>
    <desc>Created with Sketch.</desc>
    <g id="Page-1" stroke="none" stroke-width="1" fill="none" fill-rule="evenodd">
        <g id="18-My-folios" transform="translate(-575.000000, -386.000000)" fill="#ADB9C8" fill-rule="nonzero" stroke="#ADB9C8" stroke-width="0.3">
            <g id="phone-call-(2)" transform="translate(576.000000, 387.000000)">
                <path d="M11.8572253,1.98827668 C9.11239526,-0.662758893 4.7607747,-0.662758893 2.01594466,1.98827668 C-0.701660079,4.80202767 -0.623719368,9.28603953 2.19003162,12.0036443 C4.93486166,14.6546798 9.28648221,14.6546798 12.0313123,12.0036443 C14.748917,9.18992095 14.6709763,4.70588142 11.8572253,1.98827668 Z M11.6984111,11.6707431 L11.6960593,11.6683913 C9.11319763,14.2489012 4.92747431,14.2469921 2.34696443,11.6641304 C-0.233545455,9.08126877 -0.231636364,4.89557312 2.3512253,2.31506324 C4.93408696,-0.26544664 9.11981028,-0.263537549 11.7003202,2.31929644 C12.9398182,3.55992885 13.635585,5.2422253 13.6344506,6.99596047 C13.6345613,8.7493083 12.9381581,10.4308854 11.6984111,11.6707431 Z" id="Shape"></path>
                <path d="M11.0019249,9.01226482 L9.67505138,7.69009486 C9.37391304,7.38823715 8.8850751,7.38765613 8.58321739,7.68879447 C8.5827747,7.68923715 8.58235968,7.68965217 8.581917,7.69009486 L7.82168379,8.45032806 C7.76416206,8.50798814 7.67352174,8.51595652 7.6068419,8.4692253 C7.19074308,8.17843478 6.8012332,7.85131621 6.44287747,7.49177075 C6.12192885,7.1715415 5.82668379,6.82657708 5.55985375,6.46000395 C5.51149012,6.39415415 5.51851779,6.3028498 5.57637154,6.24516206 L6.35550198,5.46603162 C6.6563083,5.16464427 6.6563083,4.67663636 6.35550198,4.37524901 L5.02862846,3.04837549 C4.72286957,2.75606324 4.24125296,2.75606324 3.93549407,3.04837549 L3.51524506,3.46862451 C2.88056917,4.09616206 2.65399605,5.02796443 2.92970751,5.87684585 C3.13544664,6.49790909 3.42626482,7.0874585 3.79383399,7.6286996 C4.12474308,8.12489723 4.50437549,8.58678656 4.92711462,9.0075336 C5.38670751,9.47041897 5.89579842,9.88131621 6.44522925,10.2328933 C7.04922134,10.6270237 7.71239526,10.9219368 8.40957312,11.1064545 C8.58880632,11.1506403 8.77274308,11.17283 8.95731621,11.1725534 C9.59011067,11.1686798 10.1955138,10.9139684 10.6407194,10.464253 L11.0019526,10.1030198 C11.3027312,9.80166008 11.3027312,9.31365217 11.0019249,9.01226482 Z M10.667585,9.78101976 C10.6672806,9.78132411 10.6669763,9.78165613 10.6666443,9.78196047 L10.668996,9.77487747 L10.3077628,10.1361107 C9.84363241,10.6061067 9.16767589,10.7994783 8.52519763,10.646087 C7.87790514,10.47283 7.26256917,10.1970356 6.70251383,9.82918972 C6.18218972,9.49664822 5.69999209,9.10791304 5.26466403,8.66992885 C4.86411462,8.27231225 4.50426482,7.83571146 4.19039921,7.36665613 C3.84709486,6.86193676 3.57536759,6.31211858 3.38293676,5.73283399 C3.16233992,5.05231225 3.34514229,4.30558103 3.85514625,3.80390514 L4.27539526,3.38365613 C4.39223715,3.26628854 4.58209486,3.26587352 4.69943478,3.38271542 C4.69973913,3.38301976 4.70007115,3.38332411 4.70037549,3.38365613 L6.02724901,4.71052964 C6.1446166,4.82737154 6.14503162,5.01722925 6.02818972,5.13456917 C6.02788538,5.13487352 6.02758103,5.13517787 6.02724901,5.13550988 L5.24811858,5.91464032 C5.02456126,6.13576285 4.99645059,6.48714625 5.18201976,6.741 C5.46381818,7.12774308 5.77566403,7.49166008 6.11462451,7.82943083 C6.4925415,8.20898024 6.9033834,8.55424901 7.34233597,8.86119763 C7.59596838,9.03810672 7.93982609,9.00828063 8.1592332,8.79036759 L8.9123834,8.02540316 C9.0292253,7.90803557 9.219083,7.90762055 9.33642292,8.02446245 C9.33672727,8.0247668 9.33703162,8.02507115 9.33736364,8.02540316 L10.6666166,9.35700791 C10.7840119,9.47382213 10.7844269,9.66365217 10.667585,9.78101976 Z" id="Shape"></path>
            </g>
        </g>
    </g>
</svg>