<?xml version="1.0" encoding="UTF-8"?>
<svg width="12px" height="12px" viewBox="0 0 12 12" version="1.1" xmlns="http://www.w3.org/2000/svg" xmlns:xlink="http://www.w3.org/1999/xlink">
    <!-- Generator: Sketch 63.1 (92452) - https://sketch.com -->
    <title>cancelled</title>
    <desc>Created with Sketch.</desc>
    <g id="Page-1" stroke="none" stroke-width="1" fill="none" fill-rule="evenodd">
        <g id="06-my-transactions-copy-2" transform="translate(-934.000000, -481.000000)" fill="#929292" fill-rule="nonzero" stroke="#929292" stroke-width="0.4">
            <g id="Group-6" transform="translate(935.000000, 476.000000)">
                <g id="Group-21">
                    <g id="cancelled" transform="translate(0.000000, 6.000000)">
                        <path d="M5,0 C2.23856855,0 0,2.23856855 0,5 C0,7.76143145 2.23856855,10 5,10 C7.76143145,10 10,7.76143145 10,5 C9.99679435,2.23989919 7.76010081,0.00320564516 5,0 Z M5,9.67741935 C2.41673387,9.67741935 0.322580645,7.58326613 0.322580645,5 C0.322580645,2.41673387 2.41673387,0.322580645 5,0.322580645 C7.58326613,0.322580645 9.67741935,2.41673387 9.67741935,5 C9.67457661,7.58209677 7.58209677,9.67457661 5,9.67741935 Z" id="Shape"></path>
                        <path d="M7.28096774,2.71903226 C7.21798387,2.65606855 7.1158871,2.65606855 7.05290323,2.71903226 L5,4.77193548 L2.94709677,2.71903226 C2.88522177,2.65495968 2.78310484,2.65318548 2.71903226,2.71506048 C2.65495968,2.77693548 2.65318548,2.87905242 2.71506048,2.943125 C2.71635081,2.94447581 2.71768145,2.94578629 2.71903226,2.94709677 L4.77193548,5 L2.71903226,7.05290323 C2.65495968,7.11479839 2.65318548,7.21689516 2.71508065,7.28096774 C2.77697581,7.34504032 2.87907258,7.34681452 2.94314516,7.28491935 C2.94449597,7.28362903 2.94580645,7.28229839 2.94709677,7.28096774 L5,5.22806452 L7.05290323,7.28096774 C7.11697581,7.3428629 7.21907258,7.34108871 7.28096774,7.27701613 C7.34135081,7.21451613 7.34135081,7.11540323 7.28096774,7.05290323 L5.22806452,5 L7.28096774,2.94709677 C7.34393145,2.8841129 7.34393145,2.78201613 7.28096774,2.71903226 Z" id="Path"></path>
                    </g>
                </g>
            </g>
        </g>
    </g>
</svg>