<svg width="373" height="70" viewBox="0 0 373 70" fill="none" xmlns="http://www.w3.org/2000/svg">
<g clip-path="url(#clip0)">
<g filter="url(#filter0_d)">
<rect width="373" height="70" rx="3" fill="#FAFAFA"/>
<rect x="0.5" y="0.5" width="372" height="69" rx="2.5" stroke="#D6D6D6"/>
</g>
<path d="M266.613 49.2158V44.2581H267.378V45.0046H267.397C267.404 45.0046 267.407 45.0014 267.407 44.995C267.413 44.9887 267.42 44.9823 267.426 44.9759C267.426 44.9695 267.426 44.9631 267.426 44.9568C267.432 44.944 267.439 44.9344 267.445 44.9281C267.458 44.9153 267.468 44.8993 267.474 44.8802C267.487 44.8611 267.496 44.8419 267.503 44.8228C267.547 44.7398 267.598 44.6601 267.656 44.5835C267.713 44.5069 267.78 44.4367 267.857 44.3729C267.927 44.3028 268.013 44.2517 268.115 44.2198C268.217 44.1815 268.329 44.1624 268.45 44.1624C268.52 44.1624 268.584 44.1688 268.642 44.1815C268.705 44.1879 268.766 44.1975 268.823 44.2102C268.855 44.2166 268.884 44.2262 268.91 44.2389C268.935 44.2453 268.961 44.2517 268.986 44.2581C269.005 44.2709 269.024 44.2804 269.044 44.2868C269.069 44.2932 269.091 44.3028 269.111 44.3155C269.13 44.3283 269.149 44.341 269.168 44.3538C269.187 44.3602 269.206 44.3697 269.225 44.3825C269.238 44.3889 269.251 44.3985 269.264 44.4112C269.283 44.4176 269.299 44.424 269.312 44.4304L269.024 45.1865C268.98 45.1737 268.932 45.1578 268.881 45.1386C268.83 45.1195 268.779 45.1003 268.728 45.0812C268.677 45.062 268.622 45.0493 268.565 45.0429C268.514 45.0301 268.463 45.0238 268.412 45.0238C268.271 45.0238 268.15 45.0493 268.048 45.1003C267.946 45.1514 267.86 45.2248 267.79 45.3205C267.726 45.4162 267.669 45.5183 267.617 45.6267C267.573 45.7288 267.538 45.8373 267.512 45.9521C267.499 46.0159 267.487 46.0798 267.474 46.1436C267.468 46.2074 267.464 46.268 267.464 46.3254C267.458 46.3828 267.455 46.4371 267.455 46.4881C267.455 46.5392 267.455 46.587 267.455 46.6317V49.2158H266.613ZM273.245 47.6175L274.107 47.7228C274.043 47.9652 273.95 48.1854 273.829 48.3832C273.714 48.5746 273.567 48.7437 273.389 48.8904C273.21 49.0435 273 49.1552 272.757 49.2254C272.515 49.2956 272.24 49.3307 271.934 49.3307C271.545 49.3307 271.203 49.2764 270.91 49.168C270.616 49.0531 270.368 48.8776 270.163 48.6416C269.966 48.4119 269.816 48.1439 269.714 47.8376C269.611 47.525 269.56 47.1772 269.56 46.7944C269.56 46.4179 269.608 46.0734 269.704 45.7607C269.806 45.4417 269.956 45.1578 270.154 44.9089C270.352 44.6601 270.594 44.475 270.881 44.3538C271.168 44.2262 271.497 44.1624 271.867 44.1624C271.912 44.1624 271.956 44.1656 272.001 44.172C272.052 44.172 272.1 44.1751 272.145 44.1815C272.196 44.1879 272.243 44.1943 272.288 44.2007C272.339 44.2007 272.387 44.207 272.432 44.2198C272.642 44.2645 272.846 44.3506 273.044 44.4782C273.242 44.5995 273.43 44.7558 273.609 44.9472C273.788 45.145 273.918 45.4002 274.001 45.7129C274.091 46.0255 274.135 46.3988 274.135 46.8327C274.135 46.839 274.135 46.8454 274.135 46.8518C274.135 46.8582 274.135 46.8646 274.135 46.8709C274.135 46.8773 274.135 46.8837 274.135 46.8901C274.135 46.8901 274.135 46.8933 274.135 46.8997C274.135 46.906 274.135 46.9124 274.135 46.9188C274.135 46.9252 274.135 46.9316 274.135 46.9379C274.135 46.9443 274.135 46.9507 274.135 46.9571C274.135 46.9571 274.135 46.9603 274.135 46.9667L270.422 46.9475C270.435 47.2538 270.482 47.5154 270.565 47.7323C270.648 47.9493 270.766 48.1247 270.92 48.2587C271.073 48.3927 271.232 48.4948 271.398 48.565C271.57 48.6288 271.749 48.6607 271.934 48.6607C272.081 48.6607 272.212 48.6479 272.326 48.6224C272.448 48.5905 272.55 48.5459 272.633 48.4884C272.722 48.431 272.799 48.3704 272.862 48.3066C272.933 48.2364 272.99 48.1662 273.035 48.096C273.06 48.0514 273.083 48.0099 273.102 47.9716C273.121 47.9269 273.14 47.8855 273.159 47.8472C273.178 47.8089 273.194 47.7706 273.207 47.7323C273.226 47.694 273.239 47.6621 273.245 47.6366V47.6175ZM270.47 46.2584H273.274C273.268 46.1563 273.255 46.0574 273.236 45.9617C273.217 45.866 273.191 45.7767 273.159 45.6937C273.127 45.6044 273.086 45.5246 273.035 45.4545C272.99 45.3843 272.939 45.3173 272.882 45.2535C272.824 45.196 272.76 45.145 272.69 45.1003C272.62 45.0493 272.54 45.0046 272.451 44.9663C272.362 44.9281 272.269 44.8993 272.173 44.8802C272.078 44.8611 271.979 44.8515 271.877 44.8515C271.679 44.8515 271.5 44.8834 271.341 44.9472C271.181 45.0046 271.047 45.0939 270.939 45.2152C270.824 45.3364 270.731 45.4608 270.661 45.5884C270.591 45.7161 270.54 45.8532 270.508 46C270.502 46.0255 270.495 46.051 270.489 46.0766C270.482 46.1021 270.479 46.1244 270.479 46.1436C270.473 46.1691 270.47 46.1946 270.47 46.2201C270.47 46.2393 270.47 46.2584 270.47 46.2776V46.2584ZM280.143 46.8135L281.042 47.0432C280.966 47.3431 280.873 47.6047 280.765 47.828C280.663 48.0514 280.541 48.2396 280.401 48.3927C280.261 48.5522 280.117 48.6894 279.97 48.8043C279.824 48.9127 279.674 49.0021 279.521 49.0723C279.399 49.1297 279.278 49.1743 279.157 49.2062C279.036 49.2318 278.918 49.2541 278.803 49.2732C278.688 49.2924 278.579 49.3051 278.477 49.3115C278.382 49.3243 278.292 49.3307 278.209 49.3307C277.916 49.3307 277.648 49.3083 277.405 49.2637C277.163 49.2254 276.949 49.1648 276.764 49.0818C276.579 48.9925 276.413 48.8968 276.266 48.7947C276.12 48.6862 275.992 48.5714 275.884 48.4501C275.801 48.3544 275.724 48.2555 275.654 48.1534C275.584 48.0514 275.52 47.9461 275.462 47.8376C275.405 47.7291 275.354 47.6207 275.309 47.5122C275.271 47.4037 275.236 47.2921 275.204 47.1772C275.166 47.0496 275.131 46.9252 275.099 46.804C275.073 46.6763 275.054 46.5519 275.041 46.4307C275.022 46.3095 275.009 46.1946 275.003 46.0861C274.997 45.9713 274.994 45.8628 274.994 45.7607C274.994 45.1546 275.073 44.6314 275.233 44.1911C275.399 43.7508 275.648 43.3903 275.979 43.1096C276.305 42.8288 276.652 42.6183 277.023 42.4779C277.399 42.3375 277.798 42.2673 278.219 42.2673C278.525 42.2673 278.815 42.3088 279.09 42.3918C279.371 42.4683 279.635 42.5864 279.884 42.7459C280.133 42.9054 280.344 43.1128 280.516 43.368C280.688 43.6168 280.825 43.9167 280.927 44.2677L280.037 44.4591C280.025 44.4336 280.009 44.4017 279.99 44.3634C279.977 44.3251 279.964 44.2836 279.951 44.2389C279.932 44.2007 279.913 44.1592 279.894 44.1145C279.875 44.0699 279.856 44.0252 279.836 43.9805C279.773 43.8657 279.693 43.754 279.597 43.6456C279.508 43.5371 279.399 43.435 279.272 43.3393C279.15 43.2436 279.001 43.1702 278.822 43.1192C278.643 43.0681 278.439 43.0426 278.209 43.0426C277.852 43.0426 277.543 43.0936 277.281 43.1957C277.026 43.2914 276.815 43.435 276.649 43.6264C276.49 43.8178 276.356 44.022 276.247 44.2389C276.145 44.4495 276.069 44.6696 276.018 44.8993C275.998 44.9759 275.983 45.0525 275.97 45.129C275.963 45.1992 275.957 45.2694 275.951 45.3396C275.944 45.4098 275.938 45.48 275.931 45.5502C275.931 45.614 275.931 45.681 275.931 45.7512C275.931 45.7958 275.931 45.8628 275.931 45.9521C275.938 46.0351 275.944 46.1372 275.951 46.2584C275.963 46.3796 275.979 46.5041 275.998 46.6317C276.024 46.7593 276.056 46.8901 276.094 47.0241C276.113 47.1006 276.136 47.1772 276.161 47.2538C276.193 47.324 276.228 47.3942 276.266 47.4643C276.298 47.5409 276.337 47.6143 276.381 47.6845C276.426 47.7483 276.474 47.8089 276.525 47.8663C276.614 47.9684 276.71 48.0609 276.812 48.1439C276.914 48.2204 277.023 48.2874 277.137 48.3449C277.252 48.4023 277.367 48.4501 277.482 48.4884C277.603 48.5203 277.724 48.5427 277.846 48.5554C277.865 48.5618 277.887 48.5682 277.913 48.5746C277.938 48.5746 277.964 48.5746 277.989 48.5746C278.015 48.5746 278.037 48.5746 278.056 48.5746C278.082 48.5746 278.107 48.5746 278.133 48.5746C278.433 48.5746 278.694 48.5363 278.918 48.4597C279.141 48.3768 279.329 48.2555 279.482 48.096C279.629 47.9301 279.753 47.761 279.856 47.5888C279.958 47.4101 280.037 47.2219 280.095 47.0241C280.095 47.0113 280.095 46.9986 280.095 46.9858C280.101 46.9667 280.108 46.9475 280.114 46.9284C280.12 46.9156 280.124 46.9029 280.124 46.8901C280.13 46.8709 280.136 46.8518 280.143 46.8327V46.8135ZM281.403 49.2158L284.035 42.363H285.011L287.806 49.2158H286.782L285.978 47.1294H283.116L282.36 49.2158H281.403ZM284.131 44.3921L283.375 46.4115H285.7L284.982 44.5069C284.976 44.5069 284.97 44.5037 284.963 44.4974C284.963 44.4846 284.963 44.475 284.963 44.4686C284.957 44.4559 284.951 44.4463 284.944 44.4399C284.944 44.4272 284.941 44.4176 284.935 44.4112C284.928 44.3985 284.922 44.3889 284.915 44.3825C284.915 44.3697 284.915 44.357 284.915 44.3442C284.909 44.3378 284.903 44.3283 284.896 44.3155C284.896 44.3028 284.896 44.2932 284.896 44.2868C284.858 44.1975 284.823 44.1081 284.791 44.0188C284.759 43.9231 284.727 43.8274 284.695 43.7317C284.663 43.636 284.632 43.5371 284.6 43.435C284.574 43.3265 284.545 43.2149 284.514 43.1L284.494 43.0809C284.469 43.2021 284.443 43.3201 284.418 43.435C284.399 43.5435 284.373 43.6519 284.341 43.7604C284.316 43.8689 284.284 43.9773 284.246 44.0858C284.207 44.1943 284.169 44.3028 284.131 44.4112V44.3921ZM288.533 49.2158V42.363H291.117C291.188 42.3758 291.255 42.3854 291.318 42.3918C291.389 42.3918 291.462 42.3918 291.538 42.3918C291.615 42.3918 291.692 42.395 291.768 42.4013C291.845 42.4013 291.921 42.4077 291.998 42.4205C292.049 42.4269 292.097 42.4364 292.141 42.4492C292.192 42.4556 292.244 42.4651 292.295 42.4779C292.339 42.4907 292.387 42.5034 292.438 42.5162C292.489 42.5289 292.537 42.5417 292.582 42.5545C292.677 42.5864 292.767 42.6278 292.85 42.6789C292.939 42.7236 293.022 42.7778 293.099 42.8416C293.188 42.9182 293.268 43.0011 293.338 43.0904C293.408 43.1734 293.469 43.2659 293.52 43.368C293.571 43.4701 293.612 43.5722 293.644 43.6743C293.682 43.77 293.711 43.8721 293.73 43.9805C293.73 44.0124 293.73 44.0443 293.73 44.0762C293.737 44.1081 293.743 44.14 293.749 44.172C293.749 44.1911 293.749 44.2102 293.749 44.2294C293.749 44.2421 293.753 44.2549 293.759 44.2677C293.759 44.2868 293.759 44.3059 293.759 44.3251C293.759 44.3378 293.759 44.3506 293.759 44.3634C293.759 44.5037 293.746 44.6409 293.721 44.7749C293.702 44.9089 293.67 45.0429 293.625 45.1769C293.58 45.3109 293.52 45.4353 293.443 45.5502C293.373 45.665 293.287 45.7735 293.185 45.8756C293.121 45.9394 293.051 45.9968 292.974 46.0478C292.904 46.0989 292.824 46.1436 292.735 46.1818C292.69 46.201 292.646 46.2201 292.601 46.2393C292.563 46.2584 292.524 46.2744 292.486 46.2871C292.441 46.2999 292.397 46.3126 292.352 46.3254C292.314 46.3382 292.272 46.3509 292.228 46.3637C292.145 46.3828 292.058 46.3988 291.969 46.4115C291.886 46.4243 291.803 46.4339 291.72 46.4403C291.637 46.4466 291.561 46.453 291.491 46.4594C291.42 46.4594 291.353 46.4594 291.29 46.4594L289.442 46.4403V49.2158H288.533ZM289.442 43.1766V45.6267H291.203C291.248 45.6395 291.296 45.6459 291.347 45.6459C291.398 45.6459 291.456 45.6427 291.519 45.6363C291.577 45.6363 291.637 45.6331 291.701 45.6267C291.765 45.614 291.829 45.598 291.893 45.5789C292.007 45.547 292.119 45.5023 292.228 45.4449C292.336 45.3875 292.438 45.3173 292.534 45.2343C292.63 45.145 292.7 45.0333 292.744 44.8993C292.795 44.759 292.821 44.5899 292.821 44.3921C292.821 44.3602 292.818 44.3315 292.811 44.3059C292.811 44.274 292.808 44.2421 292.802 44.2102C292.795 44.1783 292.789 44.1464 292.783 44.1145C292.783 44.0762 292.776 44.038 292.764 43.9997C292.751 43.955 292.735 43.9103 292.716 43.8657C292.697 43.821 292.674 43.7764 292.649 43.7317C292.623 43.687 292.591 43.6456 292.553 43.6073C292.521 43.5626 292.486 43.5211 292.448 43.4828C292.365 43.4127 292.279 43.3552 292.189 43.3106C292.1 43.2659 292.004 43.2404 291.902 43.234C291.8 43.2212 291.688 43.2117 291.567 43.2053C291.452 43.1989 291.325 43.1957 291.184 43.1957L289.442 43.1766ZM296.64 49.2158V43.1766H294.391V42.363H299.817V43.1766H297.549V49.2158H296.64ZM305.107 46.8135L306.007 47.0432C305.931 47.3431 305.838 47.6047 305.73 47.828C305.627 48.0514 305.506 48.2396 305.366 48.3927C305.225 48.5522 305.082 48.6894 304.935 48.8043C304.788 48.9127 304.638 49.0021 304.485 49.0723C304.364 49.1297 304.243 49.1743 304.122 49.2062C304 49.2318 303.882 49.2541 303.767 49.2732C303.653 49.2924 303.544 49.3051 303.442 49.3115C303.346 49.3243 303.257 49.3307 303.174 49.3307C302.881 49.3307 302.613 49.3083 302.37 49.2637C302.128 49.2254 301.914 49.1648 301.729 49.0818C301.544 48.9925 301.378 48.8968 301.231 48.7947C301.084 48.6862 300.957 48.5714 300.848 48.4501C300.765 48.3544 300.689 48.2555 300.619 48.1534C300.548 48.0514 300.485 47.9461 300.427 47.8376C300.37 47.7291 300.319 47.6207 300.274 47.5122C300.236 47.4037 300.201 47.2921 300.169 47.1772C300.131 47.0496 300.095 46.9252 300.064 46.804C300.038 46.6763 300.019 46.5519 300.006 46.4307C299.987 46.3095 299.974 46.1946 299.968 46.0861C299.961 45.9713 299.958 45.8628 299.958 45.7607C299.958 45.1546 300.038 44.6314 300.198 44.1911C300.363 43.7508 300.612 43.3903 300.944 43.1096C301.269 42.8288 301.617 42.6183 301.987 42.4779C302.364 42.3375 302.763 42.2673 303.184 42.2673C303.49 42.2673 303.78 42.3088 304.055 42.3918C304.335 42.4683 304.6 42.5864 304.849 42.7459C305.098 42.9054 305.308 43.1128 305.481 43.368C305.653 43.6168 305.79 43.9167 305.892 44.2677L305.002 44.4591C304.989 44.4336 304.973 44.4017 304.954 44.3634C304.942 44.3251 304.929 44.2836 304.916 44.2389C304.897 44.2007 304.878 44.1592 304.859 44.1145C304.839 44.0699 304.82 44.0252 304.801 43.9805C304.737 43.8657 304.658 43.754 304.562 43.6456C304.473 43.5371 304.364 43.435 304.236 43.3393C304.115 43.2436 303.965 43.1702 303.787 43.1192C303.608 43.0681 303.404 43.0426 303.174 43.0426C302.817 43.0426 302.507 43.0936 302.246 43.1957C301.99 43.2914 301.78 43.435 301.614 43.6264C301.455 43.8178 301.321 44.022 301.212 44.2389C301.11 44.4495 301.033 44.6696 300.982 44.8993C300.963 44.9759 300.947 45.0525 300.934 45.129C300.928 45.1992 300.922 45.2694 300.915 45.3396C300.909 45.4098 300.903 45.48 300.896 45.5502C300.896 45.614 300.896 45.681 300.896 45.7512C300.896 45.7958 300.896 45.8628 300.896 45.9521C300.903 46.0351 300.909 46.1372 300.915 46.2584C300.928 46.3796 300.944 46.5041 300.963 46.6317C300.989 46.7593 301.021 46.8901 301.059 47.0241C301.078 47.1006 301.1 47.1772 301.126 47.2538C301.158 47.324 301.193 47.3942 301.231 47.4643C301.263 47.5409 301.301 47.6143 301.346 47.6845C301.391 47.7483 301.439 47.8089 301.49 47.8663C301.579 47.9684 301.675 48.0609 301.777 48.1439C301.879 48.2204 301.987 48.2874 302.102 48.3449C302.217 48.4023 302.332 48.4501 302.447 48.4884C302.568 48.5203 302.689 48.5427 302.81 48.5554C302.83 48.5618 302.852 48.5682 302.877 48.5746C302.903 48.5746 302.928 48.5746 302.954 48.5746C302.979 48.5746 303.002 48.5746 303.021 48.5746C303.046 48.5746 303.072 48.5746 303.098 48.5746C303.397 48.5746 303.659 48.5363 303.882 48.4597C304.106 48.3768 304.294 48.2555 304.447 48.096C304.594 47.9301 304.718 47.761 304.82 47.5888C304.922 47.4101 305.002 47.2219 305.06 47.0241C305.06 47.0113 305.06 46.9986 305.06 46.9858C305.066 46.9667 305.072 46.9475 305.079 46.9284C305.085 46.9156 305.088 46.9029 305.088 46.8901C305.095 46.8709 305.101 46.8518 305.107 46.8327V46.8135ZM307.143 49.2158V42.363H308.052V45.1769H311.613V42.363H312.522V49.2158H311.613V45.9904H308.052V49.2158H307.143ZM313.275 49.2158L315.907 42.363H316.883L319.678 49.2158H318.654L317.85 47.1294H314.988L314.232 49.2158H313.275ZM316.003 44.3921L315.246 46.4115H317.572L316.854 44.5069C316.848 44.5069 316.842 44.5037 316.835 44.4974C316.835 44.4846 316.835 44.475 316.835 44.4686C316.829 44.4559 316.822 44.4463 316.816 44.4399C316.816 44.4272 316.813 44.4176 316.806 44.4112C316.8 44.3985 316.794 44.3889 316.787 44.3825C316.787 44.3697 316.787 44.357 316.787 44.3442C316.781 44.3378 316.775 44.3283 316.768 44.3155C316.768 44.3028 316.768 44.2932 316.768 44.2868C316.73 44.1975 316.695 44.1081 316.663 44.0188C316.631 43.9231 316.599 43.8274 316.567 43.7317C316.535 43.636 316.503 43.5371 316.472 43.435C316.446 43.3265 316.417 43.2149 316.385 43.1L316.366 43.0809C316.341 43.2021 316.315 43.3201 316.29 43.435C316.271 43.5435 316.245 43.6519 316.213 43.7604C316.188 43.8689 316.156 43.9773 316.117 44.0858C316.079 44.1943 316.041 44.3028 316.003 44.4112V44.3921Z" fill="#A5A5A5"/>
<path d="M266.627 61.0863V55.2542H268.826C268.886 55.265 268.943 55.2732 268.998 55.2786C269.057 55.2786 269.12 55.2786 269.185 55.2786C269.25 55.2786 269.315 55.2813 269.38 55.2868C269.446 55.2868 269.511 55.2922 269.576 55.3031C269.619 55.3085 269.66 55.3166 269.698 55.3275C269.741 55.3329 269.785 55.3411 269.828 55.3519C269.866 55.3628 269.907 55.3737 269.951 55.3845C269.994 55.3954 270.035 55.4062 270.073 55.4171C270.154 55.4442 270.23 55.4795 270.301 55.523C270.377 55.561 270.447 55.6072 270.513 55.6615C270.589 55.7266 270.656 55.7972 270.716 55.8732C270.776 55.9438 270.828 56.0226 270.871 56.1095C270.914 56.1963 270.95 56.2832 270.977 56.3701C271.009 56.4516 271.034 56.5385 271.05 56.6308C271.05 56.6579 271.05 56.6851 271.05 56.7122C271.056 56.7394 271.061 56.7665 271.066 56.7937C271.066 56.81 271.066 56.8263 271.066 56.8426C271.066 56.8534 271.069 56.8643 271.075 56.8751C271.075 56.8914 271.075 56.9077 271.075 56.924C271.075 56.9349 271.075 56.9457 271.075 56.9566C271.075 57.0761 271.064 57.1928 271.042 57.3068C271.026 57.4209 270.999 57.5349 270.961 57.649C270.923 57.763 270.871 57.8689 270.806 57.9666C270.746 58.0644 270.673 58.1567 270.586 58.2436C270.532 58.2979 270.472 58.3467 270.407 58.3902C270.347 58.4336 270.279 58.4716 270.203 58.5042C270.165 58.5205 270.127 58.5368 270.089 58.5531C270.056 58.5694 270.024 58.583 269.991 58.5938C269.953 58.6047 269.915 58.6155 269.877 58.6264C269.845 58.6373 269.809 58.6481 269.771 58.659C269.701 58.6753 269.627 58.6889 269.551 58.6997C269.481 58.7106 269.41 58.7187 269.34 58.7242C269.269 58.7296 269.204 58.735 269.144 58.7404C269.084 58.7404 269.027 58.7404 268.973 58.7404L267.401 58.7242V61.0863H266.627ZM267.401 55.9466V58.0318H268.9C268.938 58.0426 268.979 58.0481 269.022 58.0481C269.065 58.0481 269.114 58.0454 269.169 58.0399C269.217 58.0399 269.269 58.0372 269.323 58.0318C269.378 58.0209 269.432 58.0074 269.486 57.9911C269.584 57.9639 269.679 57.9259 269.771 57.877C269.864 57.8282 269.951 57.7684 270.032 57.6978C270.113 57.6218 270.173 57.5268 270.211 57.4127C270.255 57.2933 270.276 57.1494 270.276 56.981C270.276 56.9539 270.274 56.9294 270.268 56.9077C270.268 56.8806 270.266 56.8534 270.26 56.8263C270.255 56.7991 270.249 56.772 270.244 56.7448C270.244 56.7122 270.238 56.6796 270.227 56.6471C270.217 56.609 270.203 56.571 270.187 56.533C270.17 56.495 270.151 56.457 270.13 56.419C270.108 56.381 270.081 56.3457 270.048 56.3131C270.021 56.2751 269.991 56.2398 269.959 56.2072C269.888 56.1475 269.815 56.0986 269.739 56.0606C269.663 56.0226 269.581 56.0009 269.494 55.9954C269.408 55.9846 269.312 55.9764 269.209 55.971C269.112 55.9656 269.003 55.9628 268.883 55.9628L267.401 55.9466ZM271.954 61.0863V56.867H272.606V57.5023H272.622C272.628 57.5023 272.63 57.4996 272.63 57.4942C272.636 57.4888 272.641 57.4833 272.647 57.4779C272.647 57.4725 272.647 57.467 272.647 57.4616C272.652 57.4507 272.657 57.4426 272.663 57.4372C272.674 57.4263 272.682 57.4127 272.687 57.3964C272.698 57.3802 272.706 57.3639 272.712 57.3476C272.75 57.277 272.793 57.2091 272.842 57.1439C272.891 57.0788 272.948 57.019 273.013 56.9647C273.073 56.905 273.146 56.8616 273.233 56.8344C273.32 56.8018 273.415 56.7855 273.518 56.7855C273.578 56.7855 273.632 56.791 273.681 56.8018C273.735 56.8073 273.787 56.8154 273.836 56.8263C273.863 56.8317 273.887 56.8398 273.909 56.8507C273.931 56.8561 273.953 56.8616 273.974 56.867C273.991 56.8778 274.007 56.886 274.023 56.8914C274.045 56.8969 274.064 56.905 274.08 56.9159C274.097 56.9267 274.113 56.9376 274.129 56.9484C274.145 56.9539 274.162 56.962 274.178 56.9729C274.189 56.9783 274.2 56.9865 274.211 56.9973C274.227 57.0027 274.24 57.0082 274.251 57.0136L274.007 57.6571C273.969 57.6462 273.928 57.6327 273.885 57.6164C273.841 57.6001 273.798 57.5838 273.754 57.5675C273.711 57.5512 273.665 57.5403 273.616 57.5349C273.572 57.5241 273.529 57.5186 273.486 57.5186C273.366 57.5186 273.263 57.5403 273.176 57.5838C273.089 57.6272 273.016 57.6897 272.956 57.7711C272.902 57.8526 272.853 57.9395 272.81 58.0318C272.772 58.1187 272.742 58.211 272.72 58.3087C272.709 58.363 272.698 58.4173 272.687 58.4716C272.682 58.5259 272.679 58.5775 272.679 58.6264C272.674 58.6753 272.671 58.7214 272.671 58.7649C272.671 58.8083 272.671 58.849 272.671 58.8871V61.0863H271.954ZM274.691 61.0863V56.867H275.408V61.0863H274.691ZM274.691 56.0687V55.2542H275.408V56.0687H274.691ZM277.534 61.0863L275.93 56.867H276.687L277.591 59.3921C277.629 59.5007 277.662 59.5984 277.689 59.6853C277.716 59.7722 277.741 59.8482 277.762 59.9134C277.779 59.984 277.795 60.0491 277.811 60.1089C277.828 60.1632 277.841 60.2148 277.852 60.2636L277.868 60.2474C277.879 60.2202 277.887 60.1903 277.893 60.1578C277.904 60.1252 277.912 60.0926 277.917 60.06C277.928 60.0274 277.939 59.9948 277.95 59.9623C277.961 59.9297 277.972 59.8971 277.982 59.8645C277.993 59.8265 278.004 59.7912 278.015 59.7586C278.031 59.7206 278.045 59.6826 278.056 59.6446C278.067 59.612 278.077 59.5794 278.088 59.5468C278.105 59.5143 278.118 59.4844 278.129 59.4572L279.066 56.867H279.799L278.202 61.0863H277.534ZM281.029 58.1621L280.328 58.0725C280.339 58.0454 280.347 58.0128 280.353 57.9748C280.364 57.9313 280.377 57.8825 280.393 57.8282C280.404 57.7793 280.421 57.7277 280.442 57.6734C280.469 57.6191 280.502 57.5648 280.54 57.5105C280.594 57.4182 280.665 57.3313 280.752 57.2498C280.844 57.1684 280.955 57.0896 281.086 57.0136C281.211 56.9376 281.368 56.8806 281.558 56.8426C281.754 56.8045 281.979 56.7855 282.234 56.7855C282.593 56.7855 282.883 56.8208 283.106 56.8914C283.334 56.9566 283.491 57.057 283.578 57.1928C283.671 57.3286 283.741 57.4725 283.79 57.6245C283.839 57.7766 283.866 57.934 283.872 58.097C283.872 58.1078 283.872 58.1187 283.872 58.1295C283.872 58.1404 283.872 58.1513 283.872 58.1621C283.872 58.1784 283.872 58.192 283.872 58.2028C283.872 58.2137 283.872 58.2246 283.872 58.2354C283.872 58.2571 283.872 58.2816 283.872 58.3087C283.872 58.3305 283.872 58.3522 283.872 58.3739V59.3188C283.872 59.5577 283.872 59.7641 283.872 59.9378C283.877 60.1116 283.882 60.2528 283.888 60.3614C283.893 60.47 283.907 60.5732 283.929 60.6709C283.95 60.7687 283.98 60.8583 284.018 60.9397C284.024 60.956 284.029 60.9723 284.034 60.9886C284.04 60.9994 284.045 61.0103 284.051 61.0212C284.062 61.0375 284.07 61.051 284.075 61.0619C284.086 61.0728 284.094 61.0809 284.1 61.0863H283.35C283.323 61.0429 283.301 60.9967 283.285 60.9479C283.269 60.899 283.255 60.8501 283.244 60.8012C283.239 60.7578 283.231 60.7171 283.22 60.6791C283.215 60.641 283.209 60.6085 283.204 60.5813C283.052 60.7116 282.905 60.8175 282.764 60.899C282.628 60.9804 282.498 61.0402 282.373 61.0782C282.242 61.1108 282.118 61.1352 281.998 61.1515C281.879 61.1732 281.762 61.1841 281.648 61.1841C281.414 61.1841 281.208 61.1569 281.029 61.1026C280.855 61.0483 280.706 60.9642 280.581 60.8501C280.456 60.7361 280.361 60.6085 280.296 60.4673C280.236 60.3207 280.206 60.1605 280.206 59.9867C280.206 59.8129 280.228 59.6609 280.271 59.5306C280.32 59.4002 280.393 59.2916 280.491 59.2047C280.589 59.1124 280.689 59.0337 280.793 58.9685C280.901 58.9034 281.013 58.8518 281.127 58.8138C281.197 58.792 281.265 58.773 281.33 58.7567C281.401 58.7404 281.469 58.7269 281.534 58.716C281.599 58.7051 281.659 58.697 281.713 58.6916C281.773 58.6807 281.824 58.6726 281.868 58.6671C281.884 58.6671 281.914 58.6644 281.957 58.659C282.006 58.6481 282.069 58.64 282.145 58.6346C282.221 58.6237 282.299 58.6128 282.381 58.602C282.462 58.5857 282.547 58.5694 282.633 58.5531C282.677 58.5422 282.72 58.5341 282.764 58.5287C282.813 58.5178 282.862 58.5069 282.91 58.4961C282.954 58.4852 282.995 58.4744 283.033 58.4635C283.076 58.4526 283.117 58.4391 283.155 58.4228C283.155 58.4119 283.155 58.401 283.155 58.3902C283.155 58.3739 283.155 58.3576 283.155 58.3413C283.155 58.3305 283.155 58.3223 283.155 58.3169C283.155 58.3114 283.155 58.3033 283.155 58.2924C283.155 58.287 283.155 58.2816 283.155 58.2762C283.155 58.2653 283.155 58.2571 283.155 58.2517C283.155 58.2463 283.155 58.2436 283.155 58.2436C283.155 58.2381 283.155 58.2327 283.155 58.2273C283.155 58.2218 283.155 58.2164 283.155 58.211C283.155 58.2056 283.155 58.2028 283.155 58.2028C283.155 58.1974 283.155 58.192 283.155 58.1866C283.155 58.1811 283.155 58.1757 283.155 58.1703C283.149 58.0725 283.128 57.9775 283.09 57.8852C283.057 57.7929 283.011 57.706 282.951 57.6245C282.891 57.5431 282.791 57.4806 282.65 57.4372C282.514 57.3937 282.34 57.372 282.128 57.372C281.944 57.372 281.789 57.3883 281.664 57.4209C281.539 57.4535 281.442 57.4996 281.371 57.5594C281.3 57.6245 281.241 57.6924 281.192 57.763C281.148 57.8282 281.113 57.8987 281.086 57.9748C281.08 57.9802 281.075 57.9883 281.07 57.9992C281.07 58.0101 281.07 58.0182 281.07 58.0236C281.064 58.0345 281.059 58.0454 281.053 58.0562C281.053 58.0617 281.053 58.0698 281.053 58.0807C281.048 58.097 281.042 58.1132 281.037 58.1295C281.037 58.1458 281.034 58.1621 281.029 58.1784V58.1621ZM283.155 59.2292V58.9685C283.111 58.9957 283.062 59.0174 283.008 59.0337C282.954 59.05 282.897 59.0663 282.837 59.0826C282.772 59.0988 282.707 59.1151 282.642 59.1314C282.576 59.1477 282.511 59.1613 282.446 59.1722C282.408 59.1776 282.367 59.1857 282.324 59.1966C282.286 59.202 282.245 59.2102 282.202 59.221C282.164 59.2265 282.123 59.2319 282.08 59.2373C282.042 59.2427 282.006 59.2482 281.974 59.2536C281.952 59.259 281.93 59.2645 281.909 59.2699C281.892 59.2699 281.873 59.2699 281.851 59.2699C281.83 59.2753 281.808 59.2808 281.786 59.2862C281.77 59.2862 281.751 59.2889 281.729 59.2943C281.632 59.3106 281.539 59.3351 281.452 59.3676C281.365 59.4002 281.284 59.4382 281.208 59.4817C281.127 59.5306 281.067 59.5957 281.029 59.6772C280.991 59.7586 280.972 59.8564 280.972 59.9704C280.972 59.9813 280.972 59.9948 280.972 60.0111C280.972 60.022 280.972 60.0329 280.972 60.0437C280.972 60.0546 280.972 60.0654 280.972 60.0763C280.977 60.0872 280.983 60.098 280.988 60.1089C280.999 60.174 281.023 60.2365 281.061 60.2962C281.099 60.356 281.151 60.4157 281.216 60.4754C281.281 60.5297 281.363 60.5705 281.461 60.5976C281.564 60.6248 281.683 60.6383 281.819 60.6383C281.851 60.6383 281.89 60.6356 281.933 60.6302C281.982 60.6248 282.033 60.6193 282.088 60.6139C282.147 60.603 282.207 60.5895 282.267 60.5732C282.327 60.5569 282.389 60.5352 282.454 60.508C282.487 60.4971 282.519 60.4836 282.552 60.4673C282.585 60.4456 282.617 60.4238 282.65 60.4021C282.666 60.3913 282.682 60.3804 282.699 60.3695C282.715 60.3532 282.731 60.3397 282.747 60.3288C282.758 60.3125 282.772 60.2989 282.788 60.2881C282.805 60.2718 282.821 60.2555 282.837 60.2392C282.908 60.1632 282.965 60.0844 283.008 60.003C283.052 59.9215 283.081 59.8401 283.098 59.7586C283.114 59.6772 283.128 59.593 283.138 59.5061C283.149 59.4192 283.155 59.3323 283.155 59.2455V59.2292ZM287.713 59.5387L288.422 59.6283C288.39 59.8292 288.343 60.003 288.284 60.1496C288.229 60.2962 288.156 60.4238 288.064 60.5324C287.977 60.6356 287.887 60.7279 287.795 60.8094C287.703 60.8908 287.608 60.956 287.51 61.0049C287.423 61.0429 287.339 61.0728 287.257 61.0945C287.176 61.1162 287.097 61.1325 287.021 61.1434C286.94 61.1542 286.869 61.1624 286.809 61.1678C286.755 61.1786 286.706 61.1841 286.663 61.1841C286.315 61.1841 286.017 61.1298 285.767 61.0212C285.522 60.9126 285.327 60.7442 285.18 60.5162C285.034 60.2935 284.922 60.0573 284.846 59.8075C284.776 59.5523 284.74 59.2835 284.74 59.0011C284.74 58.6427 284.776 58.3359 284.846 58.0807C284.922 57.82 285.036 57.6082 285.188 57.4453C285.34 57.2824 285.498 57.1494 285.661 57.0462C285.829 56.943 286.003 56.8724 286.182 56.8344C286.226 56.8235 286.266 56.8181 286.304 56.8181C286.348 56.8127 286.388 56.8073 286.427 56.8018C286.448 56.8018 286.467 56.8018 286.484 56.8018C286.505 56.7964 286.527 56.7937 286.549 56.7937C286.565 56.7882 286.581 56.7855 286.598 56.7855C286.619 56.7855 286.641 56.7855 286.663 56.7855C286.712 56.7855 286.763 56.7882 286.817 56.7937C286.872 56.7937 286.926 56.7991 286.98 56.81C287.04 56.8154 287.1 56.8263 287.16 56.8426C287.219 56.8588 287.282 56.8778 287.347 56.8996C287.38 56.9104 287.412 56.924 287.445 56.9403C287.477 56.9566 287.513 56.9729 287.551 56.9892C287.583 57.0055 287.616 57.0245 287.648 57.0462C287.681 57.0625 287.713 57.0815 287.746 57.1032C287.811 57.1466 287.871 57.1982 287.925 57.258C287.985 57.3123 288.039 57.3747 288.088 57.4453C288.132 57.5105 288.17 57.5729 288.202 57.6327C288.235 57.6924 288.259 57.7521 288.276 57.8119C288.292 57.8662 288.305 57.9205 288.316 57.9748C288.333 58.0291 288.343 58.0779 288.349 58.1214L287.656 58.211C287.618 58.0698 287.57 57.9449 287.51 57.8363C287.45 57.7277 287.377 57.6408 287.29 57.5756C287.203 57.5105 287.108 57.4616 287.005 57.429C286.907 57.391 286.804 57.372 286.695 57.372C286.516 57.372 286.359 57.3964 286.223 57.4453C286.093 57.4942 285.984 57.5675 285.897 57.6652C285.81 57.763 285.737 57.8634 285.677 57.9666C285.623 58.0698 285.582 58.1784 285.555 58.2924C285.539 58.3576 285.525 58.4228 285.514 58.4879C285.503 58.5531 285.495 58.6155 285.49 58.6753C285.484 58.735 285.479 58.792 285.473 58.8463C285.473 58.8952 285.473 58.9414 285.473 58.9848C285.473 59.0174 285.473 59.0608 285.473 59.1151C285.473 59.164 285.476 59.2265 285.482 59.3025C285.487 59.3731 285.498 59.4491 285.514 59.5306C285.531 59.612 285.552 59.6935 285.579 59.7749C285.612 59.8781 285.655 59.9786 285.71 60.0763C285.769 60.174 285.84 60.2664 285.921 60.3532C286.003 60.4401 286.103 60.5053 286.223 60.5487C286.348 60.5922 286.492 60.6139 286.655 60.6139C286.785 60.6139 286.899 60.6003 286.997 60.5732C287.1 60.5406 287.187 60.4971 287.257 60.4428C287.328 60.3831 287.388 60.3234 287.437 60.2636C287.491 60.1985 287.537 60.1306 287.575 60.06C287.602 60.0111 287.624 59.9623 287.64 59.9134C287.656 59.8645 287.667 59.8156 287.673 59.7668C287.684 59.7179 287.692 59.6772 287.697 59.6446C287.703 59.6066 287.708 59.5767 287.713 59.555V59.5387ZM289 62.7154L288.927 62.0394C288.938 62.0448 288.949 62.0475 288.96 62.0475C288.976 62.0529 288.992 62.0584 289.009 62.0638C289.025 62.0638 289.041 62.0638 289.057 62.0638C289.074 62.0692 289.09 62.0746 289.106 62.0801C289.139 62.0909 289.174 62.0964 289.212 62.0964C289.25 62.1018 289.291 62.1045 289.334 62.1045C289.443 62.1045 289.535 62.0909 289.611 62.0638C289.693 62.0421 289.758 62.0068 289.807 61.9579C289.856 61.909 289.902 61.8493 289.945 61.7787C289.989 61.7135 290.03 61.6348 290.068 61.5425C290.073 61.5316 290.076 61.5208 290.076 61.5099C290.081 61.499 290.087 61.4882 290.092 61.4773C290.097 61.461 290.1 61.4474 290.1 61.4366C290.106 61.4257 290.111 61.4149 290.116 61.404C290.122 61.3931 290.125 61.3823 290.125 61.3714C290.13 61.3606 290.135 61.3497 290.141 61.3388C290.146 61.3226 290.149 61.309 290.149 61.2981C290.154 61.2873 290.16 61.2764 290.165 61.2655C290.165 61.2655 290.165 61.2628 290.165 61.2574C290.165 61.2574 290.168 61.2574 290.173 61.2574C290.173 61.252 290.173 61.2465 290.173 61.2411C290.173 61.2411 290.173 61.2384 290.173 61.233C290.173 61.233 290.176 61.233 290.182 61.233C290.182 61.2275 290.182 61.2221 290.182 61.2167C290.182 61.2167 290.184 61.2167 290.19 61.2167C290.19 61.2112 290.19 61.2085 290.19 61.2085C290.19 61.2031 290.19 61.2004 290.19 61.2004C290.195 61.1895 290.198 61.1786 290.198 61.1678C290.203 61.1569 290.209 61.1461 290.214 61.1352C290.22 61.1298 290.222 61.1216 290.222 61.1108C290.228 61.1053 290.23 61.0999 290.23 61.0945L288.626 56.867H289.4L290.279 59.3106C290.323 59.4355 290.361 59.5496 290.393 59.6527C290.426 59.7505 290.453 59.8401 290.475 59.9215C290.502 60.003 290.524 60.0763 290.54 60.1415C290.556 60.2012 290.57 60.2555 290.581 60.3044L290.597 60.2881C290.602 60.2664 290.608 60.2446 290.613 60.2229C290.619 60.1958 290.624 60.1686 290.63 60.1415C290.635 60.1197 290.64 60.0953 290.646 60.0682C290.657 60.041 290.665 60.0166 290.67 59.9948C290.676 59.9677 290.681 59.9433 290.687 59.9215C290.697 59.8944 290.706 59.8672 290.711 59.8401C290.722 59.8184 290.73 59.7939 290.735 59.7668C290.746 59.7396 290.754 59.7152 290.76 59.6935C290.771 59.6663 290.779 59.6392 290.784 59.612C290.795 59.5794 290.806 59.5468 290.817 59.5143C290.828 59.4871 290.839 59.46 290.849 59.4328C290.86 59.4002 290.871 59.3676 290.882 59.3351L291.778 56.867H292.503L290.89 61.1596C290.885 61.1651 290.879 61.1705 290.874 61.1759C290.874 61.1868 290.874 61.1949 290.874 61.2004C290.868 61.2112 290.863 61.2221 290.858 61.233C290.858 61.2438 290.855 61.2547 290.849 61.2655C290.844 61.2764 290.839 61.2845 290.833 61.29C290.833 61.3008 290.833 61.309 290.833 61.3144C290.828 61.3253 290.822 61.3334 290.817 61.3388C290.817 61.3497 290.814 61.3578 290.809 61.3633C290.803 61.3741 290.798 61.3823 290.792 61.3877C290.792 61.3986 290.792 61.4094 290.792 61.4203C290.787 61.4257 290.782 61.4339 290.776 61.4447C290.776 61.4556 290.776 61.4637 290.776 61.4692C290.706 61.6538 290.63 61.8221 290.548 61.9742C290.472 62.1317 290.388 62.2756 290.296 62.4059C290.209 62.5362 290.095 62.634 289.953 62.6991C289.818 62.7643 289.655 62.7969 289.465 62.7969C289.427 62.7969 289.389 62.7942 289.351 62.7887C289.318 62.7887 289.286 62.786 289.253 62.7806C289.237 62.7752 289.22 62.7697 289.204 62.7643C289.193 62.7643 289.18 62.7643 289.163 62.7643C289.153 62.7589 289.139 62.7534 289.123 62.748C289.112 62.748 289.101 62.7453 289.09 62.7399C289.085 62.7344 289.076 62.729 289.066 62.7236C289.06 62.7236 289.052 62.7236 289.041 62.7236C289.036 62.7236 289.03 62.7236 289.025 62.7236C289.019 62.7181 289.014 62.7154 289.009 62.7154C289.009 62.7154 289.006 62.7154 289 62.7154ZM295.096 59.3351V58.6183H297.287V59.3351H295.096ZM301.097 61.0863V55.9466H299.183V55.2542H303.801V55.9466H301.871V61.0863H301.097ZM306.482 59.726L307.215 59.8156C307.161 60.022 307.082 60.2093 306.979 60.3777C306.881 60.5406 306.756 60.6845 306.604 60.8094C306.452 60.9397 306.273 61.0347 306.067 61.0945C305.86 61.1542 305.627 61.1841 305.366 61.1841C305.035 61.1841 304.744 61.1379 304.495 61.0456C304.245 60.9479 304.033 60.7985 303.859 60.5976C303.691 60.4021 303.563 60.174 303.476 59.9134C303.39 59.6473 303.346 59.3514 303.346 59.0255C303.346 58.7051 303.387 58.4119 303.468 58.1458C303.555 57.8743 303.683 57.6327 303.851 57.4209C304.019 57.2091 304.226 57.0516 304.47 56.9484C304.715 56.8398 304.994 56.7855 305.309 56.7855C305.347 56.7855 305.385 56.7882 305.423 56.7937C305.467 56.7937 305.507 56.7964 305.545 56.8018C305.589 56.8073 305.63 56.8127 305.668 56.8181C305.711 56.8181 305.752 56.8235 305.79 56.8344C305.969 56.8724 306.143 56.9457 306.311 57.0543C306.479 57.1575 306.64 57.2906 306.792 57.4535C306.944 57.6218 307.055 57.839 307.126 58.1051C307.202 58.3712 307.24 58.6889 307.24 59.0581C307.24 59.0635 307.24 59.069 307.24 59.0744C307.24 59.0798 307.24 59.0853 307.24 59.0907C307.24 59.0961 307.24 59.1016 307.24 59.107C307.24 59.107 307.24 59.1097 307.24 59.1151C307.24 59.1206 307.24 59.126 307.24 59.1314C307.24 59.1369 307.24 59.1423 307.24 59.1477C307.24 59.1531 307.24 59.1586 307.24 59.164C307.24 59.164 307.24 59.1667 307.24 59.1722L304.079 59.1559C304.09 59.4165 304.131 59.6392 304.201 59.8238C304.272 60.0084 304.372 60.1578 304.503 60.2718C304.633 60.3858 304.769 60.4727 304.91 60.5324C305.057 60.5867 305.209 60.6139 305.366 60.6139C305.491 60.6139 305.602 60.603 305.7 60.5813C305.803 60.5542 305.89 60.5162 305.961 60.4673C306.037 60.4184 306.102 60.3668 306.156 60.3125C306.216 60.2528 306.265 60.193 306.303 60.1333C306.325 60.0953 306.344 60.06 306.36 60.0274C306.376 59.9894 306.392 59.9541 306.409 59.9215C306.425 59.889 306.439 59.8564 306.449 59.8238C306.466 59.7912 306.477 59.7641 306.482 59.7423V59.726ZM304.12 58.5694H306.507C306.501 58.4825 306.49 58.3983 306.474 58.3169C306.458 58.2354 306.436 58.1594 306.409 58.0888C306.382 58.0128 306.346 57.9449 306.303 57.8852C306.265 57.8254 306.221 57.7684 306.173 57.7141C306.124 57.6652 306.069 57.6218 306.01 57.5838C305.95 57.5403 305.882 57.5023 305.806 57.4698C305.73 57.4372 305.651 57.4127 305.57 57.3964C305.488 57.3802 305.404 57.372 305.317 57.372C305.149 57.372 304.997 57.3992 304.861 57.4535C304.725 57.5023 304.611 57.5784 304.519 57.6815C304.421 57.7847 304.343 57.8906 304.283 57.9992C304.223 58.1078 304.18 58.2246 304.152 58.3495C304.147 58.3712 304.142 58.3929 304.136 58.4146C304.131 58.4363 304.128 58.4554 304.128 58.4716C304.123 58.4934 304.12 58.5151 304.12 58.5368C304.12 58.5531 304.12 58.5694 304.12 58.5857V58.5694ZM308.076 61.0863V56.867H308.727V57.5023H308.744C308.749 57.5023 308.752 57.4996 308.752 57.4942C308.757 57.4888 308.763 57.4833 308.768 57.4779C308.768 57.4725 308.768 57.467 308.768 57.4616C308.774 57.4507 308.779 57.4426 308.785 57.4372C308.795 57.4263 308.804 57.4127 308.809 57.3964C308.82 57.3802 308.828 57.3639 308.833 57.3476C308.871 57.277 308.915 57.2091 308.964 57.1439C309.013 57.0788 309.07 57.019 309.135 56.9647C309.194 56.905 309.268 56.8616 309.355 56.8344C309.442 56.8018 309.537 56.7855 309.64 56.7855C309.7 56.7855 309.754 56.791 309.803 56.8018C309.857 56.8073 309.909 56.8154 309.957 56.8263C309.985 56.8317 310.009 56.8398 310.031 56.8507C310.052 56.8561 310.074 56.8616 310.096 56.867C310.112 56.8778 310.129 56.886 310.145 56.8914C310.167 56.8969 310.186 56.905 310.202 56.9159C310.218 56.9267 310.234 56.9376 310.251 56.9484C310.267 56.9539 310.283 56.962 310.3 56.9729C310.31 56.9783 310.321 56.9865 310.332 56.9973C310.348 57.0027 310.362 57.0082 310.373 57.0136L310.129 57.6571C310.09 57.6462 310.05 57.6327 310.006 57.6164C309.963 57.6001 309.919 57.5838 309.876 57.5675C309.833 57.5512 309.786 57.5403 309.738 57.5349C309.694 57.5241 309.651 57.5186 309.607 57.5186C309.488 57.5186 309.385 57.5403 309.298 57.5838C309.211 57.6272 309.137 57.6897 309.078 57.7711C309.023 57.8526 308.975 57.9395 308.931 58.0318C308.893 58.1187 308.863 58.211 308.842 58.3087C308.831 58.363 308.82 58.4173 308.809 58.4716C308.804 58.5259 308.801 58.5775 308.801 58.6264C308.795 58.6753 308.793 58.7214 308.793 58.7649C308.793 58.8083 308.793 58.849 308.793 58.8871V61.0863H308.076ZM311.067 61.0863V56.867H311.71V57.4535H311.727C311.786 57.3666 311.857 57.2851 311.939 57.2091C312.02 57.1276 312.112 57.0543 312.215 56.9892C312.324 56.924 312.441 56.8751 312.566 56.8426C312.696 56.8045 312.837 56.7855 312.989 56.7855C313.141 56.7855 313.28 56.8018 313.405 56.8344C313.53 56.867 313.644 56.9131 313.747 56.9729C313.85 57.038 313.937 57.1168 314.007 57.2091C314.083 57.296 314.143 57.4019 314.187 57.5268C314.198 57.505 314.211 57.4833 314.227 57.4616C314.244 57.4345 314.263 57.4073 314.284 57.3802C314.306 57.353 314.328 57.3258 314.35 57.2987C314.377 57.2715 314.407 57.2417 314.439 57.2091C314.488 57.1602 314.545 57.1114 314.61 57.0625C314.681 57.0136 314.76 56.9674 314.846 56.924C314.933 56.8806 315.028 56.848 315.132 56.8263C315.24 56.7991 315.36 56.7855 315.49 56.7855C315.68 56.7855 315.843 56.8073 315.979 56.8507C316.12 56.8887 316.234 56.9457 316.321 57.0218C316.413 57.0978 316.489 57.1792 316.549 57.2661C316.614 57.353 316.666 57.4426 316.704 57.5349C316.731 57.6055 316.75 57.6734 316.761 57.7386C316.771 57.8037 316.78 57.8662 316.785 57.9259C316.79 57.9856 316.793 58.0399 316.793 58.0888C316.799 58.1322 316.801 58.1703 316.801 58.2028V61.0863H316.085V58.4228C316.085 58.401 316.085 58.3793 316.085 58.3576C316.085 58.3305 316.085 58.3033 316.085 58.2762C316.085 58.249 316.082 58.2191 316.076 58.1866C316.076 58.154 316.074 58.1214 316.068 58.0888C316.063 58.0074 316.044 57.9286 316.011 57.8526C315.984 57.7711 315.946 57.6951 315.897 57.6245C315.848 57.5485 315.775 57.4942 315.677 57.4616C315.585 57.4236 315.468 57.4046 315.327 57.4046C315.322 57.4046 315.313 57.4046 315.303 57.4046C315.292 57.4046 315.284 57.4046 315.278 57.4046C315.267 57.41 315.256 57.4127 315.246 57.4127C315.24 57.4127 315.232 57.4127 315.221 57.4127C315.199 57.4127 315.18 57.4154 315.164 57.4209C315.148 57.4209 315.132 57.4236 315.115 57.429C315.05 57.4453 314.988 57.467 314.928 57.4942C314.868 57.5159 314.808 57.5431 314.749 57.5756C314.694 57.6137 314.643 57.6544 314.594 57.6978C314.55 57.7413 314.512 57.7901 314.48 57.8444C314.458 57.8825 314.436 57.9205 314.415 57.9585C314.398 57.9911 314.385 58.0236 314.374 58.0562C314.363 58.0888 314.352 58.1214 314.341 58.154C314.336 58.1866 314.328 58.2164 314.317 58.2436C314.312 58.2762 314.306 58.3087 314.301 58.3413C314.295 58.3739 314.293 58.4065 314.293 58.4391C314.293 58.4716 314.293 58.5069 314.293 58.545C314.293 58.5775 314.293 58.6128 314.293 58.6508V61.0863H313.576V58.3413C313.576 58.3359 313.576 58.3277 313.576 58.3169C313.576 58.3006 313.576 58.287 313.576 58.2762C313.57 58.2599 313.568 58.2463 313.568 58.2354C313.568 58.2191 313.568 58.2028 313.568 58.1866C313.568 58.154 313.565 58.1214 313.559 58.0888C313.559 58.0562 313.554 58.0236 313.543 57.9911C313.527 57.915 313.502 57.8444 313.47 57.7793C313.437 57.7141 313.397 57.6517 313.348 57.5919C313.299 57.5322 313.231 57.486 313.144 57.4535C313.063 57.4209 312.959 57.4046 312.835 57.4046C312.737 57.4046 312.644 57.4182 312.558 57.4453C312.471 57.467 312.387 57.4996 312.305 57.5431C312.224 57.5919 312.153 57.6462 312.093 57.706C312.034 57.7603 311.987 57.8227 311.955 57.8933C311.944 57.915 311.933 57.9368 311.922 57.9585C311.917 57.9802 311.909 58.0019 311.898 58.0236C311.892 58.0454 311.884 58.0671 311.873 58.0888C311.868 58.1051 311.862 58.1214 311.857 58.1377C311.852 58.1703 311.843 58.2028 311.833 58.2354C311.827 58.268 311.822 58.2979 311.816 58.325C311.811 58.3576 311.805 58.3902 311.8 58.4228C311.795 58.4554 311.792 58.4879 311.792 58.5205C311.786 58.5857 311.784 58.6508 311.784 58.716C311.784 58.7812 311.784 58.8463 311.784 58.9115V61.0863H311.067ZM317.575 59.8238L318.284 59.7179C318.3 59.8699 318.335 60.0003 318.39 60.1089C318.444 60.2175 318.515 60.3098 318.602 60.3858C318.694 60.4618 318.802 60.5189 318.927 60.5569C319.058 60.5949 319.207 60.6139 319.375 60.6139C319.522 60.6139 319.65 60.603 319.758 60.5813C319.867 60.5542 319.956 60.5162 320.027 60.4673C320.103 60.4184 320.163 60.3668 320.206 60.3125C320.255 60.2528 320.29 60.193 320.312 60.1333C320.318 60.117 320.32 60.1007 320.32 60.0844C320.326 60.0682 320.331 60.0519 320.337 60.0356C320.337 60.0247 320.337 60.0166 320.337 60.0111C320.337 60.0003 320.339 59.9921 320.345 59.9867C320.345 59.9758 320.345 59.9677 320.345 59.9623C320.345 59.9514 320.345 59.9433 320.345 59.9378C320.345 59.8509 320.328 59.7776 320.296 59.7179C320.263 59.6527 320.214 59.6011 320.149 59.5631C320.084 59.5251 320.008 59.4898 319.921 59.4572C319.84 59.4247 319.745 59.3948 319.636 59.3676L319.164 59.2373C319.147 59.2427 319.131 59.2455 319.115 59.2455C319.098 59.24 319.085 59.2346 319.074 59.2292C319.058 59.2292 319.041 59.2292 319.025 59.2292C319.009 59.2237 318.993 59.2183 318.976 59.2129C318.944 59.202 318.911 59.1939 318.879 59.1884C318.851 59.1776 318.824 59.1667 318.797 59.1559C318.661 59.1124 318.528 59.0608 318.398 59.0011C318.268 58.9414 318.145 58.8708 318.031 58.7893C317.917 58.7079 317.83 58.602 317.771 58.4716C317.716 58.3359 317.689 58.1784 317.689 57.9992C317.689 57.8363 317.722 57.6842 317.787 57.5431C317.852 57.4019 317.95 57.2715 318.08 57.1521C318.211 57.0272 318.373 56.9349 318.569 56.8751C318.764 56.8154 318.99 56.7855 319.245 56.7855C319.473 56.7855 319.671 56.8045 319.84 56.8426C320.013 56.8751 320.157 56.924 320.271 56.9892C320.385 57.0598 320.48 57.1331 320.556 57.2091C320.638 57.2797 320.703 57.3557 320.752 57.4372C320.779 57.4915 320.804 57.5431 320.825 57.5919C320.847 57.6408 320.863 57.6897 320.874 57.7386C320.885 57.7874 320.893 57.8309 320.899 57.8689C320.909 57.9069 320.918 57.9395 320.923 57.9666L320.223 58.0481C320.206 57.9558 320.182 57.8743 320.149 57.8037C320.117 57.7277 320.073 57.6652 320.019 57.6164C319.965 57.5675 319.908 57.5268 319.848 57.4942C319.794 57.4616 319.736 57.4372 319.677 57.4209C319.639 57.41 319.603 57.4019 319.571 57.3964C319.538 57.391 319.506 57.3856 319.473 57.3802C319.457 57.3802 319.441 57.3802 319.424 57.3802C319.408 57.3802 319.392 57.3774 319.375 57.372C319.359 57.372 319.343 57.372 319.327 57.372C319.316 57.372 319.305 57.372 319.294 57.372C319.283 57.372 319.269 57.372 319.253 57.372C319.242 57.372 319.229 57.372 319.212 57.372C319.196 57.3774 319.18 57.3802 319.164 57.3802C319.147 57.3802 319.131 57.3802 319.115 57.3802C319.082 57.3856 319.047 57.391 319.009 57.3964C318.976 57.3964 318.941 57.4019 318.903 57.4127C318.838 57.429 318.775 57.4507 318.716 57.4779C318.656 57.4996 318.599 57.5295 318.545 57.5675C318.49 57.6055 318.45 57.6544 318.422 57.7141C318.395 57.7738 318.382 57.8417 318.382 57.9178C318.382 57.9829 318.392 58.0426 318.414 58.097C318.436 58.1458 318.466 58.1866 318.504 58.2191C318.547 58.2571 318.602 58.2924 318.667 58.325C318.737 58.3522 318.819 58.3793 318.911 58.4065C318.944 58.4173 318.976 58.4282 319.009 58.4391C319.047 58.4499 319.085 58.4608 319.123 58.4716C319.161 58.4825 319.199 58.4934 319.237 58.5042C319.28 58.5151 319.327 58.5259 319.375 58.5368C319.413 58.5477 319.449 58.5585 319.481 58.5694C319.519 58.5802 319.557 58.5911 319.595 58.602C319.633 58.6074 319.669 58.6155 319.701 58.6264C319.739 58.6318 319.775 58.64 319.807 58.6508C320.013 58.7051 320.195 58.7676 320.353 58.8382C320.516 58.9088 320.649 58.9848 320.752 59.0663C320.861 59.1477 320.942 59.2536 320.996 59.3839C321.051 59.5143 321.078 59.6745 321.078 59.8645C321.078 60.0383 321.04 60.2039 320.964 60.3614C320.893 60.5134 320.785 60.6573 320.638 60.7931C320.491 60.9289 320.312 61.0266 320.1 61.0863C319.894 61.1515 319.655 61.1841 319.384 61.1841C319.134 61.1841 318.917 61.1651 318.732 61.1271C318.553 61.089 318.401 61.032 318.276 60.956C318.156 60.8746 318.05 60.7904 317.958 60.7035C317.871 60.6112 317.803 60.5162 317.754 60.4184C317.727 60.3641 317.703 60.3125 317.681 60.2636C317.659 60.2093 317.643 60.1578 317.632 60.1089C317.616 60.06 317.602 60.0138 317.592 59.9704C317.586 59.9215 317.581 59.8781 317.575 59.8401V59.8238Z" fill="#A5A5A5"/>
<g filter="url(#filter1_d)">
<path fill-rule="evenodd" clip-rule="evenodd" d="M287.43 18.9318C288.329 18.5228 289.388 18.2646 290.566 18.381C293.946 18.7151 295.624 20.936 295.924 21.3747L292.565 24.8165L302.974 24.9027L302.838 14.2912L300.411 16.7775C300.074 16.3192 296.73 12 290.382 12C287.59 12 285.349 12.8263 283.684 13.7906L287.43 18.9318Z" fill="#2B4CB9"/>
</g>
<g filter="url(#filter2_d)">
<path fill-rule="evenodd" clip-rule="evenodd" d="M279.136 12.1717L281.66 14.636C281.322 14.8811 276.864 18.2293 276.864 24.6787C276.864 25.5599 276.946 26.3862 277.089 27.1568L283.534 26.9664C283.286 26.2241 283.156 25.394 283.245 24.4945C283.584 21.0613 285.871 19.3844 286.258 19.1235L289.661 22.4447L289.747 12.0358L279.136 12.1717Z" fill="#5A96F6"/>
</g>
<g filter="url(#filter3_d)">
<path fill-rule="evenodd" clip-rule="evenodd" d="M279.459 33.4346L277.032 35.9209L276.896 25.3094L287.305 25.3956L283.946 28.8375C284.246 29.2761 285.924 31.497 289.304 31.8311C293.057 32.202 295.602 28.7716 295.602 28.7716L299.72 33.4478C299.72 33.4478 296.192 38.2121 289.488 38.2121C283.139 38.2121 279.796 33.8929 279.459 33.4346Z" fill="#BEBEBE"/>
</g>
<path d="M69.5635 42H68.251V32.0469H69.5635V42ZM71.8604 34.8496L71.1426 34.3574C71.5664 33.765 71.7852 33.1406 71.7988 32.4844V31.5H73.0498V32.3887C73.0452 32.8444 72.9313 33.3001 72.708 33.7559C72.4893 34.207 72.2067 34.5716 71.8604 34.8496ZM75.627 34.6035L75.6611 35.4238C76.2035 34.7858 76.9349 34.4668 77.8555 34.4668C78.89 34.4668 79.5941 34.8633 79.9678 35.6562C80.2139 35.3008 80.5329 35.0137 80.9248 34.7949C81.3213 34.5762 81.7884 34.4668 82.3262 34.4668C83.9486 34.4668 84.7734 35.3258 84.8008 37.0439V42H83.5361V37.1191C83.5361 36.5905 83.4154 36.1963 83.1738 35.9365C82.9323 35.6722 82.5267 35.54 81.957 35.54C81.4876 35.54 81.098 35.6813 80.7881 35.9639C80.4782 36.2419 80.2982 36.6178 80.248 37.0918V42H78.9766V37.1533C78.9766 36.0778 78.4502 35.54 77.3975 35.54C76.568 35.54 76.0007 35.8932 75.6953 36.5996V42H74.4307V34.6035H75.627ZM91.3838 34.6035L91.4248 35.5332C91.9899 34.8223 92.7282 34.4668 93.6396 34.4668C95.2028 34.4668 95.9912 35.3486 96.0049 37.1123V42H94.7402V37.1055C94.7357 36.5723 94.6126 36.1781 94.3711 35.9229C94.1341 35.6676 93.7627 35.54 93.2568 35.54C92.8467 35.54 92.4867 35.6494 92.1768 35.8682C91.8669 36.0869 91.6253 36.374 91.4521 36.7295V42H90.1875V34.6035H91.3838ZM97.5771 38.2334C97.5771 37.5088 97.7184 36.8571 98.001 36.2783C98.2881 35.6995 98.6846 35.2529 99.1904 34.9385C99.7008 34.624 100.282 34.4668 100.934 34.4668C101.941 34.4668 102.754 34.8154 103.374 35.5127C103.998 36.21 104.311 37.1374 104.311 38.2949V38.3838C104.311 39.1038 104.172 39.751 103.894 40.3252C103.62 40.8949 103.226 41.3392 102.711 41.6582C102.201 41.9772 101.613 42.1367 100.947 42.1367C99.9447 42.1367 99.1312 41.7881 98.5068 41.0908C97.887 40.3936 97.5771 39.4707 97.5771 38.3223V38.2334ZM98.8486 38.3838C98.8486 39.2041 99.0378 39.8626 99.416 40.3594C99.7988 40.8561 100.309 41.1045 100.947 41.1045C101.59 41.1045 102.1 40.8538 102.479 40.3525C102.857 39.8467 103.046 39.1403 103.046 38.2334C103.046 37.4222 102.852 36.766 102.465 36.2646C102.082 35.7588 101.572 35.5059 100.934 35.5059C100.309 35.5059 99.8057 35.7542 99.4229 36.251C99.04 36.7477 98.8486 37.4587 98.8486 38.3838ZM107.612 32.8125V34.6035H108.993V35.5811H107.612V40.168C107.612 40.4642 107.674 40.6875 107.797 40.8379C107.92 40.9837 108.13 41.0566 108.426 41.0566C108.572 41.0566 108.772 41.0293 109.027 40.9746V42C108.695 42.0911 108.371 42.1367 108.057 42.1367C107.492 42.1367 107.065 41.9658 106.778 41.624C106.491 41.2822 106.348 40.7969 106.348 40.168V35.5811H105.001V34.6035H106.348V32.8125H107.612ZM118.516 42C118.443 41.8542 118.383 41.5944 118.338 41.2207C117.75 41.8314 117.048 42.1367 116.232 42.1367C115.503 42.1367 114.904 41.9316 114.435 41.5215C113.97 41.1068 113.737 40.5827 113.737 39.9492C113.737 39.179 114.029 38.582 114.612 38.1582C115.2 37.7298 116.025 37.5156 117.087 37.5156H118.317V36.9346C118.317 36.4925 118.185 36.1416 117.921 35.8818C117.657 35.6175 117.267 35.4854 116.752 35.4854C116.301 35.4854 115.923 35.5993 115.617 35.8271C115.312 36.055 115.159 36.3307 115.159 36.6543H113.888C113.888 36.2852 114.018 35.9297 114.277 35.5879C114.542 35.2415 114.897 34.9681 115.344 34.7676C115.795 34.5671 116.289 34.4668 116.827 34.4668C117.679 34.4668 118.347 34.681 118.83 35.1094C119.313 35.5332 119.564 36.1188 119.582 36.8662V40.2705C119.582 40.9495 119.669 41.4896 119.842 41.8906V42H118.516ZM116.417 41.0361C116.813 41.0361 117.189 40.9336 117.545 40.7285C117.9 40.5234 118.158 40.2568 118.317 39.9287V38.4111H117.326C115.777 38.4111 115.002 38.8646 115.002 39.7715C115.002 40.168 115.134 40.4779 115.398 40.7012C115.663 40.9245 116.002 41.0361 116.417 41.0361ZM128.612 35.7383C128.421 35.7064 128.214 35.6904 127.99 35.6904C127.161 35.6904 126.598 36.0436 126.302 36.75V42H125.037V34.6035H126.268L126.288 35.458C126.703 34.7972 127.291 34.4668 128.052 34.4668C128.298 34.4668 128.485 34.4987 128.612 34.5625V35.7383ZM129.31 38.2334C129.31 37.5088 129.451 36.8571 129.733 36.2783C130.021 35.6995 130.417 35.2529 130.923 34.9385C131.433 34.624 132.014 34.4668 132.666 34.4668C133.673 34.4668 134.487 34.8154 135.106 35.5127C135.731 36.21 136.043 37.1374 136.043 38.2949V38.3838C136.043 39.1038 135.904 39.751 135.626 40.3252C135.353 40.8949 134.958 41.3392 134.443 41.6582C133.933 41.9772 133.345 42.1367 132.68 42.1367C131.677 42.1367 130.864 41.7881 130.239 41.0908C129.619 40.3936 129.31 39.4707 129.31 38.3223V38.2334ZM130.581 38.3838C130.581 39.2041 130.77 39.8626 131.148 40.3594C131.531 40.8561 132.042 41.1045 132.68 41.1045C133.322 41.1045 133.833 40.8538 134.211 40.3525C134.589 39.8467 134.778 39.1403 134.778 38.2334C134.778 37.4222 134.585 36.766 134.197 36.2646C133.814 35.7588 133.304 35.5059 132.666 35.5059C132.042 35.5059 131.538 35.7542 131.155 36.251C130.772 36.7477 130.581 37.4587 130.581 38.3838ZM143.891 38.3838C143.891 39.514 143.631 40.4232 143.111 41.1113C142.592 41.7949 141.895 42.1367 141.02 42.1367C140.085 42.1367 139.363 41.8063 138.853 41.1455L138.791 42H137.629V31.5H138.894V35.417C139.404 34.7835 140.108 34.4668 141.006 34.4668C141.904 34.4668 142.608 34.8063 143.118 35.4854C143.633 36.1644 143.891 37.0941 143.891 38.2744V38.3838ZM142.626 38.2402C142.626 37.3789 142.46 36.7135 142.127 36.2441C141.794 35.7747 141.316 35.54 140.691 35.54C139.857 35.54 139.258 35.9274 138.894 36.7021V39.9014C139.281 40.6761 139.885 41.0635 140.705 41.0635C141.311 41.0635 141.783 40.8288 142.12 40.3594C142.457 39.89 142.626 39.1836 142.626 38.2402ZM145.155 38.2334C145.155 37.5088 145.297 36.8571 145.579 36.2783C145.866 35.6995 146.263 35.2529 146.769 34.9385C147.279 34.624 147.86 34.4668 148.512 34.4668C149.519 34.4668 150.332 34.8154 150.952 35.5127C151.576 36.21 151.889 37.1374 151.889 38.2949V38.3838C151.889 39.1038 151.75 39.751 151.472 40.3252C151.198 40.8949 150.804 41.3392 150.289 41.6582C149.779 41.9772 149.191 42.1367 148.525 42.1367C147.523 42.1367 146.709 41.7881 146.085 41.0908C145.465 40.3936 145.155 39.4707 145.155 38.3223V38.2334ZM146.427 38.3838C146.427 39.2041 146.616 39.8626 146.994 40.3594C147.377 40.8561 147.887 41.1045 148.525 41.1045C149.168 41.1045 149.678 40.8538 150.057 40.3525C150.435 39.8467 150.624 39.1403 150.624 38.2334C150.624 37.4222 150.43 36.766 150.043 36.2646C149.66 35.7588 149.15 35.5059 148.512 35.5059C147.887 35.5059 147.384 35.7542 147.001 36.251C146.618 36.7477 146.427 37.4587 146.427 38.3838ZM155.19 32.8125V34.6035H156.571V35.5811H155.19V40.168C155.19 40.4642 155.252 40.6875 155.375 40.8379C155.498 40.9837 155.708 41.0566 156.004 41.0566C156.15 41.0566 156.35 41.0293 156.605 40.9746V42C156.273 42.0911 155.949 42.1367 155.635 42.1367C155.07 42.1367 154.644 41.9658 154.356 41.624C154.069 41.2822 153.926 40.7969 153.926 40.168V35.5811H152.579V34.6035H153.926V32.8125H155.19Z" fill="#475359"/>
<rect x="24" y="25" width="23" height="23" rx="1" fill="white" stroke="#C1C1C1" stroke-width="2"/>
</g>
<defs>
<filter id="filter0_d" x="-2" y="-1" width="377" height="74" filterUnits="userSpaceOnUse" color-interpolation-filters="sRGB">
<feFlood flood-opacity="0" result="BackgroundImageFix"/>
<feColorMatrix in="SourceAlpha" type="matrix" values="0 0 0 0 0 0 0 0 0 0 0 0 0 0 0 0 0 0 127 0"/>
<feOffset dy="1"/>
<feGaussianBlur stdDeviation="1"/>
<feColorMatrix type="matrix" values="0 0 0 0 0 0 0 0 0 0 0 0 0 0 0 0 0 0 0.101138 0"/>
<feBlend mode="normal" in2="BackgroundImageFix" result="effect1_dropShadow"/>
<feBlend mode="normal" in="SourceGraphic" in2="effect1_dropShadow" result="shape"/>
</filter>
<filter id="filter1_d" x="282.684" y="11" width="21.2895" height="14.9027" filterUnits="userSpaceOnUse" color-interpolation-filters="sRGB">
<feFlood flood-opacity="0" result="BackgroundImageFix"/>
<feColorMatrix in="SourceAlpha" type="matrix" values="0 0 0 0 0 0 0 0 0 0 0 0 0 0 0 0 0 0 127 0"/>
<feOffset/>
<feGaussianBlur stdDeviation="0.5"/>
<feColorMatrix type="matrix" values="0 0 0 0 0 0 0 0 0 0 0 0 0 0 0 0 0 0 0.5 0"/>
<feBlend mode="normal" in2="BackgroundImageFix" result="effect1_dropShadow"/>
<feBlend mode="normal" in="SourceGraphic" in2="effect1_dropShadow" result="shape"/>
</filter>
<filter id="filter2_d" x="275.864" y="11.0358" width="14.8831" height="17.121" filterUnits="userSpaceOnUse" color-interpolation-filters="sRGB">
<feFlood flood-opacity="0" result="BackgroundImageFix"/>
<feColorMatrix in="SourceAlpha" type="matrix" values="0 0 0 0 0 0 0 0 0 0 0 0 0 0 0 0 0 0 127 0"/>
<feOffset/>
<feGaussianBlur stdDeviation="0.5"/>
<feColorMatrix type="matrix" values="0 0 0 0 0 0 0 0 0 0 0 0 0 0 0 0 0 0 0.5 0"/>
<feBlend mode="normal" in2="BackgroundImageFix" result="effect1_dropShadow"/>
<feBlend mode="normal" in="SourceGraphic" in2="effect1_dropShadow" result="shape"/>
</filter>
<filter id="filter3_d" x="275.896" y="24.3094" width="24.8236" height="14.9027" filterUnits="userSpaceOnUse" color-interpolation-filters="sRGB">
<feFlood flood-opacity="0" result="BackgroundImageFix"/>
<feColorMatrix in="SourceAlpha" type="matrix" values="0 0 0 0 0 0 0 0 0 0 0 0 0 0 0 0 0 0 127 0"/>
<feOffset/>
<feGaussianBlur stdDeviation="0.5"/>
<feColorMatrix type="matrix" values="0 0 0 0 0 0 0 0 0 0 0 0 0 0 0 0 0 0 0.382529 0"/>
<feBlend mode="normal" in2="BackgroundImageFix" result="effect1_dropShadow"/>
<feBlend mode="normal" in="SourceGraphic" in2="effect1_dropShadow" result="shape"/>
</filter>
<clipPath id="clip0">
<rect width="373" height="70" fill="white"/>
</clipPath>
</defs>
</svg>
