<?xml version="1.0" encoding="UTF-8"?>
<svg width="16px" height="16px" viewBox="0 0 16 16" version="1.1" xmlns="http://www.w3.org/2000/svg" xmlns:xlink="http://www.w3.org/1999/xlink">
    <!-- Generator: Sketch 53.2 (72643) - https://sketchapp.com -->
    <title>cart_icon</title>
    <desc>Created with Sketch.</desc>
    <g id="Page-1" stroke="none" stroke-width="1" fill="none" fill-rule="evenodd">
        <g id="02.a1-Scheme-Details" transform="translate(-714.000000, -1171.000000)" fill="#fff" fill-rule="nonzero">
            <g id="cart_icon" transform="translate(714.933531, 1172.071281)">
                <path d="M1.20913241,0.5 L9.12936393e-13,0.5 C-0.276142375,0.5 -0.5,0.276142375 -0.5,-3.22236682e-12 C-0.5,-0.276142375 -0.276142375,-0.5 9.13047415e-13,-0.5 L1.48067122,-0.5 C1.84033902,-0.5 2.14147563,-0.227432408 2.17720811,0.130456004 L2.36183847,1.97967185 L13.1479415,1.97967185 C13.219776,1.97967185 13.2914015,1.9874121 13.3615776,2.00275856 C13.9011119,2.12074656 14.2428428,2.65377371 14.1248548,3.19330803 L12.8935321,8.8238875 C12.7443079,9.5062583 12.1438332,9.99531551 11.4453825,10.0033344 L3.54195306,10.0940732 C2.7646876,10.102997 2.10937903,9.51666597 2.03215374,8.74319492 L1.20913241,0.5 Z M2.46168099,2.97967185 L3.02720643,8.64384635 C3.05294819,8.90167004 3.27138439,9.0971137 3.53047287,9.09413912 L11.4339023,9.00340029 C11.6667192,9.00072733 11.8668774,8.83770826 11.9166188,8.61025132 L13.1479415,2.97967185 L2.46168099,2.97967185 Z" id="Path-22"></path>
                <path d="M4.16646874,14.1287194 C3.33804161,14.1287194 2.66646874,13.4571465 2.66646874,12.6287194 C2.66646874,11.8002922 3.33804161,11.1287194 4.16646874,11.1287194 C4.99489586,11.1287194 5.66646874,11.8002922 5.66646874,12.6287194 C5.66646874,13.4571465 4.99489586,14.1287194 4.16646874,14.1287194 Z M4.16646874,13.1287194 C4.44261111,13.1287194 4.66646874,12.9048617 4.66646874,12.6287194 C4.66646874,12.352577 4.44261111,12.1287194 4.16646874,12.1287194 C3.89032636,12.1287194 3.66646874,12.352577 3.66646874,12.6287194 C3.66646874,12.9048617 3.89032636,13.1287194 4.16646874,13.1287194 Z" id="Oval"></path>
                <path d="M10.1664687,14.1287194 C9.33804161,14.1287194 8.66646874,13.4571465 8.66646874,12.6287194 C8.66646874,11.8002922 9.33804161,11.1287194 10.1664687,11.1287194 C10.9948959,11.1287194 11.6664687,11.8002922 11.6664687,12.6287194 C11.6664687,13.4571465 10.9948959,14.1287194 10.1664687,14.1287194 Z M10.1664687,13.1287194 C10.4426111,13.1287194 10.6664687,12.9048617 10.6664687,12.6287194 C10.6664687,12.352577 10.4426111,12.1287194 10.1664687,12.1287194 C9.89032636,12.1287194 9.66646874,12.352577 9.66646874,12.6287194 C9.66646874,12.9048617 9.89032636,13.1287194 10.1664687,13.1287194 Z" id="Oval"></path>
            </g>
        </g>
    </g>
</svg>