<?xml version="1.0" encoding="UTF-8"?>
<svg width="13px" height="14px" viewBox="0 0 13 14" version="1.1" xmlns="http://www.w3.org/2000/svg" xmlns:xlink="http://www.w3.org/1999/xlink">
    <!-- Generator: Sketch 53.2 (72643) - https://sketchapp.com -->
    <title>change_password</title>
    <desc>Created with Sketch.</desc>
    <g id="Page-1" stroke="none" stroke-width="1" fill="none" fill-rule="evenodd">
        <g id="profile-menu-copy" transform="translate(-39.000000, -145.000000)" fill="#BCC1C6" fill-rule="nonzero">
            <g id="change_password" transform="translate(39.000000, 145.000000)">
                <circle id="Oval" cx="9.2421875" cy="9.4609375" r="1"></circle>
                <path d="M11.703125,9.8984375 C12.0051641,9.8984375 12.25,9.65360156 12.25,9.3515625 L12.25,7.328125 C12.25,6.1219375 11.2686875,5.140625 10.0625,5.140625 L9.40523828,5.140625 L9.40523828,3.21196094 C9.40523828,1.44087891 7.93326953,0 6.12398828,0 C4.31470703,0 2.84273828,1.44087891 2.84273828,3.21196094 L2.84273828,5.140625 L2.1875,5.140625 C0.9813125,5.140625 0,6.1219375 0,7.328125 L0,11.8125 C0,13.0186875 0.9813125,14 2.1875,14 L10.0625,14 C11.2686875,14 12.25,13.0186875 12.25,11.8125 C12.25,11.5104609 12.0051641,11.265625 11.703125,11.265625 C11.4010859,11.265625 11.15625,11.5104609 11.15625,11.8125 C11.15625,12.4155937 10.6655937,12.90625 10.0625,12.90625 L2.1875,12.90625 C1.58440625,12.90625 1.09375,12.4155937 1.09375,11.8125 L1.09375,7.328125 C1.09375,6.72503125 1.58440625,6.234375 2.1875,6.234375 L10.0625,6.234375 C10.6655937,6.234375 11.15625,6.72503125 11.15625,7.328125 L11.15625,9.3515625 C11.15625,9.65360156 11.4010859,9.8984375 11.703125,9.8984375 Z M8.31148828,5.140625 L3.93648828,5.140625 L3.93648828,3.21196094 C3.93648828,2.04397266 4.91780078,1.09375 6.12398828,1.09375 C7.33017578,1.09375 8.31148828,2.04397266 8.31148828,3.21196094 L8.31148828,5.140625 Z" id="Shape"></path>
                <circle id="Oval" cx="5.11328125" cy="9.4609375" r="1"></circle>
                <circle id="Oval" cx="3.0625" cy="9.4609375" r="1"></circle>
                <circle id="Oval" cx="7.1640625" cy="9.4609375" r="1"></circle>
            </g>
        </g>
    </g>
</svg>