<?xml version="1.0" encoding="UTF-8"?>
<svg width="120px" height="122px" viewBox="0 0 120 122" version="1.1" xmlns="http://www.w3.org/2000/svg" xmlns:xlink="http://www.w3.org/1999/xlink">
    <!-- Generator: Sketch 53.2 (72643) - https://sketchapp.com -->
    <title>Group 5</title>
    <desc>Created with Sketch.</desc>
    <g id="Page-1" stroke="none" stroke-width="1" fill="none" fill-rule="evenodd">
        <g id="Group-47-Copy" transform="translate(-107.000000, -85.000000)">
            <g id="Group-44" transform="translate(38.000000, 41.000000)">
                <g id="Group-38">
                    <g id="Group-5" transform="translate(129.866355, 106.093579) rotate(-70.000000) translate(-129.866355, -106.093579) translate(47.866355, 24.093579)">
                        <path d="M28.6393606,78.3786214 C28.6393606,109.33912 53.7378035,134.437562 84.6983017,134.437562 C115.6588,134.437562 140.757243,109.33912 140.757243,78.3786214 C140.757243,47.4181231 115.6588,22.3196803 84.6983017,22.3196803" id="Path" stroke="#E9E9E9" stroke-width="3" fill="#8DD0F4" transform="translate(84.698302, 78.378621) rotate(8.000000) translate(-84.698302, -78.378621) "></path>
                        <path d="M66.5232907,24.4985278 C41.9863298,31.4070542 24,53.9522117 24,80.6983017 C24,112.939924 50.1369991,139.076923 82.3786214,139.076923 C114.620244,139.076923 140.757243,112.939924 140.757243,80.6983017 L90.0172262,74.6126366 C85.9833993,67.5140375 78.1520874,50.8093346 66.5232907,24.4985278 Z" id="Path" fill="#FFFFFF" transform="translate(82.378621, 81.787725) rotate(40.000000) translate(-82.378621, -81.787725) "></path>
                        <path d="M28.6393606,78.3786214 C28.6393606,109.33912 53.7378035,134.437562 84.6983017,134.437562 C115.6588,134.437562 140.757243,109.33912 140.757243,78.3786214 C140.757243,47.4181231 115.6588,22.3196803 84.6983017,22.3196803 L74.8422093,74.9241609 L28.6393606,78.3786214 Z" id="Path" stroke="#E9E9E9" stroke-width="3" fill="#1E497E" transform="translate(84.698302, 78.378621) rotate(157.000000) translate(-84.698302, -78.378621) "></path>
                        <path d="M66.7634898,25.1584693 C42.2265289,32.0669957 24,53.9522117 24,80.6983017 C24,112.939924 50.1369991,139.076923 82.3786214,139.076923 C114.620244,139.076923 140.757243,112.939924 140.757243,80.6983017 L87.4026191,81.8640109 C83.3598079,70.7564784 76.4800981,51.8546312 66.7634898,25.1584693 Z" id="Path" stroke="#ECEFF4" stroke-width="3" fill="#FAB479"></path>
                        <path d="M24,80.6983017 C24,112.939924 50.1369991,139.076923 82.3786214,139.076923 C114.620244,139.076923 140.757243,112.939924 140.757243,80.6983017 L88.9154681,78.0255319 L24,80.6983017 Z" id="Path" stroke="#ECEFF4" stroke-width="3" fill="#F58221"></path>
                        <circle id="Oval-2" fill="#FFFFFF" cx="82.8401599" cy="80.2367633" r="35.7452548"></circle>
                    </g>
                </g>
            </g>
        </g>
    </g>
</svg>