<svg width="267" height="178" viewBox="0 0 267 178" fill="none" xmlns="http://www.w3.org/2000/svg">
<g clip-path="url(#clip0)">
<rect width="1440" height="890" transform="translate(-594 -155)" fill="white"/>
<g filter="url(#filter0_d)">
<rect x="-259" y="-8" width="1105" height="1200" rx="10" fill="url(#paint0_linear)"/>
</g>
<rect x="15" y="52" width="80" height="25" rx="2" fill="#F78200" fill-opacity="0.145515"/>
<g filter="url(#filter1_d)">
<g clip-path="url(#clip1)">
<g filter="url(#filter2_d)">
<rect x="-594" y="-159" width="1440" height="163" fill="white"/>
</g>
<path d="M-594 3H846" stroke="#F58220" stroke-width="3"/>
</g>
</g>
<rect opacity="0.9" x="-18.5" y="110.5" width="122" height="42" rx="11" fill="#F78200" fill-opacity="0.0535" stroke="#F78200"/>
<circle cx="7.5" cy="132.5" r="7" stroke="#F78200"/>
<path d="M29.256 138.182C28.528 138.182 27.856 138.047 27.24 137.776C26.6333 137.505 26.106 137.132 25.658 136.656L26.428 135.774C26.8013 136.166 27.2353 136.479 27.73 136.712C28.2247 136.936 28.738 137.048 29.27 137.048C29.942 137.048 30.4693 136.894 30.852 136.586C31.2347 136.278 31.426 135.872 31.426 135.368C31.426 135.107 31.3793 134.887 31.286 134.71C31.202 134.523 31.0807 134.365 30.922 134.234C30.7727 134.094 30.5953 133.973 30.39 133.87C30.1847 133.767 29.9607 133.66 29.718 133.548L28.234 132.904C27.9913 132.801 27.7487 132.68 27.506 132.54C27.2633 132.391 27.0393 132.213 26.834 132.008C26.6287 131.793 26.4607 131.546 26.33 131.266C26.2087 130.977 26.148 130.645 26.148 130.272C26.148 129.88 26.2273 129.516 26.386 129.18C26.554 128.844 26.778 128.555 27.058 128.312C27.3473 128.069 27.688 127.883 28.08 127.752C28.4813 127.612 28.9153 127.542 29.382 127.542C29.998 127.542 30.5627 127.659 31.076 127.892C31.5987 128.125 32.042 128.433 32.406 128.816L31.72 129.642C31.4027 129.343 31.0527 129.11 30.67 128.942C30.2873 128.765 29.858 128.676 29.382 128.676C28.794 128.676 28.3273 128.811 27.982 129.082C27.6367 129.353 27.464 129.721 27.464 130.188C27.464 130.44 27.5153 130.655 27.618 130.832C27.7207 131.009 27.8513 131.163 28.01 131.294C28.1687 131.425 28.3507 131.537 28.556 131.63C28.7613 131.723 28.962 131.812 29.158 131.896L30.628 132.526C30.9267 132.657 31.202 132.801 31.454 132.96C31.7153 133.119 31.9393 133.305 32.126 133.52C32.322 133.735 32.4713 133.987 32.574 134.276C32.686 134.556 32.742 134.887 32.742 135.27C32.742 135.681 32.658 136.063 32.49 136.418C32.3313 136.763 32.1027 137.071 31.804 137.342C31.5053 137.603 31.1367 137.809 30.698 137.958C30.2687 138.107 29.788 138.182 29.256 138.182ZM35.079 130.398H36.353V138H35.079V130.398ZM35.723 128.83C35.471 128.83 35.261 128.755 35.093 128.606C34.925 128.447 34.841 128.247 34.841 128.004C34.841 127.743 34.925 127.542 35.093 127.402C35.261 127.253 35.471 127.178 35.723 127.178C35.975 127.178 36.185 127.253 36.353 127.402C36.521 127.542 36.605 127.743 36.605 128.004C36.605 128.247 36.521 128.447 36.353 128.606C36.185 128.755 35.975 128.83 35.723 128.83ZM39.372 130.398H40.422L40.534 131.49H40.576C40.94 131.135 41.3227 130.832 41.724 130.58C42.1347 130.328 42.6013 130.202 43.124 130.202C43.9267 130.202 44.5147 130.454 44.888 130.958C45.2613 131.462 45.448 132.204 45.448 133.184V138H44.174V133.352C44.174 132.633 44.0573 132.115 43.824 131.798C43.6 131.481 43.236 131.322 42.732 131.322C42.34 131.322 41.99 131.42 41.682 131.616C41.374 131.812 41.0287 132.101 40.646 132.484V138H39.372V130.398ZM50.9301 141.5C50.4634 141.5 50.0341 141.453 49.6421 141.36C49.2594 141.276 48.9281 141.145 48.6481 140.968C48.3774 140.8 48.1627 140.585 48.0041 140.324C47.8547 140.072 47.7801 139.783 47.7801 139.456C47.7801 139.129 47.8781 138.817 48.0741 138.518C48.2794 138.229 48.5594 137.967 48.9141 137.734V137.678C48.7087 137.557 48.5407 137.393 48.4101 137.188C48.2794 136.983 48.2141 136.731 48.2141 136.432C48.2141 136.115 48.3074 135.835 48.4941 135.592C48.6807 135.349 48.8721 135.158 49.0681 135.018V134.962C48.8161 134.757 48.5874 134.481 48.3821 134.136C48.1767 133.781 48.0741 133.375 48.0741 132.918C48.0741 132.498 48.1487 132.125 48.2981 131.798C48.4567 131.462 48.6667 131.177 48.9281 130.944C49.1894 130.701 49.4927 130.519 49.8381 130.398C50.1834 130.267 50.5474 130.202 50.9301 130.202C51.1447 130.202 51.3407 130.225 51.5181 130.272C51.7047 130.309 51.8634 130.351 51.9941 130.398H54.6401V131.378H53.0861C53.2727 131.555 53.4221 131.779 53.5341 132.05C53.6461 132.321 53.7021 132.619 53.7021 132.946C53.7021 133.357 53.6274 133.725 53.4781 134.052C53.3381 134.369 53.1421 134.645 52.8901 134.878C52.6381 135.111 52.3441 135.289 52.0081 135.41C51.6721 135.531 51.3127 135.592 50.9301 135.592C50.5287 135.592 50.1507 135.503 49.7961 135.326C49.6561 135.447 49.5394 135.578 49.4461 135.718C49.3527 135.849 49.3061 136.021 49.3061 136.236C49.3061 136.479 49.3994 136.679 49.5861 136.838C49.7727 136.987 50.1227 137.062 50.6361 137.062H52.1201C53.0067 137.062 53.6694 137.207 54.1081 137.496C54.5467 137.785 54.7661 138.243 54.7661 138.868C54.7661 139.223 54.6774 139.559 54.5001 139.876C54.3227 140.193 54.0661 140.473 53.7301 140.716C53.3941 140.959 52.9881 141.15 52.5121 141.29C52.0454 141.43 51.5181 141.5 50.9301 141.5ZM50.9301 134.724C51.1447 134.724 51.3501 134.682 51.5461 134.598C51.7421 134.514 51.9101 134.393 52.0501 134.234C52.1994 134.075 52.3161 133.889 52.4001 133.674C52.4934 133.45 52.5401 133.198 52.5401 132.918C52.5401 132.358 52.3814 131.924 52.0641 131.616C51.7561 131.299 51.3781 131.14 50.9301 131.14C50.4821 131.14 50.0994 131.299 49.7821 131.616C49.4647 131.924 49.3061 132.358 49.3061 132.918C49.3061 133.198 49.3481 133.45 49.4321 133.674C49.5254 133.889 49.6421 134.075 49.7821 134.234C49.9314 134.393 50.1041 134.514 50.3001 134.598C50.4961 134.682 50.7061 134.724 50.9301 134.724ZM51.1121 140.632C51.4761 140.632 51.8074 140.585 52.1061 140.492C52.4047 140.408 52.6567 140.291 52.8621 140.142C53.0767 140.002 53.2401 139.834 53.3521 139.638C53.4734 139.451 53.5341 139.26 53.5341 139.064C53.5341 138.709 53.3987 138.462 53.1281 138.322C52.8667 138.191 52.4841 138.126 51.9801 138.126H50.6641C50.5241 138.126 50.3654 138.117 50.1881 138.098C50.0201 138.079 49.8521 138.047 49.6841 138C49.4134 138.196 49.2127 138.401 49.0821 138.616C48.9607 138.84 48.9001 139.064 48.9001 139.288C48.9001 139.699 49.0914 140.025 49.4741 140.268C49.8661 140.511 50.4121 140.632 51.1121 140.632ZM56.6943 138V126.856H57.9683V138H56.6943ZM64.0259 138.182C63.5219 138.182 63.0459 138.093 62.5979 137.916C62.1592 137.739 61.7765 137.482 61.4499 137.146C61.1232 136.801 60.8619 136.381 60.6659 135.886C60.4792 135.391 60.3859 134.831 60.3859 134.206C60.3859 133.59 60.4792 133.035 60.6659 132.54C60.8619 132.045 61.1185 131.625 61.4359 131.28C61.7532 130.935 62.1172 130.669 62.5279 130.482C62.9479 130.295 63.3772 130.202 63.8159 130.202C64.3012 130.202 64.7305 130.286 65.1039 130.454C65.4772 130.622 65.7899 130.865 66.0419 131.182C66.3032 131.49 66.4992 131.863 66.6299 132.302C66.7699 132.741 66.8399 133.231 66.8399 133.772C66.8399 133.912 66.8352 134.047 66.8259 134.178C66.8165 134.299 66.8025 134.407 66.7839 134.5H61.6599C61.7065 135.321 61.9539 135.97 62.4019 136.446C62.8592 136.922 63.4519 137.16 64.1799 137.16C64.5532 137.16 64.8939 137.109 65.2019 137.006C65.5099 136.894 65.8039 136.745 66.0839 136.558L66.5459 137.398C66.2099 137.613 65.8365 137.799 65.4259 137.958C65.0152 138.107 64.5485 138.182 64.0259 138.182ZM65.7199 133.59C65.7199 132.815 65.5519 132.227 65.2159 131.826C64.8892 131.425 64.4272 131.224 63.8299 131.224C63.5592 131.224 63.2979 131.28 63.0459 131.392C62.8032 131.495 62.5839 131.649 62.3879 131.854C62.1919 132.05 62.0285 132.297 61.8979 132.596C61.7672 132.885 61.6832 133.217 61.6459 133.59H65.7199Z" fill="#F78200"/>
<circle cx="7.5" cy="132.5" r="4.5" fill="#F78200"/>
<rect x="134" y="110" width="189" height="43" rx="11.5" fill="#F0F2F5" fill-opacity="0.8"/>
<g clip-path="url(#clip2)">
<path opacity="0.59" d="M180.4 127.738H186.322V128.83H181.702V132.05H185.594V133.156H181.702V136.894H186.476V138H180.4V127.738ZM188.781 130.398H190.055V138H188.781V130.398ZM189.425 128.83C189.173 128.83 188.963 128.755 188.795 128.606C188.627 128.447 188.543 128.247 188.543 128.004C188.543 127.743 188.627 127.542 188.795 127.402C188.963 127.253 189.173 127.178 189.425 127.178C189.677 127.178 189.887 127.253 190.055 127.402C190.223 127.542 190.307 127.743 190.307 128.004C190.307 128.247 190.223 128.447 190.055 128.606C189.887 128.755 189.677 128.83 189.425 128.83ZM195.293 138.182C194.882 138.182 194.537 138.121 194.257 138C193.986 137.879 193.767 137.711 193.599 137.496C193.431 137.272 193.31 137.006 193.235 136.698C193.16 136.381 193.123 136.031 193.123 135.648V131.434H191.989V130.468L193.179 130.398L193.333 128.27H194.397V130.398H196.455V131.434H194.397V135.676C194.397 136.152 194.481 136.516 194.649 136.768C194.817 137.02 195.125 137.146 195.573 137.146C195.704 137.146 195.848 137.127 196.007 137.09C196.166 137.043 196.31 136.997 196.441 136.95L196.693 137.902C196.478 137.977 196.25 138.042 196.007 138.098C195.764 138.154 195.526 138.182 195.293 138.182ZM198.439 126.856H199.713V129.908L199.671 131.476C200.025 131.121 200.403 130.823 200.805 130.58C201.206 130.328 201.668 130.202 202.191 130.202C202.993 130.202 203.581 130.454 203.955 130.958C204.328 131.462 204.515 132.204 204.515 133.184V138H203.241V133.352C203.241 132.633 203.124 132.115 202.891 131.798C202.667 131.481 202.303 131.322 201.799 131.322C201.407 131.322 201.057 131.42 200.749 131.616C200.441 131.812 200.095 132.101 199.713 132.484V138H198.439V126.856ZM210.271 138.182C209.767 138.182 209.291 138.093 208.843 137.916C208.405 137.739 208.022 137.482 207.695 137.146C207.369 136.801 207.107 136.381 206.911 135.886C206.725 135.391 206.631 134.831 206.631 134.206C206.631 133.59 206.725 133.035 206.911 132.54C207.107 132.045 207.364 131.625 207.681 131.28C207.999 130.935 208.363 130.669 208.773 130.482C209.193 130.295 209.623 130.202 210.061 130.202C210.547 130.202 210.976 130.286 211.349 130.454C211.723 130.622 212.035 130.865 212.287 131.182C212.549 131.49 212.745 131.863 212.875 132.302C213.015 132.741 213.085 133.231 213.085 133.772C213.085 133.912 213.081 134.047 213.071 134.178C213.062 134.299 213.048 134.407 213.029 134.5H207.905C207.952 135.321 208.199 135.97 208.647 136.446C209.105 136.922 209.697 137.16 210.425 137.16C210.799 137.16 211.139 137.109 211.447 137.006C211.755 136.894 212.049 136.745 212.329 136.558L212.791 137.398C212.455 137.613 212.082 137.799 211.671 137.958C211.261 138.107 210.794 138.182 210.271 138.182ZM211.965 133.59C211.965 132.815 211.797 132.227 211.461 131.826C211.135 131.425 210.673 131.224 210.075 131.224C209.805 131.224 209.543 131.28 209.291 131.392C209.049 131.495 208.829 131.649 208.633 131.854C208.437 132.05 208.274 132.297 208.143 132.596C208.013 132.885 207.929 133.217 207.891 133.59H211.965ZM215.22 130.398H216.27L216.382 131.784H216.424C216.694 131.299 217.012 130.916 217.376 130.636C217.749 130.347 218.15 130.202 218.58 130.202C218.748 130.202 218.892 130.216 219.014 130.244C219.144 130.263 219.27 130.305 219.392 130.37L219.154 131.49C219.023 131.443 218.906 131.411 218.804 131.392C218.701 131.373 218.57 131.364 218.412 131.364C218.253 131.364 218.085 131.397 217.908 131.462C217.74 131.518 217.572 131.616 217.404 131.756C217.236 131.887 217.072 132.064 216.914 132.288C216.755 132.512 216.615 132.787 216.494 133.114V138H215.22V130.398ZM227.257 138.182C226.791 138.182 226.343 138.093 225.913 137.916C225.493 137.739 225.12 137.482 224.793 137.146C224.467 136.801 224.205 136.385 224.009 135.9C223.823 135.405 223.729 134.841 223.729 134.206C223.729 133.571 223.823 133.007 224.009 132.512C224.205 132.017 224.467 131.597 224.793 131.252C225.12 130.907 225.493 130.645 225.913 130.468C226.343 130.291 226.791 130.202 227.257 130.202C227.724 130.202 228.167 130.291 228.587 130.468C229.017 130.645 229.395 130.907 229.721 131.252C230.048 131.597 230.305 132.017 230.491 132.512C230.687 133.007 230.785 133.571 230.785 134.206C230.785 134.841 230.687 135.405 230.491 135.9C230.305 136.385 230.048 136.801 229.721 137.146C229.395 137.482 229.017 137.739 228.587 137.916C228.167 138.093 227.724 138.182 227.257 138.182ZM227.257 137.118C227.584 137.118 227.883 137.048 228.153 136.908C228.424 136.768 228.657 136.572 228.853 136.32C229.049 136.068 229.199 135.765 229.301 135.41C229.413 135.046 229.469 134.645 229.469 134.206C229.469 133.767 229.413 133.371 229.301 133.016C229.199 132.652 229.049 132.339 228.853 132.078C228.657 131.817 228.424 131.616 228.153 131.476C227.883 131.336 227.584 131.266 227.257 131.266C226.931 131.266 226.632 131.336 226.361 131.476C226.091 131.616 225.857 131.817 225.661 132.078C225.475 132.339 225.325 132.652 225.213 133.016C225.111 133.371 225.059 133.767 225.059 134.206C225.059 134.645 225.111 135.046 225.213 135.41C225.325 135.765 225.475 136.068 225.661 136.32C225.857 136.572 226.091 136.768 226.361 136.908C226.632 137.048 226.931 137.118 227.257 137.118ZM233.056 130.398H234.106L234.218 131.784H234.26C234.531 131.299 234.848 130.916 235.212 130.636C235.585 130.347 235.987 130.202 236.416 130.202C236.584 130.202 236.729 130.216 236.85 130.244C236.981 130.263 237.107 130.305 237.228 130.37L236.99 131.49C236.859 131.443 236.743 131.411 236.64 131.392C236.537 131.373 236.407 131.364 236.248 131.364C236.089 131.364 235.921 131.397 235.744 131.462C235.576 131.518 235.408 131.616 235.24 131.756C235.072 131.887 234.909 132.064 234.75 132.288C234.591 132.512 234.451 132.787 234.33 133.114V138H233.056V130.398ZM245.108 138.182C244.38 138.182 243.708 138.047 243.092 137.776C242.485 137.505 241.958 137.132 241.51 136.656L242.28 135.774C242.653 136.166 243.087 136.479 243.582 136.712C244.076 136.936 244.59 137.048 245.122 137.048C245.794 137.048 246.321 136.894 246.704 136.586C247.086 136.278 247.278 135.872 247.278 135.368C247.278 135.107 247.231 134.887 247.138 134.71C247.054 134.523 246.932 134.365 246.774 134.234C246.624 134.094 246.447 133.973 246.242 133.87C246.036 133.767 245.812 133.66 245.57 133.548L244.086 132.904C243.843 132.801 243.6 132.68 243.358 132.54C243.115 132.391 242.891 132.213 242.686 132.008C242.48 131.793 242.312 131.546 242.182 131.266C242.06 130.977 242 130.645 242 130.272C242 129.88 242.079 129.516 242.238 129.18C242.406 128.844 242.63 128.555 242.91 128.312C243.199 128.069 243.54 127.883 243.932 127.752C244.333 127.612 244.767 127.542 245.234 127.542C245.85 127.542 246.414 127.659 246.928 127.892C247.45 128.125 247.894 128.433 248.258 128.816L247.572 129.642C247.254 129.343 246.904 129.11 246.522 128.942C246.139 128.765 245.71 128.676 245.234 128.676C244.646 128.676 244.179 128.811 243.834 129.082C243.488 129.353 243.316 129.721 243.316 130.188C243.316 130.44 243.367 130.655 243.47 130.832C243.572 131.009 243.703 131.163 243.862 131.294C244.02 131.425 244.202 131.537 244.408 131.63C244.613 131.723 244.814 131.812 245.01 131.896L246.48 132.526C246.778 132.657 247.054 132.801 247.306 132.96C247.567 133.119 247.791 133.305 247.978 133.52C248.174 133.735 248.323 133.987 248.426 134.276C248.538 134.556 248.594 134.887 248.594 135.27C248.594 135.681 248.51 136.063 248.342 136.418C248.183 136.763 247.954 137.071 247.656 137.342C247.357 137.603 246.988 137.809 246.55 137.958C246.12 138.107 245.64 138.182 245.108 138.182ZM252.968 138.182C252.165 138.182 251.577 137.93 251.204 137.426C250.84 136.922 250.658 136.185 250.658 135.214V130.398H251.932V135.06C251.932 135.769 252.044 136.283 252.268 136.6C252.492 136.917 252.856 137.076 253.36 137.076C253.752 137.076 254.102 136.978 254.41 136.782C254.718 136.577 255.054 136.245 255.418 135.788V130.398H256.692V138H255.628L255.53 136.81H255.488C255.133 137.221 254.755 137.552 254.354 137.804C253.952 138.056 253.49 138.182 252.968 138.182ZM259.522 130.398H260.572L260.684 131.784H260.726C260.997 131.299 261.314 130.916 261.678 130.636C262.051 130.347 262.453 130.202 262.882 130.202C263.05 130.202 263.195 130.216 263.316 130.244C263.447 130.263 263.573 130.305 263.694 130.37L263.456 131.49C263.325 131.443 263.209 131.411 263.106 131.392C263.003 131.373 262.873 131.364 262.714 131.364C262.555 131.364 262.387 131.397 262.21 131.462C262.042 131.518 261.874 131.616 261.706 131.756C261.538 131.887 261.375 132.064 261.216 132.288C261.057 132.512 260.917 132.787 260.796 133.114V138H259.522V130.398ZM264.516 130.398H265.846L267.274 134.724C267.396 135.097 267.512 135.475 267.624 135.858C267.746 136.241 267.867 136.609 267.988 136.964H268.044C268.156 136.609 268.273 136.241 268.394 135.858C268.516 135.475 268.632 135.097 268.744 134.724L270.186 130.398H271.446L268.744 138H267.26L264.516 130.398ZM273.186 130.398H274.46V138H273.186V130.398ZM273.83 128.83C273.578 128.83 273.368 128.755 273.2 128.606C273.032 128.447 272.948 128.247 272.948 128.004C272.948 127.743 273.032 127.542 273.2 127.402C273.368 127.253 273.578 127.178 273.83 127.178C274.082 127.178 274.292 127.253 274.46 127.402C274.628 127.542 274.712 127.743 274.712 128.004C274.712 128.247 274.628 128.447 274.46 128.606C274.292 128.755 274.082 128.83 273.83 128.83ZM276.198 130.398H277.528L278.956 134.724C279.077 135.097 279.194 135.475 279.306 135.858C279.427 136.241 279.548 136.609 279.67 136.964H279.726C279.838 136.609 279.954 136.241 280.076 135.858C280.197 135.475 280.314 135.097 280.426 134.724L281.868 130.398H283.128L280.426 138H278.942L276.198 130.398ZM287.821 138.182C287.354 138.182 286.906 138.093 286.477 137.916C286.057 137.739 285.684 137.482 285.357 137.146C285.03 136.801 284.769 136.385 284.573 135.9C284.386 135.405 284.293 134.841 284.293 134.206C284.293 133.571 284.386 133.007 284.573 132.512C284.769 132.017 285.03 131.597 285.357 131.252C285.684 130.907 286.057 130.645 286.477 130.468C286.906 130.291 287.354 130.202 287.821 130.202C288.288 130.202 288.731 130.291 289.151 130.468C289.58 130.645 289.958 130.907 290.285 131.252C290.612 131.597 290.868 132.017 291.055 132.512C291.251 133.007 291.349 133.571 291.349 134.206C291.349 134.841 291.251 135.405 291.055 135.9C290.868 136.385 290.612 136.801 290.285 137.146C289.958 137.482 289.58 137.739 289.151 137.916C288.731 138.093 288.288 138.182 287.821 138.182ZM287.821 137.118C288.148 137.118 288.446 137.048 288.717 136.908C288.988 136.768 289.221 136.572 289.417 136.32C289.613 136.068 289.762 135.765 289.865 135.41C289.977 135.046 290.033 134.645 290.033 134.206C290.033 133.767 289.977 133.371 289.865 133.016C289.762 132.652 289.613 132.339 289.417 132.078C289.221 131.817 288.988 131.616 288.717 131.476C288.446 131.336 288.148 131.266 287.821 131.266C287.494 131.266 287.196 131.336 286.925 131.476C286.654 131.616 286.421 131.817 286.225 132.078C286.038 132.339 285.889 132.652 285.777 133.016C285.674 133.371 285.623 133.767 285.623 134.206C285.623 134.645 285.674 135.046 285.777 135.41C285.889 135.765 286.038 136.068 286.225 136.32C286.421 136.572 286.654 136.768 286.925 136.908C287.196 137.048 287.494 137.118 287.821 137.118ZM293.62 130.398H294.67L294.782 131.784H294.824C295.094 131.299 295.412 130.916 295.776 130.636C296.149 130.347 296.55 130.202 296.98 130.202C297.148 130.202 297.292 130.216 297.414 130.244C297.544 130.263 297.67 130.305 297.792 130.37L297.554 131.49C297.423 131.443 297.306 131.411 297.204 131.392C297.101 131.373 296.97 131.364 296.812 131.364C296.653 131.364 296.485 131.397 296.308 131.462C296.14 131.518 295.972 131.616 295.804 131.756C295.636 131.887 295.472 132.064 295.314 132.288C295.155 132.512 295.015 132.787 294.894 133.114V138H293.62V130.398Z" fill="#26303C"/>
<circle opacity="0.6" cx="160.5" cy="132.5" r="7" stroke="#141619"/>
</g>
<path d="M30.712 59.528V68.446H32.518V70H26.75V68.446H28.794V62.748L28.85 61.838L27.142 63.392L26.036 62.132L29.06 59.528H30.712ZM35.8703 70.196C35.5063 70.196 35.203 70.07 34.9603 69.818C34.7177 69.5567 34.5963 69.2347 34.5963 68.852C34.5963 68.4693 34.7177 68.152 34.9603 67.9C35.203 67.6387 35.5063 67.508 35.8703 67.508C36.2437 67.508 36.5517 67.6387 36.7943 67.9C37.037 68.152 37.1583 68.4693 37.1583 68.852C37.1583 69.2347 37.037 69.5567 36.7943 69.818C36.5517 70.07 36.2437 70.196 35.8703 70.196ZM44.1296 59.528V68.446H45.9356V70H40.1676V68.446H42.2116V62.748L42.2676 61.838L40.5596 63.392L39.4536 62.132L42.4776 59.528H44.1296ZM54.7673 58.198H55.6913L51.5053 71.806H50.5673L54.7673 58.198ZM66.9156 68.964V70H61.3716V68.964H63.6536V61.936C63.6536 61.8333 63.6536 61.7167 63.6536 61.586C63.6536 61.446 63.6582 61.3247 63.6676 61.222L61.8056 62.888L61.1196 62.062L63.8776 59.682H64.8996V68.964H66.9156ZM70.0999 70.182C69.8479 70.182 69.6286 70.0933 69.4419 69.916C69.2646 69.7387 69.1759 69.5053 69.1759 69.216C69.1759 68.9267 69.2646 68.6887 69.4419 68.502C69.6286 68.3153 69.8479 68.222 70.0999 68.222C70.3519 68.222 70.5666 68.3153 70.7439 68.502C70.9306 68.6887 71.0239 68.9267 71.0239 69.216C71.0239 69.5053 70.9306 69.7387 70.7439 69.916C70.5666 70.0933 70.3519 70.182 70.0999 70.182ZM77.7449 66.262V61.978C77.7449 61.8567 77.7496 61.7213 77.7589 61.572C77.7682 61.4133 77.7822 61.2593 77.8009 61.11L74.0209 66.262H77.7449ZM80.4329 66.262V67.27H78.8789V70H77.7449V67.27H72.6209V66.318L77.6749 59.626H78.8789V66.262H80.4329Z" fill="#26303C"/>
<rect x="-594" y="-161" width="1440" height="923" fill="black" fill-opacity="0.8"/>
<rect x="-292" y="-20" width="860" height="442" rx="4" fill="white"/>
<g style="mix-blend-mode:luminosity">
<mask id="mask0" mask-type="alpha" maskUnits="userSpaceOnUse" x="45" y="143" width="186" height="14">
<path fill-rule="evenodd" clip-rule="evenodd" d="M137.978 156.997C86.6356 156.997 45.0137 153.762 45.0137 149.772C45.0137 146.768 68.6094 144.192 102.18 143.102V148.709C102.18 148.833 102.19 148.945 102.19 149.059C102.285 150.308 102.839 151.433 103.67 152.255C104.588 153.145 105.839 153.693 107.224 153.693H165.699C167.34 155.01 169.428 155.802 171.702 155.802C174.942 155.802 177.806 154.199 179.53 151.753C179.735 151.884 179.942 152.014 180.151 152.144C183.886 149.837 187.265 147.02 190.193 143.793C214.787 145.093 230.944 147.285 230.944 149.772C230.944 153.762 189.322 156.997 137.978 156.997" fill="white"/>
</mask>
<g mask="url(#mask0)">
<path fill-rule="evenodd" clip-rule="evenodd" d="M137.978 156.997C86.6356 156.997 45.0137 153.762 45.0137 149.772C45.0137 146.768 68.6094 144.192 102.18 143.102V148.709C102.18 148.833 102.19 148.945 102.19 149.059C102.285 150.308 102.839 151.433 103.67 152.255C104.588 153.145 105.839 153.693 107.224 153.693H165.699C167.34 155.01 169.428 155.802 171.702 155.802C174.942 155.802 177.806 154.199 179.53 151.753C179.735 151.884 179.942 152.014 180.151 152.144C183.886 149.837 187.265 147.02 190.193 143.793C214.787 145.093 230.944 147.285 230.944 149.772C230.944 153.762 189.322 156.997 137.978 156.997" fill="black" fill-opacity="0.087233"/>
</g>
</g>
<g style="mix-blend-mode:luminosity">
<path fill-rule="evenodd" clip-rule="evenodd" d="M182.171 145.461C184.109 138.019 185.71 126.198 189.068 126.693C192.427 127.187 190.011 132.242 192.546 132.184C195.081 132.125 195.607 128.538 196.014 122.063C196.421 115.588 202.009 113.024 204.804 114.331C207.601 115.638 201.475 124.001 203.701 126.215C205.927 128.429 207.442 117.349 213.686 116.091C219.93 114.832 222.016 116.459 218.963 120.018C215.909 123.578 214.109 126.196 217.547 126.889C220.984 127.583 226.852 125.14 226.998 129.85C227.144 134.562 219.061 131.532 218.278 135.775C217.495 140.019 224.079 141.907 223.701 144.414C223.322 146.92 217.403 147.297 214.371 144.338C211.338 141.381 208.981 138.484 206.902 140.98C204.822 143.478 211.284 144.588 211.492 148.106C211.7 151.624 200.847 148.584 196.754 145.53C192.66 142.476 192.702 145.164 194.687 147.357C198.115 151.143 192.788 150.41 189.425 147.985C186.007 145.519 181.013 149.91 182.171 145.461" fill="url(#paint1_linear)"/>
</g>
<g style="mix-blend-mode:luminosity">
<path fill-rule="evenodd" clip-rule="evenodd" d="M188.666 139.093C188.483 138.802 188.413 138.463 188.381 138.145C188.373 138.07 188.366 137.996 188.357 137.923C188.288 137.401 188.237 136.878 188.206 136.367C188.133 135.159 188.088 133.983 188.339 132.881C188.367 132.761 188.487 132.685 188.611 132.712C188.732 132.739 188.81 132.858 188.782 132.979C188.544 134.024 188.589 135.165 188.659 136.341C188.689 136.841 188.739 137.354 188.806 137.866C188.816 137.941 188.824 138.02 188.833 138.101C188.86 138.36 188.91 138.609 189.017 138.811C189.966 138.036 190.98 137.311 192.034 136.62L192.041 136.607L192.061 136.602C193.169 135.876 194.315 135.182 195.529 134.559C196.851 133.881 198.164 133.384 199.377 132.958C198.87 132.427 198.647 131.686 198.518 130.996C198.039 128.444 198.13 125.765 198.776 123.248C198.807 123.13 198.916 123.063 199.052 123.086C199.173 123.116 199.247 123.238 199.217 123.358C198.586 125.813 198.497 128.426 198.964 130.915C199.094 131.601 199.306 132.349 199.841 132.79C199.952 132.752 200.081 132.701 200.19 132.664C203.374 131.589 206.899 130.555 210.563 129.988C210.603 128.774 210.647 127.521 211.061 126.337C211.213 125.899 211.414 125.482 211.608 125.078L212.543 123.128C212.596 123.017 212.729 122.969 212.845 123.021C212.958 123.074 213.006 123.207 212.954 123.319L212.019 125.269C211.83 125.661 211.636 126.067 211.49 126.483C211.11 127.574 211.059 128.761 211.022 129.915C213.571 129.551 216.183 129.419 218.798 129.694C218.922 129.708 219.012 129.817 218.999 129.94C218.985 130.061 218.875 130.149 218.752 130.139L218.748 130.138C214.727 129.695 210.706 130.229 206.923 131.14C206.947 131.405 207.057 131.671 207.175 131.926C207.868 133.423 208.583 134.971 209.733 136.185C210.093 136.565 210.523 136.942 211.051 137.337C212.409 138.355 213.917 139.145 215.53 139.686C215.649 139.725 215.713 139.853 215.672 139.97C215.637 140.069 215.539 140.129 215.435 140.119C215.419 140.118 215.401 140.114 215.383 140.109C213.724 139.553 212.174 138.74 210.776 137.693C210.227 137.281 209.778 136.888 209.401 136.491C208.2 135.221 207.468 133.641 206.762 132.112C206.643 131.854 206.532 131.564 206.488 131.252C204.344 131.787 202.277 132.432 200.338 133.088C198.953 133.554 197.325 134.142 195.74 134.955C194.612 135.533 193.547 136.174 192.511 136.844C193.611 138.263 194.904 139.848 196.481 141.106C197.679 142.061 199.57 143.23 201.833 143.434C201.873 143.438 201.932 143.449 201.955 143.444C202.079 143.455 202.171 143.561 202.16 143.683C202.152 143.806 202.042 143.899 201.918 143.889C201.877 143.886 201.835 143.883 201.794 143.879C199.908 143.709 197.975 142.872 196.196 141.454C194.571 140.157 193.252 138.537 192.132 137.092C187.353 140.26 183.611 144.336 181.432 148.872C181.391 148.96 181.298 149.008 181.206 148.999C181.18 148.996 181.155 148.99 181.13 148.978C181.017 148.926 180.968 148.793 181.022 148.681C182.72 145.143 185.346 141.876 188.666 139.093" fill="#FDFDFD"/>
</g>
<g style="mix-blend-mode:luminosity">
<path fill-rule="evenodd" clip-rule="evenodd" d="M182.07 147C188.573 143.431 203.383 142.104 203.575 137.186C203.768 132.268 199.649 129.786 194.184 131.141C194.184 131.141 196.77 125.462 202.217 124.629C207.664 123.796 212.671 122.451 212.745 120.361C212.819 118.272 207.926 116.408 205.092 117.417C205.092 117.417 205.137 110.321 210.493 109.657C217.009 108.85 219.147 105.791 217.434 104.296C215.72 102.801 206.883 99.2202 203.649 105.958C200.415 112.697 199.688 113.288 199.688 113.288C199.688 113.288 197.133 113.418 197.63 108.494C198.127 103.569 194.105 101.364 191.006 107.33C187.909 113.295 192.688 116.623 192.293 120.685C191.898 124.747 187.508 132.986 186.225 126.384C184.944 119.782 177.365 118.239 178.043 127.741C178.72 137.244 182.07 147 182.07 147" fill="url(#paint2_linear)"/>
</g>
<g style="mix-blend-mode:luminosity">
<path fill-rule="evenodd" clip-rule="evenodd" d="M205.224 120.141C205.228 119.962 205.089 119.816 204.91 119.811L201.691 119.738C200.855 119.719 199.907 119.697 199.052 120.078C198.649 120.257 198.284 120.517 197.93 120.768C197.529 121.053 197.141 121.317 196.74 121.445C202.118 113.811 207.661 107.297 210.83 105.607C210.986 105.524 211.046 105.329 210.962 105.171C210.879 105.013 210.686 104.954 210.528 105.038C207.551 106.625 202.511 112.402 197.455 119.38L197.452 119.264C197.354 117.232 196.812 115.202 195.879 113.394L195.768 113.183C195.542 112.752 195.328 112.345 195.257 111.908C195.162 111.326 195.333 110.694 195.484 110.135C195.531 109.964 195.426 109.786 195.258 109.74C195.087 109.694 194.91 109.795 194.863 109.967C194.695 110.588 194.506 111.293 194.622 112.011C194.711 112.552 194.959 113.026 195.2 113.484L195.309 113.691C196.198 115.416 196.717 117.354 196.809 119.295L196.822 119.593C196.828 119.79 196.836 119.988 196.851 120.185L196.858 120.209C192.339 126.531 187.877 133.714 184.924 139.642C185.002 138.475 184.501 137.426 184.013 136.411C183.728 135.82 183.432 135.207 183.267 134.591C183.035 133.721 183.044 132.787 183.052 131.885L183.102 127.001C183.103 126.821 182.96 126.675 182.785 126.676C182.607 126.674 182.462 126.817 182.461 126.994L182.41 131.877C182.401 132.824 182.391 133.802 182.647 134.757C182.828 135.433 183.136 136.073 183.433 136.692C183.912 137.684 184.364 138.622 184.279 139.698C184.256 139.963 184.232 140.319 184.453 140.599C183.374 142.841 182.529 144.881 182.014 146.585C181.967 146.739 182.043 146.902 182.185 146.969C182.198 146.976 182.213 146.981 182.228 146.986C182.399 147.038 182.578 146.942 182.63 146.771C183.285 144.601 184.473 141.889 186.008 138.899C186.103 138.884 186.191 138.832 186.241 138.741C186.755 137.81 187.868 137.141 189.297 136.91C190.07 136.784 190.882 136.777 191.667 136.77C192.19 136.765 192.714 136.76 193.235 136.724C194.936 136.603 196.227 136.103 197.074 135.238C197.198 135.11 197.195 134.906 197.069 134.782C196.942 134.658 196.739 134.659 196.615 134.786C195.883 135.536 194.731 135.972 193.19 136.081C192.683 136.117 192.171 136.121 191.66 136.126C190.853 136.132 190.016 136.14 189.194 136.274C188.332 136.413 187.573 136.703 186.953 137.107C189.519 132.349 192.828 127.056 196.238 122.161C197.033 122.178 197.679 121.736 198.302 121.294C198.644 121.05 198.968 120.82 199.313 120.667C200.036 120.344 200.908 120.365 201.677 120.383L204.896 120.456C205.074 120.46 205.22 120.319 205.224 120.141" fill="white"/>
</g>
<g style="mix-blend-mode:luminosity">
<mask id="mask1" mask-type="alpha" maskUnits="userSpaceOnUse" x="63" y="165" width="50" height="7">
<path fill-rule="evenodd" clip-rule="evenodd" d="M88.0263 171.906C74.2661 171.906 63.1113 170.376 63.1113 168.489C63.1113 166.603 74.2661 165.074 88.0263 165.074C101.786 165.074 112.941 166.603 112.941 168.489C112.941 170.376 101.786 171.906 88.0263 171.906" fill="white"/>
</mask>
<g mask="url(#mask1)">
<path fill-rule="evenodd" clip-rule="evenodd" d="M88.0263 171.906C74.2661 171.906 63.1113 170.376 63.1113 168.489C63.1113 166.603 74.2661 165.074 88.0263 165.074C101.786 165.074 112.941 166.603 112.941 168.489C112.941 170.376 101.786 171.906 88.0263 171.906" fill="black" fill-opacity="0.087233"/>
</g>
</g>
<g style="mix-blend-mode:luminosity">
<path fill-rule="evenodd" clip-rule="evenodd" d="M82.9255 114.735L86.7275 117.966L83.4301 117.581C88.2886 142.165 104.03 157.862 106.699 140.909C107.271 137.262 106.998 133.54 106.131 129.864L104.138 131.467L105.277 126.804C99.7217 109.493 82.5959 94 82.5959 94C81.6432 101.17 81.8912 108.222 82.9255 114.735" fill="#F7B97B"/>
</g>
<g style="mix-blend-mode:luminosity">
<path fill-rule="evenodd" clip-rule="evenodd" d="M103 146.682L95.297 124.975C93.9961 121.363 92.7751 117.723 91.3769 114.142C89.9737 110.571 88.2974 107.07 86 104C88.2326 107.119 89.8291 110.639 91.1536 114.229C92.4732 117.828 93.6194 121.496 94.8442 125.134L102.094 147L103 146.682" fill="white"/>
</g>
<g style="mix-blend-mode:luminosity">
<path fill-rule="evenodd" clip-rule="evenodd" d="M98.9707 145.448C98.2817 137.915 98.5802 126.176 95.3353 126.143C92.0916 126.109 93.5957 131.394 91.2136 130.948C88.8315 130.503 88.8832 126.935 89.4904 120.577C90.0975 114.218 85.2175 110.869 82.3792 111.712C79.5406 112.554 84.0406 121.624 81.6015 123.436C79.1625 125.248 79.4286 114.242 73.7296 112.062C68.0305 109.882 65.8133 111.143 68.1499 115.072C70.4866 119.001 71.7836 121.822 68.4345 121.97C65.0855 122.117 59.9227 118.843 59.0638 123.401C58.205 127.959 66.2954 126.251 66.3847 130.497C66.4742 134.743 59.9727 135.571 59.9464 138.066C59.9199 140.561 65.4473 141.834 68.761 139.422C72.0747 137.012 74.742 134.556 76.3223 137.302C77.9025 140.048 71.6355 140.138 70.9005 143.526C70.1656 146.916 80.872 145.622 85.2011 143.28C89.5307 140.939 89.0797 143.545 86.8715 145.374C83.0579 148.529 88.1967 148.633 91.7402 146.79C95.3429 144.917 99.3839 149.951 98.9707 145.448" fill="url(#paint3_linear)"/>
</g>
<g style="mix-blend-mode:luminosity">
<path fill-rule="evenodd" clip-rule="evenodd" d="M94.244 138.265C94.4606 138.011 94.5784 137.693 94.6582 137.39C94.6759 137.318 94.6949 137.247 94.7152 137.178C94.8609 136.683 94.9888 136.184 95.0965 135.694C95.3499 134.534 95.5729 133.401 95.5057 132.295C95.4981 132.175 95.3955 132.082 95.2751 132.091C95.1561 132.099 95.0649 132.202 95.0725 132.324C95.1358 133.372 94.9192 134.47 94.6721 135.599C94.5683 136.079 94.4416 136.568 94.2984 137.054C94.2782 137.126 94.2579 137.201 94.2376 137.278C94.173 137.526 94.0881 137.759 93.9551 137.939C93.1773 137.043 92.3311 136.186 91.4417 135.355L91.4367 135.342L91.4202 135.335C90.484 134.463 89.5086 133.615 88.4571 132.826C87.3132 131.968 86.1477 131.287 85.068 130.688C85.6296 130.251 85.9526 129.567 86.1806 128.919C87.0256 126.519 87.3512 123.91 87.127 121.372C87.1168 121.253 87.0231 121.172 86.8913 121.174C86.771 121.184 86.6836 121.291 86.6937 121.412C86.9129 123.887 86.5949 126.432 85.7727 128.772C85.5447 129.417 85.229 130.109 84.6565 130.456C84.5572 130.402 84.4432 130.332 84.3465 130.28C81.5047 128.754 78.3341 127.214 74.96 126.107C75.109 124.924 75.2589 123.703 75.0504 122.493C74.9731 122.046 74.8483 121.611 74.7276 121.19L74.144 119.158C74.11 119.042 73.9919 118.976 73.8742 119.008C73.7597 119.042 73.693 119.164 73.7259 119.28L74.3097 121.313C74.4277 121.721 74.5491 122.144 74.6219 122.569C74.8146 123.684 74.6801 124.842 74.5387 125.966C72.1867 125.225 69.7405 124.698 67.2276 124.566C67.1082 124.561 67.0067 124.653 67.0002 124.775C66.9949 124.894 67.085 124.996 67.2027 125.004L67.2068 125.004C71.0734 125.188 74.7885 126.318 78.2213 127.778C78.1572 128.031 78.0129 128.27 77.8624 128.5C76.9786 129.845 76.0652 131.236 74.7927 132.238C74.3952 132.55 73.9305 132.85 73.3712 133.152C71.9326 133.932 70.3876 134.468 68.7809 134.745C68.6622 134.766 68.5831 134.879 68.6033 134.998C68.6202 135.099 68.7046 135.173 68.8028 135.18C68.8198 135.181 68.8367 135.181 68.854 135.177C70.5072 134.892 72.0965 134.34 73.5768 133.538C74.158 133.224 74.6431 132.91 75.0604 132.583C76.3885 131.537 77.3218 130.117 78.2237 128.743C78.3755 128.512 78.5258 128.247 78.6154 127.953C80.5576 128.797 82.4115 129.737 84.1421 130.668C85.3774 131.331 86.8255 132.148 88.1974 133.178C89.1729 133.909 90.0812 134.694 90.9566 135.5C89.7011 136.708 88.2354 138.046 86.5531 139.024C85.276 139.767 83.3099 140.611 81.1407 140.464C81.1026 140.462 81.0462 140.464 81.0247 140.455C80.9062 140.447 80.8034 140.536 80.7937 140.656C80.784 140.776 80.8729 140.882 80.9921 140.892C81.031 140.896 81.0708 140.899 81.1097 140.901C82.9176 141.024 84.872 140.508 86.7697 139.404C88.5027 138.395 89.9976 137.029 91.2771 135.797C95.3043 139.596 98.2129 144.114 99.5747 148.842C99.6001 148.933 99.6799 148.993 99.7686 149C99.7926 149.001 99.818 148.998 99.8433 148.991C99.9586 148.957 100.024 148.836 99.9915 148.72C98.9299 145.032 96.9512 141.466 94.244 138.265" fill="#FDFDFD"/>
</g>
<g style="mix-blend-mode:luminosity">
<path fill-rule="evenodd" clip-rule="evenodd" d="M202 112.684V112.703C202 129.281 193.219 143.826 179.999 152C166.781 143.826 158 129.281 158 112.703V112.684L179.999 103L202 112.684" fill="#699AFF"/>
</g>
<g style="mix-blend-mode:luminosity">
<path fill-rule="evenodd" clip-rule="evenodd" d="M164.768 116.836C164.954 128.296 170.794 138.725 180.499 144.936C190.21 138.722 196.051 128.289 196.232 116.836L180.499 109.911L164.768 116.836M180.499 147L180.033 146.711C169.367 140.117 163 128.742 163 116.285V115.718L163.523 115.473L180.499 108L198 115.703V116.285C198 128.744 191.632 140.117 180.966 146.711L180.499 147" fill="white"/>
</g>
<g style="mix-blend-mode:luminosity">
<path fill-rule="evenodd" clip-rule="evenodd" d="M165.845 154L109.517 152.609C106.757 152.609 104.521 150.365 104.521 147.595L102 45.9782C102 43.2088 106.757 40 109.517 40H168.005C170.763 40 173 42.245 173 45.0146V147.595C173 150.365 168.605 154 165.845 154" fill="white"/>
</g>
<g style="mix-blend-mode:luminosity">
<path fill-rule="evenodd" clip-rule="evenodd" d="M171 46.031V148.969C171 151.557 169.033 153.695 166.523 153.972L166.513 153.981L166.502 153.972H166.494L166.484 153.981C166.417 153.981 166.331 153.991 166.274 153.991C166.169 154 166.054 154 165.969 154H107.041C105.657 154 104.407 153.447 103.489 152.549C102.659 151.719 102.105 150.583 102.01 149.323C102.01 149.208 102 149.094 102 148.969V46.031C102 45.8782 102.01 45.7255 102.019 45.5823V45.4868C102.019 45.4773 102.019 45.4581 102.029 45.4392C102.029 45.42 102.038 45.4106 102.038 45.401C102.076 45.1337 102.134 44.8664 102.209 44.6182C102.209 44.599 102.209 44.5895 102.22 44.5799C102.22 44.5608 102.23 44.5513 102.23 44.5322C102.23 44.5132 102.23 44.5035 102.239 44.494L102.249 44.4845C102.257 44.4654 102.268 44.4463 102.276 44.4177L102.286 44.4081C102.305 44.3508 102.324 44.3031 102.343 44.2553C102.755 43.1193 103.575 42.2029 104.626 41.6491C104.645 41.63 104.664 41.6205 104.683 41.611V41.6015L104.712 41.5823L104.721 41.5729L104.75 41.5537L104.759 41.5441H104.769V41.5346L104.798 41.525C105.475 41.1814 106.239 41 107.041 41H165.969C168.737 41 171 43.2433 171 46.031" fill="#E7F2F4"/>
</g>
<g style="mix-blend-mode:luminosity">
<path fill-rule="evenodd" clip-rule="evenodd" d="M167 143.497C167 144.88 165.895 146 164.531 146H109.459C108.82 146 108.247 145.748 107.812 145.342C107.315 144.892 107 144.232 107 143.497V50.5035C107 49.12 108.106 48 109.459 48H164.531C165.895 48 167 49.12 167 50.5035V143.497Z" fill="url(#paint4_linear)"/>
</g>
<g style="mix-blend-mode:luminosity">
<path fill-rule="evenodd" clip-rule="evenodd" d="M141 44.9999C141 46.1046 140.104 47 139 47C137.896 47 137 46.1046 137 44.9999C137 43.8954 137.896 43 139 43C140.104 43 141 43.8954 141 44.9999" fill="white"/>
</g>
<g style="mix-blend-mode:luminosity">
<path fill-rule="evenodd" clip-rule="evenodd" d="M121 76.711H123.28C124.8 71.5628 129.001 67.5385 134.269 66.226V64C127.78 65.3922 122.629 70.3591 121 76.711ZM123.28 85.2962H121C122.629 91.6409 127.78 96.6077 134.269 98V95.774C129.001 94.4616 124.8 90.4444 123.28 85.2962ZM142.921 95.4186V97.7027C148.84 95.9915 153.473 91.2492 155 85.2962H152.72C151.317 90.0529 147.627 93.8451 142.921 95.4186ZM152.72 76.711H155C153.473 70.7508 148.84 66.0085 142.921 64.2973V66.5814C147.627 68.1621 151.317 71.9543 152.72 76.711V76.711Z" fill="#3F4765"/>
</g>
<g style="mix-blend-mode:luminosity">
<mask id="mask2" mask-type="alpha" maskUnits="userSpaceOnUse" x="123" y="63" width="30" height="30">
<path fill-rule="evenodd" clip-rule="evenodd" d="M123.072 77.9583C123.072 86.2173 129.768 92.9128 138.027 92.9128C146.285 92.9128 152.981 86.2173 152.981 77.9583C152.981 69.6992 146.285 63.0039 138.027 63.0039C129.768 63.0039 123.072 69.6992 123.072 77.9583" fill="white"/>
</mask>
<g mask="url(#mask2)">
<path fill-rule="evenodd" clip-rule="evenodd" d="M141.62 78.1778C142.523 77.2455 143.377 77.9402 143.13 79.0328C142.882 80.1253 142.041 81.1635 141.705 80.5904C141.37 80.0172 141.62 78.1778 141.62 78.1778" fill="#EF937B"/>
<path fill-rule="evenodd" clip-rule="evenodd" d="M141.891 78.7948C141.891 78.1292 142.555 78.2095 142.693 78.5779C142.83 78.9462 142.647 78.6786 142.444 78.7124C142.444 78.7124 142.689 79.7823 141.891 80.0432L141.957 79.5357C141.957 79.5357 142.177 79.4178 142.083 79.2136C141.987 79.0093 141.891 79.118 141.891 79.118V78.7948" fill="#D87E6C"/>
<path fill-rule="evenodd" clip-rule="evenodd" d="M133.44 78.1778C132.539 77.2455 131.683 77.9402 131.931 79.0328C132.179 80.1253 133.021 81.1635 133.356 80.5904C133.69 80.0172 133.44 78.1778 133.44 78.1778" fill="#EF937B"/>
<path fill-rule="evenodd" clip-rule="evenodd" d="M133.17 78.7948C133.17 78.1292 132.505 78.2095 132.369 78.5779C132.232 78.9462 132.415 78.6786 132.618 78.7124C132.618 78.7124 132.371 79.7823 133.17 80.0432L133.105 79.5357C133.105 79.5357 132.884 79.4178 132.979 79.2136C133.073 79.0093 133.17 79.118 133.17 79.118V78.7948" fill="#D87E6C"/>
<path fill-rule="evenodd" clip-rule="evenodd" d="M135.858 85.6389L127.656 89.3047L129.797 93.2617H146.256L148.549 88.9267L139.454 85.3477L135.858 85.6389" fill="#232425"/>
<path fill-rule="evenodd" clip-rule="evenodd" d="M135.494 83.7252C135.559 84.2661 135.667 86.0631 135.651 86.3601C135.64 86.5326 135.685 86.7032 135.776 86.8473C136.107 87.3674 136.969 88.5377 137.948 88.3797C138.864 88.2317 139.727 87.3732 140.125 86.9211C140.271 86.7562 140.341 86.5328 140.32 86.3078C140.25 85.6131 140.138 84.0125 140.463 83.1885C140.8 82.3363 137.462 83.6057 136.084 84.1601C135.764 84.2894 135.451 83.3643 135.494 83.7252" fill="#EF937B"/>
<path fill-rule="evenodd" clip-rule="evenodd" d="M133.222 78.5069C133.222 78.5069 133.215 80.6928 133.555 82.0485C133.894 83.4042 136.561 85.424 137.39 85.4381C138.217 85.4524 141.149 83.1022 141.563 81.7577C141.978 80.4131 141.978 77.0422 141.978 77.0422C141.978 77.0422 140.241 74.5297 139.196 74.3503C138.153 74.1711 137.616 73.384 136.406 73.7613C135.195 74.1386 134.316 74.2036 133.894 74.9188C133.471 75.6341 133.222 78.5069 133.222 78.5069" fill="#FEAC84"/>
<path fill-rule="evenodd" clip-rule="evenodd" d="M142.186 75.7766C142.454 76.4858 141.809 78.4395 141.809 78.4395C141.809 78.4395 141.589 77.2827 140.753 76.0353C140.692 75.9429 140.835 75.5977 140.835 75.5977L142.186 75.7766" fill="#051A2D"/>
<path fill-rule="evenodd" clip-rule="evenodd" d="M133.323 77.3444C135.438 75.3328 137.456 76.6504 139.38 76.2221C139.38 76.2221 138.648 76.2075 138.319 75.708C138.319 75.708 142.381 77.6031 144.234 75.398C146.084 73.1929 143.73 71.2931 142.371 71.1864C142.371 71.1864 143.913 71.9542 143.288 73.1499C142.662 74.3456 139.206 68.9118 134.576 71.9371C130.517 74.5895 132.709 77.9146 132.709 77.9146L133.367 78.7734L133.323 77.3444" fill="#051A2D"/>
<path fill-rule="evenodd" clip-rule="evenodd" d="M138.301 79.2582L139.4 80.1491L139.809 77.9602L138.301 79.2582ZM138.266 82.9872L138.251 82.9817C138.245 82.9772 138.228 82.9599 138.243 82.9275C138.229 82.795 136.922 82.0775 135.699 81.4717L135.655 81.4498L138.2 79.2596L136.541 77.9149L134.222 79.393L134.187 79.3379L136.546 77.8344L138.249 79.2162L139.907 77.7891L139.444 80.2691L138.251 79.3014L135.772 81.4351C135.931 81.5144 136.494 81.797 137.043 82.093C138.078 82.6517 138.278 82.8327 138.306 82.9094C138.514 82.7909 139.466 82.0217 140.061 81.5286L140.103 81.579C138.563 82.8552 138.319 82.9872 138.266 82.9872V82.9872Z" fill="white"/>
<path fill-rule="evenodd" clip-rule="evenodd" d="M136.876 77.8709C136.876 78.0737 136.711 78.238 136.509 78.238C136.306 78.238 136.142 78.0737 136.142 77.8709C136.142 77.6683 136.306 77.5039 136.509 77.5039C136.711 77.5039 136.876 77.6683 136.876 77.8709" fill="white"/>
<path fill-rule="evenodd" clip-rule="evenodd" d="M140.225 77.8709C140.225 78.0737 140.061 78.238 139.859 78.238C139.655 78.238 139.491 78.0737 139.491 77.8709C139.491 77.6683 139.655 77.5039 139.859 77.5039C140.061 77.5039 140.225 77.6683 140.225 77.8709" fill="white"/>
<path fill-rule="evenodd" clip-rule="evenodd" d="M139.789 80.1366C139.789 80.3395 139.624 80.5039 139.422 80.5039C139.219 80.5039 139.055 80.3395 139.055 80.1366C139.055 79.9339 139.219 79.7695 139.422 79.7695C139.624 79.7695 139.789 79.9339 139.789 80.1366" fill="white"/>
<path fill-rule="evenodd" clip-rule="evenodd" d="M136.134 81.3399C136.134 81.5427 135.97 81.707 135.768 81.707C135.564 81.707 135.4 81.5427 135.4 81.3399C135.4 81.137 135.564 80.9727 135.768 80.9727C135.97 80.9727 136.134 81.137 136.134 81.3399" fill="white"/>
<path fill-rule="evenodd" clip-rule="evenodd" d="M138.639 82.9571C138.639 83.1597 138.475 83.3241 138.272 83.3241C138.07 83.3241 137.904 83.1597 137.904 82.9571C137.904 82.7542 138.07 82.5898 138.272 82.5898C138.475 82.5898 138.639 82.7542 138.639 82.9571" fill="white"/>
<path fill-rule="evenodd" clip-rule="evenodd" d="M140.306 81.6015C140.306 81.8042 140.142 81.9686 139.938 81.9686C139.736 81.9686 139.572 81.8042 139.572 81.6015C139.572 81.3987 139.736 81.2344 139.938 81.2344C140.142 81.2344 140.306 81.3987 140.306 81.6015" fill="white"/>
<path fill-rule="evenodd" clip-rule="evenodd" d="M134.61 79.3007C134.61 79.5035 134.446 79.6678 134.242 79.6678C134.04 79.6678 133.875 79.5035 133.875 79.3007C133.875 79.098 134.04 78.9336 134.242 78.9336C134.446 78.9336 134.61 79.098 134.61 79.3007" fill="white"/>
<path fill-rule="evenodd" clip-rule="evenodd" d="M143.288 75.9795C143.016 76.1103 142.706 76.2555 142.359 76.411C140.474 76.7157 138.32 75.7115 138.32 75.7115C138.648 76.2104 139.38 76.2254 139.38 76.2254C137.456 76.6536 135.438 75.3362 133.323 77.3473C133.295 76.1835 133.947 74.466 136.134 74.2393L135.619 74.8837C135.619 74.8837 136.801 73.7842 138.419 74.2393C140.038 74.6929 141.728 75.4761 142.738 74.8858C142.687 74.9335 141.755 75.7703 140.833 75.601C140.833 75.601 142.113 76.16 143.288 75.9795" fill="#051A2D"/>
<path fill-rule="evenodd" clip-rule="evenodd" d="M144.257 75.6009C144.09 75.7206 143.911 75.8101 143.723 75.8735C143.582 75.9226 143.436 75.9572 143.288 75.9794C143.588 75.8357 143.84 75.7094 144.042 75.6068C144.733 75.2557 144.841 75.1773 144.257 75.6009" fill="#051A2D"/>
</g>
</g>
<g style="mix-blend-mode:luminosity">
<path fill-rule="evenodd" clip-rule="evenodd" d="M157 112.5C157 113.191 156.707 113.814 156.236 114.266C155.765 114.718 155.107 115 154.387 115H123.604C122.164 115 121 113.882 121 112.5C121 111.809 121.293 111.186 121.764 110.734C122.235 110.281 122.884 110 123.604 110H154.387C155.827 110 157 111.118 157 112.5" fill="#212D69"/>
</g>
<g style="mix-blend-mode:luminosity">
<path fill-rule="evenodd" clip-rule="evenodd" d="M147 112.5C147 113.191 146.706 113.814 146.235 114.266C145.755 114.718 145.106 115 144.387 115H123.604C122.164 115 121 113.882 121 112.5C121 111.809 121.293 111.186 121.764 110.734C122.235 110.281 122.884 110 123.604 110H144.387C145.826 110 147 111.118 147 112.5" fill="#4F5C7C"/>
</g>
<g style="mix-blend-mode:luminosity">
<path fill-rule="evenodd" clip-rule="evenodd" d="M116.813 67H83.1857C83.0831 67 83 66.9158 83 66.8117V51.1881C83 51.0842 83.0831 51 83.1857 51H116.813C116.916 51 117 51.0842 117 51.1881V66.8117C117 66.9158 116.916 67 116.813 67" fill="#F58220"/>
</g>
<g style="mix-blend-mode:luminosity" opacity="0.115932">
<path fill-rule="evenodd" clip-rule="evenodd" d="M85 56H95V54H85V56Z" fill="white"/>
</g>
<g style="mix-blend-mode:luminosity" opacity="0.115932">
<path fill-rule="evenodd" clip-rule="evenodd" d="M85 61H113V59H85V61Z" fill="white"/>
</g>
<g style="mix-blend-mode:luminosity" opacity="0.115932">
<path fill-rule="evenodd" clip-rule="evenodd" d="M85 63H113V61H85V63Z" fill="white"/>
</g>
<g style="mix-blend-mode:luminosity">
<path fill-rule="evenodd" clip-rule="evenodd" d="M197.813 96H164.185C164.083 96 164 95.9156 164 95.8117V80.1883C164 80.0842 164.083 80 164.185 80H197.813C197.916 80 198 80.0842 198 80.1883V95.8117C198 95.9156 197.916 96 197.813 96" fill="#F58220"/>
</g>
<g style="mix-blend-mode:luminosity" opacity="0.115932">
<path fill-rule="evenodd" clip-rule="evenodd" d="M167 90H185V84H167V90Z" fill="white"/>
</g>
<g style="mix-blend-mode:luminosity" opacity="0.115932">
<path fill-rule="evenodd" clip-rule="evenodd" d="M167 94H195V92H167V94Z" fill="white"/>
</g>
<g style="mix-blend-mode:luminosity">
<path fill-rule="evenodd" clip-rule="evenodd" d="M191.141 43H179.86C179.385 43 179 42.6155 179 42.1409V30.8591C179 30.3847 179.385 30 179.86 30H191.141C191.615 30 192 30.3847 192 30.8591V42.1409C192 42.6155 191.615 43 191.141 43" fill="#4F5C7C"/>
</g>
<g style="mix-blend-mode:luminosity">
<path fill-rule="evenodd" clip-rule="evenodd" d="M181.111 35H180V29.3616C180 26.5593 182.062 24.1446 184.747 24.0065C187.619 23.8588 190 26.2503 190 29.2105V30.7593C190 31.0791 189.751 31.3383 189.444 31.3383C189.137 31.3383 188.888 31.0791 188.888 30.7593V29.3293C188.888 27.2202 187.39 25.3741 185.375 25.1763C183.063 24.9494 181.111 26.8469 181.111 29.2105V35" fill="#765C7C"/>
</g>
<g style="mix-blend-mode:luminosity">
<path fill-rule="evenodd" clip-rule="evenodd" d="M190.141 44H178.86C178.385 44 178 43.6155 178 43.1409V31.8592C178 31.3847 178.385 31 178.86 31H190.141C190.615 31 191 31.3847 191 31.8592V43.1409C191 43.6155 190.615 44 190.141 44" fill="#765C7C"/>
</g>
<g style="mix-blend-mode:luminosity">
<path fill-rule="evenodd" clip-rule="evenodd" d="M186.153 37.9529V37.9575C186.171 38.0189 186.176 38.0802 186.176 38.1463V40.0425C186.176 40.5756 185.653 41 184.997 41C184.347 41 183.818 40.5756 183.818 40.0425V38.1463C183.818 38.0802 183.824 38.0142 183.843 37.9529C183.331 37.6556 183 37.1745 183 36.6273C183 35.7264 183.895 35 184.997 35C186.107 35 187 35.7264 187 36.6273C187 37.1745 186.664 37.6604 186.153 37.9529" fill="white"/>
</g>
<g style="mix-blend-mode:luminosity">
<path fill-rule="evenodd" clip-rule="evenodd" d="M79.9577 114.763C79.9577 114.763 79.5397 120.149 80.6279 126.274L80.3277 142.028L78 164.624H82.2835L87.7639 141.986L89.3153 123.839L92.5329 142.674L92.9679 165L97.0162 164.624L100 139.474L96.8278 111L79.9577 114.763" fill="#1F2F69"/>
</g>
<g style="mix-blend-mode:luminosity">
<path fill-rule="evenodd" clip-rule="evenodd" d="M76.9741 164.973L76 170H86C86 170 85.4654 168.211 83.1711 167.266C80.8763 166.321 81.3069 164 81.3069 164L76.9741 164.973" fill="#3F4765"/>
</g>
<g style="mix-blend-mode:luminosity">
<path fill-rule="evenodd" clip-rule="evenodd" d="M91.9731 164.973L91 170H101C101 170 100.465 168.211 98.1701 167.266C95.876 166.321 96.3056 164 96.3056 164L91.9731 164.973" fill="#3F4765"/>
</g>
<g style="mix-blend-mode:luminosity">
<path fill-rule="evenodd" clip-rule="evenodd" d="M87 91.6299C88.1719 90.7859 88.7933 89.4311 89.1486 88L93 88.822C92.4984 90.3444 92.0567 91.7677 92.6767 93L87 91.6299" fill="#FEAC84"/>
</g>
<g style="mix-blend-mode:luminosity">
<path fill-rule="evenodd" clip-rule="evenodd" d="M86.9149 88.2482C86.5233 88.8083 91.6935 90.6499 93.2181 89.762C94.7323 88.8797 95.8667 81.6719 94.1087 79.6524L91.639 79.1141C88.3941 78.4071 85.4538 81.0935 86.0864 84.1878L86.9149 88.2482" fill="#FEAC84"/>
</g>
<g style="mix-blend-mode:luminosity">
<path fill-rule="evenodd" clip-rule="evenodd" d="M79.0891 120.596C80.5994 122.897 93.9099 122.184 96.986 119.803C95.2261 113.119 97.6497 104.786 96.8216 94.3664C94.4142 91.6972 86.2253 89.8397 82.5832 91.8437C79.224 93.7348 78.7591 113.215 79.0891 120.596" fill="#438AE2"/>
</g>
<g style="mix-blend-mode:luminosity">
<path fill-rule="evenodd" clip-rule="evenodd" d="M90.9185 82.9301C94.9324 83.1931 93.911 82.0544 94.7717 80.1573C95.887 77.7018 92.8513 77.5915 87.0864 78.5915C82.4793 79.3907 83.7794 86.2629 86.1516 87.9584C88.8398 89.8801 89.8922 88.8116 89.6461 87.4103C89.4 86.0091 87.2274 85.1528 88.6037 84.3938C89.9812 83.6349 90.5846 85.8472 90.5846 85.8472C90.5846 85.8472 89.8823 82.8621 90.9185 82.9301" fill="#051A2D"/>
</g>
<g style="mix-blend-mode:luminosity">
<path fill-rule="evenodd" clip-rule="evenodd" d="M112.611 84L109.201 83.9147C109.034 83.9147 108.884 83.7769 108.864 83.6068L108.001 77.3672C107.982 77.1971 108.247 77 108.413 77H111.944C112.111 77 112.262 77.1378 112.281 77.3079L112.999 83.6068C113.019 83.7769 112.778 84 112.611 84" fill="#5666AF"/>
</g>
<g style="mix-blend-mode:luminosity">
<path fill-rule="evenodd" clip-rule="evenodd" d="M112.258 77.3117L112.998 83.6884C113.016 83.849 112.911 83.9811 112.758 83.9984H112.757L112.756 83.9989L112.742 83.9995L112.724 84H109.089C109.004 84 108.923 83.966 108.86 83.9103C108.802 83.859 108.76 83.7887 108.746 83.7106L108.742 83.6884L108.002 77.3117L108.001 77.2839L108 77.2783V77.2755L108.001 77.2726C108.001 77.2565 108.002 77.2398 108.006 77.2242V77.217L108.007 77.2163L108.009 77.212V77.2113L108.011 77.2019C108.028 77.1305 108.074 77.0726 108.137 77.038V77.0375L108.138 77.0364L108.139 77.0357L108.14 77.0347V77.0341L108.141 77.0336C108.181 77.0124 108.228 77 108.277 77H111.913C112.084 77 112.239 77.1395 112.258 77.3117" fill="#1F2F69"/>
</g>
<g style="mix-blend-mode:luminosity">
<path fill-rule="evenodd" clip-rule="evenodd" d="M111.395 78.1533L111.999 83.8467C112.008 83.9314 111.952 84 111.876 84H108.76C108.724 84 108.69 83.9845 108.663 83.9596C108.632 83.932 108.61 83.8917 108.605 83.8467L108.001 78.1533C107.991 78.0686 108.047 78 108.124 78H111.239C111.316 78 111.386 78.0686 111.395 78.1533" fill="white"/>
</g>
<g style="mix-blend-mode:luminosity">
<path fill-rule="evenodd" clip-rule="evenodd" d="M110.105 78.0014C110.111 78.0585 110.07 78.1045 110.012 78.1045C109.954 78.1045 109.901 78.0585 109.895 78.0014C109.889 77.9445 109.929 77.8984 109.987 77.8984C110.045 77.8984 110.098 77.9445 110.105 78.0014" fill="white"/>
</g>
<g style="mix-blend-mode:luminosity">
<path fill-rule="evenodd" clip-rule="evenodd" d="M114 84.9728L112.668 88.3673C110.969 93.1213 108.962 99.5089 108.047 100.116C106.196 101.009 102.367 100.973 98.6756 101L96 94.7972L104.862 96.0134L110.325 87.0232L112.172 84L114 84.9728" fill="#FEAC84"/>
</g>
<g style="mix-blend-mode:luminosity">
<path fill-rule="evenodd" clip-rule="evenodd" d="M112.206 83.4897L112 82.7094C112.044 82.205 112.299 82.3195 112.563 82.5916L112.331 81C112.331 81 113.395 81.4907 113.583 82.3505C113.579 82.8693 114.292 84.3005 113.862 85L112.384 84.2037L112.206 83.4897" fill="#FEAC84"/>
</g>
<g style="mix-blend-mode:luminosity">
<path fill-rule="evenodd" clip-rule="evenodd" d="M105.79 100.004C105.528 100.026 100.292 100.941 97.1547 101L96 93L104.713 94.5359C106.053 96.2365 106.219 98.3216 105.79 100.004" fill="#357DDA"/>
</g>
<g style="mix-blend-mode:luminosity">
<mask id="mask3" mask-type="alpha" maskUnits="userSpaceOnUse" x="96" y="80" width="6" height="10">
<path fill-rule="evenodd" clip-rule="evenodd" d="M99.826 89.9729C96.9317 88.7496 94.6869 83.5007 96.9186 80.2975L101.978 80.0156V88.4379L99.826 89.9729" fill="white"/>
</mask>
<g mask="url(#mask3)">
<path opacity="0.168969" fill-rule="evenodd" clip-rule="evenodd" d="M99.826 89.9729C96.9317 88.7496 94.6869 83.5007 96.9186 80.2975L101.978 80.0156V88.4379L99.826 89.9729" fill="url(#paint5_linear)"/>
</g>
</g>
<g style="mix-blend-mode:luminosity" opacity="0.168969">
<path fill-rule="evenodd" clip-rule="evenodd" d="M102 88V79.2433L106 79V81.2556L102.902 81.4377L102 81.4953V88" fill="#5D4F76"/>
</g>
<g style="mix-blend-mode:luminosity" opacity="0.168969">
<path fill-rule="evenodd" clip-rule="evenodd" d="M106 81V79.0978L107.76 79L108 80.8871L106.002 80.9999L106 81" fill="#BEC3D3"/>
</g>
<g style="mix-blend-mode:luminosity" opacity="0.168969">
<path fill-rule="evenodd" clip-rule="evenodd" d="M102 88V81.2487L102.902 81.189L106 81V84.7658L102 88" fill="#54496D"/>
</g>
<g style="mix-blend-mode:luminosity" opacity="0.168969">
<path fill-rule="evenodd" clip-rule="evenodd" d="M106 85V81.1424L106.002 81.1422L107.816 81L108 83.0239L106 85" fill="#ACB0C1"/>
</g>
<g style="mix-blend-mode:luminosity">
<path fill-rule="evenodd" clip-rule="evenodd" d="M108.674 83L108.365 81.1681L108 79.0146L108.354 79L109 82.8256L108.674 83" fill="#1F2F69"/>
</g>
<g style="mix-blend-mode:luminosity" opacity="0.168969">
<path fill-rule="evenodd" clip-rule="evenodd" d="M108.545 83L108 79.0945L109.857 79.001C109.866 79.0004 109.876 79 109.885 79C110.645 79 111.392 81.2063 110.766 81.5679L108.545 83" fill="#BEC3D3"/>
</g>
<g style="mix-blend-mode:luminosity">
<path fill-rule="evenodd" clip-rule="evenodd" d="M93.6206 80C94.1384 80.6955 93.9758 83 93.9758 83C93.9758 83 93.3813 81.8041 92.0553 80.6823C91.9575 80.5991 92.0192 80.1841 92.0192 80.1841L93.6206 80" fill="#051A2D"/>
</g>
<g style="mix-blend-mode:luminosity">
<path fill-rule="evenodd" clip-rule="evenodd" d="M86.8251 84.5735C88.3396 82.0006 90.5733 82.8032 92.2944 81.8728C92.2944 81.8728 91.5963 82.0479 91.162 81.6307C91.162 81.6307 95.4764 82.484 96.6922 79.7846C97.9093 77.0853 95.2126 75.7841 93.8985 76.0292C93.8985 76.0292 95.5486 76.4019 95.2474 77.7674C94.9463 79.133 90.3394 74.5594 86.692 78.8069C83.0743 83.0198 86.3833 85.3066 86.3833 85.3066L87.2171 86L86.8251 84.5735" fill="#051A2D"/>
</g>
<g style="mix-blend-mode:luminosity">
<path fill-rule="evenodd" clip-rule="evenodd" d="M89 37.9999C89 39.1045 88.1047 40 86.9998 40C85.896 40 85 39.1045 85 37.9999C85 36.8955 85.896 36 86.9998 36C88.1047 36 89 36.8955 89 37.9999" fill="#FF9A00"/>
</g>
<g style="mix-blend-mode:luminosity">
<path fill-rule="evenodd" clip-rule="evenodd" d="M184 66.4999C184 67.3283 183.329 68 182.5 68C181.671 68 181 67.3283 181 66.4999C181 65.6715 181.671 65 182.5 65C183.329 65 184 65.6715 184 66.4999" fill="#FF9A00"/>
</g>
<g style="mix-blend-mode:luminosity">
<path fill-rule="evenodd" clip-rule="evenodd" d="M72 84.9999C72 85.5523 71.5523 86 71 86C70.4477 86 70 85.5523 70 84.9999C70 84.4478 70.4477 84 71 84C71.5523 84 72 84.4478 72 84.9999" fill="#FF9A00"/>
</g>
<g style="mix-blend-mode:luminosity">
<path fill-rule="evenodd" clip-rule="evenodd" d="M110 26.0001C110 26.5522 109.553 27 109.001 27C108.448 27 108 26.5522 108 26.0001C108 25.4477 108.448 25 109.001 25C109.553 25 110 25.4477 110 26.0001" fill="#FF9A00"/>
</g>
<g style="mix-blend-mode:luminosity">
<path fill-rule="evenodd" clip-rule="evenodd" d="M207 40C207 40.5523 206.552 41 205.999 41C205.447 41 205 40.5523 205 40C205 39.4477 205.447 39 205.999 39C206.552 39 207 39.4477 207 40" fill="#FF9A00"/>
</g>
<g style="mix-blend-mode:luminosity">
<path fill-rule="evenodd" clip-rule="evenodd" d="M61.9385 36.1854L53.1756 45.1031L61.3316 53.8036L68.8357 43.9282L61.9385 36.1854ZM53 45.1011L61.9433 36L69 43.922L68.9694 43.9622L61.3419 54L53 45.1011V45.1011Z" fill="white"/>
</g>
<g style="mix-blend-mode:luminosity">
<path fill-rule="evenodd" clip-rule="evenodd" d="M53 44.8764L61.4762 44.4708L61.8706 36L62 36.0054L61.6004 44.5888L53.0065 45L53 44.8764" fill="white"/>
</g>
<g style="mix-blend-mode:luminosity">
<path fill-rule="evenodd" clip-rule="evenodd" d="M62.3706 44.7802L69.986 44L70 44.1255L62.4978 44.8942L62.1317 54L62 53.9951L62.3706 44.7802" fill="white"/>
</g>
<g style="mix-blend-mode:luminosity">
<path fill-rule="evenodd" clip-rule="evenodd" d="M61.8305 46.9927C60.7299 46.8991 59.9138 45.931 60.0073 44.8305C60.101 43.7301 61.069 42.9138 62.1694 43.0073C63.2701 43.101 64.0864 44.069 63.9927 45.1696C63.8991 46.2701 62.931 47.0864 61.8305 46.9927" fill="white"/>
</g>
<g style="mix-blend-mode:luminosity">
<path fill-rule="evenodd" clip-rule="evenodd" d="M61.8304 38.9927C60.7299 38.899 59.9136 37.931 60.0073 36.8305C60.1009 35.7299 61.0688 34.9138 62.1695 35.0073C63.2699 35.1008 64.0862 36.069 63.9927 37.1695C63.899 38.2699 62.931 39.0862 61.8304 38.9927" fill="white"/>
</g>
<g style="mix-blend-mode:luminosity">
<path fill-rule="evenodd" clip-rule="evenodd" d="M68.8305 44.9945C67.73 44.9243 66.9136 44.1982 67.0073 43.3729C67.1009 42.5474 68.0689 41.9352 69.1695 42.0055C70.27 42.0757 71.0862 42.8017 70.9927 43.6271C70.899 44.4525 69.931 45.0647 68.8305 44.9945" fill="white"/>
</g>
<g style="mix-blend-mode:luminosity">
<path fill-rule="evenodd" clip-rule="evenodd" d="M60.8305 54.9927C59.73 54.8991 58.9136 53.931 59.0073 52.8305C59.1009 51.73 60.0689 50.9136 61.1695 51.0073C62.27 51.1009 63.0862 52.069 62.9927 53.1695C62.899 54.27 61.931 55.0864 60.8305 54.9927" fill="white"/>
</g>
<g style="mix-blend-mode:luminosity">
<path fill-rule="evenodd" clip-rule="evenodd" d="M52.8305 46.9927C51.73 46.8991 50.9136 45.9311 51.0073 44.8305C51.1009 43.73 52.069 42.9138 53.1695 43.0073C54.27 43.101 55.0864 44.069 54.9927 45.1695C54.8991 46.27 53.931 47.0864 52.8305 46.9927" fill="white"/>
</g>
<g style="mix-blend-mode:luminosity">
<path fill-rule="evenodd" clip-rule="evenodd" d="M203.696 61.8561C203.538 61.9861 203.316 61.9533 203.196 61.7826C203.076 61.612 203.106 61.3715 203.265 61.2415C203.422 61.1117 203.644 61.1444 203.765 61.3152C203.885 61.486 203.854 61.7263 203.696 61.8561ZM202 61.527L205.144 66L207 64.4731L203.856 60L202 61.527V61.527Z" fill="white"/>
</g>
<g style="mix-blend-mode:luminosity">
<path fill-rule="evenodd" clip-rule="evenodd" d="M207.384 64L210.123 61.7974C211.1 61.0113 211.29 59.5361 210.546 58.5023L209.386 56.8894C209.874 56.4973 209.968 55.7616 209.598 55.246C209.227 54.7305 208.531 54.6305 208.044 55.0225L205.788 56.8773L205.563 54.9579C205.471 54.1771 204.613 53.7218 204.013 54.1879L204 54.1991L204.531 60.0331L207.384 64" fill="white"/>
</g>
<circle opacity="0.147219" cx="132.5" cy="125.502" r="119.5" transform="rotate(10 132.5 125.502)" fill="url(#paint6_linear)"/>
</g>
<defs>
<filter id="filter0_d" x="-273" y="-10" width="1133" height="1228" filterUnits="userSpaceOnUse" color-interpolation-filters="sRGB">
<feFlood flood-opacity="0" result="BackgroundImageFix"/>
<feColorMatrix in="SourceAlpha" type="matrix" values="0 0 0 0 0 0 0 0 0 0 0 0 0 0 0 0 0 0 127 0"/>
<feOffset dy="12"/>
<feGaussianBlur stdDeviation="7"/>
<feColorMatrix type="matrix" values="0 0 0 0 0.188373 0 0 0 0 0.22529 0 0 0 0 0.263502 0 0 0 0.07329 0"/>
<feBlend mode="normal" in2="BackgroundImageFix" result="effect1_dropShadow"/>
<feBlend mode="normal" in="SourceGraphic" in2="effect1_dropShadow" result="shape"/>
</filter>
<filter id="filter1_d" x="-610" y="-173" width="1557" height="195" filterUnits="userSpaceOnUse" color-interpolation-filters="sRGB">
<feFlood flood-opacity="0" result="BackgroundImageFix"/>
<feColorMatrix in="SourceAlpha" type="matrix" values="0 0 0 0 0 0 0 0 0 0 0 0 0 0 0 0 0 0 127 0"/>
<feOffset dy="2"/>
<feGaussianBlur stdDeviation="8"/>
<feColorMatrix type="matrix" values="0 0 0 0 0 0 0 0 0 0 0 0 0 0 0 0 0 0 0.2 0"/>
<feBlend mode="normal" in2="BackgroundImageFix" result="effect1_dropShadow"/>
<feBlend mode="normal" in="SourceGraphic" in2="effect1_dropShadow" result="shape"/>
</filter>
<filter id="filter2_d" x="-595" y="-161" width="1446" height="169" filterUnits="userSpaceOnUse" color-interpolation-filters="sRGB">
<feFlood flood-opacity="0" result="BackgroundImageFix"/>
<feColorMatrix in="SourceAlpha" type="matrix" values="0 0 0 0 0 0 0 0 0 0 0 0 0 0 0 0 0 0 127 0"/>
<feMorphology radius="1" operator="dilate" in="SourceAlpha" result="effect1_dropShadow"/>
<feOffset dx="2" dy="1"/>
<feGaussianBlur stdDeviation="1"/>
<feColorMatrix type="matrix" values="0 0 0 0 0 0 0 0 0 0 0 0 0 0 0 0 0 0 0.1 0"/>
<feBlend mode="normal" in2="BackgroundImageFix" result="effect1_dropShadow"/>
<feBlend mode="normal" in="SourceGraphic" in2="effect1_dropShadow" result="shape"/>
</filter>
<linearGradient id="paint0_linear" x1="297.655" y1="446.806" x2="461.755" y2="1073.72" gradientUnits="userSpaceOnUse">
<stop stop-color="white"/>
<stop offset="1" stop-color="white" stop-opacity="0.8"/>
</linearGradient>
<linearGradient id="paint1_linear" x1="225.163" y1="108.09" x2="157.956" y2="112.673" gradientUnits="userSpaceOnUse">
<stop stop-color="#00427A"/>
<stop offset="1" stop-color="#F7B97B"/>
</linearGradient>
<linearGradient id="paint2_linear" x1="178" y1="102" x2="178" y2="147" gradientUnits="userSpaceOnUse">
<stop stop-color="#FBB843"/>
<stop offset="1" stop-color="#F58220"/>
</linearGradient>
<linearGradient id="paint3_linear" x1="59" y1="111" x2="59" y2="148" gradientUnits="userSpaceOnUse">
<stop stop-color="#FBB843"/>
<stop offset="1" stop-color="#F58220"/>
</linearGradient>
<linearGradient id="paint4_linear" x1="111.429" y1="87.2095" x2="111.429" y2="170.741" gradientUnits="userSpaceOnUse">
<stop stop-color="#FF973E"/>
<stop offset="1" stop-color="#F58220"/>
</linearGradient>
<linearGradient id="paint5_linear" x1="-45.9127" y1="407.608" x2="319.305" y2="407.608" gradientUnits="userSpaceOnUse">
<stop stop-color="#7E9DB3"/>
<stop offset="1" stop-color="#5C719F"/>
</linearGradient>
<linearGradient id="paint6_linear" x1="32.8998" y1="-35.3758" x2="48.279" y2="163.825" gradientUnits="userSpaceOnUse">
<stop stop-color="#AAB2BA"/>
<stop offset="1" stop-color="#AAB2BA" stop-opacity="0.01"/>
</linearGradient>
<clipPath id="clip0">
<rect width="1440" height="890" fill="white" transform="translate(-594 -155)"/>
</clipPath>
<clipPath id="clip1">
<rect width="1525" height="163" fill="white" transform="translate(-594 -159)"/>
</clipPath>
<clipPath id="clip2">
<rect width="146" height="20" fill="white" transform="translate(153 122)"/>
</clipPath>
</defs>
</svg>
