<svg width="13" height="15" viewBox="0 0 13 15" fill="none" xmlns="http://www.w3.org/2000/svg">
<g opacity="0.599049">
<path fill-rule="evenodd" clip-rule="evenodd" d="M1.2689 3H8.7311C9.42801 3 9.99671 3.51526 10 4.14966V13.8503C10 14.4847 9.4313 15 8.7311 15H1.2689C0.568705 15 0 14.4847 0 13.8503V4.14966C0 3.51526 0.568705 3 1.2689 3ZM8.6291 14C8.83373 14 9 13.8509 9 13.6674V4.33257C9 4.14908 8.83373 4 8.6291 4H1.3709C1.16627 4 1 4.14908 1 4.33257V13.6674C1 13.8509 1.16627 14 1.3709 14H8.6291Z" fill="#8F97A0"/>
<path d="M11.8076 0H4.85863C4.20659 0 3.677 0.529592 3.677 1.18163C3.677 1.41122 3.86068 1.5949 4.09027 1.5949C4.31986 1.5949 4.50353 1.41122 4.50353 1.18163C4.50353 0.985714 4.66272 0.826531 4.85863 0.826531H11.8076C12.0035 0.826531 12.1627 0.985714 12.1627 1.18163V11.152C12.1627 11.348 12.0035 11.5071 11.8076 11.5071C11.578 11.5071 11.3943 11.6908 11.3943 11.9204C11.3943 12.15 11.578 12.3337 11.8076 12.3337C12.4597 12.3337 12.9892 11.8041 12.9892 11.152V1.18163C12.9892 0.529592 12.4597 0 11.8076 0Z" fill="#8F97A0"/>
</g>
</svg>
