<svg width="24" height="20" viewBox="0 0 24 20" fill="none" xmlns="http://www.w3.org/2000/svg">
<path fill-rule="evenodd" clip-rule="evenodd" d="M8.05186 10.9519H19.8341C21.0191 10.9519 21.9944 9.99406 21.9944 8.79167V2.16417C21.9944 0.971081 21.0292 0.00390625 19.8341 0.00390625H8.05186C6.85859 0.00390625 5.8916 0.969065 5.8916 2.16417V8.79167C5.89156 9.99745 6.8706 10.9519 8.05186 10.9519ZM7.26656 2.16417C7.26656 1.73109 7.61668 1.37891 8.05182 1.37891H19.8341C20.2689 1.37891 20.6193 1.73072 20.6193 2.16417V2.94943H7.26656V2.16417ZM20.6193 4.32443H7.2666V8.79167C7.2666 9.23084 7.62387 9.57693 8.05186 9.57693H19.8341C20.2636 9.57693 20.6193 9.22952 20.6193 8.79167V4.32443Z" fill="#003974"/>
<path fill-rule="evenodd" clip-rule="evenodd" d="M22.0846 12.0191C21.2454 11.6424 20.2587 11.794 19.571 12.4053C18.6139 13.2558 17.5923 14.1638 16.8384 14.834C16.808 13.6675 15.8547 12.7313 14.6789 12.7313H11.8298C11.688 12.6908 11.3938 12.6066 11.015 12.4986C9.80911 12.154 8.49145 12.3993 7.49013 13.1546C6.7205 13.7351 6.18924 14.5783 5.98464 15.5072L4.32053 15.0912V14.1552C4.32053 13.7755 4.01271 13.4677 3.63302 13.4677H0.6875C0.307817 13.4677 0 13.7755 0 14.1552V19.3099C0 19.6896 0.307817 19.9974 0.6875 19.9974H16.4043C17.3747 19.9974 18.2871 19.6195 18.9733 18.9334L23.2653 14.6414C23.3943 14.5124 23.4667 14.3368 23.4667 14.1545C23.4667 13.2346 22.9243 12.3965 22.0846 12.0191ZM2.94557 18.6224H1.375V14.8427H2.94557V18.6224ZM16.4043 18.6224C17.0075 18.6224 17.5745 18.3876 18.001 17.9611L22.0583 13.9038C21.9838 13.628 21.7892 13.3939 21.5212 13.2735C21.1753 13.1182 20.7682 13.1807 20.4843 13.4331C18.9061 14.8356 17.1528 16.3942 16.7128 16.7854L16.6111 16.8759C16.49 16.9846 16.3301 17.0511 16.1547 17.0519H16.1537H16.1527H16.1517H12.4697C12.0901 17.0519 11.7822 16.7441 11.7822 16.3644C11.7822 15.9847 12.0901 15.6769 12.4697 15.6769H15.4642V14.8916C15.4642 14.4585 15.1141 14.1063 14.6789 14.1063H11.7333C11.6693 14.1063 11.6056 14.0974 11.5441 14.0798L11.5314 14.0761C11.4623 14.0564 11.118 13.9578 10.6375 13.8207C9.84395 13.594 8.97696 13.7553 8.31811 14.2523C7.65939 14.7492 7.2661 15.5385 7.2661 16.3636C7.2661 16.5753 7.16856 16.7756 7.00168 16.9059C6.83485 17.0361 6.61723 17.0827 6.41185 17.0313L4.32057 16.5085V18.6224H16.4043Z" fill="#003974"/>
<path d="M16.8877 8.00586H18.3605C18.7401 8.00586 19.048 7.69804 19.048 7.31836C19.048 6.93868 18.7401 6.63086 18.3605 6.63086H16.8877C16.508 6.63086 16.2002 6.93868 16.2002 7.31836C16.2002 7.69804 16.508 8.00586 16.8877 8.00586Z" fill="#003974"/>
</svg>
