<?xml version="1.0" encoding="UTF-8"?>
<svg width="60px" height="60px" viewBox="0 0 60 60" version="1.1" xmlns="http://www.w3.org/2000/svg" xmlns:xlink="http://www.w3.org/1999/xlink">
    <!-- Generator: Sketch 53.2 (72643) - https://sketchapp.com -->
    <title>current-value</title>
    <desc>Created with Sketch.</desc>
    <g id="Page-1" stroke="none" stroke-width="1" fill="none" fill-rule="evenodd">
        <g id="current-value">
            <path d="M21.5093,22.3518 C21.5093,17.6133 25.3506,13.772 30.0891,13.772 C34.8276,13.772 38.6689,17.6133 38.6689,22.3518 C38.6635,27.088 34.8253,30.9262 30.0891,30.9316 C25.3506,30.9316 21.5093,27.0902 21.5093,22.3518 Z M22.5818,22.3518 C22.5818,26.498 25.9429,29.8591 30.0891,29.8591 C34.2333,29.8545 37.5917,26.496 37.5964,22.3518 C37.5964,18.2056 34.2353,14.8444 30.0891,14.8444 C25.9429,14.8444 22.5818,18.2056 22.5818,22.3518 Z" id="Shape" fill="#F78200"></path>
            <path d="M24.7267,21.8155 L25.7992,21.8155 C25.8018,19.4474 27.721,17.5283 30.0891,17.5256 L30.0891,16.4531 C27.1289,16.4565 24.73,18.8553 24.7267,21.8155 Z" id="Path" fill="#F78200" fill-rule="nonzero"></path>
            <path d="M46.1673,26.1879 L46.1763,35.6619 C46.2202,37.1451 45.5362,38.5561 44.3445,39.4402 L40.8139,41.688 L40.8139,42.3664 L40.8139,42.3667 C40.8138,42.6628 40.5737,42.9027 40.2776,42.9027 L34.9153,42.9027 L34.915,42.9027 C34.6189,42.9026 34.379,42.6625 34.379,42.3664 L34.379,37.0561 C34.3794,36.5245 34.638,36.0261 35.0724,35.7197 L39.1193,32.8736 C39.4911,32.611 39.9499,32.502 40.4002,32.5691 L41.7188,25.7834 C41.7953,24.6002 42.7447,23.6614 43.9287,23.5981 L44.0313,23.5981 C45.2478,23.5981 46.1658,24.7114 46.1673,26.1879 Z M39.9896,40.9412 L43.7574,38.5426 C44.6473,37.8581 45.1494,36.7842 45.1037,35.6623 L45.0948,26.1889 C45.0938,25.3232 44.6366,24.6705 44.0312,24.6705 L43.9286,24.6705 C43.2814,24.7554 42.7927,25.2991 42.7771,25.9516 L41.3946,33.073 C42.0836,33.7656 42.0822,34.8851 41.3914,35.5759 L37.942,38.4865 L37.2508,37.6664 L40.6667,34.7865 C40.7795,34.6586 40.8406,34.4933 40.8379,34.3228 C40.8379,34.1789 40.7935,34.0384 40.7107,33.9207 C40.4885,33.6046 40.0522,33.5285 39.7362,33.7507 L35.6898,36.5966 C35.5405,36.702 35.4516,36.8733 35.4515,37.0561 L35.4515,41.8302 L39.7414,41.8302 L39.7414,41.3937 C39.7415,41.2104 39.835,41.0398 39.9896,40.9412 Z" id="Shape" fill="#F78200"></path>
            <path d="M21.0589,32.8736 L25.1053,35.7195 C25.54,36.0259 25.7987,36.5243 25.7992,37.0562 L25.7992,42.3665 L25.7992,42.3667 C25.7991,42.6628 25.559,42.9028 25.2629,42.9027 L19.9005,42.9027 L19.9003,42.9027 C19.6042,42.9027 19.3642,42.6625 19.3643,42.3665 L19.3643,41.6881 L15.8447,39.4475 C14.6472,38.5641 13.9587,37.1499 14.0019,35.6624 L14.0108,26.1879 C14.0124,24.7114 14.9304,23.5981 16.1469,23.5981 L16.2495,23.5981 C17.4457,23.6671 18.3994,24.6234 18.4652,25.8198 L19.778,32.5691 C20.2282,32.5021 20.6869,32.6112 21.0589,32.8736 Z M20.4368,41.8302 L24.7267,41.8302 L24.7267,37.0561 C24.7265,36.8732 24.6375,36.7017 24.4878,36.5964 L20.442,33.7507 C20.175,33.563 19.8137,33.5848 19.5713,33.8032 C19.2843,34.0618 19.2612,34.5042 19.5198,34.7912 L23.4337,37.6432 L22.8022,38.5099 L18.85,35.6299 C18.8276,35.6136 18.8064,35.5955 18.7867,35.576 C18.096,34.8852 18.0946,33.7656 18.7835,33.0731 L17.4068,25.9881 C17.4007,25.3228 16.9084,24.7624 16.2495,24.6706 L16.1469,24.6706 C15.5415,24.6706 15.0844,25.3233 15.0833,26.1889 L15.0744,35.6629 C15.0295,36.7889 15.536,37.8661 16.4317,38.5499 L20.1886,40.9412 C20.3431,41.0398 20.4367,41.2104 20.4368,41.3937 L20.4368,41.8302 Z" id="Shape" fill="#F78200"></path>
            <path d="M32.8129,20.7531 C33.0349,20.7531 33.2151,20.573 33.2151,20.351 C33.2151,20.1289 33.0349,19.9488 32.8129,19.9488 L28.0559,19.9488 C27.8338,19.9488 27.6537,20.1289 27.6537,20.351 C27.6537,20.573 27.8338,20.7531 28.0559,20.7531 L29.4171,20.7531 C30.182,20.7531 30.8261,21.2224 31.0057,21.9597 L28.0559,21.9597 C27.8338,21.9597 27.6537,22.1398 27.6537,22.3619 C27.6537,22.5839 27.8338,22.764 28.0559,22.764 L31.0057,22.764 C30.8261,23.5014 30.182,23.9706 29.4171,23.9706 L28.0559,23.9706 C27.8891,23.9779 27.7424,24.0832 27.6825,24.239 C27.6225,24.3947 27.6608,24.5715 27.7796,24.6885 L31.1819,27.9073 C31.2589,27.9814 31.3621,28.0214 31.4689,28.0191 C31.5757,28.0164 31.677,27.9714 31.7504,27.8939 C31.903,27.7269 31.8957,27.4687 31.7344,27.3103 L29.0671,24.7749 L29.4171,24.7749 C30.6025,24.7802 31.6194,23.9313 31.8263,22.764 L32.8126,22.764 C33.0349,22.764 33.2148,22.5839 33.2148,22.3619 C33.2148,22.1398 33.0349,21.9597 32.8126,21.9597 L31.8266,21.9597 C31.7498,21.5075 31.5414,21.0878 31.2275,20.7531 L32.8129,20.7531 Z" id="Path" fill="#F78200" fill-rule="nonzero"></path>
            <path d="M30,1.75 L30,0.25 C13.5695,0.25 0.25,13.5695 0.25,30 L1.75,30 C1.75,14.398 14.398,1.75 30,1.75 Z M30,58.25 L30,59.75 C46.4305,59.75 59.75,46.4305 59.75,30 L58.25,30 C58.25,45.602 45.602,58.25 30,58.25 Z" id="Shape" fill="#F58220"></path>
            <path d="M31.2496,0.266499 L30.4997,0.254143 C30.3337,0.251408 30.1675,0.250035 30.0012,0.250029 L29.2512,0.25 L29.2511,1.75 L30.0011,1.75003 C30.1592,1.75004 30.3172,1.75134 30.475,1.75394 L31.2249,1.7663 L31.2496,0.266499 Z M35.464,0.75085 L36.2014,0.88776 L35.9276,2.36256 L35.1902,2.22565 C34.8712,2.16642 34.551,2.11267 34.2295,2.06441 L33.4878,1.95309 L33.7104,0.469703 L34.4521,0.581027 C34.7907,0.631851 35.1281,0.688472 35.464,0.75085 Z M41.1696,2.40789 L40.4676,2.14397 C40.1476,2.02367 39.8254,1.9089 39.5012,1.79971 L38.7905,1.56033 L38.3117,2.98187 L39.0225,3.22126 C39.3302,3.3249 39.636,3.43384 39.9397,3.54802 L40.6417,3.81195 L41.1696,2.40789 Z M45.1324,4.38081 L45.7778,4.76283 L45.0138,6.05366 L44.3683,5.67163 C44.0889,5.50624 43.8067,5.34568 43.5217,5.19003 L42.8635,4.83051 L43.5825,3.51408 L44.2407,3.87359 C44.5409,4.03753 44.8381,4.20663 45.1324,4.38081 Z M49.8987,7.87139 L49.3288,7.38385 C49.069,7.16162 48.8055,6.94386 48.5382,6.73068 L47.9519,6.26298 L47.0165,7.43559 L47.6028,7.90329 C47.8566,8.10578 48.107,8.31262 48.3538,8.5237 L48.9237,9.01123 L49.8987,7.87139 Z M52.8877,10.9932 L53.3672,11.57 L52.2137,12.5289 L51.7343,11.9521 C51.5267,11.7024 51.3148,11.4562 51.0987,11.2138 L50.5998,10.6538 L51.7197,9.6559 L52.2186,10.2159 C52.4461,10.4711 52.6692,10.7303 52.8877,10.9932 Z M56.2146,15.9019 L55.8422,15.2509 C55.6723,14.9538 55.4973,14.6597 55.3173,14.3688 L54.9227,13.731 L53.6471,14.5202 L54.0417,15.158 C54.2126,15.4343 54.3788,15.7135 54.5401,15.9956 L54.9125,16.6466 L56.2146,15.9019 Z M57.9888,19.8926 L58.2436,20.598 L56.8328,21.1076 L56.578,20.4022 C56.4677,20.0969 56.3522,19.7937 56.2315,19.4926 L55.9524,18.7965 L57.3447,18.2383 L57.6238,18.9344 C57.7509,19.2516 57.8726,19.571 57.9888,19.8926 Z M59.4408,25.6298 L59.3128,24.8908 C59.2544,24.5535 59.1903,24.2175 59.1203,23.8831 L58.9669,23.149 L57.4986,23.4559 L57.6521,24.19 C57.7184,24.5075 57.7794,24.8264 57.8348,25.1466 L57.9627,25.8856 L59.4408,25.6298 Z M59.75,30 L59.75,30.75 L58.25,30.75 L58.25,30 C58.25,29.6743 58.2445,29.3493 58.2335,29.0251 L58.2081,28.2755 L59.7072,28.2247 L59.7326,28.9742 C59.7442,29.3154 59.75,29.6574 59.75,30 Z M0.25,29.25 L0.25,30 C0.25,30.3427 0.255795,30.6846 0.267361,31.0258 L0.292771,31.7754 L1.79191,31.7246 L1.7665,30.975 C1.75551,30.6507 1.75,30.3257 1.75,30 L1.75,29.25 L0.25,29.25 Z M0.559249,34.3703 L0.68718,35.1093 C0.745571,35.4466 0.809742,35.7825 0.879651,36.117 L1.0331,36.8511 L2.50137,36.5442 L2.34792,35.8101 C2.28155,35.4926 2.22063,35.1736 2.1652,34.8534 L2.03727,34.1144 L0.559249,34.3703 Z M2.01121,40.1074 L1.75643,39.4021 L3.16722,38.8925 L3.422,39.5979 C3.53226,39.9031 3.64778,40.2064 3.76849,40.5074 L4.04759,41.2036 L2.65533,41.7618 L2.37622,41.0657 C2.24906,40.7485 2.12736,40.429 2.01121,40.1074 Z M3.78542,44.0981 L4.15778,44.7492 C4.32767,45.0462 4.50268,45.3403 4.68271,45.6313 L5.07732,46.2691 L6.35291,45.4799 L5.95831,44.8421 C5.78735,44.5658 5.62117,44.2865 5.45985,44.0045 L5.0875,43.3534 L3.78542,44.0981 Z M7.11226,49.0068 L6.6328,48.4301 L7.78627,47.4712 L8.26573,48.0479 C8.47334,48.2977 8.68523,48.5438 8.90129,48.7863 L9.40024,49.3463 L8.28033,50.3442 L7.78138,49.7842 C7.55391,49.5289 7.33084,49.2698 7.11226,49.0068 Z M10.1013,52.1287 L10.6712,52.6162 C10.931,52.8384 11.1945,53.0562 11.4618,53.2694 L12.0481,53.7371 L12.9835,52.5645 L12.3972,52.0968 C12.1434,51.8943 11.893,51.6874 11.6462,51.4764 L11.0763,50.9888 L10.1013,52.1287 Z M14.8676,55.6193 L14.2222,55.2372 L14.9862,53.9464 L15.6317,54.3284 C15.9111,54.4938 16.1933,54.6544 16.4783,54.81 L17.1365,55.1695 L16.4175,56.486 L15.7593,56.1265 C15.4591,55.9625 15.1619,55.7934 14.8676,55.6193 Z M18.8304,57.5922 L19.5324,57.8561 C19.8524,57.9764 20.1746,58.0912 20.4988,58.2003 L21.2095,58.4397 L21.6883,57.0182 L20.9775,56.7788 C20.6698,56.6752 20.364,56.5662 20.0603,56.452 L19.3583,56.1881 L18.8304,57.5922 Z M24.536,59.2492 L23.7986,59.1123 L24.0724,57.6375 L24.8098,57.7744 C25.1288,57.8336 25.449,57.8874 25.7705,57.9356 L26.5122,58.047 L26.2896,59.5304 L25.5479,59.419 C25.2093,59.3682 24.8719,59.3116 24.536,59.2492 Z M28.7504,59.7336 L29.5003,59.7459 C29.6663,59.7487 29.8325,59.75 29.9988,59.75 L30.7488,59.7501 L30.7489,58.2501 L29.9989,58.25 C29.8408,58.25 29.6828,58.2487 29.525,58.2461 L28.7751,58.2338 L28.7504,59.7336 Z" id="Shape" fill="#F58220"></path>
        </g>
    </g>
</svg>