<?xml version="1.0" encoding="UTF-8"?>
<svg width="32px" height="22px" viewBox="0 0 32 22" version="1.1" xmlns="http://www.w3.org/2000/svg" xmlns:xlink="http://www.w3.org/1999/xlink">
    <!-- Generator: Sketch 53.2 (72643) - https://sketchapp.com -->
    <title>Group 34</title>
    <desc>Created with Sketch.</desc>
    <g id="Page-1" stroke="none" stroke-width="1" fill="none" fill-rule="evenodd">
        <g id="Dashboard---V1---menu-open" transform="translate(-253.000000, -74.000000)">
            <g id="Group-34" transform="translate(253.000000, 74.000000)">
                <path d="M28.3904344,9.48804301 L31.350122,13.1876525 C31.5226268,13.4032834 31.4876661,13.7179296 31.2720351,13.8904344 C31.1833786,13.9613596 31.0732233,14 30.9596876,14 L25.0403124,14 C24.76417,14 24.5403124,13.7761424 24.5403124,13.5 C24.5403124,13.3864643 24.5789528,13.276309 24.649878,13.1876525 L27.6095656,9.48804301 C27.7820704,9.27241204 28.0967166,9.23745135 28.3123475,9.40995612 C28.3411799,9.43302201 28.3673685,9.45921065 28.3904344,9.48804301 Z" id="Triangle" fill="#F58220" transform="translate(28.000000, 11.500000) rotate(-180.000000) translate(-28.000000, -11.500000) "></path>
                <g id="Group-5">
                    <circle id="Oval" fill="#003974" cx="11" cy="11" r="11"></circle>
                    <g id="user-(41)" transform="translate(5.500000, 4.714286)" fill="#FFFFFF" fill-rule="nonzero">
                        <path d="M5.83673469,6.27823129 C2.14013605,6.27823129 0.104761905,8.0292517 0.104761905,11.2020408 C0.104761905,11.4564626 0.299319728,11.6510204 0.553741497,11.6510204 L11.1197279,11.6510204 C11.3741497,11.6510204 11.5687075,11.4564626 11.5687075,11.2020408 C11.5687075,8.0292517 9.53333333,6.27823129 5.83673469,6.27823129 Z" id="Shape"></path>
                        <path d="M5.83673469,6.40544218 C7.4829932,6.40544218 8.81496599,4.9537415 8.81496599,3.17278912 C8.81496599,1.43673469 7.52789116,0.134693878 5.83673469,0.134693878 C4.14557823,0.134693878 2.8585034,1.43673469 2.8585034,3.17278912 C2.8585034,4.9537415 4.19047619,6.40544218 5.83673469,6.40544218 Z" id="Shape"></path>
                    </g>
                </g>
            </g>
        </g>
    </g>
</svg>