<svg width="18" height="18" viewBox="0 0 18 18" fill="none" xmlns="http://www.w3.org/2000/svg">
<path d="M6.17578 3.87891H9.56479C9.85606 3.87891 10.0921 3.64284 10.0921 3.35156C10.0921 3.06042 9.85606 2.82422 9.56479 2.82422H6.17578C5.88451 2.82422 5.64844 3.06042 5.64844 3.35156C5.64844 3.64284 5.88451 3.87891 6.17578 3.87891Z" fill="#F78200"/>
<path d="M5.0459 6.70312H10.6944C10.9857 6.70312 11.2217 6.46692 11.2217 6.17578C11.2217 5.88451 10.9857 5.64844 10.6944 5.64844H5.0459C4.75476 5.64844 4.51855 5.88451 4.51855 6.17578C4.51855 6.46692 4.75476 6.70312 5.0459 6.70312Z" fill="#F78200"/>
<path d="M5.0459 8.96094H10.6944C10.9857 8.96094 11.2217 8.72487 11.2217 8.43359C11.2217 8.14232 10.9857 7.90625 10.6944 7.90625H5.0459C4.75476 7.90625 4.51855 8.14232 4.51855 8.43359C4.51855 8.72487 4.75476 8.96094 5.0459 8.96094Z" fill="#F78200"/>
<path d="M5.0459 11.2227H10.6944C10.9857 11.2227 11.2217 10.9866 11.2217 10.6953C11.2217 10.404 10.9857 10.168 10.6944 10.168H5.0459C4.75476 10.168 4.51855 10.404 4.51855 10.6953C4.51855 10.9866 4.75476 11.2227 5.0459 11.2227Z" fill="#F78200"/>
<path d="M10.6947 12.4258H10.1299C9.83875 12.4258 9.60254 12.6618 9.60254 12.9531C9.60254 13.2443 9.83875 13.4805 10.1299 13.4805H10.6947C10.986 13.4805 11.2221 13.2443 11.2221 12.9531C11.2221 12.6618 10.986 12.4258 10.6947 12.4258Z" fill="#F78200"/>
<path d="M7.8705 12.4258H7.30566C7.01439 12.4258 6.77832 12.6618 6.77832 12.9531C6.77832 13.2443 7.01439 13.4805 7.30566 13.4805H7.8705C8.16164 13.4805 8.39784 13.2443 8.39784 12.9531C8.39784 12.6618 8.16164 12.4258 7.8705 12.4258Z" fill="#F78200"/>
<path fill-rule="evenodd" clip-rule="evenodd" d="M13.4812 14.686H15.2133C15.5046 14.686 15.7407 14.922 15.7407 15.2133V16.343C15.7407 17.2566 14.9973 18 14.0836 18H3.91635C2.99968 18 2.25934 17.258 2.25934 16.343V3.31403H0.527344C0.236069 3.31403 0 3.07796 0 2.78668V1.65701C0 0.743362 0.743362 0 1.65701 0H11.8242C12.7378 0 13.4813 0.743362 13.4812 1.65701V14.686ZM1.65701 1.05469C1.32495 1.05469 1.05469 1.32495 1.05469 1.65701V2.25934H2.25934V1.65701C2.25934 1.32495 1.98921 1.05469 1.65701 1.05469ZM3.20169 1.05469H11.8242C12.1564 1.05469 12.4266 1.32495 12.4266 1.65701V14.686H5.04602C4.75488 14.686 4.51868 14.922 4.51868 15.2133V16.343C4.51868 16.675 4.24855 16.9453 3.91635 16.9453C3.58374 16.9453 3.31403 16.6761 3.31403 16.343V1.65701C3.31403 1.44759 3.27544 1.24406 3.20169 1.05469ZM14.0835 16.9453C14.4157 16.9453 14.686 16.675 14.686 16.343V15.7407H5.5735V16.343C5.5735 16.5554 5.53285 16.7584 5.45966 16.9453H14.0835Z" fill="#F78200"/>
<path fill-rule="evenodd" clip-rule="evenodd" d="M16.7154 0.154495L17.8451 1.28416C17.9441 1.38304 17.9996 1.51721 17.9996 1.65701V9C17.9996 9.1398 17.9441 9.27397 17.8451 9.37285L16.8699 10.3482V12.389C16.8699 12.6803 16.6337 12.9164 16.3426 12.9164C16.0513 12.9164 15.8152 12.6803 15.8152 12.389V10.3482L14.84 9.37285C14.741 9.27397 14.6855 9.1398 14.6855 9V1.65701C14.6855 1.51721 14.741 1.38304 14.84 1.28416L15.9697 0.154495C16.0685 0.0556183 16.2026 0 16.3426 0C16.4824 0 16.6165 0.0554809 16.7154 0.154495ZM16.3426 9.38397L16.9449 8.78151V1.8755L16.3426 1.27318L15.7402 1.8755V8.78151L16.3426 9.38397Z" fill="#F78200"/>
</svg>
