<svg width="18" height="18" viewBox="0 0 18 18" fill="none" xmlns="http://www.w3.org/2000/svg">
<path d="M6.17578 3.87886H9.56479C9.85606 3.87886 10.0921 3.64279 10.0921 3.35152C10.0921 3.06038 9.85606 2.82417 9.56479 2.82417H6.17578C5.88451 2.82417 5.64844 3.06038 5.64844 3.35152C5.64844 3.64279 5.88451 3.87886 6.17578 3.87886Z" fill="#F78200"/>
<path d="M5.0459 6.70317H10.6944C10.9857 6.70317 11.2217 6.46696 11.2217 6.17583C11.2217 5.88455 10.9857 5.64848 10.6944 5.64848H5.0459C4.75476 5.64848 4.51855 5.88455 4.51855 6.17583C4.51855 6.46696 4.75476 6.70317 5.0459 6.70317Z" fill="#F78200"/>
<path d="M5.0459 8.96251H10.6944C10.9857 8.96251 11.2217 8.72644 11.2217 8.43517C11.2217 8.14389 10.9857 7.90782 10.6944 7.90782H5.0459C4.75476 7.90782 4.51855 8.14389 4.51855 8.43517C4.51855 8.72644 4.75476 8.96251 5.0459 8.96251Z" fill="#F78200"/>
<path d="M5.0459 11.2218H10.6944C10.9857 11.2218 11.2217 10.9858 11.2217 10.6945C11.2217 10.4032 10.9857 10.1672 10.6944 10.1672H5.0459C4.75476 10.1672 4.51855 10.4032 4.51855 10.6945C4.51855 10.9858 4.75476 11.2218 5.0459 11.2218Z" fill="#F78200"/>
<path d="M10.6945 12.4266H10.1296C9.8385 12.4266 9.60229 12.6627 9.60229 12.954C9.60229 13.2451 9.8385 13.4813 10.1296 13.4813H10.6945C10.9857 13.4813 11.2218 13.2451 11.2218 12.954C11.2218 12.6627 10.9857 12.4266 10.6945 12.4266Z" fill="#F78200"/>
<path d="M7.87025 12.4266H7.30542C7.01414 12.4266 6.77808 12.6627 6.77808 12.954C6.77808 13.2451 7.01414 13.4813 7.30542 13.4813H7.87025C8.16139 13.4813 8.3976 13.2451 8.3976 12.954C8.3976 12.6627 8.16139 12.4266 7.87025 12.4266Z" fill="#F78200"/>
<path fill-rule="evenodd" clip-rule="evenodd" d="M13.4812 14.686H15.2133C15.5046 14.686 15.7407 14.922 15.7407 15.2133V16.343C15.7407 17.2566 14.9973 18 14.0836 18H3.91635C2.99968 18 2.25934 17.258 2.25934 16.343V3.31403H0.527344C0.236069 3.31403 0 3.07796 0 2.78668V1.65701C0 0.743362 0.743362 0 1.65701 0H11.8242C12.7378 0 13.4813 0.743362 13.4812 1.65701V14.686ZM1.65701 1.05469C1.32495 1.05469 1.05469 1.32495 1.05469 1.65701V2.25934H2.25934V1.65701C2.25934 1.32495 1.98921 1.05469 1.65701 1.05469ZM3.20169 1.05469H11.8242C12.1564 1.05469 12.4266 1.32495 12.4266 1.65701V14.686H5.04602C4.75488 14.686 4.51868 14.922 4.51868 15.2133V16.343C4.51868 16.675 4.24855 16.9453 3.91635 16.9453C3.58374 16.9453 3.31403 16.6761 3.31403 16.343V1.65701C3.31403 1.44759 3.27544 1.24406 3.20169 1.05469ZM14.0835 16.9453C14.4157 16.9453 14.686 16.675 14.686 16.343V15.7407H5.5735V16.343C5.5735 16.5554 5.53285 16.7584 5.45966 16.9453H14.0835Z" fill="#F78200"/>
<path fill-rule="evenodd" clip-rule="evenodd" d="M16.7159 0.154495L17.8456 1.28416C17.9446 1.38304 18.0001 1.51721 18.0001 1.65701V9C18.0001 9.1398 17.9446 9.27397 17.8456 9.37285L16.8704 10.3482V12.389C16.8704 12.6803 16.6342 12.9164 16.343 12.9164C16.0518 12.9164 15.8157 12.6803 15.8157 12.389V10.3482L14.8405 9.37285C14.7415 9.27397 14.686 9.1398 14.686 9V1.65701C14.686 1.51721 14.7415 1.38304 14.8405 1.28416L15.9702 0.154495C16.0689 0.0556183 16.2031 0 16.343 0C16.4828 0 16.617 0.0554809 16.7159 0.154495ZM16.343 9.38397L16.9454 8.78151V1.8755L16.343 1.27318L15.7407 1.8755V8.78151L16.343 9.38397Z" fill="#F78200"/>
</svg>
