<svg width="13" height="13" viewBox="0 0 13 13" fill="none" xmlns="http://www.w3.org/2000/svg">
<path d="M8.59257 12.8341H3.65667C2.29584 12.8341 1.18872 11.727 1.18872 10.3662V2.46875H2.1759V10.3662C2.1759 11.1828 2.84003 11.847 3.65667 11.847H8.59257C9.40921 11.847 10.0733 11.1828 10.0733 10.3662V2.46875H11.0605V10.3662C11.0605 11.727 9.95339 12.8341 8.59257 12.8341Z" fill="#456173"/>
<path d="M4.64392 2.46795H3.65674V1.48077C3.65674 0.664125 4.32086 0 5.13751 0H7.11187C7.92851 0 8.59264 0.664125 8.59264 1.48077V2.38577H7.60546V1.48077C7.60546 1.20855 7.38433 0.987179 7.11187 0.987179H5.13751C4.86505 0.987179 4.64392 1.20855 4.64392 1.48077V2.46795Z" fill="#456173"/>
<path d="M11.5542 2.95984H0.69525C0.422542 2.95984 0.20166 2.73871 0.20166 2.46625C0.20166 2.19378 0.422542 1.97266 0.69525 1.97266H11.5542C11.8269 1.97266 12.0478 2.19378 12.0478 2.46625C12.0478 2.73871 11.8269 2.95984 11.5542 2.95984Z" fill="#456173"/>
<path d="M6.12469 9.8734C5.85198 9.8734 5.6311 9.65227 5.6311 9.37981V5.43109C5.6311 5.15863 5.85198 4.9375 6.12469 4.9375C6.3974 4.9375 6.61828 5.15863 6.61828 5.43109V9.37981C6.61828 9.65227 6.3974 9.8734 6.12469 9.8734Z" fill="#456173"/>
<path d="M4.15033 9.8734C3.87762 9.8734 3.65674 9.65227 3.65674 9.37981V5.43109C3.65674 5.15863 3.87762 4.9375 4.15033 4.9375C4.42304 4.9375 4.64392 5.15863 4.64392 5.43109V9.37981C4.64392 9.65227 4.42304 9.8734 4.15033 9.8734Z" fill="#456173"/>
<path d="M8.09906 9.8734C7.82635 9.8734 7.60547 9.65227 7.60547 9.37981V5.43109C7.60547 5.15863 7.82635 4.9375 8.09906 4.9375C8.37177 4.9375 8.59265 5.15863 8.59265 5.43109V9.37981C8.59265 9.65227 8.37177 9.8734 8.09906 9.8734Z" fill="#456173"/>
</svg>
