<?xml version="1.0" encoding="UTF-8"?>
<svg width="202px" height="161px" viewBox="0 0 202 161" version="1.1" xmlns="http://www.w3.org/2000/svg" xmlns:xlink="http://www.w3.org/1999/xlink">
    <!-- Generator: Sketch 53.2 (72643) - https://sketchapp.com -->
    <title>Group</title>
    <desc>Created with Sketch.</desc>
    <defs>
        <rect id="path-1" x="0.22132983" y="0.646371417" width="201" height="160"></rect>
    </defs>
    <g id="Page-1" stroke="none" stroke-width="1" fill="none" fill-rule="evenodd">
        <g id="18.01-My-folios" transform="translate(-230.000000, -539.000000)">
            <g id="Group" transform="translate(230.000000, 539.000000)">
                <g id="Rectangle-Copy-3-+-8432-copy-Mask">
                    <mask id="mask-2" fill="white">
                        <use xlink:href="#path-1"></use>
                    </mask>
                    <use id="Mask" fill="#F5F7F9" xlink:href="#path-1"></use>
                    <g id="8432-copy" style="mix-blend-mode: luminosity;" mask="url(#mask-2)">
                        <g transform="translate(0.221330, 38.646371)">
                            <path d="M56.2523615,0.217469388 C86.8492128,-1.55195335 118.929446,7.66474636 114.213411,21.0253294 C111.485248,28.7549388 120.351953,25.9523965 130.622974,23.1498542 C138.104956,21.1081749 146.332828,19.0665656 151.365831,21.0967697 C159.867988,24.5262507 156.469504,34.9662507 160.58309,39.1729679 C165.567813,44.2713936 170.613411,43.2810962 176.034752,42.2907988 C180.869738,41.4076268 186.004198,40.5244548 191.662041,43.9598834 C203.665539,51.2474869 198.674519,119.398251 193.787055,119.388455 L8.68618076,119.050496 L6.47139359,119.122566 C6.47139359,119.122566 -7.10358017,99.5454227 5.18525948,88.1142857 C17.4741691,76.682449 9.03652478,71.4556268 7.54306706,67.0376676 C5.82829155,61.9647813 1.82721866,53.1051429 19.2603848,46.6034519 C36.693481,40.101691 32.1922566,25.9551953 31.7636152,23.0258659 C31.3349738,20.0965364 25.6553703,1.98682216 56.2523615,0.217469388" id="Fill-2" fill-opacity="0.145869755" fill="#F78200"></path>
                            <path d="M164.588222,35.5499475 L158.729563,35.5499475 C157.395918,30.6347055 157.960583,23.7568513 151.365831,21.0967697 C151.107638,20.9925831 150.84105,20.8990321 150.566064,20.8157668 L150.566064,10.53607 L164.588222,10.53607 L164.588222,35.5499475" id="Fill-3" fill="#C3DAFB"></path>
                            <path d="M150.566064,119.069388 L150.566064,20.8157668 C150.84105,20.8990321 151.107638,20.9925831 151.365831,21.0967697 C157.960583,23.7568513 157.395918,30.6347055 158.729563,35.5499475 L150.566064,35.5499475 L150.566064,119.069388" id="Fill-4" fill="#BBD9FA"></path>
                            <polyline id="Fill-5" fill="#BBD9FA" points="130.984023 119.069388 130.984023 43.6412362 145.005481 43.6412362 145.005481 61.0250729 130.984023 61.0250729 130.984023 119.069388"></polyline>
                            <path d="M170.430087,43.0712536 L170.430087,34.0508222 L184.452245,34.0508222 L184.452245,41.563102 C183.895977,41.5140525 183.345306,41.4920117 182.798834,41.4920117 C180.468805,41.4920117 178.221341,41.8914052 176.034752,42.2907988 C174.124548,42.6397434 172.260525,42.988688 170.430087,43.0712536" id="Fill-6" fill="#C3DAFB"></path>
                            <path d="M170.430087,119.069388 L170.430087,43.0712536 C172.260525,42.988688 174.124548,42.6397434 176.034752,42.2907988 C178.221341,41.8914052 180.468805,41.4920117 182.798834,41.4920117 C183.345306,41.4920117 183.895977,41.5140525 184.452245,41.563102 L184.452245,53.6451778 L170.430087,53.6451778 L170.430087,119.069388" id="Fill-7" fill="#BBD9FA"></path>
                            <polyline id="Fill-8" fill="#BBD9FA" points="111.401283 119.069388 111.401283 30.7072653 125.42344 30.7072653 125.42344 51.0722099 111.401283 51.0722099 111.401283 119.069388"></polyline>
                            <polyline id="Fill-9" fill="#BBD9FA" points="91.819242 119.069388 91.819242 56.9061691 105.841399 56.9061691 105.841399 71.2331195 91.819242 71.2331195 91.819242 119.069388"></polyline>
                            <path d="M164.588222,42.0673819 C163.244781,41.4582157 161.911837,40.5318717 160.58309,39.1729679 C159.660175,38.2291312 159.115102,36.9717551 158.729563,35.5499475 L164.588222,35.5499475 L164.588222,42.0673819" id="Fill-10" fill="#ACCAF9"></path>
                            <path d="M164.588222,119.069388 L150.566064,119.069388 L150.566064,35.5499475 L158.729563,35.5499475 C159.115102,36.9717551 159.660175,38.2291312 160.58309,39.1729679 C161.911837,40.5318717 163.244781,41.4582157 164.588222,42.0673819 L164.588222,119.069388" id="Fill-11" fill="#A5C9F8"></path>
                            <polygon id="Fill-12" fill="#A5C9F8" points="130.984023 119.069388 145.005481 119.069388 145.005481 61.0250729 130.984023 61.0250729"></polygon>
                            <polygon id="Fill-13" fill="#A5C9F8" points="170.430087 119.069388 184.452245 119.069388 184.452245 53.6451778 170.430087 53.6451778"></polygon>
                            <polygon id="Fill-14" fill="#A5C9F8" points="111.401283 119.069388 125.42344 119.069388 125.42344 51.0722099 111.401283 51.0722099"></polygon>
                            <polygon id="Fill-15" fill="#A5C9F8" points="91.819242 119.069388 105.841399 119.069388 105.841399 71.2331195 91.819242 71.2331195"></polygon>
                            <polyline id="Fill-16" fill="#F78200" points="191.267405 11.3665539 180.094461 19.816723 184.356385 20.0884898 157.684898 67.0299708 142.916851 44.889586 122.026356 93.6181924 108.589155 74.5322449 91.8409329 98.2068805 92.8946939 102.444315 108.581458 80.3769096 122.785539 100.551603 143.599767 52.0017026 157.928397 73.4840816 187.456793 21.5140058 190.198251 24.4622274 191.267405 11.3665539"></polyline>
                            <path d="M79.0663557,87.6867638 C63.0325364,74.918484 49.5604898,58.4041749 39.36,39.0131545 C32.0089329,44.918344 24.6578659,50.8235335 17.3068688,56.7285831 C29.1008746,79.1489213 44.6775044,98.2432653 63.2158601,113.005714 C68.4993586,104.565831 73.7828571,96.1266472 79.0663557,87.6867638" id="Fill-17" fill="#3C8F7C"></path>
                            <path d="M35.9069388,43.6432653 C31.3406414,47.3699825 26.774344,51.0966997 22.2080466,54.8234869 C23.2954636,56.8508222 22.900898,59.5857726 21.280863,60.9732945 C31.648793,79.305656 44.642449,95.2338192 59.7732245,108.158834 C61.010379,106.301808 63.3418076,105.941458 65.0176093,107.300991 C68.3489213,102.060875 71.6809329,96.8200583 75.0122449,91.5799417 C73.4700875,90.328863 73.250379,87.7714286 74.4867638,85.9158017 C61.1993703,74.5658309 49.7889446,60.5786589 40.6843382,44.4800466 C39.0654927,45.866519 36.9078017,45.508758 35.9069388,43.6432653" id="Fill-18" fill="#96D9C9"></path>
                            <path d="M54.3606997,85.5512536 C57.7840933,81.1332945 57.7513469,74.6155102 54.5220525,70.716035 C51.2840117,66.8270554 45.7517668,66.6444315 41.9245714,70.5760933 C38.1035335,74.4993586 37.7383557,81.4733528 41.378519,85.8521283 C45.0145539,90.2358017 50.9443732,89.9622157 54.3606997,85.5512536" id="Fill-19" fill="#50BFA5"></path>
                            <path d="M54.1339942,73.0138776 C53.7038834,73.4917784 53.2736327,73.9689796 52.843312,74.4461808 C53.8724431,76.3325948 53.6546239,78.2819825 52.5450262,79.5561516 C51.424863,80.8380175 50.1705656,80.9569679 48.2584723,79.8241399 C46.8698309,79.0397668 46.202379,78.8081633 45.7792653,79.2664723 C45.4212245,79.6534111 45.3026239,80.3559184 46.0613878,81.3152187 C46.4737259,81.8358017 46.8855044,82.1835569 47.2501224,82.4284548 C47.73607,82.7552187 47.889586,83.4934111 47.5901808,84.0615743 C47.3005015,84.6101458 46.6888863,84.79207 46.2205015,84.458309 C45.837691,84.1854227 45.4195452,83.8131778 44.9683732,83.2960933 C44.5961983,83.7075219 44.2240233,84.117551 43.8517085,84.5282799 C43.4619009,84.0398834 43.0743324,83.5479883 42.6892828,83.0546939 C43.094484,82.615277 43.4996152,82.1765598 43.9046764,81.7371429 C42.9217259,79.8388338 43.1170845,77.9510204 44.2580292,76.7538192 C45.5173644,75.4313703 46.9735977,75.8379009 48.6428921,76.8846647 C49.8004198,77.6067638 50.4713703,77.7208163 50.9508805,77.1876385 C51.4562099,76.6243732 51.2917085,75.7658309 50.6550437,74.9541691 C50.2177959,74.3965015 49.7108571,73.9717784 49.2108455,73.6569096 C48.7196501,73.3469388 48.5860758,72.5905539 48.9164082,72.0251895 C48.9284431,72.0041983 48.9404082,71.983207 48.9524431,71.9629155 C49.2521983,71.4493294 49.8247697,71.2758017 50.2613878,71.5605831 C50.7849096,71.9020408 51.3481749,72.3904373 51.8455277,72.9697959 C52.2496093,72.5296793 52.653691,72.088863 53.0575627,71.6480466 C53.4141341,72.105656 53.7730146,72.5611662 54.1339942,73.0138776" id="Fill-20" fill="#3C8F7C"></path>
                            <path d="M66.9928863,96.9201166 C63.3390087,93.7910204 59.8179359,90.4758017 56.4380641,86.9835569 C55.8588455,87.7364431 55.2796968,88.4900292 54.7004781,89.2429155 C58.1277201,92.7841399 61.6981924,96.1462391 65.4031487,99.3187172 C65.932828,98.5189504 66.4625073,97.7191837 66.9928863,96.9201166" id="Fill-21" fill="#50BFA5"></path>
                            <path d="M75.7973178,82.5390087 C55.6577493,79.9843732 35.9067289,73.2461808 17.5843032,62.6791837 C14.1010845,70.8398834 10.6178659,79.0012828 7.13464723,87.1619825 C28.3195102,99.3802915 51.156105,107.171545 74.4419825,110.124315 C74.8932945,100.929446 75.3453061,91.7338776 75.7973178,82.5390087" id="Fill-22" fill="#3C8F7C"></path>
                            <path d="M16.8557668,67.9857726 C14.7206764,73.1020408 12.5857259,78.2176093 10.4506356,83.3338776 C12.3844198,84.4289213 13.379895,86.7855394 12.6542974,88.6523615 C30.6042682,98.3006414 49.6540408,104.799534 69.0871137,107.90484 C69.2515452,105.846297 71.0959767,104.458776 73.2132945,104.745656 C73.5379592,99.0115452 73.8626239,93.2781341 74.1872886,87.544723 C72.2393003,87.2802332 70.7979009,85.3553353 70.9623324,83.2981924 C53.8966531,80.5714286 37.1680933,74.8639067 21.4052711,66.3918367 C20.6803032,68.2572595 18.6354052,68.9933528 16.8557668,67.9857726" id="Fill-23" fill="#96D9C9"></path>
                            <path d="M53.3416443,92.5217493 C54.1481983,87.3977843 50.9325481,82.2402332 46.2272886,80.6721866 C41.5193003,79.1167347 36.6351953,81.5860058 35.2408863,86.5154519 C33.8480466,91.435102 36.9418776,97.1426239 42.2377609,98.896793 C47.5323848,100.657259 52.5378192,97.6373178 53.3416443,92.5217493" id="Fill-24" fill="#50BFA5"></path>
                            <path d="M47.0144606,82.6789504 C46.8752187,83.2618076 46.7359067,83.843965 46.5963848,84.4261224 C48.4107988,85.4365015 49.1751603,87.086414 48.8364315,88.6222741 C48.4927347,90.1693294 47.4636735,90.8564431 45.2526647,90.8613411 C43.665586,90.8949271 42.9738542,91.0264723 42.8314636,91.5904373 C42.710344,92.0669388 42.9511137,92.6805831 44.0777843,93.0829155 C44.6895394,93.3012245 45.2164198,93.3823907 45.6522682,93.4047813 C46.2332362,93.4341691 46.7272303,93.9477551 46.7453528,94.5397085 C46.7626356,95.11207 46.3217493,95.5458892 45.7525364,95.5018076 C45.2873003,95.4668222 44.7429271,95.368863 44.0991254,95.1715452 C43.977516,95.6739359 43.8556968,96.1756268 43.7338776,96.6773178 C43.1569679,96.4737026 42.580898,96.2665889 42.0056676,96.0573761 C42.1421808,95.5172012 42.278484,94.9770262 42.4147872,94.4368513 C40.634519,93.3949854 39.8810029,91.8052478 40.2843149,90.3155685 C40.7289096,88.6705539 42.189691,88.3046064 44.1484548,88.3465889 C45.5048397,88.3724781 46.1420641,88.1457726 46.2967697,87.4957434 C46.459172,86.8100292 45.8967464,86.2061808 44.9480816,85.8633236 C44.2964431,85.6275219 43.6494227,85.5295627 43.0620875,85.5162682 C42.4851079,85.5029738 41.9993003,84.9655977 42.0089563,84.3603499 C42.0093061,84.3386589 42.009656,84.3162682 42.0099359,84.2945773 C42.0186822,83.7453061 42.4297609,83.3366764 42.9475452,83.3562682 C43.5683965,83.3800583 44.2951137,83.5011079 45.009656,83.7257143 C45.1444898,83.1855394 45.2792536,82.6446647 45.4138776,82.1044898 C45.9465656,82.2990087 46.4801633,82.4900292 47.0144606,82.6789504" id="Fill-25" fill="#3C8F7C"></path>
                            <path d="M66.5492711,41.8960933 C66.0608746,41.7321516 65.5801749,41.5470787 65.1155685,41.3239417 C64.5907872,41.0716968 63.9106706,40.7762799 63.4810496,40.7102274 C62.5763265,40.5710554 61.0228338,40.6638367 60.1647813,41.5914402 C59.0958367,42.7470787 57.1964781,41.8001633 57.5790787,47.8527813 C58.0121983,54.7036968 61.8346356,53.9517201 61.9269971,53.8357784 C62.0200583,53.7198367 65.3359767,49.4528746 65.3359767,49.4528746 C65.3359767,49.4528746 66.4953936,51.9805714 66.4953936,51.8877901 C66.4953936,51.7982974 72.4163265,43.8652128 66.5492711,41.8960933" id="Fill-26" fill="#0E2E35"></path>
                            <path d="M70.5781924,87.0605248 C54.7328047,93.3208163 37.2501691,96.1826239 19.0509621,95.4955102 C20.2587988,103.239184 21.4666356,110.983557 22.6744723,118.72723 C43.7168746,119.522099 63.9309621,116.213178 82.2514286,108.974694 C78.3603499,101.670437 74.4692711,94.365481 70.5781924,87.0605248" id="Fill-27" fill="#3C8F7C"></path>
                            <path d="M20.9557085,99.9022741 C21.7481983,104.737259 22.540758,109.571545 23.3332478,114.406531 C25.2447114,114.463207 27.0516385,115.880816 27.3798017,117.62309 C44.8858076,117.751137 61.7478717,114.991487 77.3317784,109.446297 C76.5068222,107.785889 77.2135277,105.956152 78.8872303,105.31242 C76.492828,100.739825 74.0977259,96.16793 71.7026239,91.5953353 C70.1618659,92.1872886 68.2278717,91.2860641 67.4036152,89.6263557 C53.7189271,94.4956268 38.9116268,96.9194169 23.5387522,96.8067638 C23.8667055,98.5476385 22.7146356,99.9540525 20.9557085,99.9022741" id="Fill-28" fill="#96D9C9"></path>
                            <path d="M58.7993703,103.975977 C57.0351254,99.6783673 52.3253178,97.0005831 48.177656,97.7107872 C44.0334927,98.4321866 41.6085131,102.342157 42.8550437,106.729329 C44.0982157,111.108805 48.971895,114.262391 53.6353819,113.454227 C58.300758,112.651662 60.5614461,108.265889 58.7993703,103.975977" id="Fill-29" fill="#50BFA5"></path>
                            <path d="M49.6721633,98.9429738 C49.8380641,99.4509621 50.0037551,99.9589504 50.1693761,100.466939 C51.955172,100.506822 53.2692945,101.47172 53.7271837,102.799067 C54.1868921,104.137609 53.7525131,105.090612 52.1438134,105.998834 C51.0030087,106.674052 50.5594636,107.058892 50.7145889,107.554286 C50.8449446,107.972711 51.3019942,108.349155 52.3076851,108.200117 C52.8533878,108.11895 53.2745423,107.965714 53.6022857,107.804781 C54.0391837,107.589971 54.6345656,107.785889 54.9196268,108.236501 C55.1949621,108.67312 55.072723,109.188805 54.6380641,109.388222 C54.2828222,109.551254 53.8413061,109.698192 53.2818892,109.808746 C53.4235802,110.247464 53.5652012,110.685481 53.7067522,111.124198 C53.1929563,111.201866 52.6783207,111.277434 52.1628455,111.350204 C52.0145073,110.876501 51.8660292,110.402799 51.717481,109.929096 C49.9421808,109.850029 48.6633936,108.927114 48.2737259,107.608863 C47.8425656,106.153469 48.7388921,105.272536 50.1852595,104.503557 C51.1854227,103.96898 51.5457026,103.533061 51.36007,102.966297 C51.1635918,102.368746 50.476758,102.131545 49.6280816,102.253294 C49.0450146,102.337259 48.5289096,102.52688 48.0947405,102.756385 C47.6682682,102.982391 47.0676385,102.764781 46.7969913,102.292478 C46.7871254,102.274985 46.7771895,102.258192 46.7673236,102.2407 C46.521586,101.811778 46.6335394,101.32688 47.0199184,101.130962 C47.4831953,100.89516 48.0681516,100.691545 48.6920117,100.573294 C48.5422041,100.099592 48.3922566,99.6258892 48.2421691,99.1521866 C48.7195802,99.0850146 49.1962915,99.0150437 49.6721633,98.9429738" id="Fill-30" fill="#3C8F7C"></path>
                            <path d="M72.2260058,99.5867055 C68.4573761,100.922449 64.6096793,102.085364 60.6922915,103.072653 C60.9949155,103.802449 61.2975394,104.531545 61.6002332,105.261341 C65.5724781,104.260058 69.4740525,103.08105 73.2958601,101.726414 C72.9390087,101.013411 72.5828571,100.299708 72.2260058,99.5867055" id="Fill-31" fill="#50BFA5"></path>
                            <path d="M44.4351953,112.599883 L44.4351953,118.27312 C44.4351953,119.190437 54.6664023,119.933528 67.2874636,119.933528 C79.908105,119.933528 90.139242,119.190437 90.139242,118.27312 L90.139242,112.599883 L44.4351953,112.599883" id="Fill-32" fill="#E59F39"></path>
                            <path d="M60.9728047,119.869854 L60.9728047,112.599883 L44.4351953,112.599883 L44.4351953,118.27312 C44.4351953,119.030904 51.4231837,119.670437 60.9728047,119.869854" id="Fill-33" fill="#EAB054"></path>
                            <path d="M61.7422741,119.884548 C63.5174344,119.916735 65.3751603,119.933528 67.2874636,119.933528 C70.1366764,119.933528 72.8641399,119.895743 75.3795918,119.826472 L75.3795918,112.599883 L61.7422741,112.599883 L61.7422741,119.884548" id="Fill-34" fill="#EAB054"></path>
                            <path d="M76.2955102,119.799883 C84.4373178,119.545889 90.139242,118.958134 90.139242,118.27312 L90.139242,112.599883 L76.2955102,112.599883 L76.2955102,119.799883" id="Fill-35" fill="#EAB054"></path>
                            <path d="M90.139242,112.539708 C90.139242,113.457026 79.908105,114.200816 67.2874636,114.200816 C54.6664023,114.200816 44.4351953,113.457026 44.4351953,112.539708 C44.4351953,111.62309 54.6664023,110.8793 67.2874636,110.8793 C79.908105,110.8793 90.139242,111.62309 90.139242,112.539708" id="Fill-36" fill="#E59F39"></path>
                            <path d="M86.1054227,112.539708 C86.1054227,113.175743 77.6802332,113.691429 67.2874636,113.691429 C56.8942741,113.691429 48.4690845,113.175743 48.4690845,112.539708 C48.4690845,111.904373 56.8942741,111.388688 67.2874636,111.388688 C77.6802332,111.388688 86.1054227,111.904373 86.1054227,112.539708" id="Fill-37" fill="#F7CC7F"></path>
                            <path d="M40.5254344,106.597085 L40.5254344,112.270321 C40.5254344,113.186939 50.7566414,113.930729 63.3774927,113.930729 C75.9981341,113.930729 86.2292711,113.186939 86.2292711,112.270321 L86.2292711,106.597085 L40.5254344,106.597085" id="Fill-38" fill="#E59F39"></path>
                            <path d="M57.0630437,113.866356 L57.0630437,106.597085 L40.5254344,106.597085 L40.5254344,112.270321 C40.5254344,113.028105 47.5134227,113.667638 57.0630437,113.866356" id="Fill-39" fill="#EAB054"></path>
                            <path d="M57.832723,113.881749 C59.6079534,113.913236 61.4651895,113.930729 63.3774927,113.930729 C66.2267055,113.930729 68.9541691,113.892945 71.469621,113.823673 L71.469621,106.597085 L57.832723,106.597085 L57.832723,113.881749" id="Fill-40" fill="#EAB054"></path>
                            <path d="M72.3855394,113.796385 C80.5273469,113.542391 86.2292711,112.954636 86.2292711,112.270321 L86.2292711,106.597085 L72.3855394,106.597085 L72.3855394,113.796385" id="Fill-41" fill="#EAB054"></path>
                            <path d="M86.2292711,106.53691 C86.2292711,107.454227 75.9981341,108.197318 63.3774927,108.197318 C50.7566414,108.197318 40.5254344,107.454227 40.5254344,106.53691 C40.5254344,105.619592 50.7566414,104.876501 63.3774927,104.876501 C75.9981341,104.876501 86.2292711,105.619592 86.2292711,106.53691" id="Fill-42" fill="#E59F39"></path>
                            <path d="M82.1954519,106.53691 C82.1954519,107.172945 73.7702624,107.68793 63.3774927,107.68793 C52.9844431,107.68793 44.5593236,107.172945 44.5593236,106.53691 C44.5593236,105.900875 52.9844431,105.38519 63.3774927,105.38519 C73.7702624,105.38519 82.1954519,105.900875 82.1954519,106.53691" id="Fill-43" fill="#F7CC7F"></path>
                            <path d="M43.130379,100.434752 L43.130379,106.107289 C43.130379,107.024606 53.361586,107.767697 65.9825073,107.767697 C78.6031487,107.767697 88.8342857,107.024606 88.8342857,106.107289 L88.8342857,100.434752 L43.130379,100.434752" id="Fill-44" fill="#E59F39"></path>
                            <path d="M59.6679883,107.704023 L59.6679883,100.434752 L43.130379,100.434752 L43.130379,106.107289 C43.130379,106.865073 50.1183673,107.504606 59.6679883,107.704023" id="Fill-45" fill="#EAB054"></path>
                            <path d="M60.4376676,107.718717 C62.2131778,107.750904 64.0702041,107.767697 65.9825073,107.767697 C68.8317201,107.767697 71.5591837,107.729913 74.0746356,107.660641 L74.0746356,100.434752 L60.4376676,100.434752 L60.4376676,107.718717" id="Fill-46" fill="#EAB054"></path>
                            <path d="M74.9905539,107.634052 C83.1323615,107.380058 88.8342857,106.792303 88.8342857,106.107289 L88.8342857,100.434752 L74.9905539,100.434752 L74.9905539,107.634052" id="Fill-47" fill="#EAB054"></path>
                            <path d="M88.8342857,100.373878 C88.8342857,101.291195 78.6031487,102.034985 65.9825073,102.034985 C53.361586,102.034985 43.130379,101.291195 43.130379,100.373878 C43.130379,99.4572595 53.361586,98.7134694 65.9825073,98.7134694 C78.6031487,98.7134694 88.8342857,99.4572595 88.8342857,100.373878" id="Fill-48" fill="#E59F39"></path>
                            <path d="M84.8004665,100.373878 C84.8004665,101.009913 76.375277,101.525598 65.9825073,101.525598 C55.5893878,101.525598 47.1642682,101.009913 47.1642682,100.373878 C47.1642682,99.7385423 55.5893878,99.2228571 65.9825073,99.2228571 C76.375277,99.2228571 84.8004665,99.7385423 84.8004665,100.373878" id="Fill-49" fill="#F7CC7F"></path>
                            <path d="M40.5254344,94.3563848 L40.5254344,100.028921 C40.5254344,100.946239 50.7566414,101.690029 63.3774927,101.690029 C75.9981341,101.690029 86.2292711,100.946239 86.2292711,100.028921 L86.2292711,94.3563848 L40.5254344,94.3563848" id="Fill-50" fill="#E59F39"></path>
                            <path d="M57.0630437,101.625656 L57.0630437,94.3563848 L40.5254344,94.3563848 L40.5254344,100.028921 C40.5254344,100.787405 47.5134227,101.426239 57.0630437,101.625656" id="Fill-51" fill="#EAB054"></path>
                            <path d="M57.832723,101.64035 C59.6079534,101.672536 61.4651895,101.690029 63.3774927,101.690029 C66.2267055,101.690029 68.9541691,101.651545 71.469621,101.582274 L71.469621,94.3563848 L57.832723,94.3563848 L57.832723,101.64035" id="Fill-52" fill="#EAB054"></path>
                            <path d="M72.3855394,101.555685 C80.5273469,101.301691 86.2292711,100.713936 86.2292711,100.028921 L86.2292711,94.3563848 L72.3855394,94.3563848 L72.3855394,101.555685" id="Fill-53" fill="#EAB054"></path>
                            <path d="M86.2292711,94.2962099 C86.2292711,95.212828 75.9981341,95.9566181 63.3774927,95.9566181 C50.7566414,95.9566181 40.5254344,95.212828 40.5254344,94.2962099 C40.5254344,93.3788921 50.7566414,92.635102 63.3774927,92.635102 C75.9981341,92.635102 86.2292711,93.3788921 86.2292711,94.2962099" id="Fill-54" fill="#E59F39"></path>
                            <path d="M82.1954519,94.2962099 C82.1954519,94.9315452 73.7702624,95.4472303 63.3774927,95.4472303 C52.9844431,95.4472303 44.5593236,94.9315452 44.5593236,94.2962099 C44.5593236,93.6601749 52.9844431,93.1444898 63.3774927,93.1444898 C73.7702624,93.1444898 82.1954519,93.6601749 82.1954519,94.2962099" id="Fill-55" fill="#F7CC7F"></path>
                            <path d="M200.523848,112.115685 L200.523848,117.570612 C200.523848,118.452945 190.684548,119.168047 178.548105,119.168047 C166.410962,119.168047 156.571662,118.452945 156.571662,117.570612 L156.571662,112.115685 L200.523848,112.115685" id="Fill-56" fill="#E59F39"></path>
                            <path d="M184.620175,119.105773 L184.620175,112.115685 L200.523848,112.115685 L200.523848,117.570612 C200.523848,118.299708 193.803848,118.914752 184.620175,119.105773" id="Fill-57" fill="#EAB054"></path>
                            <path d="M183.879883,119.120466 C182.172595,119.151254 180.386939,119.168047 178.548105,119.168047 C175.808047,119.168047 173.18484,119.131662 170.765948,119.06449 L170.765948,112.115685 L183.879883,112.115685 L183.879883,119.120466" id="Fill-58" fill="#EAB054"></path>
                            <path d="M169.885015,119.0393 C162.055277,118.794402 156.571662,118.229038 156.571662,117.570612 L156.571662,112.115685 L169.885015,112.115685 L169.885015,119.0393" id="Fill-59" fill="#EAB054"></path>
                            <path d="M156.571662,112.057609 C156.571662,112.939242 166.410962,113.654344 178.548105,113.654344 C190.684548,113.654344 200.523848,112.939242 200.523848,112.057609 C200.523848,111.175277 190.684548,110.460875 178.548105,110.460875 C166.410962,110.460875 156.571662,111.175277 156.571662,112.057609" id="Fill-60" fill="#E59F39"></path>
                            <path d="M160.451545,112.057609 C160.451545,112.669155 168.553469,113.164548 178.548105,113.164548 C188.542041,113.164548 196.644665,112.669155 196.644665,112.057609 C196.644665,111.446064 188.542041,110.950671 178.548105,110.950671 C168.553469,110.950671 160.451545,111.446064 160.451545,112.057609" id="Fill-61" fill="#F7CC7F"></path>
                            <path d="M204.283382,106.342391 L204.283382,111.798017 C204.283382,112.67965 194.444781,113.394752 182.307638,113.394752 C170.170496,113.394752 160.331895,112.67965 160.331895,111.798017 L160.331895,106.342391 L204.283382,106.342391" id="Fill-62" fill="#E59F39"></path>
                            <path d="M188.379708,113.333178 L188.379708,106.342391 L204.283382,106.342391 L204.283382,111.798017 C204.283382,112.527114 197.563382,113.141458 188.379708,113.333178" id="Fill-63" fill="#EAB054"></path>
                            <path d="M187.640117,113.347872 C185.932828,113.378659 184.146472,113.394752 182.307638,113.394752 C179.56758,113.394752 176.944373,113.358367 174.525481,113.291895 L174.525481,106.342391 L187.640117,106.342391 L187.640117,113.347872" id="Fill-64" fill="#EAB054"></path>
                            <path d="M173.645248,113.266006 C165.81551,113.021808 160.331895,112.456443 160.331895,111.798017 L160.331895,106.342391 L173.645248,106.342391 L173.645248,113.266006" id="Fill-65" fill="#EAB054"></path>
                            <path d="M160.331895,106.284315 C160.331895,107.166647 170.170496,107.881749 182.307638,107.881749 C194.444781,107.881749 204.283382,107.166647 204.283382,106.284315 C204.283382,105.402682 194.444781,104.68758 182.307638,104.68758 C170.170496,104.68758 160.331895,105.402682 160.331895,106.284315" id="Fill-66" fill="#E59F39"></path>
                            <path d="M164.211079,106.284315 C164.211079,106.89586 172.313003,107.391953 182.307638,107.391953 C192.302274,107.391953 200.404198,106.89586 200.404198,106.284315 C200.404198,105.67277 192.302274,105.177376 182.307638,105.177376 C172.313003,105.177376 164.211079,105.67277 164.211079,106.284315" id="Fill-67" fill="#F7CC7F"></path>
                            <path d="M201.778426,100.41586 L201.778426,105.871487 C201.778426,106.753819 191.939825,107.468222 179.802682,107.468222 C167.665539,107.468222 157.826939,106.753819 157.826939,105.871487 L157.826939,100.41586 L201.778426,100.41586" id="Fill-68" fill="#E59F39"></path>
                            <path d="M185.874752,107.406647 L185.874752,100.41586 L201.778426,100.41586 L201.778426,105.871487 C201.778426,106.600583 195.058426,107.215627 185.874752,107.406647" id="Fill-69" fill="#EAB054"></path>
                            <path d="M185.134461,107.421341 C183.427872,107.452128 181.641516,107.468222 179.802682,107.468222 C177.062624,107.468222 174.439417,107.431837 172.020525,107.365364 L172.020525,100.41586 L185.134461,100.41586 L185.134461,107.421341" id="Fill-70" fill="#EAB054"></path>
                            <path d="M171.140292,107.339475 C163.310554,107.095277 157.826939,106.529913 157.826939,105.871487 L157.826939,100.41586 L171.140292,100.41586 L171.140292,107.339475" id="Fill-71" fill="#EAB054"></path>
                            <path d="M157.826939,100.358484 C157.826939,101.240117 167.665539,101.955219 179.802682,101.955219 C191.939825,101.955219 201.778426,101.240117 201.778426,100.358484 C201.778426,99.4761516 191.939825,98.7610496 179.802682,98.7610496 C167.665539,98.7610496 157.826939,99.4761516 157.826939,100.358484" id="Fill-72" fill="#E59F39"></path>
                            <path d="M161.706122,100.358484 C161.706122,100.969329 169.808047,101.465423 179.802682,101.465423 C189.797318,101.465423 197.899242,100.969329 197.899242,100.358484 C197.899242,99.7469388 189.797318,99.2508455 179.802682,99.2508455 C169.808047,99.2508455 161.706122,99.7469388 161.706122,100.358484" id="Fill-73" fill="#F7CC7F"></path>
                            <path d="M204.283382,94.5711953 L204.283382,100.026122 C204.283382,100.908455 194.444781,101.623557 182.307638,101.623557 C170.170496,101.623557 160.331895,100.908455 160.331895,100.026122 L160.331895,94.5711953 L204.283382,94.5711953" id="Fill-74" fill="#E59F39"></path>
                            <path d="M188.379708,101.561283 L188.379708,94.5711953 L204.283382,94.5711953 L204.283382,100.026122 C204.283382,100.755219 197.563382,101.370262 188.379708,101.561283" id="Fill-75" fill="#EAB054"></path>
                            <path d="M187.640117,101.575977 C185.932828,101.606764 184.146472,101.623557 182.307638,101.623557 C179.56758,101.623557 176.944373,101.587172 174.525481,101.52 L174.525481,94.5711953 L187.640117,94.5711953 L187.640117,101.575977" id="Fill-76" fill="#EAB054"></path>
                            <path d="M173.645248,101.49481 C165.81551,101.249913 160.331895,100.684548 160.331895,100.026122 L160.331895,94.5711953 L173.645248,94.5711953 L173.645248,101.49481" id="Fill-77" fill="#EAB054"></path>
                            <path d="M160.331895,94.5131195 C160.331895,95.3947522 170.170496,96.1098542 182.307638,96.1098542 C194.444781,96.1098542 204.283382,95.3947522 204.283382,94.5131195 C204.283382,93.6307872 194.444781,92.9163848 182.307638,92.9163848 C170.170496,92.9163848 160.331895,93.6307872 160.331895,94.5131195" id="Fill-78" fill="#E59F39"></path>
                            <path d="M164.211079,94.5131195 C164.211079,95.1246647 172.313003,95.6200583 182.307638,95.6200583 C192.302274,95.6200583 200.404198,95.1246647 200.404198,94.5131195 C200.404198,93.9015743 192.302274,93.405481 182.307638,93.405481 C172.313003,93.405481 164.211079,93.9015743 164.211079,94.5131195" id="Fill-79" fill="#F7CC7F"></path>
                            <path d="M214.508222,87.9414577 L213.188571,92.5504373 C212.97516,93.2956268 204.490496,91.5183673 194.236968,88.581691 C183.98414,85.6450146 175.845131,82.6600583 176.058542,81.9148688 L177.378892,77.3065889 L214.508222,87.9414577" id="Fill-80" fill="#E59F39"></path>
                            <path d="M199.381924,89.9986006 L201.07312,84.0930612 L214.508222,87.9414577 L213.188571,92.5504373 C213.012245,93.1661808 207.186472,92.059242 199.381924,89.9986006" id="Fill-81" fill="#EAB054"></path>
                            <path d="M198.752886,89.83207 C197.30309,89.4451312 195.790321,89.0267055 194.236968,88.581691 C191.922332,87.9183673 189.715452,87.2529446 187.687697,86.611312 L189.369096,80.740758 L200.44828,83.9139359 L198.752886,89.83207" id="Fill-82" fill="#EAB054"></path>
                            <path d="M186.950204,86.3769096 C180.394636,84.2756851 175.899009,82.471137 176.058542,81.9148688 L177.378892,77.3065889 L188.625306,80.5280466 L186.950204,86.3769096" id="Fill-83" fill="#EAB054"></path>
                            <path d="M177.392886,77.2576093 C177.179475,78.0020991 185.317784,80.9870554 195.571312,83.9237318 C205.82414,86.8611079 214.308805,88.6376676 214.522216,87.8924781 C214.735627,87.1472886 206.597318,84.1630321 196.34379,81.225656 C186.090962,78.2889796 177.606297,76.5124198 177.392886,77.2576093" id="Fill-84" fill="#E59F39"></path>
                            <path d="M180.669621,78.1959184 C180.521983,78.7123032 187.246181,81.0920117 195.689563,83.5102041 C204.132945,85.9290962 211.097143,87.4705539 211.245481,86.9541691 C211.39312,86.4370845 204.668921,84.0580758 196.225539,81.6398834 C187.782157,79.2209913 180.817959,77.6795335 180.669621,78.1959184" id="Fill-85" fill="#F7CC7F"></path>
                            <path d="M202.501224,56.2218542 L203.906939,60.8053644 C204.134344,61.5463557 196.052012,64.6817493 185.85516,67.8087464 C175.659009,70.9357434 167.20863,72.8704373 166.981224,72.1294461 L165.57551,67.5463557 L202.501224,56.2218542" id="Fill-86" fill="#E59F39"></path>
                            <path d="M190.941341,66.1924198 L189.140292,60.3190671 L202.501224,56.2218542 L203.906939,60.8053644 C204.094461,61.4176093 198.607347,63.6657726 190.941341,66.1924198" id="Fill-87" fill="#EAB054"></path>
                            <path d="M190.322799,66.3953353 C188.896793,66.8613411 187.400117,67.3350437 185.85516,67.8087464 C183.55312,68.5147522 181.340641,69.1598834 179.291195,69.7273469 L177.500641,63.8889796 L188.518251,60.5100875 L190.322799,66.3953353" id="Fill-88" fill="#EAB054"></path>
                            <path d="M178.544606,69.9323615 C171.903673,71.7446064 167.150554,72.6822157 166.981224,72.1294461 L165.57551,67.5463557 L176.76035,64.1156851 L178.544606,69.9323615" id="Fill-89" fill="#EAB054"></path>
                            <path d="M165.560816,67.4973761 C165.788222,68.2383673 174.237901,66.3036735 184.434752,63.1766764 C194.631603,60.0496793 202.713236,56.9140758 202.486531,56.1731545 C202.259125,55.4322332 193.808746,57.3665073 183.611895,60.4932945 C173.415044,63.6209913 165.333411,66.7563848 165.560816,67.4973761" id="Fill-90" fill="#E59F39"></path>
                            <path d="M168.820058,66.4981924 C168.977493,67.0117784 175.912303,65.3408746 184.308805,62.7652478 C192.705306,60.1903207 199.384723,57.686414 199.227289,57.1726181 C199.069854,56.6588921 192.135044,58.3299359 183.738542,60.904723 C175.341341,63.4803499 168.661924,65.9839067 168.820058,66.4981924" id="Fill-91" fill="#F7CC7F"></path>
                            <path d="M82.0107289,113.246414 L82.5544023,116.13481 C82.5844898,116.509854 82.5732945,117.459359 82.6544606,117.787522 C82.9595335,119.020408 88.1436735,116.024257 86.7834402,115.783557 C86.6602915,115.761866 85.7681633,114.859242 85.5638484,114.477201 C85.2083965,113.811778 84.8816327,112.572595 84.8816327,112.572595 L82.0107289,113.246414" id="Fill-92" fill="#F7A491"></path>
                            <path d="M86.5259475,115.603732 C86.5259475,115.603732 85.188105,115.935394 84.5065889,116.003265 C83.8257726,116.071137 82.9518367,115.013178 82.4634402,115.213294 C81.9253644,115.433703 81.6328863,118.790204 81.6328863,118.790204 C81.6328863,118.790204 90.1840233,119.179942 92.2047813,118.621574 C93.0059475,118.400466 89.1869388,116.623207 86.5259475,115.603732" id="Fill-93" fill="#141619"></path>
                            <path d="M93.9337609,113.114869 L94.4774344,116.003265 C94.5082216,116.379009 94.4963265,117.327813 94.5774927,117.655977 C94.8825656,118.888863 99.9715452,116.090029 98.611312,115.849329 C98.4881633,115.827638 97.691895,114.727697 97.4875802,114.345656 C97.1321283,113.680233 96.8053644,112.44105 96.8053644,112.44105 L93.9337609,113.114869" id="Fill-94" fill="#F7A491"></path>
                            <path d="M98.3181341,115.603732 C98.3181341,115.603732 96.9795918,115.935394 96.2987755,116.003265 C95.6179592,116.071137 94.7440233,115.013178 94.2556268,115.213294 C93.717551,115.433703 93.4250729,118.790204 93.4250729,118.790204 C93.4250729,118.790204 101.97621,119.179942 103.996968,118.621574 C104.798134,118.400466 100.979125,116.623207 98.3181341,115.603732" id="Fill-95" fill="#141619"></path>
                            <path d="M64.2850146,84.2609913 L79.8416327,80.6525948 C79.8416327,80.6525948 86.8177259,78.8081633 88.5019242,80.9730612 C90.1861224,83.1379592 97.3371429,113.019009 97.3371429,113.019009 C97.3371429,113.019009 93.6482799,113.339475 93.4075802,113.179242 L84.7731778,97.8535277 C83.9517201,96.396035 83.4115452,94.7965015 83.1806414,93.1395918 L82.5676968,88.7510204 L76.2332362,90.5954519 C76.2332362,90.5954519 68.9359767,92.1991837 65.9692128,90.3554519 C63.0017493,88.5110204 64.2850146,84.2609913 64.2850146,84.2609913" id="Fill-96" fill="#0E2E35"></path>
                            <path d="M70.2591254,57.4410962 C70.504723,57.451242 71.1778426,57.6757784 72.1630321,59.5302857 C73.4204082,61.898309 75.2578426,69.052828 75.2578426,69.052828 L69.7721283,71.0882799 L69.0675219,69.595102 L67.9067055,58.0994519 C67.9067055,58.0994519 70.1912536,57.4382974 70.2591254,57.4410962" id="Fill-97" fill="#C0DBF5"></path>
                            <path d="M63.0080466,56.4098659 C64.576793,56.411965 68.4573761,56.868105 70.2591254,57.441656 C70.2591254,57.441656 71.5822741,68.7771429 69.0675219,77.3905539 C68.5049563,79.3189504 69.5335277,85.3833236 69.5335277,85.3833236 L53.2790204,85.1699125 C53.2790204,85.1699125 55.2046181,70.5082216 54.4792303,68.1397085 C53.7537726,65.771895 53.7364898,57.5179242 53.7364898,57.5179242 C53.7364898,57.5179242 53.8478834,57.5006414 57.3884082,56.8907055 C59.0398601,56.6062041 61.3331545,56.4076968 63.0080466,56.4098659" id="Fill-98" fill="#C0DBF5"></path>
                            <path d="M53.5596035,58.7778892 C55.0793703,58.2097259 55.8228105,71.8565598 56.0276851,77.4738192 C58.7189038,77.731312 63.4096793,77.4752187 64.5781924,77.3877551 C65.1274636,77.347172 66.3939359,76.8846647 66.9404082,76.8132945 C67.5001749,76.7405248 68.0074636,76.7020408 68.282449,76.749621 C68.3839067,76.7671137 71.1890379,77.9104373 71.4290379,78.1616327 C71.726414,78.4723032 72.5310787,79.2566764 72.3953353,79.596035 C72.2595918,79.9353936 70.8482799,78.6507289 70.8482799,78.6507289 L70.1583673,78.2651895 C71.0169096,79.1013411 72.6549271,80.2026822 72.4191254,80.6036152 C72.1889213,80.9947522 70.711137,79.8773178 69.6580758,79.1153353 C70.5613994,79.9283965 71.6837318,81.3837901 71.4248397,81.6104956 C71.1925364,81.8141108 69.9162682,80.1299125 68.5518367,79.6443149 C68.0466472,79.4644898 67.5428571,79.9626822 67.144723,80.0228571 C66.8529446,80.0669388 66.4016327,80.1606997 66.1147522,80.0802332 L64.744723,79.9479883 C64.2416327,79.9934694 64.1219825,80.0046647 63.6139942,80.1124198 C63.0241399,80.2376676 62.0564431,80.3692128 61.3050962,80.5518367 C56.9793586,81.6055977 55.5365598,82.0946939 54.2121516,82.0939942 C50.2005131,82.0911953 49.9678601,60.1203499 53.5596035,58.7778892" id="Fill-99" fill="#F7A491"></path>
                            <path d="M50.6754752,71.5899708 C50.3907638,65.8362682 50.4324665,58.7446531 53.668758,57.5347172 C54.945656,57.0573061 57.196828,59.92793 56.7919067,71.7068222 C55.0642566,71.848863 52.5278134,71.9636152 50.6754752,71.5899708" id="Fill-100" fill="#C0DBF5"></path>
                            <path d="M86.7218659,68.0739359 L71.4080466,69.0738192 C71.0029155,69.1004082 70.6537609,69.3690962 70.5250146,69.7539359 L66.5604665,81.5622157 L58.1180641,82.113586 C57.8819125,82.1296793 57.7030671,82.3332945 57.7184606,82.5690962 C57.7338542,82.804898 57.9377493,82.9833236 58.1738309,82.96793 L82.202449,81.398484 C82.8629738,81.3558017 83.4367347,80.9282799 83.6676385,80.3083382 L87.7245481,69.4215743 C87.9778426,68.7414577 87.4460641,68.0263557 86.7218659,68.0739359" id="Fill-101" fill="#F78200"></path>
                            <path d="M79.0915452,75.3704956 C79.060758,75.8973761 78.6619242,76.303207 78.2008163,76.2766181 C77.7390087,76.2500292 77.3898542,75.801516 77.4199417,75.2739359 C77.4507289,74.7470554 77.8495627,74.3412245 78.3106706,74.3678134 C78.7724781,74.3944023 79.1216327,74.8436152 79.0915452,75.3704956" id="Fill-102" fill="#FFFFFF"></path>
                            <path d="M53.2886064,84.7997668 L70.2409329,81.8728863 C70.2409329,81.8728863 77.570379,80.7561516 79.2545773,82.9210496 C80.9380758,85.0859475 85.8297376,113.151953 85.8297376,113.151953 C85.8297376,113.151953 82.1408746,113.47312 81.9008746,113.312187 C81.7140525,113.188338 77.2485131,103.831837 75.242449,99.6160933 C74.6057143,98.277551 74.1586006,96.8585423 73.9116035,95.397551 L73.267172,91.5778426 L71.1337609,92.3118367 C67.3854227,93.6027988 63.3907872,94.0506122 59.4563265,93.561516 C57.8090729,93.3572012 56.2717434,93.0052478 55.3180408,92.4125948 C52.3510671,90.5681633 53.2886064,84.7997668 53.2886064,84.7997668" id="Fill-103" fill="#184655"></path>
                            <path d="M63.6475802,54.3417376 L63.9778426,56.7897376 C63.9778426,56.7897376 64.7167347,60.3162682 63.7658309,60.9963848 C62.8149271,61.6765015 59.7217259,56.6891895 59.7217259,56.6891895 L60.0484198,50.4862041 L63.6475802,54.3417376" id="Fill-104" fill="#F7A491"></path>
                            <path d="M59.9429038,52.4965364 C60.7283965,54.6121749 62.5994169,55.912723 63.9274636,56.4171429 L63.6475802,54.3417376 L60.0484198,50.4862041 L59.9429038,52.4965364" id="Fill-105" fill="#F47458"></path>
                            <path d="M63.4523615,43.7361166 C65.4675219,43.4118717 67.2741691,45.0269388 67.2244898,47.0372711 C67.2020991,47.9110671 67.1307289,49.0021224 66.948105,50.1770729 C66.5100875,53.0029155 64.5753936,55.4912886 63.2963265,55.2690612 C62.0172595,55.0468338 58.7987405,52.6092595 59.3654344,48.5878251 C59.7153586,46.1051195 61.3376327,44.0763149 63.4523615,43.7361166" id="Fill-106" fill="#F7A491"></path>
                            <path d="M60.2530146,49.0678251 C60.1451195,49.6891662 59.6456676,50.1213761 59.1375394,50.0331429 C58.6294111,49.9449096 58.3048863,49.3695394 58.4128513,48.7481283 C58.5208163,48.1267872 59.0202682,47.6945773 59.5283965,47.7828105 C60.0365248,47.8711137 60.3609796,48.446414 60.2530146,49.0678251" id="Fill-107" fill="#F7A491"></path>
                            <path d="M59.5283965,47.7828105 C59.5283965,47.7828105 61.0749621,48.1658309 61.6492128,47.174414 C62.2229738,46.1830671 64.2752187,44.0437784 66.8844315,44.9307988 C69.4929446,45.8178192 64.5879883,42.7740875 64.3794752,42.7740875 C64.1709621,42.7740875 61.6660058,42.7567347 61.6660058,42.7567347 C61.6660058,42.7567347 59.7357901,44.3394752 59.6661691,44.5133528 C59.5966181,44.6873003 59.04007,46.5830904 59.04007,46.5830904 L59.5283965,47.7828105" id="Fill-108" fill="#0E2E35"></path>
                            <polygon id="Fill-109" fill="#50BFA5" points="135.313819 118.91895 173.812478 118.91895 173.812478 104.907289 135.313819 104.907289"></polygon>
                            <polygon id="Fill-110" fill="#96D9C9" points="135.313819 108.752187 173.812478 108.752187 173.812478 106.949038 135.313819 106.949038"></polygon>
                            <polygon id="Fill-111" fill="#96D9C9" points="135.313819 112.27312 173.812478 112.27312 173.812478 110.469971 135.313819 110.469971"></polygon>
                            <polygon id="Fill-112" fill="#96D9C9" points="135.313819 115.794052 173.812478 115.794052 173.812478 113.991603 135.313819 113.991603"></polygon>
                            <polygon id="Fill-113" fill="#96D9C9" points="135.313819 118.91895 173.812478 118.91895 173.812478 117.116501 135.313819 117.116501"></polygon>
                            <polygon id="Fill-114" fill="#F7CC7F" points="149.645248 118.91895 157.652012 118.91895 157.652012 104.907289 149.645248 104.907289"></polygon>
                            <polygon id="Fill-115" fill="#3C8F7C" points="173.345073 118.91895 179.15895 118.91895 179.15895 104.907289 173.345073 104.907289"></polygon>
                            <path d="M94.2213411,13.5158484 L63.2571429,13.5158484 C63.242449,13.3638717 63.2347522,13.2099359 63.2347522,13.0541808 C63.2347522,10.4265656 65.3646647,8.29644315 67.99207,8.29644315 C68.8317201,8.29644315 69.6202915,8.51482216 70.3053061,8.89665306 C71.2723032,6.23314286 73.8255394,4.3305656 76.8237901,4.3305656 C79.3434402,4.3305656 81.5489213,5.67470554 82.7629155,7.68489796 C83.2911953,7.52025656 83.8537609,7.43146356 84.4366181,7.43146356 C86.6917784,7.43146356 88.6362682,8.75923032 89.5325948,10.6754519 C89.8404665,10.5952653 90.1637318,10.5523732 90.4974927,10.5523732 C92.3125364,10.5523732 93.8316035,11.8185656 94.2213411,13.5158484" id="Fill-117" fill="#FBFEFE"></path>
                            <path d="M108.174927,32.3986706 L84.7423907,32.3986706 C84.7311953,32.2837085 84.724898,32.167207 84.724898,32.0493061 C84.724898,30.0608746 86.3370262,28.4488863 88.3255977,28.4488863 C88.9609329,28.4488863 89.5577843,28.6140875 90.0755685,28.9029971 C90.8081633,26.8874169 92.7400583,25.4476268 95.0085131,25.4476268 C96.9152187,25.4476268 98.584723,26.464793 99.5034402,27.9860991 C99.9036735,27.8614111 100.329096,27.7942391 100.769913,27.7942391 C102.476501,27.7942391 103.948688,28.7990204 104.626706,30.2492362 C104.859708,30.1885015 105.104606,30.156105 105.356501,30.156105 C106.730729,30.156105 107.87965,31.1143557 108.174927,32.3986706" id="Fill-118" fill="#FBFEFE"></path>
                            <path d="M63.3572012,29.7444665 L42.9238251,29.7444665 C43.1811079,28.6244431 44.1833703,27.7888513 45.381481,27.7888513 C45.6013994,27.7888513 45.8146706,27.8171895 46.0181458,27.8700875 C46.6093994,26.6055743 47.8926647,25.7293294 49.3808047,25.7293294 C49.7655044,25.7293294 50.1365598,25.787965 50.4855044,25.8966297 C51.2866006,24.5700525 52.7420641,23.683102 54.4047813,23.683102 C56.3829971,23.683102 58.0678251,24.9386589 58.706309,26.6962566 C59.1581808,26.4442915 59.678414,26.3002216 60.2325831,26.3002216 C61.9661808,26.3002216 63.371895,27.7058659 63.371895,29.4398134 C63.371895,29.5426006 63.3669971,29.6441983 63.3572012,29.7444665" id="Fill-119" fill="#FBFEFE"></path>
                            <path d="M86.181691,45.7283265 L86.4545773,49.0482332 L88.3829738,46.8764082 L94.6194752,41.7683965 L89.3009913,43.4440583 C89.3009913,43.4440583 86.6826822,44.7161283 86.5623324,44.8840583 C86.4419825,45.0519883 86.181691,45.7283265 86.181691,45.7283265" id="Fill-120" fill="#145597"></path>
                            <polyline id="Fill-121" fill="#003974" points="83.3555685 44.3017609 94.6194752 41.7683965 86.181691 45.7283265 83.3555685 44.3017609"></polyline>
                            <polyline id="Fill-122" fill="#003974" points="90.513586 48.1868222 87.0416327 46.454414 94.6194752 41.7683965 90.513586 48.1868222"></polyline>
                            <path d="M84.8662391,47.5716385 C85.3868222,47.37593 85.7702624,47.3337376 85.7737609,47.3333878 L85.7485714,47.0919883 C85.7317784,47.0938076 85.3301458,47.1379592 84.7808746,47.3445131 L84.8662391,47.5716385" id="Fill-123" fill="#3C8F7C"></path>
                            <path d="M82.135277,49.8751487 C82.3794752,49.2777376 82.7342274,48.7569446 83.1883382,48.3271837 L83.3555685,48.5035802 C82.9259475,48.909481 82.5907872,49.4017959 82.3598834,49.9669504 L82.135277,49.8751487 Z M81.8302041,53.5410612 C81.7336443,52.8871137 81.7028571,52.267242 81.7385423,51.6987289 L81.9806414,51.7138426 C81.9463557,52.2654927 81.9764431,52.8684315 82.0702041,53.5050262 L82.0723032,53.5190904 L81.8316035,53.5521866 L81.8302041,53.5410612 Z M82.101691,55.3685598 L82.341691,55.3342041 C82.4438484,56.0444082 82.5159184,56.6246764 82.5704956,57.1603732 L82.3290962,57.184793 C82.2752187,56.6525248 82.2031487,56.0754052 82.101691,55.3685598 Z M82.4473469,59.0065539 L82.6894461,59.0010962 C82.7048397,59.6600816 82.6852478,60.2644898 82.6299708,60.8487464 L82.3885714,60.825656 C82.442449,60.2511953 82.4620408,59.6560233 82.4473469,59.0065539 Z M81.4670554,64.3144023 C81.5860058,64.0646064 81.6951603,63.8043149 81.7924198,63.5405248 C81.9022741,63.242449 81.9995335,62.930379 82.0813994,62.6134111 L82.3158017,62.673586 C82.2325364,62.9982507 82.1324781,63.3180175 82.0198251,63.6244898 C81.9204665,63.895277 81.8078134,64.1625656 81.6860641,64.4186589 L81.4670554,64.3144023 Z M79.3077551,67.1944023 C79.763965,66.7773761 80.1746939,66.3281633 80.5287464,65.8593586 L80.7225656,66.004898 C80.3594169,66.4862974 79.9388921,66.9467055 79.4707872,67.3735277 L79.3077551,67.1944023 L79.3077551,67.1944023 Z" id="Fill-124" fill="#003974"></path>
                        </g>
                    </g>
                </g>
                <g id="link" transform="translate(107.221330, 4.646371)" fill="#F78200" fill-rule="nonzero">
                    <path d="M26.6371011,21.6492852 C26.2420545,21.6492852 25.847008,21.4981051 25.5460605,21.1971576 C24.9424701,20.5938498 24.9424701,19.6183843 25.5460605,19.0150765 L28.6634807,15.8976563 C30.084857,14.4901264 30.865625,12.6104055 30.865625,10.5995679 C30.865625,6.46514297 27.50123,3.09933511 23.3653923,3.09933511 C21.3559674,3.09933511 19.4762467,3.88010308 18.0721077,5.29695809 L14.9498836,8.41889958 C14.3465758,9.02249001 13.3711104,9.02249001 12.7678025,8.41889958 C12.1644947,7.81559172 12.1644947,6.84012637 12.7678025,6.2368185 L15.8852228,3.11798534 C17.8697806,1.11788564 20.5274435,0.0127160723 23.3653923,0.0127160723 C29.2034907,0.0127160723 33.952244,4.76146938 33.952244,10.5995679 C33.952244,13.440625 32.8470745,16.0965924 30.8393451,18.0859541 L27.7267287,21.1971576 C27.4257813,21.4981051 27.0321476,21.6492852 26.6371011,21.6492852 Z" id="Path"></path>
                    <path d="M10.5871343,33.9646775 C4.74903594,33.9646775 0.000282579787,29.2159242 0.000282579787,23.3778258 C0.000282579787,20.5367686 1.10545213,17.8808012 3.1131815,15.8914395 L6.22579787,12.7802361 C6.8293883,12.1769282 7.80457116,12.1769282 8.40816159,12.7802361 C9.01146938,13.3835438 9.01146938,14.3590093 8.40816159,14.9623171 L5.29074137,18.0797373 C3.86766957,19.4872673 3.0869016,21.3669881 3.0869016,23.3778258 C3.0869016,27.5122506 6.45129658,30.8780585 10.5871343,30.8780585 C12.5965592,30.8780585 14.4762799,30.0972905 15.8804189,28.6804355 L19.002643,25.558494 C19.6059508,24.9549036 20.5814162,24.9549036 21.1847241,25.558494 C21.7880319,26.1618019 21.7880319,27.1372673 21.1847241,27.7405751 L18.0673038,30.8596908 C16.082746,32.859508 13.4253657,33.9646775 10.5871343,33.9646775 L10.5871343,33.9646775 Z" id="Path"></path>
                    <path d="M20.2479721,15.2601563 C19.8529255,15.2601563 19.457879,15.1089761 19.1569315,14.8080286 C18.5536236,14.2047207 18.5536236,13.2292553 19.1569315,12.6259475 L22.0581782,9.72470083 C22.6617686,9.12111041 23.6369515,9.12111041 24.2405419,9.72470083 C24.8438498,10.3280086 24.8438498,11.3034741 24.2405419,11.9067819 L21.3390127,14.8080286 C21.0380651,15.1089761 20.6430186,15.2601563 20.2479721,15.2601563 L20.2479721,15.2601563 Z" id="Path"></path>
                    <path d="M10.8033079,24.7051031 C10.4082613,24.7051031 10.0129321,24.5539229 9.71226725,24.2529754 C9.10867683,23.649385 9.10867683,22.6742021 9.71226725,22.0706117 L12.6135139,19.169365 C13.2168218,18.5660572 14.1922872,18.5660572 14.7955951,19.169365 C15.3991855,19.7726729 15.3991855,20.7481383 14.7955951,21.3514462 L11.8943484,24.2529754 C11.5934009,24.5539229 11.1983544,24.7051031 10.8033079,24.7051031 Z" id="Path"></path>
                    <path d="M32.4087932,33.9646775 C32.0137467,33.9646775 31.6187001,33.8134973 31.3177527,33.5125499 L0.452692783,2.64720745 C-0.150897643,2.04389958 -0.150897643,1.06843416 0.452692783,0.465126366 C1.05600065,-0.13846406 2.03118351,-0.13846406 2.63477394,0.465126366 L33.5001164,31.3301862 C34.1034242,31.9337766 34.1034242,32.9089595 33.5001164,33.5125499 C33.1991689,33.8134973 32.8038398,33.9646775 32.4087932,33.9646775 Z" id="Path"></path>
                </g>
            </g>
        </g>
    </g>
</svg>