<svg width="32" height="34" viewBox="0 0 32 34" fill="none" xmlns="http://www.w3.org/2000/svg">
<path fill-rule="evenodd" clip-rule="evenodd" d="M10.6249 33.9998H27.6249C29.5771 33.9998 31.1666 32.4118 31.1666 30.4582V9.20817C31.1666 7.25459 29.5771 5.6665 27.6249 5.6665H10.6249C8.67275 5.6665 7.08325 7.25459 7.08325 9.20817V30.4582C7.08325 32.4118 8.67275 33.9998 10.6249 33.9998ZM8.49992 9.20817C8.49992 8.03659 9.45334 7.08317 10.6249 7.08317H27.6249C28.7965 7.08317 29.7499 8.03659 29.7499 9.20817V30.4582C29.7499 31.6298 28.7965 32.5832 27.6249 32.5832H10.6249C9.45334 32.5832 8.49992 31.6298 8.49992 30.4582V9.20817Z" fill="#F58220"/>
<path d="M4.95833 29.75H3.54167C1.5895 29.75 0 28.1619 0 26.2083V3.54167C0 1.58808 1.5895 0 3.54167 0H20.5417C22.4938 0 24.0833 1.58808 24.0833 3.54167C24.0833 3.93267 23.766 4.25 23.375 4.25C22.984 4.25 22.6667 3.93267 22.6667 3.54167C22.6667 2.37008 21.7132 1.41667 20.5417 1.41667H3.54167C2.37008 1.41667 1.41667 2.37008 1.41667 3.54167V26.2083C1.41667 27.3799 2.37008 28.3333 3.54167 28.3333H4.95833C5.34933 28.3333 5.66667 28.6507 5.66667 29.0417C5.66667 29.4327 5.34933 29.75 4.95833 29.75Z" fill="#F58220"/>
<path d="M24.7917 24.0832H13.4583C13.0673 24.0832 12.75 23.7658 12.75 23.3748C12.75 22.9838 13.0673 22.6665 13.4583 22.6665H24.7917C25.1827 22.6665 25.5 22.9838 25.5 23.3748C25.5 23.7658 25.1827 24.0832 24.7917 24.0832Z" fill="#F58220"/>
<path d="M24.7917 29.7502H13.4583C13.0673 29.7502 12.75 29.4328 12.75 29.0418C12.75 28.6508 13.0673 28.3335 13.4583 28.3335H24.7917C25.1827 28.3335 25.5 28.6508 25.5 29.0418C25.5 29.4328 25.1827 29.7502 24.7917 29.7502Z" fill="#F58220"/>
<path d="M24.7917 18.4167H13.4583C13.0673 18.4167 12.75 18.0993 12.75 17.7083C12.75 17.3173 13.0673 17 13.4583 17H24.7917C25.1827 17 25.5 17.3173 25.5 17.7083C25.5 18.0993 25.1827 18.4167 24.7917 18.4167Z" fill="#F58220"/>
<path d="M24.7917 12.7502H13.4583C13.0673 12.7502 12.75 12.4328 12.75 12.0418C12.75 11.6508 13.0673 11.3335 13.4583 11.3335H24.7917C25.1827 11.3335 25.5 11.6508 25.5 12.0418C25.5 12.4328 25.1827 12.7502 24.7917 12.7502Z" fill="#F58220"/>
</svg>
