<?xml version="1.0" encoding="UTF-8"?>
<svg width="255px" height="487px" viewBox="0 0 255 487" version="1.1" xmlns="http://www.w3.org/2000/svg" xmlns:xlink="http://www.w3.org/1999/xlink">
    <!-- Generator: Sketch 53.2 (72643) - https://sketchapp.com -->
    <title>Group 92 Copy</title>
    <desc>Created with Sketch.</desc>
    <defs>
        <rect id="path-1" x="0" y="0" width="255" height="487"></rect>
        <path d="M0.987,23.88 C1.293,36.703 11.936,46.849 24.758,46.543 C37.581,46.236 47.727,35.594 47.421,22.771 C47.115,9.949 36.472,-0.198 23.649,0.109 C10.827,0.415 0.68,11.058 0.987,23.88" id="path-3"></path>
        <path d="M0.501,24.285 C0.807,37.108 11.45,47.254 24.272,46.948 C37.095,46.642 47.241,35.999 46.935,23.176 C46.628,10.354 35.985,0.208 23.163,0.514 C10.341,0.82 0.194,11.463 0.501,24.285" id="path-5"></path>
        <path d="M0.759,24.772 C1.066,37.594 11.709,47.741 24.531,47.434 C37.354,47.128 47.5,36.485 47.194,23.663 C46.887,10.84 36.244,0.694 23.422,1 C10.6,1.307 0.453,11.949 0.759,24.772" id="path-7"></path>
        <path d="M0.756,24.608 C1.063,37.43 11.706,47.577 24.528,47.27 C37.35,46.964 47.497,36.321 47.191,23.499 C46.884,10.676 36.241,0.53 23.419,0.836 C10.597,1.143 0.45,11.785 0.756,24.608" id="path-9"></path>
        <path d="M0.247,13.917 C0.419,21.118 6.396,26.816 13.597,26.644 C20.798,26.472 26.495,20.495 26.323,13.294 C26.152,6.094 20.175,0.396 12.974,0.568 C5.773,0.74 0.075,6.717 0.247,13.917" id="path-11"></path>
        <path d="M0.892,13.861 C1.064,21.062 7.041,26.76 14.241,26.588 C21.442,26.416 27.14,20.439 26.968,13.238 C26.796,6.037 20.819,0.34 13.618,0.512 C6.418,0.684 0.72,6.66 0.892,13.861" id="path-13"></path>
        <path d="M0.322,13.754 C0.494,20.954 6.47,26.652 13.671,26.48 C20.872,26.308 26.57,20.331 26.398,13.131 C26.226,5.93 20.249,0.232 13.048,0.404 C5.848,0.576 0.15,6.553 0.322,13.754" id="path-15"></path>
    </defs>
    <g id="Page-1" stroke="none" stroke-width="1" fill="none" fill-rule="evenodd">
        <g id="08.1g-Add-Purchase---Existing-scheme---success" transform="translate(0.000000, -393.000000)">
            <g id="Group-92-Copy" transform="translate(0.000000, 393.000000)">
                <mask id="mask-2" fill="white">
                    <use xlink:href="#path-1"></use>
                </mask>
                <use id="Mask" fill="#F5F7F9" xlink:href="#path-1"></use>
                <g opacity="0.063866" style="mix-blend-mode: luminosity;" mask="url(#mask-2)">
                    <g transform="translate(-186.000000, 29.000000)">
                        <path d="M269.982889,117.31 C269.982889,117.31 270.659889,92.453 282.800889,92.453 C284.653889,92.453 286.773889,93.032 289.197889,94.366 C289.197889,94.366 303.885889,109.299 269.982889,117.31" id="Fill-3" fill="#008EB5" fill-rule="evenodd"></path>
                        <path d="M337.200889,197.036 C337.200889,197.036 337.877889,172.179 350.019889,172.179 C351.871889,172.179 353.991889,172.758 356.416889,174.092 C356.416889,174.092 371.103889,189.025 337.200889,197.036" id="Fill-5" fill="#008EB5" fill-rule="evenodd"></path>
                        <path d="M397.439889,116.594 C397.439889,116.594 398.115889,91.738 410.257889,91.738 C412.110889,91.738 414.229889,92.316 416.654889,93.65 C416.654889,93.65 431.342889,108.583 397.439889,116.594" id="Fill-6" fill="#008EB5" fill-rule="evenodd"></path>
                        <path d="M427.281889,238.392 C423.483889,238.392 418.633889,237.712 412.447889,236.044 C412.447889,236.044 422.099889,219.285 431.706889,219.285 C434.655889,219.285 437.599889,220.864 440.259889,224.991 C440.259889,224.991 444.137889,238.392 427.281889,238.392" id="Fill-7" fill="#008EB5" fill-rule="evenodd"></path>
                        <path d="M216.554889,144.785 C212.756889,144.785 207.907889,144.105 201.721889,142.438 C201.721889,142.438 211.373889,125.679 220.980889,125.679 C223.929889,125.679 226.872889,127.257 229.532889,131.384 C229.532889,131.384 233.410889,144.785 216.554889,144.785" id="Fill-9" fill="#008EB5" fill-rule="evenodd"></path>
                        <path d="M250.977889,194.193 C242.850889,194.193 234.469889,191.661 236.899889,180.525 C236.899889,180.525 239.946889,175.022 245.549889,175.022 C250.170889,175.022 256.531889,178.766 264.357889,192.431 C264.357889,192.431 257.755889,194.193 250.977889,194.193" id="Fill-12" fill="#008EB5" fill-rule="evenodd"></path>
                        <path d="M391.129889,240.861 C391.129889,240.861 358.194889,238.324 369.167889,220.53 C369.167889,220.53 372.314889,217.729 376.353889,217.729 C381.323889,217.729 387.644889,221.964 391.129889,240.861" id="Fill-13" fill="#008EB5" fill-rule="evenodd"></path>
                        <path d="M304.463889,266.025 C304.463889,266.025 271.528889,263.488 282.501889,245.694 C282.501889,245.694 285.648889,242.893 289.688889,242.893 C294.657889,242.893 300.978889,247.128 304.463889,266.025" id="Fill-14" fill="#008EB5" fill-rule="evenodd"></path>
                        <path d="M225.652889,266.025 C225.652889,266.025 192.717889,263.488 203.690889,245.694 C203.690889,245.694 206.837889,242.893 210.877889,242.893 C215.846889,242.893 222.167889,247.128 225.652889,266.025" id="Fill-15" fill="#008EB5" fill-rule="evenodd"></path>
                        <path d="M236.506889,106.601 C236.506889,106.601 233.455889,80.087 247.037889,80.087 C248.567889,80.087 250.304889,80.423 252.284889,81.17 C252.284889,81.17 268.936889,93.876 236.506889,106.601" id="Fill-18" fill="#008EB5" fill-rule="evenodd"></path>
                        <path d="M207.316889,351.915 L207.316889,315.661 C207.316889,308.295 201.324889,302.303 193.958889,302.303 L145.833889,302.303 C137.217889,302.303 130.207889,295.293 130.207889,286.678 L130.207889,282.727 C130.580889,282.745 130.954889,282.754 131.331889,282.754 C131.519889,282.754 131.707889,282.752 131.896889,282.747 C132.089889,282.742 132.283889,282.735 132.475889,282.726 L132.475889,286.678 C132.475889,294.043 138.467889,300.035 145.833889,300.035 L193.958889,300.035 C202.574889,300.035 209.584889,307.045 209.584889,315.661 L209.584889,351.915 L209.584889,463.829745 L227.727889,463.829745 L227.727889,351.915 L227.727889,241.103 C227.727889,233.743 221.740889,227.751 214.380889,227.746 L145.822889,227.695 C137.212889,227.689 130.207889,220.679 130.207889,212.07 L130.207889,190.865 L95.9398891,190.865 C87.3238891,190.865 80.3148891,183.855 80.3148891,175.239 L80.3148891,136.366 L46.0468891,136.366 C37.4298891,136.366 30.4208891,129.356 30.4208891,120.74 L30.4208891,103.027 C30.7928891,103.044 31.1668891,103.053 31.5438891,103.053 C31.7328891,103.053 31.9198891,103.051 32.1088891,103.047 C32.3028891,103.042 32.4958891,103.035 32.6888891,103.026 L32.6888891,120.74 C32.6888891,128.106 38.6808891,134.098 46.0468891,134.098 L80.3148891,134.098 L80.3148891,117.159 C80.6868891,117.191 81.0628891,117.208 81.4428891,117.208 C81.5478891,117.208 81.6538891,117.206 81.7598891,117.204 C82.0368891,117.197 82.3098891,117.182 82.5818891,117.159 L82.5818891,175.239 C82.5818891,182.604 88.5738891,188.596 95.9398891,188.596 L130.207889,188.596 L130.207889,164.928 C130.207889,156.313 137.217889,149.303 145.833889,149.303 L184.887889,149.303 C192.253889,149.303 198.244889,143.311 198.244889,135.945 L198.244889,126.275 C198.342889,126.276 198.441889,126.277 198.539889,126.277 C198.727889,126.277 198.915889,126.275 199.104889,126.27 C199.577889,126.259 200.047889,126.234 200.512889,126.195 L200.512889,135.945 C200.512889,144.561 193.503889,151.571 184.887889,151.571 L145.833889,151.571 C138.467889,151.571 132.475889,157.563 132.475889,164.928 L132.475889,212.07 C132.475889,219.429 138.463889,225.421 145.824889,225.427 L214.381889,225.478 C222.991889,225.483 229.995889,232.493 229.995889,241.103 L229.995889,351.915 L229.995889,463.829745 L248.138889,463.829745 L248.138889,351.915 L248.138889,282.821 C248.138889,274.206 255.148889,267.196 263.764889,267.196 L320.961889,267.196 C328.327889,267.196 334.319889,261.204 334.319889,253.837 L334.319889,224.842 C334.319889,217.477 328.327889,211.485 320.961889,211.485 L281.907889,211.485 C273.291889,211.485 266.282889,204.475 266.282889,195.859 L266.282889,113.257 L243.353889,113.257 C234.737889,113.257 227.727889,106.247 227.727889,97.631 L227.727889,69.599 C228.099889,69.631 228.475889,69.648 228.855889,69.648 C228.961889,69.648 229.066889,69.646 229.173889,69.644 C229.449889,69.637 229.723889,69.622 229.995889,69.599 L229.995889,97.631 C229.995889,104.997 235.987889,110.989 243.353889,110.989 L266.282889,110.989 L266.282889,46.417 C267.028889,46.497 267.784889,46.542 268.549889,46.549 L268.549889,71.26 L296.014889,71.26 C302.827889,71.26 308.465889,66.133 309.273889,59.534 C309.677889,59.572 310.086889,59.591 310.500889,59.591 C310.606889,59.591 310.711889,59.59 310.817889,59.588 C311.065889,59.582 311.310889,59.569 311.554889,59.55 C310.728889,67.394 304.074889,73.528 296.014889,73.528 L268.549889,73.528 L268.549889,195.859 C268.549889,203.225 274.541889,209.217 281.907889,209.217 L320.961889,209.217 C325.910889,209.217 330.320889,211.536 333.185889,215.137 L333.185889,163.642 C333.185889,155.026 340.194889,148.017 348.810889,148.017 L381.061889,148.017 C388.426889,148.017 394.418889,142.025 394.418889,134.659 L394.418889,121.8 L394.975889,121.8 L394.975889,119.532 L394.418889,119.532 L394.418889,85.414 C394.791889,85.432 395.165889,85.441 395.542889,85.441 C395.730889,85.441 395.918889,85.439 396.107889,85.434 C396.300889,85.43 396.494889,85.423 396.686889,85.413 L396.686889,134.659 C396.686889,143.275 389.676889,150.285 381.061889,150.285 L348.810889,150.285 C341.445889,150.285 335.453889,156.277 335.453889,163.642 L335.453889,217.154 L334.548889,217.154 C335.839889,219.427 336.587889,222.047 336.587889,224.842 L336.587889,241.759 L395.802889,241.759 C403.167889,241.759 409.160889,235.767 409.160889,228.401 L409.160889,212.928 C409.532889,212.946 409.906889,212.955 410.283889,212.955 C410.472889,212.955 410.659889,212.953 410.848889,212.948 C411.042889,212.943 411.235889,212.936 411.427889,212.927 L411.427889,228.401 C411.427889,237.018 404.418889,244.027 395.802889,244.027 L336.587889,244.027 L336.587889,253.837 C336.587889,262.454 329.577889,269.464 320.961889,269.464 L263.764889,269.464 C256.398889,269.464 250.406889,275.456 250.406889,282.821 L250.406889,351.915 L250.415445,356.550144 L250.415445,466.330566 L207.316889,466.330566 L207.316889,351.915 Z" id="Fill-19" fill="#008EB5" fill-rule="evenodd"></path>
                        <path d="M292.004889,23.333 C292.004889,23.146 292.001889,22.959 291.997889,22.771 C291.863889,17.177 289.762889,12.092 286.371889,8.163 L286.479889,12.715 L286.371889,8.163 C283.287889,4.589 279.136889,1.971 274.428889,0.793 L274.492889,3.494 L274.428889,0.793 C272.622889,0.342 270.732889,0.102 268.790889,0.102 C268.602889,0.102 268.415889,0.104 268.225889,0.109 C266.302889,0.155 264.440889,0.433 262.664889,0.916 L262.728889,3.595 L262.664889,0.916 C258.073889,2.166 254.058889,4.785 251.074889,8.298 L251.176889,12.559 L251.074889,8.298 C247.627889,12.355 245.555889,17.607 245.556889,23.318 C245.554889,10.749 255.591889,0.411 268.225889,0.109 C268.415889,0.104 268.602889,0.102 268.790889,0.102 C281.358889,0.102 291.695889,10.138 291.997889,22.771 C292.001889,22.959 292.004889,23.146 292.004889,23.333" id="Fill-20" fill="#008EB5" fill-rule="evenodd"></path>
                        <g id="Group-27" stroke-width="1" fill="none" fill-rule="evenodd" transform="translate(244.576889, 0.000000)">
                            <mask id="mask-4" fill="white">
                                <use xlink:href="#path-3"></use>
                            </mask>
                            <g id="Clip-22"></g>
                            <path d="M42.499,37.632 L42.499,37.632 L42.39,33.08 C44.027,30.035 44.92,26.536 44.831,22.833 C44.743,19.13 43.684,15.678 41.903,12.715 L41.795,8.163 C45.186,12.092 47.287,17.177 47.421,22.771 C47.425,22.959 47.428,23.146 47.428,23.333 C47.428,28.712 45.591,33.682 42.499,37.632" id="Fill-21" fill="#008EB5" mask="url(#mask-4)"></path>
                            <path d="M30.921,45.563 L30.921,45.563 L30.857,42.863 C35.835,41.169 39.943,37.631 42.39,33.08 L42.499,37.632 C39.589,41.349 35.568,44.162 30.921,45.563 M41.903,12.715 C39.243,8.286 34.969,4.948 29.916,3.494 L29.852,0.793 C34.56,1.971 38.711,4.589 41.795,8.163 L41.903,12.715" id="Fill-23" fill="#008EB5" mask="url(#mask-4)"></path>
                            <path d="M24.193,46.55 C24.12,46.55 24.047,46.549 23.973,46.549 C23.208,46.542 22.452,46.497 21.706,46.417 C20.845,46.325 19.996,46.186 19.165,46.002 L19.101,43.323 C20.732,43.739 22.439,43.959 24.194,43.959 C24.362,43.959 24.528,43.957 24.697,43.953 C26.851,43.902 28.919,43.522 30.857,42.863 L30.921,45.563 C28.966,46.153 26.9,46.492 24.758,46.543 C24.569,46.547 24.382,46.55 24.193,46.55 M18.152,3.595 L18.088,0.916 C19.864,0.433 21.726,0.155 23.649,0.109 C23.839,0.104 24.026,0.102 24.214,0.102 C26.156,0.102 28.046,0.342 29.852,0.793 L29.916,3.494 C28.103,2.972 26.19,2.693 24.213,2.693 C24.046,2.693 23.879,2.695 23.711,2.699 C21.778,2.745 19.914,3.055 18.152,3.595" id="Fill-24" fill="#008EB5" mask="url(#mask-4)"></path>
                            <path d="M19.165,46.002 C14.519,44.973 10.384,42.549 7.236,39.182 L7.134,34.921 C9.93,39.03 14.168,42.067 19.101,43.323 L19.165,46.002 M6.6,12.559 L6.498,8.298 C9.482,4.785 13.497,2.166 18.088,0.916 L18.152,3.595 C13.285,5.085 9.197,8.322 6.6,12.559" id="Fill-25" fill="#008EB5" mask="url(#mask-4)"></path>
                            <path d="M7.236,39.182 C3.48,35.166 1.128,29.81 0.987,23.88 C0.982,23.693 0.98,23.505 0.98,23.318 C0.979,17.607 3.051,12.355 6.498,8.298 L6.6,12.559 C4.595,15.83 3.478,19.697 3.577,23.819 C3.675,27.939 4.976,31.749 7.134,34.921 L7.236,39.182" id="Fill-26" fill="#008EB5" mask="url(#mask-4)"></path>
                        </g>
                        <path d="M268.770889,43.959 C267.015889,43.959 265.308889,43.739 263.677889,43.323 C258.744889,42.067 254.506889,39.03 251.710889,34.921 C249.552889,31.749 248.251889,27.939 248.153889,23.819 C248.054889,19.697 249.171889,15.83 251.176889,12.559 C253.773889,8.322 257.861889,5.085 262.728889,3.595 C264.490889,3.055 266.354889,2.745 268.287889,2.699 C268.455889,2.695 268.622889,2.693 268.789889,2.693 C270.766889,2.693 272.679889,2.972 274.492889,3.494 C279.545889,4.948 283.819889,8.286 286.479889,12.715 C288.260889,15.678 289.319889,19.13 289.407889,22.833 C289.496889,26.536 288.603889,30.035 286.966889,33.08 C284.519889,37.631 280.411889,41.169 275.433889,42.863 C273.495889,43.522 271.427889,43.902 269.273889,43.953 C269.104889,43.957 268.938889,43.959 268.770889,43.959 M268.788889,5.713 C268.645889,5.713 268.503889,5.715 268.359889,5.719 C258.635889,5.951 250.940889,14.022 251.172889,23.746 C251.401889,33.327 259.241889,40.938 268.772889,40.939 C268.915889,40.939 269.057889,40.937 269.200889,40.933 C278.925889,40.701 286.620889,32.629 286.387889,22.905 C286.158889,13.324 278.319889,5.713 268.788889,5.713" id="Fill-28" fill="#008EB5" fill-rule="evenodd"></path>
                        <path d="M268.772889,40.939 C259.241889,40.938 251.401889,33.327 251.172889,23.746 C250.940889,14.022 258.635889,5.951 268.359889,5.719 C268.503889,5.715 268.645889,5.713 268.788889,5.713 C278.319889,5.713 286.158889,13.324 286.387889,22.905 C286.620889,32.629 278.925889,40.701 269.200889,40.933 C269.057889,40.937 268.915889,40.939 268.772889,40.939" id="Fill-29" fill="#008EB5" fill-rule="evenodd"></path>
                        <path d="M433.517889,189.738 C433.517889,189.552 433.515889,189.364 433.511889,189.176 C433.377889,183.582 431.276889,178.497 427.884889,174.568 L427.993889,179.12 L427.884889,174.568 C424.801889,170.994 420.650889,168.376 415.942889,167.199 L416.006889,169.899 L415.942889,167.199 C414.135889,166.747 412.246889,166.507 410.305889,166.507 C410.116889,166.507 409.929889,166.509 409.739889,166.514 C407.816889,166.56 405.954889,166.838 404.178889,167.321 L404.242889,170 L404.178889,167.321 C399.587889,168.571 395.572889,171.19 392.588889,174.703 L392.690889,178.964 L392.588889,174.703 C389.141889,178.761 387.069889,184.012 387.070889,189.723 C387.068889,177.154 397.105889,166.816 409.739889,166.514 C409.929889,166.509 410.116889,166.507 410.305889,166.507 C422.872889,166.507 433.209889,176.543 433.511889,189.176 C433.515889,189.364 433.517889,189.552 433.517889,189.738" id="Fill-53" fill="#008EB5" fill-rule="evenodd"></path>
                        <g id="Group-60" stroke-width="1" fill="none" fill-rule="evenodd" transform="translate(386.576889, 166.000000)">
                            <mask id="mask-6" fill="white">
                                <use xlink:href="#path-5"></use>
                            </mask>
                            <g id="Clip-55"></g>
                            <path d="M42.013,38.037 L42.013,38.037 L41.904,33.485 C43.541,30.44 44.434,26.941 44.345,23.238 C44.257,19.535 43.198,16.083 41.417,13.12 L41.308,8.568 C44.7,12.497 46.801,17.582 46.935,23.176 C46.939,23.364 46.941,23.552 46.941,23.738 C46.942,29.117 45.105,34.087 42.013,38.037" id="Fill-54" fill="#008EB5" mask="url(#mask-6)"></path>
                            <path d="M30.435,45.968 L30.435,45.968 L30.371,43.268 C35.349,41.574 39.457,38.036 41.904,33.485 L42.013,38.037 C39.103,41.754 35.082,44.567 30.435,45.968 M41.417,13.12 C38.756,8.691 34.483,5.353 29.43,3.899 L29.366,1.199 C34.074,2.376 38.225,4.994 41.308,8.568 L41.417,13.12" id="Fill-56" fill="#008EB5" mask="url(#mask-6)"></path>
                            <path d="M23.707,46.955 C23.33,46.955 22.956,46.946 22.584,46.928 C21.251,46.864 19.945,46.687 18.679,46.407 L18.615,43.728 C20.246,44.144 21.953,44.364 23.708,44.364 C23.876,44.364 24.042,44.362 24.211,44.358 C26.365,44.307 28.434,43.927 30.371,43.268 L30.435,45.968 C28.656,46.504 26.787,46.833 24.851,46.927 C24.659,46.936 24.466,46.943 24.272,46.948 C24.083,46.953 23.896,46.955 23.707,46.955 M17.666,4 L17.602,1.321 C19.378,0.838 21.24,0.56 23.163,0.514 C23.353,0.509 23.54,0.507 23.729,0.507 C25.67,0.507 27.559,0.747 29.366,1.199 L29.43,3.899 C27.617,3.377 25.703,3.098 23.727,3.098 C23.56,3.098 23.393,3.1 23.225,3.104 C21.292,3.15 19.428,3.46 17.666,4" id="Fill-57" fill="#008EB5" mask="url(#mask-6)"></path>
                            <path d="M18.679,46.407 C14.033,45.378 9.898,42.953 6.75,39.587 L6.648,35.325 C9.444,39.435 13.682,42.472 18.615,43.728 L18.679,46.407 M6.114,12.964 L6.012,8.703 C8.996,5.19 13.011,2.571 17.602,1.321 L17.666,4 C12.799,5.49 8.711,8.727 6.114,12.964" id="Fill-58" fill="#008EB5" mask="url(#mask-6)"></path>
                            <path d="M6.75,39.587 C2.994,35.571 0.642,30.215 0.501,24.285 C0.496,24.098 0.494,23.91 0.494,23.723 C0.493,18.012 2.565,12.761 6.012,8.703 L6.114,12.964 C4.109,16.235 2.992,20.102 3.091,24.223 C3.189,28.344 4.489,32.154 6.648,35.325 L6.75,39.587" id="Fill-59" fill="#008EB5" mask="url(#mask-6)"></path>
                        </g>
                        <path d="M410.284889,210.364 C408.529889,210.364 406.822889,210.144 405.191889,209.728 C400.258889,208.472 396.020889,205.435 393.224889,201.325 C391.065889,198.154 389.765889,194.344 389.667889,190.223 C389.568889,186.102 390.685889,182.235 392.690889,178.964 C395.287889,174.727 399.375889,171.49 404.242889,170 C406.004889,169.46 407.868889,169.15 409.801889,169.104 C409.969889,169.1 410.136889,169.098 410.303889,169.098 C412.279889,169.098 414.193889,169.377 416.006889,169.899 C421.059889,171.353 425.332889,174.691 427.993889,179.12 C429.774889,182.083 430.833889,185.535 430.921889,189.238 C431.010889,192.941 430.117889,196.44 428.480889,199.485 C426.033889,204.036 421.925889,207.574 416.947889,209.268 C415.010889,209.927 412.941889,210.307 410.787889,210.358 C410.618889,210.362 410.452889,210.364 410.284889,210.364 M410.302889,172.118 C410.159889,172.118 410.017889,172.12 409.873889,172.124 C400.149889,172.356 392.454889,180.427 392.686889,190.152 C392.915889,199.732 400.755889,207.343 410.286889,207.343 C410.429889,207.343 410.571889,207.342 410.714889,207.338 C420.439889,207.106 428.133889,199.035 427.901889,189.31 C427.672889,179.73 419.833889,172.118 410.302889,172.118" id="Fill-61" fill="#008EB5" fill-rule="evenodd"></path>
                        <path d="M410.286889,207.343 C400.755889,207.343 392.915889,199.732 392.686889,190.152 C392.454889,180.427 400.149889,172.356 409.873889,172.124 C410.017889,172.12 410.159889,172.118 410.302889,172.118 C419.833889,172.118 427.672889,179.73 427.901889,189.31 C428.133889,199.035 420.439889,207.106 410.714889,207.338 C410.571889,207.342 410.429889,207.343 410.286889,207.343" id="Fill-62" fill="#008EB5" fill-rule="evenodd"></path>
                        <path d="M418.776889,62.225 C418.776889,62.038 418.774889,61.85 418.770889,61.663 C418.636889,56.068 416.534889,50.984 413.143889,47.054 L413.252889,51.606 L413.143889,47.054 C410.059889,43.481 405.909889,40.862 401.201889,39.685 L401.265889,42.385 L401.201889,39.685 C399.394889,39.233 397.505889,38.993 395.563889,38.993 C395.375889,38.993 395.187889,38.996 394.998889,39 C393.075889,39.046 391.213889,39.324 389.437889,39.808 L389.501889,42.486 L389.437889,39.808 C384.845889,41.057 380.830889,43.676 377.846889,47.189 L377.948889,51.45 L377.846889,47.189 C374.400889,51.247 372.328889,56.498 372.329889,62.21 C372.327889,49.64 382.363889,39.302 394.998889,39 C395.187889,38.996 395.375889,38.993 395.563889,38.993 C408.131889,38.993 418.468889,49.029 418.770889,61.663 C418.774889,61.85 418.776889,62.038 418.776889,62.225" id="Fill-64" fill="#008EB5" fill-rule="evenodd"></path>
                        <g id="Group-71" stroke-width="1" fill="none" fill-rule="evenodd" transform="translate(371.576889, 38.000000)">
                            <mask id="mask-8" fill="white">
                                <use xlink:href="#path-7"></use>
                            </mask>
                            <g id="Clip-66"></g>
                            <path d="M42.271,38.524 L42.271,38.524 L42.162,33.971 C43.799,30.926 44.692,27.428 44.604,23.724 C44.515,20.021 43.456,16.57 41.676,13.606 L41.567,9.054 C44.958,12.984 47.06,18.068 47.194,23.663 C47.198,23.85 47.2,24.038 47.2,24.225 C47.201,29.603 45.363,34.574 42.271,38.524" id="Fill-65" fill="#008EB5" mask="url(#mask-8)"></path>
                            <path d="M30.694,46.454 L30.694,46.454 L30.629,43.754 C35.607,42.06 39.716,38.522 42.162,33.971 L42.271,38.524 C39.362,42.24 35.34,45.053 30.694,46.454 M41.676,13.606 C39.015,9.178 34.741,5.839 29.689,4.385 L29.625,1.685 C34.333,2.862 38.483,5.481 41.567,9.054 L41.676,13.606" id="Fill-67" fill="#008EB5" mask="url(#mask-8)"></path>
                            <path d="M23.966,47.441 C23.589,47.441 23.215,47.432 22.842,47.414 C21.509,47.35 20.204,47.174 18.938,46.893 L18.874,44.215 C20.504,44.63 22.211,44.85 23.967,44.85 C24.134,44.85 24.301,44.848 24.469,44.844 C26.623,44.793 28.692,44.413 30.629,43.754 L30.694,46.454 C28.915,46.991 27.045,47.32 25.11,47.413 C24.918,47.423 24.724,47.43 24.531,47.434 C24.342,47.439 24.154,47.441 23.966,47.441 M17.925,4.486 L17.861,1.808 C19.637,1.324 21.499,1.046 23.422,1 C23.611,0.996 23.799,0.993 23.987,0.993 C25.929,0.993 27.818,1.233 29.625,1.685 L29.689,4.385 C27.875,3.863 25.962,3.584 23.986,3.584 C23.818,3.584 23.652,3.586 23.484,3.59 C21.551,3.636 19.687,3.946 17.925,4.486" id="Fill-68" fill="#008EB5" mask="url(#mask-8)"></path>
                            <path d="M18.938,46.893 C14.292,45.864 10.156,43.44 7.008,40.073 L6.906,35.812 C9.703,39.921 13.941,42.959 18.874,44.215 L18.938,46.893 M6.372,13.45 L6.27,9.189 C9.254,5.676 13.269,3.057 17.861,1.808 L17.925,4.486 C13.058,5.976 8.969,9.213 6.372,13.45" id="Fill-69" fill="#008EB5" mask="url(#mask-8)"></path>
                            <path d="M7.008,40.073 C3.253,36.057 0.901,30.701 0.759,24.772 C0.755,24.584 0.753,24.396 0.753,24.21 C0.752,18.498 2.824,13.247 6.27,9.189 L6.372,13.45 C4.367,16.722 3.251,20.589 3.349,24.71 C3.448,28.83 4.748,32.64 6.906,35.812 L7.008,40.073" id="Fill-70" fill="#008EB5" mask="url(#mask-8)"></path>
                        </g>
                        <path d="M395.543889,82.85 C393.787889,82.85 392.080889,82.63 390.450889,82.215 C385.517889,80.959 381.279889,77.921 378.482889,73.812 C376.324889,70.64 375.024889,66.83 374.925889,62.71 C374.827889,58.589 375.943889,54.722 377.948889,51.45 C380.545889,47.213 384.634889,43.976 389.501889,42.486 C391.263889,41.946 393.127889,41.636 395.060889,41.59 C395.228889,41.586 395.394889,41.584 395.562889,41.584 C397.538889,41.584 399.451889,41.863 401.265889,42.385 C406.317889,43.839 410.591889,47.178 413.252889,51.606 C415.032889,54.57 416.091889,58.021 416.180889,61.724 C416.268889,65.428 415.375889,68.926 413.738889,71.971 C411.292889,76.522 407.183889,80.06 402.205889,81.754 C400.268889,82.413 398.199889,82.793 396.045889,82.844 C395.877889,82.848 395.710889,82.85 395.543889,82.85 M395.560889,44.605 C395.418889,44.605 395.275889,44.606 395.132889,44.61 C385.408889,44.842 377.713889,52.914 377.945889,62.638 C378.174889,72.218 386.013889,79.829 395.544889,79.83 C395.687889,79.83 395.829889,79.828 395.973889,79.824 C405.697889,79.592 413.392889,71.521 413.160889,61.797 C412.931889,52.216 405.092889,44.605 395.560889,44.605" id="Fill-72" fill="#008EB5" fill-rule="evenodd"></path>
                        <path d="M395.544889,79.83 C386.013889,79.829 378.174889,72.218 377.945889,62.638 C377.713889,52.914 385.408889,44.842 395.132889,44.61 C395.275889,44.606 395.418889,44.605 395.560889,44.605 C405.092889,44.605 412.931889,52.216 413.160889,61.797 C413.392889,71.521 405.697889,79.592 395.973889,79.824 C395.829889,79.828 395.687889,79.83 395.544889,79.83" id="Fill-73" fill="#008EB5" fill-rule="evenodd"></path>
                        <path d="M221.773889,103.061 C221.773889,102.874 221.771889,102.686 221.767889,102.499 C221.633889,96.905 219.531889,91.82 216.140889,87.89 L216.249889,92.442 L216.140889,87.89 C213.056889,84.317 208.905889,81.698 204.197889,80.521 L204.262889,83.221 L204.197889,80.521 C202.391889,80.069 200.502889,79.83 198.560889,79.83 C198.372889,79.83 198.184889,79.832 197.995889,79.836 C196.072889,79.882 194.210889,80.16 192.434889,80.644 L192.498889,83.322 L192.434889,80.644 C187.842889,81.893 183.827889,84.512 180.843889,88.025 L180.945889,92.287 L180.843889,88.025 C177.397889,92.083 175.325889,97.334 175.326889,103.046 C175.324889,90.476 185.360889,80.138 197.995889,79.836 C198.184889,79.832 198.372889,79.83 198.560889,79.83 C211.128889,79.83 221.465889,89.866 221.767889,102.499 C221.771889,102.686 221.773889,102.874 221.773889,103.061" id="Fill-75" fill="#008EB5" fill-rule="evenodd"></path>
                        <g id="Group-82" stroke-width="1" fill="none" fill-rule="evenodd" transform="translate(174.576889, 79.000000)">
                            <mask id="mask-10" fill="white">
                                <use xlink:href="#path-9"></use>
                            </mask>
                            <g id="Clip-77"></g>
                            <path d="M42.268,38.36 L42.268,38.36 L42.159,33.808 C43.796,30.762 44.689,27.264 44.601,23.56 C44.512,19.857 43.453,16.406 41.673,13.442 L41.564,8.89 C44.955,12.82 47.057,17.905 47.191,23.499 C47.195,23.686 47.197,23.874 47.197,24.061 C47.198,29.439 45.36,34.41 42.268,38.36" id="Fill-76" fill="#008EB5" mask="url(#mask-10)"></path>
                            <path d="M30.691,46.29 L30.691,46.29 L30.627,43.59 C35.604,41.897 39.713,38.359 42.159,33.808 L42.268,38.36 C39.359,42.076 35.337,44.889 30.691,46.29 M41.673,13.442 C39.012,9.013 34.739,5.675 29.686,4.221 L29.621,1.521 C34.329,2.698 38.48,5.317 41.564,8.89 L41.673,13.442" id="Fill-78" fill="#008EB5" mask="url(#mask-10)"></path>
                            <path d="M23.963,47.277 C23.865,47.277 23.766,47.276 23.668,47.275 C22.047,47.255 20.463,47.068 18.935,46.729 L18.871,44.051 C20.501,44.466 22.208,44.686 23.964,44.686 C24.131,44.686 24.298,44.684 24.466,44.68 C26.62,44.629 28.689,44.249 30.627,43.59 L30.691,46.29 C29.168,46.75 27.577,47.057 25.936,47.195 C25.471,47.234 25.001,47.259 24.528,47.27 C24.339,47.275 24.151,47.277 23.963,47.277 M17.922,4.322 L17.858,1.644 C19.634,1.16 21.496,0.882 23.419,0.836 C23.608,0.832 23.796,0.83 23.984,0.83 C25.926,0.83 27.815,1.069 29.621,1.521 L29.686,4.221 C27.873,3.699 25.958,3.42 23.983,3.42 C23.816,3.42 23.649,3.422 23.481,3.426 C21.548,3.472 19.684,3.783 17.922,4.322" id="Fill-79" fill="#008EB5" mask="url(#mask-10)"></path>
                            <path d="M18.935,46.729 C14.289,45.7 10.153,43.276 7.005,39.909 L6.903,35.648 C9.7,39.757 13.938,42.795 18.871,44.051 L18.935,46.729 M6.369,13.287 L6.267,9.025 C9.251,5.512 13.266,2.893 17.858,1.644 L17.922,4.322 C13.054,5.812 8.966,9.049 6.369,13.287" id="Fill-80" fill="#008EB5" mask="url(#mask-10)"></path>
                        </g>
                        <path d="M198.540889,123.686 C196.784889,123.686 195.077889,123.466 193.447889,123.051 C188.514889,121.795 184.276889,118.757 181.479889,114.648 C179.321889,111.477 178.021889,107.667 177.922889,103.546 C177.824889,99.426 178.941889,95.558 180.945889,92.287 C183.542889,88.049 187.630889,84.812 192.498889,83.322 C194.260889,82.783 196.124889,82.472 198.057889,82.426 C198.225889,82.422 198.392889,82.42 198.559889,82.42 C200.534889,82.42 202.449889,82.699 204.262889,83.221 C209.315889,84.675 213.588889,88.013 216.249889,92.442 C218.029889,95.406 219.088889,98.857 219.177889,102.56 C219.265889,106.264 218.372889,109.762 216.735889,112.808 C214.289889,117.359 210.180889,120.897 205.203889,122.59 C203.265889,123.249 201.196889,123.629 199.042889,123.68 C198.874889,123.684 198.707889,123.686 198.540889,123.686 M198.558889,85.441 C198.415889,85.441 198.273889,85.443 198.129889,85.446 C188.405889,85.678 180.710889,93.75 180.942889,103.474 C181.171889,113.055 189.010889,120.665 198.541889,120.666 C198.684889,120.666 198.826889,120.664 198.970889,120.661 C208.694889,120.429 216.389889,112.357 216.157889,102.633 C215.928889,93.052 208.089889,85.441 198.558889,85.441" id="Fill-83" fill="#008EB5" fill-rule="evenodd"></path>
                        <path d="M198.541889,120.666 C189.010889,120.665 181.171889,113.055 180.942889,103.474 C180.710889,93.75 188.405889,85.678 198.129889,85.446 C198.273889,85.443 198.415889,85.441 198.558889,85.441 C208.089889,85.441 215.928889,93.052 216.157889,102.633 C216.389889,112.357 208.694889,120.429 198.970889,120.661 C198.826889,120.664 198.684889,120.666 198.541889,120.666" id="Fill-84" fill="#008EB5" fill-rule="evenodd"></path>
                        <path d="M241.903889,56.631 C241.903889,56.519 241.902889,56.407 241.899889,56.294 C241.824889,53.153 240.644889,50.297 238.740889,48.091 L238.801889,50.647 L238.740889,48.091 C237.008889,46.084 234.677889,44.614 232.033889,43.952 L232.069889,45.469 L232.033889,43.952 C231.019889,43.699 229.958889,43.564 228.867889,43.564 C228.761889,43.564 228.656889,43.565 228.550889,43.568 C227.470889,43.594 226.424889,43.75 225.427889,44.021 L225.463889,45.525 L225.427889,44.021 C222.849889,44.723 220.594889,46.194 218.918889,48.166 L218.976889,50.559 L218.918889,48.166 C216.987889,50.44 215.824889,53.381 215.820889,56.581 C215.830889,49.531 221.462889,43.737 228.550889,43.568 C228.656889,43.565 228.761889,43.564 228.867889,43.564 C235.925889,43.564 241.730889,49.2 241.899889,56.294 C241.902889,56.407 241.903889,56.519 241.903889,56.631" id="Fill-86" fill="#008EB5" fill-rule="evenodd"></path>
                        <g id="Group-93" stroke-width="1" fill="none" fill-rule="evenodd" transform="translate(215.576889, 43.000000)">
                            <mask id="mask-12" fill="white">
                                <use xlink:href="#path-11"></use>
                            </mask>
                            <g id="Clip-88"></g>
                            <path d="M23.559,21.64 L23.559,21.64 L23.498,19.084 C24.417,17.374 24.919,15.409 24.869,13.329 C24.819,11.249 24.225,9.311 23.225,7.647 L23.164,5.091 C25.068,7.297 26.248,10.153 26.323,13.294 C26.326,13.407 26.327,13.519 26.327,13.631 C26.323,16.643 25.292,19.427 23.559,21.64" id="Fill-87" fill="#008EB5" mask="url(#mask-12)"></path>
                            <path d="M17.058,26.093 L17.058,26.093 L17.022,24.577 C19.817,23.626 22.124,21.639 23.498,19.084 L23.559,21.64 C21.925,23.727 19.667,25.307 17.058,26.093 M23.225,7.647 C21.731,5.16 19.331,3.285 16.493,2.469 L16.457,0.952 C19.101,1.614 21.432,3.084 23.164,5.091 L23.225,7.647" id="Fill-89" fill="#008EB5" mask="url(#mask-12)"></path>
                            <path d="M13.279,26.648 C12.899,26.648 12.523,26.631 12.151,26.599 C11.575,26.55 11.009,26.462 10.456,26.34 L10.42,24.836 C11.336,25.069 12.294,25.193 13.28,25.193 C13.374,25.193 13.468,25.192 13.562,25.189 C14.772,25.161 15.934,24.947 17.022,24.577 L17.058,26.093 C16.212,26.348 15.329,26.52 14.419,26.599 C14.147,26.622 13.873,26.637 13.597,26.644 C13.49,26.646 13.385,26.648 13.279,26.648 M9.887,2.525 L9.851,1.021 C10.848,0.75 11.894,0.594 12.974,0.568 C13.08,0.565 13.185,0.564 13.291,0.564 C14.382,0.564 15.443,0.699 16.457,0.952 L16.493,2.469 C15.475,2.175 14.4,2.019 13.291,2.019 C13.197,2.019 13.103,2.02 13.009,2.022 C11.923,2.048 10.877,2.222 9.887,2.525" id="Fill-90" fill="#008EB5" mask="url(#mask-12)"></path>
                            <path d="M10.456,26.34 C7.847,25.762 5.525,24.401 3.757,22.51 L3.699,20.117 C5.27,22.424 7.65,24.131 10.42,24.836 L10.456,26.34 M3.4,7.559 L3.342,5.166 C5.018,3.194 7.273,1.723 9.851,1.021 L9.887,2.525 C7.154,3.362 4.858,5.18 3.4,7.559" id="Fill-91" fill="#008EB5" mask="url(#mask-12)"></path>
                            <path d="M3.757,22.51 C1.648,20.255 0.327,17.247 0.247,13.917 C0.245,13.805 0.243,13.693 0.244,13.581 C0.248,10.381 1.411,7.44 3.342,5.166 L3.4,7.559 C2.274,9.397 1.646,11.568 1.702,13.883 C1.757,16.197 2.487,18.336 3.699,20.117 L3.757,22.51" id="Fill-92" fill="#008EB5" mask="url(#mask-12)"></path>
                        </g>
                        <path d="M228.856889,68.193 C227.870889,68.193 226.912889,68.069 225.996889,67.836 C223.226889,67.131 220.846889,65.424 219.275889,63.117 C218.063889,61.336 217.333889,59.197 217.278889,56.883 C217.222889,54.568 217.850889,52.397 218.976889,50.559 C220.434889,48.18 222.730889,46.362 225.463889,45.525 C226.453889,45.222 227.499889,45.048 228.585889,45.022 C228.679889,45.02 228.773889,45.019 228.867889,45.019 C229.976889,45.019 231.051889,45.175 232.069889,45.469 C234.907889,46.285 237.307889,48.16 238.801889,50.647 C239.801889,52.311 240.395889,54.249 240.445889,56.329 C240.495889,58.409 239.993889,60.374 239.074889,62.084 C237.700889,64.639 235.393889,66.626 232.598889,67.577 C231.510889,67.947 230.348889,68.161 229.138889,68.189 C229.044889,68.192 228.950889,68.193 228.856889,68.193 M228.866889,46.715 C228.786889,46.715 228.706889,46.716 228.625889,46.718 C223.164889,46.849 218.843889,51.381 218.974889,56.842 C219.102889,62.222 223.504889,66.496 228.857889,66.496 C228.937889,66.496 229.017889,66.495 229.098889,66.494 C234.559889,66.363 238.880889,61.83 238.749889,56.37 C238.621889,50.99 234.218889,46.715 228.866889,46.715" id="Fill-94" fill="#008EB5" fill-rule="evenodd"></path>
                        <path d="M228.857889,66.496 C223.504889,66.496 219.102889,62.222 218.974889,56.842 C218.843889,51.381 223.164889,46.849 228.625889,46.718 C228.706889,46.716 228.786889,46.715 228.866889,46.715 C234.218889,46.715 238.621889,50.99 238.749889,56.37 C238.880889,61.83 234.559889,66.363 229.098889,66.494 C229.017889,66.495 228.937889,66.496 228.857889,66.496" id="Fill-95" fill="#008EB5" fill-rule="evenodd"></path>
                        <path d="M323.548889,46.575 C323.548889,46.463 323.547889,46.351 323.544889,46.238 C323.469889,43.097 322.289889,40.241 320.385889,38.035 L320.446889,40.591 L320.385889,38.035 C318.653889,36.028 316.322889,34.557 313.678889,33.896 L313.714889,35.412 L313.678889,33.896 C312.663889,33.642 311.602889,33.508 310.512889,33.508 C310.406889,33.508 310.301889,33.509 310.194889,33.512 C309.115889,33.537 308.069889,33.694 307.072889,33.965 L307.108889,35.469 L307.072889,33.965 C304.493889,34.667 302.239889,36.137 300.563889,38.11 L300.620889,40.503 L300.563889,38.11 C298.632889,40.384 297.469889,43.325 297.464889,46.524 C297.474889,39.475 303.106889,33.681 310.194889,33.512 C310.301889,33.509 310.406889,33.508 310.512889,33.508 C317.570889,33.508 323.375889,39.144 323.544889,46.238 C323.547889,46.351 323.548889,46.463 323.548889,46.575" id="Fill-97" fill="#008EB5" fill-rule="evenodd"></path>
                        <g id="Group-104" stroke-width="1" fill="none" fill-rule="evenodd" transform="translate(296.576889, 33.000000)">
                            <mask id="mask-14" fill="white">
                                <use xlink:href="#path-13"></use>
                            </mask>
                            <g id="Clip-99"></g>
                            <path d="M24.204,21.584 L24.204,21.584 L24.143,19.027 C25.062,17.317 25.563,15.352 25.514,13.273 C25.464,11.194 24.869,9.255 23.87,7.591 L23.809,5.035 C25.713,7.241 26.893,10.097 26.968,13.238 C26.971,13.351 26.972,13.463 26.972,13.575 C26.967,16.587 25.936,19.371 24.204,21.584" id="Fill-98" fill="#008EB5" mask="url(#mask-14)"></path>
                            <path d="M17.702,26.037 L17.702,26.037 L17.666,24.521 C20.462,23.57 22.769,21.583 24.143,19.027 L24.204,21.584 C22.57,23.671 20.312,25.251 17.702,26.037 M23.87,7.591 C22.376,5.104 19.975,3.229 17.138,2.412 L17.102,0.896 C19.746,1.557 22.077,3.028 23.809,5.035 L23.87,7.591" id="Fill-100" fill="#008EB5" mask="url(#mask-14)"></path>
                            <path d="M13.924,26.591 C13.51,26.591 13.101,26.572 12.697,26.534 C12.155,26.483 11.622,26.399 11.1,26.284 L11.065,24.78 C11.98,25.013 12.939,25.137 13.925,25.137 C14.019,25.137 14.112,25.136 14.207,25.133 C15.416,25.104 16.578,24.891 17.666,24.521 L17.702,26.037 C16.83,26.3 15.918,26.475 14.978,26.55 C14.734,26.569 14.489,26.582 14.241,26.588 C14.135,26.59 14.03,26.591 13.924,26.591 M10.532,2.469 L10.496,0.965 C11.493,0.694 12.539,0.537 13.618,0.512 C13.725,0.509 13.83,0.508 13.936,0.508 C15.026,0.508 16.087,0.642 17.102,0.896 L17.138,2.412 C16.119,2.119 15.045,1.963 13.935,1.963 C13.841,1.963 13.748,1.964 13.653,1.966 C12.568,1.992 11.521,2.166 10.532,2.469" id="Fill-101" fill="#008EB5" mask="url(#mask-14)"></path>
                            <path d="M11.1,26.284 C8.492,25.706 6.169,24.344 4.401,22.454 L4.344,20.061 C5.914,22.368 8.294,24.074 11.065,24.78 L11.1,26.284 M4.044,7.503 L3.987,5.11 C5.663,3.137 7.917,1.667 10.496,0.965 L10.532,2.469 C7.798,3.306 5.503,5.123 4.044,7.503" id="Fill-102" fill="#008EB5" mask="url(#mask-14)"></path>
                            <path d="M4.401,22.454 C2.292,20.199 0.971,17.191 0.892,13.861 C0.889,13.749 0.888,13.636 0.888,13.524 C0.893,10.325 2.056,7.384 3.987,5.11 L4.044,7.503 C2.918,9.34 2.291,11.512 2.346,13.826 C2.402,16.14 3.132,18.28 4.344,20.061 L4.401,22.454" id="Fill-103" fill="#008EB5" mask="url(#mask-14)"></path>
                        </g>
                        <path d="M310.501889,58.137 C309.515889,58.137 308.556889,58.013 307.641889,57.78 C304.870889,57.074 302.490889,55.368 300.920889,53.061 C299.708889,51.28 298.978889,49.14 298.922889,46.826 C298.867889,44.512 299.494889,42.34 300.620889,40.503 C302.079889,38.123 304.374889,36.306 307.108889,35.469 C308.097889,35.166 309.144889,34.992 310.229889,34.966 C310.324889,34.964 310.417889,34.963 310.511889,34.963 C311.621889,34.963 312.695889,35.119 313.714889,35.412 C316.551889,36.229 318.952889,38.104 320.446889,40.591 C321.445889,42.255 322.040889,44.194 322.090889,46.273 C322.139889,48.352 321.638889,50.317 320.719889,52.027 C319.345889,54.583 317.038889,56.57 314.242889,57.521 C313.154889,57.891 311.992889,58.104 310.783889,58.133 C310.688889,58.136 310.595889,58.137 310.501889,58.137 M310.510889,36.659 C310.430889,36.659 310.350889,36.66 310.270889,36.662 C304.809889,36.792 300.488889,41.325 300.618889,46.786 C300.747889,52.166 305.149889,56.44 310.501889,56.44 C310.582889,56.44 310.662889,56.439 310.742889,56.437 C316.203889,56.307 320.524889,51.774 320.394889,46.313 C320.265889,40.933 315.863889,36.659 310.510889,36.659" id="Fill-105" fill="#008EB5" fill-rule="evenodd"></path>
                        <path d="M310.501889,56.44 C305.149889,56.44 300.747889,52.166 300.618889,46.786 C300.488889,41.325 304.809889,36.792 310.270889,36.662 C310.350889,36.66 310.430889,36.659 310.510889,36.659 C315.863889,36.659 320.265889,40.933 320.394889,46.313 C320.524889,51.774 316.203889,56.307 310.742889,56.437 C310.662889,56.439 310.582889,56.44 310.501889,56.44" id="Fill-106" fill="#008EB5" fill-rule="evenodd"></path>
                        <path d="M394.975889,121.8 L376.615889,121.8 C370.042889,121.8 364.609889,116.825 363.884889,110.442 C364.229889,110.47 364.578889,110.484 364.929889,110.484 C365.035889,110.484 365.141889,110.483 365.247889,110.48 C365.557889,110.473 365.864889,110.455 366.168889,110.426 C366.872889,115.562 371.289889,119.532 376.615889,119.532 L394.975889,119.532 L394.975889,121.8" id="Fill-119" fill="#008EB5" fill-rule="evenodd"></path>
                        <path d="M377.978889,97.467 C377.978889,97.356 377.976889,97.243 377.974889,97.131 C377.899889,93.989 376.719889,91.134 374.814889,88.927 L374.875889,91.483 L374.814889,88.927 C373.082889,86.92 370.751889,85.45 368.107889,84.789 L368.144889,86.305 L368.107889,84.789 C367.093889,84.535 366.032889,84.4 364.942889,84.4 C364.836889,84.4 364.731889,84.402 364.624889,84.404 C363.544889,84.43 362.499889,84.586 361.501889,84.858 L361.537889,86.362 L361.501889,84.858 C358.923889,85.559 356.668889,87.03 354.993889,89.003 L355.050889,91.396 L354.993889,89.003 C353.061889,91.276 351.898889,94.217 351.894889,97.417 C351.904889,90.368 357.536889,84.573 364.624889,84.404 C364.731889,84.402 364.836889,84.4 364.942889,84.4 C372.000889,84.4 377.804889,90.036 377.974889,97.131 C377.976889,97.243 377.978889,97.356 377.978889,97.467" id="Fill-120" fill="#008EB5" fill-rule="evenodd"></path>
                        <g id="Group-127" stroke-width="1" fill="none" fill-rule="evenodd" transform="translate(351.576889, 84.000000)">
                            <mask id="mask-16" fill="white">
                                <use xlink:href="#path-15"></use>
                            </mask>
                            <g id="Clip-122"></g>
                            <path d="M23.633,21.476 L23.633,21.476 L23.572,18.92 C24.492,17.21 24.993,15.245 24.943,13.165 C24.894,11.086 24.299,9.147 23.299,7.483 L23.238,4.927 C25.143,7.134 26.323,9.989 26.398,13.131 C26.4,13.243 26.402,13.356 26.402,13.467 C26.397,16.48 25.366,19.263 23.633,21.476" id="Fill-121" fill="#008EB5" mask="url(#mask-16)"></path>
                            <path d="M17.132,25.93 L17.132,25.93 L17.096,24.414 C19.891,23.463 22.199,21.475 23.572,18.92 L23.633,21.476 C22,23.563 19.741,25.143 17.132,25.93 M23.299,7.483 C21.805,4.996 19.405,3.122 16.568,2.305 L16.531,0.789 C19.175,1.45 21.506,2.92 23.238,4.927 L23.299,7.483" id="Fill-123" fill="#008EB5" mask="url(#mask-16)"></path>
                            <path d="M13.353,26.484 C13.002,26.484 12.653,26.47 12.308,26.442 C11.703,26.394 11.11,26.305 10.53,26.176 L10.494,24.672 C11.41,24.905 12.369,25.029 13.355,25.029 C13.449,25.029 13.542,25.028 13.637,25.026 C14.846,24.997 16.008,24.784 17.096,24.414 L17.132,25.93 C16.317,26.176 15.467,26.344 14.592,26.426 C14.288,26.455 13.981,26.473 13.671,26.48 C13.565,26.483 13.459,26.484 13.353,26.484 M9.961,2.362 L9.925,0.858 C10.923,0.586 11.968,0.43 13.048,0.404 C13.155,0.402 13.26,0.4 13.366,0.4 C14.456,0.4 15.517,0.535 16.531,0.789 L16.568,2.305 C15.549,2.012 14.475,1.855 13.365,1.855 C13.271,1.855 13.178,1.856 13.083,1.858 C11.998,1.884 10.951,2.059 9.961,2.362" id="Fill-124" fill="#008EB5" mask="url(#mask-16)"></path>
                            <path d="M10.53,26.176 C7.921,25.599 5.599,24.237 3.831,22.347 L3.774,19.953 C5.344,22.261 7.724,23.967 10.494,24.672 L10.53,26.176 M3.474,7.396 L3.417,5.003 C5.092,3.03 7.347,1.559 9.925,0.858 L9.961,2.362 C7.228,3.198 4.932,5.016 3.474,7.396" id="Fill-125" fill="#008EB5" mask="url(#mask-16)"></path>
                            <path d="M3.831,22.347 C1.722,20.092 0.401,17.083 0.322,13.754 C0.319,13.641 0.318,13.529 0.318,13.417 C0.322,10.217 1.485,7.276 3.417,5.003 L3.474,7.396 C2.348,9.233 1.721,11.405 1.776,13.719 C1.831,16.033 2.562,18.172 3.774,19.953 L3.831,22.347" id="Fill-126" fill="#008EB5" mask="url(#mask-16)"></path>
                        </g>
                        <path d="M364.931889,109.029 C363.945889,109.029 362.986889,108.905 362.070889,108.672 C359.300889,107.967 356.920889,106.261 355.350889,103.953 C354.138889,102.172 353.407889,100.033 353.352889,97.719 C353.297889,95.405 353.924889,93.233 355.050889,91.396 C356.508889,89.016 358.804889,87.198 361.537889,86.362 C362.527889,86.059 363.574889,85.884 364.659889,85.858 C364.754889,85.856 364.847889,85.855 364.941889,85.855 C366.051889,85.855 367.125889,86.012 368.144889,86.305 C370.981889,87.122 373.381889,88.996 374.875889,91.483 C375.875889,93.147 376.470889,95.086 376.519889,97.165 C376.569889,99.245 376.068889,101.21 375.148889,102.92 C373.775889,105.475 371.467889,107.463 368.672889,108.414 C367.584889,108.784 366.422889,108.997 365.213889,109.026 C365.118889,109.028 365.025889,109.029 364.931889,109.029 M364.940889,87.551 C364.860889,87.551 364.780889,87.552 364.699889,87.554 C359.239889,87.685 354.917889,92.217 355.048889,97.678 C355.176889,103.059 359.579889,107.333 364.931889,107.333 C365.012889,107.333 365.091889,107.332 365.172889,107.33 C370.633889,107.199 374.954889,102.667 374.823889,97.206 C374.695889,91.826 370.293889,87.551 364.940889,87.551" id="Fill-128" fill="#008EB5" fill-rule="evenodd"></path>
                        <path d="M364.931889,107.333 C359.579889,107.333 355.176889,103.059 355.048889,97.678 C354.917889,92.217 359.239889,87.685 364.699889,87.554 C364.780889,87.552 364.860889,87.551 364.940889,87.551 C370.293889,87.551 374.695889,91.826 374.823889,97.206 C374.954889,102.667 370.633889,107.199 365.172889,107.33 C365.091889,107.332 365.012889,107.333 364.931889,107.333" id="Fill-129" fill="#008EB5" fill-rule="evenodd"></path>
                        <path d="M417.531216,183.702266 L414.312123,183.702266 C414.814186,184.440594 415.139045,185.306886 415.28671,186.301168 L418.26954,186.301168 L417.531216,188.988668 L415.301477,188.988668 C415.084901,190.612989 414.435182,191.855822 413.352301,192.717205 C412.26942,193.578587 410.738643,194.092948 408.759925,194.260302 L415.641106,202.308036 L415.641106,202.5 L411.403125,202.5 L403.886985,193.743475 L403.872219,191.484203 L407.608139,191.484203 C408.710709,191.484203 409.584384,191.255325 410.22919,190.797562 C410.873996,190.339799 411.304681,189.73684 411.521257,188.988668 L403.576889,188.988668 L404.32998,186.301168 L411.462191,186.301168 C410.979817,184.77529 409.675457,184.012363 407.549073,184.012363 L403.576889,184.012363 L404.374279,181 L418.284307,181 L417.531216,183.702266 Z" id="₹-copy-3" fill-opacity="0.99" fill="#FFFFFF" fill-rule="nonzero"></path>
                        <path d="M403.531216,55.7022665 L400.312123,55.7022665 C400.814186,56.4405944 401.139045,57.3068861 401.28671,58.3011676 L404.26954,58.3011676 L403.531216,60.9886676 L401.301477,60.9886676 C401.084901,62.6129889 400.435182,63.8558222 399.352301,64.7172047 C398.26942,65.5785872 396.738643,66.0929479 394.759925,66.2603022 L401.641106,74.3080357 L401.641106,74.5 L397.403125,74.5 L389.886985,65.7434753 L389.872219,63.4842033 L393.608139,63.4842033 C394.710709,63.4842033 395.584384,63.2553251 396.22919,62.7975618 C396.873996,62.3397985 397.304681,61.7368398 397.521257,60.9886676 L389.576889,60.9886676 L390.32998,58.3011676 L397.462191,58.3011676 C396.979817,56.77529 395.675457,56.0123626 393.549073,56.0123626 L389.576889,56.0123626 L390.374279,53 L404.284307,53 L403.531216,55.7022665 Z" id="₹-copy-4" fill-opacity="0.99" fill="#FFFFFF" fill-rule="nonzero"></path>
                        <path d="M205.531216,96.7022665 L202.312123,96.7022665 C202.814186,97.4405944 203.139045,98.3068861 203.28671,99.3011676 L206.26954,99.3011676 L205.531216,101.988668 L203.301477,101.988668 C203.084901,103.612989 202.435182,104.855822 201.352301,105.717205 C200.26942,106.578587 198.738643,107.092948 196.759925,107.260302 L203.641106,115.308036 L203.641106,115.5 L199.403125,115.5 L191.886985,106.743475 L191.872219,104.484203 L195.608139,104.484203 C196.710709,104.484203 197.584384,104.255325 198.22919,103.797562 C198.873996,103.339799 199.304681,102.73684 199.521257,101.988668 L191.576889,101.988668 L192.32998,99.3011676 L199.462191,99.3011676 C198.979817,97.77529 197.675457,97.0123626 195.549073,97.0123626 L191.576889,97.0123626 L192.374279,94 L206.284307,94 L205.531216,96.7022665 Z" id="₹-copy-6" fill-opacity="0.99" fill="#FFFFFF" fill-rule="nonzero"></path>
                        <path d="M275.531216,16.7022665 L272.312123,16.7022665 C272.814186,17.4405944 273.139045,18.3068861 273.28671,19.3011676 L276.26954,19.3011676 L275.531216,21.9886676 L273.301477,21.9886676 C273.084901,23.6129889 272.435182,24.8558222 271.352301,25.7172047 C270.26942,26.5785872 268.738643,27.0929479 266.759925,27.2603022 L273.641106,35.3080357 L273.641106,35.5 L269.403125,35.5 L261.886985,26.7434753 L261.872219,24.4842033 L265.608139,24.4842033 C266.710709,24.4842033 267.584384,24.2553251 268.22919,23.7975618 C268.873996,23.3397985 269.304681,22.7368398 269.521257,21.9886676 L261.576889,21.9886676 L262.32998,19.3011676 L269.462191,19.3011676 C268.979817,17.77529 267.675457,17.0123626 265.549073,17.0123626 L261.576889,17.0123626 L262.374279,14 L276.284307,14 L275.531216,16.7022665 Z" id="₹-copy-5" fill-opacity="0.99" fill="#FFFFFF" fill-rule="nonzero"></path>
                        <path d="M232.288457,53.4933513 L230.509492,53.4933513 C230.786947,53.9013728 230.966474,54.3801108 231.048078,54.9295798 L232.696477,54.9295798 L232.288457,56.4147707 L231.056238,56.4147707 C230.936552,57.312418 230.577498,57.9992439 229.979067,58.475269 C229.380635,58.9512941 228.534683,59.2355448 227.441186,59.3280297 L231.243927,63.7754419 L231.243927,63.881527 L228.901895,63.881527 L224.748257,59.0424161 L224.740097,57.7938765 L226.804675,57.7938765 C227.413987,57.7938765 227.896806,57.6673917 228.253144,57.4144184 C228.609483,57.161445 228.847492,56.8282325 228.967179,56.4147707 L224.576889,56.4147707 L224.993069,54.9295798 L228.934537,54.9295798 C228.667963,54.0863353 227.947136,53.6647194 226.772034,53.6647194 L224.576889,53.6647194 L225.01755,52 L232.704637,52 L232.288457,53.4933513 Z" id="₹-copy-9" fill-opacity="0.99" fill="#FFFFFF" fill-rule="nonzero"></path>
                        <path d="M314.288457,43.4933513 L312.509492,43.4933513 C312.786947,43.9013728 312.966474,44.3801108 313.048078,44.9295798 L314.696477,44.9295798 L314.288457,46.4147707 L313.056238,46.4147707 C312.936552,47.312418 312.577498,47.9992439 311.979067,48.475269 C311.380635,48.9512941 310.534683,49.2355448 309.441186,49.3280297 L313.243927,53.7754419 L313.243927,53.881527 L310.901895,53.881527 L306.748257,49.0424161 L306.740097,47.7938765 L308.804675,47.7938765 C309.413987,47.7938765 309.896806,47.6673917 310.253144,47.4144184 C310.609483,47.161445 310.847492,46.8282325 310.967179,46.4147707 L306.576889,46.4147707 L306.993069,44.9295798 L310.934537,44.9295798 C310.667963,44.0863353 309.947136,43.6647194 308.772034,43.6647194 L306.576889,43.6647194 L307.01755,42 L314.704637,42 L314.288457,43.4933513 Z" id="₹-copy-9" fill-opacity="0.99" fill="#FFFFFF" fill-rule="nonzero"></path>
                        <path d="M369.288457,93.4933513 L367.509492,93.4933513 C367.786947,93.9013728 367.966474,94.3801108 368.048078,94.9295798 L369.696477,94.9295798 L369.288457,96.4147707 L368.056238,96.4147707 C367.936552,97.312418 367.577498,97.9992439 366.979067,98.475269 C366.380635,98.9512941 365.534683,99.2355448 364.441186,99.3280297 L368.243927,103.775442 L368.243927,103.881527 L365.901895,103.881527 L361.748257,99.0424161 L361.740097,97.7938765 L363.804675,97.7938765 C364.413987,97.7938765 364.896806,97.6673917 365.253144,97.4144184 C365.609483,97.161445 365.847492,96.8282325 365.967179,96.4147707 L361.576889,96.4147707 L361.993069,94.9295798 L365.934537,94.9295798 C365.667963,94.0863353 364.947136,93.6647194 363.772034,93.6647194 L361.576889,93.6647194 L362.01755,92 L369.704637,92 L369.288457,93.4933513 Z" id="₹-copy-9" fill-opacity="0.99" fill="#FFFFFF" fill-rule="nonzero"></path>
                    </g>
                </g>
            </g>
        </g>
    </g>
</svg>