<?xml version="1.0" encoding="UTF-8"?>
<svg width="9px" height="9px" viewBox="0 0 9 9" version="1.1" xmlns="http://www.w3.org/2000/svg" xmlns:xlink="http://www.w3.org/1999/xlink">
    <!-- Generator: Sketch 53.2 (72643) - https://sketchapp.com -->
    <title>up_arrow</title>
    <desc>Created with Sketch.</desc>
    <g id="Page-1" stroke="none" stroke-width="1" fill="none" fill-rule="evenodd">
        <g id="up_arrow" fill="#FF8935" fill-rule="nonzero">
            <path d="M4.22726,0.0548955 C4.15206,-0.0182985 4.03015,-0.0182985 3.95493,0.0548955 L0.29572,3.61734 C-0.0985734,4.0012 -0.0985734,4.62358 0.29572,5.00745 C0.690014,5.39131 1.3293,5.39131 1.72359,5.00745 L3.12796,3.64023 L3.12796,8.06252 C3.12796,8.58028 3.55909,9 4.09091,9 C4.62273,9 5.05386,8.58028 5.05386,8.06252 L5.05386,3.64021 L6.45822,5.00743 C6.85252,5.39129 7.4918,5.39129 7.8861,5.00743 C8.28039,4.62356 8.28039,4.00119 7.8861,3.61732 L4.22726,0.0548955 Z" id="Path" transform="translate(4.090909, 4.500000) scale(1, -1) translate(-4.090909, -4.500000) "></path>
        </g>
    </g>
</svg>