<svg width="16" height="16" viewBox="0 0 16 16" fill="none" xmlns="http://www.w3.org/2000/svg">
<g opacity="0.599049">
<path d="M2.375 8.4375C2.495 8.4375 2.61487 8.39172 2.70642 8.30017L6.125 4.88159L7.66858 6.42517C7.85168 6.60828 8.14832 6.60828 8.33142 6.42517L13.1562 1.60034V2.34375C13.1562 2.60278 13.366 2.8125 13.625 2.8125C13.884 2.8125 14.0938 2.60278 14.0938 2.34375V0.46875C14.0938 0.453369 14.0929 0.437866 14.0914 0.422607C14.0907 0.414917 14.0892 0.407471 14.0881 0.400024C14.087 0.392456 14.0862 0.384888 14.0847 0.377441C14.083 0.368286 14.0804 0.359497 14.0782 0.350586C14.0767 0.344849 14.0754 0.338989 14.0737 0.333252C14.0709 0.323853 14.0675 0.314819 14.0641 0.305664C14.0621 0.300537 14.0605 0.295288 14.0585 0.290283C14.0546 0.280884 14.05 0.271728 14.0457 0.262695C14.0435 0.258057 14.0414 0.253418 14.0391 0.248901C14.0337 0.238892 14.0278 0.22937 14.0219 0.219849C14.0198 0.216431 14.0179 0.213013 14.0157 0.209717C14.0073 0.197144 13.9984 0.184937 13.9889 0.173218C13.9888 0.173096 13.9888 0.172974 13.9886 0.172852C13.9684 0.148071 13.9457 0.125366 13.9209 0.105103C13.9208 0.10498 13.9207 0.10498 13.9205 0.104858C13.9088 0.0953369 13.8966 0.0864258 13.884 0.0780029C13.8807 0.0758057 13.8773 0.0739746 13.8739 0.0718994C13.8644 0.065918 13.8549 0.0600586 13.8448 0.0546875C13.8403 0.0522461 13.8357 0.050293 13.8311 0.0480957C13.822 0.0435791 13.8129 0.0391846 13.8035 0.0352783C13.7985 0.0332031 13.7932 0.0316162 13.7881 0.0296631C13.7789 0.0262451 13.7699 0.0228272 13.7605 0.0200195C13.7548 0.0183106 13.7489 0.0170898 13.7432 0.0155029C13.7343 0.0133057 13.7255 0.0107422 13.7163 0.00903319C13.7089 0.00756837 13.7013 0.00671388 13.6937 0.00561525C13.6863 0.00451659 13.6788 0.00305176 13.6711 0.00231934C13.6559 0.000854494 13.6404 0 13.625 0H11.75C11.491 0 11.2812 0.209717 11.2812 0.46875C11.2812 0.727783 11.491 0.9375 11.75 0.9375H12.4934L8 5.43091L6.45642 3.88733C6.27332 3.70422 5.97668 3.70422 5.79358 3.88733L2.04358 7.63733C1.86047 7.82043 1.86047 8.11707 2.04358 8.30017C2.13513 8.39172 2.255 8.4375 2.375 8.4375Z" fill="#8F97A0"/>
<path d="M0 15.5312C0 15.7903 0.209717 16 0.46875 16H4.21875C4.47778 16 4.6875 15.7903 4.6875 15.5312V14.875H0V15.5312Z" fill="#8F97A0"/>
<path d="M4.21875 12.8125H0.46875C0.209717 12.8125 0 13.0222 0 13.2812V13.9375H4.6875V13.2812C4.6875 13.0222 4.47778 12.8125 4.21875 12.8125Z" fill="#8F97A0"/>
<path d="M5.65625 15.5312C5.65625 15.7903 5.86597 16 6.125 16H9.875C10.134 16 10.3438 15.7903 10.3438 15.5312V14.875H5.65625V15.5312Z" fill="#8F97A0"/>
<path d="M11.3125 12.8125H16V13.9375H11.3125V12.8125Z" fill="#8F97A0"/>
<path d="M15.5312 6.625H11.7812C11.5222 6.625 11.3125 6.83472 11.3125 7.09375V7.75H16V7.09375C16 6.83472 15.7903 6.625 15.5312 6.625Z" fill="#8F97A0"/>
<path d="M11.3125 8.6875H16V9.8125H11.3125V8.6875Z" fill="#8F97A0"/>
<path d="M11.3125 10.75H16V11.875H11.3125V10.75Z" fill="#8F97A0"/>
<path d="M11.3125 15.5312C11.3125 15.7903 11.5222 16 11.7812 16H15.5312C15.7903 16 16 15.7903 16 15.5312V14.875H11.3125V15.5312Z" fill="#8F97A0"/>
<path d="M5.65625 12.8125H10.3438V13.9375H5.65625V12.8125Z" fill="#8F97A0"/>
<path d="M9.875 10.75H6.125C5.86597 10.75 5.65625 10.9597 5.65625 11.2188V11.875H10.3438V11.2188C10.3438 10.9597 10.134 10.75 9.875 10.75Z" fill="#8F97A0"/>
</g>
</svg>
