<svg width="12" height="13" viewBox="0 0 12 13" fill="none" xmlns="http://www.w3.org/2000/svg">
<path fill-rule="evenodd" clip-rule="evenodd" d="M9.38194 12.0188C10.7432 12.0188 11.8509 10.9112 11.8509 9.54991V5.59962C11.8509 5.32693 11.63 5.10583 11.3571 5.10583C11.0842 5.10583 10.8633 5.32693 10.8633 5.59962V9.54991C10.8633 10.3668 10.1988 11.0313 9.38194 11.0313H2.46893C1.65206 11.0313 0.987573 10.3668 0.987573 9.54991V2.6369C0.987573 1.82002 1.65206 1.15554 2.46893 1.15554H6.41923C6.69217 1.15554 6.91301 0.934449 6.91301 0.661755C6.91301 0.389062 6.69217 0.167969 6.41923 0.167969H2.46893C1.10766 0.167969 0 1.27562 0 2.6369V9.54991C0 10.9112 1.10766 12.0188 2.46893 12.0188H9.38194ZM3.95029 6.09341V7.57477C3.95029 7.84746 4.17114 8.06855 4.44408 8.06855H5.92544C6.05756 8.06855 6.1844 8.0155 6.27745 7.921L11.4169 2.69696C11.6966 2.41701 11.8509 2.04497 11.8509 1.64933C11.8509 1.25368 11.6966 0.881645 11.4169 0.601976C10.8387 0.0242768 9.89934 0.0242769 9.32504 0.599075L4.09784 5.7414C4.00334 5.83423 3.95029 5.96104 3.95029 6.09341ZM4.93787 6.30027L10.0204 1.30019C10.2133 1.1078 10.5258 1.10755 10.7187 1.30044C10.8122 1.39352 10.8633 1.51746 10.8633 1.64933C10.8633 1.7812 10.8122 1.90514 10.7158 2.00134L5.71857 7.08098H4.93787V6.30027Z" fill="#456173"/>
</svg>
