<svg width="12" height="13" viewBox="0 0 12 13" fill="none" xmlns="http://www.w3.org/2000/svg">
<path fill-rule="evenodd" clip-rule="evenodd" d="M9.38194 12.0175C10.7432 12.0175 11.8509 10.9099 11.8509 9.5486V5.59831C11.8509 5.32561 11.63 5.10452 11.3571 5.10452C11.0842 5.10452 10.8633 5.32561 10.8633 5.59831V9.5486C10.8633 10.3655 10.1988 11.03 9.38194 11.03H2.46893C1.65206 11.03 0.987573 10.3655 0.987573 9.5486V2.63559C0.987573 1.81871 1.65206 1.15423 2.46893 1.15423H6.41923C6.69217 1.15423 6.91301 0.933137 6.91301 0.660443C6.91301 0.387749 6.69217 0.166656 6.41923 0.166656H2.46893C1.10766 0.166656 0 1.27431 0 2.63559V9.5486C0 10.9099 1.10766 12.0175 2.46893 12.0175H9.38194ZM3.95029 6.0921V7.57345C3.95029 7.84615 4.17114 8.06724 4.44408 8.06724H5.92544C6.05756 8.06724 6.1844 8.01419 6.27745 7.91969L11.4169 2.69565C11.6966 2.4157 11.8509 2.04366 11.8509 1.64802C11.8509 1.25237 11.6966 0.880332 11.4169 0.600664C10.8387 0.0229646 9.89934 0.0229646 9.32504 0.597763L4.09784 5.74009C4.00334 5.83292 3.95029 5.95973 3.95029 6.0921ZM4.93787 6.29896L10.0204 1.29888C10.2133 1.10649 10.5258 1.10624 10.7187 1.29913C10.8122 1.3922 10.8633 1.51614 10.8633 1.64802C10.8633 1.77989 10.8122 1.90383 10.7158 2.00002L5.71857 7.07967H4.93787V6.29896Z" fill="#F58220"/>
</svg>
