<svg width="15" height="16" viewBox="0 0 15 16" fill="none" xmlns="http://www.w3.org/2000/svg">
<path fill-rule="evenodd" clip-rule="evenodd" d="M11.547 14.7908C13.2224 14.7908 14.5857 13.4276 14.5857 11.7521V6.89025C14.5857 6.55463 14.3139 6.28251 13.978 6.28251C13.642 6.28251 13.3702 6.55463 13.3702 6.89025V11.7521C13.3702 12.7575 12.5524 13.5754 11.547 13.5754H3.03869C2.0333 13.5754 1.21547 12.7575 1.21547 11.7521V3.24383C1.21547 2.23844 2.0333 1.42061 3.03869 1.42061H7.90059C8.23651 1.42061 8.50832 1.1485 8.50832 0.812876C8.50832 0.477254 8.23651 0.205139 7.90059 0.205139H3.03869C1.36327 0.205139 0 1.56841 0 3.24383V11.7521C0 13.4276 1.36327 14.7908 3.03869 14.7908H11.547ZM4.8619 7.49799V9.3212C4.8619 9.65682 5.13371 9.92894 5.46964 9.92894H7.29285C7.45546 9.92894 7.61157 9.86364 7.72609 9.74734L14.0515 3.31774C14.3958 2.97319 14.5857 2.5153 14.5857 2.02835C14.5857 1.5414 14.3958 1.08351 14.0515 0.739302C13.3399 0.0282876 12.1838 0.0282876 11.477 0.735732L5.0435 7.06475C4.92719 7.179 4.8619 7.33508 4.8619 7.49799ZM6.07737 7.75259L12.3328 1.59864C12.5702 1.36185 12.9548 1.36155 13.1922 1.59895C13.3073 1.71351 13.3702 1.86605 13.3702 2.02835C13.3702 2.19065 13.3073 2.3432 13.1886 2.46159L7.03824 8.71346H6.07737V7.75259Z" fill="#8F97A0"/>
</svg>
