<svg width="14" height="10" viewBox="0 0 14 10" fill="none" xmlns="http://www.w3.org/2000/svg">
<path fill-rule="evenodd" clip-rule="evenodd" d="M12.0262 0H1.2441C0.558061 0 0 0.558061 0 1.2441V8.70864C0 9.39468 0.558061 9.95274 1.2441 9.95274H12.0262C12.7122 9.95274 13.2703 9.39468 13.2703 8.70864V1.2441C13.2703 0.558061 12.7122 0 12.0262 0ZM12.0262 0.829391C12.0825 0.829391 12.1361 0.84108 12.1852 0.861496L6.63515 5.67172L1.08512 0.861496C1.13413 0.841108 1.18773 0.829391 1.24407 0.829391H12.0262ZM0.829391 8.70861C0.829391 8.93745 1.01529 9.12332 1.2441 9.12332H12.0262C12.255 9.12332 12.4409 8.93745 12.4409 8.70864V1.73776L6.9069 6.53391C6.82873 6.60155 6.73194 6.63515 6.63515 6.63515C6.53837 6.63515 6.44158 6.60152 6.36341 6.53391L0.829391 1.73776V8.70861Z" fill="#ADB9C8"/>
</svg>
