<?xml version="1.0" encoding="UTF-8"?>
<svg width="28px" height="24px" viewBox="0 0 28 24" version="1.1" xmlns="http://www.w3.org/2000/svg" xmlns:xlink="http://www.w3.org/1999/xlink">
    <!-- Generator: Sketch 53.2 (72643) - https://sketchapp.com -->
    <title>warning-sign</title>
    <desc>Created with Sketch.</desc>
    <g id="Page-1" stroke="none" stroke-width="1" fill="none" fill-rule="evenodd">
        <g id="09.2a-SIP" transform="translate(-502.000000, -234.000000)" fill="#F78200" fill-rule="nonzero">
            <g id="warning-sign" transform="translate(502.000000, 234.000000)">
                <path d="M26.6282655,18.3232035 C16.4534336,1.28304425 16.9367257,2.09246018 16.918354,2.06171681 C16.2386549,0.797893805 14.977646,0.0440707965 13.5409381,0.0440707965 C12.1042301,0.0440707965 10.8431681,0.797893805 10.1635221,2.06171681 C10.1455221,2.09187611 10.647823,1.25065487 0.453610619,18.3231504 C-0.903185841,20.8771327 0.946831858,23.9582124 3.84090265,23.9582124 L23.2410265,23.9582124 C26.1329735,23.9582655 27.9860708,20.8789912 26.6282655,18.3232035 Z M23.2410265,22.3653451 L3.84084956,22.3653451 C2.15654867,22.3653451 1.07426549,20.5788319 1.85166372,19.0869027 C1.86945133,19.0571681 1.37023009,19.8931858 11.5604071,2.82748673 C12.4049735,1.23759292 14.6772212,1.23833628 15.521469,2.82748673 C25.696354,19.8675929 25.2117876,19.0561062 25.2301593,19.0869027 C26.0081947,20.5799469 24.924,22.3653451 23.2410265,22.3653451 Z" id="Shape"></path>
                <polygon id="Path" points="12.7444779 6.43614159 14.3373982 6.43614159 14.3373982 16.7901239 12.7444779 16.7901239"></polygon>
                <polygon id="Path" points="12.7444779 18.3830442 14.3373982 18.3830442 14.3373982 19.9759646 12.7444779 19.9759646"></polygon>
            </g>
        </g>
    </g>
</svg>