<svg width="32" height="24" viewBox="0 0 32 24" fill="none" xmlns="http://www.w3.org/2000/svg">
<path d="M31.0788 8.11495L23.416 0.451811C23.1841 0.221216 22.8365 0.152784 22.5339 0.276027C22.2313 0.401541 22.0344 0.696352 22.0344 1.02424V4.56392H16.2436C15.7973 4.56392 15.4347 4.92619 15.4347 5.37278C15.4347 5.81938 15.797 6.18197 16.2436 6.18197H22.8439C23.2905 6.18197 23.6531 5.81938 23.6531 5.37278V2.97732L29.3622 8.68705L23.6531 14.3958V12C23.6531 11.5534 23.2905 11.1908 22.8439 11.1908H10.4518V7.65019C10.4518 7.32262 10.2546 7.02781 9.95235 6.9023C9.64975 6.77808 9.3024 6.84651 9.07051 7.07808L1.40867 14.7402C1.09245 15.0561 1.09245 15.5682 1.40867 15.8841L9.07083 23.5473C9.22554 23.702 9.43278 23.784 9.64262 23.784C9.74705 23.784 9.85245 23.7639 9.95267 23.7227C10.2549 23.5975 10.4521 23.3027 10.4521 22.9748V19.4348H16.2439C16.6908 19.4348 17.0531 19.0719 17.0531 18.6256C17.0531 18.1787 16.6908 17.8165 16.2439 17.8165H9.64164C9.19505 17.8165 8.83245 18.1787 8.83245 18.6256C8.83245 18.6299 8.83245 18.6341 8.83245 18.638C8.83278 18.7353 8.83343 19.9158 8.83343 21.0224L3.12467 15.3124L8.83375 9.60359C8.83375 10.6917 8.8331 11.8528 8.83278 11.9822C8.83181 12.0399 8.83667 12.098 8.84802 12.156C8.92294 12.5352 9.25537 12.8092 9.64197 12.8092H22.0347V16.3486C22.0347 16.6768 22.2316 16.9716 22.5342 17.0968C22.8355 17.22 23.1845 17.1526 23.4163 16.921L31.0792 9.25884C31.2309 9.10738 31.3153 8.90176 31.3153 8.68673C31.3153 8.4717 31.2306 8.26641 31.0788 8.11495Z" fill="#F58220" stroke="#F58220" stroke-width="0.4"/>
</svg>
