<?xml version="1.0" encoding="UTF-8"?>
<svg width="12px" height="12px" viewBox="0 0 12 12" version="1.1" xmlns="http://www.w3.org/2000/svg" xmlns:xlink="http://www.w3.org/1999/xlink">
    <!-- Generator: Sketch 53.2 (72643) - https://sketchapp.com -->
    <title>Group 111</title>
    <desc>Created with Sketch.</desc>
    <g id="Page-1" stroke="none" stroke-width="1" fill="none" fill-rule="evenodd">
        <g id="Group-111" fill="#FB534C" fill-rule="nonzero">
            <g id="failed" stroke="#FB534C" stroke-width="0.21">
                <path d="M6,0.5 C2.95989648,0.5 0.5,2.96011133 0.5,6 C0.5,9.04010352 2.96011133,11.5 6,11.5 C9.04010352,11.5 11.5,9.03988867 11.5,6 C11.5,2.95989648 9.03988867,0.5 6,0.5 Z M6,10.640625 C3.43491602,10.640625 1.359375,8.56491211 1.359375,6 C1.359375,3.43491602 3.43508789,1.359375 6,1.359375 C8.56508398,1.359375 10.640625,3.43508789 10.640625,6 C10.640625,8.56508398 8.56491211,10.640625 6,10.640625 Z" id="Shape"></path>
            </g>
            <path d="M7.84171306,3.50779682 C7.98279661,3.36675843 8.21149146,3.36675843 8.352575,3.50779682 C8.49365867,3.64892564 8.49365867,3.87762049 8.35259764,4.01872667 L6.44111434,5.93020999 L8.35501259,7.84414733 C8.49028059,7.9841576 8.49028059,8.20617886 8.3550207,8.34618073 C8.21638401,8.48969455 7.98767322,8.49366095 7.84169042,8.35259764 L5.93020739,6.44111462 L4.02088579,8.35040505 C4.0173273,8.35406467 4.0173273,8.35406467 4.01230977,8.3589723 C3.86879228,8.49761257 3.64008148,8.49364616 3.5014448,8.35013235 C3.36280453,8.20661486 3.36677093,7.97790406 3.50781945,7.84169042 L5.41930243,5.93020743 L3.50997858,4.02085333 C3.50633655,4.01731126 3.50633655,4.01731126 3.501402,4.01226618 C3.36279805,3.86873952 3.36677854,3.64000881 3.51030817,3.501402 C3.65383483,3.36279805 3.88256554,3.36677854 4.01872667,3.50781945 L5.93020855,5.41930132 L7.84171306,3.50779682 Z" id="Path"></path>
        </g>
    </g>
</svg>