<?xml version="1.0" encoding="UTF-8"?>
<svg width="55px" height="55px" viewBox="0 0 55 55" version="1.1" xmlns="http://www.w3.org/2000/svg" xmlns:xlink="http://www.w3.org/1999/xlink">
    <!-- Generator: Sketch 53.2 (72643) - https://sketchapp.com -->
    <title>Group</title>
    <desc>Created with Sketch.</desc>
    <g id="Page-1" stroke="none" stroke-width="1" fill="none" fill-rule="evenodd">
        <g id="05.2c-STP---success-Copy" transform="translate(-353.000000, -238.000000)" fill="#F50232">
            <g id="Group" transform="translate(353.000000, 238.000000)">
                <circle id="Oval" fill-opacity="0.0671437937" cx="27.5" cy="27.5" r="27.5"></circle>
                <g id="warning" transform="translate(11.000000, 10.000000)" fill-rule="nonzero">
                    <path d="M16.360426,21.0795067 C15.4456278,21.0795067 14.6788117,21.8463229 14.6788117,22.7611211 C14.6788117,23.6759193 15.4456278,24.4427354 16.360426,24.4427354 C17.2415919,24.4427354 18.0420404,23.6759193 18.0016816,22.8014798 C18.0420404,21.8395964 17.2819507,21.0795067 16.360426,21.0795067 Z" id="Path"></path>
                    <path d="M31.9254484,27.039148 C32.9815022,25.216278 32.9882287,23.0436323 31.9389013,21.2274888 L21.4052691,2.98533632 C20.3626682,1.14901345 18.4792601,0.0593273543 16.3671525,0.0593273543 C14.2550448,0.0593273543 12.3716368,1.15573991 11.3290359,2.97860987 L0.781950673,21.2409417 C-0.267376682,23.0772646 -0.260650224,25.2633632 0.802130045,27.0862332 C1.8514574,28.8889238 3.72813901,29.9718834 5.82679372,29.9718834 L26.8671525,29.9718834 C28.9725336,29.9718834 30.8626682,28.8754709 31.9254484,27.039148 Z M29.6384529,25.7207623 C29.0532511,26.7297309 28.0173767,27.3283857 26.860426,27.3283857 L5.82006726,27.3283857 C4.67656951,27.3283857 3.64742152,26.7431839 3.07567265,25.7543946 C2.49719731,24.7521525 2.49047085,23.554843 3.06894619,22.5458744 L13.6160314,4.29026906 C14.1877803,3.28802691 15.2102018,2.69609865 16.3671525,2.69609865 C17.5173767,2.69609865 18.5465247,3.29475336 19.1182735,4.29699552 L29.6586323,22.5526009 C30.2236547,23.5346637 30.2169283,24.7185202 29.6384529,25.7207623 Z" id="Shape"></path>
                    <path d="M15.9433857,9.27457399 C15.1429372,9.50327354 14.6451794,10.2297309 14.6451794,11.1108969 C14.6855381,11.642287 14.7191704,12.1804036 14.7595291,12.7117937 C14.8738789,14.7364574 14.9882287,16.7207623 15.1025785,18.745426 C15.1429372,19.4315247 15.6743274,19.9292825 16.360426,19.9292825 C17.0465247,19.9292825 17.5846413,19.3978924 17.6182735,18.7050673 C17.6182735,18.2880269 17.6182735,17.9046188 17.6586323,17.480852 C17.7326233,16.1826457 17.8133408,14.8844395 17.8873318,13.5862332 C17.9276906,12.745426 18.0016816,11.9046188 18.0420404,11.0638117 C18.0420404,10.7611211 18.0016816,10.4920628 17.8873318,10.2230045 C17.5442825,9.46964126 16.7438341,9.08623318 15.9433857,9.27457399 Z" id="Path"></path>
                </g>
            </g>
        </g>
    </g>
</svg>