<?xml version="1.0" encoding="UTF-8"?>
<svg width="19px" height="14px" viewBox="0 0 19 14" version="1.1" xmlns="http://www.w3.org/2000/svg" xmlns:xlink="http://www.w3.org/1999/xlink">
    <!-- Generator: Sketch 53.2 (72643) - https://sketchapp.com -->
    <title>family (3)</title>
    <desc>Created with Sketch.</desc>
    <g id="Page-1" stroke="none" stroke-width="1" fill="none" fill-rule="evenodd">
        <g id="profile-menu" transform="translate(-36.000000, -104.000000)" fill="#BCC1C6" fill-rule="nonzero" stroke="#BCC1C6" stroke-width="0.5">
            <g id="family-(3)" transform="translate(37.000000, 105.000000)">
                <path d="M13.9014066,4.63420879 C14.5733736,4.18068132 15.0161209,3.41231868 15.0161209,2.54248352 C15.0161209,1.1517033 13.8846264,0.0202087912 12.4938462,0.0202087912 C11.1030659,0.0202087912 9.97157143,1.1517033 9.97157143,2.54248352 C9.97157143,3.41192308 10.4138901,4.17998901 11.0853626,4.63361538 C10.5961978,4.79920879 10.1382198,5.05137363 9.7316044,5.382 C9.38756044,5.05110989 8.92582418,4.86052747 8.43959341,4.86052747 C7.9533956,4.86052747 7.49165934,5.05117582 7.14781319,5.382 C6.74106593,5.05137363 6.28302198,4.79920879 5.79379121,4.63358242 C6.46526374,4.17995604 6.90758242,3.41189011 6.90758242,2.54241758 C6.90758242,1.15163736 5.77608791,0.0201428571 4.38530769,0.0201428571 C2.99469231,0.0201428571 1.86336264,1.15163736 1.86336264,2.54241758 C1.86336264,3.41225275 2.30601099,4.18058242 2.97787912,4.63414286 C1.2508022,5.22098901 0.00418681319,6.85694505 0.000461538462,8.77915385 C0.000362637363,8.78208791 0,8.78485714 0,8.78775824 C0,9.29587912 0.288725275,10.0457802 1.66430769,10.7328132 C2.64448352,11.2223736 3.99145055,11.5903846 5.55962637,11.796989 C6.47947253,11.9183077 7.44843956,11.9798571 8.43959341,11.9798571 C9.43097802,11.9798571 10.400044,11.9183407 11.3198571,11.796989 C12.8879011,11.5903846 14.2347692,11.2223736 15.2149121,10.7328132 C16.5903956,10.0457473 16.8791209,9.29587912 16.8791209,8.78775824 C16.8791209,6.86185714 15.6311538,5.22194505 13.9014066,4.63420879 Z M10.6335165,2.54248352 C10.6335165,1.51668132 11.4680769,0.682153846 12.4938462,0.682153846 C13.5196154,0.682153846 14.3541758,1.51671429 14.3541758,2.54248352 C14.3541758,3.56812088 13.5196154,4.40248352 12.4938462,4.40248352 C11.4680769,4.40248352 10.6335165,3.56812088 10.6335165,2.54248352 Z M7.45206593,6.03952747 C7.67693407,5.71579121 8.04603297,5.52247253 8.43956044,5.52247253 C8.83328571,5.52247253 9.20251648,5.71579121 9.42735165,6.03952747 C9.42738462,6.03962637 9.42745055,6.03969231 9.42748352,6.03975824 C9.56779121,6.24148352 9.6419011,6.47835165 9.6419011,6.72484615 C9.6419011,7.38784615 9.10252747,7.92721978 8.43952747,7.92721978 C7.77669231,7.92721978 7.23748352,7.38781319 7.23748352,6.72481319 C7.23748352,6.47795604 7.31156044,6.24115385 7.45206593,6.03952747 Z M2.52524176,2.54248352 C2.52524176,1.51668132 3.35963736,0.682153846 4.38524176,0.682153846 C5.41104396,0.682153846 6.24557143,1.51671429 6.24557143,2.54248352 C6.24557143,3.56812088 5.41101099,4.40248352 4.38524176,4.40248352 C3.35963736,4.40248352 2.52524176,3.56812088 2.52524176,2.54248352 Z M5.27205495,11.0875714 C3.93738462,10.8843297 2.79804396,10.5591758 1.96012088,10.1406593 C1.1253956,9.72379121 0.66478022,9.24484615 0.66210989,8.79171429 C0.66210989,8.7903956 0.662307692,8.78910989 0.662307692,8.78779121 C0.662274725,6.73473626 2.33241758,5.06442857 4.38527473,5.06442857 C5.25863736,5.06442857 6.09187912,5.36614286 6.75867033,5.91876923 C6.63843956,6.16862637 6.5756044,6.44254945 6.5756044,6.72487912 C6.5756044,7.30104396 6.83838462,7.81694505 7.25027473,8.15920879 C6.09342857,8.62954945 5.27505495,9.76453846 5.27205495,11.0875714 Z M10.9456154,11.1761538 C10.1405934,11.2700769 9.29920879,11.317978 8.43956044,11.317978 C7.58010989,11.317978 6.73885714,11.2700769 5.93383516,11.1761538 L5.93383516,11.0948901 C5.93383516,9.71320879 7.05787912,8.58916484 8.43956044,8.58916484 C9.82140659,8.58916484 10.9456154,9.71320879 10.9456154,11.0948901 L10.9456154,11.1761538 Z M14.9190989,10.1406264 C14.0812418,10.5591758 12.942033,10.8842967 11.6074945,11.0875385 C11.6044945,9.76450549 10.7860549,8.62958242 9.62910989,8.15917582 C10.0410989,7.81691209 10.3039451,7.30101099 10.3039451,6.72481319 C10.3039451,6.44281319 10.2411099,6.16882418 10.1207473,5.91873626 C10.7872418,5.36607692 11.6203846,5.06436264 12.4939121,5.06436264 C14.5469341,5.0643956 16.2172088,6.7347033 16.2172088,8.78772527 C16.2172088,9.24207692 15.7561978,9.72253846 14.9190989,10.1406264 Z" id="Shape"></path>
            </g>
        </g>
    </g>
</svg>