<?xml version="1.0" encoding="UTF-8"?>
<svg width="62px" height="62px" viewBox="0 0 62 62" version="1.1" xmlns="http://www.w3.org/2000/svg" xmlns:xlink="http://www.w3.org/1999/xlink">
    <!-- Generator: Sketch 53.2 (72643) - https://sketchapp.com -->
    <title>conversation (2)</title>
    <desc>Created with Sketch.</desc>
    <g id="Page-1" stroke="none" stroke-width="1" fill="none" fill-rule="evenodd">
        <g id="Flow-2---Home-page" transform="translate(-324.000000, -831.000000)" fill="#F58220" fill-rule="nonzero">
            <g id="Group-8" transform="translate(240.000000, 698.000000)">
                <g id="Group-4" transform="translate(0.000000, 79.000000)">
                    <g id="Group-2" transform="translate(84.000000, 54.000000)">
                        <g id="conversation-(2)" transform="translate(-0.000000, 0.000000)">
                            <path d="M41.8984375,38.6289062 C41.2297578,38.6289062 40.6875,39.171043 40.6875,39.8398438 L40.6875,48.1953125 C40.6875,51.5338672 37.9713672,54.25 34.6328125,54.25 L21.5585625,54.25 C20.8900039,54.25 20.3481094,54.7916523 20.347625,55.4600898 L20.3459297,57.8676758 L17.4556641,54.9775312 C17.2685742,54.5480117 16.8403867,54.25 16.3451133,54.25 L8.4765625,54.25 C5.13800781,54.25 2.421875,51.5338672 2.421875,48.1953125 L2.421875,29.546875 C2.421875,26.2083203 5.13800781,23.4921875 8.4765625,23.4921875 L20.7070312,23.4921875 C21.3757109,23.4921875 21.9179687,22.9500508 21.9179687,22.28125 C21.9179687,21.6124492 21.3757109,21.0703125 20.7070312,21.0703125 L8.4765625,21.0703125 C3.80258594,21.0703125 0,24.8728984 0,29.546875 L0,48.1953125 C0,52.8692891 3.80258594,56.671875 8.4765625,56.671875 L15.7249922,56.671875 L20.6984336,61.6453164 C20.9300859,61.8769688 21.2397227,62 21.5549297,62 C21.7107773,62 21.8680781,61.9698477 22.0176289,61.9079688 C22.4701562,61.7207578 22.7652617,61.2794922 22.765625,60.7899102 L22.7685312,56.671875 L34.6328125,56.671875 C39.3067891,56.671875 43.109375,52.8692891 43.109375,48.1953125 L43.109375,39.8398438 C43.109375,39.171043 42.5671172,38.6289062 41.8984375,38.6289062 Z" id="Path"></path>
                            <path d="M44.3996289,0 L41.3348672,0 C31.6299297,0 23.734375,7.89555469 23.734375,17.6004922 C23.734375,27.3054297 31.6299297,35.2008633 41.3347461,35.2008633 L44.3995078,35.2008633 C45.9142695,35.2008633 47.4135313,35.0084453 48.8666563,34.6282109 L53.3939883,39.153 C53.6256406,39.3844102 53.9351563,39.5074414 54.2502422,39.5074414 C54.406332,39.5074414 54.5637539,39.4772891 54.7135469,39.415168 C55.1659531,39.2277148 55.4609375,38.786207 55.4609375,38.2965039 L55.4609375,31.2905039 C57.3777305,29.7382031 58.9699922,27.777332 60.0874453,25.5867461 C61.3566289,23.0987539 62,20.4118047 62,17.6004922 C62,7.89555469 54.1044453,0 44.3996289,0 Z M53.5213789,29.7327539 C53.2177969,29.9615 53.0390625,30.3196953 53.0390625,30.7000508 L53.0390625,35.3742695 L50.0757773,32.4125586 C49.8452148,32.1822383 49.5359414,32.0581172 49.2196445,32.0581172 C49.1009727,32.0581172 48.9810898,32.0756758 48.8641133,32.1116406 C47.4227344,32.5546016 45.9206875,32.7791094 44.3996289,32.7791094 L41.3348672,32.7791094 C32.9652305,32.7791094 26.15625,25.9700078 26.15625,17.6004922 C26.15625,9.23097656 32.9653516,2.421875 41.3348672,2.421875 L44.3996289,2.421875 C52.7691445,2.421875 59.578125,9.23097656 59.578125,17.6004922 C59.578125,22.411668 57.3705859,26.8337695 53.5213789,29.7327539 Z" id="Shape"></path>
                            <path d="M48.3204023,13.2501992 C48.1456641,10.7151016 46.1020859,8.67152344 43.5668672,8.49678516 C42.1297266,8.39809375 40.7582187,8.88283203 39.708457,9.86284375 C38.6731055,10.829293 38.0793828,12.1954727 38.0793828,13.6111797 C38.0793828,14.2799805 38.6216406,14.8221172 39.2903203,14.8221172 C39.959,14.8221172 40.5012578,14.2799805 40.5012578,13.6111797 C40.5012578,12.8532539 40.8066563,12.1507891 41.3610234,11.6333555 C41.9149063,11.1164062 42.6388047,10.8605352 43.4004844,10.9130898 C44.7359063,11.0051211 45.8123086,12.0815234 45.9043398,13.4168242 C45.9973398,14.7654453 45.1125078,15.95725 43.8005781,16.2507812 C42.7376172,16.4886094 41.9953125,17.4123125 41.9953125,18.4969492 L41.9953125,21.4062266 C41.9953125,22.0750273 42.5375703,22.6171641 43.20625,22.6171641 C43.8750508,22.6171641 44.4171875,22.0750273 44.4170664,21.4062266 L44.4170664,18.5937031 C46.8571055,18.0042187 48.4941719,15.7714922 48.3204023,13.2501992 Z" id="Path"></path>
                            <path d="M44.0623828,25.3400781 C43.8371484,25.1148437 43.5247266,24.9852734 43.20625,24.9852734 C42.8877734,24.9852734 42.5753516,25.1148437 42.3501172,25.3400781 C42.1248828,25.5653125 41.9953125,25.8777344 41.9953125,26.1962109 C41.9953125,26.5158984 42.1250039,26.8283203 42.3501172,27.0535547 C42.5753516,27.2787891 42.8877734,27.4071484 43.20625,27.4071484 C43.5247266,27.4071484 43.8371484,27.2787891 44.0623828,27.0535547 C44.2876172,26.8271094 44.4171875,26.5158984 44.4171875,26.1962109 C44.4171875,25.8777344 44.2874961,25.5653125 44.0623828,25.3400781 Z" id="Path"></path>
                            <path d="M33.3007812,37.5390625 L7.75,37.5390625 C7.08132031,37.5390625 6.5390625,38.0811992 6.5390625,38.75 C6.5390625,39.4188008 7.08132031,39.9609375 7.75,39.9609375 L33.3007812,39.9609375 C33.969582,39.9609375 34.5117187,39.4188008 34.5117187,38.75 C34.5117187,38.0811992 33.9694609,37.5390625 33.3007812,37.5390625 Z" id="Path"></path>
                            <path d="M34.156793,44.6751172 C33.9316797,44.4498828 33.6192578,44.3203125 33.3007812,44.3203125 C32.9823047,44.3203125 32.6698828,44.4498828 32.4446484,44.6751172 C32.219293,44.9003516 32.0898437,45.2127734 32.0898437,45.53125 C32.0898437,45.8497266 32.2194141,46.1621484 32.4446484,46.3873828 C32.6698828,46.6126172 32.9823047,46.7421875 33.3007812,46.7421875 C33.6192578,46.7421875 33.9316797,46.6126172 34.156793,46.3873828 C34.3821484,46.1621484 34.5117188,45.8509375 34.5117188,45.53125 C34.5117188,45.2127734 34.3820273,44.9003516 34.156793,44.6751172 Z" id="Path"></path>
                            <path d="M28.5378008,44.3203125 L7.75,44.3203125 C7.08132031,44.3203125 6.5390625,44.8624492 6.5390625,45.53125 C6.5390625,46.2000508 7.08132031,46.7421875 7.75,46.7421875 L28.5378008,46.7421875 C29.2066016,46.7421875 29.7487383,46.2000508 29.7487383,45.53125 C29.7487383,44.8624492 29.2064805,44.3203125 28.5378008,44.3203125 Z" id="Path"></path>
                            <path d="M25.4296875,30.7578125 L7.75,30.7578125 C7.08132031,30.7578125 6.5390625,31.2999492 6.5390625,31.96875 C6.5390625,32.6375508 7.08132031,33.1796875 7.75,33.1796875 L25.4296875,33.1796875 C26.0984883,33.1796875 26.640625,32.6375508 26.640625,31.96875 C26.640625,31.2999492 26.0983672,30.7578125 25.4296875,30.7578125 Z" id="Path"></path>
                        </g>
                    </g>
                </g>
            </g>
        </g>
    </g>
</svg>