<?xml version="1.0" encoding="UTF-8"?>
<svg width="34px" height="26px" viewBox="0 0 34 26" version="1.1" xmlns="http://www.w3.org/2000/svg" xmlns:xlink="http://www.w3.org/1999/xlink">
    <!-- Generator: Sketch 63.1 (92452) - https://sketch.com -->
    <title>Filter</title>
    <desc>Created with Sketch.</desc>
    <g id="Side-Menu" stroke="none" stroke-width="1" fill="none" fill-rule="evenodd">
        <g id="My-Transactions" transform="translate(-331.000000, -136.000000)">
            <g id="Filter" transform="translate(331.000000, 136.000000)">
                <rect id="Rectangle" fill="#F4F4F4" x="0" y="0" width="34" height="26" rx="3"></rect>
                <g id="filter" transform="translate(11.000000, 8.000000)" fill="#666666" fill-rule="nonzero" stroke="#666666" stroke-width="0.4">
                    <path d="M12.7443062,0.841280814 C12.5345141,0.327662132 12.0392837,-0.00510560011 11.492477,5.9274239e-05 L1.36082411,5.9274239e-05 C0.815485592,5.9274239e-05 0.322800675,0.331195256 0.108983337,0.84144432 C-0.104834001,1.35169338 0.00152523385,1.94249397 0.379226696,2.34258275 L4.99031254,7.22762661 C5.0389345,7.27923152 5.06604431,7.34796622 5.06596657,7.41944118 L5.06596657,13.1176903 C5.06384976,13.420086 5.22540812,13.6991642 5.48641791,13.8439838 C5.74562701,13.992139 6.06387166,13.9836349 6.31507445,13.8218407 L7.14781304,13.2920671 C7.54682515,13.0404328 7.78891907,12.5962717 7.78733451,12.1187598 L7.78733451,7.41944118 C7.78732994,7.34792769 7.81453931,7.27918784 7.86326067,7.22762661 L12.4743465,2.34258275 C12.8566565,1.94482637 12.9634513,1.35091818 12.7443062,0.841280814 Z M12.081381,1.95923039 L7.47083942,6.84427425 C7.32432678,6.9986163 7.24263349,7.20490125 7.24306092,7.41944118 L7.24306092,12.1187598 C7.24395222,12.4052956 7.09871801,12.6718145 6.85934804,12.8229103 L6.02660945,13.3524071 C5.94271809,13.4057356 5.83698073,13.4085594 5.75045346,13.359782 C5.66392619,13.3110046 5.61023992,13.2183101 5.61024015,13.1176903 L5.61024015,7.41944118 C5.61072716,7.20502447 5.52913036,6.99883597 5.38273379,6.84455104 L0.77192009,1.95923039 C0.545268173,1.71918866 0.481425279,1.3646964 0.609706594,1.05852829 C0.737987909,0.752360188 1.03360768,0.55369735 1.36082411,0.55369735 L11.492477,0.55369735 C11.8196934,0.55369735 12.1153132,0.752360188 12.2435945,1.05852829 C12.3718758,1.3646964 12.3080329,1.71918866 12.081381,1.95923039 L12.081381,1.95923039 Z" id="Shape"></path>
                </g>
            </g>
        </g>
    </g>
</svg>