<svg width="34" height="34" viewBox="0 0 34 34" fill="none" xmlns="http://www.w3.org/2000/svg">
<path d="M3.54159 26.9449C3.15059 26.9449 2.83325 26.6276 2.83325 26.2366V13.6991C2.83325 13.3081 3.15059 12.9907 3.54159 12.9907C3.93259 12.9907 4.24992 13.3081 4.24992 13.6991V26.2366C4.24992 26.6276 3.93259 26.9449 3.54159 26.9449Z" fill="#F58220"/>
<path d="M30.4583 1.4804C30.3761 1.4804 30.2968 1.46765 30.2231 1.44499H10.8941C10.5031 1.44499 10.1858 1.12765 10.1858 0.736654C10.1858 0.345654 10.5031 0.0283203 10.8941 0.0283203H30.4583C30.8493 0.0283203 31.1666 0.345654 31.1666 0.736654C31.1666 1.12765 30.8493 1.4804 30.4583 1.4804Z" fill="#F58220"/>
<path fill-rule="evenodd" clip-rule="evenodd" d="M25.5 6.40479C25.5 6.79578 25.8173 7.11312 26.2083 7.11312H33.2917C33.6827 7.11312 34 6.79578 34 6.40479V4.27979C34 1.93662 32.0932 0.0297852 29.75 0.0297852C27.4068 0.0297852 25.5 1.93662 25.5 4.27979V6.40479ZM32.5833 4.27979V5.69645H26.9167V4.27979C26.9167 2.7172 28.1874 1.44645 29.75 1.44645C31.3126 1.44645 32.5833 2.7172 32.5833 4.27979Z" fill="#F58220"/>
<path fill-rule="evenodd" clip-rule="evenodd" d="M3.54167 33.9701H22.6667C25.0098 33.9701 26.9167 32.0647 26.9167 29.7215V6.40462C26.9167 6.01362 26.5993 5.69629 26.2083 5.69629C25.8173 5.69629 25.5 6.01362 25.5 6.40462V29.7201C25.5 31.2827 24.2292 32.5535 22.6667 32.5535C21.1041 32.5535 19.8333 31.2827 19.8333 29.7201V26.2365C19.8333 25.8455 19.516 25.5282 19.125 25.5282H0.708333C0.317333 25.5282 0 25.8455 0 26.2365V30.4285C0 32.382 1.5895 33.9701 3.54167 33.9701ZM1.41667 30.4299V26.9463H18.4167V29.7215C18.4167 30.8095 18.8275 31.8026 19.5018 32.5549H3.54167C2.37008 32.5549 1.41667 31.6015 1.41667 30.4299Z" fill="#F58220"/>
<path fill-rule="evenodd" clip-rule="evenodd" d="M17.5695 18.4023C17.6163 18.4122 17.6616 18.4164 17.7084 18.4164C17.8939 18.4164 18.0753 18.3428 18.2099 18.2082C18.377 18.041 18.4507 17.8002 18.4039 17.5693L17.3684 12.3914C17.34 12.2525 17.2734 12.1264 17.1743 12.0287L5.78144 0.635863C4.93286 -0.211303 3.55586 -0.211303 2.70869 0.635863L0.636107 2.70703C-0.211059 3.55561 -0.211059 4.93261 0.636107 5.7812L12.0304 17.1726C12.1281 17.2732 12.2542 17.3384 12.3916 17.3667L17.5695 18.4023ZM16.8045 16.8057L12.8789 16.0194L1.63769 4.77961C1.34302 4.48495 1.34302 4.00328 1.63769 3.70861L3.71027 1.63745C4.00494 1.3442 4.48519 1.3442 4.77986 1.63745L16.0197 12.8801L16.8045 16.8057Z" fill="#F58220"/>
</svg>
