<svg width="13" height="15" viewBox="0 0 13 15" fill="none" xmlns="http://www.w3.org/2000/svg">
<path fill-rule="evenodd" clip-rule="evenodd" d="M0.0118408 14.1244C0.0118408 10.511 2.28712 8.52103 6.41848 8.52103C10.5498 8.52103 12.8251 10.5112 12.8251 14.1244C12.8251 14.4067 12.6004 14.6354 12.3233 14.6354H0.513662C0.236487 14.6354 0.0118408 14.4067 0.0118408 14.1244ZM6.41848 9.54294C3.0402 9.54294 1.23113 10.9118 1.03375 13.6135H11.8034C11.6059 10.9118 9.79677 9.54294 6.41848 9.54294Z" fill="#ADB9C8"/>
<path fill-rule="evenodd" clip-rule="evenodd" d="M3.08972 4.09264C3.08972 2.12173 4.52074 0.635376 6.41848 0.635376C8.31623 0.635376 9.74725 2.12173 9.74725 4.0928C9.74725 6.12127 8.25397 7.77147 6.41848 7.77147C4.58299 7.77147 3.08972 6.12127 3.08972 4.09264ZM4.09336 4.0928C4.09336 5.55785 5.13632 6.74974 6.41848 6.74974C7.70064 6.74974 8.7436 5.55785 8.7436 4.0928C8.7436 2.7042 7.74415 1.65727 6.41848 1.65727C5.07125 1.65727 4.09336 2.68156 4.09336 4.0928Z" fill="#ADB9C8"/>
</svg>
