<svg width="151" height="153" viewBox="0 0 151 153" fill="none" xmlns="http://www.w3.org/2000/svg">
<path fill-rule="evenodd" clip-rule="evenodd" d="M150.223 116.093L133.448 100.405L111.236 109.189L78.477 80.0514L54.4092 91.8791L54.3844 91.8618C52.9848 93.5599 51.6756 95.3243 50.4712 97.1429C50.3325 97.3517 50.1953 97.5635 50.0604 97.7738L53.5048 100.118L78.437 88.6548L109.94 114.319L132.861 104.747L150.223 116.093" fill="#E6EFF4"/>
<path fill-rule="evenodd" clip-rule="evenodd" d="M50.0604 97.7738C50.1953 97.5635 50.3325 97.3517 50.4712 97.1429C51.6756 95.3243 52.9847 93.5599 54.3843 91.8618L16.3785 66.2264C15.3867 68.3541 14.4385 70.5662 13.4587 72.8634L50.0604 97.7738" fill="#BFDBE9"/>
<path fill-rule="evenodd" clip-rule="evenodd" d="M13.4587 72.8634C14.4385 70.5662 15.3867 68.3541 16.3785 66.2264L12.0651 63.3171L14.7573 59.4326L0.589393 59.7408L5.62633 72.6079L8.0163 69.159L13.4587 72.8634" fill="#D0E3EE"/>
<path fill-rule="evenodd" clip-rule="evenodd" d="M38.9178 52.1089C38.3209 42.8114 63.5757 39.6014 83.0602 42.4805C98.2758 44.7288 101.996 38.5711 101.996 38.5711C101.996 38.5711 101.228 42.0147 99.6407 43.152C99.6407 43.152 102.361 44.2781 104.036 42.8724C102.085 45.4915 101.047 49.0474 77.5544 45.756C54.0618 42.4654 38.4942 50.2722 39.1567 55.7802L38.9178 52.1089" fill="#EC962D"/>
<path fill-rule="evenodd" clip-rule="evenodd" d="M49.5509 61.7479C49.9896 62.5506 70.7659 73.6812 70.7659 73.6812L93.6752 63.2365L91.4466 59.915L72.5899 67.6237C72.5899 67.6237 58.2116 58.0594 51.3447 52.9923C47.6064 50.2337 46.0862 56.3741 46.0862 56.3741L49.5509 61.7479" fill="#282F77"/>
<path fill-rule="evenodd" clip-rule="evenodd" d="M93.4702 63.4581L97.9117 66.7366L93.5757 58.4505L91.5046 60.2383L93.4702 63.4581" fill="#0F1823"/>
<path fill-rule="evenodd" clip-rule="evenodd" d="M15.1199 29.3225C17.0712 32.8799 21.8134 40.2872 23.9328 41.9265C26.0522 43.5658 37.9561 47.9011 40.9234 46.6454C43.0171 45.7606 43.8816 42.0042 38.917 41.2459C32.8181 40.3151 26.1969 38.3457 26.1969 38.3457L17.3478 27.904L15.1199 29.3225" fill="#3E5192"/>
<path fill-rule="evenodd" clip-rule="evenodd" d="M15.1199 29.3225C13.8175 27.8385 13.0359 26.6755 14.1483 26.0296C15.26 25.3837 16.9363 25.9836 17.3478 27.904" fill="#F0B0AE"/>
<path fill-rule="evenodd" clip-rule="evenodd" d="M55.6076 64.0452C54.2841 66.0998 49.3278 68.2538 47.0833 67.6034C46.3794 67.5959 38.1694 51.2851 38.7203 43.651C39.0595 38.9668 42.4549 39.6752 43.6713 40.5051C47.3735 43.0314 52.4187 59.8238 55.6076 64.0452" fill="#374186"/>
<path fill-rule="evenodd" clip-rule="evenodd" d="M38.9103 36.4766C41.9567 39.1567 42.8596 41.3673 42.1029 41.8949C41.3469 42.4217 36.8195 38.2394 36.8195 38.2394L38.9103 36.4766" fill="#F0B0AE"/>
<path fill-rule="evenodd" clip-rule="evenodd" d="M35.6256 30.811C33.094 35.9098 36.4366 40.9693 39.1469 38.2477C40.4154 36.9732 42.274 34.7642 42.3411 33.6494C42.6425 28.6238 38.4844 25.0528 35.6256 30.811" fill="#F0B0AE"/>
<path fill-rule="evenodd" clip-rule="evenodd" d="M38.9909 32.2295C36.4585 31.1577 32.9734 29.9262 32.586 28.5786C34.3112 27.9779 41.1404 23.2854 42.8649 29.0768C44.7725 29.3986 45.0008 31.3356 43.4098 33.8936C42.1526 35.9135 39.8501 37.6214 39.8501 37.6214L40.4922 35.6008C40.4922 35.6008 42.424 34.174 41.6326 32.9101C40.7176 31.4509 39.4717 33.7746 39.4717 33.7746L38.9909 32.2295" fill="#282F77"/>
<path fill-rule="evenodd" clip-rule="evenodd" d="M54.4153 58.2508C54.1409 58.4098 47.7443 63.7535 47.7443 63.7535C47.7443 63.7535 36.0251 46.4223 40.3528 39.7054C43.492 34.8327 54.4153 58.2508 54.4153 58.2508" fill="#FFFFFE"/>
<path fill-rule="evenodd" clip-rule="evenodd" d="M52.1384 59.572C51.2678 59.8501 35.4448 74.2095 35.4448 74.2095L42.1097 102.365L45.6445 101.048L41.2821 77.5205C41.2821 77.5205 59.6421 66.509 60.8767 62.9312C62.3924 58.5395 58.0729 57.1926 58.0729 57.1926L52.1384 59.572" fill="#323C83"/>
<path fill-rule="evenodd" clip-rule="evenodd" d="M42.1097 102.365L40.227 104.718L38.0473 106.103H40.9445L47.0065 103.421L45.6445 101.048L42.1097 102.365" fill="#0F1823"/>
<path fill-rule="evenodd" clip-rule="evenodd" d="M41.6507 38.201C42.6606 39.4009 43.1008 39.7325 42.7993 39.4152L39.1981 42.7609L38.917 41.2459L41.6507 38.201" fill="#FFFFFE"/>
<path fill-rule="evenodd" clip-rule="evenodd" d="M64.4062 57.8008C63.6345 60.12 57.4421 66.2354 55.1064 66.1623C54.4228 66.3296 41.7118 51.5655 40.3506 44.0331C39.5162 39.4114 42.9772 39.2682 44.3663 39.7566C48.9186 41.3582 57.932 52.9787 64.4062 57.8008" fill="#3E5192"/>
<path fill-rule="evenodd" clip-rule="evenodd" d="M71.4058 49.0572C68.5086 46.2158 61.8264 40.4968 59.3233 39.5411C56.8203 38.5854 44.1718 37.8792 41.6937 39.939C39.9459 41.3914 40.5488 44.0783 45.5692 44.1725C51.203 44.278 58.192 43.6238 58.192 43.6238L69.6829 51.059L71.4058 49.0572" fill="#3E5192"/>
<path fill-rule="evenodd" clip-rule="evenodd" d="M71.4058 49.0572C73.0812 50.1003 74.1666 50.9874 73.2885 51.9281C72.4112 52.8679 70.6325 52.7782 69.6828 51.059" fill="#F0B0AE"/>
<path fill-rule="evenodd" clip-rule="evenodd" d="M4.91712 42.6373C5.02641 42.6305 5.13268 42.5732 5.19749 42.4737L28.9668 6.28129C29.0768 6.11322 29.0308 5.88786 28.8628 5.77782C28.6962 5.66854 28.4686 5.713 28.3585 5.88259L4.59002 42.075C4.47998 42.2431 4.52595 42.4677 4.69403 42.5785C4.76261 42.6237 4.841 42.6418 4.91712 42.6373" fill="#EC962D"/>
<path fill-rule="evenodd" clip-rule="evenodd" d="M30.8872 3.48885L13.409 0.610493L23.7392 14.2614L30.8872 3.48885" fill="#F2B02A"/>
<path fill-rule="evenodd" clip-rule="evenodd" d="M40.9528 40.4478L42.3087 44.4062L41.5278 45.7093L43.8032 48.0284L44.7951 53.2448C44.7951 53.2448 41.4879 49.1567 40.5352 45.3408C40.1606 43.8424 39.8049 41.5655 40.9528 40.4478" fill="#4C5C9A"/>
<path fill-rule="evenodd" clip-rule="evenodd" d="M39.0957 43.7746C40.0031 47.7405 40.6792 52.0841 46.7035 56.8414C46.7035 56.8414 48.7987 57.4662 48.9676 57.161C49.1356 56.8557 47.73 55.5797 47.73 55.5797C47.73 55.5797 41.3771 51.0997 39.7815 43.7557C39.6059 42.9508 39.0957 43.7746 39.0957 43.7746" fill="#CA435D"/>
<path fill-rule="evenodd" clip-rule="evenodd" d="M39.9511 42.0614C39.9511 42.0614 38.957 42.222 38.8726 42.8762C38.7678 43.6834 39.3602 44.5871 39.5999 44.6376C40.2511 44.777 39.9511 42.0614 39.9511 42.0614" fill="#CA435D"/>
<path fill-rule="evenodd" clip-rule="evenodd" d="M39.1748 50.2104C37.9093 56.0583 48.6977 64.67 65.9995 65.7968C83.1627 66.9145 95.3469 71.1269 98.5569 79.5984C95.6318 78.8372 94.2993 78.0172 94.6105 79.1975C94.9037 80.3144 95.0507 81.6786 94.8487 83.477C90.9755 76.0357 90.1524 71.8542 62.837 69.3851C34.3037 66.806 38.801 51.6492 39.1748 50.2104" fill="#F2B02A"/>
<path fill-rule="evenodd" clip-rule="evenodd" d="M22.5219 151.221H52.4436V109.265C52.4436 107.518 51.0274 106.103 49.2811 106.103H25.6844C23.9374 106.103 22.5219 107.518 22.5219 109.265V151.221" fill="#A0A6C8"/>
<path fill-rule="evenodd" clip-rule="evenodd" d="M64.7808 151.221H94.7025V121.496C94.7025 119.75 93.2863 118.335 91.5393 118.335H67.9426C66.1955 118.335 64.7808 119.75 64.7808 121.496V151.221" fill="#A7C7DF"/>
<path fill-rule="evenodd" clip-rule="evenodd" d="M107.038 151.221H136.961V129.239C136.961 127.493 135.545 126.077 133.798 126.077H110.201C108.454 126.077 107.038 127.493 107.038 129.239V151.221" fill="#90D1E6"/>
</svg>
