<svg width="134" height="92" viewBox="0 0 134 92" fill="none" xmlns="http://www.w3.org/2000/svg">
<path fill-rule="evenodd" clip-rule="evenodd" d="M133.698 0.530792L109.871 8.41077L114.655 12.3972V12.3972L94.0378 33.9797L75.9661 18.4629L3.82874 77.5701L4.46393 77.58H22.4343L75.789 33.8632L94.8411 50.2217L123.739 19.9691L123.74 19.9688L128.902 24.2716L133.698 0.530792Z" fill="#F58220" fill-opacity="0.536905"/>
<path fill-rule="evenodd" clip-rule="evenodd" d="M49.2047 77.163L43.7314 76.6922C43.7314 76.6922 44.0478 73.3178 43.085 68.8171C42.3745 65.4923 40.966 61.5535 38.2174 57.9053C33.53 51.6841 19.6067 48.2037 19.6067 48.2037V47.3984L20.1073 47.3441C20.1073 47.3441 19.8915 47.1936 19.6067 47.1065V45.2026C20.0181 45.1968 20.6071 45.2214 21.189 45.3576C20.8629 45.2762 20.1673 45.1167 19.6067 45.0735V44.0724C39.7757 44.6117 46.3534 56.7944 48.4148 66.2227C49.7349 72.2573 49.2047 77.163 49.2047 77.163" fill="#67B475"/>
<path fill-rule="evenodd" clip-rule="evenodd" d="M73.1588 75.3922L49.2047 77.163C49.0807 73.4734 48.1178 69.6579 47.1865 66.7653C46.2552 63.8726 45.3543 61.9022 45.3543 61.9022C38.1883 46.2004 19.6067 44.0724 19.6067 44.0724L40.2304 35.6264C50.1935 36.3762 57.1832 41.1611 62.072 47.1691C71.647 58.936 73.1588 75.3922 73.1588 75.3922" fill="#95D39E"/>
<path fill-rule="evenodd" clip-rule="evenodd" d="M73.1588 75.3922L49.2047 77.163L43.7313 76.6922C43.7313 76.6922 44.0478 73.3178 43.0849 68.8171C44.2261 68.1298 45.583 67.4434 47.1865 66.7653C47.6076 66.5871 48.017 66.4062 48.4148 66.2227C63.6665 59.1834 62.2458 48.2179 62.072 47.1691C71.647 58.936 73.1588 75.3922 73.1588 75.3922" fill="#67B475"/>
<path fill-rule="evenodd" clip-rule="evenodd" d="M50.7643 76.1295L70.6056 76.5133L70.7989 73.1915C70.8838 71.0079 70.2294 67.7891 68.9061 63.8829C67.901 60.9151 66.8577 58.5821 66.8473 58.5589C64.7161 53.6787 62.0029 49.5405 58.7814 46.256C56.2077 43.6318 53.3047 41.5427 50.1531 40.0468C46.7334 38.4238 43.7517 37.8582 42.0255 37.6618C41.1193 37.5587 40.202 37.6807 39.3545 38.018L27.807 42.6136C27.2046 42.8533 27.2352 43.7143 27.8523 43.9131C33.4679 45.7211 38.143 48.3082 41.7799 51.6241C45.1882 54.7317 47.695 58.4803 49.2307 62.7659C50.5957 66.5754 50.9237 70.1121 50.9584 72.4081C50.9855 74.1897 50.849 75.5016 50.7643 76.1295V76.1295ZM71.275 77.2368L49.9276 76.8239L50.0029 76.4128C50.0142 76.3505 51.1105 70.0916 48.5511 62.9751C47.0516 58.806 44.607 55.1588 41.2854 52.1347C37.124 48.3462 31.5629 45.5263 24.7563 43.7534L23.7077 43.4804L40.3697 36.8493L40.4337 36.8478C40.6139 36.8438 44.9053 36.779 50.4215 39.3879C53.6548 40.9171 56.6317 43.0538 59.2692 45.7388C62.56 49.0885 65.3281 53.3051 67.4968 58.2713C67.6681 58.6529 71.723 67.7564 71.5088 73.2225L71.5085 73.2292L71.275 77.2368Z" fill="#67B475"/>
<path fill-rule="evenodd" clip-rule="evenodd" d="M59.7885 52.7081C59.7885 56.2249 57.7282 58.3499 54.2115 58.3499C50.6947 58.3499 47.0532 56.2249 47.0532 52.7081C47.0532 49.1913 49.0009 47.088 52.5177 47.088C56.0345 47.088 59.7885 49.1913 59.7885 52.7081" fill="#67B475"/>
<path fill-rule="evenodd" clip-rule="evenodd" d="M91.7632 88.6237V90.7251C91.7632 90.8926 91.7122 91.048 91.6245 91.1773C91.5322 91.3133 91.3997 91.4203 91.2443 91.4804C91.1969 91.4992 91.1472 91.513 91.0961 91.522C91.0496 91.5305 91.0022 91.535 90.9534 91.535H57.4819C57.0503 91.535 56.6949 91.1929 56.6729 90.7667C56.6725 90.7528 56.6721 90.739 56.6721 90.7251V88.6237C56.6721 88.6099 56.6725 88.596 56.6729 88.5821C56.6949 88.1559 57.0503 87.814 57.4819 87.814H90.9534C91.0022 87.814 91.0496 87.8184 91.0961 87.8269C91.1472 87.8359 91.1969 87.8498 91.2443 87.8686C91.3997 87.9285 91.5322 88.0355 91.6245 88.1716C91.7122 88.301 91.7632 88.4563 91.7632 88.6237" fill="#FFBA2C"/>
<path fill-rule="evenodd" clip-rule="evenodd" d="M75.3269 91.535H57.395C57.01 91.535 56.6926 91.193 56.6729 90.7667C56.6724 90.7529 56.672 90.739 56.672 90.7251V88.6238C56.672 88.6099 56.6724 88.5961 56.6729 88.5821C56.6926 88.1559 57.01 87.8139 57.395 87.8139H73.1248C73.376 88.9094 73.9615 90.4243 75.3269 91.535" fill="#FFA500"/>
<path fill-rule="evenodd" clip-rule="evenodd" d="M87.31 91.5351H87.6903V87.814H87.31V91.5351Z" fill="#FFA500"/>
<path fill-rule="evenodd" clip-rule="evenodd" d="M86.0221 91.5351H86.4026V87.814H86.0221V91.5351Z" fill="#FFA500"/>
<path fill-rule="evenodd" clip-rule="evenodd" d="M84.478 91.5351H84.8584V87.814H84.478V91.5351Z" fill="#FFA500"/>
<path fill-rule="evenodd" clip-rule="evenodd" d="M82.111 91.5351H82.4913V87.814H82.111V91.5351Z" fill="#FFA500"/>
<path fill-rule="evenodd" clip-rule="evenodd" d="M79.608 91.5351H79.9884V87.814H79.608V91.5351Z" fill="#FFA500"/>
<path fill-rule="evenodd" clip-rule="evenodd" d="M75.7708 91.5351H76.1513V87.814H75.7708V91.5351Z" fill="#FFA500"/>
<path fill-rule="evenodd" clip-rule="evenodd" d="M72.1781 91.5351H72.5586V87.814H72.1781V91.5351Z" fill="#FFA500"/>
<path fill-rule="evenodd" clip-rule="evenodd" d="M68.97 91.5351H69.3505V87.814H68.97V91.5351Z" fill="#FFA500"/>
<path fill-rule="evenodd" clip-rule="evenodd" d="M88.5357 91.5351H88.9161V87.814H88.5357V91.5351Z" fill="#FFA500"/>
<path fill-rule="evenodd" clip-rule="evenodd" d="M89.3454 91.5351H89.7259V87.814H89.3454V91.5351Z" fill="#FFA500"/>
<path fill-rule="evenodd" clip-rule="evenodd" d="M90.1273 91.5351H90.5078V87.814H90.1273V91.5351Z" fill="#FFA500"/>
<path fill-rule="evenodd" clip-rule="evenodd" d="M91.0961 87.8269V91.522C91.0496 91.5305 91.0022 91.535 90.9534 91.535H90.7156V87.814H90.9534C91.0022 87.814 91.0496 87.8184 91.0961 87.8269" fill="#FFA500"/>
<path fill-rule="evenodd" clip-rule="evenodd" d="M91.6245 88.1716V91.1773C91.5322 91.3134 91.3997 91.4204 91.2443 91.4803V87.8685C91.3997 87.9286 91.5322 88.0356 91.6245 88.1716" fill="#FFA500"/>
<path fill-rule="evenodd" clip-rule="evenodd" d="M88.1845 84.9027V87.0041C88.1845 87.1716 88.1335 87.3269 88.0457 87.4562C87.9536 87.5923 87.821 87.6993 87.6657 87.7593C87.6182 87.7781 87.5685 87.792 87.5175 87.801C87.4709 87.8095 87.4235 87.8139 87.3747 87.8139H53.9032C53.4715 87.8139 53.1162 87.4719 53.0942 87.0457C53.0938 87.0318 53.0933 87.018 53.0933 87.0041V84.9027C53.0933 84.8889 53.0938 84.8749 53.0942 84.8611C53.1162 84.4349 53.4715 84.0929 53.9032 84.0929H87.3747C87.3962 84.0929 87.4177 84.0938 87.4387 84.0955C87.4476 84.096 87.4571 84.0969 87.466 84.0983C87.4759 84.0991 87.4862 84.1005 87.496 84.1022C87.5031 84.1032 87.5103 84.1045 87.5175 84.1058C87.5685 84.1148 87.6182 84.1287 87.6657 84.1475C87.6728 84.1502 87.6795 84.1529 87.6867 84.156C87.6934 84.1587 87.7007 84.1618 87.7073 84.165C87.7208 84.1713 87.7346 84.1779 87.7481 84.1847C87.7556 84.1886 87.7638 84.1932 87.7714 84.1976C87.7785 84.2017 87.7852 84.2053 87.7919 84.2097C87.8049 84.2173 87.8175 84.2254 87.83 84.2339C87.8443 84.2438 87.8582 84.254 87.8716 84.2648C87.8824 84.2728 87.8927 84.2813 87.9029 84.2903C87.9034 84.2908 87.9044 84.2912 87.9047 84.2921C87.9115 84.298 87.9186 84.3042 87.9254 84.3104C87.946 84.3292 87.9656 84.3498 87.984 84.3709C87.9899 84.3771 87.9952 84.3834 88.0002 84.3897C88.0054 84.3959 88.0104 84.4026 88.0157 84.4093C88.0261 84.4228 88.0364 84.4367 88.0457 84.4506C88.1335 84.5799 88.1845 84.7353 88.1845 84.9027" fill="#FFBA2C"/>
<path fill-rule="evenodd" clip-rule="evenodd" d="M71.7483 87.814H53.8163C53.4308 87.814 53.1139 87.4719 53.0942 87.0457C53.0938 87.0318 53.0932 87.0179 53.0932 87.0041V84.9027C53.0932 84.8889 53.0938 84.8749 53.0942 84.861C53.1139 84.4349 53.4308 84.0929 53.8163 84.0929H69.5457C69.5528 84.1233 69.5601 84.1538 69.5676 84.1847C69.8305 85.2716 70.42 86.7341 71.7483 87.814" fill="#FFA500"/>
<path fill-rule="evenodd" clip-rule="evenodd" d="M83.7312 87.8139H84.1116V84.0928H83.7312V87.8139Z" fill="#FFA500"/>
<path fill-rule="evenodd" clip-rule="evenodd" d="M82.4435 87.8139H82.8238V84.0928H82.4435V87.8139Z" fill="#FFA500"/>
<path fill-rule="evenodd" clip-rule="evenodd" d="M80.8993 87.8139H81.2797V84.0928H80.8993V87.8139Z" fill="#FFA500"/>
<path fill-rule="evenodd" clip-rule="evenodd" d="M78.5322 87.8139H78.9126V84.0928H78.5322V87.8139Z" fill="#FFA500"/>
<path fill-rule="evenodd" clip-rule="evenodd" d="M76.0293 87.8139H76.4097V84.0928H76.0293V87.8139Z" fill="#FFA500"/>
<path fill-rule="evenodd" clip-rule="evenodd" d="M72.1921 87.8139H72.5725V84.0928H72.1921V87.8139Z" fill="#FFA500"/>
<path fill-rule="evenodd" clip-rule="evenodd" d="M68.5994 87.8139H68.9798V84.0928H68.5994V87.8139Z" fill="#FFA500"/>
<path fill-rule="evenodd" clip-rule="evenodd" d="M65.3912 87.8139H65.7716V84.0928H65.3912V87.8139Z" fill="#FFA500"/>
<path fill-rule="evenodd" clip-rule="evenodd" d="M84.9569 87.8139H85.3374V84.0928H84.9569V87.8139Z" fill="#FFA500"/>
<path fill-rule="evenodd" clip-rule="evenodd" d="M85.7667 87.8139H86.1471V84.0928H85.7667V87.8139Z" fill="#FFA500"/>
<path fill-rule="evenodd" clip-rule="evenodd" d="M86.5486 87.8139H86.9291V84.0928H86.5486V87.8139Z" fill="#FFA500"/>
<path fill-rule="evenodd" clip-rule="evenodd" d="M87.5174 84.1057V87.8009C87.4709 87.8093 87.4235 87.8139 87.3747 87.8139H87.1369V84.0928H87.3747C87.4235 84.0928 87.4709 84.0972 87.5174 84.1057" fill="#FFA500"/>
<path fill-rule="evenodd" clip-rule="evenodd" d="M88.0457 84.4505V87.4561C87.9535 87.5923 87.821 87.6993 87.6656 87.7592V84.1474C87.821 84.2074 87.9535 84.3144 88.0457 84.4505" fill="#FFA500"/>
<path fill-rule="evenodd" clip-rule="evenodd" d="M89.9139 81.2734V83.3748C89.9139 83.5422 89.8628 83.6976 89.7751 83.8269C89.6829 83.9631 89.5504 84.0701 89.3951 84.13C89.3476 84.1489 89.2979 84.1627 89.2468 84.1717C89.2002 84.1802 89.1529 84.1846 89.104 84.1846H55.6325C55.4982 84.1846 55.3711 84.1516 55.2592 84.0929C55.0224 83.9689 54.8531 83.7307 54.8262 83.4527C54.8249 83.4406 54.824 83.4286 54.8236 83.4165C54.8232 83.4026 54.8227 83.3887 54.8227 83.3748V81.2734C54.8227 81.2596 54.8232 81.2456 54.8236 81.2318C54.8455 80.8056 55.2009 80.4635 55.6325 80.4635H89.104C89.1529 80.4635 89.2002 80.4681 89.2468 80.4766C89.2979 80.4856 89.3476 80.4995 89.3951 80.5182C89.5504 80.5783 89.6829 80.6852 89.7751 80.8213C89.8628 80.9507 89.9139 81.106 89.9139 81.2734" fill="#FFBA2C"/>
<path fill-rule="evenodd" clip-rule="evenodd" d="M73.4776 84.1847H55.5457C55.4257 84.1847 55.3125 84.1516 55.2126 84.0929C55.0008 83.9689 54.85 83.7307 54.8262 83.4527C54.8249 83.4407 54.824 83.4286 54.8236 83.4164C54.8232 83.4026 54.8226 83.3887 54.8226 83.3748V81.2734C54.8226 81.2595 54.8232 81.2456 54.8236 81.2318C54.8432 80.8056 55.1607 80.4636 55.5457 80.4636H71.2755C71.5199 81.529 72.0804 82.9916 73.3675 84.0929C73.4037 84.1237 73.4405 84.1542 73.4776 84.1847" fill="#FFA500"/>
<path fill-rule="evenodd" clip-rule="evenodd" d="M85.4606 84.1847H85.8411V80.4636H85.4606V84.1847Z" fill="#FFA500"/>
<path fill-rule="evenodd" clip-rule="evenodd" d="M84.1729 84.1847H84.5533V80.4636H84.1729V84.1847Z" fill="#FFA500"/>
<path fill-rule="evenodd" clip-rule="evenodd" d="M82.6287 84.1847H83.0091V80.4636H82.6287V84.1847Z" fill="#FFA500"/>
<path fill-rule="evenodd" clip-rule="evenodd" d="M80.2617 84.1847H80.6421V80.4636H80.2617V84.1847Z" fill="#FFA500"/>
<path fill-rule="evenodd" clip-rule="evenodd" d="M77.7588 84.1847H78.1392V80.4636H77.7588V84.1847Z" fill="#FFA500"/>
<path fill-rule="evenodd" clip-rule="evenodd" d="M73.9216 84.1847H74.302V80.4636H73.9216V84.1847Z" fill="#FFA500"/>
<path fill-rule="evenodd" clip-rule="evenodd" d="M70.3288 84.1847H70.7093V80.4636H70.3288V84.1847Z" fill="#FFA500"/>
<path fill-rule="evenodd" clip-rule="evenodd" d="M67.1207 84.1847H67.5011V80.4636H67.1207V84.1847Z" fill="#FFA500"/>
<path fill-rule="evenodd" clip-rule="evenodd" d="M86.6864 84.1847H87.0668V80.4636H86.6864V84.1847Z" fill="#FFA500"/>
<path fill-rule="evenodd" clip-rule="evenodd" d="M87.4962 84.1847H87.8766V80.4636H87.4962V84.1847Z" fill="#FFA500"/>
<path fill-rule="evenodd" clip-rule="evenodd" d="M88.2781 84.1847H88.6585V80.4636H88.2781V84.1847Z" fill="#FFA500"/>
<path fill-rule="evenodd" clip-rule="evenodd" d="M89.2469 80.4765V84.1716C89.2003 84.1801 89.1529 84.1846 89.1041 84.1846H88.8663V80.4635H89.1041C89.1529 80.4635 89.2003 80.468 89.2469 80.4765" fill="#FFA500"/>
<path fill-rule="evenodd" clip-rule="evenodd" d="M89.7751 80.8212V83.8269C89.683 83.963 89.5504 84.07 89.3951 84.13V80.5181C89.5504 80.5781 89.683 80.6851 89.7751 80.8212" fill="#FFA500"/>
<path fill-rule="evenodd" clip-rule="evenodd" d="M90.7156 77.5524V79.6537C90.7156 79.8212 90.6646 79.9766 90.5769 80.1059C90.4847 80.242 90.3521 80.349 90.1968 80.409C90.1494 80.4278 90.0997 80.4417 90.0486 80.4507C90.0021 80.4591 89.9546 80.4636 89.9058 80.4636H56.4343C56.0028 80.4636 55.6473 80.1216 55.6253 79.6954C55.6249 79.6815 55.6244 79.6676 55.6244 79.6537V77.5524C55.6244 77.5385 55.6249 77.5246 55.6253 77.5108C55.6455 77.1163 55.9513 76.7944 56.3385 76.7484C56.3698 76.7443 56.4016 76.7425 56.4343 76.7425H89.9058C89.9546 76.7425 90.0021 76.7471 90.0486 76.7556C90.0997 76.7645 90.1494 76.7784 90.1968 76.7971C90.3521 76.8571 90.4847 76.9641 90.5769 77.1003C90.6646 77.2296 90.7156 77.385 90.7156 77.5524" fill="#FFBA2C"/>
<path fill-rule="evenodd" clip-rule="evenodd" d="M74.2794 80.4635H56.3475C55.9624 80.4635 55.645 80.1216 55.6254 79.6954C55.6249 79.6815 55.6244 79.6676 55.6244 79.6537V77.5524C55.6244 77.5385 55.6249 77.5246 55.6254 77.5107C55.6433 77.1168 55.9163 76.7945 56.262 76.7484C56.2897 76.7444 56.3183 76.7425 56.3475 76.7425H72.0773C72.0777 76.7444 72.0782 76.7466 72.0787 76.7484C72.3306 77.8429 72.9162 79.3547 74.2794 80.4635" fill="#FFA500"/>
<path fill-rule="evenodd" clip-rule="evenodd" d="M86.2624 80.4636H86.6428V76.7425H86.2624V80.4636Z" fill="#FFA500"/>
<path fill-rule="evenodd" clip-rule="evenodd" d="M84.9747 80.4636H85.3551V76.7425H84.9747V80.4636Z" fill="#FFA500"/>
<path fill-rule="evenodd" clip-rule="evenodd" d="M83.4305 80.4636H83.8109V76.7425H83.4305V80.4636Z" fill="#FFA500"/>
<path fill-rule="evenodd" clip-rule="evenodd" d="M81.0634 80.4636H81.4438V76.7425H81.0634V80.4636Z" fill="#FFA500"/>
<path fill-rule="evenodd" clip-rule="evenodd" d="M78.5605 80.4636H78.9409V76.7425H78.5605V80.4636Z" fill="#FFA500"/>
<path fill-rule="evenodd" clip-rule="evenodd" d="M74.7233 80.4636H75.1038V76.7425H74.7233V80.4636Z" fill="#FFA500"/>
<path fill-rule="evenodd" clip-rule="evenodd" d="M71.1306 80.4636H71.511V76.7425H71.1306V80.4636Z" fill="#FFA500"/>
<path fill-rule="evenodd" clip-rule="evenodd" d="M67.9224 80.4636H68.3029V76.7425H67.9224V80.4636Z" fill="#FFA500"/>
<path fill-rule="evenodd" clip-rule="evenodd" d="M87.4881 80.4636H87.8686V76.7425H87.4881V80.4636Z" fill="#FFA500"/>
<path fill-rule="evenodd" clip-rule="evenodd" d="M88.2979 80.4636H88.6783V76.7425H88.2979V80.4636Z" fill="#FFA500"/>
<path fill-rule="evenodd" clip-rule="evenodd" d="M89.0798 80.4636H89.4603V76.7425H89.0798V80.4636Z" fill="#FFA500"/>
<path fill-rule="evenodd" clip-rule="evenodd" d="M90.0486 76.7553V80.4505C90.0021 80.4589 89.9546 80.4635 89.9058 80.4635H89.6681V76.7424H89.9058C89.9546 76.7424 90.0021 76.7469 90.0486 76.7553" fill="#FFA500"/>
<path fill-rule="evenodd" clip-rule="evenodd" d="M90.5769 77.1001V80.1057C90.4847 80.2418 90.3521 80.3488 90.1968 80.4089V76.797C90.3521 76.857 90.4847 76.964 90.5769 77.1001" fill="#FFA500"/>
<path fill-rule="evenodd" clip-rule="evenodd" d="M88.2547 73.8371V75.9385C88.2547 76.106 88.2037 76.2613 88.116 76.3906C88.0238 76.5268 87.8913 76.6338 87.7359 76.6937C87.6885 76.7126 87.6388 76.7265 87.5878 76.7354C87.5721 76.738 87.5564 76.7408 87.5408 76.7425C87.5322 76.7434 87.5234 76.7443 87.5144 76.7452C87.5059 76.7461 87.4969 76.7465 87.4879 76.747C87.4736 76.7479 87.4592 76.7484 87.445 76.7484H53.9734C53.5418 76.7484 53.1865 76.4063 53.1645 75.9802C53.1641 75.9663 53.1636 75.9524 53.1636 75.9385V73.8371C53.1636 73.8233 53.1641 73.8094 53.1645 73.7955C53.165 73.7839 53.1659 73.7727 53.1667 73.7616C53.199 73.4186 53.4478 73.1356 53.7738 73.0524C53.7818 73.0502 53.7903 73.0484 53.7984 73.0466C53.8548 73.0341 53.9134 73.0273 53.9734 73.0273H87.445C87.4696 73.0273 87.4937 73.0286 87.5174 73.0304C87.5282 73.0318 87.539 73.0327 87.5497 73.0341H87.5502C87.5628 73.0358 87.5752 73.0381 87.5878 73.0403C87.6388 73.0493 87.6885 73.0631 87.7359 73.082C87.8913 73.1419 88.0238 73.2489 88.116 73.385C88.2037 73.5144 88.2547 73.6698 88.2547 73.8371" fill="#FFBA2C"/>
<path fill-rule="evenodd" clip-rule="evenodd" d="M71.8186 76.7484H53.8867C53.5016 76.7484 53.1842 76.4064 53.1645 75.9802C53.1641 75.9663 53.1636 75.9524 53.1636 75.9386V73.8372C53.1636 73.8233 53.1641 73.8094 53.1645 73.7955C53.165 73.7839 53.1659 73.7727 53.1668 73.7616C53.1958 73.411 53.4272 73.1236 53.7276 73.0475C53.7379 73.0443 53.7482 73.042 53.7587 73.0403C53.8002 73.0318 53.8427 73.0273 53.8867 73.0273H69.6165C69.6183 73.0363 69.6205 73.0448 69.6227 73.0538C69.8766 74.1452 70.4621 75.6413 71.8114 76.7425C71.8136 76.7444 71.8163 76.7466 71.8186 76.7484" fill="#FFA500"/>
<path fill-rule="evenodd" clip-rule="evenodd" d="M83.8016 76.7483H84.1819V73.0272H83.8016V76.7483Z" fill="#FFA500"/>
<path fill-rule="evenodd" clip-rule="evenodd" d="M82.5137 76.7483H82.8942V73.0272H82.5137V76.7483Z" fill="#FFA500"/>
<path fill-rule="evenodd" clip-rule="evenodd" d="M80.9695 76.7483H81.3501V73.0272H80.9695V76.7483Z" fill="#FFA500"/>
<path fill-rule="evenodd" clip-rule="evenodd" d="M78.6026 76.7483H78.9831V73.0272H78.6026V76.7483Z" fill="#FFA500"/>
<path fill-rule="evenodd" clip-rule="evenodd" d="M76.0996 76.7483H76.4801V73.0272H76.0996V76.7483Z" fill="#FFA500"/>
<path fill-rule="evenodd" clip-rule="evenodd" d="M72.2625 76.7483H72.6429V73.0272H72.2625V76.7483Z" fill="#FFA500"/>
<path fill-rule="evenodd" clip-rule="evenodd" d="M68.6697 76.7483H69.0501V73.0272H68.6697V76.7483Z" fill="#FFA500"/>
<path fill-rule="evenodd" clip-rule="evenodd" d="M65.4616 76.7483H65.842V73.0272H65.4616V76.7483Z" fill="#FFA500"/>
<path fill-rule="evenodd" clip-rule="evenodd" d="M85.0273 76.7483H85.4078V73.0272H85.0273V76.7483Z" fill="#FFA500"/>
<path fill-rule="evenodd" clip-rule="evenodd" d="M85.8371 76.7483H86.2175V73.0272H85.8371V76.7483Z" fill="#FFA500"/>
<path fill-rule="evenodd" clip-rule="evenodd" d="M86.619 76.7483H86.9994V73.0272H86.619V76.7483Z" fill="#FFA500"/>
<path fill-rule="evenodd" clip-rule="evenodd" d="M87.5878 73.0402V76.7353C87.5413 76.7438 87.4938 76.7483 87.445 76.7483H87.2072V73.0272H87.445C87.4938 73.0272 87.5413 73.0316 87.5878 73.0402" fill="#FFA500"/>
<path fill-rule="evenodd" clip-rule="evenodd" d="M88.116 73.3849V76.3905C88.0239 76.5266 87.8913 76.6336 87.736 76.6936V73.0818C87.8913 73.1418 88.0239 73.2488 88.116 73.3849" fill="#FFA500"/>
<path fill-rule="evenodd" clip-rule="evenodd" d="M88.1845 70.1425V72.2439C88.1845 72.4113 88.1335 72.5667 88.0457 72.6961C87.9536 72.8322 87.821 72.9391 87.6657 72.9992C87.6285 73.0139 87.5896 73.0255 87.5502 73.0341H87.5494C87.5386 73.0367 87.5282 73.039 87.5175 73.0408C87.4709 73.0493 87.4235 73.0537 87.3747 73.0537H53.9032C53.8678 73.0537 53.8324 73.0515 53.7984 73.0465C53.7849 73.0452 53.7716 73.043 53.7587 73.0403C53.3946 72.9745 53.1135 72.6629 53.0942 72.2855C53.0938 72.2717 53.0933 72.2578 53.0933 72.2439V70.1425C53.0933 70.1287 53.0938 70.1148 53.0942 70.1009C53.1162 69.6747 53.4715 69.3327 53.9032 69.3327H87.3747C87.3962 69.3327 87.4177 69.3336 87.4387 69.3354C87.4476 69.3362 87.4571 69.3372 87.466 69.338C87.4759 69.339 87.4862 69.3403 87.496 69.3421C87.5031 69.343 87.5103 69.3443 87.5175 69.3457C87.5685 69.3546 87.6182 69.3685 87.6657 69.3873C87.6728 69.3901 87.6795 69.3926 87.6867 69.3959C87.6934 69.3985 87.7007 69.4016 87.7073 69.4048C87.7212 69.4111 87.7346 69.4178 87.7481 69.4245C87.7629 69.4325 87.7776 69.4406 87.7919 69.4495C87.8049 69.4572 87.8175 69.4652 87.83 69.4738C87.8443 69.4836 87.8582 69.4938 87.8716 69.5046C87.8824 69.5126 87.8927 69.5211 87.9029 69.5301C87.9034 69.5306 87.9044 69.531 87.9047 69.5319C87.9115 69.5377 87.9186 69.5439 87.9254 69.5502C87.946 69.569 87.9656 69.5896 87.984 69.6107C87.9899 69.6169 87.9952 69.6232 88.0002 69.6295C88.0054 69.6362 88.0104 69.6424 88.0157 69.6492C88.0261 69.6626 88.0364 69.6765 88.0457 69.6904C88.1335 69.8198 88.1845 69.9751 88.1845 70.1425" fill="#FFBA2C"/>
<path fill-rule="evenodd" clip-rule="evenodd" d="M71.7483 73.0538H53.8163C53.8019 73.0538 53.7876 73.0533 53.7738 73.0525C53.7581 73.0515 53.7429 73.0497 53.7277 73.0475C53.3829 73 53.1121 72.6786 53.0942 72.2855C53.0938 72.2717 53.0932 72.2578 53.0932 72.2439V70.1426C53.0932 70.1287 53.0938 70.1148 53.0942 70.1009C53.1139 69.6747 53.4308 69.3327 53.8163 69.3327H69.5457C69.5528 69.3631 69.5601 69.3936 69.5676 69.4245C69.8282 70.5024 70.4107 71.9498 71.716 73.0273C71.7268 73.0363 71.7375 73.0448 71.7483 73.0538" fill="#FFA500"/>
<path fill-rule="evenodd" clip-rule="evenodd" d="M83.7312 73.0539H84.1116V69.3328H83.7312V73.0539Z" fill="#FFA500"/>
<path fill-rule="evenodd" clip-rule="evenodd" d="M82.4435 73.0539H82.8238V69.3328H82.4435V73.0539Z" fill="#FFA500"/>
<path fill-rule="evenodd" clip-rule="evenodd" d="M80.8993 73.0539H81.2797V69.3328H80.8993V73.0539Z" fill="#FFA500"/>
<path fill-rule="evenodd" clip-rule="evenodd" d="M78.5322 73.0539H78.9126V69.3328H78.5322V73.0539Z" fill="#FFA500"/>
<path fill-rule="evenodd" clip-rule="evenodd" d="M76.0293 73.0539H76.4097V69.3328H76.0293V73.0539Z" fill="#FFA500"/>
<path fill-rule="evenodd" clip-rule="evenodd" d="M72.1921 73.0539H72.5725V69.3328H72.1921V73.0539Z" fill="#FFA500"/>
<path fill-rule="evenodd" clip-rule="evenodd" d="M68.5994 73.0539H68.9798V69.3328H68.5994V73.0539Z" fill="#FFA500"/>
<path fill-rule="evenodd" clip-rule="evenodd" d="M65.3912 73.0539H65.7716V69.3328H65.3912V73.0539Z" fill="#FFA500"/>
<path fill-rule="evenodd" clip-rule="evenodd" d="M84.9569 73.0539H85.3374V69.3328H84.9569V73.0539Z" fill="#FFA500"/>
<path fill-rule="evenodd" clip-rule="evenodd" d="M85.7667 73.0539H86.1471V69.3328H85.7667V73.0539Z" fill="#FFA500"/>
<path fill-rule="evenodd" clip-rule="evenodd" d="M86.5486 73.0539H86.9291V69.3328H86.5486V73.0539Z" fill="#FFA500"/>
<path fill-rule="evenodd" clip-rule="evenodd" d="M87.5174 69.3457V73.0408C87.4709 73.0493 87.4235 73.0538 87.3747 73.0538H87.1369V69.3327H87.3747C87.4235 69.3327 87.4709 69.3372 87.5174 69.3457" fill="#FFA500"/>
<path fill-rule="evenodd" clip-rule="evenodd" d="M88.0457 69.6905V72.6961C87.9535 72.8322 87.821 72.9392 87.6656 72.9992V69.3874C87.821 69.4473 87.9535 69.5543 88.0457 69.6905" fill="#FFA500"/>
<path fill-rule="evenodd" clip-rule="evenodd" d="M89.9139 66.5132V68.6146C89.9139 68.7821 89.8628 68.9374 89.7751 69.0668C89.6829 69.2028 89.5504 69.3098 89.3951 69.3699C89.3476 69.3886 89.2979 69.4025 89.2468 69.4115C89.2002 69.42 89.1529 69.4244 89.104 69.4244H55.6325C55.4982 69.4244 55.3711 69.3913 55.2592 69.3326C55.0224 69.2087 54.8531 68.9705 54.8262 68.6925C54.8249 68.6804 54.824 68.6684 54.8236 68.6563C54.8232 68.6424 54.8227 68.6286 54.8227 68.6146V66.5132C54.8227 66.4994 54.8232 66.4855 54.8236 66.4716C54.8455 66.0454 55.2009 65.7034 55.6325 65.7034H89.104C89.1529 65.7034 89.2002 65.7078 89.2468 65.7164C89.2979 65.7254 89.3476 65.7393 89.3951 65.758C89.5504 65.818 89.6829 65.925 89.7751 66.0611C89.8628 66.1905 89.9139 66.3458 89.9139 66.5132" fill="#FFBA2C"/>
<path fill-rule="evenodd" clip-rule="evenodd" d="M73.4776 69.4245H55.5457C55.4257 69.4245 55.3125 69.3913 55.2126 69.3327C55.0008 69.2087 54.85 68.9705 54.8262 68.6925C54.8249 68.6805 54.824 68.6683 54.8236 68.6562C54.8232 68.6424 54.8226 68.6285 54.8226 68.6146V66.5132C54.8226 66.4994 54.8232 66.4855 54.8236 66.4716C54.8432 66.0454 55.1607 65.7034 55.5457 65.7034H71.2755C71.5199 66.7689 72.0804 68.2314 73.3675 69.3327C73.4037 69.3636 73.4405 69.394 73.4776 69.4245" fill="#FFA500"/>
<path fill-rule="evenodd" clip-rule="evenodd" d="M85.4606 69.4246H85.8411V65.7036H85.4606V69.4246Z" fill="#FFA500"/>
<path fill-rule="evenodd" clip-rule="evenodd" d="M84.1729 69.4246H84.5533V65.7036H84.1729V69.4246Z" fill="#FFA500"/>
<path fill-rule="evenodd" clip-rule="evenodd" d="M82.6287 69.4246H83.0091V65.7036H82.6287V69.4246Z" fill="#FFA500"/>
<path fill-rule="evenodd" clip-rule="evenodd" d="M80.2617 69.4246H80.6421V65.7036H80.2617V69.4246Z" fill="#FFA500"/>
<path fill-rule="evenodd" clip-rule="evenodd" d="M77.7588 69.4246H78.1392V65.7036H77.7588V69.4246Z" fill="#FFA500"/>
<path fill-rule="evenodd" clip-rule="evenodd" d="M73.9216 69.4246H74.302V65.7036H73.9216V69.4246Z" fill="#FFA500"/>
<path fill-rule="evenodd" clip-rule="evenodd" d="M70.3288 69.4246H70.7093V65.7036H70.3288V69.4246Z" fill="#FFA500"/>
<path fill-rule="evenodd" clip-rule="evenodd" d="M67.1207 69.4246H67.5011V65.7036H67.1207V69.4246Z" fill="#FFA500"/>
<path fill-rule="evenodd" clip-rule="evenodd" d="M86.6864 69.4246H87.0668V65.7036H86.6864V69.4246Z" fill="#FFA500"/>
<path fill-rule="evenodd" clip-rule="evenodd" d="M87.4962 69.4246H87.8766V65.7036H87.4962V69.4246Z" fill="#FFA500"/>
<path fill-rule="evenodd" clip-rule="evenodd" d="M88.2781 69.4246H88.6585V65.7036H88.2781V69.4246Z" fill="#FFA500"/>
<path fill-rule="evenodd" clip-rule="evenodd" d="M89.2469 65.7164V69.4115C89.2003 69.4201 89.1529 69.4246 89.1041 69.4246H88.8663V65.7034H89.1041C89.1529 65.7034 89.2003 65.708 89.2469 65.7164" fill="#FFA500"/>
<path fill-rule="evenodd" clip-rule="evenodd" d="M89.7751 66.0612V69.0668C89.683 69.203 89.5504 69.31 89.3951 69.3699V65.7581C89.5504 65.818 89.683 65.925 89.7751 66.0612" fill="#FFA500"/>
<path fill-rule="evenodd" clip-rule="evenodd" d="M92.6491 62.7922V64.8936C92.6491 65.061 92.5981 65.2164 92.5104 65.3457C92.4182 65.4818 92.2857 65.5888 92.1303 65.6488C92.0828 65.6676 92.0332 65.6815 91.9821 65.6904C91.9355 65.699 91.8881 65.7034 91.8394 65.7034H58.3678C57.9362 65.7034 57.5808 65.3614 57.5588 64.9353C57.5585 64.9213 57.558 64.9074 57.558 64.8936V62.7922C57.558 62.7784 57.5585 62.7645 57.5588 62.7506C57.579 62.3566 57.8848 62.0343 58.272 61.9882C58.3034 61.9841 58.3356 61.9823 58.3678 61.9823H91.8394C91.8881 61.9823 91.9355 61.9868 91.9821 61.9954C92.0332 62.0044 92.0828 62.0182 92.1303 62.037C92.2857 62.097 92.4182 62.204 92.5104 62.3401C92.5981 62.4694 92.6491 62.6248 92.6491 62.7922" fill="#FFBA2C"/>
<path fill-rule="evenodd" clip-rule="evenodd" d="M76.2129 65.7034H58.281C57.8959 65.7034 57.5785 65.3614 57.5589 64.9352C57.5585 64.9213 57.558 64.9074 57.558 64.8936V62.7922C57.558 62.7783 57.5585 62.7645 57.5589 62.7505C57.5768 62.3566 57.8499 62.0343 58.1954 61.9882C58.2232 61.9841 58.2519 61.9823 58.281 61.9823H74.0108C74.0112 61.9841 74.0117 61.9864 74.0121 61.9882C74.2642 63.0832 74.8498 64.5945 76.2129 65.7034" fill="#FFA500"/>
<path fill-rule="evenodd" clip-rule="evenodd" d="M88.196 65.7034H88.5764V61.9824H88.196V65.7034Z" fill="#FFA500"/>
<path fill-rule="evenodd" clip-rule="evenodd" d="M86.9083 65.7034H87.2887V61.9824H86.9083V65.7034Z" fill="#FFA500"/>
<path fill-rule="evenodd" clip-rule="evenodd" d="M85.364 65.7034H85.7445V61.9824H85.364V65.7034Z" fill="#FFA500"/>
<path fill-rule="evenodd" clip-rule="evenodd" d="M82.9971 65.7034H83.3775V61.9824H82.9971V65.7034Z" fill="#FFA500"/>
<path fill-rule="evenodd" clip-rule="evenodd" d="M80.4941 65.7034H80.8745V61.9824H80.4941V65.7034Z" fill="#FFA500"/>
<path fill-rule="evenodd" clip-rule="evenodd" d="M76.657 65.7034H77.0374V61.9824H76.657V65.7034Z" fill="#FFA500"/>
<path fill-rule="evenodd" clip-rule="evenodd" d="M73.0642 65.7034H73.4446V61.9824H73.0642V65.7034Z" fill="#FFA500"/>
<path fill-rule="evenodd" clip-rule="evenodd" d="M69.8561 65.7034H70.2365V61.9824H69.8561V65.7034Z" fill="#FFA500"/>
<path fill-rule="evenodd" clip-rule="evenodd" d="M89.4217 65.7034H89.8022V61.9824H89.4217V65.7034Z" fill="#FFA500"/>
<path fill-rule="evenodd" clip-rule="evenodd" d="M90.2315 65.7034H90.612V61.9824H90.2315V65.7034Z" fill="#FFA500"/>
<path fill-rule="evenodd" clip-rule="evenodd" d="M91.0135 65.7034H91.3939V61.9824H91.0135V65.7034Z" fill="#FFA500"/>
<path fill-rule="evenodd" clip-rule="evenodd" d="M91.9823 61.9953V65.6904C91.9357 65.6989 91.8883 65.7034 91.8395 65.7034H91.6017V61.9823H91.8395C91.8883 61.9823 91.9357 61.9868 91.9823 61.9953" fill="#FFA500"/>
<path fill-rule="evenodd" clip-rule="evenodd" d="M92.5105 62.34V65.3457C92.4183 65.4818 92.2859 65.5888 92.1305 65.6488V62.037C92.2859 62.0969 92.4183 62.2039 92.5105 62.34" fill="#FFA500"/>
<path fill-rule="evenodd" clip-rule="evenodd" d="M88.2547 59.0769V61.1783C88.2547 61.3458 88.2037 61.5011 88.116 61.6305C88.0238 61.7666 87.8913 61.8736 87.7359 61.9336C87.6885 61.9524 87.6388 61.9662 87.5878 61.9752C87.5721 61.9778 87.5564 61.9806 87.5408 61.9823C87.5282 61.9841 87.5157 61.985 87.5031 61.986C87.4969 61.9864 87.4906 61.9868 87.4844 61.9873C87.4713 61.9878 87.4584 61.9882 87.445 61.9882H53.9734C53.5418 61.9882 53.1865 61.6462 53.1645 61.22C53.1641 61.206 53.1636 61.1922 53.1636 61.1783V59.0769C53.1636 59.0632 53.1641 59.0492 53.1645 59.0354C53.1865 58.6091 53.5418 58.2671 53.9734 58.2671H87.445C87.4592 58.2671 87.4736 58.2676 87.4879 58.2684C87.5219 58.2703 87.5551 58.2743 87.5878 58.2801C87.6388 58.2891 87.6885 58.3029 87.7359 58.3218C87.7602 58.3311 87.7838 58.3415 87.8062 58.3531C87.8206 58.3603 87.8344 58.3674 87.8479 58.3754C87.8492 58.3759 87.8509 58.3768 87.8524 58.3782C87.8662 58.3862 87.8797 58.3947 87.893 58.4037C87.8958 58.405 87.898 58.4068 87.8998 58.4082C87.9123 58.4162 87.9244 58.4252 87.9361 58.4346C87.9647 58.4561 87.9915 58.4793 88.0167 58.5048C88.0247 58.5125 88.0323 58.5205 88.0395 58.5286C88.0408 58.5299 88.0422 58.5313 88.0435 58.533C88.0484 58.5379 88.0529 58.5429 88.0574 58.5483C88.0583 58.5491 88.0592 58.5506 88.0601 58.5514C88.0681 58.5608 88.0762 58.5707 88.0837 58.5809C88.095 58.5953 88.1057 58.6096 88.116 58.6248C88.2037 58.7542 88.2547 58.9095 88.2547 59.0769" fill="#FFBA2C"/>
<path fill-rule="evenodd" clip-rule="evenodd" d="M71.8186 61.9882H53.8867C53.5016 61.9882 53.1842 61.6462 53.1645 61.22C53.1641 61.2061 53.1636 61.1922 53.1636 61.1783V59.077C53.1636 59.0631 53.1641 59.0492 53.1645 59.0353C53.1842 58.6091 53.5016 58.2671 53.8867 58.2671H69.6165C69.6227 58.2954 69.6294 58.324 69.637 58.3531C69.898 59.4387 70.4862 60.9008 71.8114 61.9824C71.8136 61.9841 71.8163 61.9864 71.8186 61.9882" fill="#FFA500"/>
<path fill-rule="evenodd" clip-rule="evenodd" d="M83.8016 61.9883H84.1819V58.2672H83.8016V61.9883Z" fill="#FFA500"/>
<path fill-rule="evenodd" clip-rule="evenodd" d="M82.5137 61.9883H82.8942V58.2672H82.5137V61.9883Z" fill="#FFA500"/>
<path fill-rule="evenodd" clip-rule="evenodd" d="M80.9695 61.9883H81.3501V58.2672H80.9695V61.9883Z" fill="#FFA500"/>
<path fill-rule="evenodd" clip-rule="evenodd" d="M78.6026 61.9883H78.9831V58.2672H78.6026V61.9883Z" fill="#FFA500"/>
<path fill-rule="evenodd" clip-rule="evenodd" d="M76.0996 61.9883H76.4801V58.2672H76.0996V61.9883Z" fill="#FFA500"/>
<path fill-rule="evenodd" clip-rule="evenodd" d="M72.2625 61.9883H72.6429V58.2672H72.2625V61.9883Z" fill="#FFA500"/>
<path fill-rule="evenodd" clip-rule="evenodd" d="M68.6697 61.9883H69.0501V58.2672H68.6697V61.9883Z" fill="#FFA500"/>
<path fill-rule="evenodd" clip-rule="evenodd" d="M65.4616 61.9883H65.842V58.2672H65.4616V61.9883Z" fill="#FFA500"/>
<path fill-rule="evenodd" clip-rule="evenodd" d="M85.0273 61.9883H85.4078V58.2672H85.0273V61.9883Z" fill="#FFA500"/>
<path fill-rule="evenodd" clip-rule="evenodd" d="M85.8371 61.9883H86.2175V58.2672H85.8371V61.9883Z" fill="#FFA500"/>
<path fill-rule="evenodd" clip-rule="evenodd" d="M86.619 61.9883H86.9994V58.2672H86.619V61.9883Z" fill="#FFA500"/>
<path fill-rule="evenodd" clip-rule="evenodd" d="M87.5878 58.2801V61.9752C87.5413 61.9837 87.4938 61.9882 87.445 61.9882H87.2072V58.2671H87.445C87.4938 58.2671 87.5413 58.2716 87.5878 58.2801" fill="#FFA500"/>
<path fill-rule="evenodd" clip-rule="evenodd" d="M88.116 58.6248V61.6305C88.0239 61.7666 87.8913 61.8736 87.736 61.9336V58.3217C87.8913 58.3817 88.0239 58.4887 88.116 58.6248" fill="#FFA500"/>
<path fill-rule="evenodd" clip-rule="evenodd" d="M90.7156 55.4418V57.5432C90.7156 57.7107 90.6646 57.8661 90.5769 57.9954C90.4847 58.1315 90.3521 58.2385 90.1968 58.2985C90.1494 58.3173 90.0997 58.3312 90.0486 58.3402C90.0021 58.3486 89.9546 58.3531 89.9058 58.3531H56.4343C56.3045 58.3531 56.1814 58.3222 56.0725 58.2671C55.8286 58.1449 55.654 57.9019 55.6275 57.618C55.6267 57.6073 55.6258 57.5961 55.6253 57.5849C55.6249 57.571 55.6244 57.5571 55.6244 57.5432V55.4418C55.6244 55.428 55.6249 55.4141 55.6253 55.4002C55.6455 55.0059 55.9513 54.684 56.3385 54.6379C56.3698 54.6338 56.4016 54.632 56.4343 54.632H89.9058C89.9546 54.632 90.0021 54.6365 90.0486 54.645C90.0997 54.654 90.1494 54.6678 90.1968 54.6866C90.3521 54.7466 90.4847 54.8536 90.5769 54.9897C90.6646 55.1191 90.7156 55.2745 90.7156 55.4418" fill="#FFBA2C"/>
<path fill-rule="evenodd" clip-rule="evenodd" d="M74.2794 58.3531H56.3475C56.2315 58.3531 56.1218 58.3222 56.0247 58.2671C55.8066 58.1449 55.6512 57.9018 55.6276 57.618C55.6267 57.6073 55.6258 57.5961 55.6254 57.5849C55.6249 57.571 55.6244 57.5571 55.6244 57.5433V55.4419C55.6244 55.428 55.6249 55.4141 55.6254 55.4002C55.6433 55.0063 55.9163 54.684 56.262 54.6379C56.2897 54.6339 56.3183 54.632 56.3475 54.632H72.0773C72.0777 54.6339 72.0782 54.6361 72.0787 54.6379C72.324 55.7047 72.8867 57.1672 74.1764 58.2671C74.21 58.2962 74.2445 58.3249 74.2794 58.3531" fill="#FFA500"/>
<path fill-rule="evenodd" clip-rule="evenodd" d="M86.2624 58.3531H86.6428V54.6321H86.2624V58.3531Z" fill="#FFA500"/>
<path fill-rule="evenodd" clip-rule="evenodd" d="M84.9747 58.3531H85.3551V54.6321H84.9747V58.3531Z" fill="#FFA500"/>
<path fill-rule="evenodd" clip-rule="evenodd" d="M83.4305 58.3531H83.8109V54.6321H83.4305V58.3531Z" fill="#FFA500"/>
<path fill-rule="evenodd" clip-rule="evenodd" d="M81.0634 58.3531H81.4438V54.6321H81.0634V58.3531Z" fill="#FFA500"/>
<path fill-rule="evenodd" clip-rule="evenodd" d="M78.5605 58.3531H78.9409V54.6321H78.5605V58.3531Z" fill="#FFA500"/>
<path fill-rule="evenodd" clip-rule="evenodd" d="M74.7233 58.3531H75.1038V54.6321H74.7233V58.3531Z" fill="#FFA500"/>
<path fill-rule="evenodd" clip-rule="evenodd" d="M71.1306 58.3531H71.511V54.6321H71.1306V58.3531Z" fill="#FFA500"/>
<path fill-rule="evenodd" clip-rule="evenodd" d="M67.9224 58.3531H68.3029V54.6321H67.9224V58.3531Z" fill="#FFA500"/>
<path fill-rule="evenodd" clip-rule="evenodd" d="M87.4881 58.3531H87.8686V54.6321H87.4881V58.3531Z" fill="#FFA500"/>
<path fill-rule="evenodd" clip-rule="evenodd" d="M88.2979 58.3531H88.6783V54.6321H88.2979V58.3531Z" fill="#FFA500"/>
<path fill-rule="evenodd" clip-rule="evenodd" d="M89.0798 58.3531H89.4603V54.6321H89.0798V58.3531Z" fill="#FFA500"/>
<path fill-rule="evenodd" clip-rule="evenodd" d="M90.0486 54.645V58.34C90.0021 58.3485 89.9546 58.353 89.9058 58.353H89.6681V54.6319H89.9058C89.9546 54.6319 90.0021 54.6364 90.0486 54.645" fill="#FFA500"/>
<path fill-rule="evenodd" clip-rule="evenodd" d="M90.5769 54.9896V57.9953C90.4847 58.1314 90.3521 58.2384 90.1968 58.2984V54.6865C90.3521 54.7465 90.4847 54.8535 90.5769 54.9896" fill="#FFA500"/>
<path fill-rule="evenodd" clip-rule="evenodd" d="M88.2547 51.7266V53.828C88.2547 53.9955 88.2037 54.1509 88.116 54.2802C88.0238 54.4163 87.8913 54.5232 87.7359 54.5833C87.6885 54.6021 87.6388 54.6159 87.5878 54.6249C87.5721 54.6275 87.5564 54.6302 87.5408 54.632C87.5322 54.633 87.5234 54.6338 87.5144 54.6347C87.5059 54.6357 87.4969 54.636 87.4879 54.6365C87.4736 54.6374 87.4592 54.6379 87.445 54.6379H53.9734C53.5418 54.6379 53.1865 54.2958 53.1645 53.8697C53.1641 53.8558 53.1636 53.8419 53.1636 53.828V51.7266C53.1636 51.7128 53.1641 51.6988 53.1645 51.685C53.1865 51.2588 53.5418 50.9168 53.9734 50.9168H87.445C87.4937 50.9168 87.5412 50.9213 87.5878 50.9298C87.6388 50.9388 87.6885 50.9526 87.7359 50.9714C87.8913 51.0314 88.0238 51.1384 88.116 51.2745C88.2037 51.4039 88.2547 51.5593 88.2547 51.7266" fill="#FFBA2C"/>
<path fill-rule="evenodd" clip-rule="evenodd" d="M71.8186 54.6379H53.8867C53.5016 54.6379 53.1842 54.2958 53.1645 53.8696C53.1641 53.8558 53.1636 53.8419 53.1636 53.828V51.7267C53.1636 51.7128 53.1641 51.6989 53.1645 51.685C53.1842 51.2588 53.5016 50.9168 53.8867 50.9168H69.6165C69.8671 52.0104 70.4509 53.5218 71.8114 54.632C71.8136 54.6338 71.8163 54.6361 71.8186 54.6379" fill="#FFA500"/>
<path fill-rule="evenodd" clip-rule="evenodd" d="M83.8016 54.6379H84.1819V50.9168H83.8016V54.6379Z" fill="#FFA500"/>
<path fill-rule="evenodd" clip-rule="evenodd" d="M82.5137 54.6379H82.8942V50.9168H82.5137V54.6379Z" fill="#FFA500"/>
<path fill-rule="evenodd" clip-rule="evenodd" d="M80.9695 54.6379H81.3501V50.9168H80.9695V54.6379Z" fill="#FFA500"/>
<path fill-rule="evenodd" clip-rule="evenodd" d="M78.6026 54.6379H78.9831V50.9168H78.6026V54.6379Z" fill="#FFA500"/>
<path fill-rule="evenodd" clip-rule="evenodd" d="M76.0996 54.6379H76.4801V50.9168H76.0996V54.6379Z" fill="#FFA500"/>
<path fill-rule="evenodd" clip-rule="evenodd" d="M72.2625 54.6379H72.6429V50.9168H72.2625V54.6379Z" fill="#FFA500"/>
<path fill-rule="evenodd" clip-rule="evenodd" d="M68.6697 54.6379H69.0501V50.9168H68.6697V54.6379Z" fill="#FFA500"/>
<path fill-rule="evenodd" clip-rule="evenodd" d="M65.4616 54.6379H65.8422V50.9168H65.4616V54.6379Z" fill="#FFA500"/>
<path fill-rule="evenodd" clip-rule="evenodd" d="M85.0273 54.6379H85.4078V50.9168H85.0273V54.6379Z" fill="#FFA500"/>
<path fill-rule="evenodd" clip-rule="evenodd" d="M85.8371 54.6379H86.2175V50.9168H85.8371V54.6379Z" fill="#FFA500"/>
<path fill-rule="evenodd" clip-rule="evenodd" d="M86.619 54.6379H86.9994V50.9168H86.619V54.6379Z" fill="#FFA500"/>
<path fill-rule="evenodd" clip-rule="evenodd" d="M87.5878 50.9297V54.6248C87.5413 54.6333 87.4938 54.6378 87.445 54.6378H87.2072V50.9167H87.445C87.4938 50.9167 87.5413 50.9212 87.5878 50.9297" fill="#FFA500"/>
<path fill-rule="evenodd" clip-rule="evenodd" d="M88.116 51.2744V54.28C88.0239 54.4162 87.8913 54.5232 87.736 54.5831V50.9713C87.8913 51.0313 88.0239 51.1383 88.116 51.2744" fill="#FFA500"/>
<path fill-rule="evenodd" clip-rule="evenodd" d="M38.5549 72.6011C38.5549 62.139 47.0363 53.6578 57.4983 53.6578C67.9604 53.6578 76.4416 62.139 76.4416 72.6011C76.4416 83.0632 67.9604 91.5443 57.4983 91.5443C47.0363 91.5443 38.5549 83.0632 38.5549 72.6011" fill="#FD8200"/>
<path fill-rule="evenodd" clip-rule="evenodd" d="M36.9024 72.6011C36.9024 62.139 45.3837 53.6578 55.8457 53.6578C66.3078 53.6578 74.789 62.139 74.789 72.6011C74.789 83.0632 66.3078 91.5443 55.8457 91.5443C45.3837 91.5443 36.9024 83.0632 36.9024 72.6011" fill="#FFBA2C"/>
<path fill-rule="evenodd" clip-rule="evenodd" d="M55.8457 56.5952C51.5106 56.5952 47.435 58.2833 44.3696 61.3487C41.3042 64.4141 39.616 68.4898 39.616 72.8249C39.616 77.1601 41.3042 81.2357 44.3696 84.3011C47.435 87.3665 51.5106 89.0547 55.8457 89.0547C60.1809 89.0547 64.2565 87.3665 67.3218 84.3011C70.3872 81.2357 72.0755 77.1601 72.0755 72.8249C72.0755 68.4898 70.3872 64.4141 67.3218 61.3487C64.2565 58.2833 60.1809 56.5952 55.8457 56.5952M55.8457 90.0843C51.2356 90.0843 46.9014 88.289 43.6415 85.0291C40.3816 81.7693 38.5863 77.4351 38.5863 72.8249C38.5863 68.2148 40.3816 63.8805 43.6415 60.6206C46.9014 57.3608 51.2356 55.5656 55.8457 55.5656C60.456 55.5656 64.7901 57.3608 68.0499 60.6206C71.3098 63.8805 73.1051 68.2148 73.1051 72.8249C73.1051 77.4351 71.3098 81.7693 68.0499 85.0291C64.7901 88.289 60.456 90.0843 55.8457 90.0843" fill="#FFA500"/>
<path fill-rule="evenodd" clip-rule="evenodd" d="M112.406 78.7361C112.406 78.7361 110.35 76.3386 112.279 74.8157C112.279 74.8157 113.687 73.9629 114.836 74.0322C114.836 74.0322 113.208 76.7611 113.735 77.0326C114.261 77.3041 115.329 73.861 115.329 73.861C115.329 73.861 118.535 73.5502 119.566 74.0459C119.566 74.0459 116.825 76.2884 117.403 76.4218C117.98 76.5553 120.939 74.3543 120.939 74.3543C120.939 74.3543 123.923 74.862 123.764 76.6819C123.605 78.5018 122.577 79.0638 122.125 79.0154C121.673 78.967 119.03 77.9581 118.973 78.3283C118.915 78.6985 120.506 79.9083 121.62 79.9649C121.62 79.9649 119.517 82.2845 118.119 81.615C116.721 80.9456 116.602 79.8845 115.73 79.4864C114.859 79.0884 114.115 79.0895 114.475 79.4954C114.835 79.9013 116.412 80.2958 116.91 81.1772C117.408 82.0586 117.855 82.6531 116.409 82.4355C114.963 82.218 112.612 81.1597 112.509 79.9479L112.406 78.7361Z" fill="#67B475"/>
<path fill-rule="evenodd" clip-rule="evenodd" d="M122.298 76.731C122.298 76.731 114.195 76.4188 112.406 78.736C112.406 78.736 112.01 79.9214 110.792 81.0006L110.602 81.5179C110.602 81.5179 112.006 80.0374 112.509 79.948C112.509 79.948 111.723 77.077 122.298 76.731" fill="#67B475"/>
<path fill-rule="evenodd" clip-rule="evenodd" d="M110.792 81.0006C110.792 81.0006 109.053 82.2869 108.932 84.5851L109.248 84.6133C109.248 84.6133 109.803 82.237 110.807 81.3077C111.811 80.3785 110.792 81.0006 110.792 81.0006" fill="#67B475"/>
<path fill-rule="evenodd" clip-rule="evenodd" d="M105.22 75.7209C105.22 75.7209 108.489 73.8903 106.964 71.4058C106.964 71.4058 105.743 69.8801 104.436 69.4879C104.436 69.4879 105.133 73.1928 104.436 73.28C103.738 73.3672 103.956 69.0955 103.956 69.0955C103.956 69.0955 100.513 67.4392 99.1616 67.57C99.1616 67.57 101.297 71.1878 100.6 71.1006C99.9025 71.0134 97.5053 67.3521 97.5053 67.3521C97.5053 67.3521 93.9746 66.6982 93.408 68.7905C92.8413 70.8826 93.7567 71.9288 94.2798 72.0595C94.8028 72.1903 98.1591 72.1467 98.0719 72.5826C97.9848 73.0185 95.7182 73.7159 94.454 73.3236C94.454 73.3236 95.849 76.767 97.6796 76.5927C99.5103 76.4183 100.077 75.2851 101.21 75.1979C102.344 75.1107 103.172 75.4158 102.605 75.7209C102.038 76.0261 100.121 75.8209 99.2052 76.5991C98.2898 77.3773 97.5488 77.8567 99.2487 78.2055C100.949 78.5541 104 78.3362 104.61 77.0285L105.22 75.7209Z" fill="#95D39E"/>
<path fill-rule="evenodd" clip-rule="evenodd" d="M95.0207 69.4443C95.0207 69.4443 104.174 72.4082 105.22 75.7209C105.22 75.7209 105.177 77.2029 106.092 78.9029V79.5567C106.092 79.5567 105.133 77.3337 104.61 77.0285C104.61 77.0285 106.659 74.1518 95.0207 69.4443" fill="#67B475"/>
<path fill-rule="evenodd" clip-rule="evenodd" d="M106.092 78.9029C106.092 78.9029 107.504 81.0465 106.699 83.6559L106.336 83.5583C106.336 83.5583 106.688 80.6842 105.95 79.2387C105.211 77.7933 106.092 78.9029 106.092 78.9029" fill="#67B475"/>
<path fill-rule="evenodd" clip-rule="evenodd" d="M110.421 73.1962C110.421 73.1962 106.112 70.783 108.123 67.5079C108.123 67.5079 109.732 65.4969 111.455 64.9798C111.455 64.9798 110.536 69.8637 111.455 69.9786C112.375 70.0935 112.087 64.4627 112.087 64.4627C112.087 64.4627 116.626 62.2793 118.408 62.4517C118.408 62.4517 115.592 67.2207 116.512 67.1057C117.431 66.9908 120.591 62.1644 120.591 62.1644C120.591 62.1644 125.245 61.3026 125.992 64.0605C126.739 66.8185 125.532 68.1974 124.843 68.3698C124.153 68.5422 119.729 68.4847 119.844 69.0593C119.959 69.6338 122.947 70.5532 124.613 70.036C124.613 70.036 122.774 74.5751 120.361 74.3453C117.948 74.1155 117.201 72.6216 115.707 72.5067C114.213 72.3918 113.122 72.7939 113.869 73.1962C114.616 73.5984 117.144 73.3279 118.35 74.3537C119.557 75.3795 120.534 76.0116 118.293 76.4712C116.052 76.9309 112.03 76.6436 111.226 74.9199L110.421 73.1962Z" fill="#95D39E"/>
<path fill-rule="evenodd" clip-rule="evenodd" d="M123.866 64.9224C123.866 64.9224 111.8 68.8295 110.421 73.1962C110.421 73.1962 110.479 75.1498 109.272 77.3905V78.2524C109.272 78.2524 110.536 75.3221 111.226 74.9199C111.226 74.9199 108.525 71.1277 123.866 64.9224" fill="#67B475"/>
<path fill-rule="evenodd" clip-rule="evenodd" d="M109.272 77.3905C109.272 77.3905 107.411 80.2162 108.472 83.6559L108.951 83.5272C108.951 83.5272 108.486 79.7387 109.46 77.8333C110.433 75.9278 109.272 77.3905 109.272 77.3905" fill="#67B475"/>
<path fill-rule="evenodd" clip-rule="evenodd" d="M110.276 91.1148C114.938 91.1148 118.717 87.3356 118.717 82.6736H101.835C101.835 87.3356 105.614 91.1148 110.276 91.1148" fill="#FFA447"/>
<path fill-rule="evenodd" clip-rule="evenodd" d="M112.353 91.0502C112.01 91.0932 111.66 91.1148 111.304 91.1148C106.643 91.1148 102.864 87.3354 102.864 82.6736H104.961C104.961 86.9805 108.186 90.5338 112.353 91.0502" fill="#FFBA6F"/>
<path fill-rule="evenodd" clip-rule="evenodd" d="M118.834 91.5444H101.718C101.718 90.9692 102.184 90.503 102.76 90.503H117.792C118.367 90.503 118.834 90.9692 118.834 91.5444" fill="#FFA447"/>
<path fill-rule="evenodd" clip-rule="evenodd" d="M101.557 82.9325H118.909V82.6736H101.557V82.9325Z" fill="#F56700"/>
<path fill-rule="evenodd" clip-rule="evenodd" d="M40.2363 24.4183L40.2334 24.9302C40.2334 24.9302 40.3729 26.5308 38.4018 26.7645C36.4309 26.9989 34.8145 26.9681 34.8679 25.7329C35.0454 24.7765 35.3635 23.2921 35.3767 22.5007C35.3815 22.2067 35.3614 21.8946 35.3066 21.5422L39.1259 21.466L40.2508 21.6498L40.2363 24.4183Z" fill="#FFB37B"/>
<path fill-rule="evenodd" clip-rule="evenodd" d="M40.2508 21.6498L40.2363 24.4183C39.8305 24.607 39.3727 24.7221 38.8595 24.7221C37.1043 24.7221 35.9697 23.4349 35.3767 22.5007C35.3815 22.2067 35.3614 21.8946 35.3066 21.5422L39.1259 21.466L40.2508 21.6498Z" fill="#FA9256"/>
<path fill-rule="evenodd" clip-rule="evenodd" d="M35.014 20.9277C35.4571 23.3126 38.5344 23.2343 39.8642 23.0843C40.2385 23.0427 40.474 22.9949 40.474 22.9949C40.8959 22.8822 41.1313 22.2175 41.2407 21.3469C41.4578 19.6239 41.1836 17.0947 40.8925 16.4478C40.4545 15.4744 39.6293 14.4216 36.5304 15.1812C33.431 15.9414 34.4454 17.872 35.014 20.9277" fill="#FFB37B"/>
<path fill-rule="evenodd" clip-rule="evenodd" d="M32.496 91.5366H36.8566C36.824 91.3078 36.7129 90.6122 36.5088 89.9714C36.4381 89.7482 36.3555 89.5314 36.2618 89.3432C35.8377 88.4966 33.144 89.035 33.144 89.035C33.144 89.035 32.8938 89.2494 32.6985 90.0682C32.6119 90.4287 32.5357 90.9076 32.496 91.5366" fill="#0B3563"/>
<path fill-rule="evenodd" clip-rule="evenodd" d="M45.673 90.1603C45.6849 90.7536 45.7597 91.315 45.9749 91.5366H54.5999C54.4903 91.2245 54.1799 90.7551 53.2944 90.6114C52.2882 90.4486 50.7199 89.9641 49.8041 88.9961C49.4778 88.6523 49.2348 88.2464 49.1284 87.7724C48.7226 85.9657 45.7731 88.3259 45.7731 88.3259C45.7731 88.3259 45.654 89.2772 45.673 90.1603" fill="#0B3563"/>
<path fill-rule="evenodd" clip-rule="evenodd" d="M39.9363 70.6308C40.0563 71.2924 40.1326 71.835 40.1528 72.2241C40.427 77.5724 44.6548 89.8011 45.4111 90.0863C46.5811 90.5279 48.4238 89.5893 49.3878 89.2822C49.7872 89.1546 50.0568 88.7517 49.9679 88.343C47.8742 78.7177 47.1047 64.8576 46.8248 56.6518C46.6833 52.5186 45.9738 49.6635 45.9738 49.6635C45.9738 49.6635 35.6622 46.9122 35.601 50.3926C35.5467 53.4723 39.0167 65.5503 39.9363 70.6308" fill="#0D458E"/>
<path fill-rule="evenodd" clip-rule="evenodd" d="M39.9363 70.6308L46.8248 56.6518C46.6833 52.5186 45.9738 49.6635 45.9738 49.6635C45.9738 49.6635 35.6622 46.9122 35.601 50.3926C35.5467 53.4723 39.0167 65.5503 39.9363 70.6308" fill="#0B3563"/>
<path fill-rule="evenodd" clip-rule="evenodd" d="M42.2306 50.4047L36.7794 89.9132C36.7794 89.9132 34.3855 90.4904 32.5236 90.0285C32.5236 90.0285 30.9278 69.0162 31.0607 63.9363C31.1937 58.8564 29.9154 50.3434 31.3525 49.4045C32.7896 48.4656 42.2306 50.4047 42.2306 50.4047" fill="#0D458E"/>
<path fill-rule="evenodd" clip-rule="evenodd" d="M41.8436 14.1778C41.8436 14.1778 40.4795 14.0729 38.8707 13.3733C37.5648 12.8056 35.9174 13.4308 35.3826 13.7126C35.397 13.6264 35.4314 13.5087 35.513 13.3908C35.513 13.3908 35.2729 13.561 35.2376 13.799C35.2128 13.8173 35.2018 13.8298 35.2082 13.8341C35.2082 13.8341 34.9359 13.7843 34.7611 13.863C34.7611 13.863 34.8834 13.8455 34.9271 13.9242C34.9318 13.9325 34.9387 13.9396 34.9468 13.9459C32.9098 14.9301 32.7218 18.1493 33.3772 18.8942C34.1659 19.7904 35.1115 21.8086 35.1115 21.8086C35.1115 21.8086 35.4563 21.3318 35.3129 20.5432C35.1695 19.7546 35.8507 19.7546 36.711 19.396C37.5713 19.0376 36.8544 18.0338 37.6072 17.4244C38.36 16.815 41.1203 17.1735 41.0844 16.7075C42.109 16.3342 41.8436 14.2827 41.8436 14.1778" fill="#0B3563"/>
<path fill-rule="evenodd" clip-rule="evenodd" d="M34.403 26.4193L35.6582 53.3481C35.6582 53.3481 46.133 53.5192 45.834 51.1488C45.5348 48.7784 42.0582 27.2439 42.0582 27.2439L34.403 26.4193Z" fill="#E6F3FE"/>
<path fill-rule="evenodd" clip-rule="evenodd" d="M30.6632 41.6832C31.2865 43.5527 30.1115 49.826 29.6927 51.9512C29.6006 52.4006 29.5393 52.6663 29.5393 52.6663C30.9901 55.0262 36.3029 54.9958 36.3029 54.9958C37.3246 50.4797 37.8559 43.2873 37.8559 43.2873L33.7794 25.4178L28.6505 30.1586C28.6505 30.1586 29.0387 33.0501 29.5189 35.9923C29.897 38.3218 30.3261 40.6921 30.6632 41.6832" fill="#003E7D"/>
<path fill-rule="evenodd" clip-rule="evenodd" d="M39.3806 21.3199C39.3806 21.3199 39.4801 21.6276 40.2566 21.5153C40.2566 21.5153 40.9084 21.421 40.86 21.078C40.86 21.078 40.2047 20.8848 39.3806 21.3199" fill="white"/>
<path fill-rule="evenodd" clip-rule="evenodd" d="M49.4316 37.668C49.4419 37.6576 49.4419 37.6371 49.4419 37.6271C49.4419 37.2388 47.9603 36.3804 46.3563 35.3692C46.3359 35.3488 46.3256 35.3383 46.3256 35.3383C46.3246 35.3376 46.3235 35.337 46.3225 35.3363C46.351 36.1625 46.3479 36.9734 46.2988 37.7281C46.2078 39.1279 46.3095 40.801 46.4788 42.5044C47.2426 41.3118 49.2824 38.1073 49.4316 37.668M45.2681 26.8032C45.2681 26.8032 45.2691 26.8078 45.2705 26.8144C45.5183 27.0546 52.5109 33.8439 53.8657 36.5032C55.245 39.2006 47.5619 44.5744 47.5619 44.5744C47.5619 44.5744 47.0675 44.7698 46.7244 44.6934C47.0866 47.6759 47.4933 50.4279 47.2523 51.6026C46.8169 53.7256 44.8531 54.4386 44.8531 54.2753C44.8531 54.2234 44.3471 46.5338 43.7447 42.5619C42.4079 33.746 40.8134 25.4724 40.8134 25.4724C43.1 25.7099 45.2681 26.8032 45.2681 26.8032" fill="#003E7D"/>
<path fill-rule="evenodd" clip-rule="evenodd" d="M34.1062 25.3857C34.0934 25.1287 35.3107 24.7736 35.3107 24.7736C35.3107 24.7736 36.7039 26.7054 38.9994 26.7388C38.9994 26.7388 38.3453 28.0118 37.5743 28.3415C37.5743 28.3415 34.182 26.9119 34.1062 25.3857" fill="#D3EAFA"/>
<path fill-rule="evenodd" clip-rule="evenodd" d="M42.2231 44.939C42.1668 45.568 41.8784 46.1539 41.4137 46.5819L40.6832 47.2549C40.4999 47.4239 40.2115 47.4005 40.0573 47.2046L39.1525 46.0556C38.9099 45.7474 38.7958 45.3576 38.8329 44.9672C38.9176 44.0978 39.0753 42.4226 39.2014 40.8058C39.3041 39.4957 39.3866 38.223 39.3927 37.4488C39.4126 34.9768 38.9222 27.0939 38.9222 27.0939L39.5149 27.1248C39.5149 27.1248 40.9867 30.1848 41.7574 34.3482C41.9475 35.373 42.0942 36.4641 42.167 37.5938C42.167 37.5938 42.4759 42.0961 42.2231 44.939" fill="#E35345"/>
<path fill-rule="evenodd" clip-rule="evenodd" d="M42.2231 44.939C42.1668 45.568 41.8784 46.1539 41.4137 46.5819L40.6832 47.2549C40.4999 47.4239 40.2115 47.4005 40.0573 47.2046L39.1525 46.0556C38.9099 45.7474 38.7958 45.3576 38.8329 44.9672C38.9176 44.0978 39.0753 42.4226 39.2014 40.8058C40.8392 38.9659 41.5028 36.4231 41.7574 34.3482C41.9475 35.3731 42.0942 36.4641 42.167 37.5938C42.167 37.5938 42.4759 42.0962 42.2231 44.939" fill="#D64B41"/>
<path fill-rule="evenodd" clip-rule="evenodd" d="M38.9994 26.6935C38.9994 26.6935 40.2154 25.9728 40.2195 25.1912C40.2195 25.1912 41.0049 25.0928 41.348 25.4737C41.348 25.4737 41.6364 26.813 41.2539 27.591C41.2539 27.591 39.5028 27.3243 38.9994 26.6935" fill="#D3EAFA"/>
<path fill-rule="evenodd" clip-rule="evenodd" d="M38.1739 26.5776L39.8228 26.1824C39.8228 26.1824 40.0382 26.2011 40.0323 26.4698C40.0264 26.7384 39.568 27.5232 39.3648 27.5859C39.1618 27.6486 37.7839 27.1211 38.1739 26.5776" fill="#D64B41"/>
<path fill-rule="evenodd" clip-rule="evenodd" d="M34.2982 25.253C34.2855 24.996 35.1093 24.4665 35.1093 24.4665C35.1093 24.4665 36.7039 26.3303 38.9994 26.3636C38.9994 26.3636 38.3453 27.6368 37.5743 27.9664C37.5743 27.9664 34.374 26.7792 34.2982 25.253" fill="#E6F3FE"/>
<path fill-rule="evenodd" clip-rule="evenodd" d="M38.9994 26.3636C38.9994 26.3636 40.2293 25.7118 40.2335 24.9301C40.2335 24.9301 40.9758 25.2569 41.3189 25.6376C41.3189 25.6376 41.6364 26.4831 41.2539 27.2611C41.2539 27.2611 39.5028 26.9943 38.9994 26.3636" fill="#E6F3FE"/>
<path fill-rule="evenodd" clip-rule="evenodd" d="M48.0518 45.0118C48.0518 44.3255 47.4482 43.7744 46.7695 43.8775C46.5811 43.9061 46.4111 43.9838 46.2933 44.1405C45.8263 44.762 45.382 46.5708 46.2095 46.6553C46.5464 46.6897 46.979 46.4533 47.3122 46.2002C47.6508 45.9429 48.0518 45.54 48.0518 45.1148V45.0118Z" fill="#FFB37B"/>
<path fill-rule="evenodd" clip-rule="evenodd" d="M29.6927 51.9512C31.1945 50.3879 33.7897 47.3127 33.6977 44.7889C33.5751 41.2539 29.519 35.9924 29.519 35.9924C29.8971 38.3218 30.3261 40.6922 30.6632 41.6832C31.2865 43.5527 30.1115 49.826 29.6927 51.9512" fill="#0B3563"/>
<path fill-rule="evenodd" clip-rule="evenodd" d="M29.7398 45.8023C29.7398 45.8023 30.8194 46.3422 31.475 46.0722C32.1305 45.8023 32.9017 45.5996 33.6343 46.4336C34.3669 47.2676 34.5211 47.846 34.3669 48.1544C34.2126 48.4629 32.5046 48.3473 32.2211 48.1544C31.9376 47.9616 31.4894 47.487 31.2051 47.5698C30.4205 47.7978 29.7597 47.1993 29.3898 46.7226C29.1667 46.435 29.7688 46.2956 29.7398 45.8023" fill="#FFB37B"/>
<path fill-rule="evenodd" clip-rule="evenodd" d="M33.7794 25.4178C33.7794 25.4178 29.4791 25.8938 28.4648 27.7666C27.4507 29.6393 22.1772 37.2288 22.3498 40.3828C22.5225 43.5369 29.5436 47.0736 29.5436 47.0736C29.5436 47.0736 31.0986 46.4165 31.1219 45.7096C31.1452 45.0025 26.268 40.7771 26.5637 39.9886C26.8593 39.2001 32.2298 32.9634 32.748 30.9071C33.2661 28.8508 33.7794 25.4178 33.7794 25.4178" fill="#003E7D"/>
<path fill-rule="evenodd" clip-rule="evenodd" d="M46.3256 35.3383C46.3256 35.3383 46.3359 35.3488 46.3563 35.3692C47.9603 36.3805 49.4419 37.2388 49.4419 37.6272C49.6564 36.9424 47.5722 34.0817 46.8978 33.4995C46.2133 32.9068 46.3256 35.3383 46.3256 35.3383" fill="#0B3563"/>
<path fill-rule="evenodd" clip-rule="evenodd" d="M35.1093 24.4665C35.1093 24.4665 38.374 38.1402 37.8544 43.291C37.8544 43.291 36.654 37.7867 33.7656 33.2781C33.7656 33.2781 34.8197 32.3511 34.7624 32.0093C34.7624 32.0093 33.98 31.7772 33.2208 31.9335C33.2208 31.9335 33.3047 26.0393 33.7781 25.4168C34.2515 24.794 35.1093 24.4665 35.1093 24.4665" fill="#0B3563"/>
<path fill-rule="evenodd" clip-rule="evenodd" d="M40.2334 24.9302C40.1892 24.9509 43.4688 38.2917 43.7447 42.5618C43.7447 42.5618 43.4175 34.9418 43.4497 32.7456C43.4497 32.7456 42.0938 32.0278 42.0938 31.7759C42.0938 31.5241 43.5403 30.8431 43.5403 30.8431C43.5403 30.8431 42.6243 26.1504 42.1245 25.6333C41.6246 25.1162 40.2334 24.9302 40.2334 24.9302" fill="#0B3563"/>
<path fill-rule="evenodd" clip-rule="evenodd" d="M6.05224 91.7293L22.4421 91.7101C24.5752 91.7077 26.3183 89.9604 26.316 87.8272L26.3077 80.7245C26.3052 78.5915 24.5579 76.8482 22.4249 76.8507L6.03498 76.8698C3.90195 76.8723 2.15869 78.6195 2.16118 80.7527L2.16931 87.8554C2.17189 89.9886 3.9193 91.7317 6.05224 91.7293" fill="#0B3563"/>
<path fill-rule="evenodd" clip-rule="evenodd" d="M10.3251 75.2191C10.3252 75.0046 10.4668 74.8221 10.6619 74.7613C10.7072 74.7472 10.7544 74.7393 10.8045 74.7389L11.5321 74.7377L14.2292 74.7353L15.6994 74.7336C15.964 74.7331 16.1791 74.9485 16.1794 75.2121L16.1815 76.7449L10.3271 76.7509L10.3251 75.2191ZM23.63 78.7012L23.6297 78.7003C23.0163 77.6356 21.9138 76.8838 20.6351 76.7585L20.634 76.7587C20.6331 76.7588 20.6322 76.7588 20.6312 76.7582C20.5058 76.7462 20.3792 76.7393 20.25 76.7395L16.9865 76.7441L16.9845 75.2112C16.9846 74.8695 16.8504 74.547 16.607 74.3039C16.3637 74.0617 16.0402 73.9277 15.6986 73.9286L14.8473 73.9292L11.4205 73.9332L10.8028 73.934C10.0953 73.9354 9.51873 74.5115 9.52011 75.2198L9.52205 76.7528L3.88875 76.7588C1.74778 76.7614 -0.00156837 78.5151 1.05517e-06 80.656L0.00923295 87.8414C0.0117256 89.9824 1.76523 91.7318 3.90629 91.7292L20.2667 91.711C20.5553 91.711 20.8363 91.6783 21.1066 91.6173H21.1076C21.1085 91.6171 21.1085 91.6171 21.1095 91.6169C21.5435 91.5207 21.9497 91.3505 22.3155 91.121C23.4194 90.4315 24.1562 89.2039 24.1553 87.8128L24.1472 80.6282C24.1459 79.9274 23.9579 79.2701 23.63 78.7012V78.7012Z" fill="#0D458E"/>
<path opacity="0.8" d="M64.0769 65.5143H60.5231C61.3005 66.2571 61.8188 67.1809 62.0779 68.2857H64.0769V70.8H62.189C62.0409 71.8667 61.6614 72.7857 61.0506 73.5571C60.4398 74.3286 59.6347 74.9333 58.6351 75.3714L63.8826 83H60.0234L55.3034 76.0857H51V73.5714H54.415C56.8212 73.5714 58.2279 72.6476 58.6351 70.8H51V68.2857H58.6351C58.413 67.3714 57.941 66.681 57.2192 66.2143C56.4973 65.7476 55.5626 65.5143 54.415 65.5143H51V63H64.0769V65.5143Z" fill="#F38D2A"/>
</svg>
