<svg width="18" height="18" viewBox="0 0 18 18" fill="none" xmlns="http://www.w3.org/2000/svg">
<path fill-rule="evenodd" clip-rule="evenodd" d="M15.3152 2.66432C11.8098 -0.841196 6.13537 -0.841756 2.62936 2.66432C-0.876191 6.16984 -0.876716 11.8442 2.62936 15.3502C6.13481 18.8557 11.8092 18.8563 15.3152 15.3502C18.8208 11.8447 18.8213 6.17036 15.3152 2.66432ZM14.9403 14.0715C14.5212 13.6967 14.0729 13.3651 13.6003 13.0792C13.9127 12.0003 14.0977 10.8131 14.1414 9.57891H16.7787C16.6595 11.2424 16.0203 12.8029 14.9403 14.0715ZM3.80311 9.57891H1.16583C1.2851 11.2424 1.92424 12.8029 3.00424 14.0715C3.42336 13.6967 3.87168 13.3651 4.34423 13.0792C4.03189 12.0003 3.84685 10.8131 3.80311 9.57891ZM3.00428 3.94302C3.42339 4.3178 3.87171 4.64947 4.34426 4.9353C4.03193 6.01421 3.84688 7.20148 3.80314 8.43563H1.16583C1.2851 6.77214 1.92424 5.21164 3.00428 3.94302ZM5.73611 4.37835C6.56947 4.75715 7.46838 4.98678 8.40067 5.05345V1.26242C7.11427 1.63338 6.22078 3.13029 5.73611 4.37835ZM8.40067 6.19887V8.43567H4.94688C4.98645 7.39167 5.13437 6.38917 5.38038 5.4719C6.32742 5.8859 7.34592 6.13314 8.40067 6.19887ZM8.40067 11.8157V9.57891H4.94688C4.98645 10.6229 5.13437 11.6254 5.38038 12.5427C6.32742 12.1287 7.34592 11.8814 8.40067 11.8157ZM8.40067 12.9611V16.7521C7.11434 16.3812 6.22085 14.8844 5.73611 13.6362C6.56947 13.2574 7.46838 13.0278 8.40067 12.9611ZM12.2085 13.6362C11.3751 13.2574 10.4762 13.0278 9.54392 12.9611V16.7521C10.8303 16.3812 11.7238 14.8843 12.2085 13.6362ZM9.54392 11.8157V9.57891H12.9977C12.9581 10.6229 12.8102 11.6254 12.5642 12.5427C11.6172 12.1287 10.5987 11.8814 9.54392 11.8157ZM9.54392 6.19887V8.43567H12.9977C12.9581 7.39167 12.8102 6.38917 12.5642 5.4719C11.6172 5.8859 10.5987 6.13314 9.54392 6.19887ZM9.54392 5.05345V1.26246C10.8303 1.63342 11.7238 3.13033 12.2085 4.37838C11.3751 4.75715 10.4762 4.98678 9.54392 5.05345ZM14.1379 3.12717C13.5259 2.58808 12.8433 2.1536 12.1115 1.83317C12.5692 2.43361 12.9333 3.11943 13.2183 3.82515C13.5393 3.61689 13.8466 3.38401 14.1379 3.12717ZM4.72626 3.82515C4.4053 3.61689 4.09797 3.38401 3.80665 3.12717C4.41861 2.58808 5.10128 2.1536 5.83301 1.83317C5.37538 2.43368 5.01128 3.1195 4.72626 3.82515ZM5.83305 16.1814C5.37545 15.581 5.01128 14.8951 4.72629 14.1894C4.40534 14.3977 4.09797 14.6306 3.80668 14.8874C4.41865 15.4265 5.10131 15.861 5.83305 16.1814ZM13.2183 14.1894C13.5393 14.3977 13.8466 14.6306 14.1379 14.8874C13.5259 15.4265 12.8433 15.8609 12.1115 16.1814C12.5691 15.581 12.9333 14.8951 13.2183 14.1894ZM13.6004 4.93533C13.9127 6.01421 14.0977 7.20151 14.1415 8.43567H16.7788C16.6595 6.77214 16.0203 5.21164 14.9403 3.94306C14.5212 4.31783 14.0729 4.6495 13.6004 4.93533Z" fill="#003974"/>
</svg>
