<svg width="18" height="18" viewBox="0 0 18 18" fill="none" xmlns="http://www.w3.org/2000/svg">
<path fill-rule="evenodd" clip-rule="evenodd" d="M15.3152 2.6645C11.8098 -0.841013 6.13537 -0.841573 2.62936 2.6645C-0.876191 6.17002 -0.876716 11.8444 2.62936 15.3504C6.13481 18.8559 11.8092 18.8565 15.3152 15.3504C18.8208 11.8449 18.8213 6.17055 15.3152 2.6645ZM14.9403 14.0717C14.5212 13.6969 14.0729 13.3653 13.6003 13.0794C13.9127 12.0005 14.0977 10.8133 14.1414 9.5791H16.7787C16.6595 11.2426 16.0203 12.8031 14.9403 14.0717ZM3.80311 9.5791H1.16583C1.2851 11.2426 1.92424 12.8031 3.00424 14.0717C3.42336 13.6969 3.87168 13.3653 4.34423 13.0794C4.03189 12.0005 3.84685 10.8133 3.80311 9.5791ZM3.00428 3.9432C3.42339 4.31798 3.87171 4.64965 4.34426 4.93548C4.03193 6.0144 3.84688 7.20166 3.80314 8.43582H1.16583C1.2851 6.77232 1.92424 5.21182 3.00428 3.9432ZM5.73611 4.37853C6.56947 4.75734 7.46838 4.98696 8.40067 5.05364V1.26261C7.11427 1.63357 6.22078 3.13047 5.73611 4.37853ZM8.40067 6.19905V8.43585H4.94688C4.98645 7.39185 5.13437 6.38935 5.38038 5.47208C6.32742 5.88608 7.34592 6.13332 8.40067 6.19905ZM8.40067 11.8159V9.5791H4.94688C4.98645 10.6231 5.13437 11.6256 5.38038 12.5429C6.32742 12.1289 7.34592 11.8816 8.40067 11.8159ZM8.40067 12.9613V16.7523C7.11434 16.3813 6.22085 14.8846 5.73611 13.6364C6.56947 13.2576 7.46838 13.028 8.40067 12.9613ZM12.2085 13.6364C11.3751 13.2576 10.4762 13.028 9.54392 12.9613V16.7523C10.8303 16.3813 11.7238 14.8845 12.2085 13.6364ZM9.54392 11.8159V9.5791H12.9977C12.9581 10.6231 12.8102 11.6256 12.5642 12.5429C11.6172 12.1289 10.5987 11.8816 9.54392 11.8159ZM9.54392 6.19905V8.43585H12.9977C12.9581 7.39185 12.8102 6.38935 12.5642 5.47208C11.6172 5.88608 10.5987 6.13332 9.54392 6.19905ZM9.54392 5.05364V1.26264C10.8303 1.6336 11.7238 3.13051 12.2085 4.37857C11.3751 4.75734 10.4762 4.98696 9.54392 5.05364ZM14.1379 3.12736C13.5259 2.58827 12.8433 2.15378 12.1115 1.83335C12.5692 2.4338 12.9333 3.11962 13.2183 3.82533C13.5393 3.61707 13.8466 3.38419 14.1379 3.12736ZM4.72626 3.82533C4.4053 3.61707 4.09797 3.38419 3.80665 3.12736C4.41861 2.58827 5.10128 2.15378 5.83301 1.83335C5.37538 2.43387 5.01128 3.11969 4.72626 3.82533ZM5.83305 16.1816C5.37545 15.5812 5.01128 14.8953 4.72629 14.1896C4.40534 14.3979 4.09797 14.6308 3.80668 14.8876C4.41865 15.4267 5.10131 15.8612 5.83305 16.1816ZM13.2183 14.1896C13.5393 14.3979 13.8466 14.6308 14.1379 14.8876C13.5259 15.4266 12.8433 15.8611 12.1115 16.1816C12.5691 15.5812 12.9333 14.8953 13.2183 14.1896ZM13.6004 4.93552C13.9127 6.0144 14.0977 7.2017 14.1415 8.43585H16.7788C16.6595 6.77232 16.0203 5.21182 14.9403 3.94324C14.5212 4.31802 14.0729 4.64969 13.6004 4.93552Z" fill="#AAB2BA"/>
</svg>
