<?xml version="1.0" encoding="UTF-8"?>
<svg width="736px" height="134px" viewBox="0 0 736 134" version="1.1" xmlns="http://www.w3.org/2000/svg" xmlns:xlink="http://www.w3.org/1999/xlink">
    <!-- Generator: Sketch 53.2 (72643) - https://sketchapp.com -->
    <title>Group 32</title>
    <desc>Created with Sketch.</desc>
    <defs>
        <rect id="path-1" x="0" y="0" width="736" height="122" rx="6"></rect>
    </defs>
    <g id="Page-1" stroke="none" stroke-width="1" fill="none" fill-rule="evenodd">
        <g id="09.4e-SIP" transform="translate(-304.000000, -624.000000)">
            <g id="Rectangle" transform="translate(304.000000, 624.000000)">
                <g id="Group-32">
                    <g id="Group-31" transform="translate(0.000000, 12.000000)">
                        <mask id="mask-2" fill="white">
                            <use xlink:href="#path-1"></use>
                        </mask>
                        <use id="Mask" fill="#FFE8BF" xlink:href="#path-1"></use>
                        <path d="M590.876931,105 L764.998947,105 C771.893834,105 778.539507,107.578301 783.630326,112.228358 L789.671673,117.746647 C790.079451,118.119119 790.108072,118.751637 789.735599,119.159415 C789.548751,119.363973 789.285413,119.481849 789.00838,119.484932 L563.013797,121.999921 C562.461546,122.006066 562.008877,121.563361 562.002731,121.01111 C561.999627,120.73221 562.113145,120.464687 562.315877,120.273129 L569.469084,113.51418 C575.255865,108.046345 582.915521,105 590.876931,105 Z" id="Rectangle" fill-opacity="0.15081403" fill="#F58220" mask="url(#mask-2)"></path>
                    </g>
                    <g id="Group-83" transform="translate(670.500000, 66.500000) scale(-1, 1) translate(-670.500000, -66.500000) translate(605.000000, 0.000000)">
                        <path d="M0.448675,100.917517 L15.026355,87.2801034 L34.32986,94.9161379 L62.799435,69.5871724 L83.71555,79.8687931 L83.737165,79.8537241 C84.9535,81.3298276 86.091235,82.8635862 87.137925,84.4445172 C87.258445,84.626 87.377655,84.8101034 87.4949,84.9928966 L84.50155,87.0304828 L62.83415,77.0659655 L35.45646,99.3752414 L15.537255,91.0545517 L0.448675,100.917517" id="Fill-34" fill="#E6EFF4"></path>
                        <path d="M87.4949,84.9928966 C87.377655,84.8101034 87.258445,84.626 87.137925,84.4445172 C86.091235,82.8635862 84.9535,81.3298276 83.737165,79.8537241 L116.766195,57.5693448 C117.628175,59.4188966 118.452165,61.3418276 119.303665,63.3387931 L87.4949,84.9928966" id="Fill-35" fill="#BFDBE9"></path>
                        <path d="M119.303665,63.3387931 C118.452165,61.3418276 117.628175,59.4188966 116.766195,57.5693448 L120.51476,55.0403793 L118.1751,51.6636207 L130.48779,51.9315862 L126.110425,63.1166897 L124.03342,60.1186207 L119.303665,63.3387931" id="Fill-36" fill="#D0E3EE"></path>
                        <path d="M97.17842,45.2973103 C97.69718,37.2151034 75.74944,34.4247241 58.81638,36.9274828 C45.59324,38.8818621 42.36016,33.5291034 42.36016,33.5291034 C42.36016,33.5291034 43.027605,36.5225862 44.407035,37.5112414 C44.407035,37.5112414 42.04314,38.490069 40.587075,37.2681724 C42.28287,39.5448966 43.184805,42.636 63.601155,39.7748621 C84.017505,36.9143793 97.54653,43.7006552 96.970785,48.4886552 L97.17842,45.2973103" id="Fill-41" fill="#EC962D"></path>
                        <path d="M87.93768,53.6763103 C87.55647,54.374069 69.50074,64.0496552 69.50074,64.0496552 L49.59136,54.9702759 L51.528195,52.082931 L67.91564,58.7840345 C67.91564,58.7840345 80.411075,50.4698966 86.37878,46.0651724 C89.62758,43.6672414 90.948715,49.004931 90.948715,49.004931 L87.93768,53.6763103" id="Fill-42" fill="#282F77"></path>
                        <polyline id="Fill-43" fill="#0F1823" points="49.76952 55.1628966 45.909605 58.0128966 49.67782 50.809931 51.47776 52.364 49.76952 55.1628966"></polyline>
                        <path d="M117.860045,25.4894828 C116.16425,28.5818966 112.04299,35.020931 110.20113,36.445931 C108.35927,37.870931 98.0142,41.6394828 95.435465,40.5479655 C93.615875,39.7787931 92.86459,36.5134138 97.179075,35.8543103 C102.479335,35.0451724 108.23351,33.3332069 108.23351,33.3332069 L115.923865,24.2564483 L117.860045,25.4894828" id="Fill-44" fill="#3E5192"></path>
                        <path d="M117.860045,25.4894828 C118.991885,24.1994483 119.67112,23.1885172 118.70434,22.6270345 C117.738215,22.0655517 116.281495,22.587069 115.923865,24.2564483" id="Fill-45" fill="#F0B0AE"></path>
                        <path d="M82.6741,55.6732759 C83.82428,57.4592759 88.13156,59.3317586 90.08215,58.7663448 C90.69392,58.7597931 97.828835,44.5812069 97.35003,37.9449655 C97.05528,33.873069 94.104505,34.488931 93.047335,35.2102759 C89.829975,37.4064138 85.445405,52.0036552 82.6741,55.6732759" id="Fill-46" fill="#374186"></path>
                        <path d="M97.18497,31.7083793 C94.53746,34.0381724 93.75277,35.9597931 94.41039,36.4184138 C95.067355,36.8763793 99.00194,33.2408276 99.00194,33.2408276 L97.18497,31.7083793" id="Fill-47" fill="#F0B0AE"></path>
                        <path d="M100.03946,26.7834483 C102.239605,31.2156897 99.33468,35.6138621 96.9793,33.2480345 C95.876935,32.1401379 94.261705,30.2198276 94.20341,29.2508276 C93.94141,24.8821379 97.555045,21.777931 100.03946,26.7834483" id="Fill-48" fill="#F0B0AE"></path>
                        <path d="M97.114885,28.0164828 C99.315685,27.0848276 102.344405,26.0142759 102.681075,24.8428276 C101.18178,24.3206552 95.246825,20.2415517 93.748185,25.2758966 C92.09038,25.5556552 91.891915,27.2394483 93.27462,29.4631034 C94.36716,31.2189655 96.368185,32.7035862 96.368185,32.7035862 L95.810125,30.947069 C95.810125,30.947069 94.13136,29.7068276 94.81911,28.6081034 C95.61428,27.3396897 96.696995,29.3595862 96.696995,29.3595862 L97.114885,28.0164828" id="Fill-49" fill="#282F77"></path>
                        <path d="M83.71031,50.6363103 C83.94873,50.7745517 89.507715,55.4197241 89.507715,55.4197241 C89.507715,55.4197241 99.69231,40.3540345 95.9313,34.5151379 C93.203225,30.2794483 83.71031,50.6363103 83.71031,50.6363103" id="Fill-50" fill="#FFFFFE"></path>
                        <path d="M85.689065,51.7848276 C86.44559,52.0265862 100.19666,64.508931 100.19666,64.508931 L94.404495,88.9842069 L91.332545,87.8389655 L95.123685,67.3871034 C95.123685,67.3871034 79.167885,57.8150345 78.094995,54.704931 C76.77779,50.8872414 80.531595,49.7164483 80.531595,49.7164483 L85.689065,51.7848276" id="Fill-51" fill="#323C83"></path>
                        <polyline id="Fill-52" fill="#0F1823" points="94.404495 88.9842069 96.040685 91.029 97.934945 92.2332069 95.417125 92.2332069 90.14896 89.9021034 91.332545 87.8389655 94.404495 88.9842069"></polyline>
                        <path d="M94.80339,33.2074138 C93.92569,34.2504483 93.54317,34.5387241 93.80517,34.2628966 L96.93476,37.1712069 L97.179075,35.8543103 L94.80339,33.2074138" id="Fill-53" fill="#FFFFFE"></path>
                        <path d="M75.02763,50.2451724 C75.69835,52.2611379 81.07983,57.5772069 83.109675,57.5136552 C83.70376,57.6591034 94.750335,44.824931 95.933265,38.2771379 C96.65835,34.2596207 93.65059,34.1351379 92.443425,34.5596897 C88.487225,35.951931 80.65408,46.0533793 75.02763,50.2451724" id="Fill-54" fill="#3E5192"></path>
                        <path d="M68.944645,42.6445172 C71.462465,40.1745172 77.269695,35.203069 79.44495,34.3723103 C81.620205,33.5415517 92.612415,32.9276552 94.766055,34.7182414 C96.285,35.9807586 95.761,38.3164483 91.398045,38.3983448 C86.50192,38.490069 80.428105,37.9213793 80.428105,37.9213793 L70.441975,44.3846552 L68.944645,42.6445172" id="Fill-59" fill="#3E5192"></path>
                        <path d="M68.944645,42.6445172 C67.48858,43.5512759 66.54538,44.3224138 67.308455,45.140069 C68.070875,45.957069 69.616675,45.8791034 70.441975,44.3846552" id="Fill-60" fill="#F0B0AE"></path>
                        <path d="M126.72678,37.0637586 C126.631805,37.0578621 126.53945,37.008069 126.48312,36.9215862 L105.826385,5.4602069 C105.730755,5.31410345 105.77071,5.1182069 105.916775,5.02255172 C106.06153,4.92755172 106.25934,4.9662069 106.35497,5.11362069 L127.01105,36.575 C127.10668,36.7211034 127.066725,36.9163448 126.92066,37.0126552 C126.861055,37.0519655 126.792935,37.0676897 126.72678,37.0637586" id="Fill-61" fill="#EC962D"></path>
                        <polyline id="Fill-62" fill="#F2B02A" points="104.157445 3.0327931 119.346895 0.530689655 110.369465 12.3971724 104.157445 3.0327931"></polyline>
                        <path d="M95.40992,35.1604828 L94.231575,38.6014483 L94.910155,39.7342414 L92.93271,41.7502069 L92.07073,46.2846552 C92.07073,46.2846552 94.94487,42.731 95.77279,39.4138621 C96.098325,38.1113793 96.407485,36.1321034 95.40992,35.1604828" id="Fill-63" fill="#4C5C9A"></path>
                        <path d="M97.02384,38.0524138 C96.23522,41.499931 95.647685,45.2756897 90.41227,49.4111379 C90.41227,49.4111379 88.59137,49.9542759 88.44465,49.688931 C88.298585,49.4235862 89.52016,48.3143793 89.52016,48.3143793 C89.52016,48.3143793 95.041155,44.4200345 96.42779,38.0360345 C96.580405,37.3363103 97.02384,38.0524138 97.02384,38.0524138" id="Fill-64" fill="#CA435D"></path>
                        <path d="M96.280415,36.5632069 C96.280415,36.5632069 97.14436,36.7027586 97.21772,37.2714483 C97.308765,37.9731379 96.793935,38.7586897 96.585645,38.8025862 C96.019725,38.9237931 96.280415,36.5632069 96.280415,36.5632069" id="Fill-65" fill="#CA435D"></path>
                        <path d="M96.955065,43.646931 C98.05481,48.7304138 88.67914,56.2164138 73.64296,57.1958966 C58.7273,58.1675172 48.13857,61.8292759 45.348925,69.1934138 C47.89098,68.5316897 49.04902,67.8188621 48.778505,68.8448621 C48.52371,69.8158276 48.395985,71.0016897 48.571525,72.564931 C51.93757,66.0964138 52.65283,62.4615172 76.39134,60.3151724 C101.18833,58.0731724 97.279945,44.8976552 96.955065,43.646931" id="Fill-66" fill="#F2B02A"></path>
                        <path d="M111.42729,131.453793 L85.42379,131.453793 L85.42379,94.9816552 C85.42379,93.4636207 86.654535,92.2332069 88.17217,92.2332069 L108.67891,92.2332069 C110.1972,92.2332069 111.42729,93.4636207 111.42729,94.9816552 L111.42729,131.453793" id="Fill-79" fill="#A0A6C8"></path>
                        <path d="M74.702095,131.453793 L48.698595,131.453793 L48.698595,105.614448 C48.698595,104.096414 49.92934,102.866 51.44763,102.866 L71.95437,102.866 C73.47266,102.866 74.702095,104.096414 74.702095,105.614448 L74.702095,131.453793" id="Fill-80" fill="#A7C7DF"></path>
                        <path d="M37.97821,131.453793 L11.974055,131.453793 L11.974055,112.345034 C11.974055,110.827 13.2048,109.595931 14.722435,109.595931 L35.22983,109.595931 C36.747465,109.595931 37.97821,110.827 37.97821,112.345034 L37.97821,131.453793" id="Fill-81" fill="#90D1E6"></path>
                        <path d="M119.55322,132.990828 L119.548635,132.990828 L2.61345,132.477828 C2.04753,132.475862 1.590995,132.014621 1.593615,131.449207 C1.596235,130.885103 2.05408,130.429103 2.618035,130.429103 L2.62262,130.429103 L119.557805,130.941448 C120.123725,130.944069 120.579605,131.404655 120.57764,131.970069 C120.575675,132.534172 120.11652,132.990828 119.55322,132.990828" id="Fill-82" fill="#96A7CA"></path>
                    </g>
                </g>
            </g>
        </g>
    </g>
</svg>