<svg width="96" height="96" viewBox="0 0 96 96" fill="none" xmlns="http://www.w3.org/2000/svg">
<g clip-path="url(#clip0)">
<rect width="1440" height="2136" transform="translate(-502 -786)" fill="white"/>
<rect x="-271" y="-617" width="875" height="1996" fill="#FEFEFE"/>
<g clip-path="url(#clip1)">
<g filter="url(#filter0_d)">
<rect x="-228" y="-1" width="324" height="214" rx="6" fill="white"/>
</g>
<mask id="mask0" mask-type="alpha" maskUnits="userSpaceOnUse" x="-228" y="-1" width="324" height="214">
<rect x="-228" y="-1" width="324" height="214" rx="6" fill="white"/>
</mask>
<g mask="url(#mask0)">
<circle opacity="0.0958659" cx="72.5" cy="17.5" r="71.5" fill="url(#paint0_linear)"/>
</g>
</g>
<path fill-rule="evenodd" clip-rule="evenodd" d="M83.0316 15.9739L81.4505 14.5817L83.0316 13.1897C83.2775 12.9729 83.3616 12.635 83.2461 12.3284C83.1301 12.0216 82.8436 11.8234 82.5159 11.8234H75.973V11.5423C75.973 11.2428 75.7302 11 75.4307 11C75.1312 11 74.8885 11.2428 74.8885 11.5423V18.8558L70.4348 21.2741C70.4102 21.0782 70.3515 20.8857 70.2587 20.7045L69.6311 19.4794C69.2004 18.6381 68.1655 18.3048 67.3248 18.7352L66.8396 18.9837C66.432 19.1926 66.1302 19.5471 65.9896 19.983C65.849 20.4185 65.8866 20.8829 66.0955 21.2902L66.723 22.5156C66.8695 22.8016 67.086 23.028 67.3406 23.1866C67.0075 23.6352 66.8495 24.1868 66.6869 24.7598L66.57 25.1737C66.4884 25.4619 66.6561 25.7617 66.9443 25.843C66.9934 25.8571 67.0431 25.8636 67.0919 25.8636C67.3285 25.8636 67.5459 25.7077 67.6136 25.4687L67.7305 25.0557C67.9682 24.2176 68.1141 23.7687 68.5788 23.5163L69.4118 23.0638L69.5145 23.0113C69.5437 22.9964 69.5712 22.9798 69.5988 22.9632L69.5988 22.9632L69.6131 22.9546L75.5501 19.7306C75.5126 20.4727 75.1132 21.1739 74.4554 21.5734L70.5946 23.9192C70.5901 23.9217 70.5855 23.9243 70.5813 23.9271L69.3796 24.6571C69.1239 24.8126 69.0423 25.1463 69.1978 25.4023C69.3443 25.6437 69.6492 25.7295 69.8979 25.6084L68.9861 28.3646L68.3196 28.6379L66.5073 29.3806L67.0296 27.5344C67.1109 27.2462 66.9435 26.9464 66.6553 26.8648C66.3668 26.783 66.0672 26.9509 65.9857 27.2392L65.1605 30.1572C65.1498 30.1947 65.1428 30.2359 65.1411 30.2752L64.9251 34.2419C64.9234 34.2821 64.9244 34.3318 64.9255 34.3858C64.9285 34.5353 64.9322 34.7183 64.8808 34.8268L62.4825 39.8724H60.7396C59.7186 39.8724 58.8881 40.7029 58.8881 41.7236V43.2889C58.6544 43.1819 58.395 43.1221 58.1214 43.1221H53.6954C52.6747 43.1221 51.8442 43.9523 51.8442 44.9733V46.9155H50.5423C50.2428 46.9155 50 47.1582 50 47.4577C50 47.7572 50.2428 48 50.5423 48H82.5153C82.8148 48 83.0576 47.7572 83.0576 47.4577C83.0576 47.1582 82.8148 46.9155 82.5153 46.9155H81.105V32.938C81.105 31.9172 80.2745 31.0867 79.2537 31.0867H75.973V21.6264C76.5743 20.8115 76.797 19.7433 76.5178 18.7282C76.4741 18.5687 76.3597 18.4377 76.2073 18.3731C76.1325 18.3412 76.0523 18.3271 75.973 18.3302V17.3402H82.5156C82.8436 17.3402 83.1301 17.142 83.2459 16.8354C83.3616 16.5289 83.2775 16.1907 83.0316 15.9739ZM67.0219 20.3161C67.0736 20.156 67.1843 20.0256 67.3339 19.9491L67.8191 19.7007C67.9106 19.6538 68.0083 19.6315 68.1048 19.6315C68.3335 19.6315 68.5545 19.7566 68.6657 19.9736L69.2935 21.1991C69.44 21.4853 69.3452 21.8322 69.0846 22.0075L68.9079 22.1032L68.535 22.2943C68.2265 22.4524 67.8465 22.3299 67.6884 22.0211L67.0606 20.7959C66.9841 20.6463 66.9703 20.4758 67.0219 20.3161ZM65.337 39.8806C65.5476 39.9 65.748 39.9551 65.9323 40.0392V39.0899L65.337 39.8806ZM68.5071 35.6697C68.7677 35.3575 68.8397 34.9928 68.8979 34.6988L68.898 34.698C68.9127 34.628 69.1803 33.1664 69.1803 33.1664C69.1803 33.1664 69.4335 33.3242 69.4601 33.3354C69.4784 33.3436 69.4914 33.3617 69.4934 33.3829L69.7884 36.3816H67.971L68.5071 35.6697ZM71.256 36.3791L71.7138 32.6766C71.7432 32.4417 71.6348 32.2769 71.3181 31.865C71.2825 31.8187 69.7519 30.0005 69.7519 30.0005L69.3886 32.0141L69.934 32.3599C70.2906 32.5323 70.5339 32.8793 70.5728 33.2767L70.878 36.3791H71.256ZM65.8564 35.301C65.9659 34.9713 66.0167 34.6357 66.0082 34.2944L66.2053 30.6766L68.7134 29.6488L68.2575 32.1741L68.2556 32.1835C68.2549 32.1873 68.2543 32.191 68.2538 32.1947L67.8767 34.2828C67.8674 34.324 67.8582 34.3692 67.8486 34.4167L67.8486 34.4167C67.8079 34.6185 67.759 34.861 67.6497 35.0052L63.9854 39.8724H63.6833L65.8564 35.301ZM53.6954 44.2066C53.2726 44.2066 52.9287 44.5504 52.9287 44.973V46.9155H58.8884V44.973C58.8884 44.5504 58.5443 44.2066 58.1214 44.2066H53.6954ZM59.9727 44.973V41.7236C59.9727 41.3008 60.3168 40.9569 60.7396 40.9569H65.1656C65.5885 40.9569 65.9323 41.3008 65.9323 41.7236V46.9155H59.9729V44.973H59.9727ZM80.0204 46.9155V32.938C80.0204 32.5154 79.6763 32.1713 79.2535 32.1713H75.4361L75.4307 32.1716L75.4251 32.1713H74.8278C74.4049 32.1713 74.0608 32.5151 74.0608 32.938V40.951C74.0608 41.2505 73.8183 41.4933 73.5185 41.4933C73.219 41.4933 72.9762 41.2505 72.9762 40.951V38.2326C72.9762 37.81 72.6324 37.4662 72.2095 37.4662H67.7836C67.3607 37.4662 67.0169 37.81 67.0169 38.2326V46.9155H72.9762V43.6641C72.9762 43.3646 73.219 43.1218 73.5188 43.1218C73.8183 43.1218 74.0611 43.3646 74.0611 43.6641V46.9155H80.0204ZM74.8278 31.0867C73.807 31.0867 72.9765 31.9172 72.9765 32.938V36.5484C72.7823 36.4598 72.5706 36.4036 72.3479 36.3873L72.7902 32.8101C72.8771 32.1133 72.5219 31.6513 72.1782 31.2044L72.1782 31.2044L72.1776 31.2036C72.1412 31.1562 70.0334 28.6534 70.0334 28.6534L71.3265 24.7437L74.8885 22.5797V31.0867H74.8278ZM75.973 12.9083V16.2553V16.2556H81.7099L80.4744 15.1677C80.3061 15.0195 80.2096 14.8061 80.2096 14.5819C80.2096 14.3578 80.3061 14.1444 80.4744 13.9962L81.7099 12.9083H75.973Z" fill="#606C78"/>
<path d="M59.9415 30.4187C59.9415 30.4187 56.818 22.5838 59.9415 16.8644C63.065 11.145 71.7911 12.7836 71.7911 12.7836" stroke="#F58220" stroke-width="1.5" stroke-linecap="square" stroke-dasharray="2 4"/>
</g>
<defs>
<filter id="filter0_d" x="-236" y="-7" width="340" height="230" filterUnits="userSpaceOnUse" color-interpolation-filters="sRGB">
<feFlood flood-opacity="0" result="BackgroundImageFix"/>
<feColorMatrix in="SourceAlpha" type="matrix" values="0 0 0 0 0 0 0 0 0 0 0 0 0 0 0 0 0 0 127 0"/>
<feOffset dy="2"/>
<feGaussianBlur stdDeviation="4"/>
<feColorMatrix type="matrix" values="0 0 0 0 0.109804 0 0 0 0 0.113725 0 0 0 0 0.333333 0 0 0 0.139997 0"/>
<feBlend mode="normal" in2="BackgroundImageFix" result="effect1_dropShadow"/>
<feBlend mode="normal" in="SourceGraphic" in2="effect1_dropShadow" result="shape"/>
</filter>
<linearGradient id="paint0_linear" x1="-4.08764" y1="-24.7516" x2="43.1453" y2="112.616" gradientUnits="userSpaceOnUse">
<stop stop-color="#F58220"/>
<stop offset="1" stop-color="white"/>
</linearGradient>
<clipPath id="clip0">
<rect width="1440" height="2136" fill="white" transform="translate(-502 -786)"/>
</clipPath>
<clipPath id="clip1">
<rect width="324" height="214" fill="white" transform="translate(-228 -1)"/>
</clipPath>
</defs>
</svg>
