<svg width="20" height="22" viewBox="0 0 20 22" fill="none" xmlns="http://www.w3.org/2000/svg">
<path fill-rule="evenodd" clip-rule="evenodd" d="M19.6404 2.95746L18.7003 2.12964L19.6404 1.30199C19.7866 1.17308 19.8366 0.972168 19.768 0.789886C19.699 0.607437 19.5286 0.489609 19.3338 0.489609H15.4434V0.322433C15.4434 0.144348 15.2991 0 15.121 0C14.9429 0 14.7985 0.144348 14.7985 0.322433V4.67101L12.1504 6.10895C12.1358 5.99246 12.1009 5.87799 12.0457 5.77023L11.6726 5.04178C11.4164 4.5416 10.8011 4.34337 10.3013 4.59933L10.0127 4.74704C9.77036 4.87125 9.59093 5.08206 9.50734 5.34122C9.42375 5.6002 9.44608 5.87631 9.57028 6.11852L9.94341 6.84714C10.0305 7.01717 10.1593 7.15178 10.3107 7.24611C10.1126 7.51282 10.0186 7.84079 9.92192 8.18152L9.85243 8.42758C9.80392 8.59895 9.90363 8.77721 10.075 8.82555C10.1042 8.83394 10.1337 8.8378 10.1628 8.8378C10.3034 8.8378 10.4327 8.74515 10.473 8.60298L10.5424 8.35742C10.6838 7.85909 10.7706 7.59221 11.0468 7.44215L11.5421 7.1731L11.6032 7.14188C11.6206 7.133 11.6369 7.12314 11.6533 7.11324L11.6618 7.10814L15.192 5.19116C15.1696 5.63243 14.9321 6.04936 14.5411 6.28687L12.2454 7.68167C12.2427 7.68318 12.2401 7.68469 12.2375 7.68637L11.523 8.12042C11.3709 8.21291 11.3224 8.4113 11.4149 8.56354C11.502 8.70705 11.6833 8.75807 11.8312 8.68607L11.289 10.3249L10.8927 10.4874L9.81517 10.929L10.1257 9.83128C10.174 9.65991 10.0745 9.48166 9.90312 9.43315C9.73158 9.38448 9.5535 9.48434 9.50499 9.65572L9.01437 11.3907C9.008 11.4131 9.0038 11.4376 9.00279 11.4609L8.87439 13.8195C8.87336 13.8434 8.87396 13.8729 8.87461 13.905V13.905V13.905V13.905V13.905V13.905V13.9051V13.9051V13.9051V13.9051C8.87641 13.994 8.87861 14.1028 8.84804 14.1673L7.42201 17.1674H6.38573C5.77863 17.1674 5.28482 17.6612 5.28482 18.2681V19.1988C5.14584 19.1352 4.99159 19.0996 4.82895 19.0996H2.19728C1.59035 19.0996 1.09654 19.5932 1.09654 20.2003V21.3551H0.322433C0.144348 21.3551 0 21.4995 0 21.6776C0 21.8557 0.144348 22 0.322433 22H19.3334C19.5115 22 19.6559 21.8557 19.6559 21.6776C19.6559 21.4995 19.5115 21.3551 19.3334 21.3551H18.4949V13.0442C18.4949 12.4373 18.0011 11.9435 17.3941 11.9435H15.4434V6.31842C15.8009 5.83385 15.9333 5.19872 15.7673 4.59514C15.7413 4.50031 15.6734 4.42242 15.5827 4.38399C15.5382 4.36502 15.4906 4.35663 15.4434 4.35847V3.76984H19.3336C19.5286 3.76984 19.699 3.65201 19.7678 3.46973C19.8366 3.28745 19.7866 3.08636 19.6404 2.95746ZM10.1212 5.53928C10.1519 5.44411 10.2177 5.36656 10.3066 5.32108L10.5952 5.17337C10.6495 5.14551 10.7076 5.13225 10.765 5.13225C10.901 5.13225 11.0324 5.2066 11.0985 5.33568L11.4718 6.0643C11.5589 6.2345 11.5025 6.44078 11.3476 6.54501L11.2425 6.60191L11.0208 6.71555C10.8374 6.80954 10.6114 6.73669 10.5174 6.55307L10.1441 5.82462C10.0987 5.73566 10.0904 5.63428 10.1212 5.53928ZM9.11928 17.1722C9.24449 17.1838 9.36366 17.2165 9.47327 17.2666V16.7021L9.11928 17.1722ZM11.0042 14.6685C11.1592 14.4828 11.202 14.266 11.2366 14.0912L11.2367 14.0907C11.2454 14.0491 11.4045 13.18 11.4045 13.18C11.4045 13.18 11.5551 13.2738 11.5708 13.2805C11.5818 13.2854 11.5895 13.2961 11.5907 13.3087L11.7661 15.0918H10.6855L11.0042 14.6685ZM12.6387 15.0903L12.9109 12.8888C12.9284 12.7491 12.8639 12.6511 12.6756 12.4062C12.6545 12.3787 11.7444 11.2976 11.7444 11.2976L11.5284 12.4948L11.8527 12.7005C12.0647 12.803 12.2093 13.0093 12.2325 13.2456L12.4139 15.0903H12.6387ZM9.42812 14.4492C9.49324 14.2532 9.52345 14.0536 9.51842 13.8507L9.63557 11.6996L11.1269 11.0885L10.8558 12.59C10.855 12.594 10.8541 12.5982 10.8536 12.6023L10.6294 13.8438C10.6238 13.8683 10.6184 13.8952 10.6127 13.9234L10.6127 13.9235C10.5885 14.0435 10.5594 14.1876 10.4944 14.2733L8.31563 17.1674H8.13603L9.42812 14.4492ZM2.19728 19.7445C1.94585 19.7445 1.74141 19.9489 1.74141 20.2002V21.3551H5.28499V20.2002C5.28499 19.9489 5.08038 19.7445 4.82895 19.7445H2.19728ZM5.92969 20.2002V18.2681C5.92969 18.0167 6.13429 17.8122 6.38573 17.8122H9.0174C9.26883 17.8122 9.47327 18.0167 9.47327 18.2681V21.3551H5.92986V20.2002H5.92969ZM17.85 21.3551V13.0442C17.85 12.7929 17.6454 12.5883 17.394 12.5883H15.1242L15.121 12.5885L15.1176 12.5883H14.7625C14.511 12.5883 14.3064 12.7928 14.3064 13.0442V17.8087C14.3064 17.9868 14.1622 18.1311 13.984 18.1311C13.8059 18.1311 13.6615 17.9868 13.6615 17.8087V16.1923C13.6615 15.9411 13.4571 15.7366 13.2057 15.7366H10.574C10.3226 15.7366 10.1181 15.9411 10.1181 16.1923V21.3551H13.6615V19.4219C13.6615 19.2438 13.8059 19.0994 13.9841 19.0994C14.1622 19.0994 14.3066 19.2438 14.3066 19.4219V21.3551H17.85ZM14.7625 11.9435C14.1555 11.9435 13.6617 12.4373 13.6617 13.0442V15.191C13.5462 15.1383 13.4203 15.1049 13.2879 15.0951L13.5509 12.9682C13.6026 12.5538 13.3914 12.2791 13.1871 12.0134L13.1867 12.013C13.1651 11.9848 11.9117 10.4966 11.9117 10.4966L12.6806 8.17195L14.7985 6.88524V11.9435H14.7625ZM15.4434 1.13464V3.1248V3.12497H18.8546L18.1199 2.47809C18.0199 2.38997 17.9624 2.26308 17.9624 2.12981C17.9624 1.99654 18.0199 1.86964 18.1199 1.78152L18.8546 1.13464H15.4434Z" fill="#F78200"/>
</svg>
