<svg width="17" height="16" viewBox="0 0 17 16" fill="none" xmlns="http://www.w3.org/2000/svg">
<path d="M10.2891 5.06367C10.2891 4.90556 10.1611 4.77748 10.003 4.77748H5.95856C5.80045 4.77748 5.67236 4.90556 5.67236 5.06367C5.67236 5.22162 5.80045 5.34986 5.95856 5.34986H7.11579C7.80556 5.35066 8.39935 5.83681 8.53637 6.51268H5.95856C5.80045 6.51268 5.67236 6.64093 5.67236 6.79888C5.67236 6.95699 5.80045 7.08507 5.95856 7.08507H8.53637C8.39935 7.76111 7.80556 8.24709 7.11579 8.24805H5.95856C5.84133 8.24805 5.73609 8.3196 5.69281 8.42836C5.64937 8.53728 5.67684 8.66153 5.76196 8.74218L8.65456 11.4756C8.72882 11.5461 8.83518 11.5717 8.9334 11.5425C9.03162 11.5132 9.10669 11.4337 9.13032 11.3341C9.15396 11.2344 9.12234 11.1296 9.04775 11.0595L6.67803 8.82028H7.11579C8.12114 8.819 8.97317 8.08004 9.11675 7.08507H10.003C10.1611 7.08507 10.2891 6.95683 10.2891 6.79888C10.2891 6.64077 10.1611 6.51268 10.003 6.51268H9.11675C9.05318 6.06998 8.84445 5.66081 8.52328 5.3497H10.003C10.1611 5.3497 10.2891 5.22162 10.2891 5.06367Z" fill="white"/>
<path d="M15.9424 3.08321C15.9424 2.92526 15.8144 2.79701 15.6563 2.79701H14.1454V1.28619C14.1454 1.12808 14.0173 1 13.8592 1C13.7011 1 13.573 1.12808 13.573 1.28619V2.79701H11.9766C11.8185 2.79701 11.6904 2.92526 11.6904 3.08321C11.6904 3.24132 11.8185 3.3694 11.9766 3.3694H13.573V4.96582C13.573 5.12393 13.7011 5.25202 13.8592 5.25202C14.0173 5.25202 14.1454 5.12393 14.1454 4.96582V3.3694H15.6563C15.8144 3.3694 15.9424 3.24132 15.9424 3.08321Z" fill="white" stroke="white" stroke-width="0.5"/>
<path d="M10.4494 1.59583C9.66303 1.2847 8.80589 1.11373 7.90882 1.11373C4.09319 1.11373 1 4.20691 1 8.02255C1 11.8382 4.09319 14.9314 7.90882 14.9314V14.9314C11.7245 14.9314 14.8176 11.8382 14.8176 8.02255C14.8176 7.71938 14.7981 7.42077 14.7603 7.12791" stroke="white" stroke-linecap="round"/>
</svg>
