<svg width="19" height="17" viewBox="0 0 19 17" fill="none" xmlns="http://www.w3.org/2000/svg">
<path fill-rule="evenodd" clip-rule="evenodd" d="M17.3574 10.3561C17.844 10.3561 18.24 10.7521 18.24 11.2387V11.8271C18.24 12.0539 18.1517 12.259 18.0105 12.4155C18.1514 12.572 18.24 12.777 18.24 13.0039V13.5922C18.24 13.8191 18.1517 14.0241 18.0105 14.1806C18.1514 14.3371 18.24 14.5422 18.24 14.769V15.3574C18.24 15.844 17.844 16.24 17.3574 16.24H12.6503C12.4235 16.24 12.2184 16.1517 12.0619 16.0105C11.9054 16.1514 11.7004 16.24 11.4735 16.24H6.76645C6.27986 16.24 5.88387 15.844 5.88387 15.3574V15.0632H0V10.3749C0 9.3435 0.512485 8.3862 1.37094 7.8137C1.75104 7.5604 2.19086 7.39241 2.64303 7.32769L3.8813 7.15088L4.04163 6.50924C3.21259 6.06148 2.64774 5.18478 2.64774 4.17805C1.99875 4.17805 1.47097 3.65027 1.47097 3.00128C1.47097 2.35229 1.99875 1.82451 2.64774 1.82451H2.86162C3.16082 1.66123 3.40911 1.40969 3.56151 1.10461L3.6427 0.941925H6.94826L7.02946 1.10461C7.18185 1.40969 7.43045 1.66123 7.72935 1.82451H7.94323C8.59222 1.82451 9.12 2.35229 9.12 3.00128C9.12 3.65027 8.59222 4.17805 7.94323 4.17805C7.94323 5.18478 7.37837 6.06148 6.54934 6.50924L6.70967 7.15088L7.94793 7.32769C8.40011 7.39212 8.83993 7.5604 9.22003 7.8137C10.0785 8.3859 10.591 9.34321 10.591 10.3749V12.1213H11.4735C11.6133 12.1213 11.7439 12.1569 11.8616 12.2151C11.8033 12.0975 11.7677 11.9668 11.7677 11.8271V11.2387C11.7677 10.7521 12.1637 10.3561 12.6503 10.3561H17.3574ZM12.6503 10.9445C12.4882 10.9445 12.3561 11.0763 12.3561 11.2387V11.8271C12.3561 11.9895 12.4882 12.1213 12.6503 12.1213H17.3574C17.5195 12.1213 17.6516 11.9895 17.6516 11.8271V11.2387C17.6516 11.0763 17.5195 10.9445 17.3574 10.9445H17.0632V11.5329H16.4748V10.9445H15.8865V11.5329H15.2981V10.9445H14.7097V11.5329H14.1213V10.9445H13.5329V11.5329H12.9445V10.9445H12.6503ZM17.6516 13.0039V13.5922C17.6516 13.7546 17.5195 13.8864 17.3574 13.8864H12.6503C12.4882 13.8864 12.3561 13.7546 12.3561 13.5922V13.0039C12.3561 12.8415 12.4882 12.7097 12.6503 12.7097H12.9445V13.2981H13.5329V12.7097H14.1213V13.2981H14.7097V12.7097H15.2981V13.2981H15.8865V12.7097H16.4748V13.2981H17.0632V12.7097H17.3574C17.5195 12.7097 17.6516 12.8415 17.6516 13.0039ZM11.7677 13.5922V13.0039C11.7677 12.8415 11.6356 12.7097 11.4735 12.7097H11.1794V13.2981H10.591V12.7097H10.0026V13.2981H9.41419V12.7097H8.82581V13.2981H8.23742V12.7097H7.64903V13.2981H7.06065V12.7097H6.76645C6.60435 12.7097 6.47226 12.8415 6.47226 13.0039V13.5922C6.47226 13.7546 6.60435 13.8864 6.76645 13.8864H11.4735C11.6356 13.8864 11.7677 13.7546 11.7677 13.5922ZM6.5764 7.72603L6.68673 7.74191L6.5308 8.989L5.77031 8.53271L6.5764 7.72603ZM6.76645 3.58967C7.09095 3.58967 7.35484 3.32578 7.35484 3.00128C7.35484 2.67678 7.09095 2.41289 6.76645 2.41289C6.44196 2.41289 6.17806 2.67678 6.17806 3.00128C6.17806 3.32578 6.44196 3.58967 6.76645 3.58967ZM8.53161 3.00128C8.53161 3.32578 8.26772 3.58967 7.94323 3.58967V2.41289C8.26772 2.41289 8.53161 2.67678 8.53161 3.00128ZM6.81588 1.82951C6.73468 1.73507 6.65819 1.63681 6.59347 1.53031H3.9975C3.93278 1.63681 3.85629 1.73507 3.77509 1.82951C3.78286 1.82923 3.79038 1.82814 3.79791 1.82704C3.80663 1.82578 3.81536 1.82451 3.82452 1.82451C4.37113 1.82451 4.82801 2.20078 4.95951 2.70709H5.63145C5.76296 2.20078 6.21984 1.82451 6.76645 1.82451C6.77561 1.82451 6.78434 1.82578 6.79306 1.82704C6.80059 1.82814 6.80811 1.82923 6.81588 1.82951ZM3.82452 2.41289C4.14901 2.41289 4.4129 2.67678 4.4129 3.00128C4.4129 3.32578 4.14901 3.58967 3.82452 3.58967C3.50002 3.58967 3.23613 3.32578 3.23613 3.00128C3.23613 2.67678 3.50002 2.41289 3.82452 2.41289ZM2.64774 2.41289C2.32325 2.41289 2.05935 2.67678 2.05935 3.00128C2.05935 3.32578 2.32325 3.58967 2.64774 3.58967V2.41289ZM3.23613 4.17805V4.01448C3.41 4.11568 3.60917 4.17805 3.82452 4.17805C4.37113 4.17805 4.82801 3.80178 4.95951 3.29547H5.63145C5.76296 3.80178 6.21984 4.17805 6.76645 4.17805C6.9818 4.17805 7.18097 4.11568 7.35484 4.01448V4.17805C7.35484 5.31335 6.43107 6.23741 5.29548 6.23741C4.1599 6.23741 3.23613 5.31335 3.23613 4.17805ZM5.99743 6.72842C5.77355 6.7902 5.53878 6.8258 5.29548 6.8258C5.05219 6.8258 4.81742 6.7902 4.59324 6.72842L4.44438 7.32416L5.29548 8.17497L6.14629 7.32416L5.99743 6.72842ZM4.82095 8.53271L4.06046 8.989L3.90454 7.74191L4.01486 7.72603L4.82095 8.53271ZM1.69691 8.30324C1.00291 8.766 0.588387 9.54061 0.588387 10.3749V14.4748H2.35355V10.9445H2.94194V14.4748H5.938C5.97713 14.3648 6.03656 14.2657 6.11334 14.1806C5.97242 14.0241 5.88387 13.8191 5.88387 13.5922V13.0039C5.88387 12.5173 6.27986 12.1213 6.76645 12.1213H7.64903V10.9445H8.23742V12.1213H10.0026V10.3749C10.0026 9.54091 9.58806 8.7663 8.89377 8.30324C8.58633 8.09848 8.23036 7.96256 7.86468 7.91019L7.26893 7.82517L7.00239 9.95807L5.29548 8.93399L3.58857 9.95807L3.32203 7.82517L2.72629 7.91019C2.36031 7.96256 2.00463 8.09848 1.69691 8.30324ZM11.4735 15.6516H6.76645C6.60435 15.6516 6.47226 15.5198 6.47226 15.3574V14.769C6.47226 14.6066 6.60435 14.4748 6.76645 14.4748H7.06065V15.0632H7.64903V14.4748H8.23742V15.0632H8.82581V14.4748H9.41419V15.0632H10.0026V14.4748H10.591V15.0632H11.1794V14.4748H11.4735C11.6356 14.4748 11.7677 14.6066 11.7677 14.769V15.3574C11.7677 15.5198 11.6356 15.6516 11.4735 15.6516ZM17.3574 15.6516C17.5195 15.6516 17.6516 15.5198 17.6516 15.3574V14.769C17.6516 14.6066 17.5195 14.4748 17.3574 14.4748H17.0632V15.0632H16.4748V14.4748H15.8865V15.0632H15.2981V14.4748H14.7097V15.0632H14.1213V14.4748H13.5329V15.0632H12.9445V14.4748H12.6503C12.4882 14.4748 12.3561 14.6066 12.3561 14.769V15.3574C12.3561 15.5198 12.4882 15.6516 12.6503 15.6516H17.3574Z" fill="#7A8088"/>
<path d="M14.7097 9.76773H15.2981V9.17934C15.7847 9.17934 16.1807 8.78336 16.1807 8.29676C16.1807 7.81016 15.7847 7.41418 15.2981 7.41418H14.7097C14.5476 7.41418 14.4155 7.28238 14.4155 7.11999C14.4155 6.95759 14.5476 6.82579 14.7097 6.82579H15.5923V7.11999H16.1807V6.2374H15.2981V5.64902H14.7097V6.2374C14.2231 6.2374 13.8271 6.63339 13.8271 7.11999C13.8271 7.60658 14.2231 8.00257 14.7097 8.00257H15.2981C15.4602 8.00257 15.5923 8.13436 15.5923 8.29676C15.5923 8.45915 15.4602 8.59095 15.2981 8.59095H14.4155V8.29676H13.8271V9.17934H14.7097V9.76773Z" fill="white"/>
<circle cx="3.82447" cy="3.00129" r="0.294194" fill="#7A8088"/>
<circle cx="6.76636" cy="3.00129" r="0.294194" fill="#7A8088"/>
<path d="M6.4722 4.47226H5.88381C5.88381 4.79676 5.61992 5.06065 5.29543 5.06065C4.97093 5.06065 4.70704 4.79676 4.70704 4.47226H4.11865C4.11865 5.12125 4.64644 5.64903 5.29543 5.64903C5.94442 5.64903 6.4722 5.12125 6.4722 4.47226Z" fill="#7A8088"/>
<path d="M5.00146 9.76773H5.58985V10.3561H5.00146V9.76773Z" fill="#7A8088"/>
<path d="M5.00146 10.9445H5.58985V11.5329H5.00146V10.9445Z" fill="#7A8088"/>
</svg>
