<svg width="86" height="106" viewBox="0 0 86 106" fill="none" xmlns="http://www.w3.org/2000/svg">
<path d="M0 6C0 2.68629 2.68629 0 6 0H86V106H6C2.68629 106 0 103.314 0 100V6Z" fill="#F78200" fill-opacity="0.0786005"/>
<path d="M57.0923 55.8151L57.7416 56.1905L57.7437 56.1869L57.0923 55.8151ZM46.5162 74.1085L47.1567 74.4986L47.1612 74.4913L47.1655 74.4839L46.5162 74.1085ZM39.9945 74.1085L40.6505 73.7447L40.6439 73.7333L39.9945 74.1085ZM29.4184 55.8042L28.7658 56.1739L28.769 56.1795L29.4184 55.8042ZM43.2553 30.25C33.8629 30.25 26.2771 37.8358 26.2771 47.2283H27.7771C27.7771 38.6642 34.6913 31.75 43.2553 31.75V30.25ZM60.2336 47.2389C60.2336 37.8473 52.6485 30.25 43.2553 30.25V31.75C51.8187 31.75 58.7336 38.6744 58.7336 47.2389H60.2336ZM57.7437 56.1869C59.1963 53.6418 60.2336 50.58 60.2336 47.2389H58.7336C58.7336 50.2674 57.7926 53.0751 56.4409 55.4433L57.7437 56.1869ZM47.1655 74.4839L57.7416 56.1905L56.443 55.4397L45.8669 73.7331L47.1655 74.4839ZM43.2553 76.652C44.747 76.652 46.277 75.943 47.1567 74.4986L45.8757 73.7183C45.2989 74.6653 44.2856 75.152 43.2553 75.152V76.652ZM39.3386 74.4722C40.1621 75.9573 41.7857 76.652 43.2553 76.652V75.152C42.2032 75.152 41.1529 74.651 40.6504 73.7448L39.3386 74.4722ZM28.769 56.1795L39.3451 74.4837L40.6439 73.7333L30.0678 55.429L28.769 56.1795ZM26.2771 47.2283C26.2771 50.5153 27.3254 53.6308 28.7658 56.1739L30.071 55.4346C28.7287 53.0648 27.7771 50.2021 27.7771 47.2283H26.2771ZM43.2553 51.2717C40.4087 51.2717 38.0814 48.9445 38.0814 46.0978H36.5814C36.5814 49.7729 39.5802 52.7717 43.2553 52.7717V51.2717ZM48.4292 46.0978C48.4292 48.9545 46.1029 51.2717 43.2553 51.2717V52.7717C46.9295 52.7717 49.9292 49.7847 49.9292 46.0978H48.4292ZM43.2553 40.9239C46.102 40.9239 48.4292 43.2512 48.4292 46.0978H49.9292C49.9292 42.4227 46.9304 39.4239 43.2553 39.4239V40.9239ZM38.0814 46.0978C38.0814 43.2512 40.4087 40.9239 43.2553 40.9239V39.4239C39.5802 39.4239 36.5814 42.4227 36.5814 46.0978H38.0814Z" fill="#F78200"/>
</svg>
