<svg width="15" height="20" viewBox="0 0 15 20" fill="none" xmlns="http://www.w3.org/2000/svg">
<path fill-rule="evenodd" clip-rule="evenodd" d="M0.0252686 7.70832C0.0252686 3.45793 3.38149 0 7.50687 0C11.6323 0 14.9885 3.45793 14.9885 7.70832C14.9885 10.0989 13.7879 12.8753 11.4202 15.9605C9.68766 18.2181 7.98007 19.7783 7.90823 19.8436C7.67889 20.0521 7.33482 20.0521 7.10552 19.8436C7.03367 19.7783 5.32608 18.2181 3.59355 15.9605C1.2258 12.8753 0.0252686 10.0989 0.0252686 7.70832ZM1.2385 7.70832C1.2385 12.0428 6.06521 17.1068 7.50687 18.5223C8.94846 17.1068 13.7752 12.0428 13.7752 7.70832C13.7752 4.14719 10.9633 1.25 7.50687 1.25C4.05048 1.25 1.2385 4.14719 1.2385 7.70832Z" fill="#003974"/>
<path fill-rule="evenodd" clip-rule="evenodd" d="M7.90164 3.58797L12.148 7.33797C12.4023 7.56262 12.4318 7.95719 12.2137 8.21926C11.9967 8.48016 11.6139 8.5127 11.3584 8.28703L10.8432 7.83211V10.9375C10.8432 11.2827 10.5716 11.5625 10.2366 11.5625H4.77707C4.44207 11.5625 4.17045 11.2827 4.17045 10.9375V7.83211L3.65536 8.28703C3.401 8.51168 3.01803 8.48133 2.79999 8.21926C2.58195 7.95719 2.61141 7.56258 2.86577 7.33797L7.11209 3.58797C7.33927 3.38734 7.67447 3.38734 7.90164 3.58797ZM5.38369 6.76066V10.3125H9.63001V6.76066L7.50685 4.88566L5.38369 6.76066Z" fill="#003974"/>
</svg>
