<svg width="16" height="16" viewBox="0 0 16 16" fill="none" xmlns="http://www.w3.org/2000/svg">
<path d="M13.4056 15.9999H9.90696C9.77314 15.9999 9.66453 15.8913 9.66453 15.7575V10.8218H6.33508V15.7575C6.33508 15.8913 6.22647 15.9999 6.09265 15.9999H2.59302C2.4592 15.9999 2.35059 15.8913 2.35059 15.7575V7.70564H0.353987C0.254593 7.70564 0.165381 7.64503 0.128532 7.55291C0.0921687 7.46079 0.115441 7.35558 0.187199 7.28721L7.83229 0.0663638C7.92587 -0.0223635 8.07181 -0.0218787 8.16587 0.0663638L15.8129 7.28721C15.8847 7.35558 15.9079 7.46079 15.8716 7.55291C15.8347 7.64503 15.7455 7.70564 15.6461 7.70564H13.648V15.7575C13.648 15.8913 13.5394 15.9999 13.4056 15.9999Z" fill="url(#paint0_linear)"/>
<defs>
<linearGradient id="paint0_linear" x1="0.111572" y1="0" x2="0.111572" y2="15.9999" gradientUnits="userSpaceOnUse">
<stop stop-color="#FBB843"/>
<stop offset="1" stop-color="#F58220"/>
</linearGradient>
</defs>
</svg>
