<svg width="18" height="18" viewBox="0 0 18 18" fill="none" xmlns="http://www.w3.org/2000/svg">
<g opacity="0.6">
<path d="M14.4056 17H10.907C10.7731 17 10.6645 16.8914 10.6645 16.7576V11.8218H7.33508V16.7576C7.33508 16.8914 7.22647 17 7.09265 17H3.59302C3.4592 17 3.35059 16.8914 3.35059 16.7576V8.7057H1.35399C1.25459 8.7057 1.16538 8.64509 1.12853 8.55297C1.09217 8.46085 1.11544 8.35564 1.1872 8.28727L8.83229 1.06642C8.92587 0.977698 9.07181 0.978182 9.16587 1.06642L16.8129 8.28727C16.8847 8.35564 16.9079 8.46085 16.8716 8.55297C16.8347 8.64509 16.7455 8.7057 16.6461 8.7057H14.648V16.7576C14.648 16.8914 14.5394 17 14.4056 17Z" stroke="#606C78"/>
</g>
</svg>
