<svg width="16" height="19" viewBox="0 0 16 19" fill="none" xmlns="http://www.w3.org/2000/svg">
<path d="M4.72729 4.33698H6.27733V5.11199H4.72729V4.33698Z" fill="#F58220" stroke="#F58220" stroke-width="0.3"/>
<path d="M0.270996 4.33698H1.82103V5.11199H0.270996V4.33698Z" fill="#F58220" stroke="#F58220" stroke-width="0.3"/>
<path d="M2.9834 1.62439H3.75842V3.17442H2.9834V1.62439Z" fill="#F58220" stroke="#F58220" stroke-width="0.3"/>
<path d="M2.9834 6.08075H3.75842V7.63078H2.9834V6.08075Z" fill="#F58220" stroke="#F58220" stroke-width="0.3"/>
<path d="M13.1416 15.0859C12.9894 15.0859 12.866 15.2093 12.866 15.3615V15.9127H12.3149C12.1627 15.9127 12.0393 16.0361 12.0393 16.1883C12.0393 16.3405 12.1627 16.4638 12.3149 16.4638H13.1416C13.2938 16.4638 13.4172 16.3405 13.4172 16.1883V15.3615C13.4172 15.2093 13.2938 15.0859 13.1416 15.0859Z" fill="#F58220"/>
<path fill-rule="evenodd" clip-rule="evenodd" d="M5.9764 13.708H8.73221C9.18881 13.708 9.55895 14.0782 9.55895 14.5348V16.7394C9.55895 17.196 9.18881 17.5662 8.73221 17.5662H5.9764C5.5198 17.5662 5.14966 17.196 5.14966 16.7394V14.5348C5.14966 14.0782 5.5198 13.708 5.9764 13.708ZM8.73221 17.015C8.88441 17.015 9.00779 16.8916 9.00779 16.7394V14.5348C9.00779 14.3826 8.88441 14.2592 8.73221 14.2592H5.9764C5.8242 14.2592 5.70082 14.3826 5.70082 14.5348V16.7394C5.70082 16.8916 5.8242 17.015 5.9764 17.015H8.73221Z" fill="#F58220"/>
<path d="M8.73221 13.558H5.9764V13.858H8.73221V13.558ZM9.70895 14.5348C9.70895 13.9953 9.27165 13.558 8.73221 13.558V13.858C9.10597 13.858 9.40895 14.161 9.40895 14.5348H9.70895ZM9.70895 16.7394V14.5348H9.40895V16.7394H9.70895ZM8.73221 17.7162C9.27165 17.7162 9.70895 17.2789 9.70895 16.7394H9.40895C9.40895 17.1132 9.10597 17.4162 8.73221 17.4162V17.7162ZM5.9764 17.7162H8.73221V17.4162H5.9764V17.7162ZM4.99966 16.7394C4.99966 17.2789 5.43696 17.7162 5.9764 17.7162V17.4162C5.60265 17.4162 5.29966 17.1132 5.29966 16.7394H4.99966ZM4.99966 14.5348V16.7394H5.29966V14.5348H4.99966ZM5.9764 13.558C5.43696 13.558 4.99966 13.9953 4.99966 14.5348H5.29966C5.29966 14.161 5.60265 13.858 5.9764 13.858V13.558ZM8.85779 16.7394C8.85779 16.8088 8.80157 16.865 8.73221 16.865V17.165C8.96725 17.165 9.15779 16.9745 9.15779 16.7394H8.85779ZM8.85779 14.5348V16.7394H9.15779V14.5348H8.85779ZM8.73221 14.4092C8.80157 14.4092 8.85779 14.4654 8.85779 14.5348H9.15779C9.15779 14.2997 8.96725 14.1092 8.73221 14.1092V14.4092ZM5.9764 14.4092H8.73221V14.1092H5.9764V14.4092ZM5.85082 14.5348C5.85082 14.4654 5.90704 14.4092 5.9764 14.4092V14.1092C5.74136 14.1092 5.55082 14.2997 5.55082 14.5348H5.85082ZM5.85082 16.7394V14.5348H5.55082V16.7394H5.85082ZM5.9764 16.865C5.90704 16.865 5.85082 16.8088 5.85082 16.7394H5.55082C5.55082 16.9745 5.74136 17.165 5.9764 17.165V16.865ZM8.73221 16.865H5.9764V17.165H8.73221V16.865Z" fill="#F58220"/>
<path fill-rule="evenodd" clip-rule="evenodd" d="M1.01595 15.3615H3.77176C4.22836 15.3615 4.5985 15.7317 4.5985 16.1883V16.7394C4.5985 17.196 4.22836 17.5662 3.77176 17.5662H1.01595C0.559354 17.5662 0.189209 17.196 0.189209 16.7394V16.1883C0.189209 15.7317 0.559354 15.3615 1.01595 15.3615ZM3.77176 17.015C3.92396 17.015 4.04734 16.8916 4.04734 16.7394V16.1883C4.04734 16.0361 3.92396 15.9127 3.77176 15.9127H1.01595C0.863753 15.9127 0.740371 16.0361 0.740371 16.1883V16.7394C0.740371 16.8916 0.863753 17.015 1.01595 17.015H3.77176Z" fill="#F58220"/>
<path d="M3.77176 15.2115H1.01595V15.5115H3.77176V15.2115ZM4.7485 16.1883C4.7485 15.6488 4.3112 15.2115 3.77176 15.2115V15.5115C4.14552 15.5115 4.4485 15.8145 4.4485 16.1883H4.7485ZM4.7485 16.7394V16.1883H4.4485V16.7394H4.7485ZM3.77176 17.7162C4.3112 17.7162 4.7485 17.2789 4.7485 16.7394H4.4485C4.4485 17.1132 4.14552 17.4162 3.77176 17.4162V17.7162ZM1.01595 17.7162H3.77176V17.4162H1.01595V17.7162ZM0.039209 16.7394C0.039209 17.2789 0.476512 17.7162 1.01595 17.7162V17.4162C0.642197 17.4162 0.339209 17.1132 0.339209 16.7394H0.039209ZM0.039209 16.1883V16.7394H0.339209V16.1883H0.039209ZM1.01595 15.2115C0.476512 15.2115 0.039209 15.6488 0.039209 16.1883H0.339209C0.339209 15.8145 0.642197 15.5115 1.01595 15.5115V15.2115ZM3.89734 16.7394C3.89734 16.8088 3.84112 16.865 3.77176 16.865V17.165C4.0068 17.165 4.19734 16.9745 4.19734 16.7394H3.89734ZM3.89734 16.1883V16.7394H4.19734V16.1883H3.89734ZM3.77176 16.0627C3.84112 16.0627 3.89734 16.1189 3.89734 16.1883H4.19734C4.19734 15.9532 4.0068 15.7627 3.77176 15.7627V16.0627ZM1.01595 16.0627H3.77176V15.7627H1.01595V16.0627ZM0.890371 16.1883C0.890371 16.1189 0.946595 16.0627 1.01595 16.0627V15.7627C0.78091 15.7627 0.590371 15.9532 0.590371 16.1883H0.890371ZM0.890371 16.7394V16.1883H0.590371V16.7394H0.890371ZM1.01595 16.865C0.946595 16.865 0.890371 16.8088 0.890371 16.7394H0.590371C0.590371 16.9745 0.78091 17.165 1.01595 17.165V16.865ZM3.77176 16.865H1.01595V17.165H3.77176V16.865Z" fill="#F58220"/>
<path d="M9.83443 8.19641C8.31313 8.19808 7.08029 9.43092 7.07862 10.9522V10.9539C6.36709 10.0052 5.12843 9.61804 4.00329 9.99271C2.87816 10.3674 2.11888 11.4198 2.11816 12.6057V14.5348C2.11816 14.687 2.24155 14.8104 2.39375 14.8104C2.54594 14.8104 2.66933 14.687 2.66933 14.5348V12.6057C2.66933 11.3881 3.65638 10.4011 4.87397 10.4011C6.09157 10.4011 7.07862 11.3881 7.07862 12.6057V12.8813C7.07862 13.0335 7.202 13.1569 7.3542 13.1569C7.5064 13.1569 7.62978 13.0335 7.62978 12.8813V10.9522C7.63115 9.73519 8.6174 8.74894 9.83443 8.74757C9.98663 8.74757 10.11 8.62419 10.11 8.47199C10.11 8.31979 9.98663 8.19641 9.83443 8.19641Z" fill="#F58220" stroke="#F58220" stroke-width="0.3"/>
<path fill-rule="evenodd" clip-rule="evenodd" d="M13.4172 1.85805C13.4172 1.40146 13.7874 1.03131 14.244 1.03131C14.7006 1.03131 15.0707 1.40146 15.0707 1.85805V3.51154C15.0688 4.29177 14.7017 5.0261 14.0786 5.49572L13.9684 5.5784V11.6412C13.9674 11.7912 13.931 11.9389 13.862 12.0722C14.2451 12.1523 14.5195 12.49 14.5195 12.8813V16.7394C14.5195 17.196 14.1494 17.5662 13.6928 17.5662H10.937C10.4804 17.5662 10.1102 17.196 10.1102 16.7394V12.8813C10.1104 12.4903 10.3843 12.1529 10.767 12.0725C10.6985 11.9389 10.6624 11.7912 10.6614 11.6412V5.5784L10.5512 5.49572C9.92817 5.02604 9.56102 4.29175 9.55908 3.51154V1.85805C9.55908 1.40146 9.92923 1.03131 10.3858 1.03131C10.8424 1.03131 11.2126 1.40146 11.2126 1.85805V2.28245C11.8385 1.71661 12.7913 1.71661 13.4172 2.28245V1.85805ZM13.4172 3.51154C13.4172 2.90274 12.9237 2.40922 12.3149 2.40922C11.7061 2.40922 11.2126 2.90274 11.2126 3.51154C11.213 3.54299 11.2155 3.57439 11.22 3.60551C11.2489 3.9524 11.4403 4.26511 11.7362 4.44852C11.8335 4.50905 11.9398 4.55378 12.0512 4.58107C12.2237 4.62544 12.4047 4.62544 12.5772 4.58107C13.0326 4.47079 13.3673 4.08308 13.4101 3.61654C13.4147 3.58173 13.4171 3.54666 13.4172 3.51154ZM13.9684 12.8813V16.7394C13.9684 16.8916 13.845 17.015 13.6928 17.015H10.937C10.7848 17.015 10.6614 16.8916 10.6614 16.7394V12.8813C10.6614 12.7291 10.7848 12.6057 10.937 12.6057H13.6928C13.845 12.6057 13.9684 12.7291 13.9684 12.8813ZM11.2126 5.44061V7.09409V11.6412C11.2126 11.8695 11.3976 12.0546 11.6259 12.0546C11.8542 12.0546 12.0393 11.8695 12.0393 11.6412C12.0409 11.6177 12.0455 11.5946 12.0531 11.5723C12.0455 11.55 12.0409 11.5269 12.0393 11.5034V8.472C12.0393 8.3198 12.1627 8.19642 12.3149 8.19642C12.4671 8.19642 12.5905 8.3198 12.5905 8.472V11.5034C12.5889 11.5269 12.5842 11.55 12.5767 11.5723C12.5842 11.5946 12.5889 11.6177 12.5905 11.6412C12.5905 11.8695 12.7755 12.0546 13.0038 12.0546C13.2321 12.0546 13.4172 11.8695 13.4172 11.6412V5.44061C13.4172 5.35387 13.4581 5.27219 13.5274 5.22014L13.7479 5.05479C14.2325 4.68954 14.5181 4.11839 14.5195 3.51154V1.85805C14.5195 1.70585 14.3962 1.58247 14.244 1.58247C14.0918 1.58247 13.9684 1.70585 13.9684 1.85805V3.51154C13.9678 3.56222 13.9643 3.61283 13.9579 3.66311V3.66642V3.67V3.67689C13.8913 4.37302 13.391 4.95053 12.7115 5.1157C12.5818 5.14863 12.4486 5.1652 12.3149 5.16503C12.1837 5.16447 12.0531 5.14753 11.926 5.11459H11.9225H11.9205H11.917C11.2389 4.94051 10.7414 4.36203 10.6708 3.66559C10.6644 3.61449 10.6613 3.56304 10.6614 3.51154V1.85805C10.6614 1.70585 10.538 1.58247 10.3858 1.58247C10.2336 1.58247 10.1102 1.70585 10.1102 1.85805V3.51154C10.1118 4.11837 10.3973 4.68949 10.8819 5.05479L11.1023 5.22014C11.1717 5.27219 11.2126 5.35387 11.2126 5.44061Z" fill="#F58220"/>
<path d="M15.0707 3.51154L15.2207 3.5119V3.51154H15.0707ZM14.0786 5.49572L14.1686 5.61572L14.1689 5.61551L14.0786 5.49572ZM13.9684 5.5784L13.8784 5.4584L13.8184 5.5034V5.5784H13.9684ZM13.9684 11.6412L14.1184 11.6421V11.6412H13.9684ZM13.862 12.0722L13.7288 12.0032L13.638 12.1786L13.8313 12.219L13.862 12.0722ZM14.5195 12.8813L14.6695 12.8813L14.6695 12.8813L14.5195 12.8813ZM10.1102 12.8813L9.96024 12.8812V12.8813H10.1102ZM10.767 12.0725L10.7978 12.2193L10.99 12.1789L10.9005 12.0041L10.767 12.0725ZM10.6614 11.6412H10.5114L10.5114 11.6422L10.6614 11.6412ZM10.6614 5.5784H10.8114V5.5034L10.7514 5.4584L10.6614 5.5784ZM10.5512 5.49572L10.4609 5.6155L10.4612 5.61572L10.5512 5.49572ZM9.55908 3.51154L9.40908 3.51154L9.40908 3.51191L9.55908 3.51154ZM11.2126 2.28245H11.0626V2.62024L11.3132 2.39372L11.2126 2.28245ZM13.4172 2.28245L13.3166 2.39372L13.5672 2.62024V2.28245H13.4172ZM13.4172 3.51154L13.5672 3.51206V3.51154H13.4172ZM11.2126 3.51154L11.0626 3.51154L11.0626 3.51354L11.2126 3.51154ZM11.22 3.60551L11.3698 3.59306L11.3684 3.58389L11.22 3.60551ZM11.7362 4.44852L11.8154 4.32113L11.8152 4.32103L11.7362 4.44852ZM12.0512 4.58107L12.0885 4.43579L12.0869 4.43538L12.0512 4.58107ZM12.5772 4.58107L12.5419 4.43527L12.5399 4.4358L12.5772 4.58107ZM13.4101 3.61654L13.2612 3.59666L13.2607 3.60286L13.4101 3.61654ZM12.0393 11.6412L11.8893 11.6309V11.6412H12.0393ZM12.0531 11.5723L12.1952 11.6204L12.2115 11.5723L12.1952 11.5242L12.0531 11.5723ZM12.0393 11.5034H11.889L11.8897 11.5136L12.0393 11.5034ZM12.5905 11.5034L12.7405 11.5136V11.5034H12.5905ZM12.5767 11.5723L12.4346 11.5242L12.4183 11.5723L12.4346 11.6204L12.5767 11.5723ZM12.5905 11.6412H12.7408L12.7401 11.6309L12.5905 11.6412ZM13.5274 5.22014L13.6174 5.34014L13.6174 5.34014L13.5274 5.22014ZM13.7479 5.05479L13.8379 5.17479L13.8382 5.17458L13.7479 5.05479ZM14.5195 3.51154L14.6695 3.51189V3.51154H14.5195ZM13.9684 3.51154L14.1184 3.51325V3.51154H13.9684ZM13.9579 3.66311L13.8091 3.64418L13.8079 3.65361V3.66311H13.9579ZM13.9579 3.67689L14.1072 3.69118L14.1079 3.68405V3.67689H13.9579ZM12.7115 5.1157L12.676 4.96993L12.6745 4.97032L12.7115 5.1157ZM12.3149 5.16503L12.3143 5.31503L12.3147 5.31503L12.3149 5.16503ZM11.926 5.11459L11.9637 4.9694L11.9452 4.96459H11.926V5.11459ZM11.917 5.11459L11.8796 5.25988L11.898 5.26459H11.917V5.11459ZM10.6708 3.66559L10.82 3.65045L10.8196 3.64713L10.6708 3.66559ZM10.6614 3.51154L10.8114 3.51182V3.51154H10.6614ZM10.1102 3.51154L9.96024 3.51154L9.96024 3.51191L10.1102 3.51154ZM10.8819 5.05479L10.7916 5.17457L10.7919 5.17479L10.8819 5.05479ZM11.1023 5.22014L11.0123 5.34014L11.0123 5.34014L11.1023 5.22014ZM14.244 0.881311C13.7045 0.881311 13.2672 1.31861 13.2672 1.85805H13.5672C13.5672 1.4843 13.8702 1.18131 14.244 1.18131V0.881311ZM15.2207 1.85805C15.2207 1.31861 14.7834 0.881311 14.244 0.881311V1.18131C14.6177 1.18131 14.9207 1.4843 14.9207 1.85805H15.2207ZM15.2207 3.51154V1.85805H14.9207V3.51154H15.2207ZM14.1689 5.61551C14.8295 5.11762 15.2187 4.33909 15.2207 3.5119L14.9207 3.51118C14.919 4.24445 14.5739 4.93458 13.9883 5.37594L14.1689 5.61551ZM14.0584 5.6984L14.1686 5.61572L13.9886 5.37572L13.8784 5.4584L14.0584 5.6984ZM14.1184 11.6412V5.5784H13.8184V11.6412H14.1184ZM13.9952 12.1411C14.0751 11.9868 14.1173 11.8159 14.1184 11.6421L13.8184 11.6402C13.8176 11.7666 13.7869 11.891 13.7288 12.0032L13.9952 12.1411ZM14.6695 12.8813C14.6695 12.4189 14.3452 12.02 13.8927 11.9254L13.8313 12.219C14.1449 12.2846 14.3695 12.561 14.3695 12.8813L14.6695 12.8813ZM14.6695 16.7394V12.8813H14.3695V16.7394H14.6695ZM13.6928 17.7162C14.2322 17.7162 14.6695 17.2789 14.6695 16.7394H14.3695C14.3695 17.1132 14.0666 17.4162 13.6928 17.4162V17.7162ZM10.937 17.7162H13.6928V17.4162H10.937V17.7162ZM9.96024 16.7394C9.96024 17.2789 10.3975 17.7162 10.937 17.7162V17.4162C10.5632 17.4162 10.2602 17.1132 10.2602 16.7394H9.96024ZM9.96024 12.8813V16.7394H10.2602V12.8813H9.96024ZM10.7361 11.9257C10.2841 12.0207 9.96038 12.4193 9.96024 12.8812L10.2602 12.8813C10.2603 12.5613 10.4846 12.2851 10.7978 12.2193L10.7361 11.9257ZM10.5114 11.6422C10.5125 11.8156 10.5543 11.9865 10.6335 12.1409L10.9005 12.0041C10.8427 11.8914 10.8122 11.7668 10.8114 11.6402L10.5114 11.6422ZM10.5114 5.5784V11.6412H10.8114V5.5784H10.5114ZM10.4612 5.61572L10.5714 5.6984L10.7514 5.4584L10.6412 5.37572L10.4612 5.61572ZM9.40908 3.51191C9.41114 4.33907 9.80038 5.11756 10.4609 5.6155L10.6415 5.37595C10.056 4.93453 9.7109 4.24443 9.70908 3.51117L9.40908 3.51191ZM9.40908 1.85805V3.51154H9.70908V1.85805H9.40908ZM10.3858 0.881311C9.84638 0.881311 9.40908 1.31861 9.40908 1.85805H9.70908C9.70908 1.4843 10.0121 1.18131 10.3858 1.18131V0.881311ZM11.3626 1.85805C11.3626 1.31861 10.9253 0.881311 10.3858 0.881311V1.18131C10.7596 1.18131 11.0626 1.4843 11.0626 1.85805H11.3626ZM11.3626 2.28245V1.85805H11.0626V2.28245H11.3626ZM13.5178 2.17117C12.8347 1.55371 11.7951 1.55371 11.112 2.17117L11.3132 2.39372C11.882 1.87952 12.7478 1.87952 13.3166 2.39372L13.5178 2.17117ZM13.2672 1.85805V2.28245H13.5672V1.85805H13.2672ZM12.3149 2.55922C12.8408 2.55922 13.2672 2.98559 13.2672 3.51154H13.5672C13.5672 2.8199 13.0065 2.25922 12.3149 2.25922V2.55922ZM11.3626 3.51154C11.3626 2.98559 11.7889 2.55922 12.3149 2.55922V2.25922C11.6233 2.25922 11.0626 2.8199 11.0626 3.51154H11.3626ZM11.3684 3.58389C11.3649 3.55926 11.3629 3.53442 11.3626 3.50954L11.0626 3.51354C11.0631 3.55156 11.0661 3.58951 11.0716 3.62714L11.3684 3.58389ZM11.8152 4.32103C11.5597 4.16265 11.3944 3.89262 11.3695 3.59308L11.0705 3.61794C11.1033 4.01217 11.3209 4.36757 11.6571 4.576L11.8152 4.32103ZM12.0869 4.43538C11.9909 4.41186 11.8993 4.3733 11.8154 4.32113L11.657 4.5759C11.7678 4.64479 11.8887 4.6957 12.0155 4.72676L12.0869 4.43538ZM12.5399 4.4358C12.3918 4.47386 12.2366 4.47386 12.0885 4.4358L12.0138 4.72634C12.2109 4.77701 12.4175 4.77701 12.6146 4.72634L12.5399 4.4358ZM13.2607 3.60286C13.2238 4.00551 12.9349 4.34011 12.5419 4.43528L12.6126 4.72685C13.1303 4.60147 13.5109 4.16066 13.5594 3.63021L13.2607 3.60286ZM13.2672 3.51102C13.2671 3.53967 13.2652 3.56828 13.2614 3.59667L13.5587 3.6364C13.5642 3.59518 13.5671 3.55365 13.5672 3.51206L13.2672 3.51102ZM14.1184 16.7394V12.8813H13.8184V16.7394H14.1184ZM13.6928 17.165C13.9278 17.165 14.1184 16.9745 14.1184 16.7394H13.8184C13.8184 16.8088 13.7622 16.865 13.6928 16.865V17.165ZM10.937 17.165H13.6928V16.865H10.937V17.165ZM10.5114 16.7394C10.5114 16.9745 10.7019 17.165 10.937 17.165V16.865C10.8676 16.865 10.8114 16.8088 10.8114 16.7394H10.5114ZM10.5114 12.8813V16.7394H10.8114V12.8813H10.5114ZM10.937 12.4557C10.7019 12.4557 10.5114 12.6463 10.5114 12.8813H10.8114C10.8114 12.8119 10.8676 12.7557 10.937 12.7557V12.4557ZM13.6928 12.4557H10.937V12.7557H13.6928V12.4557ZM14.1184 12.8813C14.1184 12.6463 13.9278 12.4557 13.6928 12.4557V12.7557C13.7622 12.7557 13.8184 12.8119 13.8184 12.8813H14.1184ZM11.3626 7.09409V5.44061H11.0626V7.09409H11.3626ZM11.3626 11.6412V7.09409H11.0626V11.6412H11.3626ZM11.6259 11.9046C11.4805 11.9046 11.3626 11.7866 11.3626 11.6412H11.0626C11.0626 11.9523 11.3148 12.2046 11.6259 12.2046V11.9046ZM11.8893 11.6412C11.8893 11.7866 11.7714 11.9046 11.6259 11.9046V12.2046C11.9371 12.2046 12.1893 11.9523 12.1893 11.6412H11.8893ZM11.911 11.5242C11.8993 11.5587 11.8921 11.5946 11.8897 11.6309L12.189 11.6514C12.1897 11.6408 12.1918 11.6304 12.1952 11.6204L11.911 11.5242ZM11.8897 11.5136C11.8921 11.55 11.8993 11.5859 11.911 11.6204L12.1952 11.5242C12.1918 11.5141 12.1897 11.5037 12.189 11.4932L11.8897 11.5136ZM11.8893 8.472V11.5034H12.1893V8.472H11.8893ZM12.3149 8.04642C12.0798 8.04642 11.8893 8.23696 11.8893 8.472H12.1893C12.1893 8.40264 12.2455 8.34642 12.3149 8.34642V8.04642ZM12.7405 8.472C12.7405 8.23696 12.5499 8.04642 12.3149 8.04642V8.34642C12.3842 8.34642 12.4405 8.40264 12.4405 8.472H12.7405ZM12.7405 11.5034V8.472H12.4405V11.5034H12.7405ZM12.7188 11.6204C12.7305 11.5859 12.7376 11.55 12.7401 11.5136L12.4408 11.4932C12.4401 11.5037 12.438 11.5141 12.4346 11.5242L12.7188 11.6204ZM12.7401 11.6309C12.7376 11.5946 12.7305 11.5587 12.7188 11.5242L12.4346 11.6204C12.438 11.6304 12.4401 11.6408 12.4408 11.6514L12.7401 11.6309ZM13.0038 11.9046C12.8584 11.9046 12.7405 11.7866 12.7405 11.6412H12.4405C12.4405 11.9523 12.6927 12.2046 13.0038 12.2046V11.9046ZM13.2672 11.6412C13.2672 11.7866 13.1493 11.9046 13.0038 11.9046V12.2046C13.315 12.2046 13.5672 11.9523 13.5672 11.6412H13.2672ZM13.2672 5.44061V11.6412H13.5672V5.44061H13.2672ZM13.4374 5.10014C13.3303 5.18051 13.2672 5.30665 13.2672 5.44061H13.5672C13.5672 5.40108 13.5858 5.36386 13.6174 5.34014L13.4374 5.10014ZM13.6579 4.93479L13.4374 5.10014L13.6174 5.34014L13.8379 5.17479L13.6579 4.93479ZM14.3695 3.51119C14.3682 4.07107 14.1048 4.59802 13.6576 4.935L13.8382 5.17458C14.3603 4.78107 14.668 4.16571 14.6695 3.51189L14.3695 3.51119ZM14.3695 1.85805V3.51154H14.6695V1.85805H14.3695ZM14.244 1.73247C14.3133 1.73247 14.3695 1.7887 14.3695 1.85805H14.6695C14.6695 1.62301 14.479 1.43247 14.244 1.43247V1.73247ZM14.1184 1.85805C14.1184 1.7887 14.1746 1.73247 14.244 1.73247V1.43247C14.0089 1.43247 13.8184 1.62301 13.8184 1.85805H14.1184ZM14.1184 3.51154V1.85805H13.8184V3.51154H14.1184ZM14.1067 3.68204C14.1138 3.62605 14.1177 3.56969 14.1184 3.51325L13.8184 3.50983C13.8179 3.55475 13.8148 3.59961 13.8091 3.64418L14.1067 3.68204ZM14.1079 3.66642V3.66311H13.8079V3.66642H14.1079ZM14.1079 3.67V3.66642H13.8079V3.67H14.1079ZM14.1079 3.67689V3.67H13.8079V3.67689H14.1079ZM12.7469 5.26145C13.4885 5.0812 14.0345 4.45092 14.1072 3.69118L13.8086 3.6626C13.7481 4.29513 13.2935 4.81987 12.676 4.96994L12.7469 5.26145ZM12.3147 5.31503C12.4609 5.31522 12.6066 5.29709 12.7484 5.26108L12.6745 4.97032C12.557 5.00016 12.4363 5.01518 12.3151 5.01503L12.3147 5.31503ZM11.8884 5.25979C12.0275 5.29586 12.1706 5.31442 12.3143 5.31502L12.3155 5.01503C12.1968 5.01452 12.0786 4.9992 11.9637 4.9694L11.8884 5.25979ZM11.9225 5.26459H11.926V4.96459H11.9225V5.26459ZM11.9205 5.26459H11.9225V4.96459H11.9205V5.26459ZM11.917 5.26459H11.9205V4.96459H11.917V5.26459ZM10.5215 3.68073C10.5985 4.43973 11.1407 5.07016 11.8796 5.25988L11.9543 4.96931C11.3371 4.81086 10.8843 4.28434 10.82 3.65045L10.5215 3.68073ZM10.5114 3.51126C10.5113 3.56902 10.5148 3.62673 10.5219 3.68405L10.8196 3.64713C10.8141 3.60224 10.8113 3.55705 10.8114 3.51182L10.5114 3.51126ZM10.5114 1.85805V3.51154H10.8114V1.85805H10.5114ZM10.3858 1.73247C10.4552 1.73247 10.5114 1.7887 10.5114 1.85805H10.8114C10.8114 1.62301 10.6209 1.43247 10.3858 1.43247V1.73247ZM10.2602 1.85805C10.2602 1.7887 10.3165 1.73247 10.3858 1.73247V1.43247C10.1508 1.43247 9.96024 1.62301 9.96024 1.85805H10.2602ZM10.2602 3.51154V1.85805H9.96024V3.51154H10.2602ZM10.9722 4.93502C10.5251 4.59798 10.2616 4.07105 10.2602 3.51117L9.96024 3.51191C9.96187 4.16569 10.2695 4.781 10.7916 5.17457L10.9722 4.93502ZM11.1923 5.10014L10.9719 4.93479L10.7919 5.17479L11.0123 5.34014L11.1923 5.10014ZM11.3626 5.44061C11.3626 5.30665 11.2995 5.18051 11.1923 5.10014L11.0123 5.34014C11.044 5.36386 11.0626 5.40108 11.0626 5.44061H11.3626Z" fill="#F58220"/>
</svg>
