<svg width="20" height="15" viewBox="0 0 20 15" fill="none" xmlns="http://www.w3.org/2000/svg">
<path fill-rule="evenodd" clip-rule="evenodd" d="M1.73077 0H17.9615C18.9159 0 19.6923 0.776423 19.6923 1.73077V13.2692C19.6923 14.2236 18.9159 15 17.9615 15H1.73077C0.776423 15 0 14.2236 0 13.2692V1.73077C0 0.776423 0.776423 0 1.73077 0ZM17.9615 13.8462C18.2797 13.8462 18.5385 13.5873 18.5385 13.2692V1.73077C18.5385 1.41265 18.2797 1.15385 17.9615 1.15385H1.73077C1.41265 1.15385 1.15385 1.41265 1.15385 1.73077V13.2692C1.15385 13.5873 1.41265 13.8462 1.73077 13.8462H17.9615Z" fill="#AAB2BA"/>
<path fill-rule="evenodd" clip-rule="evenodd" d="M2.30859 10.3854C2.30859 8.47667 3.86144 6.92383 5.77013 6.92383C7.67882 6.92383 9.23167 8.47667 9.23167 10.3854V10.9623C9.23167 11.9166 8.45525 12.6931 7.5009 12.6931H4.03936C3.08502 12.6931 2.30859 11.9166 2.30859 10.9623V10.3854ZM7.5009 11.5392C7.81902 11.5392 8.07782 11.2804 8.07782 10.9623V10.3854C8.07782 9.11291 7.04259 8.07767 5.77013 8.07767C4.49767 8.07767 3.46244 9.11291 3.46244 10.3854V10.9623C3.46244 11.2804 3.72125 11.5392 4.03936 11.5392H7.5009Z" fill="#AAB2BA"/>
<path fill-rule="evenodd" clip-rule="evenodd" d="M3.46094 4.61629C3.46094 3.34382 4.49617 2.30859 5.76863 2.30859C7.04109 2.30859 8.07632 3.34382 8.07632 4.61629C8.07632 5.88875 7.04109 6.92398 5.76863 6.92398C4.49617 6.92398 3.46094 5.88875 3.46094 4.61629ZM4.61478 4.61629C4.61478 5.25252 5.1324 5.77013 5.76863 5.77013C6.40486 5.77013 6.92248 5.25252 6.92248 4.61629C6.92248 3.98006 6.40486 3.46244 5.76863 3.46244C5.1324 3.46244 4.61478 3.98006 4.61478 4.61629Z" fill="#AAB2BA"/>
<path d="M16.8071 10.3848H11.0379C10.7192 10.3848 10.4609 10.6431 10.4609 10.9617C10.4609 11.2803 10.7192 11.5386 11.0379 11.5386H16.8071C17.1257 11.5386 17.384 11.2803 17.384 10.9617C17.384 10.6431 17.1257 10.3848 16.8071 10.3848Z" fill="#AAB2BA"/>
<path d="M16.8071 8.07617H11.0379C10.7192 8.07617 10.4609 8.33448 10.4609 8.65309C10.4609 8.97171 10.7192 9.23002 11.0379 9.23002H16.8071C17.1257 9.23002 17.384 8.97171 17.384 8.65309C17.384 8.33448 17.1257 8.07617 16.8071 8.07617Z" fill="#AAB2BA"/>
<path d="M16.8071 5.76953H11.0379C10.7192 5.76953 10.4609 6.02784 10.4609 6.34645C10.4609 6.66507 10.7192 6.92338 11.0379 6.92338H16.8071C17.1257 6.92338 17.384 6.66507 17.384 6.34645C17.384 6.02784 17.1257 5.76953 16.8071 5.76953Z" fill="#AAB2BA"/>
<path d="M15.6537 3.46094H12.1922C11.8735 3.46094 11.6152 3.71925 11.6152 4.03786C11.6152 4.35648 11.8735 4.61478 12.1922 4.61478H15.6537C15.9723 4.61478 16.2306 4.35648 16.2306 4.03786C16.2306 3.71925 15.9723 3.46094 15.6537 3.46094Z" fill="#AAB2BA"/>
</svg>
