<svg width="20" height="15" viewBox="0 0 20 15" fill="none" xmlns="http://www.w3.org/2000/svg">
<path fill-rule="evenodd" clip-rule="evenodd" d="M1.73077 0H17.9615C18.9159 0 19.6923 0.776423 19.6923 1.73077V13.2692C19.6923 14.2236 18.9159 15 17.9615 15H1.73077C0.776423 15 0 14.2236 0 13.2692V1.73077C0 0.776423 0.776423 0 1.73077 0ZM17.9615 13.8462C18.2797 13.8462 18.5385 13.5873 18.5385 13.2692V1.73077C18.5385 1.41265 18.2797 1.15385 17.9615 1.15385H1.73077C1.41265 1.15385 1.15385 1.41265 1.15385 1.73077V13.2692C1.15385 13.5873 1.41265 13.8462 1.73077 13.8462H17.9615Z" fill="#003974"/>
<path fill-rule="evenodd" clip-rule="evenodd" d="M2.30768 10.3846C2.30768 8.47594 3.86052 6.9231 5.76922 6.9231C7.67791 6.9231 9.23076 8.47594 9.23076 10.3846V10.9616C9.23076 11.9159 8.45433 12.6923 7.49999 12.6923H4.03845C3.0841 12.6923 2.30768 11.9159 2.30768 10.9616V10.3846ZM7.49999 11.5385C7.8181 11.5385 8.07691 11.2797 8.07691 10.9616V10.3846C8.07691 9.11217 7.04168 8.07694 5.76922 8.07694C4.49676 8.07694 3.46152 9.11217 3.46152 10.3846V10.9616C3.46152 11.2797 3.72033 11.5385 4.03845 11.5385H7.49999Z" fill="#003974"/>
<path fill-rule="evenodd" clip-rule="evenodd" d="M3.46155 4.61531C3.46155 3.34285 4.49678 2.30762 5.76924 2.30762C7.0417 2.30762 8.07693 3.34285 8.07693 4.61531C8.07693 5.88777 7.0417 6.923 5.76924 6.923C4.49678 6.923 3.46155 5.88777 3.46155 4.61531ZM4.61539 4.61531C4.61539 5.25154 5.13301 5.76916 5.76924 5.76916C6.40547 5.76916 6.92309 5.25154 6.92309 4.61531C6.92309 3.97908 6.40547 3.46146 5.76924 3.46146C5.13301 3.46146 4.61539 3.97908 4.61539 4.61531Z" fill="#003974"/>
<path d="M16.8077 10.3845H11.0385C10.7199 10.3845 10.4615 10.6428 10.4615 10.9614C10.4615 11.2801 10.7199 11.5384 11.0385 11.5384H16.8077C17.1263 11.5384 17.3846 11.2801 17.3846 10.9614C17.3846 10.6428 17.1263 10.3845 16.8077 10.3845Z" fill="#003974"/>
<path d="M16.8077 8.0769H11.0385C10.7199 8.0769 10.4615 8.33521 10.4615 8.65383C10.4615 8.97244 10.7199 9.23075 11.0385 9.23075H16.8077C17.1263 9.23075 17.3846 8.97244 17.3846 8.65383C17.3846 8.33521 17.1263 8.0769 16.8077 8.0769Z" fill="#003974"/>
<path d="M16.8077 5.76929H11.0385C10.7199 5.76929 10.4615 6.02759 10.4615 6.34621C10.4615 6.66483 10.7199 6.92313 11.0385 6.92313H16.8077C17.1263 6.92313 17.3846 6.66483 17.3846 6.34621C17.3846 6.02759 17.1263 5.76929 16.8077 5.76929Z" fill="#003974"/>
<path d="M15.6538 3.46143H12.1923C11.8737 3.46143 11.6154 3.71973 11.6154 4.03835C11.6154 4.35696 11.8737 4.61527 12.1923 4.61527H15.6538C15.9724 4.61527 16.2307 4.35696 16.2307 4.03835C16.2307 3.71973 15.9724 3.46143 15.6538 3.46143Z" fill="#003974"/>
</svg>
