<?xml version="1.0" encoding="UTF-8"?>
<svg width="17px" height="18px" viewBox="0 0 17 18" version="1.1" xmlns="http://www.w3.org/2000/svg" xmlns:xlink="http://www.w3.org/1999/xlink">
    <!-- Generator: Sketch 53.2 (72643) - https://sketchapp.com -->
    <title>bank_filled</title>
    <desc>Created with Sketch.</desc>
    <g id="Page-1" stroke="none" stroke-width="1" fill="none" fill-rule="evenodd">
        <g id="03-bank-details" transform="translate(-647.000000, -322.000000)" fill="#003974" fill-rule="nonzero">
            <g id="bank_filled" transform="translate(647.000000, 322.000000)">
                <path d="M1.78058038,15.2917542 C1.504438,15.2917542 1.28058038,15.5156118 1.28058038,15.7917542 C1.28058038,16.0678966 1.504438,16.2917542 1.78058038,16.2917542 L14.7805804,16.2917542 C15.0567228,16.2917542 15.2805804,16.0678966 15.2805804,15.7917542 C15.2805804,15.5156118 15.0567228,15.2917542 14.7805804,15.2917542 L1.78058038,15.2917542 Z M1.78058038,14.2917542 L14.7805804,14.2917542 C15.6090075,14.2917542 16.2805804,14.9633271 16.2805804,15.7917542 C16.2805804,16.6201813 15.6090075,17.2917542 14.7805804,17.2917542 L1.78058038,17.2917542 C0.952153251,17.2917542 0.280580376,16.6201813 0.280580376,15.7917542 C0.280580376,14.9633271 0.952153251,14.2917542 1.78058038,14.2917542 Z" id="Rectangle"></path>
                <path d="M14.6834823,5.53164734 L8.28058038,1.08692922 L1.8776785,5.53164734 L14.6834823,5.53164734 Z M7.93843334,0.107115221 C8.14417515,-0.0357050738 8.41698561,-0.0357050738 8.62272741,0.107115221 L16.3033078,5.43876256 C16.5755205,5.62772515 16.6430081,6.00158163 16.4540455,6.27379437 C16.341924,6.43531257 16.1577806,6.53164734 15.9611608,6.53164734 L0.6,6.53164734 C0.26862915,6.53164734 -6.25277607e-13,6.26301819 -6.25277607e-13,5.93164734 C-6.25277607e-13,5.73502752 0.0963347679,5.55088404 0.257852963,5.43876256 L7.93843334,0.107115221 Z" id="Path-27"></path>
                <path d="M2.26271642,7.92630432 C2.26271642,7.65016195 2.48657404,7.42630432 2.76271642,7.42630432 C3.03885879,7.42630432 3.26271642,7.65016195 3.26271642,7.92630432 L3.26271642,12.8951445 C3.26271642,13.1712869 3.03885879,13.3951445 2.76271642,13.3951445 C2.48657404,13.3951445 2.26271642,13.1712869 2.26271642,12.8951445 L2.26271642,7.92630432 Z" id="Path-31"></path>
                <path d="M5.91331716,7.92630432 C5.91331716,7.65016195 6.13717478,7.42630432 6.41331716,7.42630432 C6.68945953,7.42630432 6.91331716,7.65016195 6.91331716,7.92630432 L6.91331716,12.8951445 C6.91331716,13.1712869 6.68945953,13.3951445 6.41331716,13.3951445 C6.13717478,13.3951445 5.91331716,13.1712869 5.91331716,12.8951445 L5.91331716,7.92630432 Z" id="Path-31-Copy"></path>
                <path d="M9.71466295,7.92630432 C9.71466295,7.65016195 9.93852057,7.42630432 10.2146629,7.42630432 C10.4908053,7.42630432 10.7146629,7.65016195 10.7146629,7.92630432 L10.7146629,12.8951445 C10.7146629,13.1712869 10.4908053,13.3951445 10.2146629,13.3951445 C9.93852057,13.3951445 9.71466295,13.1712869 9.71466295,12.8951445 L9.71466295,7.92630432 Z" id="Path-31-Copy-2"></path>
                <path d="M13.2805804,7.79175418 C13.2805804,7.51561181 13.504438,7.29175418 13.7805804,7.29175418 C14.0567228,7.29175418 14.2805804,7.51561181 14.2805804,7.79175418 L14.2805804,12.7605944 C14.2805804,13.0367367 14.0567228,13.2605944 13.7805804,13.2605944 C13.504438,13.2605944 13.2805804,13.0367367 13.2805804,12.7605944 L13.2805804,7.79175418 Z" id="Path-31-Copy-3"></path>
            </g>
        </g>
    </g>
</svg>