<svg width="731" height="246" viewBox="0 0 731 246" fill="none" xmlns="http://www.w3.org/2000/svg">
<g filter="url(#filter0_d)">
<rect x="16" y="14" width="699" height="214" rx="2" fill="white"/>
</g>
<mask id="mask0" mask-type="alpha" maskUnits="userSpaceOnUse" x="16" y="14" width="699" height="214">
<rect x="16" y="14" width="699" height="214" rx="2" fill="white"/>
</mask>
<g mask="url(#mask0)">
<mask id="mask1" mask-type="alpha" maskUnits="userSpaceOnUse" x="14" y="14" width="702" height="214">
<path fill-rule="evenodd" clip-rule="evenodd" d="M14.7412 14H715.741V227.9H14.7412V14Z" fill="white"/>
</mask>
<g mask="url(#mask1)">
<path fill-rule="evenodd" clip-rule="evenodd" d="M4.74121 227.9H719.741V14H4.74121V227.9Z" fill="url(#paint0_linear)"/>
</g>
<mask id="mask2" mask-type="alpha" maskUnits="userSpaceOnUse" x="657" y="14" width="58" height="62">
<path fill-rule="evenodd" clip-rule="evenodd" d="M657.369 14H714.741V75.5688H657.369V14Z" fill="white"/>
</mask>
<g mask="url(#mask2)">
<path opacity="0.0465727" fill-rule="evenodd" clip-rule="evenodd" d="M662.147 14H683.477C677.846 18.6212 674.253 25.6346 674.253 33.4878C674.253 47.404 685.534 58.6854 699.45 58.6854C705.201 58.6854 710.501 56.7574 714.741 53.5146V72.7027C710.002 74.5524 704.845 75.5688 699.45 75.5688C676.209 75.5688 657.369 56.7285 657.369 33.4878C657.369 26.455 659.097 19.8268 662.147 14" fill="white"/>
</g>
<path fill-rule="evenodd" clip-rule="evenodd" d="M714.741 195.35L732.686 196.554L696 195.856C702.836 194.916 709.087 194.827 714.741 195.35ZM714.741 114.892C711.274 113.445 707.469 112.644 703.477 112.644C692.022 112.644 682.105 119.225 677.297 128.812C672.307 126.665 666.244 126.182 660.241 127.868C650.355 130.645 643.671 138.454 643.176 146.77C640.39 145.405 637.259 144.637 633.948 144.637C627.985 144.637 622.604 147.123 618.781 151.113C621.067 152.484 623.358 154.088 625.638 155.939C647.651 151.902 660.525 165.289 659.722 179.821C678.296 170.94 694.796 185.63 696 195.856C696 195.856 722.839 204.42 724.939 195.35C729.086 177.432 714.741 114.892 714.741 114.892Z" fill="url(#paint1_linear)"/>
<mask id="mask3" mask-type="alpha" maskUnits="userSpaceOnUse" x="618" y="112" width="115" height="88">
<path fill-rule="evenodd" clip-rule="evenodd" d="M714.741 195.35L732.686 196.554L696 195.856C702.836 194.916 709.087 194.827 714.741 195.35ZM714.741 114.892C711.274 113.445 707.469 112.644 703.477 112.644C692.022 112.644 682.105 119.225 677.297 128.812C672.307 126.665 666.244 126.182 660.241 127.868C650.355 130.645 643.671 138.454 643.176 146.77C640.39 145.405 637.259 144.637 633.948 144.637C627.985 144.637 622.604 147.123 618.781 151.113C621.067 152.484 623.358 154.088 625.638 155.939C647.651 151.902 660.525 165.289 659.722 179.821C678.296 170.94 694.796 185.63 696 195.856C696 195.856 722.839 204.42 724.939 195.35C729.086 177.432 714.741 114.892 714.741 114.892Z" fill="white"/>
</mask>
<g mask="url(#mask3)">
</g>
<path opacity="0.604306" fill-rule="evenodd" clip-rule="evenodd" d="M716.742 227.9H454.611C458.285 219.313 486.204 216.941 491.085 221.015C491.141 205.543 511.951 203.996 519.518 209.917C517.225 181.121 551.163 173.182 566.756 177.622C567.765 146.788 598.577 130.341 627.638 153.939C649.652 149.902 662.525 163.289 661.722 177.821C680.297 168.94 696.797 183.63 698.001 193.856C704.837 192.916 711.087 192.827 716.742 193.349V227.9Z" fill="url(#paint2_linear)"/>
<mask id="mask4" mask-type="alpha" maskUnits="userSpaceOnUse" x="546" y="173" width="91" height="42">
<path fill-rule="evenodd" clip-rule="evenodd" d="M546.697 189.155L553.686 214.791L636.657 173.442L546.697 189.155Z" fill="white"/>
</mask>
<g mask="url(#mask4)">
<path fill-rule="evenodd" clip-rule="evenodd" d="M546.697 189.155L553.686 214.791L636.657 173.442L546.697 189.155Z" fill="url(#paint3_linear)"/>
</g>
<g filter="url(#filter1_d)">
<path fill-rule="evenodd" clip-rule="evenodd" d="M546.697 189.155L525.054 185.68L636.657 173.442L546.697 189.155Z" fill="#003974"/>
<path fill-rule="evenodd" clip-rule="evenodd" d="M582.385 172.242C582.677 174.523 584.822 185.4 584.711 188.262L582.104 188.9L581.652 187.535C579.564 185.344 577.905 177.776 578.521 170.687L582.385 172.242Z" fill="#BE8E69"/>
<path fill-rule="evenodd" clip-rule="evenodd" d="M578.867 172.568C578.867 174.773 579.143 184.676 578.65 187.567L576.567 190.005L575.806 188.084C575.058 186.561 573.499 179.271 575.075 172.022L578.867 172.568Z" fill="#BE8E69"/>
<path fill-rule="evenodd" clip-rule="evenodd" d="M577.782 154.387H580.339V151.498H577.782V154.387Z" fill="#BE8E69"/>
<path fill-rule="evenodd" clip-rule="evenodd" d="M572.437 161.032C572.259 161.615 571.855 163.699 571.831 165.817L573.698 165.969L573.715 165.772C573.847 164.186 574.287 163.061 574.68 161.208L573.624 160.961L572.437 161.032Z" fill="#AF815C"/>
<path fill-rule="evenodd" clip-rule="evenodd" d="M571.831 165.817C571.98 168.13 572.768 170.426 572.995 171.604C573.144 172.414 572.41 174.418 574.189 175.616C574.575 175.791 575.602 174.911 574.427 171.121C574.147 169.828 573.637 168.341 573.699 165.965L573.316 165.782L571.831 165.817Z" fill="#AF815C"/>
<path fill-rule="evenodd" clip-rule="evenodd" d="M578.65 187.567C577.614 190.624 574.645 197.005 573.517 200.6C573.894 201.038 574.464 203.117 574.692 203.36C574.686 203.37 574.681 203.379 574.675 203.388C574.604 203.479 574.372 203.616 574.078 203.536C573.35 203.293 573.425 202.03 573.05 201.073C572.956 200.833 572.827 200.644 572.693 200.498L572.2 200.203C573.172 196.341 573.823 190.137 575.943 186.919L578.65 187.567Z" fill="#BE8E69"/>
<path fill-rule="evenodd" clip-rule="evenodd" d="M571.585 203.48C571.551 203.471 571.302 203.428 571.264 203.286C571.346 202.963 571.494 201.642 571.728 200.809C571.834 200.428 572.048 200.365 572.153 200.113C572.347 200.182 572.812 200.466 573.05 201.073C573.425 202.03 573.349 203.293 574.078 203.536C574.404 203.625 574.654 203.446 574.692 203.36C574.841 203.579 575.835 203.881 575.678 204.148C575.609 204.254 574.682 204.596 573.478 204.05C572.878 203.739 573.205 202.666 572.112 201.69L571.585 203.48Z" fill="#274364"/>
<path fill-rule="evenodd" clip-rule="evenodd" d="M574.755 161.523C574.378 161.388 572.974 161.201 572.403 161.271C572.83 158.093 574.003 155.229 575.987 154.849L574.755 161.523Z" fill="#71BFC6"/>
<path fill-rule="evenodd" clip-rule="evenodd" d="M583.276 171.214C584.684 176.003 584.817 185.874 584.782 187.625C583.286 187.116 575.478 187.145 573.482 186.55C573.307 182.452 573.171 175.661 574.152 170.738L583.276 171.214Z" fill="#D0E4FF"/>
<path fill-rule="evenodd" clip-rule="evenodd" d="M574.387 160.943C574.574 160.975 574.733 161.008 574.844 161.039L574.755 161.523C574.679 161.496 574.562 161.466 574.419 161.438C573.848 161.323 572.86 161.215 572.403 161.271C572.425 161.111 572.448 160.951 572.474 160.792C572.9 160.75 573.784 160.84 574.387 160.943" fill="#FDF3F3"/>
<path fill-rule="evenodd" clip-rule="evenodd" d="M579.76 153.136C579.686 152.555 579.552 152.034 579.603 151.627C579.702 150.83 580.693 149.815 581.123 149.521C581.204 149.611 581.288 149.727 581.364 149.872C582.056 151.176 581.63 152.896 579.76 153.136" fill="#BE8E69"/>
<path fill-rule="evenodd" clip-rule="evenodd" d="M580.488 153.592C581.003 153.644 581.545 153.68 582.066 153.885C583.626 154.498 584.228 157.609 583.364 159.702C583.023 160.745 582.032 162.356 581.938 163.308C581.826 164.434 583.053 170.196 583.276 171.214C582.622 171.642 580.551 172.145 578.448 172.103C578.15 172.097 577.851 172.08 577.556 172.05C576.238 171.918 574.987 171.533 574.152 170.738C574.888 168.615 575.156 165.214 575.156 163.481C575.156 161.748 573.353 157.247 575.393 154.837C576.166 153.925 578.191 153.386 580.488 153.592" fill="#71BFC6"/>
<path fill-rule="evenodd" clip-rule="evenodd" d="M580.699 150.757C580.745 151.085 580.833 153.452 578.639 153.493C576.444 153.535 576.491 151.859 576.471 150.974C576.451 150.089 576.244 148.075 578.044 147.84C581.645 147.37 581.742 150.117 580.699 150.757" fill="#242424"/>
<path fill-rule="evenodd" clip-rule="evenodd" d="M578.593 154.995C578.295 155.667 576.187 157.189 575.678 158.187C575.17 159.184 575.505 159.88 574.786 160.287C574.226 160.605 573.294 160.272 572.587 160.21C572.418 160.195 572.262 160.196 572.126 160.224C571.419 160.372 571.205 161.125 569.964 161.238C568.177 161.4 566.953 160.754 566.46 159.673C565.714 158.037 566.452 155.588 567.953 154.885C568.893 154.381 569.649 154.495 570.445 153.745C571.521 152.732 570.985 151.204 571.85 150.417C572.715 149.629 574.719 150.136 575.774 149.385C576.828 148.634 576.959 147.979 578.397 147.926C580.146 148.02 578.247 150.223 578.131 150.521C577.857 151.228 578.488 152.112 578.686 152.946C578.726 153.113 578.762 153.286 578.786 153.463C578.853 153.953 578.835 154.474 578.593 154.995" fill="#242424"/>
<path fill-rule="evenodd" clip-rule="evenodd" d="M584.714 187.946C585.023 191.648 583.418 198.53 582.441 201.915C582.921 202.235 584.028 204.085 584.313 204.258C584.31 204.269 584.307 204.279 584.304 204.29C584.26 204.396 584.073 204.59 583.769 204.592C583.002 204.553 582.736 203.317 582.117 202.496C581.963 202.29 581.787 202.142 581.619 202.038L581.065 201.885C580.964 197.905 580.649 191.478 581.827 187.809L584.714 187.946Z" fill="#BE8E69"/>
<path fill-rule="evenodd" clip-rule="evenodd" d="M481.354 185.208C481.318 185.208 481.067 185.234 480.992 185.106C480.984 184.774 480.773 183.461 480.773 182.596C480.774 182.2 480.963 182.083 480.996 181.811C481.202 181.826 481.726 181.975 482.118 182.496C482.736 183.317 483.003 184.553 483.77 184.592C484.107 184.59 484.301 184.351 484.314 184.258C484.516 184.428 485.555 184.452 485.475 184.752C485.438 184.873 484.636 185.451 483.33 185.248C482.668 185.11 482.695 183.988 481.38 183.341L481.354 185.208Z" fill="#274364"/>
<path fill-rule="evenodd" clip-rule="evenodd" d="M487.967 129.735C487.557 129.016 487.674 128.862 487.806 128.805C487.965 128.737 488.189 129.404 488.428 129.233C488.507 129.176 488.564 129.111 488.605 129.04C488.512 129.263 488.323 129.547 487.967 129.735V129.735ZM488.682 128.746L488.682 128.731L488.683 128.731L488.682 128.746Z" fill="#BE8E69"/>
<path fill-rule="evenodd" clip-rule="evenodd" d="M582.061 149.317L582.315 150.387L594.877 148.003C595.796 146.657 594.893 143.549 593.17 142.677L582.061 149.317Z" fill="#F58220"/>
<path fill-rule="evenodd" clip-rule="evenodd" d="M656 80.6398L656.254 81.7097L668.816 79.3262C669.735 77.9805 668.832 74.8717 667.109 74L656 80.6398Z" fill="#F58220"/>
<path fill-rule="evenodd" clip-rule="evenodd" d="M589.197 150.416C589.208 151.248 588.833 154.409 588.573 155.653C588.376 156.594 588.18 157.872 587.666 158.389C586.736 158.775 586.065 156.666 586.171 155.909C586.445 153.519 588.11 151.64 588.219 150.348C588.42 150.234 588.507 150.16 588.633 150.168C588.793 150.179 589.041 150.247 589.197 150.416" fill="#BE8E69"/>
<path fill-rule="evenodd" clip-rule="evenodd" d="M589.191 150.303C589.194 150.333 589.196 150.371 589.197 150.416C588.841 150.392 588.482 150.368 588.219 150.348C588.221 150.321 588.223 150.294 588.224 150.267C588.103 150.062 588.007 149.886 587.932 149.735C588.244 149.547 588.41 149.263 588.491 149.04C588.536 148.95 588.557 148.85 588.559 148.746L588.56 148.731L588.56 148.731C588.566 148.136 588.017 147.389 588.167 147.328C589.59 146.839 590.397 149.103 589.191 150.303" fill="#BE8E69"/>
<path fill-rule="evenodd" clip-rule="evenodd" d="M587.397 158.517C586.481 158.8 584.576 157.768 583.755 157.385C583.984 156.638 584.382 155.733 584.681 155.301C585.668 155.659 586.875 156.342 587.68 157.045C588.158 157.463 588.314 158.234 587.397 158.517" fill="#BE8E69"/>
<path fill-rule="evenodd" clip-rule="evenodd" d="M582.111 154.009C583.013 154.291 584.045 154.764 585.246 155.498C584.839 156.071 584.235 157.564 584.134 158.323C583.838 158.213 583.24 158.04 582.559 157.818C581.317 157.559 578.454 156.246 579.248 154.611C579.702 153.676 580.954 153.648 582.111 154.009" fill="#71BFC6"/>
<path fill-rule="evenodd" clip-rule="evenodd" d="M553.687 214.791L558.103 194.935L636.658 173.442L553.687 214.791Z" fill="url(#paint4_linear)"/>
<path fill-rule="evenodd" clip-rule="evenodd" d="M558.103 194.935L587.545 213.299L636.657 173.442L558.103 194.935Z" fill="#003974"/>
</g>
<g filter="url(#filter2_d)">
<mask id="mask5" mask-type="alpha" maskUnits="userSpaceOnUse" x="626" y="98" width="59" height="33">
<path fill-rule="evenodd" clip-rule="evenodd" d="M626.503 113.659L632.599 130.063L684.584 98.0457L626.503 113.659Z" fill="white"/>
</mask>
<g mask="url(#mask5)">
<path fill-rule="evenodd" clip-rule="evenodd" d="M626.503 113.659L632.599 130.063L684.584 98.0457L626.503 113.659Z" fill="url(#paint5_linear)"/>
</g>
</g>
<g filter="url(#filter3_d)">
<path fill-rule="evenodd" clip-rule="evenodd" d="M626.503 113.659L612.101 112.657L684.584 98.0457L626.503 113.659Z" fill="#003974"/>
</g>
<g opacity="0.398042" filter="url(#filter4_d)">
<path fill-rule="evenodd" clip-rule="evenodd" d="M704.816 56.5665C704.403 53.7923 702.156 52.6228 699.244 53.7234C698.671 53.861 697.937 51.1785 695.438 50.4448C692.939 49.7112 691.025 51.3388 690.188 51.2472C688.641 51.0777 686.182 46.3643 679.922 46.0652C677.519 45.9504 674.367 46.498 672.083 48.5712C670.921 49.6261 670.455 52.1119 669.484 53.0354C668.681 53.7991 665.724 53.517 665.036 56.1995C664.949 56.5389 664.92 56.864 664.937 57.1771H704.815C704.842 56.9777 704.847 56.7748 704.816 56.5665" fill="#1671FC" fill-opacity="0.324219"/>
</g>
<g opacity="0.398042" filter="url(#filter5_d)">
<path fill-rule="evenodd" clip-rule="evenodd" d="M586.969 53.8526C585.11 53.8416 574.945 57.8311 567.916 57.3448C560.888 56.8585 559.562 54.4384 558.81 54.3389C557.783 54.2978 555.871 56.0294 549.884 55.519C546.66 55.2441 543.919 53.7388 544.002 52.0844C544.356 47.5314 552.843 49.4765 555.186 49.2996C555.517 47.1115 556.887 45.1886 564.734 45.5423C563.894 44.6582 564.292 39.1768 573.265 39C583.432 39.5747 587.207 46.7373 588.383 47.6639C589.041 48.182 593.399 47.0814 596.717 47.7888C602.589 49.041 601.158 54.2815 594.509 54.7936C591.38 55.0346 589.409 53.8671 586.969 53.8526Z" fill="#1671FC" fill-opacity="0.324219"/>
</g>
<path fill-rule="evenodd" clip-rule="evenodd" d="M661.763 82.1615C661.792 82.0361 661.657 80.633 662.312 79.5059C662.387 79.3766 663.07 78.5017 663.168 78.6309C663.248 78.7349 662.593 79.477 662.62 79.8354C662.638 80.0672 662.846 80.4284 662.846 80.8117C662.846 81.021 662.718 81.2615 662.616 81.4346C662.319 81.8628 662.353 82.6609 662.353 82.6609L661.763 82.1615Z" fill="#F6B190"/>
<path fill-rule="evenodd" clip-rule="evenodd" d="M654.509 82.3528C654.433 82.1492 654.151 82.0856 654.116 82.4245C654.082 82.7634 654.37 82.9586 654.348 83.0433C654.326 83.1278 654.133 83.369 653.483 83.4068C653.22 83.4222 653.001 83.4093 652.829 83.3723C652.577 83.318 652.428 83.2118 652.393 83.0662C652.333 82.8215 652.528 82.8019 652.532 82.6839C652.536 82.5659 652.167 82.3005 652.18 82.0226C652.186 81.8982 652.33 81.8229 652.366 81.7115C652.401 81.6 652.235 81.1124 652.244 80.6999C652.252 80.2955 652.482 80.0915 652.672 80.0165C652.991 79.8907 653.365 80.0936 653.631 80.0833C653.999 80.0692 653.978 79.754 654.402 79.7258C654.826 79.6976 655.211 80.035 655.331 80.0788C655.451 80.1225 655.579 79.9829 655.654 80.0148C655.728 80.0466 655.966 80.5654 655.484 80.9847C655.425 81.0307 655.31 81.0544 655.189 81.0712C654.989 81.0988 654.768 81.1077 654.733 81.1659C654.677 81.2598 654.607 82.7239 655.074 83.0789C655.146 83.0638 655.338 82.4948 655.538 82.6269C655.746 82.7133 655.369 83.839 654.893 83.7542C654.782 83.7345 654.705 83.6618 654.651 83.5588C654.475 83.221 654.585 82.5564 654.509 82.3528" fill="black"/>
<path fill-rule="evenodd" clip-rule="evenodd" d="M655.074 83.079C654.606 82.7239 654.677 81.2599 654.733 81.166C654.768 81.1078 654.989 81.0988 655.188 81.0713C655.351 81.3455 655.47 81.6967 655.525 82.1036C655.55 82.2902 655.555 82.466 655.537 82.627C655.337 82.4948 655.146 83.064 655.074 83.079" fill="#E4AB8D"/>
<path fill-rule="evenodd" clip-rule="evenodd" d="M654.509 82.3526C654.585 82.5562 654.475 83.2208 654.651 83.5587L654.683 84.1061C654.252 84.0041 653.879 83.9883 653.546 84.01C653.317 84.0248 653.092 84.048 652.87 84.0821L652.829 83.3722C653.001 83.4092 653.22 83.422 653.483 83.4067C654.133 83.3689 654.326 83.1277 654.348 83.0431C654.37 82.9585 654.082 82.7633 654.116 82.4244C654.151 82.0855 654.433 82.149 654.509 82.3526" fill="#E4AB8D"/>
<path fill-rule="evenodd" clip-rule="evenodd" d="M649.2 116.305C649.094 116.417 648.404 116.205 648.361 115.966C648.365 115.949 648.371 115.927 648.379 115.903C648.322 115.917 648.164 115.937 648.117 116.038C648.07 116.139 647.784 116.564 647.936 116.74C648.043 116.864 648.781 117.181 649.289 117.075C649.771 116.974 649.965 116.214 649.791 116.126C649.582 116.02 649.329 115.928 649.161 116.035C649.145 116.07 649.215 116.271 649.2 116.305" fill="#23207A"/>
<path fill-rule="evenodd" clip-rule="evenodd" d="M660.364 116.438C660.598 116.649 662.94 116.367 662.986 116.318C662.925 115.97 661.64 115.438 661.277 115.388C661.272 115.537 661.27 115.629 661.27 115.629C661.108 115.751 660.67 115.847 660.434 115.652C660.421 115.588 660.407 115.5 660.391 115.396C660.246 115.456 660.046 116.151 660.364 116.438" fill="#23207A"/>
<path fill-rule="evenodd" clip-rule="evenodd" d="M660.434 115.651C660.67 115.847 661.108 115.751 661.27 115.629C661.27 115.629 661.272 115.537 661.277 115.388C661.294 114.936 661.305 114.54 661.258 114.01C660.955 113.634 660.585 113.654 660.191 113.709C660.236 114.136 660.323 114.931 660.391 115.396C660.407 115.5 660.421 115.588 660.434 115.651" fill="#E5A485"/>
<path fill-rule="evenodd" clip-rule="evenodd" d="M649.835 114.945C649.673 114.778 649.216 114.627 648.799 114.5C648.626 114.945 648.454 115.612 648.334 116.07C648.377 116.309 649.102 116.45 649.2 116.305C649.404 115.848 649.617 115.395 649.835 114.945" fill="#E5A485"/>
<path fill-rule="evenodd" clip-rule="evenodd" d="M655.982 94.7849C656.078 96.6813 655.144 102.512 654.071 105.701C652.997 108.891 650.477 114.246 650.007 115.178L648.153 114.668C651.843 106.977 650.671 97.8453 651.334 95.1107L655.982 94.7849Z" fill="#7793B0"/>
<path fill-rule="evenodd" clip-rule="evenodd" d="M657.597 94.5691C658.12 95.8706 659.91 101.444 660.622 105.644C660.739 106.639 661.387 114.764 661.387 114.764L659.357 114.85C658.401 105.352 653.897 99.9896 653.815 95.0746L657.597 94.5691Z" fill="#7793B0"/>
<path fill-rule="evenodd" clip-rule="evenodd" d="M645.029 97.1899C644.966 97.3025 643.92 98.2469 643.643 99.5206C643.611 99.6668 643.525 100.773 643.684 100.744C643.813 100.721 643.831 99.7317 644.093 99.4854C644.262 99.3262 644.659 99.2001 644.918 98.9173C645.06 98.7629 645.127 98.4989 645.169 98.3024C645.239 97.7861 645.802 97.2197 645.802 97.2197L645.029 97.1899Z" fill="#F6B190"/>
<g filter="url(#filter6_d)">
<path fill-rule="evenodd" clip-rule="evenodd" d="M650.968 87.6349C651.197 89.7555 651.142 91.5357 651.124 95.753C653.026 96.0307 655.946 95.8122 657.91 95.423C657.934 94.3564 657.29 89.2238 656.777 86.8919C657.527 87.2299 659.883 89.161 660.548 88.7227C661.214 88.2846 662.613 83.812 662.981 81.6754L661.64 81.438C661.03 83.3968 659.791 84.8996 659.356 85.7091C658.16 84.9614 656.765 84.4125 656.411 84.249C655.492 83.8237 654.206 83.8735 653.243 83.9671C651.645 84.1225 650.963 84.538 650.004 85.7954C647.71 88.8003 646.306 94.4488 644.896 97.2217L645.99 97.917C647.956 95.1014 650.291 90.9662 650.968 87.6349" fill="#CED4DA"/>
</g>
<path fill-rule="evenodd" clip-rule="evenodd" d="M659.356 85.7091C659.865 86.0268 660.325 86.3584 660.632 86.6712C660.242 86.1151 660.319 85.4941 660.515 84.9172C660.703 84.3624 661.591 82.2306 661.739 81.4555L661.64 81.438C661.03 83.3967 659.791 84.8996 659.356 85.7091" fill="#B0BBC6"/>
<path fill-rule="evenodd" clip-rule="evenodd" d="M660.631 86.6712C660.722 86.753 661.022 87.1396 661.267 87.4986C661.94 85.909 662.717 83.2005 662.98 81.6754L661.738 81.4556C661.59 82.2306 660.703 84.3625 660.514 84.9173C660.318 85.4942 660.241 86.1151 660.631 86.6712" fill="#B0BBC6"/>
<path fill-rule="evenodd" clip-rule="evenodd" d="M632.6 130.063L634.325 116.778L684.584 98.0457L632.6 130.063Z" fill="url(#paint6_linear)"/>
<path fill-rule="evenodd" clip-rule="evenodd" d="M634.325 116.778L654.721 127.087L684.585 98.0457L634.325 116.778Z" fill="#003974"/>
</g>
<defs>
<filter id="filter0_d" x="0" y="0" width="731" height="246" filterUnits="userSpaceOnUse" color-interpolation-filters="sRGB">
<feFlood flood-opacity="0" result="BackgroundImageFix"/>
<feColorMatrix in="SourceAlpha" type="matrix" values="0 0 0 0 0 0 0 0 0 0 0 0 0 0 0 0 0 0 127 0"/>
<feOffset dy="2"/>
<feGaussianBlur stdDeviation="8"/>
<feColorMatrix type="matrix" values="0 0 0 0 0 0 0 0 0 0 0 0 0 0 0 0 0 0 0.2 0"/>
<feBlend mode="normal" in2="BackgroundImageFix" result="effect1_dropShadow"/>
<feBlend mode="normal" in="SourceGraphic" in2="effect1_dropShadow" result="shape"/>
</filter>
<filter id="filter1_d" x="476.773" y="72" width="196.408" height="148.791" filterUnits="userSpaceOnUse" color-interpolation-filters="sRGB">
<feFlood flood-opacity="0" result="BackgroundImageFix"/>
<feColorMatrix in="SourceAlpha" type="matrix" values="0 0 0 0 0 0 0 0 0 0 0 0 0 0 0 0 0 0 127 0"/>
<feOffset dy="2"/>
<feGaussianBlur stdDeviation="2"/>
<feColorMatrix type="matrix" values="0 0 0 0 0 0 0 0 0 0 0 0 0 0 0 0 0 0 0.221127 0"/>
<feBlend mode="normal" in2="BackgroundImageFix" result="effect1_dropShadow"/>
<feBlend mode="normal" in="SourceGraphic" in2="effect1_dropShadow" result="shape"/>
</filter>
<filter id="filter2_d" x="622.503" y="96.0457" width="66.0812" height="40.0172" filterUnits="userSpaceOnUse" color-interpolation-filters="sRGB">
<feFlood flood-opacity="0" result="BackgroundImageFix"/>
<feColorMatrix in="SourceAlpha" type="matrix" values="0 0 0 0 0 0 0 0 0 0 0 0 0 0 0 0 0 0 127 0"/>
<feOffset dy="2"/>
<feGaussianBlur stdDeviation="2"/>
<feColorMatrix type="matrix" values="0 0 0 0 0 0 0 0 0 0 0 0 0 0 0 0 0 0 0.172476 0"/>
<feBlend mode="normal" in2="BackgroundImageFix" result="effect1_dropShadow"/>
<feBlend mode="normal" in="SourceGraphic" in2="effect1_dropShadow" result="shape"/>
</filter>
<filter id="filter3_d" x="608.101" y="96.0457" width="80.4833" height="23.6138" filterUnits="userSpaceOnUse" color-interpolation-filters="sRGB">
<feFlood flood-opacity="0" result="BackgroundImageFix"/>
<feColorMatrix in="SourceAlpha" type="matrix" values="0 0 0 0 0 0 0 0 0 0 0 0 0 0 0 0 0 0 127 0"/>
<feOffset dy="2"/>
<feGaussianBlur stdDeviation="2"/>
<feColorMatrix type="matrix" values="0 0 0 0 0 0 0 0 0 0 0 0 0 0 0 0 0 0 0.172476 0"/>
<feBlend mode="normal" in2="BackgroundImageFix" result="effect1_dropShadow"/>
<feBlend mode="normal" in="SourceGraphic" in2="effect1_dropShadow" result="shape"/>
</filter>
<filter id="filter4_d" x="660.933" y="44.0508" width="47.9046" height="19.1263" filterUnits="userSpaceOnUse" color-interpolation-filters="sRGB">
<feFlood flood-opacity="0" result="BackgroundImageFix"/>
<feColorMatrix in="SourceAlpha" type="matrix" values="0 0 0 0 0 0 0 0 0 0 0 0 0 0 0 0 0 0 127 0"/>
<feOffset dy="2"/>
<feGaussianBlur stdDeviation="2"/>
<feColorMatrix type="matrix" values="0 0 0 0 0 0 0 0 0 0 0 0 0 0 0 0 0 0 0.150377 0"/>
<feBlend mode="normal" in2="BackgroundImageFix" result="effect1_dropShadow"/>
<feBlend mode="normal" in="SourceGraphic" in2="effect1_dropShadow" result="shape"/>
</filter>
<filter id="filter5_d" x="540" y="37" width="64.4068" height="26.3859" filterUnits="userSpaceOnUse" color-interpolation-filters="sRGB">
<feFlood flood-opacity="0" result="BackgroundImageFix"/>
<feColorMatrix in="SourceAlpha" type="matrix" values="0 0 0 0 0 0 0 0 0 0 0 0 0 0 0 0 0 0 127 0"/>
<feOffset dy="2"/>
<feGaussianBlur stdDeviation="2"/>
<feColorMatrix type="matrix" values="0 0 0 0 0 0 0 0 0 0 0 0 0 0 0 0 0 0 0.150377 0"/>
<feBlend mode="normal" in2="BackgroundImageFix" result="effect1_dropShadow"/>
<feBlend mode="normal" in="SourceGraphic" in2="effect1_dropShadow" result="shape"/>
</filter>
<filter id="filter6_d" x="640.896" y="79.438" width="26.085" height="24.479" filterUnits="userSpaceOnUse" color-interpolation-filters="sRGB">
<feFlood flood-opacity="0" result="BackgroundImageFix"/>
<feColorMatrix in="SourceAlpha" type="matrix" values="0 0 0 0 0 0 0 0 0 0 0 0 0 0 0 0 0 0 127 0"/>
<feOffset dy="2"/>
<feGaussianBlur stdDeviation="2"/>
<feColorMatrix type="matrix" values="0 0 0 0 0 0 0 0 0 0 0 0 0 0 0 0 0 0 0.17529 0"/>
<feBlend mode="normal" in2="BackgroundImageFix" result="effect1_dropShadow"/>
<feBlend mode="normal" in="SourceGraphic" in2="effect1_dropShadow" result="shape"/>
</filter>
<linearGradient id="paint0_linear" x1="756.538" y1="9.83354" x2="20.8435" y2="9.80077" gradientUnits="userSpaceOnUse">
<stop stop-color="white" stop-opacity="0.01"/>
<stop offset="0.489802" stop-color="#ECEFF4" stop-opacity="0.545837"/>
<stop offset="1" stop-color="white"/>
</linearGradient>
<linearGradient id="paint1_linear" x1="710.17" y1="121.23" x2="618.781" y2="121.23" gradientUnits="userSpaceOnUse">
<stop stop-color="#F8FAFD" stop-opacity="0.01"/>
<stop offset="1" stop-color="#EEF3FA"/>
</linearGradient>
<linearGradient id="paint2_linear" x1="739.731" y1="208.851" x2="705.177" y2="142.118" gradientUnits="userSpaceOnUse">
<stop stop-color="#F5F7FA" stop-opacity="0.178431"/>
<stop offset="1" stop-color="#D9E6F9"/>
</linearGradient>
<linearGradient id="paint3_linear" x1="609.345" y1="198.121" x2="608.826" y2="182.474" gradientUnits="userSpaceOnUse">
<stop stop-color="#003974"/>
<stop offset="1" stop-color="#1C62AC"/>
</linearGradient>
<linearGradient id="paint4_linear" x1="573.28" y1="238.369" x2="593.938" y2="183.235" gradientUnits="userSpaceOnUse">
<stop stop-color="#003974"/>
<stop offset="1" stop-color="#1C62AC"/>
</linearGradient>
<linearGradient id="paint5_linear" x1="666.95" y1="117.155" x2="666.469" y2="105.045" gradientUnits="userSpaceOnUse">
<stop stop-color="#003974"/>
<stop offset="1" stop-color="#1C62AC"/>
</linearGradient>
<linearGradient id="paint6_linear" x1="644.876" y1="148.32" x2="663.439" y2="108.231" gradientUnits="userSpaceOnUse">
<stop stop-color="#003974"/>
<stop offset="1" stop-color="#1C62AC"/>
</linearGradient>
</defs>
</svg>
