<svg width="717" height="216" viewBox="0 0 717 216" fill="none" xmlns="http://www.w3.org/2000/svg">
<mask id="mask0" mask-type="alpha" maskUnits="userSpaceOnUse" x="0" y="0" width="702" height="214">
<path fill-rule="evenodd" clip-rule="evenodd" d="M0.741211 0H701.741V213.9H0.741211V0Z" fill="white"/>
</mask>
<g mask="url(#mask0)">
<path fill-rule="evenodd" clip-rule="evenodd" d="M-9.25879 213.9H705.741V0H-9.25879V213.9Z" fill="url(#paint0_linear)"/>
</g>
<mask id="mask1" mask-type="alpha" maskUnits="userSpaceOnUse" x="643" y="0" width="58" height="62">
<path fill-rule="evenodd" clip-rule="evenodd" d="M643.369 0H700.741V61.5688H643.369V0Z" fill="white"/>
</mask>
<g mask="url(#mask1)">
<path opacity="0.0465727" fill-rule="evenodd" clip-rule="evenodd" d="M648.147 0H669.476C663.845 4.62116 660.252 11.6346 660.252 19.4878C660.252 33.404 671.534 44.6854 685.45 44.6854C691.201 44.6854 696.5 42.7574 700.741 39.5146V58.7027C696.001 60.5524 690.844 61.5688 685.45 61.5688C662.209 61.5688 643.369 42.7285 643.369 19.4878C643.369 12.455 645.096 5.8268 648.147 0" fill="white"/>
</g>
<path fill-rule="evenodd" clip-rule="evenodd" d="M700.741 181.349L718.686 182.554L682 181.856C688.836 180.916 695.087 180.827 700.741 181.349ZM700.741 100.892C697.274 99.4445 693.469 98.644 689.477 98.644C678.022 98.644 668.105 105.225 663.297 114.812C658.307 112.665 652.244 112.182 646.241 113.868C636.355 116.645 629.671 124.454 629.176 132.77C626.39 131.405 623.259 130.637 619.948 130.637C613.985 130.637 608.604 133.122 604.781 137.113C607.067 138.484 609.358 140.088 611.638 141.939C633.651 137.902 646.525 151.289 645.722 165.821C664.296 156.94 680.796 171.629 682 181.856C682 181.856 708.839 190.42 710.939 181.349C715.086 163.432 700.741 100.892 700.741 100.892Z" fill="url(#paint1_linear)"/>
<mask id="mask2" mask-type="alpha" maskUnits="userSpaceOnUse" x="604" y="98" width="115" height="88">
<path fill-rule="evenodd" clip-rule="evenodd" d="M700.741 181.349L718.686 182.554L682 181.856C688.836 180.916 695.087 180.827 700.741 181.349ZM700.741 100.892C697.274 99.4445 693.469 98.644 689.477 98.644C678.022 98.644 668.105 105.225 663.297 114.812C658.307 112.665 652.244 112.182 646.241 113.868C636.355 116.645 629.671 124.454 629.176 132.77C626.39 131.405 623.259 130.637 619.948 130.637C613.985 130.637 608.604 133.122 604.781 137.113C607.067 138.484 609.358 140.088 611.638 141.939C633.651 137.902 646.525 151.289 645.722 165.821C664.296 156.94 680.796 171.629 682 181.856C682 181.856 708.839 190.42 710.939 181.349C715.086 163.432 700.741 100.892 700.741 100.892Z" fill="white"/>
</mask>
<g mask="url(#mask2)">
</g>
<path opacity="0.604306" fill-rule="evenodd" clip-rule="evenodd" d="M702.741 213.9H440.611C444.284 205.313 472.203 202.941 477.085 207.015C477.14 191.543 497.95 189.996 505.517 195.917C503.224 167.121 537.162 159.182 552.756 163.622C553.765 132.788 584.576 116.341 613.638 139.939C635.651 135.902 648.525 149.289 647.722 163.821C666.296 154.94 682.796 169.63 684 179.856C690.836 178.916 697.087 178.827 702.741 179.349V213.9Z" fill="url(#paint2_linear)"/>
<mask id="mask3" mask-type="alpha" maskUnits="userSpaceOnUse" x="532" y="159" width="91" height="42">
<path fill-rule="evenodd" clip-rule="evenodd" d="M532.698 175.155L539.686 200.791L622.657 159.442L532.698 175.155Z" fill="white"/>
</mask>
<g mask="url(#mask3)">
<path fill-rule="evenodd" clip-rule="evenodd" d="M532.698 175.155L539.686 200.791L622.657 159.442L532.698 175.155Z" fill="url(#paint3_linear)"/>
</g>
<g filter="url(#filter0_d)">
<path fill-rule="evenodd" clip-rule="evenodd" d="M532.698 175.155L511.054 171.68L622.658 159.442L532.698 175.155Z" fill="#003974"/>
<path fill-rule="evenodd" clip-rule="evenodd" d="M568.385 158.242C568.677 160.523 570.822 171.4 570.711 174.262L568.104 174.9L567.652 173.535C565.564 171.344 563.905 163.776 564.521 156.687L568.385 158.242Z" fill="#BE8E69"/>
<path fill-rule="evenodd" clip-rule="evenodd" d="M564.868 158.568C564.868 160.773 565.144 170.676 564.65 173.567L562.568 176.005L561.807 174.084C561.058 172.561 559.5 165.271 561.075 158.022L564.868 158.568Z" fill="#BE8E69"/>
<path fill-rule="evenodd" clip-rule="evenodd" d="M563.783 140.387H566.339V137.498H563.783V140.387Z" fill="#BE8E69"/>
<path fill-rule="evenodd" clip-rule="evenodd" d="M558.437 147.032C558.259 147.615 557.855 149.699 557.831 151.817L559.698 151.969L559.715 151.772C559.847 150.186 560.287 149.06 560.68 147.207L559.624 146.961L558.437 147.032Z" fill="#AF815C"/>
<path fill-rule="evenodd" clip-rule="evenodd" d="M557.831 151.817C557.98 154.13 558.768 156.426 558.995 157.604C559.144 158.414 558.41 160.418 560.189 161.616C560.575 161.791 561.602 160.911 560.427 157.121C560.147 155.828 559.637 154.341 559.699 151.965L559.316 151.782L557.831 151.817Z" fill="#AF815C"/>
<path fill-rule="evenodd" clip-rule="evenodd" d="M564.65 173.567C563.614 176.623 560.645 183.005 559.517 186.6C559.894 187.038 560.464 189.117 560.692 189.36C560.686 189.37 560.681 189.379 560.675 189.388C560.604 189.479 560.372 189.616 560.078 189.536C559.35 189.293 559.425 188.03 559.05 187.073C558.956 186.833 558.827 186.644 558.693 186.498L558.2 186.203C559.172 182.341 559.823 176.137 561.943 172.919L564.65 173.567Z" fill="#BE8E69"/>
<path fill-rule="evenodd" clip-rule="evenodd" d="M557.586 189.48C557.551 189.471 557.303 189.428 557.264 189.286C557.346 188.963 557.495 187.642 557.728 186.809C557.835 186.428 558.048 186.365 558.153 186.112C558.348 186.182 558.812 186.466 559.05 187.073C559.425 188.03 559.35 189.293 560.078 189.536C560.404 189.625 560.654 189.446 560.692 189.36C560.841 189.579 561.836 189.881 561.678 190.148C561.61 190.254 560.682 190.596 559.479 190.05C558.878 189.739 559.205 188.666 558.112 187.69L557.586 189.48Z" fill="#274364"/>
<path fill-rule="evenodd" clip-rule="evenodd" d="M560.755 147.523C560.378 147.388 558.974 147.201 558.403 147.271C558.83 144.093 560.003 141.229 561.987 140.849L560.755 147.523Z" fill="#71BFC6"/>
<path fill-rule="evenodd" clip-rule="evenodd" d="M569.276 157.214C570.684 162.002 570.818 171.874 570.783 173.625C569.287 173.116 561.479 173.145 559.483 172.549C559.307 168.452 559.172 161.661 560.152 156.738L569.276 157.214Z" fill="#D0E4FF"/>
<path fill-rule="evenodd" clip-rule="evenodd" d="M560.387 146.943C560.574 146.974 560.733 147.008 560.844 147.039L560.755 147.523C560.679 147.496 560.562 147.466 560.419 147.438C559.848 147.323 558.86 147.215 558.403 147.271C558.425 147.111 558.448 146.951 558.474 146.792C558.9 146.75 559.784 146.84 560.387 146.943" fill="#FDF3F3"/>
<path fill-rule="evenodd" clip-rule="evenodd" d="M565.76 139.136C565.686 138.555 565.552 138.034 565.603 137.626C565.702 136.83 566.693 135.815 567.123 135.521C567.204 135.611 567.288 135.727 567.364 135.872C568.056 137.176 567.63 138.896 565.76 139.136" fill="#BE8E69"/>
<path fill-rule="evenodd" clip-rule="evenodd" d="M566.488 139.592C567.004 139.644 567.546 139.68 568.067 139.885C569.627 140.498 570.228 143.609 569.365 145.702C569.023 146.746 568.032 148.356 567.938 149.308C567.827 150.434 569.054 156.196 569.277 157.214C568.623 157.642 566.551 158.145 564.449 158.103C564.151 158.097 563.852 158.08 563.556 158.05C562.239 157.918 560.988 157.533 560.153 156.738C560.889 154.615 561.157 151.214 561.157 149.481C561.157 147.748 559.354 143.247 561.394 140.837C562.167 139.925 564.191 139.386 566.488 139.592" fill="#71BFC6"/>
<path fill-rule="evenodd" clip-rule="evenodd" d="M566.699 136.757C566.745 137.085 566.833 139.452 564.639 139.493C562.444 139.535 562.491 137.859 562.471 136.974C562.451 136.089 562.244 134.075 564.044 133.84C567.645 133.37 567.742 136.117 566.699 136.757" fill="#242424"/>
<path fill-rule="evenodd" clip-rule="evenodd" d="M564.593 140.995C564.296 141.667 562.187 143.189 561.679 144.187C561.171 145.185 561.506 145.88 560.787 146.287C560.226 146.605 559.295 146.272 558.587 146.21C558.418 146.195 558.262 146.196 558.127 146.224C557.42 146.372 557.205 147.125 555.964 147.238C554.178 147.4 552.954 146.754 552.461 145.673C551.714 144.037 552.452 141.588 553.953 140.885C554.894 140.381 555.649 140.495 556.446 139.746C557.521 138.732 556.986 137.205 557.851 136.417C558.716 135.63 560.72 136.136 561.774 135.385C562.829 134.634 562.959 133.979 564.397 133.926C566.147 134.02 564.248 136.223 564.132 136.522C563.857 137.228 564.489 138.112 564.687 138.946C564.727 139.113 564.762 139.286 564.786 139.463C564.853 139.953 564.835 140.474 564.593 140.995" fill="#242424"/>
<path fill-rule="evenodd" clip-rule="evenodd" d="M570.715 173.946C571.023 177.648 569.419 184.53 568.441 187.915C568.921 188.235 570.029 190.085 570.314 190.258C570.311 190.269 570.308 190.279 570.305 190.29C570.261 190.396 570.074 190.59 569.77 190.592C569.003 190.553 568.736 189.317 568.118 188.496C567.963 188.29 567.788 188.142 567.619 188.038L567.066 187.885C566.964 183.905 566.649 177.478 567.827 173.809L570.715 173.946Z" fill="#BE8E69"/>
<path fill-rule="evenodd" clip-rule="evenodd" d="M467.354 171.208C467.318 171.208 467.067 171.234 466.992 171.106C466.984 170.773 466.773 169.461 466.773 168.596C466.774 168.2 466.963 168.082 466.996 167.811C467.202 167.826 467.726 167.975 468.118 168.496C468.736 169.317 469.003 170.553 469.77 170.592C470.107 170.59 470.301 170.351 470.314 170.258C470.516 170.428 471.555 170.452 471.475 170.752C471.438 170.873 470.636 171.451 469.33 171.248C468.668 171.11 468.695 169.988 467.38 169.341L467.354 171.208Z" fill="#274364"/>
<path fill-rule="evenodd" clip-rule="evenodd" d="M473.967 115.735C473.557 115.016 473.674 114.862 473.806 114.805C473.965 114.737 474.189 115.404 474.428 115.233C474.507 115.176 474.564 115.111 474.605 115.04C474.512 115.263 474.323 115.547 473.967 115.735V115.735ZM474.682 114.746L474.682 114.731L474.683 114.731L474.682 114.746Z" fill="#BE8E69"/>
<path fill-rule="evenodd" clip-rule="evenodd" d="M568.061 135.317L568.315 136.387L580.878 134.003C581.796 132.658 580.893 129.549 579.17 128.677L568.061 135.317Z" fill="#F58220"/>
<path fill-rule="evenodd" clip-rule="evenodd" d="M642 66.6398L642.254 67.7097L654.816 65.3262C655.735 63.9805 654.832 60.8717 653.109 60L642 66.6398Z" fill="#F58220"/>
<path fill-rule="evenodd" clip-rule="evenodd" d="M575.198 136.416C575.208 137.248 574.834 140.408 574.573 141.653C574.377 142.594 574.18 143.872 573.666 144.389C572.736 144.775 572.065 142.666 572.172 141.909C572.446 139.519 574.11 137.64 574.22 136.348C574.421 136.234 574.507 136.16 574.633 136.168C574.793 136.179 575.042 136.247 575.198 136.416" fill="#BE8E69"/>
<path fill-rule="evenodd" clip-rule="evenodd" d="M575.192 136.303C575.195 136.333 575.197 136.371 575.197 136.416C574.842 136.392 574.483 136.368 574.219 136.348C574.222 136.321 574.223 136.294 574.224 136.267C574.104 136.062 574.008 135.886 573.932 135.735C574.245 135.548 574.411 135.263 574.492 135.04C574.537 134.95 574.557 134.85 574.56 134.746L574.56 134.731L574.56 134.731C574.566 134.136 574.018 133.389 574.168 133.328C575.591 132.839 576.398 135.103 575.192 136.303" fill="#BE8E69"/>
<path fill-rule="evenodd" clip-rule="evenodd" d="M573.398 144.517C572.481 144.8 570.576 143.768 569.755 143.385C569.985 142.638 570.383 141.733 570.681 141.301C571.669 141.659 572.875 142.342 573.681 143.045C574.158 143.463 574.314 144.234 573.398 144.517" fill="#BE8E69"/>
<path fill-rule="evenodd" clip-rule="evenodd" d="M568.111 140.009C569.013 140.291 570.045 140.764 571.246 141.498C570.839 142.071 570.235 143.564 570.134 144.322C569.838 144.213 569.24 144.04 568.559 143.818C567.317 143.559 564.454 142.246 565.248 140.611C565.702 139.676 566.954 139.648 568.111 140.009" fill="#71BFC6"/>
<path fill-rule="evenodd" clip-rule="evenodd" d="M539.687 200.791L544.103 180.935L622.658 159.442L539.687 200.791Z" fill="url(#paint4_linear)"/>
<path fill-rule="evenodd" clip-rule="evenodd" d="M544.103 180.935L573.545 199.299L622.657 159.442L544.103 180.935Z" fill="#003974"/>
</g>
<g filter="url(#filter1_d)">
<mask id="mask4" mask-type="alpha" maskUnits="userSpaceOnUse" x="612" y="84" width="59" height="33">
<path fill-rule="evenodd" clip-rule="evenodd" d="M612.503 99.6595L618.6 116.063L670.585 84.0457L612.503 99.6595Z" fill="white"/>
</mask>
<g mask="url(#mask4)">
<path fill-rule="evenodd" clip-rule="evenodd" d="M612.503 99.6595L618.6 116.063L670.585 84.0457L612.503 99.6595Z" fill="url(#paint5_linear)"/>
</g>
</g>
<g filter="url(#filter2_d)">
<path fill-rule="evenodd" clip-rule="evenodd" d="M612.503 99.6594L598.101 98.6566L670.584 84.0457L612.503 99.6594Z" fill="#003974"/>
</g>
<g opacity="0.398042" filter="url(#filter3_d)">
<path fill-rule="evenodd" clip-rule="evenodd" d="M690.816 42.5665C690.403 39.7923 688.156 38.6228 685.244 39.7234C684.671 39.8609 683.937 37.1785 681.438 36.4448C678.939 35.7112 677.025 37.3388 676.188 37.2471C674.641 37.0776 672.182 32.3643 665.922 32.0651C663.519 31.9504 660.367 32.4979 658.083 34.5712C656.921 35.6261 656.455 38.1118 655.484 39.0354C654.681 39.7991 651.724 39.517 651.036 42.1995C650.949 42.5389 650.92 42.8639 650.937 43.1771H690.815C690.842 42.9777 690.847 42.7748 690.816 42.5665" fill="#1671FC" fill-opacity="0.324219"/>
</g>
<g opacity="0.398042" filter="url(#filter4_d)">
<path fill-rule="evenodd" clip-rule="evenodd" d="M572.969 39.8526C571.11 39.8416 560.945 43.8311 553.916 43.3448C546.888 42.8585 545.562 40.4384 544.81 40.3389C543.783 40.2978 541.871 42.0294 535.884 41.519C532.66 41.2441 529.919 39.7388 530.002 38.0844C530.356 33.5314 538.843 35.4765 541.186 35.2996C541.517 33.1115 542.887 31.1886 550.734 31.5423C549.894 30.6582 550.292 25.1768 559.265 25C569.432 25.5747 573.207 32.7373 574.383 33.6639C575.041 34.182 579.399 33.0814 582.717 33.7888C588.589 35.041 587.158 40.2815 580.509 40.7936C577.38 41.0346 575.409 39.8671 572.969 39.8526Z" fill="#1671FC" fill-opacity="0.324219"/>
</g>
<path fill-rule="evenodd" clip-rule="evenodd" d="M647.763 68.1614C647.792 68.0361 647.657 66.6329 648.312 65.5058C648.387 65.3765 649.07 64.5016 649.168 64.6308C649.248 64.7348 648.593 65.477 648.62 65.8354C648.638 66.0672 648.846 66.4283 648.846 66.8116C648.846 67.0209 648.718 67.2614 648.616 67.4345C648.319 67.8627 648.353 68.6609 648.353 68.6609L647.763 68.1614Z" fill="#F6B190"/>
<path fill-rule="evenodd" clip-rule="evenodd" d="M640.508 68.3527C640.432 68.1491 640.15 68.0855 640.116 68.4245C640.081 68.7633 640.37 68.9585 640.347 69.0432C640.325 69.1278 640.133 69.3689 639.483 69.4067C639.219 69.4221 639 69.4092 638.829 69.3722C638.577 69.318 638.428 69.2117 638.392 69.0662C638.333 68.8214 638.527 68.8018 638.531 68.6839C638.535 68.5658 638.167 68.3004 638.18 68.0226C638.185 67.8981 638.329 67.8229 638.365 67.7114C638.401 67.6 638.235 67.1124 638.243 66.6999C638.252 66.2955 638.482 66.0915 638.672 66.0164C638.99 65.8907 639.365 66.0936 639.63 66.0833C639.999 66.0692 639.977 65.7539 640.401 65.7257C640.825 65.6975 641.21 66.035 641.331 66.0788C641.451 66.1224 641.579 65.9828 641.653 66.0147C641.727 66.0466 641.966 66.5653 641.483 66.9846C641.424 67.0306 641.31 67.0543 641.188 67.0711C640.989 67.0987 640.768 67.1076 640.733 67.1659C640.677 67.2597 640.606 68.7238 641.074 69.0789C641.146 69.0638 641.337 68.4947 641.537 68.6269C641.745 68.7132 641.368 69.8389 640.892 69.7542C640.781 69.7345 640.704 69.6617 640.651 69.5588C640.475 69.2209 640.584 68.5563 640.508 68.3527" fill="black"/>
<path fill-rule="evenodd" clip-rule="evenodd" d="M641.074 69.0788C640.606 68.7238 640.677 67.2598 640.733 67.1659C640.768 67.1077 640.989 67.0987 641.188 67.0712C641.351 67.3453 641.47 67.6966 641.525 68.1035C641.55 68.2901 641.555 68.4659 641.537 68.6268C641.337 68.4947 641.146 69.0638 641.074 69.0788" fill="#E4AB8D"/>
<path fill-rule="evenodd" clip-rule="evenodd" d="M640.508 68.3527C640.584 68.5563 640.475 69.2209 640.651 69.5587L640.683 70.1062C640.251 70.0041 639.878 69.9883 639.545 70.01C639.316 70.0248 639.091 70.048 638.87 70.0822L638.829 69.3722C639 69.4092 639.219 69.4221 639.483 69.4067C640.133 69.3689 640.325 69.1277 640.347 69.0432C640.37 68.9585 640.081 68.7633 640.116 68.4245C640.151 68.0855 640.432 68.1491 640.508 68.3527" fill="#E4AB8D"/>
<path fill-rule="evenodd" clip-rule="evenodd" d="M635.2 102.305C635.094 102.417 634.404 102.205 634.361 101.966C634.365 101.949 634.371 101.927 634.379 101.903C634.322 101.917 634.164 101.937 634.117 102.038C634.07 102.139 633.784 102.564 633.936 102.74C634.043 102.864 634.781 103.181 635.289 103.075C635.771 102.974 635.965 102.214 635.791 102.126C635.582 102.02 635.329 101.928 635.161 102.035C635.145 102.07 635.215 102.271 635.2 102.305" fill="#23207A"/>
<path fill-rule="evenodd" clip-rule="evenodd" d="M646.364 102.438C646.598 102.649 648.94 102.367 648.986 102.318C648.925 101.97 647.64 101.438 647.277 101.388C647.272 101.537 647.27 101.629 647.27 101.629C647.108 101.751 646.67 101.847 646.434 101.651C646.421 101.588 646.407 101.5 646.391 101.396C646.246 101.456 646.046 102.151 646.364 102.438" fill="#23207A"/>
<path fill-rule="evenodd" clip-rule="evenodd" d="M646.434 101.651C646.67 101.847 647.108 101.751 647.27 101.629C647.27 101.629 647.272 101.537 647.277 101.388C647.294 100.936 647.305 100.54 647.258 100.01C646.955 99.6336 646.585 99.6542 646.191 99.7093C646.236 100.137 646.323 100.931 646.391 101.396C646.407 101.5 646.421 101.588 646.434 101.651" fill="#E5A485"/>
<path fill-rule="evenodd" clip-rule="evenodd" d="M635.834 100.945C635.672 100.778 635.216 100.627 634.798 100.5C634.626 100.945 634.454 101.612 634.333 102.07C634.377 102.309 635.101 102.45 635.2 102.305C635.403 101.848 635.616 101.395 635.834 100.945" fill="#E5A485"/>
<path fill-rule="evenodd" clip-rule="evenodd" d="M641.982 80.7849C642.077 82.6814 641.143 88.5118 640.07 91.7013C638.997 94.8907 636.476 100.246 636.006 101.179L634.153 100.668C637.842 92.977 636.67 83.8453 637.333 81.1107L641.982 80.7849Z" fill="#7793B0"/>
<path fill-rule="evenodd" clip-rule="evenodd" d="M643.597 80.5691C644.119 81.8706 645.91 87.4442 646.622 91.6444C646.739 92.6391 647.387 100.764 647.387 100.764L645.356 100.85C644.4 91.3517 639.897 85.9896 639.815 81.0746L643.597 80.5691Z" fill="#7793B0"/>
<path fill-rule="evenodd" clip-rule="evenodd" d="M631.029 83.1898C630.966 83.3024 629.92 84.2468 629.643 85.5205C629.611 85.6667 629.525 86.7731 629.684 86.7441C629.813 86.7208 629.831 85.7316 630.093 85.4853C630.262 85.3261 630.659 85.2 630.918 84.9173C631.06 84.7628 631.127 84.4988 631.169 84.3023C631.239 83.786 631.802 83.2196 631.802 83.2196L631.029 83.1898Z" fill="#F6B190"/>
<g filter="url(#filter5_d)">
<path fill-rule="evenodd" clip-rule="evenodd" d="M636.968 73.6349C637.196 75.7555 637.141 77.5357 637.123 81.7529C639.026 82.0307 641.946 81.8122 643.909 81.423C643.933 80.3563 643.29 75.2237 642.776 72.8918C643.526 73.2298 645.882 75.161 646.548 74.7227C647.213 74.2846 648.613 69.8119 648.98 67.6753L647.639 67.4379C647.03 69.3967 645.791 70.8995 645.356 71.709C644.159 70.9613 642.764 70.4125 642.411 70.2489C641.491 69.8236 640.205 69.8734 639.242 69.9671C637.644 70.1225 636.963 70.5379 636.003 71.7953C633.71 74.8002 632.306 80.4487 630.895 83.2216L631.989 83.9169C633.956 81.1013 636.29 76.9661 636.968 73.6349" fill="#CED4DA"/>
</g>
<path fill-rule="evenodd" clip-rule="evenodd" d="M645.356 71.7091C645.864 72.0267 646.325 72.3584 646.631 72.6711C646.241 72.1151 646.318 71.4941 646.514 70.9171C646.703 70.3624 647.59 68.2306 647.739 67.4554L647.639 67.438C647.03 69.3967 645.791 70.8996 645.356 71.7091" fill="#B0BBC6"/>
<path fill-rule="evenodd" clip-rule="evenodd" d="M646.631 72.6711C646.722 72.753 647.022 73.1396 647.267 73.4985C647.94 71.9089 648.717 69.2004 648.98 67.6753L647.738 67.4555C647.59 68.2305 646.703 70.3625 646.514 70.9172C646.318 71.4941 646.241 72.115 646.631 72.6711" fill="#B0BBC6"/>
<path fill-rule="evenodd" clip-rule="evenodd" d="M618.599 116.063L620.325 102.778L670.584 84.0457L618.599 116.063Z" fill="url(#paint6_linear)"/>
<path fill-rule="evenodd" clip-rule="evenodd" d="M620.325 102.778L640.721 113.087L670.584 84.0456L620.325 102.778Z" fill="#003974"/>
<defs>
<filter id="filter0_d" x="462.773" y="58" width="196.408" height="148.791" filterUnits="userSpaceOnUse" color-interpolation-filters="sRGB">
<feFlood flood-opacity="0" result="BackgroundImageFix"/>
<feColorMatrix in="SourceAlpha" type="matrix" values="0 0 0 0 0 0 0 0 0 0 0 0 0 0 0 0 0 0 127 0"/>
<feOffset dy="2"/>
<feGaussianBlur stdDeviation="2"/>
<feColorMatrix type="matrix" values="0 0 0 0 0 0 0 0 0 0 0 0 0 0 0 0 0 0 0.221127 0"/>
<feBlend mode="normal" in2="BackgroundImageFix" result="effect1_dropShadow"/>
<feBlend mode="normal" in="SourceGraphic" in2="effect1_dropShadow" result="shape"/>
</filter>
<filter id="filter1_d" x="608.503" y="82.0457" width="66.0812" height="40.0172" filterUnits="userSpaceOnUse" color-interpolation-filters="sRGB">
<feFlood flood-opacity="0" result="BackgroundImageFix"/>
<feColorMatrix in="SourceAlpha" type="matrix" values="0 0 0 0 0 0 0 0 0 0 0 0 0 0 0 0 0 0 127 0"/>
<feOffset dy="2"/>
<feGaussianBlur stdDeviation="2"/>
<feColorMatrix type="matrix" values="0 0 0 0 0 0 0 0 0 0 0 0 0 0 0 0 0 0 0.172476 0"/>
<feBlend mode="normal" in2="BackgroundImageFix" result="effect1_dropShadow"/>
<feBlend mode="normal" in="SourceGraphic" in2="effect1_dropShadow" result="shape"/>
</filter>
<filter id="filter2_d" x="594.101" y="82.0457" width="80.4833" height="23.6138" filterUnits="userSpaceOnUse" color-interpolation-filters="sRGB">
<feFlood flood-opacity="0" result="BackgroundImageFix"/>
<feColorMatrix in="SourceAlpha" type="matrix" values="0 0 0 0 0 0 0 0 0 0 0 0 0 0 0 0 0 0 127 0"/>
<feOffset dy="2"/>
<feGaussianBlur stdDeviation="2"/>
<feColorMatrix type="matrix" values="0 0 0 0 0 0 0 0 0 0 0 0 0 0 0 0 0 0 0.172476 0"/>
<feBlend mode="normal" in2="BackgroundImageFix" result="effect1_dropShadow"/>
<feBlend mode="normal" in="SourceGraphic" in2="effect1_dropShadow" result="shape"/>
</filter>
<filter id="filter3_d" x="646.933" y="30.0508" width="47.9046" height="19.1263" filterUnits="userSpaceOnUse" color-interpolation-filters="sRGB">
<feFlood flood-opacity="0" result="BackgroundImageFix"/>
<feColorMatrix in="SourceAlpha" type="matrix" values="0 0 0 0 0 0 0 0 0 0 0 0 0 0 0 0 0 0 127 0"/>
<feOffset dy="2"/>
<feGaussianBlur stdDeviation="2"/>
<feColorMatrix type="matrix" values="0 0 0 0 0 0 0 0 0 0 0 0 0 0 0 0 0 0 0.150377 0"/>
<feBlend mode="normal" in2="BackgroundImageFix" result="effect1_dropShadow"/>
<feBlend mode="normal" in="SourceGraphic" in2="effect1_dropShadow" result="shape"/>
</filter>
<filter id="filter4_d" x="526" y="23" width="64.4068" height="26.3859" filterUnits="userSpaceOnUse" color-interpolation-filters="sRGB">
<feFlood flood-opacity="0" result="BackgroundImageFix"/>
<feColorMatrix in="SourceAlpha" type="matrix" values="0 0 0 0 0 0 0 0 0 0 0 0 0 0 0 0 0 0 127 0"/>
<feOffset dy="2"/>
<feGaussianBlur stdDeviation="2"/>
<feColorMatrix type="matrix" values="0 0 0 0 0 0 0 0 0 0 0 0 0 0 0 0 0 0 0.150377 0"/>
<feBlend mode="normal" in2="BackgroundImageFix" result="effect1_dropShadow"/>
<feBlend mode="normal" in="SourceGraphic" in2="effect1_dropShadow" result="shape"/>
</filter>
<filter id="filter5_d" x="626.895" y="65.4379" width="26.085" height="24.479" filterUnits="userSpaceOnUse" color-interpolation-filters="sRGB">
<feFlood flood-opacity="0" result="BackgroundImageFix"/>
<feColorMatrix in="SourceAlpha" type="matrix" values="0 0 0 0 0 0 0 0 0 0 0 0 0 0 0 0 0 0 127 0"/>
<feOffset dy="2"/>
<feGaussianBlur stdDeviation="2"/>
<feColorMatrix type="matrix" values="0 0 0 0 0 0 0 0 0 0 0 0 0 0 0 0 0 0 0.17529 0"/>
<feBlend mode="normal" in2="BackgroundImageFix" result="effect1_dropShadow"/>
<feBlend mode="normal" in="SourceGraphic" in2="effect1_dropShadow" result="shape"/>
</filter>
<linearGradient id="paint0_linear" x1="742.538" y1="-4.16646" x2="6.8435" y2="-4.19923" gradientUnits="userSpaceOnUse">
<stop stop-color="white" stop-opacity="0.01"/>
<stop offset="0.489802" stop-color="#ECEFF4" stop-opacity="0.545837"/>
<stop offset="1" stop-color="white"/>
</linearGradient>
<linearGradient id="paint1_linear" x1="696.17" y1="107.279" x2="604.781" y2="107.279" gradientUnits="userSpaceOnUse">
<stop stop-color="#F8FAFD" stop-opacity="0.01"/>
<stop offset="1" stop-color="#EEF3FA"/>
</linearGradient>
<linearGradient id="paint2_linear" x1="725.731" y1="194.851" x2="691.177" y2="128.118" gradientUnits="userSpaceOnUse">
<stop stop-color="#F5F7FA" stop-opacity="0.178431"/>
<stop offset="1" stop-color="#D9E6F9"/>
</linearGradient>
<linearGradient id="paint3_linear" x1="595.345" y1="184.12" x2="594.826" y2="168.474" gradientUnits="userSpaceOnUse">
<stop stop-color="#003974"/>
<stop offset="1" stop-color="#1C62AC"/>
</linearGradient>
<linearGradient id="paint4_linear" x1="559.28" y1="224.369" x2="579.938" y2="169.235" gradientUnits="userSpaceOnUse">
<stop stop-color="#003974"/>
<stop offset="1" stop-color="#1C62AC"/>
</linearGradient>
<linearGradient id="paint5_linear" x1="652.951" y1="103.155" x2="652.469" y2="91.0452" gradientUnits="userSpaceOnUse">
<stop stop-color="#003974"/>
<stop offset="1" stop-color="#1C62AC"/>
</linearGradient>
<linearGradient id="paint6_linear" x1="630.876" y1="134.32" x2="649.438" y2="94.2309" gradientUnits="userSpaceOnUse">
<stop stop-color="#003974"/>
<stop offset="1" stop-color="#1C62AC"/>
</linearGradient>
</defs>
</svg>
