<?xml version="1.0" encoding="UTF-8"?>
<svg width="12px" height="12px" viewBox="0 0 12 12" version="1.1" xmlns="http://www.w3.org/2000/svg" xmlns:xlink="http://www.w3.org/1999/xlink">
    <!-- Generator: Sketch 53.2 (72643) - https://sketchapp.com -->
    <title>in_process</title>
    <desc>Created with Sketch.</desc>
    <g id="Page-1" stroke="none" stroke-width="1" fill="none" fill-rule="evenodd">
        <g id="in_process" fill="#4A8ACC" fill-rule="nonzero">
            <path d="M5.99898529,11.9979265 C9.31208824,11.9979265 11.9979706,9.31208824 11.9979706,5.99894118 C11.9979706,2.68579412 9.31208824,0 5.99898529,0 C2.68588235,0 0,2.68583824 0,5.99898529 C0,9.31213235 2.68583824,11.9979265 5.99898529,11.9979265 Z M5.99898529,0.959823529 C8.77747059,0.959823529 11.0381029,3.22045588 11.0381029,5.99894118 C11.0381029,8.77742647 8.77747059,11.0380588 5.99898529,11.0380588 C3.2205,11.0380588 0.959867647,8.77742647 0.959867647,5.99894118 C0.959867647,3.22045588 3.22023529,0.959823529 5.99898529,0.959823529 Z" id="Shape"></path>
            <path d="M6,2 C8.209139,2 10,3.790861 10,6 C10,8.209139 8.209139,10 6,10 C4.89593765,10 3.8963488,9.55269578 3.1725701,8.829424 L6,6 L6,2 Z" id="Combined-Shape"></path>
        </g>
    </g>
</svg>