<?xml version="1.0" encoding="UTF-8"?>
<svg width="202px" height="137px" viewBox="0 0 202 137" version="1.1" xmlns="http://www.w3.org/2000/svg" xmlns:xlink="http://www.w3.org/1999/xlink">
    <!-- Generator: Sketch 53.2 (72643) - https://sketchapp.com -->
    <title>Group</title>
    <desc>Created with Sketch.</desc>
    <defs>
        <rect id="path-1" x="0" y="0" width="202" height="137"></rect>
        <linearGradient x1="45.5160922%" y1="4.62032221%" x2="56.4347972%" y2="62.8171754%" id="linearGradient-3">
            <stop stop-color="#003974" offset="0%"></stop>
            <stop stop-color="#E4E3E1" stop-opacity="0" offset="100%"></stop>
        </linearGradient>
        <path d="M72.838779,10.9635921 C32.6173463,10.9635921 0.0109802731,8.42931408 0.0109802731,5.30357401 C0.0109802731,2.95045578 18.4957259,0.932238267 44.7945681,0.0783393502 L44.7945681,4.47121841 C44.7945681,4.56816336 44.8024818,4.65629513 44.8024818,4.74540614 C44.8766728,5.72366877 45.3109377,6.60498646 45.9618403,7.24932762 C46.6809988,7.94654783 47.6613096,8.37545578 48.7464772,8.37545578 L94.5549894,8.37545578 C95.8409673,9.40757671 97.4761377,10.0274368 99.2577117,10.0274368 C101.796034,10.0274368 104.039571,8.77204874 105.389848,6.85567238 C105.55109,6.95849278 105.713321,7.06033394 105.876541,7.16217509 C108.802636,5.35449458 111.449772,3.14826264 113.743758,0.619860108 C133.010675,1.63827166 145.667666,3.35586191 145.667666,5.30357401 C145.667666,8.42931408 113.061201,10.9635921 72.838779,10.9635921" id="path-4"></path>
        <linearGradient x1="50%" y1="0%" x2="50%" y2="100%" id="linearGradient-6">
            <stop stop-color="#FBB843" offset="0%"></stop>
            <stop stop-color="#F58220" offset="100%"></stop>
        </linearGradient>
        <path d="M19.605557,5.41159985 C8.82590457,5.41159985 0.0873177896,4.21287035 0.0873177896,2.73514282 C0.0873177896,1.25741529 8.82590457,0.0596478561 19.605557,0.0596478561 C30.3846175,0.0596478561 39.1233029,1.25741529 39.1233029,2.73514282 C39.1233029,4.21287035 30.3846175,5.41159985 19.605557,5.41159985" id="path-7"></path>
        <linearGradient x1="50%" y1="0%" x2="50%" y2="100%" id="linearGradient-9">
            <stop stop-color="#FBB843" offset="0%"></stop>
            <stop stop-color="#F58220" offset="100%"></stop>
        </linearGradient>
        <linearGradient x1="50%" y1="40.0097224%" x2="50%" y2="125.246395%" id="linearGradient-10">
            <stop stop-color="#FF973E" offset="0%"></stop>
            <stop stop-color="#F58220" offset="100%"></stop>
        </linearGradient>
        <path d="M0.0567628342,11.7172432 C0.0567628342,18.18731 5.30184789,23.4324946 11.7718152,23.4324946 C18.2417824,23.4324946 23.4868675,18.18731 23.4868675,11.7172432 C23.4868675,5.24717631 18.2417824,0.00209126231 11.7718152,0.00209126231 C5.30184789,0.00209126231 0.0567628342,5.24717631 0.0567628342,11.7172432" id="path-11"></path>
        <path d="M0.0764960714,14.0080551 L0.0764960714,8.903463 L1.01748991,9.08129332 L2.60086643,9.3702676 C2.68473561,9.48141155 2.75385857,9.59989982 2.82390316,9.71848601 L3.04509662,9.74796119 L3.04509662,13.5638709 C2.65432151,13.6305573 1.95848375,13.7416033 1.1363814,13.8599937 C0.80182629,13.9118935 0.438700361,13.9636954 0.0764960714,14.0080551 L0.0764960714,14.0080551 Z M0.0764960714,4.77693773 L0.0764960714,2.4659269 L3.04509662,0.0593420578 L3.04509662,2.37759928 L0.905971544,4.11007401 L0.0764960714,4.77693773 L0.0764960714,4.77693773 Z" id="path-13"></path>
        <path d="M2.99699105,7.81186625 C0.729577774,6.85354671 -1.02897033,2.74159065 0.719359598,0.232151977 L4.68299011,0.0113687594 L4.68299011,6.60935722 L2.99699105,7.81186625" id="path-15"></path>
        <linearGradient x1="-2379.10495%" y1="228.880588%" x2="3743.05963%" y2="228.880588%" id="linearGradient-17">
            <stop stop-color="#7E9DB3" offset="0%"></stop>
            <stop stop-color="#5C719F" offset="100%"></stop>
        </linearGradient>
    </defs>
    <g id="Page-1" stroke="none" stroke-width="1" fill="none" fill-rule="evenodd">
        <g id="Artboard" transform="translate(-125.000000, -62.000000)">
            <g id="Group" transform="translate(125.000000, 62.000000)">
                <g>
                    <mask id="mask-2" fill="white">
                        <use xlink:href="#path-1"></use>
                    </mask>
                    <use id="Mask" fill="#FFFFFF" xlink:href="#path-1"></use>
                    <g mask="url(#mask-2)">
                        <g transform="translate(-15.000000, -13.000000)">
                            <circle id="Oval" fill="url(#linearGradient-3)" opacity="0.147219" transform="translate(108.615523, 108.615523) rotate(10.000000) translate(-108.615523, -108.615523) " cx="108.615523" cy="108.615523" r="93.6155235"></circle>
                            <g id="Group-34" style="mix-blend-mode: luminosity;" stroke-width="1" fill="none" transform="translate(40.068592, 28.317690)">
                                <path d="M34.4695616,110.458484 C23.6529911,110.458484 14.8844765,111.685749 14.8844765,113.199868 C14.8844765,114.713988 23.6529911,115.942238 34.4695616,115.942238 C45.285538,115.942238 54.0541516,114.713988 54.0541516,113.199868 C54.0541516,111.685749 45.285538,110.458484 34.4695616,110.458484 Z" id="Path"></path>
                                <path d="M44.8003461,93.1804847 C18.4916628,94.0442362 0,96.0857407 0,98.4660102 C0,101.627816 32.6185676,104.191336 72.8550514,104.191336 C113.092525,104.191336 145.711191,101.627816 145.711191,98.4660102 C145.711191,96.4958246 133.049465,94.7584161 113.775338,93.7282537 C113.951484,93.5321266 114.12565,93.333028 114.297838,93.1329387 C119.133935,91.7600492 124.008625,90.4396584 124.105605,87.95142 C124.208521,85.3274776 122.744927,83.5841258 120.446123,83.066073 C121.07154,81.5277632 121.59602,79.9366576 122.010655,78.3029587 C122.335239,78.2013292 122.675656,78.1211945 123.031906,78.0669129 C127.338576,77.4109768 131.297901,76.3522868 131.356286,74.7074939 C131.403786,73.3795749 128.891233,72.1676483 126.741856,72.1676483 C126.229252,72.1676483 125.736439,72.236689 125.30498,72.3897276 C125.30498,72.3897276 125.340606,66.803672 129.576025,66.2814589 C134.727799,65.6462251 136.418998,63.2383196 135.064258,62.0613591 C134.313163,61.4095833 131.834255,60.2539194 129.338525,60.2539194 C127.326701,60.2539194 125.30498,61.0033625 124.16399,63.3698634 C122.736021,66.3314812 121.926541,67.7847036 121.489145,68.4905629 L119.497112,67.604128 C119.36055,67.0672549 119.306123,66.3429715 119.405081,65.3656049 C119.630706,63.1386712 118.676747,61.617993 117.359611,61.617993 C116.384871,61.617993 115.210234,62.451434 114.167213,64.4494538 C114.052421,64.6698491 113.951484,64.8859851 113.862421,65.0975646 L105.905177,61.5576691 L100.910746,63.7797492 L100.910746,15.7014762 C100.910746,13.519513 99.1433493,11.7509025 96.9642854,11.7509025 L50.756652,11.7509025 C49.6681096,11.7509025 48.1867024,12.3806883 46.9764412,13.2828729 L46.9714933,13.2844577 L46.9714933,13.2863398 C46.9497225,13.3027827 46.9279516,13.3192257 46.9061808,13.3358668 L46.9042016,13.3369564 L46.9042016,13.3370554 C46.8853995,13.3515173 46.8665974,13.3660783 46.8477953,13.3806392 C46.0294094,13.8159819 45.3901382,14.5327372 45.0695129,15.4202617 C45.0615963,15.4422517 45.05269,15.4642417 45.0437838,15.4876185 C45.0348775,15.5075283 45.0259713,15.5275373 45.0180546,15.5474471 L45.017065,15.5477443 C45.017065,15.5483386 45.017065,15.549032 45.017065,15.5496263 C45.0111275,15.5624043 45.0061796,15.5752813 45.0012317,15.5879603 C44.9992525,15.5921205 44.9972733,15.5961817 44.9952942,15.600243 L44.9873775,15.607672 C44.9804504,15.6151011 44.9804504,15.6227282 44.9804504,15.6376854 C44.9804504,15.6391712 44.9804504,15.640657 44.9794608,15.6420438 C44.8894087,15.8803679 44.833992,16.1187911 44.8211274,16.3537473 C44.8151899,16.3673177 44.8151899,16.3802938 44.8151899,16.3870295 L44.8151899,16.4620134 C44.8082628,16.5744398 44.8003461,16.6942952 44.8003461,16.8142497 L44.8003461,43.0907206 L40.9617499,43.3196346 C39.2685718,45.921488 40.9716458,50.1848745 43.1675326,51.1784859 L44.8003461,49.9316922 L44.8003461,93.1804847 Z" id="Path"></path>
                                <g id="Group-6" transform="translate(0.000000, 93.223827)">
                                    <mask id="mask-5" fill="white">
                                        <use xlink:href="#path-4"></use>
                                    </mask>
                                    <g id="Clip-5"></g>
                                    <path d="M72.838779,10.9635921 C32.6173463,10.9635921 0.0109802731,8.42931408 0.0109802731,5.30357401 C0.0109802731,2.95045578 18.4957259,0.932238267 44.7945681,0.0783393502 L44.7945681,4.47121841 C44.7945681,4.56816336 44.8024818,4.65629513 44.8024818,4.74540614 C44.8766728,5.72366877 45.3109377,6.60498646 45.9618403,7.24932762 C46.6809988,7.94654783 47.6613096,8.37545578 48.7464772,8.37545578 L94.5549894,8.37545578 C95.8409673,9.40757671 97.4761377,10.0274368 99.2577117,10.0274368 C101.796034,10.0274368 104.039571,8.77204874 105.389848,6.85567238 C105.55109,6.95849278 105.713321,7.06033394 105.876541,7.16217509 C108.802636,5.35449458 111.449772,3.14826264 113.743758,0.619860108 C133.010675,1.63827166 145.667666,3.35586191 145.667666,5.30357401 C145.667666,8.42931408 113.061201,10.9635921 72.838779,10.9635921" id="Fill-4" fill-opacity="0.087233" fill="#000000" mask="url(#mask-5)"></path>
                                </g>
                                <path d="M107.458535,95.1519073 C108.977202,89.3218769 110.230973,80.0612677 112.862001,80.4488239 C115.493028,80.83638 113.600919,84.7964618 115.586638,84.7503242 C117.572357,84.7041865 117.984638,81.8946989 118.303309,76.8221111 C118.62198,71.7492287 122.999723,69.7406708 125.189591,70.7645337 C127.380454,71.7882985 122.581467,78.3402357 124.325195,80.0747163 C126.068923,81.8092952 127.255973,73.1290386 132.147573,72.1432638 C137.039174,71.1575871 138.673359,72.4315749 136.281334,75.2199571 C133.88931,78.0084373 132.47919,80.0593044 135.171961,80.6026487 C137.864731,81.145993 142.461561,79.2323609 142.576083,82.9224884 C142.690605,86.6134994 136.358014,84.2398652 135.744573,87.5637384 C135.131131,90.8885933 140.289618,92.3679426 139.992856,94.3312464 C139.696094,96.2945501 135.05943,96.5900273 132.684335,94.2723473 C130.308244,91.9556489 128.461944,89.6860697 126.832738,91.6415203 C125.203532,93.5979524 130.265423,94.467696 130.428741,97.2241744 C130.59206,99.9796712 122.089519,97.5981838 118.882892,95.2058982 C115.676264,92.8136126 115.709127,94.9192558 117.263644,96.6371466 C119.949444,99.6027169 115.775849,99.0284505 113.141834,97.1289542 C110.464001,95.1970633 106.551318,98.6367714 107.458535,95.1519073" id="Fill-7" fill="#F7B97B"></path>
                                <path d="M112.546827,90.1628916 C112.403751,89.9355105 112.348721,89.6697405 112.323708,89.4207041 C112.317705,89.3616441 112.311701,89.3035684 112.304698,89.246477 C112.250669,88.8379786 112.210647,88.4275115 112.186635,88.027872 C112.129604,87.0809431 112.094585,86.1596069 112.29069,85.2963463 C112.312702,85.2028346 112.406752,85.1427902 112.503804,85.1644456 C112.598855,85.1851166 112.659887,85.2786283 112.637876,85.3731243 C112.451776,86.1920899 112.486795,87.0858648 112.541824,88.007201 C112.564837,88.3989658 112.603857,88.8005739 112.656886,89.202182 C112.66489,89.2602577 112.670893,89.3222707 112.677897,89.3862524 C112.698908,89.5890251 112.737929,89.7839232 112.821974,89.9424009 C113.565371,89.3350671 114.359795,88.7671066 115.185236,88.2257231 L115.191239,88.2158797 L115.206247,88.2119424 C116.074711,87.6429976 116.97219,87.0996454 117.923699,86.611416 C118.959252,86.0798758 119.987801,85.6910641 120.938309,85.357375 C120.541097,84.9410019 120.366003,84.360245 120.264949,83.8198459 C119.889749,81.8206643 119.960787,79.7220651 120.467057,77.750248 C120.49107,77.6577207 120.577116,77.6056494 120.683172,77.6234659 C120.778223,77.6471883 120.836254,77.7422749 120.812241,77.8361803 C120.317977,79.7596666 120.24894,81.8068837 120.614136,83.7568485 C120.71619,84.2942947 120.882279,84.8799732 121.301503,85.2254743 C121.388549,85.1959443 121.489603,85.1555866 121.574648,85.1270409 C124.068981,84.2844513 126.830455,83.4743448 129.700989,83.0304103 C129.732005,82.0795441 129.767024,81.097376 130.091197,80.1701338 C130.210261,79.8273888 130.367344,79.5003932 130.519426,79.1838315 L131.251817,77.6558504 C131.293839,77.5691306 131.397895,77.5318244 131.488943,77.5722805 C131.57699,77.6138194 131.615011,77.7181587 131.573989,77.8057644 L130.841598,79.3336471 C130.693519,79.640956 130.541437,79.9587973 130.427376,80.284218 C130.129217,81.139407 130.089196,82.0687164 130.06018,82.973319 C132.057247,82.6878622 134.10334,82.5845072 136.152434,82.8000763 C136.249486,82.8109039 136.319523,82.896541 136.309518,82.9930057 C136.298512,83.0875017 136.212466,83.156405 136.116415,83.1485304 L136.113413,83.147546 C132.962731,82.8010606 129.813048,83.2194024 126.849466,83.9330442 C126.868476,84.1407386 126.954522,84.348433 127.046571,84.5482527 C127.589861,85.7215784 128.15016,86.9342774 129.050641,87.8851437 C129.332792,88.1824124 129.669972,88.4777125 130.083193,88.7877776 C131.146761,89.5850878 132.328392,90.2042336 133.592067,90.6274971 C133.685116,90.6580114 133.735143,90.7584134 133.703126,90.8499565 C133.676112,90.9277188 133.59907,90.9749668 133.518027,90.9670922 C133.50502,90.9661078 133.491013,90.9631548 133.477005,90.9592175 C132.177311,90.5231577 130.962662,89.8862939 129.868078,89.066344 C129.437848,88.7434826 129.08566,88.4353861 128.790502,88.1243367 C127.85,87.1301598 127.276694,85.8918681 126.723398,84.6939341 C126.630349,84.4921457 126.543302,84.2647647 126.508283,84.0206499 C124.829387,84.4399761 123.209522,84.9449392 121.69071,85.4587613 C120.606131,85.8239491 119.33045,86.2846172 118.088787,86.9214811 C117.205315,87.3742745 116.370869,87.8762847 115.559436,88.4009345 C116.420896,89.5132314 117.433437,90.7544761 118.669097,91.739794 C119.607598,92.4878876 121.089389,93.4043022 122.862336,93.5637642 C122.893353,93.5667172 122.939377,93.5755762 122.957387,93.5716389 C123.054439,93.5804979 123.126477,93.6631819 123.118473,93.7586623 C123.111469,93.855127 123.025423,93.9279676 122.928371,93.920093 C122.896354,93.9181243 122.863337,93.9151713 122.83132,93.9122183 C121.35353,93.7793333 119.839722,93.1237671 118.445978,92.0124544 C117.173298,90.9966222 116.139746,89.7278162 115.262277,88.5958325 C111.518278,91.0773375 108.586712,94.2705157 106.8798,97.82396 C106.847783,97.8928634 106.774744,97.9302681 106.702706,97.9233777 C106.682695,97.9214091 106.662684,97.9164874 106.643674,97.9066441 C106.554627,97.8662864 106.516606,97.761947 106.558629,97.6743413 C107.88934,94.9024579 109.946438,92.3431905 112.546827,90.1628916" id="Fill-8" fill="#FDFDFD"></path>
                                <path d="M107.379916,96.3574007 C112.474201,93.5617073 124.076543,92.5217014 124.226548,88.6692438 C124.377533,84.8167861 121.150957,82.8718273 116.869443,83.9335205 C116.869443,83.9335205 118.895981,79.4849571 123.162787,78.8321686 C127.429594,78.1793801 131.352272,77.1257703 131.410117,75.4888701 C131.467962,73.8518714 127.635483,72.3918215 125.414822,73.1822259 C125.414822,73.1822259 125.450117,67.6229757 129.646333,67.1032685 C134.750423,66.471083 136.425968,64.0747321 135.083767,62.9034193 C133.740586,61.7321066 126.817809,58.9270481 124.284393,64.2056446 C121.750976,69.4843397 121.18135,69.9477584 121.18135,69.9477584 C121.18135,69.9477584 119.180304,70.0494917 119.569532,66.1918094 C119.958761,62.3342256 116.807677,60.6067315 114.380146,65.2800545 C111.953596,69.9533774 115.697836,72.5600954 115.388022,75.7423161 C115.079189,78.9245369 111.63986,85.378685 110.634925,80.2068493 C109.630971,75.0347178 103.693521,73.8262409 104.224911,81.2703169 C104.75532,88.71459 107.379916,96.3574007 107.379916,96.3574007" id="Fill-9" fill="url(#linearGradient-6)"></path>
                                <path d="M125.518503,75.3164028 C125.521468,75.176396 125.41272,75.0616736 125.272335,75.0581041 L122.75035,75.0006933 C122.09588,74.9856218 121.353422,74.9685671 120.683134,75.266627 C120.367762,75.4072288 120.08205,75.6105957 119.804246,75.8072201 C119.489863,76.0307154 119.186355,76.2372553 118.871972,76.3377985 C123.085495,70.3573639 127.427539,65.2540545 129.909978,63.9305335 C130.032568,63.8650913 130.079033,63.7122934 130.013784,63.5890437 C129.948535,63.4653975 129.797275,63.4191912 129.673697,63.4844352 C127.341528,64.7277397 123.392957,69.2535705 119.432522,74.7203821 L119.429557,74.6295562 C119.353432,73.0371269 118.928323,71.4472756 118.197729,70.0309457 L118.11073,69.8653568 C117.933766,69.5275357 117.765699,69.2088516 117.710336,68.8661719 C117.636189,68.4109513 117.769654,67.9153746 117.888289,67.4778036 C117.924868,67.3434486 117.842812,67.2038383 117.711325,67.16844 C117.576872,67.1318518 117.438464,67.2115724 117.401885,67.3462249 C117.270398,67.8325802 117.122104,68.3843778 117.213058,68.9473798 C117.282261,69.3712675 117.477021,69.7422063 117.665848,70.1009491 L117.75087,70.2630675 C118.447851,71.6148476 118.854176,73.1331089 118.926346,74.6536508 L118.936232,74.8868634 C118.941175,75.0416443 118.947107,75.196227 118.958971,75.3503138 L118.964902,75.3696491 C115.424634,80.3222429 111.928853,85.9489916 109.615469,90.5934117 C109.676763,89.6792026 109.284279,88.8572077 108.901681,88.0619846 C108.678251,87.5989308 108.446913,87.1190206 108.317403,86.6361357 C108.135496,85.9549409 108.142416,85.223177 108.149337,84.5162019 L108.187893,80.6905046 C108.188882,80.5496053 108.077167,80.4351804 107.939748,80.4354779 C107.800352,80.4339906 107.68666,80.5460357 107.685671,80.6851502 L107.646126,84.5102526 C107.639206,85.2519319 107.631297,86.0184001 107.831988,86.7660288 C107.973361,87.2955165 108.214586,87.7972407 108.447902,88.2821087 C108.822591,89.0594839 109.176519,89.7942224 109.110281,90.6370399 C109.092486,90.8442738 109.073702,91.1238909 109.246711,91.3430235 C108.401436,93.0990585 107.739057,94.6974371 107.335698,96.0320633 C107.299118,96.1530324 107.358436,96.2809424 107.470151,96.3334945 C107.480037,96.3384523 107.491901,96.3424185 107.503764,96.3463847 C107.637229,96.3870382 107.777613,96.3116804 107.818147,96.1778212 C108.331244,94.4783045 109.262529,92.3534129 110.464698,90.0113719 C110.538845,89.9994733 110.608049,89.9588197 110.647594,89.8874281 C111.049965,89.1576473 111.921933,88.6341089 113.041057,88.4526553 C113.647084,88.3544918 114.282771,88.3485425 114.897696,88.3435848 C115.307976,88.3396186 115.718255,88.3356524 116.126558,88.3068974 C117.459225,88.2127002 118.47059,87.8210379 119.133957,87.1428178 C119.230843,87.0426712 119.228866,86.8830317 119.130003,86.7858598 C119.030152,86.6886879 118.870983,86.6896794 118.774098,86.7888344 C118.200695,87.3768236 117.298079,87.7179168 116.090967,87.80319 C115.69354,87.831945 115.293146,87.8349196 114.892753,87.8388858 C114.260032,87.8438436 113.604574,87.8497929 112.960978,87.9548972 C112.285747,88.0639677 111.690594,88.2910326 111.205179,88.6073371 C113.215055,84.8801007 115.807232,80.7330421 118.478499,76.8990158 C119.101333,76.9118067 119.607509,76.5656566 120.09589,76.2194074 C120.363808,76.028534 120.617885,75.8479728 120.88778,75.7281935 C121.454262,75.4754474 122.137402,75.4915106 122.739476,75.5054914 L125.26146,75.5629022 C125.400856,75.5661743 125.515537,75.4556164 125.518503,75.3164028" id="Fill-10" fill="#FFFFFF"></path>
                                <g id="Group-13" transform="translate(14.101083, 110.458484)">
                                    <mask id="mask-8" fill="white">
                                        <use xlink:href="#path-7"></use>
                                    </mask>
                                    <g id="Clip-12"></g>
                                    <path d="M19.605557,5.41159985 C8.82590457,5.41159985 0.0873177896,4.21287035 0.0873177896,2.73514282 C0.0873177896,1.25741529 8.82590457,0.0596478561 19.605557,0.0596478561 C30.3846175,0.0596478561 39.1233029,1.25741529 39.1233029,2.73514282 C39.1233029,4.21287035 30.3846175,5.41159985 19.605557,5.41159985" id="Fill-11" fill-opacity="0.087233" fill="#000000" mask="url(#mask-8)"></path>
                                </g>
                                <path d="M29.7105994,71.081316 L32.6890568,73.6121765 L30.1059056,73.3109547 C33.9119755,92.569632 46.243997,104.866451 48.3349561,91.5858068 C48.7825867,88.7289297 48.5688532,85.813302 47.8893419,82.9335221 L46.3286838,84.1891938 L47.2209205,80.5358962 C42.8686203,66.9748415 29.4524053,54.8375451 29.4524053,54.8375451 C28.7060518,60.4548087 28.9003275,65.9787682 29.7105994,71.081316" id="Fill-14" fill="#F7B97B"></path>
                                <path d="M45.4368231,96.1081165 L39.4023366,79.102973 C38.3832354,76.2736956 37.4266677,73.4221606 36.3313536,70.6165256 C35.2321313,67.8188044 33.918927,65.0763808 32.1191336,62.6714801 C33.8681185,65.1145648 35.1187892,67.8725193 36.1564552,70.6851777 C37.1902127,73.5038705 38.0881552,76.3774651 39.0476542,79.2276152 L44.7274583,96.3574007 L45.4368231,96.1081165" id="Fill-15" fill="#FFFFFF"></path>
                                <path d="M42.2803329,95.1414897 C41.7405378,89.2403504 41.9744161,80.0441159 39.4323464,80.017853 C36.8912635,79.9914898 38.0695365,84.1321109 36.2034442,83.7822727 C34.3373518,83.4334368 34.3778118,80.6389411 34.853463,75.657706 C35.3291143,70.6764708 31.5061414,68.0528846 29.2826199,68.7126655 C27.058901,69.3724463 30.5841478,76.4781718 28.6733521,77.8974725 C26.7626552,79.3167732 26.971172,70.6950152 22.5065634,68.9870228 C18.0419547,67.2791307 16.3050383,68.2673986 18.1355061,71.345173 C19.9660726,74.4229475 20.982111,76.6330429 18.3584306,76.7487201 C15.7348489,76.8643972 11.6903331,74.2994516 11.0175135,77.8702072 C10.344694,81.4409628 16.6826974,80.1031574 16.7526636,83.4294272 C16.8227284,86.7553963 11.7295101,87.4039503 11.7088854,89.3586338 C11.688162,91.3133173 16.0182659,92.310707 18.6142165,90.4211797 C21.210167,88.5326547 23.2996773,86.6090457 24.5376534,88.7601999 C25.7756295,90.9113541 20.86606,90.9815223 20.2902457,93.6358822 C19.71453,96.2912445 28.1018798,95.2778163 31.4933127,93.443421 C34.8850416,91.6090258 34.531757,93.6509182 32.801847,95.0833504 C29.814323,97.5552732 33.8399904,97.6364677 36.6159384,96.1930091 C39.4382673,94.7254929 42.6040125,98.6689415 42.2803329,95.1414897" id="Fill-16" fill="url(#linearGradient-9)"></path>
                                <path d="M38.577396,89.5144664 C38.7470996,89.315147 38.8393946,89.066749 38.901917,88.8293686 C38.9158108,88.7722771 38.9306971,88.7171889 38.9465758,88.6631022 C39.060704,88.2754811 39.1609383,87.8838535 39.2452939,87.5002388 C39.4437777,86.5917831 39.6184434,85.7043611 39.5658452,84.8379728 C39.5598907,84.743822 39.4795048,84.6707048 39.385225,84.677716 C39.2919376,84.6837257 39.2204834,84.7648557 39.226438,84.8600081 C39.2760589,85.6813242 39.1063553,86.5417029 38.9128336,87.4261201 C38.8314552,87.8017219 38.7322133,88.1853366 38.62007,88.5659465 C38.6041913,88.6220364 38.5883126,88.6811311 38.5724339,88.7412274 C38.5218205,88.9355388 38.4553285,89.1178309 38.3511245,89.2590572 C37.7417793,88.5569321 37.0788435,87.8858567 36.3821654,87.2348135 L36.3781958,87.2247975 L36.3652943,87.2187878 C35.6318968,86.5356932 34.8677342,85.8716291 34.0440266,85.2536389 C33.1478723,84.5815619 32.234847,84.0477065 31.3890083,83.5789554 C31.8289476,83.2364065 32.0820144,82.7005478 32.2606498,82.1927341 C32.9225932,80.3128217 33.1776449,78.268546 33.0019867,76.2808609 C32.9940474,76.1875113 32.9206084,76.1241097 32.8173968,76.1251113 C32.723117,76.1335248 32.6546401,76.2169585 32.6625795,76.3116102 C32.834268,78.2506172 32.5851708,80.2442118 31.941091,82.0779502 C31.7624556,82.58336 31.5151448,83.1252283 31.0666707,83.3966633 C30.9888651,83.3545959 30.8995474,83.2995076 30.8238258,83.2594434 C28.5975325,82.0633267 26.1137066,80.8568935 23.4704981,79.989704 C23.5872066,79.0631192 23.7046097,78.1065864 23.5412576,77.1588678 C23.48072,76.8085064 23.3829668,76.4677604 23.2883892,76.138032 L22.8311819,74.5459809 C22.804585,74.4554358 22.7120916,74.4034525 22.6198959,74.4287931 C22.5301812,74.4556362 22.4778808,74.5508888 22.5036836,74.6420348 L22.9609903,76.2340859 C23.0534837,76.5542991 23.1485574,76.8854297 23.2056215,77.2179625 C23.3565684,78.0921633 23.2511735,78.9989163 23.1404196,79.8792269 C21.2978947,79.2986967 19.3815338,78.8865362 17.4129718,78.7829703 C17.3193867,78.7786634 17.2398939,78.8512797 17.2348326,78.9463321 C17.2306644,79.0395815 17.3012254,79.1196097 17.3934211,79.1258197 L17.3966961,79.1261201 C20.425757,79.2697503 23.3361246,80.1553694 26.0253813,81.2987015 C25.9751649,81.4970193 25.8621284,81.6848202 25.744229,81.8650089 C25.0518184,82.9178961 24.3362843,84.0076423 23.3393996,84.7929006 C23.0279785,85.0372922 22.6639593,85.2726694 22.2258064,85.5090481 C21.0988155,86.1200272 19.8884614,86.5396997 18.6297765,86.7570479 C18.5367869,86.7730736 18.47486,86.8622165 18.4906394,86.9553657 C18.5039378,87.0344925 18.5700329,87.0925856 18.6469454,87.0975936 C18.6602438,87.0985952 18.6735422,87.0985952 18.6870391,87.0955904 C19.9821458,86.8722325 21.2272345,86.4395392 22.3868759,85.8115329 C22.8421977,85.565138 23.2221949,85.3197448 23.5490977,85.0633339 C24.5895496,84.2440211 25.3206646,83.1312379 26.0272669,82.0550134 C26.1461587,81.8741235 26.2638595,81.6663907 26.3341228,81.4358212 C27.8556002,82.0975816 29.307906,82.8337613 30.6636494,83.5629297 C31.631357,84.0827627 32.7657911,84.7227882 33.8405807,85.5290802 C34.6047432,86.1019983 35.3163076,86.7169837 36.002069,87.3479949 C35.0185819,88.2945116 33.8703533,89.343192 32.552421,90.1094198 C31.5519635,90.6913523 30.0117294,91.3524116 28.3124106,91.237227 C28.2825388,91.2352238 28.2383761,91.237227 28.221505,91.2302157 C28.1287138,91.2242061 28.0481294,91.2933169 28.040587,91.3874677 C28.0329454,91.4816186 28.1026132,91.5647518 28.1959998,91.5727647 C28.2264671,91.5757695 28.2576291,91.5777727 28.2880963,91.5797759 C29.7043773,91.67593 31.2354811,91.2712816 32.7221246,90.4068965 C34.0797536,89.6166301 35.2508079,88.5459144 36.253151,87.5813688 C39.4080506,90.5571372 41.6866444,94.0968092 42.7534946,97.8007444 C42.773343,97.8718583 42.8358654,97.9189338 42.9053347,97.9239418 C42.9241907,97.9249434 42.9440391,97.9229402 42.9638874,97.9169305 C43.0541976,97.8908888 43.1058033,97.7957363 43.0800005,97.7045903 C42.2483534,94.8159615 40.6981951,92.0224853 38.577396,89.5144664" id="Fill-17" fill="#FDFDFD"></path>
                                <path d="M122.99278,69.4742169 L122.99278,69.4894111 C122.99278,82.4765468 116.113764,93.8712305 105.757628,100.274368 C95.4024817,93.8712305 88.5234657,82.4765468 88.5234657,69.4894111 L88.5234657,69.4742169 L105.757628,61.8880866 L122.99278,69.4742169" id="Fill-18" fill="#003974"></path>
                                <path d="M93.8254188,72.7269931 C93.9713106,81.704943 98.5461991,89.8747035 106.149327,94.7406317 C113.756397,89.8727509 118.332271,81.6990851 118.47422,72.7269931 L106.149327,67.3017371 L93.8254188,72.7269931 M106.149327,96.3574007 L105.783612,96.1308968 C97.428353,90.9652416 92.4404332,82.0544619 92.4404332,72.2958547 L92.4404332,71.8513409 L92.8505073,71.6593007 L106.149327,65.8050542 L119.859206,71.8396251 L119.859206,72.2958547 C119.859206,82.0554382 114.8703,90.9652416 106.515042,96.1308968 L106.149327,96.3574007" id="Fill-19" fill="#FFFFFF"></path>
                                <path d="M94.6693932,101.841155 L50.5419897,100.751761 C48.380267,100.751761 46.6287123,98.9935623 46.6287123,96.8236393 L44.6534296,17.2176064 C44.6534296,15.0480774 48.380267,12.534296 50.5419897,12.534296 L96.3610908,12.534296 C98.5218323,12.534296 100.274368,14.2929876 100.274368,16.4627136 L100.274368,96.8236393 C100.274368,98.9935623 96.8311159,101.841155 94.6693932,101.841155" id="Fill-20" fill="#FFFFFF"></path>
                                <path d="M98.7075812,17.2589324 L98.7075812,97.9001101 C98.7075812,99.9274699 97.1663686,101.601945 95.2000621,101.819409 L95.1921534,101.826328 L95.1842447,101.819409 L95.1773245,101.819409 L95.1694158,101.826328 C95.1170205,101.826328 95.0497964,101.834236 95.0053098,101.834236 C94.9232568,101.841155 94.833295,101.841155 94.7660709,101.841155 L48.6028487,101.841155 C47.5183649,101.841155 46.5386717,101.408204 45.8199664,100.70441 C45.1694738,100.053995 44.7354826,99.1643681 44.6613383,98.1768827 C44.6613383,98.0869316 44.6534296,97.997969 44.6534296,97.9001101 L44.6534296,17.2589324 C44.6534296,17.1392282 44.6613383,17.0196229 44.6682585,16.9074311 L44.6682585,16.8326036 C44.6682585,16.8251901 44.6682585,16.8101653 44.6761672,16.7953382 C44.6761672,16.7803134 44.6830873,16.7728998 44.6830873,16.7653874 C44.712745,16.5560286 44.7582202,16.346571 44.8175356,16.1521382 C44.8175356,16.1371134 44.8175356,16.1296999 44.8254444,16.1221875 C44.8254444,16.1071627 44.8333531,16.0997491 44.8333531,16.0848232 C44.8333531,16.0698972 44.8333531,16.062286 44.8402732,16.0548724 L44.8481819,16.0474589 C44.8551021,16.0324341 44.8630108,16.0175081 44.8699309,15.9950697 L44.8778396,15.9875573 C44.8926685,15.9426806 44.9074974,15.9053163 44.9223262,15.8678532 C45.2446067,14.9779302 45.8871906,14.2600016 46.7106864,13.8261605 C46.7255153,13.8112345 46.7403442,13.803821 46.755173,13.7963086 L46.755173,13.788895 L46.7779106,13.7738702 L46.7848307,13.7664566 L46.8075683,13.7514318 L46.8144884,13.7439194 L46.8223972,13.7439194 L46.8223972,13.7365059 L46.8451348,13.7289935 C47.3760079,13.4598321 47.9741051,13.3176895 48.6028487,13.3176895 L94.7660709,13.3176895 C96.9350385,13.3176895 98.7075812,15.0750972 98.7075812,17.2589324" id="Fill-21" fill="#E7F2F4"></path>
                                <path d="M95.5740072,93.6130563 C95.5740072,94.6967657 94.7086052,95.5740072 93.6395218,95.5740072 L50.4970861,95.5740072 C49.9961665,95.5740072 49.5468981,95.3764303 49.2067795,95.0583315 C48.8169587,94.7056567 48.5703971,94.188993 48.5703971,93.6130563 L48.5703971,20.7626914 C48.5703971,19.6788832 49.4367737,18.801444 50.4970861,18.801444 L93.6395218,18.801444 C94.7086052,18.801444 95.5740072,19.6788832 95.5740072,20.7626914 L95.5740072,93.6130563 Z" id="Fill-22" fill="url(#linearGradient-10)"></path>
                                <path d="M75.2057762,16.4512039 C75.2057762,17.3165967 74.5041229,18.0180505 73.6389892,18.0180505 C72.7738554,18.0180505 72.0722022,17.3165967 72.0722022,16.4512039 C72.0722022,15.5859304 72.7738554,14.8844765 73.6389892,14.8844765 C74.5041229,14.8844765 75.2057762,15.5859304 75.2057762,16.4512039" id="Fill-23" fill="#FFFFFF"></path>
                                <path d="M59.5379061,41.2934806 L61.3238975,41.2934806 C62.5145583,37.2604092 65.8060961,34.1078115 69.9330644,33.0795994 L69.9330644,31.3357401 C64.8496313,32.4263479 60.8141765,36.3174421 59.5379061,41.2934806 Z M61.3238975,48.019042 L59.5379061,48.019042 C60.8141765,52.9894171 64.8496313,56.8804137 69.9330644,57.9711191 L69.9330644,56.2272598 C65.8060961,55.1991454 62.5145583,52.0521135 61.3238975,48.019042 Z M76.7109753,55.9488711 L76.7109753,57.7382335 C81.3476646,56.397652 84.9767202,52.6826135 86.1732852,48.019042 L84.3872939,48.019042 C83.2881466,51.7454075 80.3971039,54.7161884 76.7109753,55.9488711 Z M84.3872939,41.2934806 L86.1732852,41.2934806 C84.9767202,36.6242457 81.3476646,32.9092072 76.7109753,31.5686257 L76.7109753,33.3579881 C80.3971039,34.5963343 83.2881466,37.5671152 84.3872939,41.2934806 L84.3872939,41.2934806 Z" id="Fill-34" fill="#3F4765"></path>
                                <g id="Group-55" transform="translate(61.104693, 30.552347)">
                                    <mask id="mask-12" fill="white">
                                        <use xlink:href="#path-11"></use>
                                    </mask>
                                    <g id="Clip-36"></g>
                                    <path d="M14.5870526,11.8878304 C15.2940984,11.1574819 15.9633023,11.7017081 15.7701095,12.5576319 C15.5759209,13.4134561 14.9166753,14.2267579 14.6537738,13.7778336 C14.3908722,13.3288097 14.5870526,11.8878304 14.5870526,11.8878304" id="Fill-35" fill="#EF937B" mask="url(#mask-12)"></path>
                                    <path d="M14.7991663,12.3724058 C14.7991663,11.8509844 15.3199902,11.9139214 15.4275408,12.2025156 C15.5350915,12.4910102 15.3916906,12.2813861 15.2323564,12.3078754 C15.2323564,12.3078754 15.4245533,13.1460732 14.7991663,13.3504194 L14.8509499,12.9528804 C14.8509499,12.9528804 15.0232301,12.8604666 14.949538,12.7005348 C14.8748501,12.5405034 14.7991663,12.6256477 14.7991663,12.6256477 L14.7991663,12.3724058" id="Fill-37" fill="#D87E6C" mask="url(#mask-12)"></path>
                                    <path d="M8.17882733,11.8878304 C7.47277734,11.1574819 6.80257756,11.7017081 6.9967662,12.5576319 C7.19095484,13.4134561 7.85020039,14.2267579 8.11310194,13.7778336 C8.37500765,13.3288097 8.17882733,11.8878304 8.17882733,11.8878304" id="Fill-38" fill="#EF937B" mask="url(#mask-12)"></path>
                                    <path d="M7.96671358,12.3724058 C7.96671358,11.8509844 7.44588968,11.9139214 7.33933488,12.2025156 C7.23178425,12.4910102 7.37518509,12.2813861 7.53451937,12.3078754 C7.53451937,12.3078754 7.34132656,13.1460732 7.96671358,13.3504194 L7.91592578,12.9528804 C7.91592578,12.9528804 7.74264976,12.8604666 7.8173377,12.7005348 C7.8910298,12.5405034 7.96671358,12.6256477 7.96671358,12.6256477 L7.96671358,12.3724058" id="Fill-39" fill="#D87E6C" mask="url(#mask-12)"></path>
                                    <polyline id="Fill-40" fill="#232425" mask="url(#mask-12)" points="10.0729135 17.7352986 3.64775898 20.6070997 5.32475219 23.7069479 18.2188781 23.7069479 20.015372 20.3109371 12.8901426 17.5071518 10.0729135 17.7352986"></polyline>
                                    <path d="M9.78810347,16.2338718 C9.83889127,16.6576014 9.9235376,18.0653197 9.91059169,18.2980473 C9.90262498,18.4331827 9.93747935,18.5668243 10.0091798,18.6796529 C10.268098,19.0871503 10.9432769,20.0039199 11.7100731,19.8801371 C12.4280732,19.7642214 13.104248,19.0916316 13.4159457,18.7375112 C13.5304672,18.6083508 13.5852383,18.4332823 13.5683091,18.2570188 C13.5135379,17.7127926 13.4259041,16.4589315 13.6808389,15.8134285 C13.9447363,15.1458179 11.3296625,16.140263 10.2501729,16.5745484 C9.99922138,16.6758253 9.75424494,15.9511531 9.78810347,16.2338718" id="Fill-41" fill="#EF937B" mask="url(#mask-12)"></path>
                                    <path d="M8.00754298,12.1461511 C8.00754298,12.1461511 8.00256379,13.8585962 8.26845285,14.9206587 C8.53434192,15.9827212 10.6236126,17.5650101 11.2728997,17.5760639 C11.921191,17.5872173 14.2175962,15.7461098 14.5422398,14.6928107 C14.8668834,13.6395116 14.8668834,10.9987452 14.8668834,10.9987452 C14.8668834,10.9987452 13.506567,9.03046901 12.6879872,8.8899561 C11.8704032,8.74954277 11.4501591,8.13291914 10.5021202,8.42848421 C9.55308542,8.72404929 8.86496053,8.77503625 8.53434192,9.33529539 C8.20272747,9.8956541 8.00754298,12.1461511 8.00754298,12.1461511" id="Fill-42" fill="#FEAC84" mask="url(#mask-12)"></path>
                                    <path d="M15.030201,10.0094785 C15.2403231,10.5650572 14.7344368,12.0955625 14.7344368,12.0955625 C14.7344368,12.0955625 14.5621566,11.1893488 13.9078902,10.2121318 C13.8600899,10.1397343 13.9716239,9.86926436 13.9716239,9.86926436 L15.030201,10.0094785" id="Fill-43" fill="#051A2D" mask="url(#mask-12)"></path>
                                    <path d="M8.08721012,11.2377466 C9.74428654,9.66183106 11.3246834,10.6940184 12.8323839,10.3585202 C12.8323839,10.3585202 12.2587805,10.347068 12.0008582,9.95580279 C12.0008582,9.95580279 15.1835602,11.4403999 16.634498,9.71291761 C18.0844398,7.98543535 16.2401456,6.49715367 15.1755935,6.41360277 C15.1755935,6.41360277 16.3835465,7.01508964 15.8935936,7.95177599 C15.4036407,8.88846234 12.6959539,4.63164811 9.06910757,7.00164581 C5.88939301,9.07956388 7.60621979,11.6843805 7.60621979,11.6843805 L8.12206449,12.3571694 L8.08721012,11.2377466" id="Fill-44" fill="#051A2D" mask="url(#mask-12)"></path>
                                    <path d="M11.9869164,12.7340946 L12.8473215,13.4320783 L13.1679817,11.7172432 L11.9869164,12.7340946 Z M11.9590329,15.6553889 L11.9470828,15.6511067 C11.9430995,15.6475217 11.9291577,15.6339783 11.9411078,15.6085844 C11.9301536,15.504818 10.9064309,14.9427663 9.94843358,14.4681494 L9.91357921,14.4510209 L11.9072493,12.73519 L10.6076791,11.6817913 L8.79126843,12.8397531 L8.76338494,12.7965337 L10.6116625,11.6187547 L11.946087,12.7012319 L13.2446613,11.5832032 L12.8821759,13.5260855 L11.9470828,12.7679531 L10.0051964,14.4394692 C10.1296763,14.5016096 10.5708331,14.7229846 11.0010356,14.9549156 C11.8116487,15.3925869 11.9689913,15.5343944 11.9908998,15.5944435 C12.1532216,15.5016313 12.8991051,14.899049 13.3651579,14.512763 L13.3980206,14.5521982 C12.1920593,15.5520207 12.0008582,15.6553889 11.9590329,15.6553889 L11.9590329,15.6553889 Z" id="Fill-45" fill="#FFFFFF" mask="url(#mask-12)"></path>
                                    <path d="M10.8705807,11.6502232 C10.8705807,11.8090595 10.7411216,11.9378215 10.5827831,11.9378215 C10.4234489,11.9378215 10.2949856,11.8090595 10.2949856,11.6502232 C10.2949856,11.4914864 10.4234489,11.3627244 10.5827831,11.3627244 C10.7411216,11.3627244 10.8705807,11.4914864 10.8705807,11.6502232" id="Fill-46" fill="#FFFFFF" mask="url(#mask-12)"></path>
                                    <path d="M13.4936211,11.6502232 C13.4936211,11.8090595 13.3651579,11.9378215 13.2068194,11.9378215 C13.0474852,11.9378215 12.9190219,11.8090595 12.9190219,11.6502232 C12.9190219,11.4914864 13.0474852,11.3627244 13.2068194,11.3627244 C13.3651579,11.3627244 13.4936211,11.4914864 13.4936211,11.6502232" id="Fill-47" fill="#FFFFFF" mask="url(#mask-12)"></path>
                                    <path d="M13.1530441,13.4236136 C13.1530441,13.5825496 13.023585,13.7113116 12.8652466,13.7113116 C12.7059123,13.7113116 12.5774491,13.5825496 12.5774491,13.4236136 C12.5774491,13.2647773 12.7059123,13.1360153 12.8652466,13.1360153 C13.023585,13.1360153 13.1530441,13.2647773 13.1530441,13.4236136" id="Fill-48" fill="#FFFFFF" mask="url(#mask-12)"></path>
                                    <path d="M10.2890106,14.3664742 C10.2890106,14.5253105 10.1605473,14.6540725 10.0022089,14.6540725 C9.84287463,14.6540725 9.71441137,14.5253105 9.71441137,14.3664742 C9.71441137,14.2075382 9.84287463,14.0787762 10.0022089,14.0787762 C10.1605473,14.0787762 10.2890106,14.2075382 10.2890106,14.3664742" id="Fill-49" fill="#FFFFFF" mask="url(#mask-12)"></path>
                                    <path d="M12.2518096,15.631887 C12.2518096,15.7906238 12.1233464,15.9193858 11.9640121,15.9193858 C11.8056737,15.9193858 11.6762146,15.7906238 11.6762146,15.631887 C11.6762146,15.4729511 11.8056737,15.3441891 11.9640121,15.3441891 C12.1233464,15.3441891 12.2518096,15.4729511 12.2518096,15.631887" id="Fill-50" fill="#FFFFFF" mask="url(#mask-12)"></path>
                                    <path d="M13.5573548,14.5710195 C13.5573548,14.7298559 13.4288916,14.8586179 13.2695573,14.8586179 C13.1112189,14.8586179 12.9827556,14.7298559 12.9827556,14.5710195 C12.9827556,14.4121832 13.1112189,14.2834212 13.2695573,14.2834212 C13.4288916,14.2834212 13.5573548,14.4121832 13.5573548,14.5710195" id="Fill-51" fill="#FFFFFF" mask="url(#mask-12)"></path>
                                    <path d="M9.09499939,12.7678535 C9.09499939,12.9266899 8.96653613,13.0554519 8.80720186,13.0554519 C8.64886343,13.0554519 8.51940433,12.9266899 8.51940433,12.7678535 C8.51940433,12.6090172 8.64886343,12.4802552 8.80720186,12.4802552 C8.96653613,12.4802552 9.09499939,12.6090172 9.09499939,12.7678535" id="Fill-52" fill="#FFFFFF" mask="url(#mask-12)"></path>
                                    <path d="M15.8935936,10.1660244 C15.680484,10.2684963 15.4374992,10.3822211 15.1656351,10.5040123 C13.6888056,10.7427149 12.001854,9.95610154 12.001854,9.95610154 C12.2587805,10.3468688 12.8323839,10.3586197 12.8323839,10.3586197 C11.3246834,10.694118 9.74428654,9.66203023 8.08721012,11.2375474 C8.06530166,10.3258566 8.57616717,8.9803783 10.2890106,8.80272058 L9.88569571,9.30761106 C9.88569571,9.30761106 10.8118262,8.44621015 12.0795295,8.80272058 C13.3472328,9.15813559 14.6716989,9.77167212 15.4623952,9.3092044 C15.4225616,9.34654837 14.6926115,10.0021093 13.9706281,9.86946353 C13.9706281,9.86946353 14.9734382,10.3074336 15.8935936,10.1660244" id="Fill-53" fill="#051A2D" mask="url(#mask-12)"></path>
                                    <path d="M16.6524231,9.86946353 C16.5219681,9.96327158 16.3815548,10.0333787 16.2341706,10.083071 C16.1236324,10.1215104 16.0091109,10.1485973 15.8935936,10.1660244 C16.1286116,10.053395 16.3257878,9.9545082 16.4841262,9.87414398 C17.0258628,9.59909319 17.1105091,9.53764991 16.6524231,9.86946353" id="Fill-54" fill="#051A2D" mask="url(#mask-12)"></path>
                                </g>
                                <path d="M87.7400722,69.3302781 C87.7400722,69.8716803 87.5106752,70.3596732 87.1416877,70.7139553 C86.7727001,71.0681437 86.257289,71.2888087 85.6930699,71.2888087 L61.5780753,71.2888087 C60.4496372,71.2888087 59.5379061,70.4131763 59.5379061,69.3302781 C59.5379061,68.7888758 59.7673031,68.3008829 60.1362907,67.9466008 C60.5052782,67.5923187 61.0138563,67.3718412 61.5780753,67.3718412 L85.6930699,67.3718412 C86.821508,67.3718412 87.7400722,68.2473799 87.7400722,69.3302781" id="Fill-56" fill="#212D69"></path>
                                <path d="M79.9061372,69.3302781 C79.9061372,69.8716803 79.6757671,70.3596732 79.3067845,70.7139553 C78.9309688,71.0681437 78.4223976,71.2888087 77.8591622,71.2888087 L61.5780481,71.2888087 C60.4496251,71.2888087 59.5379061,70.4131763 59.5379061,69.3302781 C59.5379061,68.7888758 59.7673001,68.3008829 60.1362827,67.9466008 C60.5052653,67.5923187 61.0138366,67.3718412 61.5780481,67.3718412 L77.8591622,67.3718412 C78.9866091,67.3718412 79.9061372,68.2473799 79.9061372,69.3302781" id="Fill-57" fill="#FFFFFF"></path>
                                <path d="M56.2581725,33.6859206 L29.914426,33.6859206 C29.8340873,33.6859206 29.7689531,33.619926 29.7689531,33.5384267 L29.7689531,21.299019 C29.7689531,21.2176191 29.8340873,21.1516245 29.914426,21.1516245 L56.2581725,21.1516245 C56.3386094,21.1516245 56.4043321,21.2176191 56.4043321,21.299019 L56.4043321,33.5384267 C56.4043321,33.619926 56.3386094,33.6859206 56.2581725,33.6859206" id="Fill-58" fill="#F58220"></path>
                                <polygon id="Fill-59" fill="#FFFFFF" points="31.3357401 25.0685921 39.1696751 25.0685921 39.1696751 23.5018051 31.3357401 23.5018051"></polygon>
                                <polygon id="Fill-60" fill="#FFFFFF" points="31.3357401 28.9855596 53.2707581 28.9855596 53.2707581 27.4187726 31.3357401 27.4187726"></polygon>
                                <polygon id="Fill-61" fill="#FFFFFF" points="31.3357401 30.5523466 53.2707581 30.5523466 53.2707581 28.9855596 31.3357401 28.9855596"></polygon>
                                <path d="M119.713046,56.4043321 L93.3690054,56.4043321 C93.2885685,56.4043321 93.2238267,56.3382387 93.2238267,56.2568394 L93.2238267,44.0175288 C93.2238267,43.9360301 93.2885685,43.8700361 93.3690054,43.8700361 L119.713046,43.8700361 C119.793483,43.8700361 119.859206,43.9360301 119.859206,44.0175288 L119.859206,56.2568394 C119.859206,56.3382387 119.793483,56.4043321 119.713046,56.4043321" id="Fill-62" fill="#F58220"></path>
                                <polygon id="Fill-63" fill="#FFFFFF" points="95.5740072 51.7039711 109.67509 51.7039711 109.67509 47.0036101 95.5740072 47.0036101"></polygon>
                                <polygon id="Fill-64" fill="#FFFFFF" points="95.5740072 54.8375451 117.509025 54.8375451 117.509025 53.2707581 95.5740072 53.2707581"></polygon>
                                <path d="M27.3856102,71.1032288 C27.3856102,71.1032288 27.0581649,75.3224349 27.9106519,80.1209563 L27.6755172,92.4624124 L25.8519856,110.164102 L29.2076562,110.164102 L33.5009931,92.4295928 L34.7162847,78.213144 L37.2369995,92.9686296 L37.577717,110.458484 L40.7491625,110.164102 L43.0866426,90.4614124 L40.6015843,68.1552347 L27.3856102,71.1032288" id="Fill-69" fill="#1F2F69"></path>
                                <path d="M25.0483144,110.437107 L24.2851986,114.375451 L32.1191336,114.375451 C32.1191336,114.375451 31.7003566,112.974019 29.9030218,112.233694 C28.1052863,111.493368 28.4426122,109.67509 28.4426122,109.67509 L25.0483144,110.437107" id="Fill-70" fill="#3F4765"></path>
                                <path d="M36.7984572,110.437107 L36.0361011,114.375451 L43.8700361,114.375451 C43.8700361,114.375451 43.4512912,112.974019 41.6530926,112.233694 C39.8558957,111.493368 40.1924945,109.67509 40.1924945,109.67509 L36.7984572,110.437107" id="Fill-71" fill="#3F4765"></path>
                                <g id="Group-74" transform="translate(44.653430, 47.787004)">
                                    <mask id="mask-14" fill="white">
                                        <use xlink:href="#path-13"></use>
                                    </mask>
                                    <g id="Clip-73" style="mix-blend-mode: luminosity;"></g>
                                </g>
                                <path d="M32.9025271,52.9807927 C33.8205493,52.3196185 34.3073958,51.2582894 34.5857497,50.1371841 L37.6028881,50.7811062 C37.2099178,51.9737377 36.8638857,53.0887813 37.3496406,54.0541516 L32.9025271,52.9807927" id="Fill-76" fill="#FEAC84"></path>
                                <path d="M32.8358229,50.3316246 C32.529108,50.7704067 36.5793695,52.213081 37.7737294,51.5175093 C38.9599645,50.8263601 39.8486252,45.1797798 38.471455,43.5977028 L36.5367138,43.1760335 C33.9946364,42.622172 31.6912279,44.7266728 32.1868467,47.1507423 L32.8358229,50.3316246" id="Fill-77" fill="#FEAC84"></path>
                                <path d="M26.7051447,75.6723662 C27.8883447,77.4751619 38.3157245,76.9170548 40.7254985,75.0515549 C39.3468251,69.8152584 41.2454056,63.2873935 40.596732,55.1245705 C38.7107377,53.0335729 32.2956462,51.5784197 29.4424505,53.1482998 C26.8108688,54.6297611 26.4466434,69.8904243 26.7051447,75.6723662" id="Fill-78" fill="#438AE2"></path>
                                <path d="M35.9722665,46.1654246 C39.1167252,46.3715052 38.3165641,45.4794251 38.9907918,43.9933023 C39.8645755,42.0696576 37.4863728,41.983218 32.9702094,42.7665953 C29.3610567,43.3926776 30.3795668,48.7763273 32.2378586,50.1045743 C34.3438515,51.6100564 35.1682306,50.7729568 34.9754557,49.6751833 C34.7826808,48.5775065 33.0806432,47.906704 34.1588264,47.3120807 C35.2379783,46.7175541 35.7107126,48.4507025 35.7107126,48.4507025 C35.7107126,48.4507025 35.1604808,46.1121864 35.9722665,46.1654246" id="Fill-79" fill="#051A2D"></path>
                                <path d="M52.9663815,47.0036101 L50.2945086,46.9368227 C50.1640605,46.9368227 50.0465647,46.8288321 50.0308369,46.6955448 L49.3545422,41.807511 C49.3397396,41.6742236 49.5469763,41.5198556 49.6774244,41.5198556 L52.443664,41.5198556 C52.5741121,41.5198556 52.692533,41.6278461 52.7073357,41.7610377 L53.2698352,46.6955448 C53.285563,46.8288321 53.0968296,47.0036101 52.9663815,47.0036101" id="Fill-80" fill="#5666AF"></path>
                                <path d="M52.6898225,41.764069 L53.2691219,46.7594949 C53.2835803,46.885284 53.2006855,46.9887825 53.0811629,47.0023336 L53.080199,47.0023336 L53.0792351,47.0027263 L53.0686323,47.0032173 L53.0541739,47.0036101 L50.2068355,47.0036101 C50.1403269,47.0036101 50.07671,46.976999 50.0275515,46.9333018 C49.9822485,46.8931396 49.9494762,46.8380517 49.9379095,46.7768756 L49.9350178,46.7594949 L49.3557184,41.764069 L49.3547545,41.7422695 L49.3537906,41.7378507 L49.3537906,41.7356904 L49.3547545,41.7334319 C49.3547545,41.7207646 49.3557184,41.7077045 49.3586101,41.6955282 L49.3586101,41.6898328 L49.359574,41.6893419 L49.3605379,41.685905 L49.3605379,41.685414 L49.3624656,41.6780493 C49.3759601,41.6220776 49.4116242,41.5767111 49.4607827,41.549609 L49.4607827,41.5492162 L49.4617466,41.5483324 L49.4627105,41.5478415 L49.4636744,41.5470559 L49.4636744,41.5465649 L49.4646382,41.5461721 C49.4954828,41.529577 49.5321107,41.5198556 49.5706664,41.5198556 L52.4189687,41.5198556 C52.5529498,41.5198556 52.6744002,41.6291477 52.6898225,41.764069" id="Fill-81" fill="#1F2F69"></path>
                                <path d="M52.0134441,42.423326 L52.4866319,46.8835332 C52.4936033,46.9498762 52.4500317,47.0036101 52.3899029,47.0036101 L49.9490209,47.0036101 C49.921135,47.0036101 49.8941206,46.991486 49.8732062,46.9719905 C49.8488061,46.9503611 49.8313775,46.9187415 49.8278918,46.8835332 L49.354704,42.423326 C49.3468611,42.356983 49.3904327,42.3032491 49.4505616,42.3032491 L51.8914436,42.3032491 C51.9515724,42.3032491 52.0064727,42.356983 52.0134441,42.423326" id="Fill-82" fill="#FFFFFF"></path>
                                <path d="M51.0025848,42.3031998 C51.007525,42.3478787 50.9759078,42.3839769 50.930458,42.3839769 C50.8850082,42.3839769 50.8435106,42.3478787 50.8385704,42.3031998 C50.8336303,42.2586195 50.8652475,42.2225213 50.9106972,42.2225213 C50.956147,42.2225213 50.9976446,42.2586195 51.0025848,42.3031998" id="Fill-83" fill="#FFFFFF"></path>
                                <path d="M54.0541516,47.7656917 L53.0104479,50.4249612 C51.679557,54.1491843 50.1077373,59.1532102 49.390733,59.6285539 C47.9403414,60.3285498 44.9412593,60.3004683 42.0491495,60.3212996 L39.9530686,55.4620723 L46.895674,56.4148019 L51.1755339,49.371955 L52.6220706,47.0036101 L54.0541516,47.7656917" id="Fill-84" fill="#FEAC84"></path>
                                <path d="M52.6489109,46.6038628 L52.4873646,45.9925242 C52.521703,45.5974133 52.7214897,45.6871078 52.9283002,45.9003007 L52.746463,44.6534296 C52.746463,44.6534296 53.5799483,45.0378345 53.7274471,45.711386 C53.7243254,46.1177929 54.2831039,47.2390581 53.9459638,47.7870036 L52.7878251,47.1631887 L52.6489109,46.6038628" id="Fill-85" fill="#FEAC84"></path>
                                <path d="M47.6222401,59.5406911 C47.4171018,59.55811 43.3153358,60.2754232 40.8576786,60.3212996 L39.9530686,54.0541516 L46.7786712,55.2573703 C47.8283791,56.5896102 47.9584668,58.2230345 47.6222401,59.5406911" id="Fill-86" fill="#357DDA"></path>
                                <g id="Group-89" transform="translate(39.953069, 43.870036)">
                                    <mask id="mask-16" fill="white">
                                        <use xlink:href="#path-15"></use>
                                    </mask>
                                    <g id="Clip-88"></g>
                                    <path d="M2.99699105,7.81186625 C0.729577774,6.85354671 -1.02897033,2.74159065 0.719359598,0.232151977 L4.68299011,0.0113687594 L4.68299011,6.60935722 L2.99699105,7.81186625" id="Fill-87" fill="url(#linearGradient-17)" opacity="0.168968564" mask="url(#mask-16)"></path>
                                </g>
                                <polyline id="Fill-90" fill="#5D4F76" points="44.6534296 50.1371841 44.6534296 43.2772542 47.7870036 43.0866426 47.7870036 44.8536981 45.3597241 44.9963339 44.6534296 45.0414291 44.6534296 50.1371841"></polyline>
                                <polyline id="Fill-91" fill="#BEC3D3" points="47.7870036 44.6534296 47.7870036 43.1632857 49.1661353 43.0866426 49.3537906 44.5649759 47.7887994 44.6533458 47.7870036 44.6534296"></polyline>
                                <polyline id="Fill-92" fill="#54496D" points="44.6534296 50.1371841 44.6534296 44.8482765 45.3597241 44.801472 47.7870036 44.6534296 47.7870036 47.6035559 44.6534296 50.1371841"></polyline>
                                <polyline id="Fill-93" fill="#ACB0C1" points="47.7870036 47.7870036 47.7870036 44.7649507 47.788634 44.7648451 49.2095027 44.6534296 49.3537906 46.2389091 47.7870036 47.7870036"></polyline>
                                <polyline id="Fill-94" fill="#1F2F69" points="49.8815217 46.2202166 49.639531 44.7851502 49.3537906 43.0981132 49.6313279 43.0866426 50.1371841 46.083621 49.8815217 46.2202166"></polyline>
                                <path d="M49.7809448,46.2202166 L49.3537906,43.1607078 L50.8084237,43.0874233 C50.8153505,43.0869353 50.8234318,43.0866426 50.8303586,43.0866426 C51.4260655,43.0866426 52.0113821,44.8150265 51.5207321,45.0983089 L49.7809448,46.2202166" id="Fill-95" fill="#BEC3D3"></path>
                                <path d="M38.0890744,43.8700361 C38.4946767,44.4148532 38.3673365,46.2202166 38.3673365,46.2202166 C38.3673365,46.2202166 37.9016013,45.283386 36.8628349,44.4045694 C36.7861949,44.3394015 36.834537,44.0142327 36.834537,44.0142327 L38.0890744,43.8700361" id="Fill-96" fill="#051A2D"></path>
                                <path d="M32.7655277,47.4529055 C33.9519557,45.4373225 35.7018638,46.0660279 37.0501216,45.3371436 C37.0501216,45.3371436 36.5032144,45.4743721 36.1629816,45.1475488 C36.1629816,45.1475488 39.5428877,45.8159946 40.4953446,43.7012676 C41.4487764,41.586644 39.3362133,40.567365 38.3067409,40.7593401 C38.3067409,40.7593401 39.5994307,41.0512871 39.3635099,42.1210695 C39.1275891,43.1908519 35.5185865,39.6079036 32.6612156,42.9353336 C29.8271444,46.2357525 32.4194456,48.0271749 32.4194456,48.0271749 L33.0726147,48.5703971 L32.7655277,47.4529055" id="Fill-97" fill="#051A2D"></path>
                                <path d="M34.4693141,10.9674626 C34.4693141,11.8327925 33.7679338,12.534296 32.9023415,12.534296 C32.037677,12.534296 31.3357401,11.8327925 31.3357401,10.9674626 C31.3357401,10.1022255 32.037677,9.40072202 32.9023415,9.40072202 C33.7679338,9.40072202 34.4693141,10.1022255 34.4693141,10.9674626" id="Fill-98" fill="#FF9A00"></path>
                                <path d="M108.891697,33.2941658 C108.891697,33.9431439 108.365693,34.4693141 107.716606,34.4693141 C107.06752,34.4693141 106.541516,33.9431439 106.541516,33.2941658 C106.541516,32.6451877 107.06752,32.1191336 107.716606,32.1191336 C108.365693,32.1191336 108.891697,32.6451877 108.891697,33.2941658" id="Fill-99" fill="#FF9A00"></path>
                                <path d="M21.1516245,47.7869578 C21.1516245,48.219706 20.8008623,48.5703971 20.368231,48.5703971 C19.9355998,48.5703971 19.5848375,48.219706 19.5848375,47.7869578 C19.5848375,47.3543929 19.9355998,47.0036101 20.368231,47.0036101 C20.8008623,47.0036101 21.1516245,47.3543929 21.1516245,47.7869578" id="Fill-100" fill="#FF9A00"></path>
                                <path d="M50.9205776,1.56683285 C50.9205776,1.99939772 50.5703654,2.35018051 50.1376425,2.35018051 C49.7049196,2.35018051 49.3537906,1.99939772 49.3537906,1.56683285 C49.3537906,1.13408461 49.7049196,0.783393502 50.1376425,0.783393502 C50.5703654,0.783393502 50.9205776,1.13408461 50.9205776,1.56683285" id="Fill-101" fill="#FF9A00"></path>
                                <path d="M126.909747,12.534296 C126.909747,12.9669273 126.558618,13.3176895 126.125895,13.3176895 C125.693172,13.3176895 125.34296,12.9669273 125.34296,12.534296 C125.34296,12.1016648 125.693172,11.7509025 126.125895,11.7509025 C126.558618,11.7509025 126.909747,12.1016648 126.909747,12.534296" id="Fill-102" fill="#FF9A00"></path>
                                <path d="M13.2695312,9.54598014 L6.40472176,16.5320548 L12.794057,23.3479448 L18.6727201,15.6116306 L13.2695312,9.54598014 Z M6.26714801,16.5304908 L13.2732521,9.40072202 L18.801444,15.606743 L18.7775094,15.6382189 L12.8021022,23.5018051 L6.26714801,16.5304908 L6.26714801,16.5304908 Z" id="Fill-103" fill="#FFFFFF"></path>
                                <polyline id="Fill-104" fill="#FFFFFF" points="6.26714801 16.3544125 12.9073744 16.036714 13.2163283 9.40072202 13.3176895 9.40498773 13.0046771 16.1291054 6.27222115 16.4512635 6.26714801 16.3544125"></polyline>
                                <polyline id="Fill-105" fill="#FFFFFF" points="13.6080167 16.27904 19.5739052 15.66787 19.5848375 15.7661874 13.7076459 16.3683565 13.4208253 23.5018051 13.3176895 23.4979475 13.6080167 16.27904"></polyline>
                                <path d="M13.1849298,18.0123132 C12.3227077,17.9390297 11.6833394,17.1806056 11.7566229,16.3185033 C11.8300265,15.4564011 12.5883302,14.8169124 13.4504323,14.8901959 C14.3126544,14.9635996 14.9521429,15.7219036 14.8787393,16.584126 C14.8054558,17.4462282 14.0470319,18.0857169 13.1849298,18.0123132" id="Fill-106" fill="#FFFFFF"></path>
                                <path d="M13.1848271,11.7451831 C12.3227248,11.6717791 11.6832362,10.913471 11.7566398,10.051364 C11.8299233,9.18913694 12.5882273,8.54976498 13.4504497,8.62304888 C14.312552,8.69633277 14.9520406,9.45476102 14.8787571,10.316868 C14.8053535,11.1789749 14.0470495,11.818467 13.1848271,11.7451831" id="Fill-107" fill="#FFFFFF"></path>
                                <path d="M18.6686906,16.4469733 C17.8065219,16.3919253 17.1669957,15.8231514 17.2403931,15.1766086 C17.3136791,14.5298987 18.0720445,14.0503377 18.9342132,14.1053857 C19.7963819,14.1603502 20.4357967,14.7291241 20.3625107,15.3757504 C20.2891133,16.0223768 19.5307479,16.5019378 18.6686906,16.4469733" id="Fill-108" fill="#FFFFFF"></path>
                                <path d="M12.4015426,24.2794623 C11.5393739,24.2061741 10.8998477,23.4477855 10.9732451,22.5855905 C11.0465311,21.7235069 11.8048965,21.0839612 12.6670652,21.1573608 C13.5292338,21.230649 14.1686487,21.9890376 14.0953627,22.8512326 C14.0219653,23.7133162 13.2635999,24.3528619 12.4015426,24.2794623" id="Fill-109" fill="#FFFFFF"></path>
                                <path d="M6.13432699,18.0123145 C5.27224338,17.9390285 4.63269764,17.1806631 4.70609726,16.3184944 C4.77938551,15.4563257 5.53777405,14.8169109 6.39996904,14.8901969 C7.26205265,14.9635943 7.90159839,15.7219597 7.82819877,16.584017 C7.75491052,17.4461856 6.99652198,18.0857119 6.13432699,18.0123145" id="Fill-110" fill="#FFFFFF"></path>
                                <path d="M124.321574,29.6562377 C124.197619,29.7580463 124.024083,29.7324064 123.929877,29.5986284 C123.835672,29.4649576 123.859471,29.2765741 123.983425,29.1747655 C124.106389,29.0730642 124.280917,29.0987041 124.375122,29.2324821 C124.469328,29.3662601 124.445528,29.5545363 124.321574,29.6562377 Z M122.99278,29.3984441 L125.456007,32.9025271 L126.909747,31.7063563 L124.44652,28.2021661 L122.99278,29.3984441 L122.99278,29.3984441 Z" id="Fill-111" fill="#FFFFFF"></path>
                                <path d="M127.210871,31.3357401 L129.355939,29.6102722 C130.12149,28.9943866 130.270215,27.8387314 129.687709,27.0288755 L128.779154,25.7653471 C129.161453,25.4581604 129.234862,24.8817947 128.945039,24.4779253 C128.654263,24.074056 128.108939,23.9957218 127.727594,24.3028077 L125.960058,25.7558704 L125.783686,24.252198 C125.712183,23.6405466 125.040062,23.2838592 124.570054,23.6490152 L124.559567,23.6577862 L124.975233,28.2280833 L127.210871,31.3357401" id="Fill-112" fill="#FFFFFF"></path>
                            </g>
                            <g id="Group-39" stroke-width="1" fill="none" transform="translate(175.115523, 48.115523)">
                                <circle id="Oval" fill="#FCCBA2" cx="20.5" cy="20.5" r="20.5"></circle>
                                <g id="timer-(1)" transform="translate(4.305085, 4.305085)" fill="#FA8D30" fill-rule="nonzero">
                                    <path d="M15.8438304,0.0823056123 L15.8438304,15.8849832 L0.0411528062,15.8849832 C0.0411528062,24.612561 7.11625255,31.6876608 15.8438304,31.6876608 C24.5714082,31.6876608 31.6465079,24.612561 31.6465079,15.8849832 C31.6465079,7.15740535 24.5714082,0.0823056123 15.8438304,0.0823056123 Z" id="Path"></path>
                                </g>
                            </g>
                        </g>
                    </g>
                </g>
            </g>
        </g>
    </g>
</svg>