<svg width="16" height="16" viewBox="0 0 16 16" fill="none" xmlns="http://www.w3.org/2000/svg">
<path d="M9.06904 11.2727C8.90548 11.2879 8.74126 11.251 8.59995 11.1672C8.4967 11.0612 8.4472 10.9141 8.46542 10.7672C8.46923 10.645 8.48383 10.5233 8.50904 10.4036C8.53345 10.2663 8.56498 10.1303 8.60358 9.99632L9.03267 8.51994C9.07692 8.37422 9.10617 8.22435 9.11995 8.07266C9.11995 7.90903 9.14176 7.79628 9.14176 7.73085C9.15089 7.43919 9.02636 7.15932 8.80358 6.97085C8.52954 6.76047 8.18829 6.65707 7.84358 6.67994C7.59654 6.68366 7.35142 6.7241 7.11629 6.79994C6.85933 6.87994 6.58901 6.97569 6.30539 7.08722L6.18176 7.56722C6.26539 7.53813 6.36723 7.50541 6.48358 7.46903C6.59458 7.43616 6.70964 7.419 6.82539 7.41813C6.98776 7.40053 7.1512 7.44041 7.2872 7.53085C7.37958 7.64107 7.42292 7.78425 7.4072 7.92722C7.40679 8.0495 7.39339 8.17141 7.3672 8.29085C7.34173 8.41813 7.30901 8.55266 7.26901 8.69447L6.83629 10.1781C6.80142 10.316 6.77351 10.4556 6.75267 10.5963C6.73567 10.7168 6.72717 10.8383 6.7272 10.9599C6.72542 11.2536 6.8597 11.5315 7.09083 11.7126C7.36908 11.9263 7.7152 12.0322 8.06536 12.0108C8.31192 12.0159 8.55764 11.9803 8.79264 11.9053C8.9987 11.835 9.27386 11.7344 9.61811 11.6035L9.73448 11.1453C9.64123 11.184 9.5452 11.2156 9.4472 11.2399C9.32326 11.2682 9.19601 11.2792 9.06904 11.2727Z" fill="#F58220"/>
<path d="M9.52358 4.27275C9.32567 4.091 9.06492 3.99322 8.79629 4.00003C8.52783 3.99397 8.26733 4.09165 8.06901 4.27275C7.70551 4.58618 7.66492 5.13497 7.97839 5.4985C8.00633 5.5309 8.03661 5.56118 8.06901 5.58912C8.48314 5.95953 9.10945 5.95953 9.52354 5.58912C9.88704 5.27259 9.92514 4.72134 9.60861 4.35784C9.58229 4.32756 9.55386 4.29912 9.52358 4.27275Z" fill="#F58220"/>
<path fill-rule="evenodd" clip-rule="evenodd" d="M0 8C0 3.58172 3.58172 0 8 0C12.4183 0 16 3.58172 16 8C16 12.4183 12.4183 16 8 16C3.58172 16 0 12.4183 0 8ZM0.727281 8C0.727281 12.0166 3.98338 15.2727 8 15.2727C12.0166 15.2727 15.2727 12.0166 15.2727 8C15.2727 3.98338 12.0166 0.727281 8 0.727281C3.98338 0.727281 0.727281 3.98338 0.727281 8Z" fill="#F58220"/>
</svg>
