<svg width="16" height="15" viewBox="0 0 16 15" fill="none" xmlns="http://www.w3.org/2000/svg">
<path fill-rule="evenodd" clip-rule="evenodd" d="M0.499949 7.5H2.49995C2.63258 7.49992 2.7598 7.55258 2.85359 7.64636C2.94738 7.74015 3.00003 7.86737 2.99995 8V8.54555L6.83995 7.29C6.93215 7.25965 7.03122 7.25694 7.12495 7.2822L10.0099 8.0572C10.276 8.12885 10.4341 8.40219 10.3634 8.66855L10.1198 9.5841C10.0137 9.98251 9.75342 10.3223 9.39647 10.5287C9.03952 10.735 8.61516 10.7909 8.21695 10.6841C8.18006 10.6743 8.14434 10.6637 8.10965 10.6534C7.92865 10.5999 7.77562 10.5546 7.6315 10.6631C7.54796 10.7262 7.49918 10.825 7.49995 10.9297C7.50009 11.1149 7.65019 11.265 7.8354 11.2652H10.2363L11.0829 10.7759C11.967 10.2677 13.0955 10.5698 13.6073 11.4517C13.6376 11.504 13.6689 11.5562 13.6999 11.608C13.956 12.0357 14.1976 12.4392 13.7499 12.6983L11.1499 14.1983C11.0739 14.2422 10.9877 14.2653 10.8999 14.2652H2.99995V14.5C3.00003 14.6326 2.94738 14.7599 2.85359 14.8536C2.7598 14.9474 2.63258 15.0001 2.49995 15H0.499949C0.367316 15.0001 0.240092 14.9474 0.146307 14.8536C0.0525217 14.7599 -0.000131607 14.6326 -5.14984e-05 14.5V8C-0.000131607 7.86737 0.0525217 7.74015 0.146307 7.64636C0.240092 7.55258 0.367316 7.49992 0.499949 7.5ZM10.766 13.265L12.8168 12.0821C12.7259 11.8476 12.5375 11.6642 12.3006 11.5798C12.0637 11.4953 11.8017 11.518 11.5829 11.6421L10.6199 12.1983C10.5439 12.2421 10.4577 12.2652 10.3699 12.2652H7.8353C7.26306 12.2651 6.75445 11.9005 6.57065 11.3586C6.38684 10.8166 6.56868 10.2178 7.0228 9.86965C7.44471 9.56157 7.99956 9.50378 8.4759 9.7183C8.61752 9.7565 8.76852 9.73672 8.89551 9.66332C9.02251 9.58993 9.11504 9.46898 9.15265 9.3272L9.26835 8.8936L7.00905 8.28665L2.99995 9.59765V13.265H10.766ZM1.99995 14H0.999949V8.5H1.99995V14Z" fill="#BAC5D1"/>
<path fill-rule="evenodd" clip-rule="evenodd" d="M5 3C5 4.10457 5.89543 5 7 5C8.10407 4.99879 8.99879 4.10407 9 3C9 1.89543 8.10457 1 7 1C5.89543 1 5 1.89543 5 3ZM5.66667 3C5.66667 2.26362 6.26362 1.66667 7 1.66667C7.73607 1.6674 8.3326 2.26393 8.33333 3C8.33333 3.73638 7.73638 4.33333 7 4.33333C6.26362 4.33333 5.66667 3.73638 5.66667 3Z" fill="#BAC5D1"/>
<path d="M7 5L7.00027 5.25H7V5ZM9 3H9.25L9.25 3.00027L9 3ZM7 1.66667V1.41667L7.00025 1.41667L7 1.66667ZM8.33333 3L8.58333 2.99975V3H8.33333ZM7 5.25C5.75736 5.25 4.75 4.24264 4.75 3H5.25C5.25 3.9665 6.0335 4.75 7 4.75V5.25ZM9.25 3.00027C9.24864 4.2422 8.2422 5.24864 7.00027 5.25L6.99973 4.75C7.96594 4.74894 8.74894 3.96594 8.75 2.99973L9.25 3.00027ZM7 0.75C8.24264 0.75 9.25 1.75736 9.25 3H8.75C8.75 2.0335 7.9665 1.25 7 1.25V0.75ZM4.75 3C4.75 1.75736 5.75736 0.75 7 0.75V1.25C6.0335 1.25 5.25 2.0335 5.25 3H4.75ZM7 1.91667C6.40169 1.91667 5.91667 2.40169 5.91667 3H5.41667C5.41667 2.12555 6.12555 1.41667 7 1.41667V1.91667ZM8.08333 3.00025C8.08274 2.40205 7.59795 1.91726 6.99975 1.91667L7.00025 1.41667C7.8742 1.41754 8.58246 2.1258 8.58333 2.99975L8.08333 3.00025ZM7 4.08333C7.59831 4.08333 8.08333 3.59831 8.08333 3H8.58333C8.58333 3.87445 7.87445 4.58333 7 4.58333V4.08333ZM5.91667 3C5.91667 3.59831 6.40169 4.08333 7 4.08333V4.58333C6.12555 4.58333 5.41667 3.87445 5.41667 3H5.91667Z" fill="#BAC5D1"/>
<path fill-rule="evenodd" clip-rule="evenodd" d="M10 6C10 7.65685 11.3431 9 13 9C14.6561 8.99818 15.9982 7.6561 16 6C16 4.34315 14.6569 3 13 3C11.3431 3 10 4.34315 10 6ZM11 6C11 4.89543 11.8954 4 13 4C14.1041 4.0011 14.9989 4.89589 15 6C15 7.10457 14.1046 8 13 8C11.8954 8 11 7.10457 11 6Z" fill="#BAC5D1"/>
</svg>
