<svg width="14" height="17" viewBox="0 0 14 17" fill="none" xmlns="http://www.w3.org/2000/svg">
<g opacity="0.599049">
<path fill-rule="evenodd" clip-rule="evenodd" d="M9.41707 7.02115C10.3209 6.29556 10.8995 5.19007 10.8995 3.95349C10.8995 1.77351 9.10188 0 6.89231 0C4.68274 0 2.88515 1.77351 2.88515 3.95349C2.88515 5.19007 3.46369 6.29556 4.36755 7.02115C1.89826 7.42502 0 9.72496 0 12.493V15.7191C0 15.9811 0.215259 16.1935 0.480859 16.1935H13.3038C13.5694 16.1935 13.7846 15.9811 13.7846 15.7191V12.493C13.7846 9.72496 11.8864 7.42502 9.41707 7.02115ZM7.37317 7.90698V8.85581H6.41145V7.90698H7.37317ZM7.96785 12.3105L7.45982 9.80465H6.32479L5.81676 12.3105L6.89231 13.2018L7.96785 12.3105ZM3.84687 3.95349C3.84687 2.29673 5.21306 0.948837 6.89231 0.948837C8.57156 0.948837 9.93775 2.29673 9.93775 3.95349C9.93775 5.61025 8.57156 6.95814 6.89231 6.95814C5.21306 6.95814 3.84687 5.61025 3.84687 3.95349ZM0.961717 15.2447H12.8229V12.493C12.8229 9.96427 10.9469 7.90698 8.64093 7.90698H8.33488V9.28329L8.96676 12.4C9.0012 12.5699 8.93896 12.7448 8.80447 12.8562L7.20161 14.1846C7.1122 14.2587 7.00225 14.2958 6.89231 14.2958C6.78236 14.2958 6.67241 14.2587 6.583 14.1846L4.98014 12.8562C4.84565 12.7448 4.78354 12.5699 4.81798 12.4L5.44973 9.28329V7.90698H5.14369C2.83769 7.90698 0.961717 9.96427 0.961717 12.493V15.2447Z" fill="#8F97A0"/>
</g>
</svg>
