<svg width="76" height="77" viewBox="0 0 76 77" fill="none" xmlns="http://www.w3.org/2000/svg">
<g opacity="0.501707">
<path d="M39.7637 32.2834H38.9371C38.8899 31.8277 38.6442 31.4047 38.2845 31.1443H39.7637C39.8532 31.1443 39.9264 31.0711 39.9264 30.9816C39.9264 30.8921 39.8532 30.8188 39.7637 30.8188H36.3204C36.2309 30.8188 36.1577 30.8921 36.1577 30.9816C36.1577 31.0711 36.2309 31.1443 36.3204 31.1443H37.3066C37.977 31.1443 38.5303 31.6487 38.61 32.2834H36.3204C36.2309 32.2834 36.1577 32.3566 36.1577 32.4461C36.1577 32.5356 36.2309 32.6088 36.3204 32.6088H38.61C38.5286 33.2679 37.9689 33.7626 37.3066 33.7642H36.3221C36.2309 33.7658 36.1577 33.8407 36.1593 33.9318C36.1593 33.9757 36.1789 34.018 36.2098 34.049L38.6718 36.3776C38.7369 36.4394 38.8394 36.4361 38.9013 36.371C38.9631 36.3043 38.9599 36.2018 38.8948 36.1383L36.7289 34.0896H37.3049C38.1544 34.0896 38.8557 33.4387 38.9371 32.6088H39.7637C39.8532 32.6088 39.9264 32.5356 39.9264 32.4461C39.9264 32.3566 39.8532 32.2834 39.7637 32.2834Z" fill="#AAB2BA" stroke="#AAB2BA" stroke-width="0.5"/>
<path d="M42.8959 30.9088L44.2979 30.3848C44.1013 29.858 43.8393 29.3581 43.5179 28.8967L42.2896 29.7531C42.5386 30.1118 42.7423 30.5 42.8959 30.9088Z" fill="#AAB2BA" stroke="#F5F7F9" stroke-width="0.5"/>
<path d="M42.3949 27.6512C41.9704 27.283 41.5021 26.9687 41.0003 26.7156L40.3267 28.0532C40.7175 28.2498 41.0826 28.4939 41.4135 28.78L42.3949 27.6512Z" fill="#AAB2BA" stroke="#F5F7F9" stroke-width="0.5"/>
<path fill-rule="evenodd" clip-rule="evenodd" d="M47.7157 44.0756C48.7703 44.3479 49.5939 45.1715 49.8662 46.2262C50.2796 47.8273 49.3168 49.4604 47.7157 49.8738C46.1145 50.2872 44.4815 49.3244 44.068 47.7232C43.6546 46.1221 44.6175 44.489 46.2186 44.0756V42.4723H38.7332V44.0756C39.7878 44.3479 40.6114 45.1715 40.8837 46.2262C41.2971 47.8273 40.3343 49.4604 38.7332 49.8738C37.1321 50.2872 35.499 49.3244 35.0856 47.7232C34.6722 46.1221 35.635 44.489 37.2361 44.0756V42.4723H29.7507V44.0756C30.8054 44.3479 31.629 45.1715 31.9013 46.2262C32.3147 47.8273 31.3519 49.4604 29.7507 49.8738C28.1496 50.2872 26.5165 49.3244 26.1031 47.7232C25.6897 46.1221 26.6525 44.489 28.2537 44.0756V40.9752H37.2361V39.4339C33.829 39.0496 31.2525 36.17 31.2478 32.7413C31.2479 32.2619 31.299 31.7838 31.4005 31.3153C32.1885 27.6769 35.7768 25.3662 39.4151 26.1541L39.1007 27.6205C38.7339 27.5421 38.3598 27.5022 37.9847 27.5015C35.0908 27.5015 32.7449 29.8474 32.7449 32.7413C32.7449 35.6351 35.0908 37.981 37.9847 37.981C40.8785 37.981 43.2244 35.6351 43.2244 32.7413C43.2242 32.5532 43.2144 32.3654 43.1952 32.1784L44.6833 32.0234C44.7085 32.2619 44.7213 32.5015 44.7215 32.7413C44.7169 36.17 42.1404 39.0496 38.7332 39.4339V40.9752H47.7157V44.0756ZM29.0022 48.4606C29.829 48.4606 30.4993 47.7903 30.4993 46.9635C30.4993 46.1367 29.829 45.4664 29.0022 45.4664C28.1754 45.4664 27.5051 46.1367 27.5051 46.9635C27.5051 47.7903 28.1754 48.4606 29.0022 48.4606ZM39.4817 46.9635C39.4817 47.7903 38.8115 48.4606 37.9847 48.4606C37.1579 48.4606 36.4876 47.7903 36.4876 46.9635C36.4876 46.1367 37.1579 45.4664 37.9847 45.4664C38.8115 45.4664 39.4817 46.1367 39.4817 46.9635ZM45.47 46.9635C45.47 47.7903 46.1403 48.4606 46.9671 48.4606C47.7939 48.4606 48.4642 47.7903 48.4642 46.9635C48.4642 46.1367 47.7939 45.4664 46.9671 45.4664C46.1403 45.4664 45.47 46.1367 45.47 46.9635Z" fill="#AAB2BA"/>
<path d="M49.8662 46.2262L50.1083 46.1637L50.1083 46.1637L49.8662 46.2262ZM47.7157 44.0756H47.4657V44.2693L47.6532 44.3177L47.7157 44.0756ZM47.7157 49.8738L47.7782 50.1159L47.7782 50.1159L47.7157 49.8738ZM44.068 47.7232L43.826 47.7857L43.826 47.7857L44.068 47.7232ZM46.2186 44.0756L46.2811 44.3177L46.4686 44.2693V44.0756H46.2186ZM46.2186 42.4723H46.4686V42.2223H46.2186V42.4723ZM38.7332 42.4723V42.2223H38.4832V42.4723H38.7332ZM38.7332 44.0756H38.4832V44.2693L38.6707 44.3177L38.7332 44.0756ZM40.8837 46.2262L41.1258 46.1637L41.1258 46.1637L40.8837 46.2262ZM38.7332 49.8738L38.7957 50.1159L38.7957 50.1159L38.7332 49.8738ZM35.0856 47.7232L34.8435 47.7857L34.8435 47.7857L35.0856 47.7232ZM37.2361 44.0756L37.2986 44.3177L37.4861 44.2693V44.0756H37.2361ZM37.2361 42.4723H37.4861V42.2223H37.2361V42.4723ZM29.7507 42.4723V42.2223H29.5007V42.4723H29.7507ZM29.7507 44.0756H29.5007V44.2693L29.6882 44.3177L29.7507 44.0756ZM31.9013 46.2262L32.1434 46.1637L32.1434 46.1637L31.9013 46.2262ZM29.7507 49.8738L29.6882 49.6317L29.6882 49.6317L29.7507 49.8738ZM26.1031 47.7232L25.8611 47.7857L25.8611 47.7857L26.1031 47.7232ZM28.2537 44.0756L28.3162 44.3177L28.5037 44.2693V44.0756H28.2537ZM28.2537 40.9752V40.7252H28.0037V40.9752H28.2537ZM37.2361 40.9752V41.2252H37.4861V40.9752H37.2361ZM37.2361 39.4339H37.4861V39.2106L37.2641 39.1855L37.2361 39.4339ZM31.2478 32.7413L30.9978 32.7412L30.9978 32.7416L31.2478 32.7413ZM31.4005 31.3153L31.6449 31.3682L31.6449 31.3682L31.4005 31.3153ZM39.4151 26.1541L39.6596 26.2065L39.7119 25.9626L39.468 25.9098L39.4151 26.1541ZM39.1007 27.6205L39.0485 27.865L39.2928 27.9172L39.3452 27.6729L39.1007 27.6205ZM37.9847 27.5015L37.9851 27.2515H37.9847V27.5015ZM43.2244 32.7413L43.4744 32.7413L43.4744 32.7409L43.2244 32.7413ZM43.1952 32.1784L43.1693 31.9297L42.9211 31.9556L42.9465 32.2039L43.1952 32.1784ZM44.6833 32.0234L44.9319 31.9971L44.9057 31.7489L44.6574 31.7748L44.6833 32.0234ZM44.7215 32.7413L44.9715 32.7416L44.9715 32.741L44.7215 32.7413ZM38.7332 39.4339L38.7052 39.1855L38.4832 39.2106V39.4339H38.7332ZM38.7332 40.9752H38.4832V41.2252H38.7332V40.9752ZM47.7157 40.9752H47.9657V40.7252H47.7157V40.9752ZM50.1083 46.1637C49.8132 45.021 48.9209 44.1286 47.7782 43.8336L47.6532 44.3177C48.6197 44.5673 49.3746 45.3221 49.6241 46.2887L50.1083 46.1637ZM47.7782 50.1159C49.513 49.6679 50.5562 47.8985 50.1083 46.1637L49.6241 46.2887C50.003 47.7561 49.1206 49.2528 47.6532 49.6317L47.7782 50.1159ZM43.826 47.7857C44.2739 49.5206 46.0433 50.5638 47.7782 50.1159L47.6532 49.6317C46.1857 50.0106 44.689 49.1282 44.3101 47.6607L43.826 47.7857ZM46.1561 43.8336C44.4213 44.2815 43.3781 46.0509 43.826 47.7857L44.3101 47.6607C43.9312 46.1933 44.8136 44.6966 46.2811 44.3177L46.1561 43.8336ZM45.9686 42.4723V44.0756H46.4686V42.4723H45.9686ZM38.7332 42.7223H46.2186V42.2223H38.7332V42.7223ZM38.9832 44.0756V42.4723H38.4832V44.0756H38.9832ZM41.1258 46.1637C40.8307 45.021 39.9384 44.1286 38.7957 43.8336L38.6707 44.3177C39.6373 44.5673 40.3921 45.3221 40.6417 46.2887L41.1258 46.1637ZM38.7957 50.1159C40.5305 49.6679 41.5737 47.8985 41.1258 46.1637L40.6417 46.2887C41.0206 47.7561 40.1381 49.2528 38.6707 49.6317L38.7957 50.1159ZM34.8435 47.7857C35.2915 49.5206 37.0609 50.5638 38.7957 50.1159L38.6707 49.6317C37.2033 50.0106 35.7065 49.1282 35.3276 47.6607L34.8435 47.7857ZM37.1736 43.8336C35.4388 44.2815 34.3956 46.0509 34.8435 47.7857L35.3276 47.6607C34.9488 46.1933 35.8312 44.6966 37.2986 44.3177L37.1736 43.8336ZM36.9861 42.4723V44.0756H37.4861V42.4723H36.9861ZM29.7507 42.7223H37.2361V42.2223H29.7507V42.7223ZM30.0007 44.0756V42.4723H29.5007V44.0756H30.0007ZM32.1434 46.1637C31.8483 45.021 30.956 44.1286 29.8132 43.8336L29.6882 44.3177C30.6549 44.5673 31.4096 45.3221 31.6592 46.2887L32.1434 46.1637ZM29.8132 50.1159C31.5481 49.668 32.5912 47.8985 32.1434 46.1637L31.6592 46.2887C32.0381 47.7561 31.1557 49.2529 29.6882 49.6317L29.8132 50.1159ZM25.8611 47.7857C26.309 49.5206 28.0784 50.5638 29.8132 50.1159L29.6882 49.6317C28.2208 50.0106 26.7241 49.1282 26.3452 47.6607L25.8611 47.7857ZM28.1912 43.8336C26.4564 44.2815 25.4132 46.0509 25.8611 47.7857L26.3452 47.6607C25.9663 46.1933 26.8487 44.6966 28.3162 44.3177L28.1912 43.8336ZM28.0037 40.9752V44.0756H28.5037V40.9752H28.0037ZM37.2361 40.7252H28.2537V41.2252H37.2361V40.7252ZM36.9861 39.4339V40.9752H37.4861V39.4339H36.9861ZM30.9978 32.7416C31.0026 36.2975 33.6746 39.2837 37.2081 39.6824L37.2641 39.1855C33.9833 38.8154 31.5023 36.0426 31.4978 32.7409L30.9978 32.7416ZM31.1562 31.2624C31.0509 31.7483 30.9979 32.2441 30.9978 32.7412L31.4978 32.7413C31.4979 32.2797 31.5471 31.8194 31.6449 31.3682L31.1562 31.2624ZM39.468 25.9098C35.6947 25.0926 31.9734 27.489 31.1562 31.2624L31.6449 31.3682C32.4036 27.8647 35.8588 25.6398 39.3622 26.3985L39.468 25.9098ZM39.3452 27.6729L39.6596 26.2065L39.1707 26.1017L38.8563 27.5681L39.3452 27.6729ZM37.9842 27.7515C38.3419 27.7522 38.6986 27.7902 39.0485 27.865L39.153 27.376C38.7691 27.294 38.3777 27.2522 37.9851 27.2515L37.9842 27.7515ZM32.9949 32.7413C32.9949 29.9855 35.2289 27.7515 37.9847 27.7515V27.2515C34.9527 27.2515 32.4949 29.7093 32.4949 32.7413H32.9949ZM37.9847 37.731C35.2289 37.731 32.9949 35.497 32.9949 32.7413H32.4949C32.4949 35.7732 34.9527 38.231 37.9847 38.231V37.731ZM42.9744 32.7413C42.9744 35.497 40.7404 37.731 37.9847 37.731V38.231C41.0166 38.231 43.4744 35.7732 43.4744 32.7413H42.9744ZM42.9465 32.2039C42.9649 32.3826 42.9742 32.562 42.9744 32.7416L43.4744 32.7409C43.4742 32.5445 43.464 32.3482 43.4439 32.1529L42.9465 32.2039ZM44.6574 31.7748L43.1693 31.9297L43.2211 32.427L44.7092 32.2721L44.6574 31.7748ZM44.9715 32.741C44.9713 32.4926 44.9581 32.2442 44.9319 31.9971L44.4347 32.0497C44.459 32.2795 44.4713 32.5104 44.4715 32.7415L44.9715 32.741ZM38.7612 39.6824C42.2947 39.2837 44.9667 36.2975 44.9715 32.7416L44.4715 32.7409C44.467 36.0426 41.986 38.8154 38.7052 39.1855L38.7612 39.6824ZM38.9832 40.9752V39.4339H38.4832V40.9752H38.9832ZM47.7157 40.7252H38.7332V41.2252H47.7157V40.7252ZM47.9657 44.0756V40.9752H47.4657V44.0756H47.9657ZM30.2493 46.9635C30.2493 47.6522 29.6909 48.2106 29.0022 48.2106V48.7106C29.9671 48.7106 30.7493 47.9284 30.7493 46.9635H30.2493ZM29.0022 45.7164C29.6909 45.7164 30.2493 46.2747 30.2493 46.9635H30.7493C30.7493 45.9986 29.9671 45.2164 29.0022 45.2164V45.7164ZM27.7551 46.9635C27.7551 46.2747 28.3135 45.7164 29.0022 45.7164V45.2164C28.0373 45.2164 27.2551 45.9986 27.2551 46.9635H27.7551ZM29.0022 48.2106C28.3135 48.2106 27.7551 47.6522 27.7551 46.9635H27.2551C27.2551 47.9284 28.0373 48.7106 29.0022 48.7106V48.2106ZM37.9847 48.7106C38.9495 48.7106 39.7317 47.9284 39.7317 46.9635H39.2317C39.2317 47.6522 38.6734 48.2106 37.9847 48.2106V48.7106ZM36.2376 46.9635C36.2376 47.9284 37.0198 48.7106 37.9847 48.7106V48.2106C37.2959 48.2106 36.7376 47.6522 36.7376 46.9635H36.2376ZM37.9847 45.2164C37.0198 45.2164 36.2376 45.9986 36.2376 46.9635H36.7376C36.7376 46.2747 37.2959 45.7164 37.9847 45.7164V45.2164ZM39.7317 46.9635C39.7317 45.9986 38.9495 45.2164 37.9847 45.2164V45.7164C38.6734 45.7164 39.2317 46.2747 39.2317 46.9635H39.7317ZM46.9671 48.2106C46.2784 48.2106 45.72 47.6522 45.72 46.9635H45.22C45.22 47.9284 46.0022 48.7106 46.9671 48.7106V48.2106ZM48.2142 46.9635C48.2142 47.6523 47.6559 48.2106 46.9671 48.2106V48.7106C47.932 48.7106 48.7142 47.9284 48.7142 46.9635H48.2142ZM46.9671 45.7164C47.6559 45.7164 48.2142 46.2747 48.2142 46.9635H48.7142C48.7142 45.9986 47.932 45.2164 46.9671 45.2164V45.7164ZM45.72 46.9635C45.72 46.2747 46.2784 45.7164 46.9671 45.7164V45.2164C46.0022 45.2164 45.22 45.9986 45.22 46.9635H45.72Z" fill="#F5F7F9"/>
</g>
<g opacity="0.501707">
<path fill-rule="evenodd" clip-rule="evenodd" d="M56.1633 21.2238L57.2423 20.1818C46.9797 9.55454 30.0451 9.25895 19.4178 19.5216L20.4598 20.6006C30.4911 10.9134 46.4761 11.1925 56.1633 21.2238ZM19.8366 56.304L18.7576 57.346C29.0202 67.9733 45.9548 68.2689 56.582 58.0062L55.5401 56.9272C45.5087 66.6144 29.5237 66.3354 19.8366 56.304Z" fill="#AAB2BA"/>
<path fill-rule="evenodd" clip-rule="evenodd" d="M58.2392 21.2561L57.7326 20.7031C57.5717 20.5274 57.4082 20.3536 57.2423 20.1818L56.7213 19.6423L55.6423 20.6843L56.1633 21.2238C56.3201 21.3862 56.4745 21.5504 56.6266 21.7164L57.1332 22.2694L58.2392 21.2561ZM60.8155 24.7886L61.2079 25.4278L59.9295 26.2125L59.5371 25.5733C59.3679 25.2977 59.1933 25.0251 59.0132 24.7557L58.5965 24.1321L59.8436 23.2986L60.2603 23.9222C60.4511 24.2077 60.6362 24.4965 60.8155 24.7886ZM63.3496 30.1702L63.0893 29.4668C62.9703 29.1452 62.8451 28.8259 62.7137 28.5089L62.4264 27.8161L61.0408 28.3907L61.3281 29.0835C61.4521 29.3825 61.5702 29.6838 61.6825 29.9873L61.9428 30.6907L63.3496 30.1702ZM64.4067 34.4779L64.5262 35.2183L63.0454 35.4574L62.9258 34.717C62.8743 34.3975 62.8166 34.079 62.7528 33.7617L62.6049 33.0265L64.0755 32.7308L64.2233 33.4661C64.2909 33.8021 64.352 34.1395 64.4067 34.4779ZM64.7142 40.3375L64.7373 39.5878C64.7478 39.2452 64.7518 38.9024 64.7492 38.5596L64.7436 37.8096L63.2436 37.8208L63.2492 38.5708C63.2517 38.8945 63.2479 39.2182 63.238 39.5418L63.2149 40.2914L64.7142 40.3375ZM64.0844 44.7071L63.9185 45.4385L62.4556 45.1066L62.6216 44.3752C62.6932 44.0596 62.7587 43.7427 62.8182 43.4246L62.956 42.6874L64.4304 42.9629L64.2927 43.7001C64.2297 44.0371 64.1603 44.3728 64.0844 44.7071ZM62.1529 50.3026L62.4569 49.6169C62.5959 49.3033 62.7288 48.9872 62.8556 48.6686L63.1328 47.9717L61.739 47.4172L61.4618 48.1141C61.3422 48.4147 61.2168 48.7131 61.0856 49.009L60.7816 49.6946L62.1529 50.3026ZM59.9253 54.0969L59.4948 54.711L58.2665 53.8501L58.697 53.2359C58.8828 52.9709 59.0633 52.7025 59.2383 52.4309L59.6448 51.8006L60.9054 52.6134L60.499 53.2438C60.3135 53.5315 60.1222 53.816 59.9253 54.0969ZM56.0425 58.5272L56.582 58.0062C56.8288 57.7679 57.0706 57.5255 57.3072 57.279L57.8267 56.738L56.7447 55.6991L56.2253 56.2401C56.0017 56.473 55.7733 56.702 55.5401 56.9272L55.0005 57.4482L56.0425 58.5272ZM19.9573 19.0006L19.4178 19.5216C19.171 19.7599 18.9293 20.0023 18.6926 20.2488L18.1732 20.7898L19.2551 21.8287L19.7746 21.2877C19.9982 21.0549 20.2266 20.8258 20.4598 20.6006L20.9993 20.0796L19.9573 19.0006ZM16.505 22.8168L16.0745 23.4309C15.8776 23.7118 15.6864 23.9963 15.5008 24.284L15.0944 24.9144L16.3551 25.7272L16.7615 25.0969C16.9366 24.8253 17.1171 24.557 17.3029 24.2919L17.7333 23.6777L16.505 22.8168ZM13.543 27.9109L13.847 27.2252L15.2182 27.8332L14.9143 28.5188C14.7831 28.8147 14.6576 29.1131 14.5381 29.4137L14.2608 30.1106L12.8671 29.5561L13.1443 28.8592C13.271 28.5406 13.4039 28.2245 13.543 27.9109ZM12.0814 32.0893L11.9155 32.8207C11.8396 33.155 11.7702 33.4907 11.7072 33.8277L11.5694 34.5649L13.0439 34.8405L13.1817 34.1032C13.2411 33.7851 13.3067 33.4682 13.3783 33.1526L13.5442 32.4212L12.0814 32.0893ZM11.2626 37.94L11.2856 37.1903L12.7849 37.2364L12.7619 37.986C12.752 38.3096 12.7482 38.6333 12.7506 38.957L12.7562 39.707L11.2563 39.7182L11.2507 38.9682C11.2481 38.6254 11.2521 38.2826 11.2626 37.94ZM11.4737 42.3095L11.5932 43.0499C11.6478 43.3883 11.7089 43.7257 11.7765 44.0618L11.9244 44.797L13.3949 44.5013L13.2471 43.7661C13.1833 43.4488 13.1256 43.1303 13.074 42.8109L12.9545 42.0704L11.4737 42.3095ZM12.9105 48.061L12.6503 47.3576L14.0571 46.8371L14.3173 47.5405C14.4296 47.844 14.5478 48.1453 14.6718 48.4444L14.959 49.1372L13.5734 49.7117L13.2862 49.0189C13.1547 48.7019 13.0295 48.3826 12.9105 48.061ZM14.792 52.1L15.1843 52.7392C15.3636 53.0313 15.5487 53.3202 15.7395 53.6057L16.1563 54.2292L17.4034 53.3957L16.9866 52.7721C16.8066 52.5027 16.6319 52.2301 16.4627 51.9545L16.0704 51.3153L14.792 52.1ZM18.2672 56.8247L17.7606 56.2717L18.8666 55.2584L19.3733 55.8115C19.5253 55.9774 19.6798 56.1416 19.8366 56.304L20.3576 56.8435L19.2786 57.8855L18.7576 57.346C18.5916 57.1742 18.4282 57.0004 18.2672 56.8247Z" fill="#AAB2BA"/>
</g>
</svg>
