<svg width="75" height="75" viewBox="0 0 75 75" fill="none" xmlns="http://www.w3.org/2000/svg">
<path d="M38.7642 31.2834H37.9376C37.8904 30.8277 37.6447 30.4047 37.285 30.1443H38.7642C38.8537 30.1443 38.9269 30.0711 38.9269 29.9816C38.9269 29.8921 38.8537 29.8188 38.7642 29.8188H35.3209C35.2314 29.8188 35.1582 29.8921 35.1582 29.9816C35.1582 30.0711 35.2314 30.1443 35.3209 30.1443H36.307C36.9775 30.1443 37.5307 30.6487 37.6105 31.2834H35.3209C35.2314 31.2834 35.1582 31.3566 35.1582 31.4461C35.1582 31.5356 35.2314 31.6088 35.3209 31.6088H37.6105C37.5291 32.2679 36.9693 32.7626 36.307 32.7642H35.3226C35.2314 32.7658 35.1582 32.8407 35.1598 32.9318C35.1598 32.9757 35.1794 33.018 35.2103 33.049L37.6723 35.3776C37.7374 35.4394 37.8399 35.4361 37.9018 35.371C37.9636 35.3043 37.9603 35.2018 37.8952 35.1383L35.7294 33.0896H36.3054C37.1548 33.0896 37.8562 32.4387 37.9376 31.6088H38.7642C38.8537 31.6088 38.9269 31.5356 38.9269 31.4461C38.9269 31.3566 38.8537 31.2834 38.7642 31.2834Z" fill="#F78200" stroke="#F78200" stroke-width="0.5"/>
<path d="M41.8964 29.9088L43.2984 29.3848C43.1018 28.858 42.8398 28.3581 42.5184 27.8967L41.29 28.7531C41.5391 29.1118 41.7428 29.5 41.8964 29.9088Z" fill="#F78200" stroke="#F5F7F9" stroke-width="0.5"/>
<path d="M41.3954 26.6512C40.9709 26.283 40.5025 25.9687 40.0008 25.7156L39.3271 27.0532C39.718 27.2498 40.0831 27.4939 40.414 27.78L41.3954 26.6512Z" fill="#F78200" stroke="#F5F7F9" stroke-width="0.5"/>
<path fill-rule="evenodd" clip-rule="evenodd" d="M46.7161 43.0756C47.7708 43.3479 48.5944 44.1715 48.8667 45.2262C49.2801 46.8273 48.3173 48.4604 46.7161 48.8738C45.115 49.2872 43.4819 48.3244 43.0685 46.7232C42.6551 45.1221 43.6179 43.489 45.2191 43.0756V41.4723H37.7337V43.0756C38.7883 43.3479 39.6119 44.1715 39.8842 45.2262C40.2976 46.8273 39.3348 48.4604 37.7337 48.8738C36.1326 49.2872 34.4995 48.3244 34.0861 46.7232C33.6727 45.1221 34.6355 43.489 36.2366 43.0756V41.4723H28.7512V43.0756C29.8059 43.3479 30.6295 44.1715 30.9018 45.2262C31.3152 46.8273 30.3524 48.4604 28.7512 48.8738C27.1501 49.2872 25.517 48.3244 25.1036 46.7232C24.6902 45.1221 25.653 43.489 27.2542 43.0756V39.9752H36.2366V38.4339C32.8295 38.0496 30.2529 35.17 30.2483 31.7413C30.2484 31.2619 30.2995 30.7838 30.401 30.3153C31.189 26.6769 34.7772 24.3662 38.4156 25.1541L38.1012 26.6205C37.7343 26.5421 37.3603 26.5022 36.9851 26.5015C34.0913 26.5015 31.7454 28.8474 31.7454 31.7413C31.7454 34.6351 34.0913 36.981 36.9851 36.981C39.879 36.981 42.2249 34.6351 42.2249 31.7413C42.2247 31.5532 42.2149 31.3654 42.1957 31.1784L43.6838 31.0234C43.709 31.2619 43.7218 31.5015 43.722 31.7413C43.7174 35.17 41.1408 38.0496 37.7337 38.4339V39.9752H46.7161V43.0756ZM28.0027 47.4606C28.8295 47.4606 29.4998 46.7903 29.4998 45.9635C29.4998 45.1367 28.8295 44.4664 28.0027 44.4664C27.1759 44.4664 26.5056 45.1367 26.5056 45.9635C26.5056 46.7903 27.1759 47.4606 28.0027 47.4606ZM38.4822 45.9635C38.4822 46.7903 37.812 47.4606 36.9851 47.4606C36.1583 47.4606 35.4881 46.7903 35.4881 45.9635C35.4881 45.1367 36.1583 44.4664 36.9851 44.4664C37.812 44.4664 38.4822 45.1367 38.4822 45.9635ZM44.4705 45.9635C44.4705 46.7903 45.1408 47.4606 45.9676 47.4606C46.7944 47.4606 47.4647 46.7903 47.4647 45.9635C47.4647 45.1367 46.7944 44.4664 45.9676 44.4664C45.1408 44.4664 44.4705 45.1367 44.4705 45.9635Z" fill="#F78200"/>
<path d="M48.8667 45.2262L49.1088 45.1637L49.1088 45.1637L48.8667 45.2262ZM46.7161 43.0756H46.4661V43.2693L46.6536 43.3177L46.7161 43.0756ZM46.7161 48.8738L46.7786 49.1159L46.7786 49.1159L46.7161 48.8738ZM43.0685 46.7232L42.8265 46.7857L42.8265 46.7857L43.0685 46.7232ZM45.2191 43.0756L45.2816 43.3177L45.4691 43.2693V43.0756H45.2191ZM45.2191 41.4723H45.4691V41.2223H45.2191V41.4723ZM37.7337 41.4723V41.2223H37.4837V41.4723H37.7337ZM37.7337 43.0756H37.4837V43.2693L37.6712 43.3177L37.7337 43.0756ZM39.8842 45.2262L40.1263 45.1637L40.1263 45.1637L39.8842 45.2262ZM37.7337 48.8738L37.7962 49.1159L37.7962 49.1159L37.7337 48.8738ZM34.0861 46.7232L33.844 46.7857L33.844 46.7857L34.0861 46.7232ZM36.2366 43.0756L36.2991 43.3177L36.4866 43.2693V43.0756H36.2366ZM36.2366 41.4723H36.4866V41.2223H36.2366V41.4723ZM28.7512 41.4723V41.2223H28.5012V41.4723H28.7512ZM28.7512 43.0756H28.5012V43.2693L28.6887 43.3177L28.7512 43.0756ZM30.9018 45.2262L31.1438 45.1637L31.1438 45.1637L30.9018 45.2262ZM28.7512 48.8738L28.6887 48.6317L28.6887 48.6317L28.7512 48.8738ZM25.1036 46.7232L24.8615 46.7857L24.8615 46.7857L25.1036 46.7232ZM27.2542 43.0756L27.3167 43.3177L27.5042 43.2693V43.0756H27.2542ZM27.2542 39.9752V39.7252H27.0042V39.9752H27.2542ZM36.2366 39.9752V40.2252H36.4866V39.9752H36.2366ZM36.2366 38.4339H36.4866V38.2106L36.2646 38.1855L36.2366 38.4339ZM30.2483 31.7413L29.9983 31.7412L29.9983 31.7416L30.2483 31.7413ZM30.401 30.3153L30.6453 30.3682L30.6453 30.3682L30.401 30.3153ZM38.4156 25.1541L38.6601 25.2065L38.7124 24.9626L38.4685 24.9098L38.4156 25.1541ZM38.1012 26.6205L38.049 26.865L38.2933 26.9172L38.3457 26.6729L38.1012 26.6205ZM36.9851 26.5015L36.9856 26.2515H36.9851V26.5015ZM42.2249 31.7413L42.4749 31.7413L42.4749 31.7409L42.2249 31.7413ZM42.1957 31.1784L42.1698 30.9297L41.9216 30.9556L41.947 31.2039L42.1957 31.1784ZM43.6838 31.0234L43.9324 30.9971L43.9062 30.7489L43.6579 30.7748L43.6838 31.0234ZM43.722 31.7413L43.972 31.7416L43.972 31.741L43.722 31.7413ZM37.7337 38.4339L37.7057 38.1855L37.4837 38.2106V38.4339H37.7337ZM37.7337 39.9752H37.4837V40.2252H37.7337V39.9752ZM46.7161 39.9752H46.9661V39.7252H46.7161V39.9752ZM49.1088 45.1637C48.8137 44.021 47.9213 43.1286 46.7786 42.8336L46.6536 43.3177C47.6202 43.5673 48.375 44.3221 48.6246 45.2887L49.1088 45.1637ZM46.7786 49.1159C48.5135 48.6679 49.5567 46.8985 49.1088 45.1637L48.6246 45.2887C49.0035 46.7561 48.1211 48.2528 46.6536 48.6317L46.7786 49.1159ZM42.8265 46.7857C43.2744 48.5206 45.0438 49.5638 46.7786 49.1159L46.6536 48.6317C45.1862 49.0106 43.6895 48.1282 43.3106 46.6607L42.8265 46.7857ZM45.1566 42.8336C43.4218 43.2815 42.3786 45.0509 42.8265 46.7857L43.3106 46.6607C42.9317 45.1933 43.8141 43.6966 45.2816 43.3177L45.1566 42.8336ZM44.9691 41.4723V43.0756H45.4691V41.4723H44.9691ZM37.7337 41.7223H45.2191V41.2223H37.7337V41.7223ZM37.9837 43.0756V41.4723H37.4837V43.0756H37.9837ZM40.1263 45.1637C39.8312 44.021 38.9389 43.1286 37.7962 42.8336L37.6712 43.3177C38.6378 43.5673 39.3926 44.3221 39.6422 45.2887L40.1263 45.1637ZM37.7962 49.1159C39.531 48.6679 40.5742 46.8985 40.1263 45.1637L39.6422 45.2887C40.021 46.7561 39.1386 48.2528 37.6712 48.6317L37.7962 49.1159ZM33.844 46.7857C34.2919 48.5206 36.0614 49.5638 37.7962 49.1159L37.6712 48.6317C36.2038 49.0106 34.707 48.1282 34.3281 46.6607L33.844 46.7857ZM36.1741 42.8336C34.4393 43.2815 33.3961 45.0509 33.844 46.7857L34.3281 46.6607C33.9493 45.1933 34.8317 43.6966 36.2991 43.3177L36.1741 42.8336ZM35.9866 41.4723V43.0756H36.4866V41.4723H35.9866ZM28.7512 41.7223H36.2366V41.2223H28.7512V41.7223ZM29.0012 43.0756V41.4723H28.5012V43.0756H29.0012ZM31.1438 45.1637C30.8488 44.021 29.9565 43.1286 28.8137 42.8336L28.6887 43.3177C29.6554 43.5673 30.4101 44.3221 30.6597 45.2887L31.1438 45.1637ZM28.8137 49.1159C30.5485 48.668 31.5917 46.8985 31.1438 45.1637L30.6597 45.2887C31.0386 46.7561 30.1562 48.2529 28.6887 48.6317L28.8137 49.1159ZM24.8615 46.7857C25.3095 48.5206 27.0789 49.5638 28.8137 49.1159L28.6887 48.6317C27.2213 49.0106 25.7246 48.1282 25.3457 46.6607L24.8615 46.7857ZM27.1917 42.8336C25.4568 43.2815 24.4136 45.0509 24.8615 46.7857L25.3457 46.6607C24.9668 45.1933 25.8492 43.6966 27.3167 43.3177L27.1917 42.8336ZM27.0042 39.9752V43.0756H27.5042V39.9752H27.0042ZM36.2366 39.7252H27.2542V40.2252H36.2366V39.7252ZM35.9866 38.4339V39.9752H36.4866V38.4339H35.9866ZM29.9983 31.7416C30.0031 35.2975 32.6751 38.2837 36.2086 38.6824L36.2646 38.1855C32.9838 37.8154 30.5028 35.0426 30.4983 31.7409L29.9983 31.7416ZM30.1567 30.2624C30.0514 30.7483 29.9984 31.2441 29.9983 31.7412L30.4983 31.7413C30.4984 31.2797 30.5476 30.8194 30.6453 30.3682L30.1567 30.2624ZM38.4685 24.9098C34.6952 24.0926 30.9739 26.489 30.1567 30.2624L30.6453 30.3682C31.4041 26.8647 34.8593 24.6398 38.3627 25.3985L38.4685 24.9098ZM38.3457 26.6729L38.6601 25.2065L38.1712 25.1017L37.8568 26.5681L38.3457 26.6729ZM36.9847 26.7515C37.3424 26.7522 37.6991 26.7902 38.049 26.865L38.1535 26.376C37.7696 26.294 37.3782 26.2522 36.9856 26.2515L36.9847 26.7515ZM31.9954 31.7413C31.9954 28.9855 34.2294 26.7515 36.9851 26.7515V26.2515C33.9532 26.2515 31.4954 28.7093 31.4954 31.7413H31.9954ZM36.9851 36.731C34.2294 36.731 31.9954 34.497 31.9954 31.7413H31.4954C31.4954 34.7732 33.9532 37.231 36.9851 37.231V36.731ZM41.9749 31.7413C41.9749 34.497 39.7409 36.731 36.9851 36.731V37.231C40.0171 37.231 42.4749 34.7732 42.4749 31.7413H41.9749ZM41.947 31.2039C41.9654 31.3826 41.9747 31.562 41.9749 31.7416L42.4749 31.7409C42.4747 31.5445 42.4645 31.3482 42.4444 31.1529L41.947 31.2039ZM43.6579 30.7748L42.1698 30.9297L42.2216 31.427L43.7097 31.2721L43.6579 30.7748ZM43.972 31.741C43.9717 31.4926 43.9586 31.2442 43.9324 30.9971L43.4352 31.0497C43.4595 31.2795 43.4718 31.5104 43.472 31.7415L43.972 31.741ZM37.7617 38.6824C41.2952 38.2837 43.9672 35.2975 43.972 31.7416L43.472 31.7409C43.4675 35.0426 40.9865 37.8154 37.7057 38.1855L37.7617 38.6824ZM37.9837 39.9752V38.4339H37.4837V39.9752H37.9837ZM46.7161 39.7252H37.7337V40.2252H46.7161V39.7252ZM46.9661 43.0756V39.9752H46.4661V43.0756H46.9661ZM29.2498 45.9635C29.2498 46.6522 28.6914 47.2106 28.0027 47.2106V47.7106C28.9676 47.7106 29.7498 46.9284 29.7498 45.9635H29.2498ZM28.0027 44.7164C28.6914 44.7164 29.2498 45.2747 29.2498 45.9635H29.7498C29.7498 44.9986 28.9676 44.2164 28.0027 44.2164V44.7164ZM26.7556 45.9635C26.7556 45.2747 27.314 44.7164 28.0027 44.7164V44.2164C27.0378 44.2164 26.2556 44.9986 26.2556 45.9635H26.7556ZM28.0027 47.2106C27.314 47.2106 26.7556 46.6522 26.7556 45.9635H26.2556C26.2556 46.9284 27.0378 47.7106 28.0027 47.7106V47.2106ZM36.9851 47.7106C37.95 47.7106 38.7322 46.9284 38.7322 45.9635H38.2322C38.2322 46.6522 37.6739 47.2106 36.9851 47.2106V47.7106ZM35.2381 45.9635C35.2381 46.9284 36.0203 47.7106 36.9851 47.7106V47.2106C36.2964 47.2106 35.7381 46.6522 35.7381 45.9635H35.2381ZM36.9851 44.2164C36.0203 44.2164 35.2381 44.9986 35.2381 45.9635H35.7381C35.7381 45.2747 36.2964 44.7164 36.9851 44.7164V44.2164ZM38.7322 45.9635C38.7322 44.9986 37.95 44.2164 36.9851 44.2164V44.7164C37.6739 44.7164 38.2322 45.2747 38.2322 45.9635H38.7322ZM45.9676 47.2106C45.2789 47.2106 44.7205 46.6522 44.7205 45.9635H44.2205C44.2205 46.9284 45.0027 47.7106 45.9676 47.7106V47.2106ZM47.2147 45.9635C47.2147 46.6523 46.6563 47.2106 45.9676 47.2106V47.7106C46.9325 47.7106 47.7147 46.9284 47.7147 45.9635H47.2147ZM45.9676 44.7164C46.6563 44.7164 47.2147 45.2747 47.2147 45.9635H47.7147C47.7147 44.9986 46.9325 44.2164 45.9676 44.2164V44.7164ZM44.7205 45.9635C44.7205 45.2747 45.2789 44.7164 45.9676 44.7164V44.2164C45.0027 44.2164 44.2205 44.9986 44.2205 45.9635H44.7205Z" fill="#F5F7F9"/>
<path fill-rule="evenodd" clip-rule="evenodd" d="M55.1633 20.2238L56.2423 19.1818C45.9797 8.55454 29.0451 8.25895 18.4178 18.5216L19.4598 19.6006C29.4911 9.91343 45.4761 10.1925 55.1633 20.2238ZM18.8366 55.304L17.7576 56.346C28.0202 66.9733 44.9548 67.2689 55.582 57.0062L54.5401 55.9272C44.5087 65.6144 28.5237 65.3354 18.8366 55.304Z" fill="#F78200"/>
<path fill-rule="evenodd" clip-rule="evenodd" d="M57.2392 20.2561L56.7326 19.7031C56.5717 19.5274 56.4082 19.3536 56.2423 19.1818L55.7213 18.6423L54.6423 19.6843L55.1633 20.2238C55.3201 20.3862 55.4745 20.5504 55.6266 20.7164L56.1332 21.2694L57.2392 20.2561ZM59.8155 23.7886L60.2079 24.4278L58.9295 25.2125L58.5371 24.5733C58.3679 24.2977 58.1933 24.0251 58.0132 23.7557L57.5965 23.1321L58.8436 22.2986L59.2603 22.9222C59.4511 23.2077 59.6362 23.4965 59.8155 23.7886ZM62.3496 29.1702L62.0893 28.4668C61.9703 28.1452 61.8451 27.8259 61.7137 27.5089L61.4264 26.8161L60.0408 27.3907L60.3281 28.0835C60.4521 28.3825 60.5702 28.6838 60.6825 28.9873L60.9428 29.6907L62.3496 29.1702ZM63.4067 33.4779L63.5262 34.2183L62.0454 34.4574L61.9258 33.717C61.8743 33.3975 61.8166 33.079 61.7528 32.7617L61.6049 32.0265L63.0755 31.7308L63.2233 32.4661C63.2909 32.8021 63.352 33.1395 63.4067 33.4779ZM63.7142 39.3375L63.7373 38.5878C63.7478 38.2452 63.7518 37.9024 63.7492 37.5596L63.7436 36.8096L62.2436 36.8208L62.2492 37.5708C62.2517 37.8945 62.2479 38.2182 62.238 38.5418L62.2149 39.2914L63.7142 39.3375ZM63.0844 43.7071L62.9185 44.4385L61.4556 44.1066L61.6216 43.3752C61.6932 43.0596 61.7587 42.7427 61.8182 42.4246L61.956 41.6874L63.4304 41.9629L63.2927 42.7001C63.2297 43.0371 63.1603 43.3728 63.0844 43.7071ZM61.1529 49.3026L61.4569 48.6169C61.5959 48.3033 61.7288 47.9872 61.8556 47.6686L62.1328 46.9717L60.739 46.4172L60.4618 47.1141C60.3422 47.4147 60.2168 47.7131 60.0856 48.009L59.7816 48.6946L61.1529 49.3026ZM58.9253 53.0969L58.4948 53.711L57.2665 52.8501L57.697 52.2359C57.8828 51.9709 58.0633 51.7025 58.2383 51.4309L58.6448 50.8006L59.9054 51.6134L59.499 52.2438C59.3135 52.5315 59.1222 52.816 58.9253 53.0969ZM55.0425 57.5272L55.582 57.0062C55.8288 56.7679 56.0706 56.5255 56.3072 56.279L56.8267 55.738L55.7447 54.6991L55.2253 55.2401C55.0017 55.473 54.7733 55.702 54.5401 55.9272L54.0005 56.4482L55.0425 57.5272ZM18.9573 18.0006L18.4178 18.5216C18.171 18.7599 17.9293 19.0023 17.6926 19.2488L17.1732 19.7898L18.2551 20.8287L18.7746 20.2877C18.9982 20.0549 19.2266 19.8258 19.4598 19.6006L19.9993 19.0796L18.9573 18.0006ZM15.505 21.8168L15.0745 22.4309C14.8776 22.7118 14.6864 22.9963 14.5008 23.284L14.0944 23.9144L15.3551 24.7272L15.7615 24.0969C15.9366 23.8253 16.1171 23.557 16.3029 23.2919L16.7333 22.6777L15.505 21.8168ZM12.543 26.9109L12.847 26.2252L14.2182 26.8332L13.9143 27.5188C13.7831 27.8147 13.6576 28.1131 13.5381 28.4137L13.2608 29.1106L11.8671 28.5561L12.1443 27.8592C12.271 27.5406 12.4039 27.2245 12.543 26.9109ZM11.0814 31.0893L10.9155 31.8207C10.8396 32.155 10.7702 32.4907 10.7072 32.8277L10.5694 33.5649L12.0439 33.8405L12.1817 33.1032C12.2411 32.7851 12.3067 32.4682 12.3783 32.1526L12.5442 31.4212L11.0814 31.0893ZM10.2626 36.94L10.2856 36.1903L11.7849 36.2364L11.7619 36.986C11.752 37.3096 11.7482 37.6333 11.7506 37.957L11.7562 38.707L10.2563 38.7182L10.2507 37.9682C10.2481 37.6254 10.2521 37.2826 10.2626 36.94ZM10.4737 41.3095L10.5932 42.0499C10.6478 42.3883 10.7089 42.7257 10.7765 43.0618L10.9244 43.797L12.3949 43.5013L12.2471 42.7661C12.1833 42.4488 12.1256 42.1303 12.074 41.8109L11.9545 41.0704L10.4737 41.3095ZM11.9105 47.061L11.6503 46.3576L13.0571 45.8371L13.3173 46.5405C13.4296 46.844 13.5478 47.1453 13.6718 47.4444L13.959 48.1372L12.5734 48.7117L12.2862 48.0189C12.1547 47.7019 12.0295 47.3826 11.9105 47.061ZM13.792 51.1L14.1843 51.7392C14.3636 52.0313 14.5487 52.3202 14.7395 52.6057L15.1563 53.2292L16.4034 52.3957L15.9866 51.7721C15.8066 51.5027 15.6319 51.2301 15.4627 50.9545L15.0704 50.3153L13.792 51.1ZM17.2672 55.8247L16.7606 55.2717L17.8666 54.2584L18.3733 54.8115C18.5253 54.9774 18.6798 55.1416 18.8366 55.304L19.3576 55.8435L18.2786 56.8855L17.7576 56.346C17.5916 56.1742 17.4282 56.0004 17.2672 55.8247Z" fill="#F78200"/>
</svg>
