<?xml version="1.0" encoding="UTF-8"?>
<svg width="22px" height="18px" viewBox="0 0 22 18" version="1.1" xmlns="http://www.w3.org/2000/svg" xmlns:xlink="http://www.w3.org/1999/xlink">
    <!-- Generator: Sketch 53.2 (72643) - https://sketchapp.com -->
    <title>isip</title>
    <desc>Created with Sketch.</desc>
    <g id="Page-1" stroke="none" stroke-width="1" fill="none" fill-rule="evenodd">
        <g id="trnsact-menu" transform="translate(-116.000000, -156.000000)" fill="#F78200" fill-rule="nonzero">
            <g id="isip" transform="translate(116.000000, 156.000000)">
                <g id="calendar-(11)">
                    <path d="M19.1666667,9.71879167 L19.1666667,3.25 C19.1666667,2.10125 18.2320833,1.16666667 17.0833333,1.16666667 L16.8333333,1.16666667 L16.8333333,0.416666667 C16.8333333,0.186541667 16.6467917,-2.84217094e-14 16.4166667,-2.84217094e-14 C16.1865417,-2.84217094e-14 16,0.186541667 16,0.416666667 L16,1.16666667 L12.25,1.16666667 L12.25,0.416666667 C12.25,0.186541667 12.0634583,-2.84217094e-14 11.8333333,-2.84217094e-14 C11.6032083,-2.84217094e-14 11.4166667,0.186541667 11.4166667,0.416666667 L11.4166667,1.16666667 L7.66666667,1.16666667 L7.66666667,0.416666667 C7.66666667,0.186541667 7.480125,-2.84217094e-14 7.25,-2.84217094e-14 C7.019875,-2.84217094e-14 6.83333333,0.186541667 6.83333333,0.416666667 L6.83333333,1.16666667 L3.08333333,1.16666667 L3.08333333,0.416666667 C3.08333333,0.186541667 2.89679167,-2.84217094e-14 2.66666667,-2.84217094e-14 C2.43654167,-2.84217094e-14 2.25,0.186541667 2.25,0.416666667 L2.25,1.16666667 L2.08333333,1.16666667 C0.934583333,1.16666667 0,2.10125 0,3.25 L0,15.0833333 C0,16.2320833 0.934583333,17.1666667 2.08333333,17.1666667 L14.2825417,17.1666667 C15.0135417,17.6909167 15.9087917,18 16.875,18 C19.3333333,18 21.3333333,16 21.3333333,13.5416667 C21.3333333,11.92075 20.46375,10.4992917 19.1666667,9.71879167 Z M0.833333333,15.0833333 L0.833333333,5.33333333 L7.70833333,5.33333333 C7.93845833,5.33333333 8.125,5.14679167 8.125,4.91666667 C8.125,4.68654167 7.93845833,4.5 7.70833333,4.5 L0.833333333,4.5 L0.833333333,3.25 C0.833333333,2.56075 1.39408333,2 2.08333333,2 L2.25,2 L2.25,2.75 C2.25,2.980125 2.43654167,3.16666667 2.66666667,3.16666667 C2.89679167,3.16666667 3.08333333,2.980125 3.08333333,2.75 L3.08333333,2 L6.83333333,2 L6.83333333,2.75 C6.83333333,2.980125 7.019875,3.16666667 7.25,3.16666667 C7.480125,3.16666667 7.66666667,2.980125 7.66666667,2.75 L7.66666667,2 L11.4166667,2 L11.4166667,2.75 C11.4166667,2.980125 11.6032083,3.16666667 11.8333333,3.16666667 C12.0634583,3.16666667 12.25,2.980125 12.25,2.75 L12.25,2 L16,2 L16,2.75 C16,2.980125 16.1865417,3.16666667 16.4166667,3.16666667 C16.6467917,3.16666667 16.8333333,2.980125 16.8333333,2.75 L16.8333333,2 L17.0833333,2 C17.7725833,2 18.3333333,2.56075 18.3333333,3.25 L18.3333333,4.5 L11.4583333,4.5 C11.2282083,4.5 11.0416667,4.68654167 11.0416667,4.91666667 C11.0416667,5.14679167 11.2282083,5.33333333 11.4583333,5.33333333 L18.3333333,5.33333333 L18.3333333,9.32854167 C17.8761667,9.16983333 17.3855,9.08333333 16.875,9.08333333 C16.7487083,9.08333333 16.6236667,9.08891667 16.5,9.09925 L16.5,7.25 C16.5,7.019875 16.3134583,6.83333333 16.0833333,6.83333333 L13.75,6.83333333 C13.519875,6.83333333 13.3333333,7.019875 13.3333333,7.25 L13.3333333,9.58333333 C13.3333333,9.81345833 13.519875,10 13.75,10 L14.170375,10 C13.1050833,10.8154583 12.4166667,12.0995833 12.4166667,13.5416667 C12.4166667,14.5975833 12.785875,15.5687083 13.4016667,16.3333333 L2.08333333,16.3333333 C1.39408333,16.3333333 0.833333333,15.7725833 0.833333333,15.0833333 Z M15.6666667,9.16666667 L14.1666667,9.16666667 L14.1666667,7.66666667 L15.6666667,7.66666667 L15.6666667,9.16666667 Z M16.875,17.1666667 C14.8761667,17.1666667 13.25,15.5405 13.25,13.5416667 C13.25,11.5428333 14.8761667,9.91666667 16.875,9.91666667 C18.8738333,9.91666667 20.5,11.5428333 20.5,13.5416667 C20.5,15.5405 18.8738333,17.1666667 16.875,17.1666667 Z" id="XMLID_327_"></path>
                    <path d="M5.41666667,6.83333333 L3.08333333,6.83333333 C2.85320833,6.83333333 2.66666667,7.019875 2.66666667,7.25 L2.66666667,9.58333333 C2.66666667,9.81345833 2.85320833,10 3.08333333,10 L5.41666667,10 C5.64679167,10 5.83333333,9.81345833 5.83333333,9.58333333 L5.83333333,7.25 C5.83333333,7.019875 5.64679167,6.83333333 5.41666667,6.83333333 Z M5,9.16666667 L3.5,9.16666667 L3.5,7.66666667 L5,7.66666667 L5,9.16666667 Z" id="XMLID_333_"></path>
                    <path d="M10.75,6.83333333 L8.41666667,6.83333333 C8.18654167,6.83333333 8,7.019875 8,7.25 L8,9.58333333 C8,9.81345833 8.18654167,10 8.41666667,10 L10.75,10 C10.980125,10 11.1666667,9.81345833 11.1666667,9.58333333 L11.1666667,7.25 C11.1666667,7.019875 10.980125,6.83333333 10.75,6.83333333 Z M10.3333333,9.16666667 L8.83333333,9.16666667 L8.83333333,7.66666667 L10.3333333,7.66666667 L10.3333333,9.16666667 Z" id="XMLID_336_"></path>
                    <path d="M5.41666667,11.5 L3.08333333,11.5 C2.85320833,11.5 2.66666667,11.6865417 2.66666667,11.9166667 L2.66666667,14.25 C2.66666667,14.480125 2.85320833,14.6666667 3.08333333,14.6666667 L5.41666667,14.6666667 C5.64679167,14.6666667 5.83333333,14.480125 5.83333333,14.25 L5.83333333,11.9166667 C5.83333333,11.6865417 5.64679167,11.5 5.41666667,11.5 Z M5,13.8333333 L3.5,13.8333333 L3.5,12.3333333 L5,12.3333333 L5,13.8333333 Z" id="XMLID_339_"></path>
                    <path d="M10.75,11.5 L8.41666667,11.5 C8.18654167,11.5 8,11.6865417 8,11.9166667 L8,14.25 C8,14.480125 8.18654167,14.6666667 8.41666667,14.6666667 L10.75,14.6666667 C10.980125,14.6666667 11.1666667,14.480125 11.1666667,14.25 L11.1666667,11.9166667 C11.1666667,11.6865417 10.980125,11.5 10.75,11.5 Z M10.3333333,13.8333333 L8.83333333,13.8333333 L8.83333333,12.3333333 L10.3333333,12.3333333 L10.3333333,13.8333333 Z" id="XMLID_779_"></path>
                    <path d="M9.58333333,5.33333333 C9.69291667,5.33333333 9.80041667,5.28875 9.87791667,5.21125 C9.95541667,5.13375 10,5.02625 10,4.91666667 C10,4.80708333 9.95541667,4.69958333 9.87791667,4.62208333 C9.80041667,4.54458333 9.69291667,4.5 9.58333333,4.5 C9.47375,4.5 9.36625,4.54458333 9.28875,4.62208333 C9.21125,4.69958333 9.16666667,4.80708333 9.16666667,4.91666667 C9.16666667,5.02625 9.21125,5.13375 9.28875,5.21125 C9.36625,5.28875 9.47375,5.33333333 9.58333333,5.33333333 Z" id="XMLID_780_"></path>
                </g>
                <path d="M18.3373446,12.3693374 C18.5155791,12.3693374 18.6605582,12.5143165 18.6605582,12.692551 C18.6605582,12.8707855 18.5155791,13.0157647 18.3373446,13.0157647 L17.9066074,13.0157647 C17.7667947,13.6098568 17.2506802,14.0545827 16.6319348,14.0941193 L17.8455616,15.24212 C17.9723266,15.3657159 17.9781932,15.5671349 17.8558124,15.6991544 C17.7330634,15.8283638 17.5288452,15.8343702 17.3996428,15.7116273 L15.5978878,14.0074128 C15.5373774,13.9469025 15.5011881,13.8644245 15.5012207,13.7809837 C15.4980126,13.6013292 15.6415928,13.4537881 15.8244018,13.4505562 L16.5427319,13.4505569 C16.8417718,13.4498221 17.1041959,13.2742532 17.22588,13.0157647 L15.8232136,13.0157647 C15.6449791,13.0157647 15.5,12.8707855 15.5,12.692551 C15.5,12.5143165 15.6449791,12.3693374 15.8232136,12.3693374 L17.2231512,12.3693374 C17.1002599,12.1194081 16.8392584,11.9464273 16.5432341,11.9464273 L15.8232136,11.9464273 C15.6449791,11.9464273 15.5,11.8014482 15.5,11.6232136 C15.5,11.4449791 15.6449791,11.3 15.8232136,11.3 L18.3373446,11.3 C18.5155791,11.3 18.6605582,11.4449791 18.6605582,11.6232136 C18.6605582,11.8014482 18.5155791,11.9464273 18.3373446,11.9464273 L17.7242682,11.9464273 C17.8068723,12.075786 17.8685801,12.2190864 17.905282,12.3693374 L18.3373446,12.3693374 Z" id="Path"></path>
            </g>
        </g>
    </g>
</svg>