<svg width="56" height="58" viewBox="0 0 56 58" fill="none" xmlns="http://www.w3.org/2000/svg">
<path d="M30.2083 58H13.2917C4.11075 58 0 50.1096 0 42.2917C0 31.0711 5.92325 19.4542 14.0819 14.6643C14.268 14.5556 14.4783 14.5 14.6933 14.5H28.8067C29.0218 14.5 29.232 14.5556 29.4181 14.6643C31.3659 15.8098 33.1929 17.3154 34.8532 19.1448C35.3003 19.6403 35.264 20.4039 34.7686 20.851C34.2756 21.3005 33.5119 21.2618 33.06 20.7688C31.6463 19.2101 30.1044 17.9148 28.4732 16.9167H15.0268C7.70433 21.3972 2.41667 32.0039 2.41667 42.2917C2.41667 48.4227 5.26592 55.5833 13.2917 55.5833H30.2083C38.2341 55.5833 41.0833 48.4227 41.0833 42.2917C41.0833 38.9156 40.484 35.3123 39.3482 31.8807C39.1379 31.2451 39.4835 30.5636 40.1167 30.3533C40.7498 30.1383 41.4313 30.4887 41.6416 31.1194C42.8572 34.7952 43.5 38.6594 43.5 42.2917C43.5 50.1096 39.3893 58 30.2083 58Z" fill="#F58220"/>
<path fill-rule="evenodd" clip-rule="evenodd" d="M13.2915 16.9167H30.2082C32.2068 16.9167 33.8332 15.2903 33.8332 13.2917C33.8332 11.2931 32.2068 9.66667 30.2082 9.66667H13.2915C11.2929 9.66667 9.6665 11.2931 9.6665 13.2917C9.6665 15.2903 11.2929 16.9167 13.2915 16.9167ZM12.0832 13.2917C12.0832 12.6271 12.6245 12.0833 13.2915 12.0833H30.2082C30.8752 12.0833 31.4165 12.6271 31.4165 13.2917C31.4165 13.9563 30.8752 14.5 30.2082 14.5H13.2915C12.6245 14.5 12.0832 13.9563 12.0832 13.2917Z" fill="#F58220"/>
<path d="M27.7916 12.0833C27.4364 12.0833 27.0859 11.9287 26.8467 11.629C26.431 11.107 26.5156 10.3482 27.0352 9.93008L33.739 4.5675C34.3601 4.07208 34.1934 3.41233 34.1257 3.22142C34.0604 3.03533 33.7801 2.41667 32.985 2.41667H10.5149C9.71977 2.41667 9.43944 3.03533 9.37419 3.22383C9.30652 3.41475 9.13735 4.0745 9.76085 4.56992L16.4647 9.9325C16.9843 10.3506 17.0689 11.1094 16.6532 11.6314C16.2375 12.151 15.4787 12.2356 14.9543 11.8199L8.25044 6.45733C7.03002 5.481 6.57569 3.89808 7.09285 2.42392C7.61002 0.952167 8.95369 0 10.5149 0H32.9874C34.5486 0 35.8923 0.952167 36.4094 2.42392C36.9266 3.89808 36.4723 5.481 35.2519 6.45733L28.548 11.8199C28.3233 11.9963 28.0574 12.0833 27.7916 12.0833Z" fill="#F58220"/>
<path d="M22.9585 44.7083H16.9168C16.2498 44.7083 15.7085 44.167 15.7085 43.5C15.7085 42.833 16.2498 42.2917 16.9168 42.2917H22.9585C24.2901 42.2917 25.3752 41.209 25.3752 39.875C25.3752 38.541 24.2901 37.4583 22.9585 37.4583H20.5418C17.8762 37.4583 15.7085 35.2906 15.7085 32.625C15.7085 29.9594 17.8762 27.7917 20.5418 27.7917H26.5835C27.2505 27.7917 27.7918 28.333 27.7918 29C27.7918 29.667 27.2505 30.2083 26.5835 30.2083H20.5418C19.2102 30.2083 18.1252 31.291 18.1252 32.625C18.1252 33.959 19.2102 35.0417 20.5418 35.0417H22.9585C25.6241 35.0417 27.7918 37.2094 27.7918 39.875C27.7918 42.5406 25.6241 44.7083 22.9585 44.7083Z" fill="#F58220"/>
<path d="M21.7498 48.3333C21.0828 48.3333 20.5415 47.792 20.5415 47.125V43.5C20.5415 42.833 21.0828 42.2917 21.7498 42.2917C22.4168 42.2917 22.9582 42.833 22.9582 43.5V47.125C22.9582 47.792 22.4168 48.3333 21.7498 48.3333Z" fill="#F58220"/>
<path d="M21.7498 30.2083C21.0828 30.2083 20.5415 29.667 20.5415 29V25.375C20.5415 24.708 21.0828 24.1667 21.7498 24.1667C22.4168 24.1667 22.9582 24.708 22.9582 25.375V29C22.9582 29.667 22.4168 30.2083 21.7498 30.2083Z" fill="#F58220"/>
<path d="M35.0415 29C34.7321 29 34.4228 28.8816 34.186 28.6472C33.7147 28.1759 33.7147 27.4098 34.186 26.9386L40.2276 20.8969C40.595 20.5296 41.1556 20.4426 41.622 20.6698L45.6772 22.6973L53.5193 14.8553C53.9905 14.384 54.7566 14.384 55.2279 14.8553C55.6991 15.3265 55.6991 16.0926 55.2279 16.5638L46.7695 25.0222C46.3998 25.3871 45.8367 25.4765 45.3751 25.2493L41.32 23.2218L35.8945 28.6472C35.6601 28.8816 35.3508 29 35.0415 29Z" fill="#F58220"/>
<path d="M54.3748 24.1667C53.7078 24.1667 53.1665 23.6253 53.1665 22.9583V16.9167H47.1248C46.4578 16.9167 45.9165 16.3753 45.9165 15.7083C45.9165 15.0413 46.4578 14.5 47.1248 14.5H54.3748C55.0418 14.5 55.5832 15.0413 55.5832 15.7083V22.9583C55.5832 23.6253 55.0418 24.1667 54.3748 24.1667Z" fill="#F58220"/>
</svg>
