<svg width="27" height="27" viewBox="0 0 27 27" fill="none" xmlns="http://www.w3.org/2000/svg">
<circle cx="13.5" cy="13.5" r="12.5" stroke="#F58220" stroke-width="2"/>
<path fill-rule="evenodd" clip-rule="evenodd" d="M15.9854 9.06152C16.3597 8.71321 16.5469 8.29167 16.5469 7.79688C16.5469 7.30208 16.3597 6.87891 15.9854 6.52734C15.611 6.17578 15.1602 6 14.6328 6C14.1055 6 13.653 6.17578 13.2754 6.52734C12.8978 6.87891 12.709 7.30208 12.709 7.79688C12.709 8.29167 12.8978 8.71321 13.2754 9.06152C13.653 9.40983 14.1055 9.58398 14.6328 9.58398C15.1602 9.58398 15.611 9.40983 15.9854 9.06152ZM16.127 20.5996L16.3418 19.7207C16.2311 19.7728 16.0521 19.833 15.8047 19.9014C15.5573 19.9697 15.3359 20.0039 15.1406 20.0039C14.724 20.0039 14.431 19.9355 14.2617 19.7988C14.0924 19.6621 14.0078 19.405 14.0078 19.0273C14.0078 18.8776 14.0339 18.6563 14.0859 18.3633C14.138 18.0703 14.1966 17.8099 14.2617 17.582L15.0625 14.7402C15.1406 14.4798 15.1943 14.1934 15.2236 13.8809C15.2529 13.5684 15.2676 13.3503 15.2676 13.2266C15.2676 12.6276 15.0576 12.141 14.6377 11.7666C14.2178 11.3923 13.6204 11.2051 12.8457 11.2051C12.416 11.2051 11.9603 11.2816 11.4785 11.4346C10.9967 11.5876 10.4922 11.7715 9.96484 11.9863L9.75 12.8652C9.90625 12.8066 10.0934 12.7448 10.3115 12.6797C10.5296 12.6146 10.7428 12.582 10.9512 12.582C11.3744 12.582 11.6608 12.6536 11.8105 12.7969C11.9603 12.9401 12.0352 13.194 12.0352 13.5586C12.0352 13.7604 12.0107 13.9834 11.9619 14.2275C11.9131 14.4717 11.8529 14.7305 11.7812 15.0039L10.9805 17.8555C10.9089 18.1549 10.8568 18.4235 10.8242 18.6611C10.7917 18.8988 10.7754 19.1315 10.7754 19.3594C10.7754 19.9453 10.9919 20.4287 11.4248 20.8096C11.8577 21.1904 12.4648 21.3809 13.2461 21.3809C13.7539 21.3809 14.1999 21.3141 14.584 21.1807C14.9681 21.0472 15.4824 20.8535 16.127 20.5996Z" fill="#F58220"/>
</svg>
