<svg width="14" height="14" viewBox="0 0 14 14" fill="none" xmlns="http://www.w3.org/2000/svg">
<path d="M10.9682 8.91442C10.8056 8.91442 10.6429 8.85217 10.519 8.72825C10.2704 8.47983 10.2704 8.07817 10.519 7.82975L11.8026 6.54611C12.3879 5.96654 12.7094 5.19253 12.7094 4.36454C12.7094 2.66213 11.324 1.27621 9.62104 1.27621C8.79363 1.27621 8.01963 1.5977 7.44146 2.18111L6.15583 3.46662C5.90741 3.71516 5.50575 3.71516 5.25733 3.46662C5.00891 3.2182 5.00891 2.81654 5.25733 2.56811L6.54097 1.28389C7.35814 0.460319 8.45248 0.00524902 9.62104 0.00524902C12.025 0.00524902 13.9803 1.96062 13.9803 4.36454C13.9803 5.53439 13.5253 6.62802 12.6986 7.44717L11.4169 8.72825C11.293 8.85217 11.1309 8.91442 10.9682 8.91442Z" fill="#003974"/>
<path d="M4.35941 13.9855C1.95549 13.9855 0.00012207 12.0301 0.00012207 9.62617C0.00012207 8.45632 0.455192 7.36269 1.2819 6.54354L2.56357 5.26246C2.81211 5.01404 3.21365 5.01404 3.46219 5.26246C3.71061 5.51088 3.71061 5.91254 3.46219 6.16096L2.17855 7.4446C1.59258 8.02418 1.27108 8.79818 1.27108 9.62617C1.27108 11.3286 2.65642 12.7145 4.35941 12.7145C5.18682 12.7145 5.96083 12.393 6.539 11.8096L7.82462 10.5241C8.07304 10.2756 8.47471 10.2756 8.72313 10.5241C8.97155 10.7725 8.97155 11.1742 8.72313 11.4226L7.43948 12.7069C6.62231 13.5304 5.5281 13.9855 4.35941 13.9855V13.9855Z" fill="#003974"/>
<path d="M8.33741 6.28358C8.17474 6.28358 8.01208 6.22133 7.88816 6.09741C7.63974 5.84899 7.63974 5.44733 7.88816 5.1989L9.08279 4.00427C9.33133 3.75574 9.73287 3.75574 9.98141 4.00427C10.2298 4.25269 10.2298 4.65436 9.98141 4.90278L8.78666 6.09741C8.66274 6.22133 8.50008 6.28358 8.33741 6.28358V6.28358Z" fill="#003974"/>
<path d="M4.44843 10.1727C4.28576 10.1727 4.12298 10.1104 3.99918 9.98651C3.75064 9.73797 3.75064 9.33642 3.99918 9.08789L5.19381 7.89326C5.44223 7.64483 5.84389 7.64483 6.09231 7.89326C6.34085 8.14168 6.34085 8.54334 6.09231 8.79176L4.89768 9.98651C4.77376 10.1104 4.6111 10.1727 4.44843 10.1727Z" fill="#003974"/>
<path d="M13.3448 13.9855C13.1821 13.9855 13.0195 13.9232 12.8955 13.7993L0.186403 1.09003C-0.0621343 0.841613 -0.0621343 0.439951 0.186403 0.19153C0.434824 -0.0570073 0.83637 -0.0570073 1.08491 0.19153L13.7942 12.9007C14.0426 13.1492 14.0426 13.5508 13.7942 13.7993C13.6702 13.9232 13.5075 13.9855 13.3448 13.9855Z" fill="#003974"/>
</svg>
