<svg width="15" height="20" viewBox="0 0 15 20" fill="none" xmlns="http://www.w3.org/2000/svg">
<path fill-rule="evenodd" clip-rule="evenodd" d="M0.0253906 7.70832C0.0253906 3.45793 3.38162 0 7.507 0C11.6324 0 14.9886 3.45793 14.9886 7.70832C14.9886 10.0989 13.7881 12.8753 11.4203 15.9605C9.68779 18.2181 7.9802 19.7783 7.90835 19.8436C7.67901 20.0521 7.33494 20.0521 7.10564 19.8436C7.0338 19.7783 5.32621 18.2181 3.59367 15.9605C1.22592 12.8753 0.0253906 10.0989 0.0253906 7.70832ZM1.23863 7.70832C1.23863 12.0428 6.06533 17.1068 7.507 18.5223C8.94858 17.1068 13.7754 12.0428 13.7754 7.70832C13.7754 4.14719 10.9634 1.25 7.507 1.25C4.0506 1.25 1.23863 4.14719 1.23863 7.70832Z" fill="#AAB2BA"/>
<path fill-rule="evenodd" clip-rule="evenodd" d="M7.90201 3.58797L12.1483 7.33797C12.4027 7.56262 12.4322 7.95719 12.2141 8.21926C11.9971 8.48016 11.6142 8.5127 11.3587 8.28703L10.8436 7.83211V10.9375C10.8436 11.2827 10.572 11.5625 10.237 11.5625H4.77744C4.44243 11.5625 4.17082 11.2827 4.17082 10.9375V7.83211L3.65572 8.28703C3.40136 8.51168 3.0184 8.48133 2.80036 8.21926C2.58231 7.95719 2.61177 7.56258 2.86614 7.33797L7.11246 3.58797C7.33964 3.38734 7.67483 3.38734 7.90201 3.58797ZM5.38405 6.76066V10.3125H9.63038V6.76066L7.50722 4.88566L5.38405 6.76066Z" fill="#AAB2BA"/>
</svg>
