<?xml version="1.0" encoding="UTF-8"?>
<svg width="14px" height="14px" viewBox="0 0 14 14" version="1.1" xmlns="http://www.w3.org/2000/svg" xmlns:xlink="http://www.w3.org/1999/xlink">
    <!-- Generator: Sketch 53.2 (72643) - https://sketchapp.com -->
    <title>logout</title>
    <desc>Created with Sketch.</desc>
    <g id="Page-1" stroke="none" stroke-width="1" fill="none" fill-rule="evenodd">
        <g id="profile-menu-copy" transform="translate(-39.000000, -187.000000)" fill="#BCC1C6" fill-rule="nonzero">
            <g id="logout" transform="translate(39.000000, 187.000000)">
                <path d="M6.97675781,13.9767578 L1.74417578,13.9767578 C0.782550781,13.9767578 0,13.1941797 0,12.2325547 L0,1.76744531 C0,0.805820312 0.782550781,0.0232421875 1.74417578,0.0232421875 L6.97675781,0.0232421875 C7.29769141,0.0232421875 7.55814063,0.28371875 7.55814063,0.604625 C7.55814063,0.92553125 7.29766406,1.18600781 6.97675781,1.18600781 L1.74417578,1.18600781 C1.42381641,1.18600781 1.16279297,1.44705859 1.16279297,1.76739062 L1.16279297,12.2325 C1.16279297,12.5534336 1.42384375,12.8138828 1.74417578,12.8138828 L6.97675781,12.8138828 C7.29769141,12.8138828 7.55814063,13.0737578 7.55814063,13.3952656 C7.55814062,13.7168555 7.29766406,13.9767578 6.97675781,13.9767578 Z" id="Path"></path>
                <path d="M12.2093125,7.58138281 L5.23255469,7.58138281 C4.91162109,7.58138281 4.65117188,7.32150781 4.65117188,7 C4.65117188,6.67906641 4.91164844,6.41861719 5.23255469,6.41861719 L12.2093125,6.41861719 C12.5308203,6.41861719 12.7906953,6.67909375 12.7906953,7 C12.7906953,7.32150781 12.5308203,7.58138281 12.2093125,7.58138281 Z" id="Path"></path>
                <path d="M9.88372656,11.0697617 C9.73371875,11.0697617 9.58373828,11.0116289 9.46976953,10.8965117 C9.24418359,10.6680273 9.24650781,10.3000078 9.47559375,10.0744219 L12.5907031,7 L9.47559375,3.92557812 C9.24653516,3.69999219 9.24478516,3.33197266 9.46976953,3.10291406 C9.69478125,2.87385547 10.0639492,2.87210547 10.2918594,3.09769141 L13.82675,6.58607031 C13.9372187,6.69536328 14,6.84422266 14,7.00002734 C14,7.15583203 13.937793,7.30408984 13.82675,7.41398437 L10.2918594,10.9023359 C10.1790664,11.0139531 10.0313828,11.0697617 9.88372656,11.0697617 Z" id="Path"></path>
            </g>
        </g>
    </g>
</svg>