<svg width="22" height="22" viewBox="0 0 22 22" fill="none" xmlns="http://www.w3.org/2000/svg">
<path fill-rule="evenodd" clip-rule="evenodd" d="M15.1832 3.85C15.1816 5.20246 14.076 6.29846 12.7116 6.3H10.9461V7.0175C13.0139 7.20461 14.5675 8.97069 14.473 11.0267C14.3785 13.0828 12.6694 14.7016 10.5931 14.7016C8.51673 14.7016 6.8076 13.0828 6.71313 11.0267C6.61865 8.97069 8.17224 7.20461 10.24 7.0175V6.3H8.47453C7.11015 6.29846 6.00449 5.20246 6.00293 3.85C6.00293 3.6567 6.16101 3.5 6.35602 3.5H8.47453C9.1395 3.49963 9.77631 3.76602 10.24 4.2385V2.8H8.47453C7.11015 2.79846 6.00449 1.70246 6.00293 0.35C6.00293 0.1567 6.16101 0 6.35602 0H8.47453C9.34349 0.000168703 10.1483 0.453545 10.5931 1.1935C11.0379 0.453545 11.8426 0.000168703 12.7116 0H14.8301C15.0251 0 15.1832 0.1567 15.1832 0.35C15.1816 1.70246 14.076 2.79846 12.7116 2.8H10.9461V4.2385C11.4098 3.76602 12.0466 3.49963 12.7116 3.5H14.8301C15.0251 3.5 15.1832 3.6567 15.1832 3.85ZM14.4417 4.2H12.7116C11.873 4.20105 11.1504 4.78575 10.9814 5.6H12.7116C13.5502 5.59895 14.2728 5.01425 14.4417 4.2ZM12.7116 0.7H14.4417C14.2728 1.51425 13.5502 2.09895 12.7116 2.1H10.9814C11.1504 1.28575 11.873 0.701049 12.7116 0.7ZM6.74441 0.7C6.91334 1.51425 7.63592 2.09895 8.47453 2.1H10.2047C10.0357 1.28575 9.31315 0.701049 8.47453 0.7H6.74441ZM8.47453 5.6C7.63592 5.59895 6.91334 5.01425 6.74441 4.2H8.47453C9.31315 4.20105 10.0357 4.78575 10.2047 5.6H8.47453ZM10.5931 14C12.3481 14 13.7708 12.5897 13.7708 10.85C13.7681 9.11142 12.347 7.7027 10.5931 7.7C8.83801 7.7 7.41528 9.1103 7.41528 10.85C7.41528 12.5897 8.83801 14 10.5931 14Z" fill="#F78200"/>
<path fill-rule="evenodd" clip-rule="evenodd" d="M21.1322 14.0156C20.6434 13.1806 19.5665 12.893 18.7206 13.3716L14.3 15.9021C13.9698 15.5816 13.5263 15.402 13.0642 15.4016H8.97193L7.93385 14.3691C7.46943 13.9088 6.83929 13.6506 6.18254 13.6516H2.82469V12.9516C2.82469 12.7583 2.66661 12.6016 2.4716 12.6016H0.353086C0.158082 12.6016 0 12.7583 0 12.9516V20.6516C0 20.8449 0.158082 21.0016 0.353086 21.0016H2.4716C2.66661 21.0016 2.82469 20.8449 2.82469 20.6516V19.7171L7.12881 20.9351C7.28636 20.9784 7.44903 21.0008 7.61254 21.0016H11.9802C12.2902 21.0018 12.5947 20.9209 12.8629 20.7671L20.4861 16.4061C21.3304 15.9228 21.6197 14.8526 21.1322 14.0156ZM2.11852 20.3016H0.706173V13.3016H2.11852V20.3016ZM20.133 15.7971C20.3768 15.6585 20.5548 15.4292 20.6273 15.1601C20.7376 14.7499 20.5879 14.3142 20.2479 14.0561C19.9079 13.7979 19.4445 13.7681 19.0737 13.9806L14.6919 16.4866C14.921 17.0254 14.8617 17.6423 14.534 18.1284C14.2063 18.6146 13.6541 18.9051 13.0642 18.9016H8.82716V18.2016H13.0642C13.6485 18.1998 14.1217 17.7307 14.1235 17.1516C14.1227 16.9364 14.0562 16.7266 13.9328 16.5496C13.8935 16.498 13.8511 16.4489 13.8057 16.4026C13.6088 16.2084 13.3419 16.1001 13.0642 16.1016H8.82716C8.73355 16.1009 8.6438 16.0645 8.57647 16.0001L7.43247 14.8661C7.10255 14.535 6.65202 14.3495 6.18254 14.3516H2.82469V18.9891L7.32301 20.2596C7.41689 20.2877 7.51447 20.3018 7.61254 20.3016H11.9802C12.166 20.3008 12.3484 20.2526 12.5099 20.1616L20.133 15.7971Z" fill="#F78200"/>
<path d="M11.8776 10.1538H11.3563C11.3266 9.86898 11.1716 9.6045 10.9448 9.44173H11.8776C11.9341 9.44173 11.9803 9.39596 11.9803 9.34001C11.9803 9.28406 11.9341 9.23828 11.8776 9.23828H9.70614C9.6497 9.23828 9.60352 9.28406 9.60352 9.34001C9.60352 9.39596 9.6497 9.44173 9.70614 9.44173H10.328C10.7508 9.44173 11.0998 9.75708 11.15 10.1538H9.70614C9.6497 10.1538 9.60352 10.1996 9.60352 10.2555C9.60352 10.3115 9.6497 10.3573 9.70614 10.3573H11.15C11.0987 10.7693 10.7457 11.0785 10.328 11.0795H9.70717C9.6497 11.0805 9.60352 11.1273 9.60454 11.1843C9.60454 11.2118 9.61686 11.2382 9.63636 11.2575L11.189 12.7132C11.2301 12.7519 11.2947 12.7499 11.3337 12.7092C11.3727 12.6675 11.3707 12.6034 11.3296 12.5637L9.96372 11.283H10.327C10.8627 11.283 11.305 10.8761 11.3563 10.3573H11.8776C11.9341 10.3573 11.9803 10.3115 11.9803 10.2555C11.9803 10.1996 11.9341 10.1538 11.8776 10.1538Z" fill="#F78200"/>
</svg>
