<?xml version="1.0" encoding="UTF-8"?>
<svg width="144px" height="144px" viewBox="0 0 144 144" version="1.1" xmlns="http://www.w3.org/2000/svg" xmlns:xlink="http://www.w3.org/1999/xlink">
    <!-- Generator: Sketch 53.2 (72643) - https://sketchapp.com -->
    <title>Group 23</title>
    <desc>Created with Sketch.</desc>
    <defs>
        <linearGradient x1="44.4730202%" y1="3.93838171%" x2="62.2751392%" y2="83.5377776%" id="linearGradient-1">
            <stop stop-color="#606C78" offset="0%"></stop>
            <stop stop-color="#FFFFFF" offset="100%"></stop>
        </linearGradient>
    </defs>
    <g id="Page-1" stroke="none" stroke-width="1" fill="none" fill-rule="evenodd">
        <g id="Transact" transform="translate(-343.000000, -584.000000)">
            <g id="Group-23" transform="translate(331.329599, 572.329599)">
                <circle id="Oval-Copy" fill="url(#linearGradient-1)" opacity="0.137230283" transform="translate(83.500000, 83.500000) rotate(10.000000) translate(-83.500000, -83.500000) " cx="83.5" cy="83.5" r="71.5"></circle>
                <g id="Group-14" transform="translate(30.670401, 30.032523)">
                    <g id="Group-19" transform="translate(69.582041, 0.000000)" fill="#003974">
                        <polygon id="Fill-8" points="5.32018873e-13 0 14.0221574 0 14.0221574 18.6378776 5.32018873e-13 16.5939429 5.32018873e-13 72"></polygon>
                        <polyline id="Fill-5" points="19.5827405 72 19.5827405 11 33.6041983 11 33.6041983 25.0585977 19.5827405 25.0585977 19.5827405 72"></polyline>
                        <polygon id="Fill-12" points="19.5827405 72 33.6041983 72 33.6041983 25 19.5827405 25"></polygon>
                        <polygon id="Fill-14" points="1.32871492e-12 72 14.0221574 72 14.0221574 18 1.32871492e-12 18"></polygon>
                    </g>
                    <g id="Group-21" transform="translate(0.000000, 3.637878)">
                        <path d="M44.6326273,44.9414294 C38.8033852,39.0027814 38.892235,29.4621812 44.8312327,23.6328549 C50.7706659,17.8030931 60.3106926,17.8923797 66.1399347,23.8314632 C71.9696123,29.7705467 71.880327,39.3111469 65.9413293,45.1400376 C60.0023316,50.969364 50.4623049,50.8805129 44.6326273,44.9414294 Z M80.0917723,49.082018 C81.5126139,46.72217 82.5696567,44.2028848 83.2659836,41.606964 L88.8841657,40.5305422 L89,28.1019217 L83.4029587,26.9211169 C82.7550796,24.3124235 81.7451633,21.7741996 80.3688056,19.3879256 L83.5778112,14.6580998 L74.8713025,5.78774944 L70.082018,8.9082277 C67.72217,7.48738609 65.2033253,6.43034334 62.6074045,5.73401644 L61.5305422,0.115834267 L55.3164522,0.0576969163 L49.1023622,0 L47.9211169,5.59704132 C45.3124235,6.24492043 42.77464,7.25483668 40.3883661,8.63119442 L35.6580998,5.42218883 L26.7881899,14.1286975 L29.9086681,18.917982 C28.4873861,21.27783 27.4303433,23.7962343 26.7344569,26.3925955 L21.1158343,27.4694578 L21,39.8976378 L26.5974818,41.0784427 C27.2449204,43.6871361 28.2552771,46.22536 29.6316349,48.6116339 L26.4226293,53.3414598 L35.1286975,62.2122506 L39.917982,59.0917723 C42.2782704,60.5121735 44.7966747,61.5696567 47.393036,62.2659836 L48.4694578,67.8841657 L54.6839883,67.9418626 L60.8980783,68 L62.0788831,62.4020778 C64.6875765,61.7550796 67.2258004,60.7451633 69.6116339,59.3683651 L74.3414598,62.5778112 L83.2122506,53.8713025 L80.0917723,49.082018 L80.0917723,49.082018 Z" id="Fill-2" fill="#BFC8D6"></path>
                        <g id="Group-98" transform="translate(0.000000, 15.000000)">
                            <path d="M7.67182814,25.4742692 L7.67182814,30.9093377 C7.67182814,31.9491143 6.81986834,32.8002217 5.78075672,32.8002217 L1.88967476,32.8002217 C0.850563141,32.8002217 2.27373675e-13,31.9491143 2.27373675e-13,30.9093377 L2.27373675e-13,25.4742692 C2.27373675e-13,24.4344926 0.850563141,23.5833852 1.88967476,23.5833852 L5.78075672,23.5833852 C6.81986834,23.5833852 7.67182814,24.4344926 7.67182814,25.4742692" id="Fill-25" fill="#ED7D2B"></path>
                            <path d="M7.67182814,25.4742692 L7.67182814,28.5027581 C7.67182814,29.5425347 6.81986834,30.3936421 5.78075672,30.3936421 L1.88967476,30.3936421 C0.850563141,30.3936421 2.27373675e-13,29.5425347 2.27373675e-13,28.5027581 L2.27373675e-13,25.4742692 C2.27373675e-13,24.4344926 0.850563141,23.5833852 1.88967476,23.5833852 L5.78075672,23.5833852 C6.81986834,23.5833852 7.67182814,24.4344926 7.67182814,25.4742692" id="Fill-26" fill="#F99746"></path>
                            <path d="M50.7865805,28.1911047 C50.7865805,30.9722275 50.2181417,33.6261733 49.1916,36.0425357 C46.1119748,43.2944182 38.9136129,48.4136407 30.5769768,48.4136407 L24.80041,48.4136407 C17.4246728,48.4136407 10.9386051,44.4054698 7.40925692,38.4602957 C5.621538,35.4457822 4.59220297,31.9337413 4.59220297,28.1911047 C4.59220297,25.4113794 5.16064172,22.7574336 6.18718344,20.3396736 C9.26541195,13.0891887 16.4637739,7.96996623 24.80041,7.96996623 L30.5769768,7.96996623 C38.1580223,7.96996623 44.7991188,12.2031426 48.2544442,18.4236338 C49.8661846,21.3235482 50.7865805,24.6553054 50.7865805,28.1911047" id="Fill-27" fill="#FE8B29"></path>
                            <path d="M33.9973859,39.8284963 L32.1119011,52.076617 C31.8618997,53.0241553 32.5769873,53.9535254 33.5574394,53.9535254 L38.5113761,53.9535254 C39.5728342,53.9535254 40.5463031,53.3595671 41.0323391,52.4148238 L48.7321004,37.0487711 L33.9973859,39.8284963" id="Fill-28" fill="#FE8B29"></path>
                            <path d="M22.7179968,40.0381287 L24.2305746,52.076617 C24.4805759,53.0241553 23.7654884,53.9535254 22.7850363,53.9535254 L17.8310996,53.9535254 C16.7682448,53.9535254 15.7961726,53.3595671 15.3101365,52.4148238 L7.40925692,38.4602957 L22.7179968,40.0381287" id="Fill-29" fill="#FE8B29"></path>
                            <g id="Group-4" transform="translate(4.592203, 7.969966)">
                                <path d="M43.6622413,10.4536675 C44.1412941,12.786177 43.7641971,16.1193317 43.1510654,17.8844363 C39.0728316,29.6210539 29.4875856,31.741136 19.6886512,32.6327723 C12.7207374,33.2672596 2.81705395,30.4903295 2.81705395,30.4903295 C1.02933503,27.475816 3.97903932e-13,23.963775 3.97903932e-13,20.2211384 C3.97903932e-13,17.4414132 0.56843875,14.7874674 1.59498047,12.3697074 C4.67320898,5.11922248 11.8715709,1.33120182e-11 20.2082071,1.33120182e-11 L25.9847738,1.33120182e-11 C33.5658193,1.33120182e-11 40.2069158,4.23317633 43.6622413,10.4536675" id="Fill-31" fill="#F58220"></path>
                                <path d="M50.2902991,15.787365 C50.0587684,15.9574977 49.8508925,16.1555094 49.6695388,16.3785405 C49.2251146,16.924681 48.9527255,17.6066416 48.9219026,18.2492859 C48.8982477,18.7589694 49.0444776,19.1585669 49.2788756,19.2200434 C49.5161407,19.2822348 49.856627,18.9648443 50.1067949,18.4480124 C50.3813344,17.8818564 50.513228,17.1698723 50.4580334,16.5429545 C50.4386794,16.3177788 50.3913697,16.0547164 50.2902991,15.787365 Z M49.3455392,19.6525237 C49.2874773,19.6525237 49.2286986,19.6453753 49.1706368,19.6303636 C48.7197612,19.5116996 48.4617084,18.9748521 48.4975491,18.2292703 C48.5319561,17.4979854 48.839469,16.7259545 49.3390879,16.1111891 C49.5605832,15.8395485 49.8164855,15.6015056 50.1017772,15.3999198 C49.9670163,15.1783183 49.7856625,14.9660098 49.5412292,14.7830098 C49.1254775,14.4727678 48.6961064,14.3826975 48.2287441,14.5092248 C46.9714537,14.8502051 45.9062691,16.6416029 45.8202516,16.8431888 C45.7808268,16.9504153 45.6625526,17.0083176 45.5528802,16.9718606 C45.4417742,16.9346888 45.3815618,16.8145951 45.4188361,16.7037943 C45.4561104,16.5915639 45.7672074,16.0568609 46.2015962,15.5271619 C46.958551,14.604299 47.6180192,14.2547405 48.0380718,14.1239241 C48.6602657,13.9294867 49.2523535,14.0374281 49.7964147,14.444174 C50.0659365,14.6457599 50.2888654,14.8909512 50.4623343,15.1733144 C50.893139,14.9338418 51.3791384,14.7672833 51.9074298,14.6807872 C52.0235535,14.6622013 52.133226,14.7401192 52.1518631,14.8559239 C52.1712171,14.9717285 52.0923676,15.0803847 51.9762439,15.0996855 C51.4916781,15.1790331 51.0472539,15.3320096 50.655157,15.5521814 C50.7755817,15.8416931 50.8515639,16.1619429 50.88167,16.5064975 C50.943316,17.2163371 50.8006701,17.9912274 50.4895732,18.6324421 C50.1734585,19.285809 49.7555564,19.6525237 49.3455392,19.6525237 L49.3455392,19.6525237 Z" id="Fill-30" fill="#ED7D2B"></path>
                            </g>
                            <path d="M22.4177159,13.0360818 L14.46935,13.0360818 C13.6676698,13.0360818 13.018225,12.5497347 13.018225,11.9487886 L13.018225,1.08983184 C13.018225,0.903957801 13.0768846,0.734854356 13.1774437,0.589509246 C13.5657139,0.0248993948 14.586669,-0.208491311 15.3478462,0.223351372 C18.3646219,1.93395151 23.308782,5.65422731 23.8660476,11.8747185 C23.9219138,12.5036156 23.2571058,13.0360818 22.4177159,13.0360818" id="Fill-32" fill="#F99746"></path>
                            <path d="M14.7919774,13.0360818 L14.46935,13.0360818 C13.6676698,13.0360818 13.018225,12.5497347 13.018225,11.9487886 L13.018225,1.08983184 C13.018225,0.903957801 13.0768846,0.734854356 13.1774437,0.589509246 C13.2109635,0.618857778 13.2444832,0.651001408 13.2752096,0.684542587 C15.0014757,2.60896775 17.4903156,6.38654306 16.7891946,11.6804592 C16.6872388,12.4491112 15.8241057,13.0360818 14.7919774,13.0360818" id="Fill-33" fill="#ED7D2B"></path>
                            <path d="M10.6034078,20.2963496 C10.6034078,19.6408991 11.1327402,19.1112279 11.7877716,19.1112279 C12.4414063,19.1112279 12.9721354,19.6408991 12.9721354,20.2963496 C12.9721354,20.9504026 12.4414063,21.4814713 11.7877716,21.4814713 C11.1327402,21.4814713 10.6034078,20.9504026 10.6034078,20.2963496" id="Fill-34" fill="#FFFFFF"></path>
                        </g>
                    </g>
                </g>
            </g>
        </g>
    </g>
</svg>