<?xml version="1.0" encoding="UTF-8"?>
<svg width="60px" height="60px" viewBox="0 0 60 60" version="1.1" xmlns="http://www.w3.org/2000/svg" xmlns:xlink="http://www.w3.org/1999/xlink">
    <!-- Generator: Sketch 53.2 (72643) - https://sketchapp.com -->
    <title>market-value (1)</title>
    <desc>Created with Sketch.</desc>
    <g id="Page-1" stroke="none" stroke-width="1" fill="none" fill-rule="evenodd">
        <g id="market-value-(1)">
            <path d="M30,1.75 L30,0.25 C13.5695,0.25 0.25,13.5695 0.25,30 L1.75,30 C1.75,14.398 14.398,1.75 30,1.75 Z M30,58.25 L30,59.75 C46.4305,59.75 59.75,46.4305 59.75,30 L58.25,30 C58.25,45.602 45.602,58.25 30,58.25 Z" id="Shape" fill="#F58220"></path>
            <path d="M31.2496,0.266499 L30.4997,0.254143 C30.3337,0.251408 30.1675,0.250035 30.0012,0.250029 L29.2512,0.25 L29.2511,1.75 L30.0011,1.75003 C30.1592,1.75004 30.3172,1.75134 30.475,1.75394 L31.2249,1.7663 L31.2496,0.266499 Z M35.464,0.75085 L36.2014,0.88776 L35.9276,2.36256 L35.1902,2.22565 C34.8712,2.16642 34.551,2.11267 34.2295,2.06441 L33.4878,1.95309 L33.7104,0.469703 L34.4521,0.581027 C34.7907,0.631851 35.1281,0.688472 35.464,0.75085 Z M41.1696,2.40789 L40.4676,2.14397 C40.1476,2.02367 39.8254,1.9089 39.5012,1.79971 L38.7905,1.56033 L38.3117,2.98187 L39.0225,3.22126 C39.3302,3.3249 39.636,3.43384 39.9397,3.54802 L40.6417,3.81195 L41.1696,2.40789 Z M45.1324,4.38081 L45.7778,4.76283 L45.0138,6.05366 L44.3683,5.67163 C44.0889,5.50624 43.8067,5.34568 43.5217,5.19003 L42.8635,4.83051 L43.5825,3.51408 L44.2407,3.87359 C44.5409,4.03753 44.8381,4.20663 45.1324,4.38081 Z M49.8987,7.87139 L49.3288,7.38385 C49.069,7.16162 48.8055,6.94386 48.5382,6.73068 L47.9519,6.26298 L47.0165,7.43559 L47.6028,7.90329 C47.8566,8.10578 48.107,8.31262 48.3538,8.5237 L48.9237,9.01123 L49.8987,7.87139 Z M52.8877,10.9932 L53.3672,11.57 L52.2137,12.5289 L51.7343,11.9521 C51.5267,11.7024 51.3148,11.4562 51.0987,11.2138 L50.5998,10.6538 L51.7197,9.6559 L52.2186,10.2159 C52.4461,10.4711 52.6692,10.7303 52.8877,10.9932 Z M56.2146,15.9019 L55.8422,15.2509 C55.6723,14.9538 55.4973,14.6597 55.3173,14.3688 L54.9227,13.731 L53.6471,14.5202 L54.0417,15.158 C54.2126,15.4343 54.3788,15.7135 54.5401,15.9956 L54.9125,16.6466 L56.2146,15.9019 Z M57.9888,19.8926 L58.2436,20.598 L56.8328,21.1076 L56.578,20.4022 C56.4677,20.0969 56.3522,19.7937 56.2315,19.4926 L55.9524,18.7965 L57.3447,18.2383 L57.6238,18.9344 C57.7509,19.2516 57.8726,19.571 57.9888,19.8926 Z M59.4408,25.6298 L59.3128,24.8908 C59.2544,24.5535 59.1903,24.2175 59.1203,23.8831 L58.9669,23.149 L57.4986,23.4559 L57.6521,24.19 C57.7184,24.5075 57.7794,24.8264 57.8348,25.1466 L57.9627,25.8856 L59.4408,25.6298 Z M59.75,30 L59.75,30.75 L58.25,30.75 L58.25,30 C58.25,29.6743 58.2445,29.3493 58.2335,29.0251 L58.2081,28.2755 L59.7072,28.2247 L59.7326,28.9742 C59.7442,29.3154 59.75,29.6574 59.75,30 Z M0.25,29.25 L0.25,30 C0.25,30.3427 0.255795,30.6846 0.267361,31.0258 L0.292771,31.7754 L1.79191,31.7246 L1.7665,30.975 C1.75551,30.6507 1.75,30.3257 1.75,30 L1.75,29.25 L0.25,29.25 Z M0.559249,34.3703 L0.68718,35.1093 C0.745571,35.4466 0.809742,35.7825 0.879651,36.117 L1.0331,36.8511 L2.50137,36.5442 L2.34792,35.8101 C2.28155,35.4926 2.22063,35.1736 2.1652,34.8534 L2.03727,34.1144 L0.559249,34.3703 Z M2.01121,40.1074 L1.75643,39.4021 L3.16722,38.8925 L3.422,39.5979 C3.53226,39.9031 3.64778,40.2064 3.76849,40.5074 L4.04759,41.2036 L2.65533,41.7618 L2.37622,41.0657 C2.24906,40.7485 2.12736,40.429 2.01121,40.1074 Z M3.78542,44.0981 L4.15778,44.7492 C4.32767,45.0462 4.50268,45.3403 4.68271,45.6313 L5.07732,46.2691 L6.35291,45.4799 L5.95831,44.8421 C5.78735,44.5658 5.62117,44.2865 5.45985,44.0045 L5.0875,43.3534 L3.78542,44.0981 Z M7.11226,49.0068 L6.6328,48.4301 L7.78627,47.4712 L8.26573,48.0479 C8.47334,48.2977 8.68523,48.5438 8.90129,48.7863 L9.40024,49.3463 L8.28033,50.3442 L7.78138,49.7842 C7.55391,49.5289 7.33084,49.2698 7.11226,49.0068 Z M10.1013,52.1287 L10.6712,52.6162 C10.931,52.8384 11.1945,53.0562 11.4618,53.2694 L12.0481,53.7371 L12.9835,52.5645 L12.3972,52.0968 C12.1434,51.8943 11.893,51.6874 11.6462,51.4764 L11.0763,50.9888 L10.1013,52.1287 Z M14.8676,55.6193 L14.2222,55.2372 L14.9862,53.9464 L15.6317,54.3284 C15.9111,54.4938 16.1933,54.6544 16.4783,54.81 L17.1365,55.1695 L16.4175,56.486 L15.7593,56.1265 C15.4591,55.9625 15.1619,55.7934 14.8676,55.6193 Z M18.8304,57.5922 L19.5324,57.8561 C19.8524,57.9764 20.1746,58.0912 20.4988,58.2003 L21.2095,58.4397 L21.6883,57.0182 L20.9775,56.7788 C20.6698,56.6752 20.364,56.5662 20.0603,56.452 L19.3583,56.1881 L18.8304,57.5922 Z M24.536,59.2492 L23.7986,59.1123 L24.0724,57.6375 L24.8098,57.7744 C25.1288,57.8336 25.449,57.8874 25.7705,57.9356 L26.5122,58.047 L26.2896,59.5304 L25.5479,59.419 C25.2093,59.3682 24.8719,59.3116 24.536,59.2492 Z M28.7504,59.7336 L29.5003,59.7459 C29.6663,59.7487 29.8325,59.75 29.9988,59.75 L30.7488,59.7501 L30.7489,58.2501 L29.9989,58.25 C29.8408,58.25 29.6828,58.2487 29.525,58.2461 L28.7751,58.2338 L28.7504,59.7336 Z" id="Shape" fill="#F58220"></path>
            <path d="M19.487,26.4449 L17.9951,26.4449 C17.6972,26.4449 17.4978,26.246 17.4978,25.9476 L17.4978,24.1076 C17.4978,23.9584 17.5475,23.8092 17.6967,23.7097 L17.9951,23.5108 L17.9951,23.4611 L18.0448,23.4611 L30.6265,14.1119 C30.8254,13.9627 31.0243,13.9627 31.2232,14.1119 L44.153,23.7097 C44.3022,23.8092 44.3519,23.9584 44.3519,24.1076 L44.3519,25.9476 C44.3519,26.246 44.153,26.4449 43.8546,26.4449 L42.3627,26.4449 L42.3627,32.9098 L41.3681,32.9098 L41.3681,26.4449 L20.4816,26.4449 L20.4816,32.9098 L19.487,32.9098 L19.487,26.4449 Z M43.3573,24.3562 L30.9249,15.1065 L19.6859,23.4611 L38.3843,23.4611 L38.3843,24.4557 L18.4924,24.4557 L18.4924,25.4503 L19.9843,25.4503 L41.8654,25.4503 L43.3573,25.4503 L43.3573,24.3562 Z" id="Shape" fill="#F78200"></path>
            <path d="M19.487,26.4449 L19.587,26.4449 L19.587,26.3449 L19.487,26.3449 L19.487,26.4449 Z M17.9951,23.4611 L17.9951,23.3611 L17.8951,23.3611 L17.8951,23.4611 L17.9951,23.4611 Z M18.0448,23.4611 L18.0448,23.5611 L18.0779,23.5611 L18.1045,23.5414 L18.0448,23.4611 Z M42.3627,26.4449 L42.3627,26.3449 L42.2627,26.3449 L42.2627,26.4449 L42.3627,26.4449 Z M42.3627,32.9098 L42.3627,33.0098 L42.4627,33.0098 L42.4627,32.9098 L42.3627,32.9098 Z M41.3681,32.9098 L41.2681,32.9098 L41.2681,33.0098 L41.3681,33.0098 L41.3681,32.9098 Z M41.3681,26.4449 L41.4681,26.4449 L41.4681,26.3449 L41.3681,26.3449 L41.3681,26.4449 Z M20.4816,26.4449 L20.4816,26.3449 L20.3816,26.3449 L20.3816,26.4449 L20.4816,26.4449 Z M20.4816,32.9098 L20.4816,33.0098 L20.5816,33.0098 L20.5816,32.9098 L20.4816,32.9098 Z M19.487,32.9098 L19.387,32.9098 L19.387,33.0098 L19.487,33.0098 L19.487,32.9098 Z M30.9249,15.1065 L30.9845,15.0263 L30.9249,14.9819 L30.8652,15.0262 L30.9249,15.1065 Z M19.6859,23.4611 L19.6263,23.3808 L19.3838,23.5611 L19.6859,23.5611 L19.6859,23.4611 Z M38.3843,24.4557 L38.3843,24.5557 L38.4843,24.5557 L38.4843,24.4557 L38.3843,24.4557 Z M18.4924,24.4557 L18.4924,24.3557 L18.3924,24.3557 L18.3924,24.4557 L18.4924,24.4557 Z M18.4924,25.4503 L18.3924,25.4503 L18.3924,25.5503 L18.4924,25.5503 L18.4924,25.4503 Z M43.3573,25.4503 L43.3573,25.5503 L43.4573,25.5503 L43.4573,25.4503 L43.3573,25.4503 Z M17.9951,26.5449 L19.487,26.5449 L19.487,26.3449 L17.9951,26.3449 L17.9951,26.5449 Z M17.3978,25.9476 C17.3978,26.1196 17.4557,26.2706 17.5641,26.3789 C17.6724,26.4871 17.8234,26.5449 17.9951,26.5449 L17.9951,26.3449 C17.8689,26.3449 17.7713,26.3032 17.7054,26.2374 C17.6396,26.1716 17.5978,26.074 17.5978,25.9476 L17.3978,25.9476 Z M17.3978,24.1076 L17.3978,25.9476 L17.5978,25.9476 L17.5978,24.1076 L17.3978,24.1076 Z M17.6413,23.6265 C17.4566,23.7497 17.3978,23.9353 17.3978,24.1076 L17.5978,24.1076 C17.5978,23.9815 17.6385,23.8688 17.7522,23.793 L17.6413,23.6265 Z M17.9396,23.4276 L17.6413,23.6265 L17.7522,23.793 L18.0506,23.594 L17.9396,23.4276 Z M17.8951,23.4611 L17.8951,23.5108 L18.0951,23.5108 L18.0951,23.4611 L17.8951,23.4611 Z M18.0448,23.3611 L17.9951,23.3611 L17.9951,23.5611 L18.0448,23.5611 L18.0448,23.3611 Z M30.5668,14.0316 L17.9852,23.3808 L18.1045,23.5414 L30.6861,14.1922 L30.5668,14.0316 Z M31.2832,14.0319 C31.1709,13.9476 31.0509,13.9 30.9249,13.9 C30.7988,13.9 30.6789,13.9476 30.5665,14.0319 L30.6865,14.1919 C30.773,14.127 30.8519,14.1 30.9249,14.1 C30.9978,14.1 31.0767,14.127 31.1632,14.1919 L31.2832,14.0319 Z M44.2126,23.6295 L31.2828,14.0316 L31.1636,14.1922 L44.0934,23.79 L44.2126,23.6295 Z M44.4519,24.1076 C44.4519,23.9353 44.3931,23.7497 44.2085,23.6265 L44.0975,23.793 C44.2112,23.8688 44.2519,23.9815 44.2519,24.1076 L44.4519,24.1076 Z M44.4519,25.9476 L44.4519,24.1076 L44.2519,24.1076 L44.2519,25.9476 L44.4519,25.9476 Z M43.8546,26.5449 C44.0265,26.5449 44.1776,26.4871 44.2859,26.3788 C44.3942,26.2705 44.4519,26.1195 44.4519,25.9476 L44.2519,25.9476 C44.2519,26.0741 44.2102,26.1717 44.1444,26.2374 C44.0787,26.3032 43.9811,26.3449 43.8546,26.3449 L43.8546,26.5449 Z M42.3627,26.5449 L43.8546,26.5449 L43.8546,26.3449 L42.3627,26.3449 L42.3627,26.5449 Z M42.4627,32.9098 L42.4627,26.4449 L42.2627,26.4449 L42.2627,32.9098 L42.4627,32.9098 Z M41.3681,33.0098 L42.3627,33.0098 L42.3627,32.8098 L41.3681,32.8098 L41.3681,33.0098 Z M41.2681,26.4449 L41.2681,32.9098 L41.4681,32.9098 L41.4681,26.4449 L41.2681,26.4449 Z M20.4816,26.5449 L41.3681,26.5449 L41.3681,26.3449 L20.4816,26.3449 L20.4816,26.5449 Z M20.5816,32.9098 L20.5816,26.4449 L20.3816,26.4449 L20.3816,32.9098 L20.5816,32.9098 Z M19.487,33.0098 L20.4816,33.0098 L20.4816,32.8098 L19.487,32.8098 L19.487,33.0098 Z M19.387,26.4449 L19.387,32.9098 L19.587,32.9098 L19.587,26.4449 L19.387,26.4449 Z M30.8652,15.1867 L43.2976,24.4365 L43.417,24.276 L30.9845,15.0263 L30.8652,15.1867 Z M19.7456,23.5414 L30.9845,15.1867 L30.8652,15.0262 L19.6263,23.3808 L19.7456,23.5414 Z M38.3843,23.3611 L19.6859,23.3611 L19.6859,23.5611 L38.3843,23.5611 L38.3843,23.3611 Z M38.4843,24.4557 L38.4843,23.4611 L38.2843,23.4611 L38.2843,24.4557 L38.4843,24.4557 Z M18.4924,24.5557 L38.3843,24.5557 L38.3843,24.3557 L18.4924,24.3557 L18.4924,24.5557 Z M18.5924,25.4503 L18.5924,24.4557 L18.3924,24.4557 L18.3924,25.4503 L18.5924,25.4503 Z M19.9843,25.3503 L18.4924,25.3503 L18.4924,25.5503 L19.9843,25.5503 L19.9843,25.3503 Z M41.8654,25.3503 L19.9843,25.3503 L19.9843,25.5503 L41.8654,25.5503 L41.8654,25.3503 Z M43.3573,25.3503 L41.8654,25.3503 L41.8654,25.5503 L43.3573,25.5503 L43.3573,25.3503 Z M43.2573,24.3562 L43.2573,25.4503 L43.4573,25.4503 L43.4573,24.3562 L43.2573,24.3562 Z" id="Shape" fill="#F78200" fill-rule="nonzero"></path>
            <rect id="Rectangle" stroke="#F78200" stroke-width="0.2" fill="#F78200" fill-rule="nonzero" x="29.9303" y="18.4881" width="1.98919" height="1"></rect>
            <rect id="Rectangle" stroke="#F78200" stroke-width="0.2" fill="#F78200" fill-rule="nonzero" x="28.4385" y="20.4773" width="4.97298" height="1"></rect>
            <rect id="Rectangle" fill="#F78200" fill-rule="nonzero" x="21.4762" y="27.4395" width="1" height="1"></rect>
            <rect id="Rectangle" fill="#F78200" fill-rule="nonzero" x="23.4655" y="27.4395" width="1" height="1"></rect>
            <rect id="Rectangle" fill="#F78200" fill-rule="nonzero" x="25.4546" y="27.4395" width="1" height="1"></rect>
            <rect id="Rectangle" fill="#F78200" fill-rule="nonzero" x="27.4438" y="27.4395" width="1" height="1"></rect>
            <rect id="Rectangle" fill="#F78200" fill-rule="nonzero" x="29.433" y="27.4395" width="1" height="1"></rect>
            <rect id="Rectangle" fill="#F78200" fill-rule="nonzero" x="31.4222" y="27.4395" width="1" height="1"></rect>
            <rect id="Rectangle" fill="#F78200" fill-rule="nonzero" x="33.4114" y="27.4395" width="1" height="1"></rect>
            <rect id="Rectangle" fill="#F78200" fill-rule="nonzero" x="35.4006" y="27.4395" width="1" height="1"></rect>
            <rect id="Rectangle" fill="#F78200" fill-rule="nonzero" x="37.3898" y="27.4395" width="1" height="1"></rect>
            <rect id="Rectangle" fill="#F78200" fill-rule="nonzero" x="39.379" y="27.4395" width="1" height="1"></rect>
            <path d="M43.8547,42.8557 L43.8547,36.5898 L44.5012,37.2362 L45.1974,36.54 L43.7055,35.0481 C43.5066,34.8492 43.2082,34.8492 43.0093,35.0481 L41.5174,36.54 L42.2136,37.2362 L42.8601,36.5898 L42.8601,42.8557 L37.8871,42.8557 L37.8871,31.6168 L38.5336,32.2633 L39.2298,31.567 L37.7379,30.0752 C37.539,29.8762 37.2406,29.8762 37.0417,30.0752 L35.5498,31.567 L36.246,32.2633 L36.8925,31.6168 L36.8925,42.8557 L24.9574,42.8557 L24.9574,31.6168 L25.6038,32.2633 L26.3001,31.567 L24.8082,30.0752 C24.6092,29.8762 24.3109,29.8762 24.1119,30.0752 L22.62,31.567 L23.3163,32.2633 L23.9628,31.6168 L23.9628,42.8557 L18.9898,42.8557 L18.9898,36.5898 L19.6363,37.2362 L20.3325,36.54 L18.8406,35.0481 C18.6417,34.8492 18.3433,34.8492 18.1444,35.0481 L16.6525,36.54 L17.3487,37.2362 L17.9952,36.5898 L17.9952,42.8557 L16.006,42.8557 L16.006,43.8503 L45.8439,43.8503 L45.8439,42.8557 L43.8547,42.8557 Z" id="Path" stroke="#F78200" stroke-width="0.2" fill="#F78200" fill-rule="nonzero"></path>
            <path d="M34.1261,32.2917 C34.406,32.2917 34.6331,32.0646 34.6331,31.7847 C34.6331,31.5048 34.406,31.2778 34.1261,31.2778 L28.1299,31.2778 C27.85,31.2778 27.6229,31.5048 27.6229,31.7847 C27.6229,32.0646 27.85,32.2917 28.1299,32.2917 L29.8458,32.2917 C30.8098,32.2917 31.6217,32.8831 31.8482,33.8125 L28.1299,33.8125 C27.85,33.8125 27.6229,34.0396 27.6229,34.3195 C27.6229,34.5993 27.85,34.8264 28.1299,34.8264 L31.8482,34.8264 C31.6217,35.7558 30.8098,36.3473 29.8458,36.3473 L28.1299,36.3473 C27.9196,36.3565 27.7348,36.4892 27.6592,36.6856 C27.5836,36.8819 27.6318,37.1047 27.7817,37.2522 L32.0703,41.3095 C32.1673,41.4029 32.2973,41.4534 32.432,41.4504 C32.5667,41.4471 32.6944,41.3903 32.7868,41.2926 C32.9792,41.0821 32.97,40.7567 32.7667,40.557 L29.4045,37.3612 L29.8458,37.3612 C31.3399,37.3678 32.6218,36.2978 32.8825,34.8264 L34.1258,34.8264 C34.406,34.8264 34.6327,34.5993 34.6327,34.3195 C34.6327,34.0396 34.406,33.8125 34.1258,33.8125 L32.8828,33.8125 C32.7861,33.2425 32.5234,32.7135 32.1277,32.2917 L34.1261,32.2917 Z" id="Path" fill="#F78200" fill-rule="nonzero"></path>
        </g>
    </g>
</svg>