<svg width="19" height="14" viewBox="0 0 19 14" fill="none" xmlns="http://www.w3.org/2000/svg">
<path fill-rule="evenodd" clip-rule="evenodd" d="M16.8367 0.0341797H1.74174C0.781285 0.0341797 0 0.815465 0 1.77592V12.2263C0 13.1867 0.781285 13.968 1.74174 13.968H16.8367C17.7971 13.968 18.5784 13.1867 18.5784 12.2263V1.77592C18.5784 0.815465 17.7971 0.0341797 16.8367 0.0341797ZM16.8367 1.19533C16.9156 1.19533 16.9906 1.21169 17.0592 1.24027L9.28921 7.97458L1.51917 1.24027C1.58778 1.21173 1.66282 1.19533 1.7417 1.19533H16.8367ZM1.16115 12.2262C1.16115 12.5466 1.42141 12.8068 1.74174 12.8068H16.8367C17.157 12.8068 17.4172 12.5466 17.4173 12.2263V2.46704L9.66966 9.18165C9.56022 9.27635 9.42471 9.32339 9.28921 9.32339C9.15371 9.32339 9.01821 9.27631 8.90877 9.18165L1.16115 2.46704V12.2262Z" fill="#003974"/>
</svg>
