<?xml version="1.0" encoding="UTF-8"?>
<svg width="570px" height="179px" viewBox="0 0 570 179" version="1.1" xmlns="http://www.w3.org/2000/svg" xmlns:xlink="http://www.w3.org/1999/xlink">
    <!-- Generator: Sketch 53.2 (72643) - https://sketchapp.com -->
    <title>Group</title>
    <desc>Created with Sketch.</desc>
    <g id="Page-1" stroke="none" stroke-width="1" fill="none" fill-rule="evenodd">
        <g id="Mirae-Asset-Mutual-Fund-logo" transform="translate(-136.000000, -208.000000)">
            <g id="Group" transform="translate(136.253500, 208.441700)">
                <path d="M84.3491,74.0004 C83.8227,77.525 76.7035,127.2597 76.0535,131.9034 L91.9995,131.9034 C92.4956,128.3925 99.6162,78.6351 100.2849,74.0004 L84.3491,74.0004 Z" id="Fill-2" fill="#0F4D80"></path>
                <path d="M214.8571,74.0004 C214.3502,77.525 207.2137,127.2597 206.5581,131.9034 L243.9436,131.9034 C244.3085,129.3562 245.2376,122.658 245.7119,119.4097 L223.0874,119.4097 L224.6014,108.7095 L245.1676,108.7095 C245.522,106.2145 246.3891,100.1855 246.8358,97.0387 L226.2812,97.0387 L227.8017,86.4879 L249.8403,86.4879 C250.2102,83.9577 251.1847,77.2379 251.6312,74.0004 L214.8571,74.0004 Z" id="Fill-3" fill="#0F4D80"></path>
                <path d="M37.239,107.185 C37.239,107.185 50.5842,76.6613 51.6316,74.0135 L71.6989413,74.0135 C71.7111,78.0582 69.0176,127.7756 69.0511,131.9054 L54.6063,131.9054 L56.9996,91.3555 C56.9996,91.3555 40.7474,129.3174 39.6601,131.9054 L28.2526,131.9054 L23.1279,91.3555 C22.7477,93.1966 17.3389,120.2746 14.3705,131.9054 L-1.42108547e-14,131.9054 C1.5026,126.7393 12.5113,76.9711 13.3775,74.0135 L32.6914,74.0135 L37.239,107.185 Z" id="Fill-4" fill="#0F4D80"></path>
                <path d="M186.8173,120.1796 C186.8173,120.1796 187.8347,129.606 188.2139,131.904 L203.4898,131.904 C202.64,127.1299 194.3064,77.3915 193.6961,74.0007 L174.3324,74.0007 C173.2223,76.4274 151.1345,126.2132 148.5133,131.904 L164.0452,131.904 C164.859,129.9603 168.7977,120.1969 168.7977,120.1969 L186.8173,120.1796 Z M173.1753,108.2327 L182.3255,86.7549 L185.2832,108.2327 L173.1753,108.2327 Z" id="Fill-5" fill="#0F4D80"></path>
                <path d="M126.0779,84.8574 C128.5086,84.8574 131.2395,85.1241 132.914,87.0749 C134.1088,88.4492 134.5484,90.4136 134.1876,92.8667 C134.1876,92.8667 133.6873,97.2989 130.7834,98.6854 C130.7834,98.6854 128.7791,100.0063 125.4611,100.0905 C123.212147,100.0905 121.525432,100.0905 120.400955,100.0905 C120.372906,100.0905 120.358881,100.0905 120.358881,100.0905 L119.82426,103.828626 L131.8535,131.904 L147.3296,131.904 L135.6352,107.502 C142.7238,106.1824 148.2466,104.0842 149.6605,93.0935 C149.8308,91.7099 149.9595,90.3932 149.9595,89.1624 C149.9595,85.087 148.8923,81.7858 146.7725,79.3658 C142.9237,74.9174 136.3286,74.0137 131.474,74.0137 L109.6058,74.0137 C109.0859,77.5253 101.9628,127.2583 101.2856,131.904 L115.812,131.904 C116.077315,130.125509 118.076297,116.105138 119.82426,103.828626 C121.258421,93.7560473 122.5236,84.8574 122.5236,84.8574 L126.0779,84.8574 Z" id="Fill-6" fill="#0F4D80"></path>
                <path d="M569.3828,0 C560.0792,38.5234 526.6868,59.5242 507.0441,70.7284 L506.2062,69.5849 C514.2753,63.0527 541.8927,42.6654 550.7226,8.8861 L569.3828,0 Z" id="Fill-7" fill="#F58733"></path>
                <path d="M396.5,96.7949 C396.3997,96.749 392.2821,94.6644 392.2821,94.6644 L392.2339,94.6471 L392.1656,94.6106 C390.8075,93.8347 387.623,91.9936 387.623,88.9022 C387.6432,87.391 388.22,86.0703 389.3003,85.191 C390.5983,84.077 392.6455,83.6572 394.8026,84.0705 C397.5392,84.4872 400.6885,86.2679 404.1422,89.2293 C405.794,86.0703 408.9177,80.0456 410.0479,77.902 C406.093,74.6198 402.2626,72.866 396.5295,71.8659 C389.4573,70.8321 382.6343,72.3268 377.8293,75.9484 C373.7982,79.0492 371.2935,83.5744 370.6137,89.0428 C370.5134,89.9668 370.4502,90.8827 370.4502,91.7524 C370.4502,94.7676 371.1005,97.3485 372.3741,99.5604 C380.9908,99.3555 390.0444,98.9402 399.2269,98.2069 C398.3714,97.6915 397.4774,97.2062 396.5,96.7949" id="Fill-8" fill="#0F4D80"></path>
                <path d="M461.0296,74.0132 C460.6724,76.428 459.5729,84.043 459.0289,87.7825 C470.2802,84.6369 483.8746,80.1096 496.4695,74.0132 L461.0296,74.0132 Z" id="Fill-9" fill="#0F4D80"></path>
                <path d="M466.9461,88.4052 L466.9591,88.4052 C465.3652,88.9257 463.7109,89.4416 462.0308,89.9663 C461.6903,90.0692 461.3363,90.1899 460.9905,90.2795 C460.324,90.5 459.6253,90.7061 458.9419,90.9034 C458.5759,91.0307 458.2222,91.1231 457.8386,91.2439 C455.5403,91.9168 453.1637,92.6033 450.7217,93.2667 C450.2662,93.3713 449.8092,93.496 449.3387,93.6346 C448.6654,93.8137 447.9681,94.0039 447.2552,94.1839 C446.7217,94.3302 446.235,94.4507 445.7171,94.578 C445.0402,94.7509 444.3313,94.9252 443.6232,95.1052 C442.9905,95.2753 442.3453,95.4284 441.7327,95.5741 C440.6088,95.8521 439.4988,96.1172 438.3689,96.3893 C437.7387,96.5276 437.0913,96.6977 436.4234,96.829 C436.1286,96.9148 435.8551,96.9525 435.5546,97.0359 L435.5481,97.0359 C428.9944,98.513 422.0458,99.906 414.6775,101.1841 C414.5096,101.2068 414.3529,101.2266 414.1706,101.2666 C412.8366,101.4868 411.476,101.7133 410.1349,101.9265 C409.8013,101.9826 409.4609,102.0271 409.1346,102.0765 C407.7096,102.3112 406.2668,102.5311 404.8231,102.74 C404.7162,102.7616 404.5966,102.7616 404.4931,102.7911 L404.4869,102.7911 C396.5873,103.915 388.2506,104.9321 379.4907,105.6912 L379.3671,105.6912 C378.0465,105.8159 376.702,105.9395 375.3533,106.0209 C375.2059,106.0359 375.0622,106.0518 374.9145,106.0614 C373.5621,106.1697 372.2037,106.2689 370.8283,106.3613 C370.7076,106.3613 370.5505,106.3749 370.4502,106.3817 C369.0558,106.4755 367.6428,106.5748 366.2257,106.6524 C366.1225,106.6524 366.0194,106.6751 365.8918,106.6751 C364.4654,106.7582 363.035,106.8296 361.5775,106.8925 C361.5134,106.8925 361.4635,106.8979 361.3963,106.8979 C354.0305,107.2488 346.4249,107.4422 338.5749,107.4422 L338.5749,107.4555 C338.3458,107.4555 338.1488,107.4422 337.9291,107.4422 C336.2077,107.4422 334.4445,107.4356 332.6893,107.426 C332.3273,107.4016 331.9653,107.4016 331.5835,107.3962 C325.2699,107.3163 318.7582,107.0881 312.1563,106.7488 L312.0225,106.7488 L312.0225,106.7196 C301.9643,106.202 291.5847,105.3612 280.8578,104.1279 L293.2123,92.5387 C293.2123,92.5387 300.3919,94.6973 310.2888,96.4647 C308.4188,85.2846 306.7602,75.445 306.4997,73.9996 L287.1374,73.9996 C286.0169,76.4277 263.9449,126.2064 261.3211,131.9046 L276.8598,131.9046 C277.683,129.9606 282.8928,117.5091 282.8928,117.5091 L299.0741,117.5 C299.0741,117.5 300.6561,129.6062 300.9886,131.9046 L316.2977,131.9046 C315.9745,130.0397 314.4892,121.2939 312.7799,111.1638 C323.6706,111.7602 334.6208,111.8931 344.804,111.7242 C345.3242,112.5972 345.6017,113.5179 345.6017,114.5143 C345.6017,114.8658 345.5549,115.2128 345.4849,115.5679 C345.2788,116.8793 344.5951,117.9533 343.5369,118.6852 C341.4336,120.1734 338.4224,119.8559 336.3304,119.4764 C331.3703,118.6169 327.4483,114.8684 324.2911,111.7602 C322.2893,114.9982 318.128,121.7874 316.7696,123.9945 C322.6232,129.2834 328.9325,132.537 335.5906,133.4622 C342.3302,134.4759 349.0231,132.9715 353.9982,129.3168 C358.3063,126.1154 361.0304,121.4603 361.8805,115.8319 C362.1472,114.2246 362.268,112.6777 362.1804,111.2233 C373.1009,110.7561 382.1683,110.0699 387.9867,109.5701 C389.893,110.9733 390.8894,112.6171 390.8894,114.5143 C390.8894,114.8658 390.837,115.2128 390.7913,115.5679 C390.5745,116.8793 389.8567,117.9533 388.8204,118.6852 C386.733,120.1734 383.6954,119.8559 381.617,119.4764 C376.666,118.6169 372.7213,114.8684 369.591,111.7602 C367.5903,114.9982 363.4316,121.7874 362.067,123.9945 C367.9163,129.2834 374.2055,132.537 380.8715,133.4622 C387.6341,134.4759 394.3292,132.9715 399.2553,129.3168 C403.6034,126.1154 406.33,121.4603 407.1866,115.8319 C407.6779,112.6973 407.5608,109.8689 406.8232,107.3656 C409.305,107.0068 411.6849,106.6388 413.9532,106.2689 C412.2156,118.4199 410.5947,129.8035 410.269,131.9046 L447.6586,131.9046 C448.0288,129.3557 448.9886,122.6577 449.4526,119.393 L426.7944,119.393 L428.3311,108.709 L448.8735,108.709 C449.1921,106.4755 449.93,101.4103 450.4124,98.1028 C453.2105,97.2261 454.6182,96.6977 454.6182,96.6977 C454.6182,96.6977 461.556,94.6049 470.5602,91.2694 C469.2571,100.3433 465.3011,128.0608 464.7512,131.9046 L480.9348,131.9046 C481.4413,128.4792 487.184,88.4052 487.184,88.4052 L498.9041,88.4052 C499.2582,85.9144 500.3711,77.9548 500.887,74.3604 C494.822,77.728 483.328,83.016 466.9461,88.4052" id="Fill-10" fill="#0F4D80"></path>
                <path d="M356.1247,99.6789 C354.7182,98.5915 353.0934,97.6411 351.2137,96.7952 C351.1261,96.7485 347.0077,94.6715 347.0077,94.6715 L346.9379,94.6474 L346.8725,94.6046 C345.5223,93.835 342.3597,91.9942 342.3597,88.9024 C342.3597,87.3913 342.9402,86.0681 344.0046,85.1905 C345.3415,84.0776 347.3589,83.6561 349.5163,84.0708 C352.2501,84.4875 355.4155,86.2682 358.8463,89.2298 C360.5003,86.0681 363.6445,80.0459 364.7562,77.8913 C360.7931,74.6201 356.9627,72.8663 351.2336,71.8665 C344.1708,70.8324 337.3387,72.3263 332.5535,75.9473 C328.4954,79.0484 325.9936,83.5733 325.3368,89.0419 C325.2132,89.9657 325.1812,90.883 325.1812,91.7527 C325.1812,94.307 325.6384,96.5687 326.5378,98.5448 C326.8678,98.5598 327.215,98.5731 327.5354,98.5915 C334.7807,99.1519 344.7142,99.5987 356.1247,99.6789" id="Fill-11" fill="#0F4D80"></path>
                <path d="M431.5192,86.4882 L453.5739,86.4882 C453.9342,83.9463 454.8985,77.2387 455.3677,74.0129 L418.5813,74.0129 C418.367,75.5011 416.9542,85.354 415.3467,96.5489 C420.4292,95.9145 425.4701,95.165 430.4027,94.2749 L431.5192,86.4882 Z" id="Fill-12" fill="#0F4D80"></path>
                <path d="M49.2372,157.0998 L49.2372,167.9947 C49.2372,170.6477 48.7465,172.565 47.7691,173.7635 C46.7932,174.9529 45.2287,175.553 43.0849,175.553 C41.4975,175.553 40.3239,175.1406 39.5736,174.3236 C38.8171,173.4996 38.4364,172.2526 38.4364,170.5553 L38.4364,157.0998 L34.9685,157.0998 L34.9685,170.7888 C34.9685,173.4418 35.6091,175.3767 36.8867,176.5763 C38.1563,177.7884 40.0538,178.3919 42.567,178.3919 C44.0782,178.3919 45.4093,178.1218 46.5491,177.5687 C47.6901,177.0242 48.5736,176.2506 49.1904,175.2506 L49.2372,175.2506 L49.2372,178.0084 L49.8605,178.0084 L52.6813,178.0084 L52.6813,157.0998 L49.2372,157.0998 Z" id="Fill-13" fill="#0F4D80"></path>
                <path d="M86.3974,157.0998 L86.3974,167.9947 C86.3974,170.6477 85.9068,172.565 84.9302,173.7635 C83.9491,174.9529 82.3858,175.553 80.242,175.553 C78.6586,175.553 77.4802,175.1406 76.7304,174.3236 C75.9773,173.4996 75.6005,172.2526 75.6005,170.5553 L75.6005,157.0998 L72.1281,157.0998 L72.1281,170.7888 C72.1281,173.4418 72.7662,175.3767 74.0401,176.5763 C75.3205,177.7884 77.2174,178.3919 79.7244,178.3919 C81.2384,178.3919 82.5653,178.1218 83.7093,177.5687 C84.854,177.0242 85.7296,176.2506 86.3546,175.2506 L86.3974,175.2506 L86.3974,178.0084 L87.0205,178.0084 L89.8455,178.0084 L89.8455,157.0998 L86.3974,157.0998 Z" id="Fill-14" fill="#0F4D80"></path>
                <path d="M170.2746,157.0998 L170.2746,167.9947 C170.2746,170.6477 169.7836,172.565 168.8034,173.7635 C167.8331,174.9529 166.2656,175.553 164.1257,175.553 C162.5354,175.553 161.3613,175.1406 160.6102,174.3236 C159.857,173.4996 159.4774,172.2526 159.4774,170.5553 L159.4774,157.0998 L156.0092,157.0998 L156.0092,170.7888 C156.0092,173.4418 156.6487,175.3767 157.9195,176.5763 C159.2002,177.7884 161.0946,178.3919 163.6081,178.3919 C165.1221,178.3919 166.4492,178.1218 167.5876,177.5687 C168.7337,177.0242 169.6107,176.2506 170.2341,175.2506 L170.2746,175.2506 L170.2746,178.0084 L170.8979,178.0084 L173.7227,178.0084 L173.7227,157.0998 L170.2746,157.0998 Z" id="Fill-15" fill="#0F4D80"></path>
                <path d="M217.3606,168.9781 C217.2747,171.1831 216.824,172.832 215.9569,173.8539 C215.0008,174.9855 213.4817,175.5567 211.4025,175.5567 C209.5976,175.5567 208.218,174.8903 207.2611,173.5563 C206.3038,172.2266 205.8168,170.265 205.8168,167.6668 C205.8168,165.0696 206.3038,163.0735 207.265,161.6655 C208.2319,160.2578 209.5976,159.5619 211.3622,159.5619 C213.44,159.5619 214.9702,160.1802 215.9405,161.4178 C216.8217,162.5355 217.2747,164.3723 217.3606,166.8436 L217.3606,168.9781 Z M217.3606,148.3872 L217.3606,156.7264 L217.3606,159.8074 C215.8466,157.7509 213.6872,156.7264 210.8891,156.7264 C208.1582,156.7264 206.0345,157.6772 204.537,159.6047 C203.0323,161.5153 202.2789,164.1835 202.2789,167.5982 C202.2789,171.0315 203.0272,173.6972 204.5273,175.57 C206.0234,177.4539 208.1313,178.3908 210.8489,178.3908 C213.7257,178.3908 215.8965,177.3332 217.3606,175.2137 L217.3606,178.0101 L218.0279,178.0101 L220.79,178.0101 L220.79,148.3872 L217.3606,148.3872 Z" id="Fill-16" fill="#0F4D80"></path>
                <path d="M195.6101,158.6004 C194.366,157.3603 192.4662,156.7358 189.9017,156.7358 C188.498,156.7358 187.2068,157.0241 186.0432,157.5802 C184.8727,158.1474 183.973,158.9369 183.3199,159.965 L183.2825,159.965 L183.2825,157.1136 L182.6164,157.1136 L179.8543,157.1136 L179.8543,178.0044 L183.2825,178.0044 L183.2825,167.1837 C183.2825,164.5019 183.7689,162.5757 184.7401,161.3849 C185.7064,160.1972 187.2669,159.6113 189.4053,159.6113 C191.0222,159.6113 192.1958,160.0217 192.9529,160.8582 C193.7103,161.6856 194.0859,162.9522 194.0859,164.6535 L194.0859,178.0044 L197.471,178.0044 L197.471,164.4055 C197.471,161.7778 196.8502,159.8445 195.6101,158.6004" id="Fill-17" fill="#0F4D80"></path>
                <path d="M67.3503,175.4575 C66.7499,175.5456 66.2298,175.5938 65.7805,175.5938 C64.756,175.5938 63.9519,175.263 63.3725,174.6235 C62.8016,173.973 62.5053,173.0429 62.5053,171.8456 L62.5053,160.8789 L62.5053,159.7686 L68.5437,159.7686 L68.5437,157.1003 L62.5053,157.1003 L62.5053,152.3018 L60.4669,152.3018 L59.0635,152.3018 L59.0635,156.7735 L59.0635,157.1003 L58.3571,157.1003 L56.1126,157.1003 L56.1126,158.1341 L56.1126,159.7686 L59.0635,159.7686 L59.0635,160.8789 L59.0635,171.9323 C59.0635,176.2362 61.1039,178.3908 65.1934,178.3908 C65.8797,178.3908 66.5572,178.3253 67.227,178.187 C67.8866,178.0569 68.3841,177.9216 68.6976,177.7805 L68.6976,175.153 C68.3937,175.263 67.9402,175.3673 67.3503,175.4575" id="Fill-18" fill="#0F4D80"></path>
                <path d="M106.3343,174.0801 C105.2268,175.1165 103.7265,175.6233 101.8119,175.6233 C100.6055,175.6233 99.659,175.3376 98.9954,174.7534 C98.3381,174.1728 98.0047,173.3292 98.0047,172.2351 C98.0047,170.7888 98.549,169.7324 99.6525,169.062 C100.7424,168.3916 102.4891,168.0078 104.8941,167.9168 L107.9782,167.7816 L107.9782,169.6745 C107.9782,171.5732 107.4217,173.0438 106.3343,174.0801 Z M96.3584,161.881 C97.7913,160.9413 100.1792,160.1649 100.1792,160.1649 C101.1594,159.8445 102.5923,159.5254 103.6902,159.5254 C105.2081,159.5254 106.3006,159.9021 106.9846,160.6581 C107.6726,161.4093 108.0142,162.582 108.0142,164.1682 L108.0142,165.403 L104.4669,165.5374 C97.7819,165.7463 94.4368,167.961 94.4368,172.2084 C94.4368,174.1728 95.0176,175.697 96.1877,176.7748 C97.3542,177.8539 98.9685,178.3919 101.0319,178.3919 C102.6056,178.3919 103.9036,178.1612 104.94,177.7039 C105.944,177.2442 106.9645,176.8003 107.9782,175.5627 L107.9782,178.0109 L108.8722,178.0109 L111.3661,178.0109 L111.3661,173.9191 L111.3661,163.77 C111.3661,161.3313 110.7519,159.5577 109.5182,158.4366 C108.2851,157.3237 106.4038,156.7531 103.8832,156.7531 C102.6663,156.7531 101.0489,157.0734 99.8087,157.3937 C98.5581,157.7101 97.4106,158.1469 96.3584,158.7079 L96.3584,161.881 Z" id="Fill-19" fill="#0F4D80"></path>
                <polygon id="Fill-20" fill="#0F4D80" points="120.7635 178.0107 117.3356 178.0107 117.3356 148.3863 120.7635 148.3863"></polygon>
                <polygon id="Fill-21" fill="#0F4D80" points="140.4836 178.0107 136.9831 178.0107 136.9831 150.1668 152.5376 150.1668 152.5376 153.2625 140.4836 153.2625 140.4836 163.1248 151.7953 163.1248 151.7953 166.1842 140.4836 166.1842"></polygon>
                <polygon id="Fill-22" fill="#0F4D80" points="25.139 150.1673 23.464 150.1673 14.7279 172.9834 14.5715 172.9834 5.9814 150.1673 4.2678 150.1673 0.8036 150.1673 0.8036 178.0109 4.0445 178.0109 4.2678 178.0109 4.2678 154.5525 13.0844 178.0109 15.9656 178.0109 25.139 153.9417 25.139 160.8979 25.139 178.0109 28.6001 178.0109 28.6001 150.1673"></polygon>
            </g>
        </g>
    </g>
</svg>