<svg width="57" height="64" viewBox="0 0 57 64" fill="none" xmlns="http://www.w3.org/2000/svg">
<g filter="url(#filter0_d)">
<rect x="4" y="2" width="49" height="56" rx="8" fill="white"/>
</g>
<g filter="url(#filter1_d)">
<path d="M34.6802 32.2619C36.204 33.7857 37.0432 35.8118 37.0432 37.9668C37.0432 38.5159 37.4883 38.961 38.0374 38.961H44.9478C45.4969 38.961 45.942 38.5159 45.942 37.9668C45.942 33.4348 44.1771 29.174 40.9725 25.9694L35.3205 28.9704L34.6802 32.2619Z" fill="#E62E6B"/>
<path d="M40.9725 25.9694C37.7679 22.7649 33.5072 21 28.9751 21C24.4431 21 20.1823 22.7649 16.9778 25.9694L18.2649 29.245L23.2701 32.2619C24.794 30.7381 26.8201 29.8988 28.9751 29.8988C31.1302 29.8988 33.1562 30.7381 34.6802 32.2619L40.9725 25.9694Z" fill="#FABE2C"/>
<path d="M16.9778 25.9694C13.7732 29.174 12.0083 33.4348 12.0083 37.9668C12.0083 38.5159 12.4534 38.961 13.0025 38.961H19.9129C20.462 38.961 20.9071 38.5159 20.9071 37.9668C20.9071 35.8117 21.7463 33.7857 23.2701 32.2619L16.9778 25.9694Z" fill="#00DD80"/>
<path d="M29.0762 29.9C31.1934 29.9259 33.18 30.7619 34.6801 32.2619L40.9724 25.9695C37.7918 22.7888 33.5704 21.0273 29.0762 21.0013V29.9Z" fill="#FF9100"/>
</g>
<g filter="url(#filter2_d)">
<path fill-rule="evenodd" clip-rule="evenodd" d="M28.0633 25.914C28.2415 24.784 29.8705 24.7902 30.0401 25.9216L31.5571 36.0446C31.7903 37.6007 30.5851 39 29.0116 39V39C27.4302 39 26.2227 37.5873 26.4691 36.0252L28.0633 25.914Z" fill="#003974"/>
<path d="M29.9906 25.929L31.5077 36.052C31.7363 37.5779 30.5545 38.95 29.0116 38.95C27.4609 38.95 26.2769 37.5647 26.5184 36.033L28.1127 25.9218C28.282 24.8483 29.8295 24.8542 29.9906 25.929Z" stroke="#ECEFF4" stroke-width="0.1"/>
</g>
<circle cx="29" cy="36" r="1" fill="#DBE0E9"/>
<defs>
<filter id="filter0_d" x="0" y="0" width="57" height="64" filterUnits="userSpaceOnUse" color-interpolation-filters="sRGB">
<feFlood flood-opacity="0" result="BackgroundImageFix"/>
<feColorMatrix in="SourceAlpha" type="matrix" values="0 0 0 0 0 0 0 0 0 0 0 0 0 0 0 0 0 0 127 0"/>
<feOffset dy="2"/>
<feGaussianBlur stdDeviation="2"/>
<feColorMatrix type="matrix" values="0 0 0 0 0.950266 0 0 0 0 0.667031 0 0 0 0 0.4192 0 0 0 0.307884 0"/>
<feBlend mode="normal" in2="BackgroundImageFix" result="effect1_dropShadow"/>
<feBlend mode="normal" in="SourceGraphic" in2="effect1_dropShadow" result="shape"/>
</filter>
<filter id="filter1_d" x="8.0083" y="19" width="41.9337" height="25.961" filterUnits="userSpaceOnUse" color-interpolation-filters="sRGB">
<feFlood flood-opacity="0" result="BackgroundImageFix"/>
<feColorMatrix in="SourceAlpha" type="matrix" values="0 0 0 0 0 0 0 0 0 0 0 0 0 0 0 0 0 0 127 0"/>
<feOffset dy="2"/>
<feGaussianBlur stdDeviation="2"/>
<feColorMatrix type="matrix" values="0 0 0 0 0 0 0 0 0 0 0 0 0 0 0 0 0 0 0.140543 0"/>
<feBlend mode="normal" in2="BackgroundImageFix" result="effect1_dropShadow"/>
<feBlend mode="normal" in="SourceGraphic" in2="effect1_dropShadow" result="shape"/>
</filter>
<filter id="filter2_d" x="22.437" y="23.0698" width="13.149" height="21.9302" filterUnits="userSpaceOnUse" color-interpolation-filters="sRGB">
<feFlood flood-opacity="0" result="BackgroundImageFix"/>
<feColorMatrix in="SourceAlpha" type="matrix" values="0 0 0 0 0 0 0 0 0 0 0 0 0 0 0 0 0 0 127 0"/>
<feOffset dy="2"/>
<feGaussianBlur stdDeviation="2"/>
<feColorMatrix type="matrix" values="0 0 0 0 0 0 0 0 0 0 0 0 0 0 0 0 0 0 0.0790538 0"/>
<feBlend mode="normal" in2="BackgroundImageFix" result="effect1_dropShadow"/>
<feBlend mode="normal" in="SourceGraphic" in2="effect1_dropShadow" result="shape"/>
</filter>
</defs>
</svg>
