<svg width="17" height="15" viewBox="0 0 17 15" fill="none" xmlns="http://www.w3.org/2000/svg">
<path fill-rule="evenodd" clip-rule="evenodd" d="M0.5576 0H16.1684C16.4761 0 16.7257 0.249617 16.726 0.5576V8.36287C16.726 8.67085 16.4764 8.92047 16.1684 8.92047H13.3807V10.0634C13.3807 11.1506 12.6673 13.1353 10.0357 13.3807V14.1684C10.0357 14.4764 9.78605 14.726 9.47807 14.726H5.01783C4.70985 14.726 4.46023 14.4764 4.46023 14.1684V11.7082C4.43672 10.6803 5.13315 9.775 6.13275 9.53388V8.92047H0.5576C0.249617 8.92047 0 8.67085 0 8.36287V0.5576C0 0.249617 0.249617 0 0.5576 0ZM6.8969 5.24025C7.69165 4.62287 8.823 4.92292 9.26613 5.85962C9.74808 5.5505 10.0382 5.01613 10.0359 4.44295C10.0311 3.519 9.2786 2.77412 8.35493 2.77865C7.43098 2.78347 6.6861 3.536 6.69063 4.45967C6.6929 4.73308 6.76402 5.0014 6.8969 5.24025ZM8.36258 10.0354C8.36258 10.3434 8.6122 10.593 8.92018 10.593C9.22817 10.593 9.47778 10.3434 9.47778 10.0354V8.92047H12.2655V10.0354C12.2655 10.264 12.1595 12.2655 9.47778 12.2655C9.1698 12.2655 8.92018 12.5151 8.92018 12.8231V13.6108H5.57515V11.7082C5.5403 11.1273 5.98287 10.6281 6.5637 10.5933C6.60592 10.5907 6.64813 10.5907 6.69007 10.5933C6.99805 10.5933 7.24767 10.3436 7.24767 10.0357V6.69035C7.24767 5.93555 8.36258 5.9041 8.36258 6.69035V10.0354ZM9.47807 7.80527H15.6108L15.6105 1.11492H1.11492V7.80527H6.13303V6.69035C6.13587 6.52375 6.16222 6.35885 6.21095 6.19962C5.80182 5.71228 5.57685 5.0966 5.57543 4.46023C5.5726 3.34928 6.22965 2.3426 7.24795 1.89833C8.65895 1.28237 10.302 1.92723 10.918 3.33795C11.5337 4.74895 10.8891 6.392 9.47807 7.00797V7.80527ZM1.67252 3.34503V2.23012C1.67252 1.92213 1.92213 1.67252 2.23012 1.67252H3.34503C3.65302 1.67252 3.90263 1.92213 3.90263 2.23012C3.90263 2.5381 3.65302 2.78772 3.34503 2.78772H2.78772V3.34532C2.78772 3.6533 2.5381 3.90292 2.23012 3.90292C1.92213 3.90292 1.67252 3.65302 1.67252 3.34503ZM13.3807 1.67252C13.0727 1.67252 12.8231 1.92213 12.8231 2.23012C12.8231 2.5381 13.0727 2.78772 13.3804 2.78772H13.938V3.34503C13.938 3.65302 14.1876 3.90263 14.4956 3.90263C14.8036 3.90263 15.0532 3.65302 15.0532 3.34503V2.23012C15.0532 1.92213 14.8036 1.67252 14.4956 1.67252H13.3807ZM1.67252 6.69035V5.57543C1.67252 5.26745 1.92213 5.01783 2.23012 5.01783C2.5381 5.01783 2.78772 5.26745 2.78772 5.57543V6.13303H3.34532C3.6533 6.13303 3.90292 6.38265 3.90292 6.69063C3.90292 6.99862 3.6533 7.24823 3.34532 7.24823H2.23012C1.92213 7.24795 1.67252 6.99833 1.67252 6.69035ZM13.3807 6.13275C13.0727 6.13275 12.8231 6.38237 12.8231 6.69035C12.8231 6.99833 13.0727 7.24795 13.381 7.24767H14.4959C14.8039 7.24767 15.0535 6.99805 15.0535 6.69007V5.57515C15.0535 5.26717 14.8039 5.01755 14.4959 5.01755C14.1879 5.01755 13.9383 5.26717 13.9383 5.57515V6.13275H13.3807Z" fill="#F58220"/>
</svg>
