<?xml version="1.0" encoding="UTF-8"?>
<svg width="389px" height="216px" viewBox="0 0 389 216" version="1.1" xmlns="http://www.w3.org/2000/svg" xmlns:xlink="http://www.w3.org/1999/xlink">
    <!-- Generator: Sketch 53.2 (72643) - https://sketchapp.com -->
    <title>Group 83</title>
    <desc>Created with Sketch.</desc>
    <defs>
        <path d="M4.9814523,-2.89373179e-14 L96.284801,-4.26325641e-14 C97.3893705,-5.06839086e-14 98.284801,0.8954305 98.284801,2 L98.284801,44 C98.284801,45.1045695 97.3893705,46 96.284801,46 L4.9814523,46 C3.8768828,46 2.9814523,45.1045695 2.9814523,44 L2.9814523,26.0559816 L3.55271368e-14,23 L2.9814523,19.8333157 L2.9814523,2 C2.9814523,0.8954305 3.8768828,-3.09559223e-14 4.9814523,-3.50830476e-14 Z" id="path-1"></path>
        <filter x="-21.9%" y="-41.3%" width="142.3%" height="187.0%" filterUnits="objectBoundingBox" id="filter-2">
            <feMorphology radius="2" operator="dilate" in="SourceAlpha" result="shadowSpreadOuter1"></feMorphology>
            <feOffset dx="0" dy="1" in="shadowSpreadOuter1" result="shadowOffsetOuter1"></feOffset>
            <feGaussianBlur stdDeviation="4.5" in="shadowOffsetOuter1" result="shadowBlurOuter1"></feGaussianBlur>
            <feComposite in="shadowBlurOuter1" in2="SourceAlpha" operator="out" result="shadowBlurOuter1"></feComposite>
            <feColorMatrix values="0 0 0 0 0.160784314   0 0 0 0 0.192156863   0 0 0 0 0.223529412  0 0 0 0.133741259 0" type="matrix" in="shadowBlurOuter1"></feColorMatrix>
        </filter>
        <rect id="path-3" x="10.2848005" y="29" width="6" height="6" rx="1"></rect>
        <filter x="-116.7%" y="-83.3%" width="333.3%" height="333.3%" filterUnits="objectBoundingBox" id="filter-4">
            <feOffset dx="0" dy="2" in="SourceAlpha" result="shadowOffsetOuter1"></feOffset>
            <feGaussianBlur stdDeviation="2" in="shadowOffsetOuter1" result="shadowBlurOuter1"></feGaussianBlur>
            <feColorMatrix values="0 0 0 0 0   0 0 0 0 0   0 0 0 0 0  0 0 0 0.0603693182 0" type="matrix" in="shadowBlurOuter1"></feColorMatrix>
        </filter>
    </defs>
    <g id="Page-1" stroke="none" stroke-width="1" fill="none" fill-rule="evenodd">
        <g id="Dashboard---V1.5---Monthly-Investment" transform="translate(-644.000000, -907.000000)">
            <g id="Group-81" transform="translate(616.000000, 785.000000)">
                <g id="Group-83" transform="translate(26.000000, 134.000000)">
                    <g id="Group-73" transform="translate(0.000000, 10.000000)">
                        <path d="M3,129.5 L391,129.5" id="Path-29" stroke="#A5ACC5" stroke-width="0.6" opacity="0.199715" stroke-linecap="square" stroke-dasharray="2,3"></path>
                        <path d="M3,108.5 L391,108.5" id="Path-29" stroke="#A5ACC5" stroke-width="0.6" opacity="0.199715" stroke-linecap="square" stroke-dasharray="2,3"></path>
                        <path d="M3,86.5 L391,86.5" id="Path-29" stroke="#A5ACC5" stroke-width="0.6" opacity="0.199715" stroke-linecap="square" stroke-dasharray="2,3"></path>
                        <path d="M3,65.5 L391,65.5" id="Path-29" stroke="#A5ACC5" stroke-width="0.6" opacity="0.199715" stroke-linecap="square" stroke-dasharray="2,3"></path>
                        <path d="M3,43.5 L391,43.5" id="Path-29" stroke="#A5ACC5" stroke-width="0.6" opacity="0.199715" stroke-linecap="square" stroke-dasharray="2,3"></path>
                        <path d="M3,21.5 L391,21.5" id="Path-29" stroke="#A5ACC5" stroke-width="0.6" opacity="0.199715" stroke-linecap="square" stroke-dasharray="2,3"></path>
                        <path d="M3,0.5 L391,0.5" id="Path-29" stroke="#A5ACC5" stroke-width="0.6" opacity="0.199715" stroke-linecap="square" stroke-dasharray="2,3"></path>
                        <g id="Group-7-Copy-6" transform="translate(0.884793, 138.364055)" fill="#46576A" font-family="OpenSans, Open Sans" font-size="11" font-weight="normal" opacity="0.7">
                            <text id="Sep-19" transform="translate(22.709278, 32.536395) rotate(-50.000000) translate(-22.709278, -32.536395) ">
                                <tspan x="-3.50270389" y="37.0363946">Sep-19</tspan>
                            </text>
                            <text id="Oct-19" transform="translate(54.709278, 32.536395) rotate(-50.000000) translate(-54.709278, -32.536395) ">
                                <tspan x="28.4972961" y="37.0363946">Oct-19</tspan>
                            </text>
                            <text id="Nov-19" transform="translate(85.709278, 32.536395) rotate(-50.000000) translate(-85.709278, -32.536395) ">
                                <tspan x="59.4972961" y="37.0363946">Nov-19</tspan>
                            </text>
                            <text id="Dec-19" transform="translate(114.709278, 32.536395) rotate(-50.000000) translate(-114.709278, -32.536395) ">
                                <tspan x="88.4972961" y="37.0363946">Dec-19</tspan>
                            </text>
                            <text id="Jan-20" transform="translate(148.709278, 29.536395) rotate(-50.000000) translate(-148.709278, -29.536395) ">
                                <tspan x="122.497296" y="34.0363946">Jan-20</tspan>
                            </text>
                            <text id="Feb-20" transform="translate(178.709278, 31.536395) rotate(-50.000000) translate(-178.709278, -31.536395) ">
                                <tspan x="152.497296" y="36.0363946">Feb-20</tspan>
                            </text>
                            <text id="Mar-20" transform="translate(208.709278, 32.536395) rotate(-50.000000) translate(-208.709278, -32.536395) ">
                                <tspan x="182.497296" y="37.0363946">Mar-20</tspan>
                            </text>
                            <text id="Apr-20" transform="translate(241.709278, 30.536395) rotate(-50.000000) translate(-241.709278, -30.536395) ">
                                <tspan x="215.497296" y="35.0363946">Apr-20</tspan>
                            </text>
                            <text id="May-20" transform="translate(271.709278, 33.536395) rotate(-50.000000) translate(-271.709278, -33.536395) ">
                                <tspan x="245.497296" y="38.0363946">May-20</tspan>
                            </text>
                            <text id="Jun-20" transform="translate(303.709278, 29.536395) rotate(-50.000000) translate(-303.709278, -29.536395) ">
                                <tspan x="277.497296" y="34.0363946">Jun-20</tspan>
                            </text>
                            <text id="Jul-20" transform="translate(338.709278, 25.536395) rotate(-50.000000) translate(-338.709278, -25.536395) ">
                                <tspan x="312.497296" y="30.0363946">Jul-20</tspan>
                            </text>
                            <text id="Aug-20" transform="translate(366.709278, 31.536395) rotate(-50.000000) translate(-366.709278, -31.536395) ">
                                <tspan x="340.497296" y="36.0363946">Aug-20</tspan>
                            </text>
                        </g>
                        <rect id="Rectangle-Copy" fill="#F58220" x="23" y="46" width="6" height="110"></rect>
                        <rect id="Rectangle-Copy" fill="#003974" x="30" y="102" width="6" height="54"></rect>
                        <rect id="Rectangle-Copy-17" fill="#003974" x="61" y="138" width="6" height="18"></rect>
                        <rect id="Rectangle-Copy-18" fill="#003974" x="92" y="121" width="6" height="35"></rect>
                        <rect id="Rectangle-Copy-19" fill="#003974" x="123" y="130" width="6" height="26"></rect>
                        <rect id="Rectangle-Copy-20" fill="#003974" x="154" y="114" width="6" height="42"></rect>
                        <rect id="Rectangle-Copy-21" fill="#003974" x="185" y="150" width="6" height="6"></rect>
                        <rect id="Rectangle-Copy-22" fill="#003974" x="216" y="143" width="6" height="13"></rect>
                        <rect id="Rectangle-Copy-21" fill="#003974" x="308" y="150" width="6" height="6"></rect>
                        <rect id="Rectangle-Copy-22" fill="#003974" x="339" y="143" width="6" height="13"></rect>
                        <rect id="Rectangle-Copy-25" fill="#003974" x="370" y="127" width="6" height="29"></rect>
                        <rect id="Rectangle-Copy-23" fill="#003974" x="247" y="127" width="6" height="29"></rect>
                        <rect id="Rectangle-Copy-24" fill="#003974" x="278" y="118" width="6" height="38"></rect>
                        <rect id="Rectangle-Copy-3" fill="#F58220" x="53.9090909" y="27" width="6" height="129"></rect>
                        <rect id="Rectangle-Copy-4" fill="#F58220" x="84.8181818" y="18" width="6" height="138"></rect>
                        <rect id="Rectangle-Copy-5" fill="#F58220" x="115.727273" y="46" width="6" height="110"></rect>
                        <rect id="Rectangle-Copy-11" fill="#F58220" x="146.636364" y="39" width="6" height="117"></rect>
                        <rect id="Rectangle-Copy-15" fill="#F58220" x="177.545455" y="25" width="6" height="131"></rect>
                        <rect id="Rectangle-Copy" fill="#F58220" x="208.454545" y="6" width="6" height="150"></rect>
                        <rect id="Rectangle-Copy-3" fill="#F58220" x="239.363636" y="30" width="6" height="126"></rect>
                        <rect id="Rectangle-Copy-4" fill="#F58220" x="270.272727" y="56" width="6" height="100"></rect>
                        <rect id="Rectangle-Copy-5" fill="#F58220" x="301.181818" y="42" width="6" height="114"></rect>
                        <rect id="Rectangle-Copy-11" fill="#F58220" x="332.090909" y="9" width="6" height="147"></rect>
                        <rect id="Rectangle-Copy-15" fill="#F58220" x="363" y="18" width="6" height="138"></rect>
                        <path d="M196.5,-38 L196.5,349.734519" id="Path-28" stroke="#A5ACC5" opacity="0.279599144" stroke-dasharray="3,2" transform="translate(196.500000, 155.867260) rotate(90.000000) translate(-196.500000, -155.867260) "></path>
                    </g>
                    <g id="Group-82" transform="translate(213.000000, -0.000000)">
                        <g id="Rectangle">
                            <use fill="black" fill-opacity="1" filter="url(#filter-2)" xlink:href="#path-1"></use>
                            <use fill-opacity="0.97" fill="#FFFFFF" fill-rule="evenodd" xlink:href="#path-1"></use>
                        </g>
                        <text id="Mar-20" font-family="SpoqaHanSans-Regular, SpoqaHanSans" font-size="12" font-weight="normal" fill="#606C78">
                            <tspan x="24.2848005" y="18">Mar-20</tspan>
                        </text>
                        <text id="₹12-Cr" font-family="PingFangSC-Semibold, PingFang SC" font-size="14" font-weight="500" letter-spacing="0.600000024" fill="#000000">
                            <tspan x="24.2848005" y="36">₹</tspan>
                            <tspan x="33.2848006" y="36" font-family="SpoqaHanSans-Bold, SpoqaHanSans" font-weight="bold">12 Cr</tspan>
                        </text>
                        <g id="Rectangle">
                            <use fill="black" fill-opacity="1" filter="url(#filter-4)" xlink:href="#path-3"></use>
                            <use fill="#F58220" fill-rule="evenodd" xlink:href="#path-3"></use>
                        </g>
                    </g>
                </g>
            </g>
        </g>
    </g>
</svg>