<?xml version="1.0" encoding="UTF-8"?>
<svg width="14px" height="12px" viewBox="0 0 14 12" version="1.1" xmlns="http://www.w3.org/2000/svg" xmlns:xlink="http://www.w3.org/1999/xlink">
    <!-- Generator: Sketch 53.2 (72643) - https://sketchapp.com -->
    <title>account_details</title>
    <desc>Created with Sketch.</desc>
    <g id="Page-1" stroke="none" stroke-width="1" fill="none" fill-rule="evenodd">
        <g id="profile-menu" transform="translate(-39.000000, -147.000000)" fill="#BCC1C6" fill-rule="nonzero">
            <g id="Group-2" transform="translate(39.000000, 142.000000)">
                <g id="account_details" transform="translate(0.000000, 5.000000)">
                    <path d="M13.0396983,9.38229456 C12.6943738,9.38229456 12.4144502,9.10503692 12.4144502,8.76300119 L12.4144502,3.71576022 C12.4144502,2.34984676 11.292505,1.23858674 9.91345772,1.23858674 L3.91107582,1.23858674 C2.53202858,1.23858674 1.41008337,2.34984676 1.41008337,3.71576022 L1.41008337,8.76300119 C1.41008337,9.10503692 1.13015979,9.38229456 0.784835252,9.38229456 C0.439510719,9.38229456 0.159587138,9.10503692 0.159587138,8.76300119 L0.159587138,3.71576022 C0.159587138,1.66689004 1.84250496,0 3.91107582,0 L9.91345772,0 C11.9820286,0 13.6649464,1.66689004 13.6649464,3.71576022 L13.6649464,8.76300119 C13.6649464,9.10503692 13.3850228,9.38229456 13.0396983,9.38229456 Z M13.0396983,10.6137356 C13.3844601,10.6137356 13.6649464,10.8915506 13.6649464,11.233029 C13.6649464,11.5745073 13.3844601,11.8523224 13.0396983,11.8523224 L0.784835252,11.8523224 C0.440073442,11.8523224 0.159587138,11.5745073 0.159587138,11.233029 C0.159587138,10.8915506 0.440073442,10.6137356 0.784835252,10.6137356 L13.0396983,10.6137356 Z M8.00684796,4.11830091 C8.00684796,3.04265026 7.12330985,2.1675268 6.0373164,2.1675268 C4.95132295,2.1675268 4.06778484,3.04265026 4.06778484,4.11830091 C4.06778484,5.19395157 4.95132295,6.06907503 6.0373164,6.06907503 C7.12330985,6.06907503 8.00684796,5.19395157 8.00684796,4.11830091 Z M6.75635173,4.11830091 C6.75635173,4.51099484 6.43381749,4.83048829 6.0373164,4.83048829 C5.6408153,4.83048829 5.31828106,4.51099484 5.31828106,4.11830091 C5.31828106,3.72560699 5.6408153,3.40611354 6.0373164,3.40611354 C6.43381749,3.40611354 6.75635173,3.72560699 6.75635173,4.11830091 Z M8.55184547,8.60672251 C8.2640125,7.51366971 7.26333416,6.75029774 6.11841108,6.75029774 L5.76864728,6.75029774 C4.6237242,6.75029774 3.62304585,7.51366971 3.33521288,8.60669154 C3.24805329,8.93764192 3.44825774,9.27589996 3.7824216,9.36222946 C4.11667924,9.44852799 4.45803345,9.25026121 4.5452243,8.91927987 C4.6895003,8.37148392 5.19257493,7.98888448 5.76864728,7.98888448 L6.11841108,7.98888448 C6.69448343,7.98888448 7.19758932,8.37148392 7.34183406,8.91931084 C7.41520693,9.197869 7.66874504,9.38244938 7.94641773,9.38244938 C7.99862594,9.38244938 8.05174077,9.37591584 8.10463676,9.36226042 C8.43876935,9.27593092 8.63900506,8.93767289 8.55184547,8.60672251 Z M11,5.5 C11,4.67290476 10.3270952,4 9.5,4 C8.67290476,4 8,4.67290476 8,5.5 C8,6.32709524 8.67290476,7 9.5,7 C10.3270952,7 11,6.32709524 11,5.5 Z M10,5.5 C10,5.77569565 9.77571739,6 9.5,6 C9.22428261,6 9,5.77569565 9,5.5 C9,5.22430435 9.22428261,5 9.5,5 C9.77571739,5 10,5.22430435 10,5.5 Z M10.9590486,9.15218652 C11.2132663,9.08659038 11.3656113,8.82957021 11.2992978,8.57810264 C11.0803062,7.74756326 10.3189615,7.1675268 9.44787124,7.1675268 L9.18176093,7.1675268 C8.31067067,7.1675268 7.54932594,7.74756326 7.33033437,8.57807912 C7.26402086,8.82954668 7.41634214,9.08656685 7.67058357,9.15216299 C7.92489635,9.21773561 8.1846084,9.06708565 8.2509457,8.81559456 C8.36071501,8.39936022 8.7434686,8.10864791 9.18176093,8.10864791 L9.44787124,8.10864791 C9.88616358,8.10864791 10.2689409,8.39936022 10.3786865,8.81561809 C10.4345107,9.02727622 10.6274097,9.1675268 10.838671,9.1675268 C10.8783925,9.1675268 10.9188038,9.16256238 10.9590486,9.15218652 L10.9590486,9.15218652 Z" id="Shape"></path>
                </g>
            </g>
        </g>
    </g>
</svg>