<svg width="58" height="66" viewBox="0 0 58 66" fill="none" xmlns="http://www.w3.org/2000/svg">
<rect width="57.75" height="66" rx="8" fill="#FFE8BF"/>
<path fill-rule="evenodd" clip-rule="evenodd" d="M22.7676 20.2871C23.0656 20.096 23.4073 20 23.748 20C24.0888 20 24.4286 20.096 24.7266 20.2871C24.8958 20.3957 25.0376 20.5329 25.1641 20.6836C25.1713 20.675 25.1773 20.6654 25.1832 20.6558C25.1899 20.6451 25.1966 20.6344 25.2051 20.625C25.3211 20.4962 25.4545 20.3827 25.6035 20.2871C25.7525 20.1916 25.9113 20.1181 26.0762 20.0703C26.5707 19.927 27.1136 20.0005 27.5605 20.2871C27.7095 20.3827 27.843 20.4962 27.959 20.625C27.9674 20.6344 27.9741 20.6451 27.9808 20.6558L27.9808 20.6558C27.9868 20.6654 27.9928 20.675 28 20.6836C28.1266 20.5325 28.2699 20.3959 28.4395 20.2871C29.0354 19.9049 29.8025 19.9049 30.3984 20.2871C30.5673 20.3954 30.7099 20.5314 30.8359 20.6817C30.9621 20.5314 31.1047 20.3954 31.2734 20.2871C31.8694 19.9049 32.6365 19.9049 33.2324 20.2871C33.7725 20.6335 34.0908 21.2272 34.1484 21.8731C34.1636 21.9231 34.1709 21.9751 34.1699 22.0274C34.1699 22.0307 34.1694 22.0339 34.1689 22.0372C34.1685 22.0404 34.168 22.0436 34.168 22.0469C34.168 22.0512 34.169 22.0553 34.1699 22.0594C34.1709 22.0637 34.1719 22.0679 34.1719 22.0723C34.1725 22.1083 34.1692 22.1444 34.1621 22.1797C34.12 23.725 33.4454 25.1954 32.2812 26.295V27.6348C38.7485 33.1031 40.6642 38.2351 40.7656 42.1973H40.7871V42.9766C40.7871 45.0176 39.3628 46.7934 37.2109 48.0274C35.0591 49.2613 32.1383 50 28.9102 50H27.0898C23.8617 50 20.9409 49.2613 18.7891 48.0274C16.6372 46.7934 15.2129 45.0176 15.2129 42.9766V42.1973H15.2344C15.3361 38.2233 17.2616 33.0725 23.7754 27.586V26.3516C22.5747 25.246 21.8802 23.7497 21.8379 22.1778C21.8309 22.1431 21.8276 22.1077 21.8281 22.0723C21.8281 22.0679 21.8291 22.0637 21.8301 22.0594C21.831 22.0553 21.832 22.0512 21.832 22.0469C21.832 22.0436 21.8315 22.0404 21.8311 22.0372C21.8306 22.0339 21.8301 22.0307 21.8301 22.0274C21.8291 21.9751 21.8364 21.9231 21.8516 21.8731C21.9092 21.2272 22.2275 20.6335 22.7676 20.2871ZM24.1855 21.1289C24.0447 21.0386 23.8949 20.9922 23.7461 20.9922C23.5973 20.9922 23.4495 21.0386 23.3086 21.1289C23.033 21.3057 22.8405 21.6548 22.832 22.0469C22.8372 23.2667 23.3239 24.4397 24.2051 25.3653H31.7949C32.6761 24.4397 33.1628 23.2667 33.168 22.0469C33.1595 21.6548 32.967 21.3057 32.6914 21.1289C32.4096 20.9482 32.0962 20.9482 31.8145 21.1289C31.5346 21.3084 31.3386 21.665 31.3359 22.0645V22.0723C31.3368 22.156 31.3167 22.2386 31.2773 22.3125C31.2696 22.3273 31.2611 22.3416 31.252 22.3555C31.2337 22.3829 31.2127 22.4084 31.1895 22.4317H31.1875C31.1769 22.4426 31.1658 22.453 31.1543 22.4629L31.1523 22.4649C31.1263 22.4865 31.0982 22.5055 31.0684 22.5215C31.0537 22.5288 31.0387 22.5353 31.0234 22.541L31.0215 22.543C31.0118 22.5466 31.0021 22.5498 30.9922 22.5528L30.9766 22.5586C30.9605 22.5633 30.9442 22.5673 30.9277 22.5703C30.8943 22.5771 30.8603 22.5803 30.8262 22.5801C30.8105 22.5795 30.7949 22.5782 30.7793 22.5762H30.7754C30.7435 22.5721 30.7121 22.5649 30.6816 22.5547H30.6797C30.6485 22.544 30.6184 22.5303 30.5898 22.5137H30.5879C30.5452 22.489 30.5063 22.458 30.4727 22.4219C30.3827 22.3279 30.333 22.2024 30.334 22.0723V22.0645C30.3313 21.665 30.1373 21.3084 29.8574 21.1289C29.5757 20.9482 29.2603 20.9482 28.9785 21.1289C28.6968 21.3096 28.5 21.6695 28.5 22.0723C28.5026 22.2422 28.4188 22.4019 28.2773 22.4961C28.2635 22.5053 28.2491 22.5138 28.2344 22.5215H28.2324C28.1585 22.5608 28.0759 22.581 27.9922 22.5801C27.9759 22.5796 27.9596 22.5783 27.9434 22.5762H27.9414C27.8416 22.5645 27.7477 22.5229 27.6719 22.4571V22.4551C27.6596 22.4446 27.6479 22.4335 27.6367 22.4219C27.625 22.4101 27.614 22.3977 27.6035 22.3848C27.573 22.345 27.5486 22.3009 27.5312 22.2539V22.252C27.5253 22.2366 27.5201 22.221 27.5156 22.2051C27.5072 22.1732 27.502 22.1404 27.5 22.1075V22.1055C27.4996 22.0944 27.4996 22.0834 27.5 22.0723C27.5 21.6695 27.3032 21.3096 27.0215 21.1289C26.7397 20.9482 26.4243 20.9482 26.1426 21.1289C25.9313 21.2645 25.7678 21.4997 25.6992 21.7793C25.677 21.87 25.6667 21.9667 25.666 22.0645V22.0723C25.6676 22.2069 25.6147 22.3365 25.5195 22.4317H25.5176C25.507 22.4426 25.4959 22.453 25.4844 22.4629L25.4824 22.4649L25.4805 22.4668C25.442 22.4977 25.3993 22.5227 25.3535 22.541L25.3516 22.543C25.3419 22.5466 25.3321 22.5498 25.3223 22.5528L25.3066 22.5586C25.2906 22.5633 25.2743 22.5673 25.2578 22.5703H25.2559C25.2231 22.5769 25.1897 22.5802 25.1562 22.5801C25.1406 22.5795 25.1249 22.5782 25.1094 22.5762H25.1055C25.0736 22.5721 25.0422 22.5649 25.0117 22.5547H25.0098C24.9785 22.544 24.9484 22.5303 24.9199 22.5137H24.918C24.8752 22.489 24.8364 22.458 24.8027 22.4219C24.7128 22.3279 24.663 22.2024 24.6641 22.0723V22.0645C24.6614 21.665 24.4654 21.3084 24.1855 21.1289ZM24.7754 26.3653H31.2812V27.2559H24.7754V26.3653ZM39.7871 42.543C39.7871 38.8088 38.0799 33.794 31.4551 28.2559H24.5449C17.9201 33.794 16.2129 38.8088 16.2129 42.543V42.9766C16.2129 44.5496 17.3265 46.0359 19.2871 47.1602C21.2478 48.2845 24.0156 49 27.0898 49H28.9102C31.9844 49 34.7522 48.2845 36.7129 47.1602C38.6735 46.0359 39.7871 44.5496 39.7871 42.9766V42.543ZM28.2695 33.002C24.6802 33.002 21.7871 35.9214 21.7871 39.5C21.7871 43.0798 24.6802 46 28.2695 46C31.8581 46 34.7871 43.0834 34.7871 39.5C34.7864 39.437 34.7738 39.3748 34.75 39.3164C34.6463 35.8237 31.7929 33.002 28.2695 33.002ZM33.7871 39.5C33.7871 36.4611 31.318 34.002 28.2695 34.002C25.2201 34.002 22.7871 36.4575 22.7871 39.5C22.7871 42.5439 25.2201 45 28.2695 45C31.3179 45 33.7871 42.5402 33.7871 39.5Z" fill="#F78200"/>
<path d="M22.7676 20.2871L22.6056 20.0346L22.6056 20.0346L22.7676 20.2871ZM24.7266 20.2871L24.8885 20.0346L24.8885 20.0346L24.7266 20.2871ZM25.1641 20.6836L24.9342 20.8764L25.1642 21.1506L25.394 20.8763L25.1641 20.6836ZM25.1832 20.6558L25.4377 20.8147L25.4378 20.8147L25.1832 20.6558ZM25.2051 20.625L24.9822 20.4243L24.9822 20.4243L25.2051 20.625ZM25.6035 20.2871L25.4416 20.0346L25.4416 20.0346L25.6035 20.2871ZM26.0762 20.0703L26.1597 20.3585L26.1597 20.3585L26.0762 20.0703ZM27.5605 20.2871L27.7225 20.0346L27.7225 20.0346L27.5605 20.2871ZM27.959 20.625L28.1819 20.4243L28.1819 20.4243L27.959 20.625ZM27.9808 20.6558L28.2427 20.5088L28.2353 20.497L27.9808 20.6558ZM27.9808 20.6558L27.7189 20.8029L27.7263 20.8147L27.9808 20.6558ZM28 20.6836L27.77 20.8763L28 21.1508L28.23 20.8763L28 20.6836ZM28.4395 20.2871L28.2775 20.0346L28.2775 20.0346L28.4395 20.2871ZM30.3984 20.2871L30.5604 20.0346L30.5604 20.0346L30.3984 20.2871ZM30.8359 20.6817L30.6061 20.8744L30.8357 21.1483L31.0656 20.8746L30.8359 20.6817ZM31.2734 20.2871L31.1115 20.0346L31.1115 20.0346L31.2734 20.2871ZM33.2324 20.2871L33.3944 20.0346L33.3944 20.0346L33.2324 20.2871ZM34.1484 21.8731L33.8496 21.8998L33.8524 21.9306L33.8614 21.9602L34.1484 21.8731ZM34.1699 22.0274L33.8699 22.022V22.0274H34.1699ZM34.1689 22.0372L34.4656 22.0816L34.4656 22.0816L34.1689 22.0372ZM34.168 22.0469L33.8679 22.0459L33.868 22.0504L34.168 22.0469ZM34.1699 22.0594L34.4623 21.992L34.4622 21.992L34.1699 22.0594ZM34.1719 22.0723H33.8718L33.8719 22.0775L34.1719 22.0723ZM34.1621 22.1797L33.868 22.1205L33.8629 22.1458L33.8622 22.1715L34.1621 22.1797ZM32.2812 26.295L32.0753 26.0769L31.9812 26.1656V26.295H32.2812ZM32.2812 27.6348H31.9812V27.774L32.0876 27.8639L32.2812 27.6348ZM40.7656 42.1973L40.4657 42.205L40.4732 42.4973H40.7656V42.1973ZM40.7871 42.1973H41.0871V41.8973H40.7871V42.1973ZM37.2109 48.0274L37.3602 48.2876L37.3602 48.2876L37.2109 48.0274ZM18.7891 48.0274L18.6398 48.2876L18.6398 48.2876L18.7891 48.0274ZM15.2129 42.1973V41.8973H14.9129V42.1973H15.2129ZM15.2344 42.1973V42.4973H15.5268L15.5343 42.205L15.2344 42.1973ZM23.7754 27.586L23.9687 27.8154L24.0754 27.7255V27.586H23.7754ZM23.7754 26.3516H24.0754V26.22L23.9786 26.1309L23.7754 26.3516ZM21.8379 22.1778L22.1378 22.1697L22.1371 22.1439L22.132 22.1186L21.8379 22.1778ZM21.8281 22.0723L22.1281 22.0764L22.1281 22.0723L21.8281 22.0723ZM21.8301 22.0594L21.5378 21.992L21.5377 21.992L21.8301 22.0594ZM21.832 22.0469L22.132 22.0504L22.132 22.0459L21.832 22.0469ZM21.8311 22.0372L21.5344 22.0816L21.5344 22.0816L21.8311 22.0372ZM21.8301 22.0274H22.1301L22.13 22.022L21.8301 22.0274ZM21.8516 21.8731L22.1386 21.9602L22.1476 21.9306L22.1504 21.8998L21.8516 21.8731ZM24.1855 21.1289L24.3475 20.8764L24.3475 20.8764L24.1855 21.1289ZM23.3086 21.1289L23.1466 20.8764L23.1466 20.8764L23.3086 21.1289ZM22.832 22.0469L22.532 22.0405L22.532 22.0482L22.832 22.0469ZM24.2051 25.3653L23.9878 25.5721L24.0765 25.6653H24.2051V25.3653ZM31.7949 25.3653V25.6653H31.9235L32.0122 25.5721L31.7949 25.3653ZM33.168 22.0469L33.4681 22.0482L33.4679 22.0405L33.168 22.0469ZM32.6914 21.1289L32.8534 20.8764L32.8534 20.8764L32.6914 21.1289ZM31.8145 21.1289L31.6525 20.8764L31.6525 20.8764L31.8145 21.1289ZM31.3359 22.0645L31.0359 22.0625V22.0645H31.3359ZM31.3359 22.0723H31.0359L31.036 22.0755L31.3359 22.0723ZM31.2773 22.3125L31.0125 22.1716L31.0118 22.173L31.2773 22.3125ZM31.252 22.3555L31.5015 22.522L31.5023 22.5208L31.252 22.3555ZM31.1895 22.4317V22.7317H31.3136L31.4015 22.6439L31.1895 22.4317ZM31.1875 22.4317V22.1317H31.0605L30.9721 22.2228L31.1875 22.4317ZM31.1543 22.4629L30.9589 22.2353L30.9502 22.2428L30.9421 22.2508L31.1543 22.4629ZM31.1523 22.4649L31.3444 22.6953L31.3549 22.6866L31.3645 22.677L31.1523 22.4649ZM31.0684 22.5215L31.2014 22.7906L31.21 22.7859L31.0684 22.5215ZM31.0234 22.541L30.9174 22.2604L30.857 22.2832L30.8114 22.3289L31.0234 22.541ZM31.0215 22.543L31.1251 22.8245L31.1869 22.8018L31.2336 22.7552L31.0215 22.543ZM30.9922 22.5528L30.9062 22.2654L30.8964 22.2683L30.8869 22.2719L30.9922 22.5528ZM30.9766 22.5586L31.0611 22.8465L31.0716 22.8434L31.0819 22.8395L30.9766 22.5586ZM30.9277 22.5703L30.8725 22.2755L30.8687 22.2762L30.9277 22.5703ZM30.8262 22.5801L30.8153 22.88L30.8243 22.8801L30.8262 22.5801ZM30.7793 22.5762L30.8182 22.2787L30.7989 22.2762H30.7793V22.5762ZM30.7754 22.5762L30.7368 22.8737L30.756 22.8762H30.7754V22.5762ZM30.6816 22.5547L30.7765 22.2701L30.7303 22.2547H30.6816V22.5547ZM30.6797 22.5547L30.5827 22.8386L30.6298 22.8547H30.6797V22.5547ZM30.5898 22.5137L30.7408 22.2544L30.6708 22.2137H30.5898V22.5137ZM30.5879 22.5137L30.4376 22.7733L30.5073 22.8137H30.5879V22.5137ZM30.4727 22.4219L30.6921 22.2173L30.6895 22.2145L30.4727 22.4219ZM30.334 22.0723L30.634 22.0747V22.0723H30.334ZM30.334 22.0645L30.634 22.0645L30.634 22.0625L30.334 22.0645ZM29.8574 21.1289L30.0194 20.8764L30.0194 20.8764L29.8574 21.1289ZM28.9785 21.1289L28.8166 20.8764L28.8166 20.8764L28.9785 21.1289ZM28.5 22.0723L28.2 22.0723L28.2 22.0769L28.5 22.0723ZM28.2773 22.4961L28.4427 22.7465L28.4437 22.7458L28.2773 22.4961ZM28.2344 22.5215V22.8215H28.3084L28.3739 22.7871L28.2344 22.5215ZM28.2324 22.5215V22.2215H28.1576L28.0915 22.2567L28.2324 22.5215ZM27.9922 22.5801L27.9829 22.88L27.989 22.8801L27.9922 22.5801ZM27.9434 22.5762L27.9819 22.2787L27.9627 22.2762H27.9434V22.5762ZM27.9414 22.5762L27.9064 22.8741L27.9238 22.8762H27.9414V22.5762ZM27.6719 22.4571H27.3719V22.5938L27.4751 22.6835L27.6719 22.4571ZM27.6719 22.4551H27.9719V22.3171L27.8671 22.2273L27.6719 22.4551ZM27.6367 22.4219L27.853 22.214L27.8501 22.211L27.6367 22.4219ZM27.6035 22.3848L27.3654 22.5675L27.3703 22.5735L27.6035 22.3848ZM27.5312 22.2539H27.2312V22.3077L27.2499 22.3581L27.5312 22.2539ZM27.5312 22.252H27.8313V22.1957L27.8108 22.1432L27.5312 22.252ZM27.5156 22.2051L27.2255 22.2816L27.2267 22.2858L27.5156 22.2051ZM27.5 22.1075H27.2V22.1164L27.2005 22.1253L27.5 22.1075ZM27.5 22.1055H27.8002L27.7998 22.0955L27.5 22.1055ZM27.5 22.0723L27.8 22.0822L27.8 22.0723L27.5 22.0723ZM27.0215 21.1289L27.1834 20.8764L27.1834 20.8764L27.0215 21.1289ZM26.1426 21.1289L25.9806 20.8764L25.9806 20.8764L26.1426 21.1289ZM25.6992 21.7793L25.4078 21.7079L25.4078 21.7079L25.6992 21.7793ZM25.666 22.0645L25.366 22.0625V22.0645H25.666ZM25.666 22.0723L25.366 22.0723L25.366 22.0757L25.666 22.0723ZM25.5195 22.4317V22.7317H25.6438L25.7316 22.6438L25.5195 22.4317ZM25.5176 22.4317V22.1317H25.3906L25.3022 22.2228L25.5176 22.4317ZM25.4844 22.4629L25.2889 22.2353L25.2803 22.2427L25.2722 22.2508L25.4844 22.4629ZM25.4805 22.4668L25.6683 22.7007L25.6811 22.6905L25.6926 22.679L25.4805 22.4668ZM25.3535 22.541L25.2418 22.2626L25.1849 22.2855L25.1414 22.3289L25.3535 22.541ZM25.3516 22.543L25.4552 22.8245L25.517 22.8018L25.5636 22.7552L25.3516 22.543ZM25.3223 22.5528L25.2362 22.2654L25.2265 22.2683L25.2169 22.2719L25.3223 22.5528ZM25.3066 22.5586L25.3912 22.8465L25.4017 22.8434L25.412 22.8395L25.3066 22.5586ZM25.2578 22.5703V22.8703H25.2857L25.3131 22.8652L25.2578 22.5703ZM25.2559 22.5703V22.2703H25.2261L25.1969 22.2762L25.2559 22.5703ZM25.1562 22.5801L25.1454 22.8801L25.1555 22.8801L25.1562 22.5801ZM25.1094 22.5762L25.1483 22.2787L25.1289 22.2762H25.1094V22.5762ZM25.1055 22.5762L25.0669 22.8737L25.0861 22.8762H25.1055V22.5762ZM25.0117 22.5547L25.1065 22.2701L25.0604 22.2547H25.0117V22.5547ZM25.0098 22.5547L24.9127 22.8386L24.9599 22.8547H25.0098V22.5547ZM24.9199 22.5137L25.0709 22.2544L25.0009 22.2137H24.9199V22.5137ZM24.918 22.5137L24.7677 22.7733L24.8374 22.8137H24.918V22.5137ZM24.8027 22.4219L25.0222 22.2173L25.0195 22.2145L24.8027 22.4219ZM24.6641 22.0723L24.9641 22.0747V22.0723H24.6641ZM24.6641 22.0645L24.9641 22.0645L24.9641 22.0625L24.6641 22.0645ZM31.2812 26.3653H31.5813V26.0653H31.2812V26.3653ZM24.7754 26.3653V26.0653H24.4754V26.3653H24.7754ZM31.2812 27.2559V27.5559H31.5813V27.2559H31.2812ZM24.7754 27.2559H24.4754V27.5559H24.7754V27.2559ZM31.4551 28.2559L31.6475 28.0257L31.564 27.9559H31.4551V28.2559ZM24.5449 28.2559V27.9559H24.436L24.3525 28.0257L24.5449 28.2559ZM34.7871 39.5L35.0871 39.5L35.0871 39.4967L34.7871 39.5ZM34.75 39.3164L34.4501 39.3253L34.4517 39.3796L34.4723 39.4299L34.75 39.3164ZM23.748 19.7C23.3512 19.7 22.953 19.8118 22.6056 20.0346L22.9295 20.5397C23.1781 20.3803 23.4634 20.3 23.748 20.3V19.7ZM24.8885 20.0346C24.5414 19.812 24.1453 19.7 23.748 19.7V20.3C24.0324 20.3 24.3158 20.3801 24.5646 20.5397L24.8885 20.0346ZM25.3939 20.4908C25.2544 20.3245 25.0905 20.1641 24.8885 20.0346L24.5646 20.5397C24.7011 20.6272 24.8209 20.7413 24.9342 20.8764L25.3939 20.4908ZM24.9287 20.497C24.9271 20.4996 24.9263 20.5009 24.9256 20.502C24.925 20.5029 24.925 20.503 24.9253 20.5025C24.9259 20.5016 24.929 20.4971 24.9341 20.4909L25.394 20.8763C25.417 20.8489 25.4337 20.8212 25.4377 20.8147L24.9287 20.497ZM24.9822 20.4243C24.9531 20.4565 24.9331 20.4901 24.9287 20.497L25.4378 20.8147C25.4396 20.8118 25.4404 20.8105 25.441 20.8094C25.4416 20.8085 25.4415 20.8088 25.4408 20.8098C25.4396 20.8115 25.4352 20.8178 25.428 20.8258L24.9822 20.4243ZM25.4416 20.0346C25.2701 20.1446 25.1161 20.2755 24.9822 20.4243L25.428 20.8258C25.526 20.717 25.639 20.6208 25.7655 20.5397L25.4416 20.0346ZM25.9927 19.7822C25.7983 19.8385 25.6132 19.9245 25.4416 20.0346L25.7655 20.5397C25.8918 20.4587 26.0243 20.3977 26.1597 20.3585L25.9927 19.7822ZM27.7225 20.0346C27.202 19.7008 26.5695 19.615 25.9927 19.7822L26.1597 20.3585C26.5719 20.239 27.0252 20.3002 27.3986 20.5397L27.7225 20.0346ZM28.1819 20.4243C28.0479 20.2755 27.894 20.1446 27.7225 20.0346L27.3986 20.5397C27.5251 20.6208 27.638 20.717 27.7361 20.8258L28.1819 20.4243ZM28.2353 20.497C28.231 20.4901 28.2109 20.4565 28.1819 20.4243L27.7361 20.8258C27.7288 20.8178 27.7245 20.8115 27.7233 20.8098C27.7226 20.8088 27.7225 20.8085 27.723 20.8094C27.7237 20.8105 27.7245 20.8118 27.7263 20.8147L28.2353 20.497ZM28.2424 20.509L28.2424 20.509L27.7192 20.8027L27.7192 20.8027L28.2424 20.509ZM28.23 20.491C28.2351 20.4971 28.2381 20.5016 28.2387 20.5025C28.2391 20.503 28.239 20.5029 28.2384 20.502C28.2377 20.5009 28.2369 20.4996 28.2353 20.497L27.7263 20.8147C27.7304 20.8213 27.7471 20.8489 27.77 20.8763L28.23 20.491ZM28.2775 20.0346C28.0763 20.1637 27.9109 20.3229 27.77 20.491L28.23 20.8763C28.3423 20.7422 28.4635 20.6281 28.6014 20.5397L28.2775 20.0346ZM30.5604 20.0346C29.8657 19.5891 28.9721 19.5891 28.2775 20.0346L28.6014 20.5397C29.0987 20.2208 29.7392 20.2208 30.2365 20.5397L30.5604 20.0346ZM31.0658 20.4889C30.9256 20.3217 30.7608 20.1632 30.5604 20.0346L30.2365 20.5397C30.3737 20.6277 30.4943 20.7411 30.6061 20.8744L31.0658 20.4889ZM31.1115 20.0346C30.911 20.1632 30.7464 20.3218 30.6062 20.4887L31.0656 20.8746C31.1779 20.741 31.2984 20.6275 31.4354 20.5397L31.1115 20.0346ZM33.3944 20.0346C32.6997 19.5891 31.8061 19.5891 31.1115 20.0346L31.4354 20.5397C31.9326 20.2208 32.5732 20.2208 33.0705 20.5397L33.3944 20.0346ZM34.4472 21.8464C34.3825 21.1216 34.0232 20.4379 33.3944 20.0346L33.0705 20.5397C33.5217 20.8291 33.799 21.3328 33.8496 21.8998L34.4472 21.8464ZM34.4699 22.0328C34.4714 21.9492 34.4598 21.8659 34.4355 21.7859L33.8614 21.9602C33.8674 21.9802 33.8703 22.0011 33.87 22.022L34.4699 22.0328ZM34.4656 22.0816C34.4657 22.0809 34.4668 22.0738 34.4678 22.0657C34.4687 22.0569 34.4699 22.0436 34.4699 22.0274H33.8699C33.8699 22.0145 33.8709 22.0044 33.8715 21.9989C33.872 21.9941 33.8726 21.9902 33.8723 21.9928L34.4656 22.0816ZM34.468 22.048C34.4679 22.0605 34.467 22.0703 34.4664 22.0757C34.4659 22.0804 34.4653 22.0842 34.4656 22.0816L33.8723 21.9928C33.8722 21.9935 33.8711 22.0005 33.8702 22.0084C33.8692 22.017 33.868 22.03 33.868 22.0459L34.468 22.048ZM34.4622 21.992C34.4615 21.9886 34.4629 21.9944 34.4641 22.0017C34.4656 22.0099 34.4677 22.0246 34.4679 22.0434L33.868 22.0504C33.8683 22.0734 33.8709 22.0924 33.8731 22.1048C33.8751 22.1162 33.8774 22.1261 33.8776 22.1269L34.4622 21.992ZM34.4719 22.0723C34.4719 22.0481 34.4692 22.0282 34.467 22.0151C34.4649 22.0032 34.4624 21.9927 34.4623 21.992L33.8776 22.1268C33.8784 22.1304 33.8769 22.1242 33.8756 22.1165C33.8741 22.1077 33.8719 22.0921 33.8719 22.0723H34.4719ZM34.4562 22.2389C34.4676 22.1824 34.4728 22.1248 34.4718 22.0671L33.8719 22.0775C33.8722 22.0919 33.8709 22.1063 33.868 22.1205L34.4562 22.2389ZM32.4872 26.513C33.7066 25.3614 34.4176 23.8165 34.462 22.1879L33.8622 22.1715C33.8224 23.6335 33.1841 25.0295 32.0753 26.0769L32.4872 26.513ZM32.5813 27.6348V26.295H31.9812V27.6348H32.5813ZM41.0655 42.1896C40.9615 38.1257 38.9941 32.9178 32.4749 27.4057L32.0876 27.8639C38.5029 33.2883 40.3669 38.3446 40.4657 42.205L41.0655 42.1896ZM40.7871 41.8973H40.7656V42.4973H40.7871V41.8973ZM41.0871 42.9766V42.1973H40.4871V42.9766H41.0871ZM37.3602 48.2876C39.5584 47.027 41.0871 45.1699 41.0871 42.9766H40.4871C40.4871 44.8652 39.1672 46.5597 37.0617 47.7671L37.3602 48.2876ZM28.9102 50.3C32.1806 50.3 35.1549 49.5521 37.3602 48.2876L37.0617 47.7671C34.9632 48.9704 32.096 49.7 28.9102 49.7V50.3ZM27.0898 50.3H28.9102V49.7H27.0898V50.3ZM18.6398 48.2876C20.8451 49.5521 23.8194 50.3 27.0898 50.3V49.7C23.904 49.7 21.0368 48.9704 18.9383 47.7671L18.6398 48.2876ZM14.9129 42.9766C14.9129 45.1699 16.4416 47.027 18.6398 48.2876L18.9383 47.7671C16.8328 46.5597 15.5129 44.8652 15.5129 42.9766H14.9129ZM14.9129 42.1973V42.9766H15.5129V42.1973H14.9129ZM15.2344 41.8973H15.2129V42.4973H15.2344V41.8973ZM23.5821 27.3565C17.0163 32.8869 15.0388 38.1135 14.9345 42.1896L15.5343 42.205C15.6334 38.3331 17.5069 33.2581 23.9687 27.8154L23.5821 27.3565ZM23.4754 26.3516V27.586H24.0754V26.3516H23.4754ZM21.538 22.1858C21.5825 23.8421 22.3144 25.4141 23.5722 26.5723L23.9786 26.1309C22.835 25.0778 22.1778 23.6572 22.1378 22.1697L21.538 22.1858ZM21.5282 22.0682C21.5274 22.1248 21.5326 22.1814 21.5438 22.2369L22.132 22.1186C22.1292 22.1047 22.1279 22.0906 22.1281 22.0764L21.5282 22.0682ZM21.5377 21.992C21.5376 21.9927 21.5351 22.0032 21.533 22.0151C21.5308 22.0282 21.5281 22.0481 21.5281 22.0723L22.1281 22.0723C22.1281 22.0921 22.1259 22.1077 22.1244 22.1165C22.1231 22.1242 22.1216 22.1304 22.1224 22.1268L21.5377 21.992ZM21.5321 22.0435C21.5323 22.0247 21.5344 22.0099 21.5359 22.0017C21.5371 21.9944 21.5385 21.9886 21.5378 21.992L22.1224 22.1269C22.1226 22.1261 22.1249 22.1162 22.1269 22.1048C22.1291 22.0924 22.1317 22.0734 22.132 22.0504L21.5321 22.0435ZM21.5344 22.0816C21.5347 22.0842 21.5341 22.0804 21.5336 22.0757C21.533 22.0703 21.5321 22.0605 21.532 22.048L22.132 22.0459C22.132 22.03 22.1308 22.017 22.1298 22.0084C22.1289 22.0005 22.1278 21.9935 22.1277 21.9928L21.5344 22.0816ZM21.5301 22.0274C21.5301 22.0436 21.5313 22.0569 21.5322 22.0657C21.5332 22.0738 21.5343 22.0809 21.5344 22.0816L22.1277 21.9928C22.1274 21.9902 22.128 21.9941 22.1285 21.9989C22.1291 22.0044 22.1301 22.0145 22.1301 22.0274H21.5301ZM21.5645 21.7859C21.5402 21.8659 21.5286 21.9492 21.5301 22.0328L22.13 22.022C22.1297 22.0011 22.1326 21.9802 22.1386 21.9602L21.5645 21.7859ZM22.6056 20.0346C21.9768 20.4379 21.6175 21.1216 21.5528 21.8464L22.1504 21.8998C22.201 21.3328 22.4783 20.8291 22.9295 20.5397L22.6056 20.0346ZM23.7461 21.2922C23.8309 21.2922 23.9252 21.3184 24.0236 21.3815L24.3475 20.8764C24.1641 20.7588 23.9588 20.6922 23.7461 20.6922V21.2922ZM23.4705 21.3815C23.5696 21.3179 23.662 21.2922 23.7461 21.2922V20.6922C23.5326 20.6922 23.3293 20.7592 23.1466 20.8764L23.4705 21.3815ZM23.132 22.0533C23.1385 21.7494 23.2884 21.4983 23.4706 21.3815L23.1466 20.8764C22.7776 21.1131 22.5424 21.5601 22.5321 22.0405L23.132 22.0533ZM24.4224 25.1584C23.5909 24.2851 23.1368 23.1846 23.132 22.0456L22.532 22.0482C22.5375 23.3488 23.0568 24.5943 23.9878 25.5721L24.4224 25.1584ZM31.7949 25.0653H24.2051V25.6653H31.7949V25.0653ZM32.868 22.0456C32.8632 23.1846 32.4091 24.2851 31.5776 25.1584L32.0122 25.5721C32.9432 24.5943 33.4625 23.3488 33.468 22.0482L32.868 22.0456ZM32.5294 21.3815C32.7116 21.4983 32.8615 21.7494 32.868 22.0533L33.4679 22.0405C33.4576 21.5601 33.2224 21.1131 32.8534 20.8764L32.5294 21.3815ZM31.9764 21.3815C32.1595 21.2641 32.3464 21.2641 32.5295 21.3815L32.8534 20.8764C32.4729 20.6324 32.033 20.6324 31.6525 20.8764L31.9764 21.3815ZM31.6359 22.0665C31.638 21.758 31.7904 21.5007 31.9764 21.3815L31.6525 20.8764C31.2788 21.1161 31.0392 21.572 31.0359 22.0625L31.6359 22.0665ZM31.6359 22.0723V22.0645H31.0359V22.0723H31.6359ZM31.5422 22.4535C31.6051 22.3352 31.6373 22.2031 31.6359 22.0691L31.036 22.0755C31.0363 22.109 31.0283 22.142 31.0125 22.1716L31.5422 22.4535ZM31.5023 22.5208C31.517 22.4986 31.5305 22.4756 31.5429 22.4521L31.0118 22.173C31.0087 22.1789 31.0053 22.1846 31.0016 22.1902L31.5023 22.5208ZM31.4015 22.6439C31.4388 22.6067 31.4723 22.5658 31.5015 22.522L31.0024 22.189C30.9951 22.1999 30.9867 22.2101 30.9774 22.2195L31.4015 22.6439ZM31.1875 22.7317H31.1895V22.1317H31.1875V22.7317ZM31.3497 22.6905C31.3682 22.6747 31.3859 22.658 31.4029 22.6405L30.9721 22.2228C30.9679 22.2272 30.9635 22.2313 30.9589 22.2353L31.3497 22.6905ZM31.3645 22.677L31.3665 22.675L30.9421 22.2508L30.9402 22.2528L31.3645 22.677ZM31.21 22.7859C31.2578 22.7604 31.3028 22.73 31.3444 22.6953L30.9603 22.2344C30.9499 22.2431 30.9386 22.2507 30.9267 22.2571L31.21 22.7859ZM31.1294 22.8217C31.1539 22.8125 31.1779 22.802 31.2013 22.7904L30.9354 22.2526C30.9295 22.2555 30.9236 22.2581 30.9174 22.2604L31.1294 22.8217ZM31.2336 22.7552L31.2355 22.7532L30.8114 22.3289L30.8094 22.3308L31.2336 22.7552ZM31.0782 22.8402C31.094 22.8354 31.1096 22.8302 31.1251 22.8245L30.9179 22.2615C30.914 22.2629 30.9101 22.2642 30.9062 22.2654L31.0782 22.8402ZM31.0819 22.8395L31.0975 22.8337L30.8869 22.2719L30.8712 22.2777L31.0819 22.8395ZM30.983 22.8652C31.0093 22.8603 31.0354 22.854 31.0611 22.8465L30.892 22.2708C30.8856 22.2727 30.879 22.2742 30.8725 22.2755L30.983 22.8652ZM30.8243 22.8801C30.8788 22.8804 30.9333 22.8752 30.9868 22.8645L30.8687 22.2762C30.8553 22.2789 30.8417 22.2802 30.8281 22.2801L30.8243 22.8801ZM30.7403 22.8737C30.7652 22.8769 30.7903 22.879 30.8153 22.8799L30.837 22.2803C30.8307 22.2801 30.8245 22.2796 30.8182 22.2787L30.7403 22.8737ZM30.7754 22.8762H30.7793V22.2762H30.7754V22.8762ZM30.5868 22.8393C30.6356 22.8556 30.6858 22.8671 30.7368 22.8737L30.814 22.2787C30.8012 22.277 30.7887 22.2742 30.7765 22.2701L30.5868 22.8393ZM30.6797 22.8547H30.6816V22.2547H30.6797V22.8547ZM30.4389 22.773C30.4845 22.7995 30.5327 22.8215 30.5827 22.8386L30.7767 22.2708C30.7642 22.2666 30.7522 22.2611 30.7408 22.2544L30.4389 22.773ZM30.5879 22.8137H30.5898V22.2137H30.5879V22.8137ZM30.2532 22.6265C30.3071 22.6842 30.3692 22.7337 30.4376 22.7733L30.7382 22.2541C30.7211 22.2442 30.7056 22.2318 30.6921 22.2174L30.2532 22.6265ZM30.034 22.0699C30.0323 22.2781 30.1119 22.4788 30.2559 22.6293L30.6895 22.2145C30.6535 22.1769 30.6336 22.1267 30.634 22.0747L30.034 22.0699ZM30.034 22.0645V22.0723H30.634V22.0645H30.034ZM29.6955 21.3815C29.8806 21.5002 30.0319 21.7569 30.034 22.0665L30.634 22.0625C30.6307 21.5731 30.3939 21.1166 30.0194 20.8764L29.6955 21.3815ZM29.1405 21.3815C29.3235 21.2641 29.5124 21.2641 29.6955 21.3815L30.0194 20.8764C29.6389 20.6324 29.197 20.6324 28.8166 20.8764L29.1405 21.3815ZM28.8 22.0723C28.8 21.7614 28.9531 21.5016 29.1405 21.3815L28.8166 20.8764C28.4404 21.1176 28.2 21.5776 28.2 22.0723L28.8 22.0723ZM28.4437 22.7458C28.67 22.5949 28.8042 22.3395 28.8 22.0677L28.2 22.0769C28.2011 22.1449 28.1675 22.2088 28.111 22.2465L28.4437 22.7458ZM28.3739 22.7871C28.3975 22.7747 28.4204 22.7611 28.4427 22.7465L28.112 22.2458C28.1065 22.2495 28.1007 22.2528 28.0948 22.2559L28.3739 22.7871ZM28.2324 22.8215H28.2344V22.2215H28.2324V22.8215ZM27.989 22.8801C28.123 22.8815 28.2551 22.8493 28.3734 22.7863L28.0915 22.2567C28.0619 22.2724 28.0289 22.2805 27.9954 22.2801L27.989 22.8801ZM27.9048 22.8737C27.9307 22.8771 27.9568 22.8792 27.9829 22.88L28.0014 22.2802C27.9949 22.28 27.9884 22.2795 27.9819 22.2787L27.9048 22.8737ZM27.9414 22.8762H27.9434V22.2762H27.9414V22.8762ZM27.4751 22.6835C27.5965 22.7889 27.7467 22.8554 27.9064 22.8741L27.9765 22.2783C27.9365 22.2736 27.899 22.257 27.8686 22.2306L27.4751 22.6835ZM27.3719 22.4551V22.4571H27.9719V22.4551H27.3719ZM27.4204 22.6298C27.4383 22.6484 27.4571 22.6661 27.4767 22.6829L27.8671 22.2273C27.8622 22.2231 27.8575 22.2187 27.853 22.214L27.4204 22.6298ZM27.3703 22.5735C27.387 22.5941 27.4047 22.6139 27.4234 22.6328L27.8501 22.211C27.8454 22.2063 27.8409 22.2013 27.8368 22.1961L27.3703 22.5735ZM27.2499 22.3581C27.2777 22.4333 27.3167 22.5038 27.3655 22.5674L27.8415 22.2021C27.8293 22.1862 27.8196 22.1686 27.8126 22.1498L27.2499 22.3581ZM27.2312 22.252V22.2539H27.8313V22.252H27.2312ZM27.2267 22.2858C27.2338 22.3112 27.2421 22.3362 27.2517 22.3608L27.8108 22.1432C27.8084 22.137 27.8063 22.1308 27.8046 22.1244L27.2267 22.2858ZM27.2005 22.1253C27.2037 22.1781 27.2121 22.2304 27.2255 22.2816L27.8057 22.1287C27.8023 22.1159 27.8003 22.1028 27.7995 22.0896L27.2005 22.1253ZM27.2 22.1055V22.1075H27.8V22.1055H27.2ZM27.2002 22.0623C27.1996 22.08 27.1996 22.0978 27.2002 22.1154L27.7998 22.0955C27.7997 22.0911 27.7997 22.0867 27.7998 22.0822L27.2002 22.0623ZM26.8595 21.3815C27.0469 21.5016 27.2 21.7614 27.2 22.0723L27.8 22.0723C27.8 21.5776 27.5596 21.1176 27.1834 20.8764L26.8595 21.3815ZM26.3045 21.3815C26.4876 21.2641 26.6765 21.2641 26.8595 21.3815L27.1834 20.8764C26.803 20.6324 26.3611 20.6324 25.9806 20.8764L26.3045 21.3815ZM25.9906 21.8508C26.0429 21.6374 26.165 21.471 26.3045 21.3815L25.9806 20.8764C25.6976 21.0579 25.4926 21.362 25.4078 21.7079L25.9906 21.8508ZM25.966 22.0665C25.9665 21.9878 25.9749 21.915 25.9906 21.8508L25.4078 21.7079C25.3791 21.8251 25.3668 21.9455 25.366 22.0625L25.966 22.0665ZM25.966 22.0723V22.0645H25.366V22.0723H25.966ZM25.7316 22.6438C25.884 22.4915 25.9685 22.2843 25.966 22.0689L25.366 22.0757C25.3667 22.1296 25.3455 22.1814 25.3074 22.2195L25.7316 22.6438ZM25.5176 22.7317H25.5195V22.1317H25.5176V22.7317ZM25.6798 22.6905C25.6983 22.6747 25.716 22.658 25.7329 22.6405L25.3022 22.2228C25.298 22.2272 25.2936 22.2313 25.2889 22.2353L25.6798 22.6905ZM25.6946 22.677L25.6965 22.6751L25.2722 22.2508L25.2703 22.2527L25.6946 22.677ZM25.6926 22.679L25.6946 22.677L25.2703 22.2527L25.2683 22.2547L25.6926 22.679ZM25.4652 22.8195C25.5384 22.7901 25.6068 22.7501 25.6683 22.7007L25.2926 22.2329C25.2772 22.2453 25.2601 22.2553 25.2418 22.2626L25.4652 22.8195ZM25.5636 22.7552L25.5656 22.7532L25.1414 22.3289L25.1395 22.3308L25.5636 22.7552ZM25.4083 22.8402C25.4241 22.8354 25.4397 22.8302 25.4552 22.8245L25.248 22.2615C25.2441 22.2629 25.2402 22.2642 25.2362 22.2654L25.4083 22.8402ZM25.412 22.8395L25.4276 22.8337L25.2169 22.2719L25.2013 22.2777L25.412 22.8395ZM25.3131 22.8652C25.3394 22.8603 25.3655 22.854 25.3912 22.8465L25.2221 22.2708C25.2156 22.2727 25.2091 22.2742 25.2025 22.2755L25.3131 22.8652ZM25.2559 22.8703H25.2578V22.2703H25.2559V22.8703ZM25.1555 22.8801C25.209 22.8802 25.2624 22.875 25.3149 22.8645L25.1969 22.2762C25.1837 22.2788 25.1704 22.2801 25.157 22.2801L25.1555 22.8801ZM25.0704 22.8737C25.0953 22.8769 25.1203 22.879 25.1454 22.8799L25.1671 22.2803C25.1608 22.2801 25.1545 22.2796 25.1483 22.2787L25.0704 22.8737ZM25.1055 22.8762H25.1094V22.2762H25.1055V22.8762ZM24.9169 22.8393C24.9657 22.8556 25.0159 22.8671 25.0669 22.8737L25.144 22.2787C25.1313 22.277 25.1187 22.2742 25.1065 22.2701L24.9169 22.8393ZM25.0098 22.8547H25.0117V22.2547H25.0098V22.8547ZM24.769 22.773C24.8146 22.7995 24.8628 22.8215 24.9127 22.8386L25.1068 22.2708C25.0943 22.2666 25.0823 22.2611 25.0709 22.2544L24.769 22.773ZM24.918 22.8137H24.9199V22.2137H24.918V22.8137ZM24.5833 22.6265C24.6372 22.6842 24.6993 22.7337 24.7677 22.7733L25.0683 22.2541C25.0512 22.2442 25.0357 22.2318 25.0222 22.2174L24.5833 22.6265ZM24.3641 22.0699C24.3624 22.2781 24.442 22.4788 24.5859 22.6293L25.0195 22.2145C24.9835 22.1769 24.9636 22.1267 24.9641 22.0747L24.3641 22.0699ZM24.3641 22.0645V22.0723H24.9641V22.0645H24.3641ZM24.0236 21.3815C24.2096 21.5007 24.362 21.758 24.3641 22.0665L24.9641 22.0625C24.9608 21.572 24.7212 21.1161 24.3475 20.8764L24.0236 21.3815ZM31.2812 26.0653H24.7754V26.6653H31.2812V26.0653ZM31.5813 27.2559V26.3653H30.9812V27.2559H31.5813ZM24.7754 27.5559H31.2812V26.9559H24.7754V27.5559ZM24.4754 26.3653V27.2559H25.0754V26.3653H24.4754ZM31.2627 28.4861C37.8343 33.9797 39.4871 38.9155 39.4871 42.543H40.0871C40.0871 38.7021 38.3255 33.6083 31.6475 28.0257L31.2627 28.4861ZM24.5449 28.5559H31.4551V27.9559H24.5449V28.5559ZM16.5129 42.543C16.5129 38.9155 18.1657 33.9797 24.7373 28.4861L24.3525 28.0257C17.6745 33.6083 15.9129 38.7021 15.9129 42.543H16.5129ZM16.5129 42.9766V42.543H15.9129V42.9766H16.5129ZM19.4363 46.8999C17.5202 45.8012 16.5129 44.3958 16.5129 42.9766H15.9129C15.9129 44.7034 17.1327 46.2706 19.1379 47.4204L19.4363 46.8999ZM27.0898 48.7C24.0579 48.7 21.3436 47.9936 19.4363 46.8999L19.1379 47.4204C21.1519 48.5753 23.9732 49.3 27.0898 49.3V48.7ZM28.9102 48.7H27.0898V49.3H28.9102V48.7ZM36.5637 46.8999C34.6564 47.9936 31.9421 48.7 28.9102 48.7V49.3C32.0268 49.3 34.8481 48.5753 36.8621 47.4204L36.5637 46.8999ZM39.4871 42.9766C39.4871 44.3958 38.4798 45.8012 36.5637 46.8999L36.8621 47.4204C38.8673 46.2706 40.0871 44.7034 40.0871 42.9766H39.4871ZM39.4871 42.543V42.9766H40.0871V42.543H39.4871ZM22.0871 39.5C22.0871 36.0858 24.8471 33.302 28.2695 33.302V32.702C24.5132 32.702 21.4871 35.757 21.4871 39.5H22.0871ZM28.2695 45.7C24.8472 45.7 22.0871 42.9155 22.0871 39.5H21.4871C21.4871 43.2442 24.5131 46.3 28.2695 46.3V45.7ZM34.4871 39.5C34.4871 42.9168 31.6933 45.7 28.2695 45.7V46.3C32.0228 46.3 35.0871 43.25 35.0871 39.5H34.4871ZM34.4723 39.4299C34.4818 39.4532 34.4868 39.4781 34.4871 39.5033L35.0871 39.4967C35.086 39.3959 35.0658 39.2963 35.0277 39.203L34.4723 39.4299ZM28.2695 33.302C31.6283 33.302 34.3511 35.9925 34.4501 39.3253L35.0499 39.3075C34.9414 35.655 31.9574 32.702 28.2695 32.702V33.302ZM28.2695 34.302C31.1533 34.302 33.4871 36.6279 33.4871 39.5H34.0871C34.0871 36.2944 31.4826 33.702 28.2695 33.702V34.302ZM23.0871 39.5C23.0871 36.6219 25.3872 34.302 28.2695 34.302V33.702C25.0531 33.702 22.4871 36.2932 22.4871 39.5H23.0871ZM28.2695 44.7C25.3873 44.7 23.0871 42.3797 23.0871 39.5H22.4871C22.4871 42.7082 25.053 45.3 28.2695 45.3V44.7ZM33.4871 39.5C33.4871 42.3736 31.1532 44.7 28.2695 44.7V45.3C31.4827 45.3 34.0871 42.7069 34.0871 39.5H33.4871Z" fill="#F78200"/>
</svg>
