<svg width="58" height="66" viewBox="0 0 58 66" fill="none" xmlns="http://www.w3.org/2000/svg">
<rect width="58" height="66" rx="8" fill="#FFE8BF"/>
<path d="M32.2124 23.9739H30.7959C31.1058 24.2616 31.3123 24.6194 31.4156 25.0473H32.2124V26.0212H31.4599C31.4009 26.4344 31.2496 26.7904 31.0062 27.0892C30.7627 27.388 30.4418 27.6222 30.0434 27.7919L32.135 30.7467H30.5967L28.7153 28.0686H27V27.0947H28.3612C29.3203 27.0947 29.881 26.7369 30.0434 26.0212H27V25.0473H30.0434C29.9548 24.6932 29.7667 24.4258 29.4789 24.245C29.1912 24.0643 28.8186 23.9739 28.3612 23.9739H27V23H32.2124V23.9739Z" fill="#F78200"/>
<path fill-rule="evenodd" clip-rule="evenodd" d="M21.1875 35.4375C23.75 35.125 26.1875 35.9375 27.8125 37.5625C28.1875 37.9375 28.5 38.375 28.75 38.75V35.0625C24.3125 34.75 20.8125 31.0625 20.8125 26.5625C20.8125 21.8125 24.625 18 29.375 18C34.125 18 37.9375 21.8125 37.875 26.5625C37.875 31.0625 34.375 34.75 29.9375 35.0625V38.75C30.1875 38.3125 30.5 37.9375 30.875 37.5625C32.5625 35.9375 34.9375 35.1875 37.5 35.4375C37.8125 35.5 38.0625 35.6875 38.0625 36C38.3125 38.4375 37.6875 40.6875 36.1875 42.3125C34.75 43.9375 32.6875 44.8125 30.375 44.8125H30V46.75H37.4375C37.8125 46.75 38.0625 47 38.0625 47.375C38.0625 47.75 37.8125 48 37.4375 48H21.375C21 48 20.75 47.75 20.75 47.375C20.75 47 21 46.75 21.375 46.75H28.6875V44.8125H28.3125C26 44.8125 23.9375 43.9375 22.5 42.3125C21 40.6875 20.375 38.4375 20.625 36C20.6875 35.6875 20.875 35.5 21.1875 35.4375ZM28.375 43.5625H28.75C28.8125 41.5625 28.1875 39.75 26.875 38.5C25.625 37.25 23.8125 36.625 21.8125 36.6875C21.75 38.5625 22.3125 40.25 23.4375 41.5C24.6875 42.8125 26.375 43.5625 28.375 43.5625ZM31.8125 38.5C33.0625 37.25 34.875 36.5625 36.875 36.6875C36.9375 38.5625 36.375 40.25 35.25 41.5C34 42.9375 32.125 43.625 29.9375 43.5625C29.9375 41.5625 30.5625 39.75 31.8125 38.5ZM29.375 19.25C25.375 19.25 22.0625 22.5 22.0625 26.5625C22.0625 30.5625 25.375 33.875 29.375 33.875C33.4375 33.875 36.6875 30.625 36.6875 26.5625C36.6875 22.5 33.375 19.25 29.375 19.25Z" fill="#F78200"/>
</svg>
