<svg width="73" height="68" viewBox="0 0 73 68" fill="none" xmlns="http://www.w3.org/2000/svg">
<circle cx="57.1397" cy="43.891" r="8.77032" fill="#FDB62F"/>
<rect x="33.3345" y="8.80951" width="2.50587" height="23.8052" fill="#6B962A"/>
<path d="M34.5873 8.80954H32.0814C27.2376 8.80954 23.3111 4.88299 23.3111 0.0392151H25.817C30.6607 0.0392151 34.5873 3.96577 34.5873 8.80954Z" fill="#88B337"/>
<rect x="23.3111" y="37.6265" width="17.5408" height="5.01159" fill="#FFA83D"/>
<rect x="25.817" y="42.6381" width="17.5408" height="5.01159" fill="#FDB62F"/>
<rect x="23.3111" y="47.6497" width="17.5408" height="5.01159" fill="#FFA83D"/>
<rect x="25.817" y="52.6614" width="17.5408" height="5.01159" fill="#FDB62F"/>
<rect x="25.817" y="57.673" width="17.5408" height="5.01159" fill="#FFA83D"/>
<rect x="28.3227" y="62.6846" width="17.5408" height="5.01159" fill="#FDB62F"/>
<path d="M19.5524 12.5683H22.0582C28.9781 12.5683 34.5873 18.1776 34.5873 25.0973V25.0973V25.0973H32.0814C25.1617 25.0973 19.5524 19.4881 19.5524 12.5683V12.5683V12.5683Z" fill="#88B337"/>
<path d="M45.8635 0.0392151H43.3576C38.5138 0.0392151 34.5873 3.96577 34.5873 8.80954H37.0931C41.9369 8.80954 45.8635 4.88299 45.8635 0.0392151Z" fill="#6B962A"/>
<path d="M37.0931 25.0973H34.5873V25.0973V25.0973C34.5873 18.1774 40.1966 12.5683 47.1163 12.5683H49.6222V12.5683V12.5683C49.6222 19.4881 44.0129 25.0973 37.0931 25.0973Z" fill="#6B962A"/>
<rect x="0.758728" y="47.6497" width="17.5408" height="5.01159" fill="#FDB62F"/>
<rect x="0.758728" y="52.6614" width="17.5408" height="5.01159" fill="#FFA83D"/>
<rect x="3.26459" y="57.673" width="17.5408" height="5.01159" fill="#FDB62F"/>
<rect x="0.758728" y="62.6846" width="17.5408" height="5.01159" fill="#FFA83D"/>
<rect x="48.3693" y="52.6614" width="17.5408" height="5.01159" fill="#FDB62F"/>
<rect x="50.8751" y="57.673" width="17.5408" height="5.01159" fill="#FFA83D"/>
<rect x="50.8751" y="62.6846" width="17.5408" height="5.01159" fill="#FDB62F"/>
<circle cx="57.1396" cy="43.891" r="5.01159" fill="#FFA83D"/>
<path d="M57.1398 48.9027V46.3968C58.5242 46.3968 59.6456 45.2755 59.6456 43.891H62.1515C62.1514 46.6586 59.9074 48.9027 57.1398 48.9027Z" fill="#FD7B2F"/>
<path d="M54.6339 43.891H52.1281C52.1281 41.1233 54.372 38.8794 57.1396 38.8794V41.3852C55.7554 41.3852 54.6339 42.5065 54.6339 43.891Z" fill="#FD7B2F"/>
<path d="M59.6455 12.5683V12.5683C59.2196 9.99734 57.2048 7.98261 54.6339 7.55667V7.55667C57.2048 7.13073 59.2196 5.11599 59.6455 2.54507V2.54507C60.0714 5.11599 62.0862 7.13073 64.6571 7.55667V7.55667C62.0862 7.98261 60.0714 9.99734 59.6455 12.5683Z" fill="#FDB62F"/>
<path d="M9.52905 40.1322V40.1322C9.10311 37.5613 7.08837 35.5466 4.51746 35.1206V35.1206C7.08837 34.6947 9.10311 32.68 9.52905 30.109V30.109C9.95499 32.68 11.9697 34.6947 14.5406 35.1206V35.1206C11.9697 35.5466 9.95513 37.5613 9.52905 40.1322Z" fill="#FDB62F"/>
<rect x="25.817" y="32.6148" width="17.5408" height="5.01159" fill="#FDB62F"/>
<path d="M72.1746 28.8561H68.4158V25.0973H65.91V28.8561H62.1512V31.3619H65.91V35.1207H68.4158V31.3619H72.1746V28.8561Z" fill="#FDB62F"/>
<path d="M22.0582 28.856C17.9062 28.856 14.5408 25.4907 14.5408 21.3386V20.0857H17.0466V21.3386C17.0466 24.1062 19.2906 26.3502 22.0582 26.3502V28.856Z" fill="#DBDBDB"/>
</svg>
