<svg width="58" height="66" viewBox="0 0 58 66" fill="none" xmlns="http://www.w3.org/2000/svg">
<rect width="57.75" height="66" rx="8" fill="#FFE8BF"/>
<path fill-rule="evenodd" clip-rule="evenodd" d="M45.9862 24.939C45.9862 25.0664 45.8829 25.1698 45.7554 25.1698H40.8198V43.2104C40.8198 43.2112 40.82 43.2119 40.8202 43.2126C40.8204 43.2129 40.8205 43.2133 40.8206 43.2137L40.8207 43.2148V47.1865C40.8207 48.7379 39.5585 50 38.0071 50H19.0407C17.3717 50 16.0138 48.6422 16.0138 46.9732V46.5622C16.0138 46.4348 16.1171 46.3315 16.2446 46.3315H18.5929V23.632C18.5929 21.6294 20.2234 20.0001 22.2275 20.0001L43.1727 20C44.7241 20 45.9862 21.2621 45.9862 22.8135V24.939ZM45.5246 24.7082V22.8135C45.5246 21.5167 44.4695 20.4615 43.1727 20.4615C41.8758 20.4615 40.8207 21.5167 40.8207 22.8135V24.7082H45.5246ZM19.0407 49.5385C17.6261 49.5385 16.4753 48.3877 16.4753 46.9732V46.793H35.1936V47.1865C35.1936 48.1696 35.7013 49.0352 36.4674 49.5385H19.0407ZM40.3592 24.9346V22.8135C40.3592 21.8304 40.8669 20.9648 41.6329 20.4615L22.2275 20.4617C20.478 20.4617 19.0545 21.8839 19.0545 23.632V46.3315H35.4252C35.5527 46.3315 35.656 46.4348 35.656 46.5622C35.656 46.5635 35.6554 46.5646 35.6552 46.5658C35.6551 46.5661 35.6551 46.5664 35.6551 46.5667V47.1865C35.6551 48.4833 36.7102 49.5385 38.0071 49.5385C39.3026 49.5385 40.3566 48.4856 40.3589 47.1908C40.3589 47.19 40.3586 47.1893 40.3584 47.1886C40.3583 47.1882 40.3583 47.1878 40.3583 47.1874V24.939C40.3583 24.9374 40.3591 24.9361 40.3592 24.9346Z" fill="#F78200"/>
<path d="M40.8198 25.1698V24.6698H40.3198V25.1698H40.8198ZM40.8198 43.2104H40.3197L40.3199 43.219L40.8198 43.2104ZM40.8202 43.2126L40.3423 43.3594L40.3427 43.3609L40.8202 43.2126ZM40.8206 43.2137L41.3168 43.1527L41.3138 43.1279L41.3083 43.1036L40.8206 43.2137ZM40.8207 43.2148H41.3207V43.1842L41.317 43.1538L40.8207 43.2148ZM18.5929 46.3315V46.8315H19.0929V46.3315H18.5929ZM22.2275 20.0001L22.2275 20.5001L22.2276 20.5001L22.2275 20.0001ZM43.1727 20L43.1727 19.5L43.1727 19.5L43.1727 20ZM45.5246 24.7082V25.2082H46.0246V24.7082H45.5246ZM40.8207 24.7082H40.3207V25.2082H40.8207V24.7082ZM16.4753 46.793V46.293H15.9753V46.793H16.4753ZM35.1936 46.793H35.6936V46.293H35.1936V46.793ZM36.4674 49.5385V50.0385H38.1392L36.7419 49.1206L36.4674 49.5385ZM40.3592 24.9346L40.8592 24.9436V24.9346H40.3592ZM41.6329 20.4615L41.9075 20.8794L43.3048 19.9615L41.6329 19.9615L41.6329 20.4615ZM22.2275 20.4617L22.2275 20.9617L22.2276 20.9617L22.2275 20.4617ZM19.0545 46.3315H18.5545V46.8315H19.0545V46.3315ZM35.6552 46.5658L35.1647 46.4688L35.1645 46.4696L35.6552 46.5658ZM35.6551 46.5667L35.1551 46.5574V46.5667H35.6551ZM40.3589 47.1908L40.859 47.1917L40.8589 47.1846L40.3589 47.1908ZM40.3584 47.1886L40.8401 47.0544L40.8398 47.0534L40.3584 47.1886ZM45.7554 25.6698C46.159 25.6698 46.4862 25.3426 46.4862 24.939H45.4862C45.4862 24.7903 45.6067 24.6698 45.7554 24.6698V25.6698ZM40.8198 25.6698H45.7554V24.6698H40.8198V25.6698ZM41.3198 43.2104V25.1698H40.3198V43.2104H41.3198ZM41.2982 43.0657C41.297 43.062 41.3025 43.079 41.3071 43.099C41.3124 43.1218 41.319 43.1575 41.3197 43.2018L40.3199 43.219C40.3206 43.264 40.3273 43.3005 40.3328 43.324C40.3376 43.3448 40.3432 43.3625 40.3423 43.3594L41.2982 43.0657ZM41.3083 43.1036C41.3054 43.0909 41.3026 43.0807 41.3008 43.0744C41.2998 43.0712 41.2991 43.0686 41.2986 43.0669C41.2983 43.0661 41.2981 43.0655 41.298 43.065C41.2979 43.0648 41.2979 43.0646 41.2978 43.0645C41.2978 43.0644 41.2978 43.0643 41.2978 43.0643L40.3427 43.3609C40.343 43.3618 40.3416 43.3573 40.3401 43.3519C40.3383 43.346 40.3356 43.3361 40.3328 43.3237L41.3083 43.1036ZM41.317 43.1538L41.3168 43.1527L40.3243 43.2747L40.3244 43.2759L41.317 43.1538ZM41.3207 47.1865V43.2148H40.3207V47.1865H41.3207ZM38.0071 50.5C39.8346 50.5 41.3207 49.014 41.3207 47.1865H40.3207C40.3207 48.4617 39.2823 49.5 38.0071 49.5V50.5ZM19.0407 50.5H38.0071V49.5H19.0407V50.5ZM15.5138 46.9732C15.5138 48.9184 17.0956 50.5 19.0407 50.5V49.5C17.6478 49.5 16.5138 48.366 16.5138 46.9732H15.5138ZM15.5138 46.5622V46.9732H16.5138V46.5622H15.5138ZM16.2446 45.8315C15.841 45.8315 15.5138 46.1587 15.5138 46.5622H16.5138C16.5138 46.7109 16.3933 46.8315 16.2446 46.8315V45.8315ZM18.5929 45.8315H16.2446V46.8315H18.5929V45.8315ZM18.0929 23.632V46.3315H19.0929V23.632H18.0929ZM22.2275 19.5001C19.9476 19.5001 18.0929 21.3529 18.0929 23.632H19.0929C19.0929 21.9059 20.4992 20.5001 22.2275 20.5001V19.5001ZM43.1727 19.5L22.2275 19.5001L22.2276 20.5001L43.1727 20.5L43.1727 19.5ZM46.4862 22.8135C46.4862 20.986 45.0002 19.5 43.1727 19.5V20.5C44.4479 20.5 45.4862 21.5383 45.4862 22.8135H46.4862ZM46.4862 24.939V22.8135H45.4862V24.939H46.4862ZM45.0246 22.8135V24.7082H46.0246V22.8135H45.0246ZM43.1727 20.9615C44.1934 20.9615 45.0246 21.7928 45.0246 22.8135H46.0246C46.0246 21.2405 44.7457 19.9615 43.1727 19.9615V20.9615ZM41.3207 22.8135C41.3207 21.7928 42.152 20.9615 43.1727 20.9615V19.9615C41.5997 19.9615 40.3207 21.2405 40.3207 22.8135H41.3207ZM41.3207 24.7082V22.8135H40.3207V24.7082H41.3207ZM45.5246 24.2082H40.8207V25.2082H45.5246V24.2082ZM15.9753 46.9732C15.9753 48.6638 17.35 50.0385 19.0407 50.0385V49.0385C17.9023 49.0385 16.9753 48.1115 16.9753 46.9732H15.9753ZM15.9753 46.793V46.9732H16.9753V46.793H15.9753ZM35.1936 46.293H16.4753V47.293H35.1936V46.293ZM35.6936 47.1865V46.793H34.6936V47.1865H35.6936ZM36.7419 49.1206C36.1096 48.7052 35.6936 47.993 35.6936 47.1865H34.6936C34.6936 48.3461 35.293 49.3652 36.1928 49.9564L36.7419 49.1206ZM19.0407 50.0385H36.4674V49.0385H19.0407V50.0385ZM39.8592 22.8135V24.9346H40.8592V22.8135H39.8592ZM41.3584 20.0436C40.4586 20.6348 39.8592 21.6539 39.8592 22.8135H40.8592C40.8592 22.007 41.2752 21.2948 41.9075 20.8794L41.3584 20.0436ZM22.2276 20.9617L41.6329 20.9615L41.6329 19.9615L22.2275 19.9617L22.2276 20.9617ZM19.5545 23.632C19.5545 22.1604 20.7537 20.9617 22.2275 20.9617V19.9617C20.2022 19.9617 18.5545 21.6074 18.5545 23.632H19.5545ZM19.5545 46.3315V23.632H18.5545V46.3315H19.5545ZM35.4252 45.8315H19.0545V46.8315H35.4252V45.8315ZM36.156 46.5622C36.156 46.1587 35.8288 45.8315 35.4252 45.8315V46.8315C35.2765 46.8315 35.156 46.7109 35.156 46.5622H36.156ZM36.1457 46.6628C36.1414 46.6845 36.1366 46.7011 36.1348 46.7071C36.1339 46.7101 36.1331 46.7127 36.1334 46.7118C36.1334 46.7117 36.1337 46.7108 36.134 46.7098C36.1343 46.7087 36.1348 46.707 36.1354 46.7049C36.1395 46.6912 36.156 46.6356 36.156 46.5622H35.156C35.156 46.4902 35.1723 46.4357 35.1759 46.4232C35.1765 46.4213 35.177 46.4197 35.1773 46.4187C35.1774 46.4182 35.1775 46.4178 35.1776 46.4176C35.1777 46.4175 35.1777 46.4174 35.1777 46.4173C35.1777 46.4172 35.1777 46.4172 35.1777 46.4172C35.1779 46.4165 35.177 46.4195 35.1761 46.4227C35.1741 46.4293 35.1691 46.4465 35.1647 46.4688L36.1457 46.6628ZM36.155 46.5759C36.1544 46.6108 36.1501 46.6402 36.1459 46.662L35.1645 46.4696C35.1601 46.492 35.1558 46.5219 35.1552 46.5574L36.155 46.5759ZM36.1551 47.1865V46.5667H35.1551V47.1865H36.1551ZM38.0071 49.0385C36.9864 49.0385 36.1551 48.2072 36.1551 47.1865H35.1551C35.1551 48.7595 36.4341 50.0385 38.0071 50.0385V49.0385ZM39.8589 47.1899C39.8571 48.2091 39.0267 49.0385 38.0071 49.0385V50.0385C39.5785 50.0385 40.8561 48.7622 40.8589 47.1917L39.8589 47.1899ZM39.8768 47.3227C39.8792 47.3314 39.8816 47.339 39.8811 47.3375C39.8811 47.3375 39.8811 47.3374 39.881 47.3372C39.881 47.337 39.8809 47.3367 39.8808 47.3364C39.8806 47.3358 39.8803 47.3347 39.8799 47.3334C39.8791 47.3309 39.8779 47.3268 39.8765 47.3217C39.8713 47.3026 39.8597 47.2568 39.859 47.197L40.8589 47.1846C40.8582 47.1239 40.8464 47.0774 40.841 47.0576C40.8396 47.0523 40.8383 47.048 40.8375 47.0453C40.8371 47.044 40.8367 47.0428 40.8365 47.0421C40.8363 47.0414 40.8361 47.0408 40.8361 47.0407C40.8355 47.0388 40.8378 47.0461 40.8401 47.0544L39.8768 47.3227ZM39.8583 47.1874C39.8583 47.2532 39.8714 47.3036 39.8771 47.3237L40.8398 47.0534C40.8453 47.0728 40.8583 47.1224 40.8583 47.1874H39.8583ZM39.8583 24.939V47.1874H40.8583V24.939H39.8583ZM39.8592 24.9255C39.8601 24.8808 39.8668 24.8449 39.8721 24.822C39.8747 24.8107 39.8773 24.8017 39.8788 24.7965C39.8796 24.7939 39.8802 24.7917 39.8805 24.7906C39.8808 24.7896 39.8811 24.7886 39.881 24.7892C39.881 24.7893 39.8805 24.7906 39.8801 24.7922C39.8795 24.7939 39.8787 24.7966 39.8778 24.7998C39.876 24.8061 39.8733 24.8162 39.8705 24.8287C39.8648 24.8539 39.8583 24.8921 39.8583 24.939H40.8583C40.8583 24.9851 40.8518 25.0225 40.8463 25.0471C40.8436 25.0592 40.841 25.0689 40.8392 25.0748C40.8384 25.0779 40.8376 25.0803 40.8372 25.0819C40.8369 25.0827 40.8367 25.0833 40.8366 25.0837C40.8365 25.0841 40.8364 25.0844 40.8364 25.0844C40.8363 25.0847 40.8367 25.0836 40.837 25.0824C40.8374 25.0811 40.8381 25.0788 40.8389 25.076C40.8406 25.0704 40.8432 25.061 40.8459 25.0494C40.8514 25.0258 40.8583 24.9891 40.8591 24.9436L39.8592 24.9255Z" fill="#F78200"/>
<path d="M36.4852 38.7745H22.9275C22.8001 38.7745 22.6968 38.8778 22.6968 39.0052C22.6968 39.1327 22.8001 39.236 22.9275 39.236H36.4852C36.6127 39.236 36.716 39.1327 36.716 39.0052C36.716 38.8778 36.6127 38.7745 36.4852 38.7745Z" fill="#F78200" stroke="#F78200"/>
<path d="M36.4852 42.0422H22.9275C22.8001 42.0422 22.6968 42.1455 22.6968 42.2729C22.6968 42.4004 22.8001 42.5037 22.9275 42.5037H36.4852C36.6127 42.5037 36.716 42.4004 36.716 42.2729C36.716 42.1455 36.6127 42.0422 36.4852 42.0422Z" fill="#F78200" stroke="#F78200"/>
<path d="M36.4852 35.5067H22.9275C22.8001 35.5067 22.6968 35.61 22.6968 35.7375C22.6968 35.8649 22.8001 35.9683 22.9275 35.9683H36.4852C36.6127 35.9683 36.716 35.8649 36.716 35.7375C36.716 35.61 36.6127 35.5067 36.4852 35.5067Z" fill="#F78200" stroke="#F78200"/>
<path fill-rule="evenodd" clip-rule="evenodd" d="M30.1116 31.2903C30.1116 30.1459 31.0428 29.2147 32.1874 29.2147C33.332 29.2147 34.2632 30.1459 34.2632 31.2903C34.2632 32.435 33.332 33.3661 32.1874 33.3661C31.0428 33.3661 30.1116 32.435 30.1116 31.2903ZM30.5731 31.2903C30.5731 32.1804 31.2973 32.9046 32.1874 32.9046C33.0774 32.9046 33.8016 32.1804 33.8016 31.2903C33.8016 30.4003 33.0774 29.6762 32.1874 29.6762C31.2973 29.6762 30.5731 30.4003 30.5731 31.2903Z" fill="#F78200"/>
<path d="M32.1874 28.7147C30.7666 28.7147 29.6116 29.8697 29.6116 31.2903H30.6116C30.6116 30.422 31.3189 29.7147 32.1874 29.7147V28.7147ZM34.7632 31.2903C34.7632 29.8697 33.6081 28.7147 32.1874 28.7147V29.7147C33.0559 29.7147 33.7632 30.422 33.7632 31.2903H34.7632ZM32.1874 33.8661C33.6081 33.8661 34.7632 32.7111 34.7632 31.2903H33.7632C33.7632 32.1588 33.0558 32.8661 32.1874 32.8661V33.8661ZM29.6116 31.2903C29.6116 32.7111 30.7666 33.8661 32.1874 33.8661V32.8661C31.3189 32.8661 30.6116 32.1588 30.6116 31.2903H29.6116ZM32.1874 32.4046C31.5734 32.4046 31.0731 31.9043 31.0731 31.2903H30.0731C30.0731 32.4565 31.0212 33.4046 32.1874 33.4046V32.4046ZM33.3016 31.2903C33.3016 31.9043 32.8013 32.4046 32.1874 32.4046V33.4046C33.3536 33.4046 34.3016 32.4565 34.3016 31.2903H33.3016ZM32.1874 30.1762C32.8013 30.1762 33.3016 30.6765 33.3016 31.2903H34.3016C34.3016 30.1241 33.3535 29.1762 32.1874 29.1762V30.1762ZM31.0731 31.2903C31.0731 30.6765 31.5734 30.1762 32.1874 30.1762V29.1762C31.0212 29.1762 30.0731 30.1241 30.0731 31.2903H31.0731Z" fill="#F78200"/>
<path fill-rule="evenodd" clip-rule="evenodd" d="M29.3011 26.365C29.3011 27.5096 28.3699 28.4408 27.2254 28.4408C26.0808 28.4408 25.1496 27.5096 25.1496 26.365C25.1496 25.2205 26.0808 24.2893 27.2254 24.2893C28.3699 24.2893 29.3011 25.2205 29.3011 26.365ZM28.8395 26.365C28.8395 25.4749 28.1155 24.7508 27.2254 24.7508C26.3353 24.7508 25.6111 25.4749 25.6111 26.365C25.6111 27.2551 26.3353 27.9792 27.2254 27.9792C28.1155 27.9792 28.8395 27.2551 28.8395 26.365Z" fill="#F78200"/>
<path d="M27.2254 28.9408C28.646 28.9408 29.8011 27.7857 29.8011 26.365H28.8011C28.8011 27.2335 28.0937 27.9408 27.2254 27.9408V28.9408ZM24.6496 26.365C24.6496 27.7857 25.8046 28.9408 27.2254 28.9408V27.9408C26.3569 27.9408 25.6496 27.2335 25.6496 26.365H24.6496ZM27.2254 23.7893C25.8047 23.7893 24.6496 24.9443 24.6496 26.365H25.6496C25.6496 25.4967 26.3569 24.7893 27.2254 24.7893V23.7893ZM29.8011 26.365C29.8011 24.9444 28.646 23.7893 27.2254 23.7893V24.7893C28.0937 24.7893 28.8011 25.4966 28.8011 26.365H29.8011ZM27.2254 25.2508C27.8393 25.2508 28.3395 25.7511 28.3395 26.365H29.3395C29.3395 25.1988 28.3916 24.2508 27.2254 24.2508V25.2508ZM26.1111 26.365C26.1111 25.7511 26.6114 25.2508 27.2254 25.2508V24.2508C26.0592 24.2508 25.1111 25.1987 25.1111 26.365H26.1111ZM27.2254 27.4792C26.6115 27.4792 26.1111 26.9789 26.1111 26.365H25.1111C25.1111 27.5312 26.0592 28.4792 27.2254 28.4792V27.4792ZM28.3395 26.365C28.3395 26.979 27.8393 27.4792 27.2254 27.4792V28.4792C28.3916 28.4792 29.3395 27.5311 29.3395 26.365H28.3395Z" fill="#F78200"/>
<path d="M25.6917 32.8408C25.7368 32.8859 25.7958 32.9084 25.8549 32.9084C25.9139 32.9084 25.9729 32.8859 26.018 32.8408L33.7211 25.1409C33.8112 25.0509 33.8112 24.9048 33.7211 24.8146C33.6309 24.7245 33.4849 24.7245 33.3947 24.8146L25.6917 32.5145C25.6015 32.6045 25.6015 32.7507 25.6917 32.8408Z" fill="#F78200" stroke="#F78200"/>
</svg>
