<?xml version="1.0" encoding="UTF-8"?>
<svg width="144px" height="144px" viewBox="0 0 144 144" version="1.1" xmlns="http://www.w3.org/2000/svg" xmlns:xlink="http://www.w3.org/1999/xlink">
    <!-- Generator: Sketch 53.2 (72643) - https://sketchapp.com -->
    <title>Group 12</title>
    <desc>Created with Sketch.</desc>
    <defs>
        <linearGradient x1="44.4730202%" y1="3.93838171%" x2="62.2751392%" y2="83.5377776%" id="linearGradient-1">
            <stop stop-color="#606C78" offset="0%"></stop>
            <stop stop-color="#FFFFFF" offset="100%"></stop>
        </linearGradient>
        <linearGradient x1="-2.64872596e-05%" y1="49.9994459%" x2="116.625629%" y2="49.9994459%" id="linearGradient-2">
            <stop stop-color="#301844" offset="0%"></stop>
            <stop stop-color="#883976" offset="100%"></stop>
        </linearGradient>
        <path d="M0.0908154981,0.378608401 C0.0844978982,0.378608401 0.0789699983,0.378608401 0.0734420984,0.378608401 C0.0813390983,0.378608401 0.0884463981,0.378608401 0.0963433979,0.378608401 L25.8476701,0.0708439033 L25.8476701,0.0731666542 L0.131879897,0.378608401 C0.118454997,0.378608401 0.104240398,0.378608401 0.0908154981,0.378608401" id="path-3"></path>
        <path d="M0.0904144494,51.4565817 C0.0850411364,51.3789049 0.0850411364,51.2995395 0.0850411364,51.2218627 C0.0850411364,51.2995395 0.0850411364,51.3772163 0.0904144494,51.4565817 M0.00982281494,3.42409481 C0.0109744037,2.01622461 1.03588838,0.788726304 2.64580943,0.0278337197 C2.66193167,0.0319775038 2.6792055,0.0361994725 2.69647933,0.0404214412 C2.68841821,0.0443306715 2.68035709,0.0482399018 2.67229597,0.0520709475 C1.06237492,0.812885347 0.0109744037,2.01614643 0.00982281494,3.42409481" id="path-5"></path>
        <linearGradient x1="-85.8131162%" y1="53.3579986%" x2="3688.79897%" y2="53.3579986%" id="linearGradient-7">
            <stop stop-color="#2D1741" offset="0%"></stop>
            <stop stop-color="#7F3570" offset="100%"></stop>
        </linearGradient>
        <path d="M10.3664384,20 L1.36643836,19.7059163 L1.36643836,11.3344625 C1.36643836,11.3335386 1.36643836,11.3326918 1.36643836,11.331768 C1.36718506,9.94541745 2.04892404,8.76061434 3.09281353,8.0114708 C3.09804045,8.00769853 3.10326736,8.00384926 3.10849428,8 C5.37398834,8.85230378 8.27567257,11.2092074 9.76534319,17.5446322 C9.96695275,18.4006313 10.1655755,19.2182917 10.3664384,20" id="path-8"></path>
    </defs>
    <g id="Page-1" stroke="none" stroke-width="1" fill="none" fill-rule="evenodd">
        <g id="Transact" transform="translate(-345.000000, -318.000000)">
            <g id="Group-12" transform="translate(333.329599, 306.329599)">
                <circle id="Oval" fill="url(#linearGradient-1)" opacity="0.137230283" transform="translate(83.500000, 83.500000) rotate(10.000000) translate(-83.500000, -83.500000) " cx="83.5" cy="83.5" r="71.5"></circle>
                <g id="Group-3" transform="translate(27.670401, 38.670401)">
                    <g id="Group-103">
                        <g id="Group-99" transform="translate(24.000000, 0.000000)">
                            <path d="M5.15480515,63 C2.5349503,63 0.366438356,61.057495 0.366438356,58.6433273 L0.366438356,11.1962453 C0.366438356,8.83808764 2.44198002,7 4.97998924,7 C5.05468331,7 5.12937738,7.00155152 5.20486607,7.00473214 L6.57240329,7.06283662 C6.55333246,7.06268147 6.53426163,7.06252632 6.51519081,7.06252632 C5.50443698,7.06252632 4.56360952,7.34079172 3.81110647,7.84782898 C3.7991872,7.84363987 3.78726794,7.83945076 3.77614329,7.83533923 C2.66526762,8.59030964 1.95805779,9.80825409 1.95726317,11.2051666 C1.95726317,11.2060199 1.95726317,11.2069508 1.95726317,11.2078042 L1.95726317,58.6309152 C1.95726317,58.6666002 1.95726317,58.7030609 1.95885241,58.7387459 C1.95885241,58.7402974 1.95885241,58.741849 1.95885241,58.7434005 C1.95885241,58.7441763 1.95885241,58.7441763 1.95885241,58.744952 C2.02242183,61.1017133 4.04313487,62.9844848 6.61292879,62.9844848 C6.61292879,62.9844848 6.61372341,62.9844848 6.61451803,62.9844848 L5.19771451,63 C5.18341139,63 5.16910827,63 5.15480515,63 M56.7048396,19.0592792 C56.660341,19.0592792 56.6158424,19.0585034 56.5713438,19.0570295 C56.3424939,19.049427 56.117617,19.0225081 55.8998918,18.9779795 C57.6814248,18.7316754 59.0298912,17.2810027 59.0298912,15.4822462 C59.0298912,13.6832569 57.6806302,12.1335971 55.8990971,11.7569652 C56.0659669,11.7350888 56.2368097,11.7237627 56.4100364,11.7237627 C56.4632758,11.7237627 56.5173098,11.7248487 56.5713438,11.7270209 C58.6699294,11.8111909 60.3664384,13.5135204 60.3664384,15.5322052 C60.3664384,17.5057406 58.741445,19.0592792 56.7048396,19.0592792 M38.0265538,18.4395239 C37.9796714,18.4395239 37.9327889,18.4387481 37.8859065,18.4371966 C37.6491104,18.4293614 37.4162874,18.4018219 37.1906159,18.3563623 C39.0357184,18.1067225 40.4318619,16.6313031 40.4318619,14.8008954 C40.4318619,12.9702551 39.0349238,11.3922801 37.1898213,11.0077354 C37.3614588,10.9857038 37.5370693,10.9743777 37.7158583,10.9743777 C37.7722761,10.9743777 37.828694,10.9754638 37.8859065,10.9777911 C40.0591861,11.064909 41.8160861,12.7983465 41.8160861,14.8525611 C41.8160861,16.8600749 40.1338802,18.4395239 38.0265538,18.4395239 M18.6776107,17.7975043 C18.6283444,17.7975043 18.5790781,17.7966509 18.5290172,17.7950218 C18.2834803,17.7868763 18.0419165,17.7587162 17.8082988,17.7123257 C18.9152014,17.5658621 19.8663589,17.0012634 20.471063,16.1901279 C20.9104867,15.6001618 21.1671482,14.8796352 21.1671482,14.0951083 C21.1671482,12.2315757 19.7201492,10.6243545 17.8075042,10.2315868 C17.984704,10.2094 18.1658768,10.1979963 18.3494335,10.1979963 C18.4090299,10.1979963 18.4686262,10.19916 18.5290172,10.2015648 C20.780964,10.2917858 22.6014333,12.0576501 22.6014333,14.1486358 C22.6014333,16.191214 20.8604257,17.7975043 18.6776107,17.7975043" id="Fill-326" fill="url(#linearGradient-2)"></path>
                            <path d="M1.36643836,22 L1.36643836,11.1285502 C1.36643836,11.1277003 1.36643836,11.1267732 1.36643836,11.1259233 C1.36643836,11.1268504 1.36643836,11.1277003 1.36643836,11.1286275 L1.36643836,22 M10.7856824,19.8254319 L1.68066291,19.5433697 C1.50017657,13.5469813 1.50017657,10.2745128 1.68066291,9.72596427 C1.95139242,8.90314141 4.80538464,7 5.80774843,7 C5.82666095,7 5.84557348,7.00015453 5.864486,7.00030905 C5.92358764,7.00092716 5.98268928,7.00247242 6.04179092,7.0050221 L53.9684917,9.04940198 L66.2119872,9.5717001 C68.5327115,9.67075131 70.3664384,11.5358037 70.3664384,13.7982199 L70.3664384,21.6768087 L10.7856824,19.8254319 Z M54.7825183,18.8673703 C54.9984363,18.9117193 55.2214465,18.9385295 55.4483967,18.9461013 C55.492526,18.9475693 55.5366552,18.9483419 55.5807844,18.9483419 C57.6004844,18.9483419 59.2119891,17.4010724 59.2119891,15.4355008 C59.2119891,13.4249621 57.5295624,11.7295021 55.4483967,11.6456717 C55.3948113,11.6435084 55.3412258,11.6424267 55.2884283,11.6424267 C55.1166395,11.6424267 54.9472148,11.6537071 54.7817303,11.6754953 C53.0086811,11.9090614 51.6572236,13.352953 51.6572236,15.1575084 C51.6572236,16.9604413 53.0086811,18.5038477 54.7825183,18.8673703 M36.2285439,18.2482616 C36.4523421,18.2935377 36.6832325,18.3209661 36.918063,18.3287697 C36.9645563,18.3303149 37.0110496,18.3310876 37.0575428,18.3310876 C39.1473768,18.3310876 40.815619,16.7580122 40.815619,14.7585994 C40.815619,12.7126742 39.0733027,10.9862317 36.918063,10.8994653 C36.8613254,10.8971474 36.8053759,10.8960658 36.7494263,10.8960658 C36.5721214,10.8960658 36.3979686,10.9073462 36.2277558,10.9292889 C34.3916649,11.165482 32.9921381,12.6340205 32.9921381,14.4707173 C32.9921381,16.3057144 34.3916649,17.8772445 36.2285439,18.2482616 M17.0071149,17.6068239 C17.2387934,17.6530272 17.478352,17.6810736 17.7218508,17.6891863 C17.7714961,17.6908088 17.8203535,17.6916587 17.8692108,17.6916587 C20.0339069,17.6916587 21.7604627,16.0918503 21.7604627,14.0575146 C21.7604627,11.9749668 19.9551047,10.2162283 17.7218508,10.1263714 C17.6619611,10.1239763 17.6028595,10.1228173 17.5437578,10.1228173 C17.3617248,10.1228173 17.1820558,10.134175 17.0063269,10.1562722 C15.1032542,10.395324 13.6532939,11.8893593 13.6532939,13.759202 C13.6532939,14.5398677 13.906249,15.2740211 14.340449,15.891739 C14.9448618,16.7519857 15.8991562,17.3863152 17.0071149,17.6068239" id="Fill-329" fill="#003974"></path>
                            <path d="M1.36643836,59.5792844 C1.36643836,62.0388186 3.44261819,64.0210945 6.08655334,63.9998305 L66.1222477,63.5115464 C68.4747191,63.4926451 70.3664384,61.6096011 70.3664384,59.3028526 L69.8729301,22 L1.36643836,20 L1.36643836,59.5792844 Z" id="Fill-332" stroke="#003974" fill="#FFFFFF"></path>
                            <path d="M46.3664384,27.2212432 C46.3664384,26.6498877 45.9744322,26.1769146 45.4256236,26.1614194 L39.6139403,26.0004002 C39.0582139,25.9846591 38.3664384,26.4351682 38.3664384,27.010541 L38.3664384,32.8175593 C38.3664384,33.3922761 39.0851163,33.87271 39.640074,33.8841879 L45.2918803,33.9997872 C45.8406889,34.0112651 46.3664384,33.5570666 46.3664384,32.986449 L46.3664384,27.2212432" id="Fill-333" fill="#BFC8D6"></path>
                            <path d="M57.3664384,28.0631565 C57.3664384,27.5630577 56.8776281,27.1475409 56.2947198,27.1340599 L50.4056806,27.0003379 C49.8152777,26.986712 49.3664384,27.386936 49.3664384,27.8906587 L49.3664384,32.9735469 C49.3664384,33.4772696 49.8077832,33.8911195 50.3973533,33.9012664 L56.3130398,33.9998366 C56.8959481,34.0092588 57.3664384,33.6099045 57.3664384,33.1105305 L57.3664384,28.0631565" id="Fill-334" fill="#BFC8D6"></path>
                            <path d="M67.3664384,28.0681785 C67.3664384,27.5683241 66.8592553,27.1519008 66.2879457,27.1387275 L60.449095,27.0003345 C59.8711229,26.9868684 59.3664384,27.3817021 59.3664384,27.8844838 L59.3664384,32.9664582 C59.3664384,33.4699718 59.8494698,33.8885907 60.4274419,33.8988366 L66.2804504,33.9998321 C66.8525928,34.0093461 67.3664384,33.6134147 67.3664384,33.1135603 L67.3664384,28.0681785" id="Fill-335" fill="#BFC8D6"></path>
                            <path d="M46.3664384,37.1628027 C46.3664384,36.5872605 45.9744322,36.1149361 45.4256236,36.1050272 L39.6131716,36.000158 C39.0582139,35.9902491 38.3664384,36.4477101 38.3664384,37.027381 L38.3664384,42.8761115 C38.3664384,43.4549566 39.0851163,43.9338869 39.640074,43.9404929 L45.2918803,43.9999463 C45.8406889,44.0057265 46.3664384,43.5441367 46.3664384,42.9694203 L46.3664384,37.1628027" id="Fill-336" fill="#BFC8D6"></path>
                            <path d="M57.3664384,38.0126263 C57.3664384,37.5089375 56.8776281,37.0943068 56.2947198,37.085547 L50.4056806,37.0001389 C49.8152777,36.9913791 49.3664384,37.39798 49.3664384,37.9045887 L49.3664384,43.024694 C49.3664384,43.5313027 49.8077832,43.9444734 50.3973533,43.9495833 L56.3130398,43.9999522 C56.8959481,44.0050621 57.3664384,43.5999211 57.3664384,43.0962324 L57.3664384,38.0126263" id="Fill-337" fill="#BFC8D6"></path>
                            <path d="M67.3664384,38.0180159 C67.3664384,37.5146076 66.8592553,37.0989089 66.2879457,37.0900642 L60.449095,37.0001436 C59.8711229,36.9912989 59.3664384,37.3922566 59.3664384,37.8993501 L59.3664384,43.01672 C59.3664384,43.5238136 59.8494698,43.9417235 60.4274419,43.9468829 L66.2804504,43.9999509 C66.8525928,44.0051102 67.3664384,43.6034155 67.3664384,43.1000072 L67.3664384,38.0180159" id="Fill-338" fill="#BFC8D6"></path>
                            <path d="M13.3664384,37.1714761 C13.3664384,36.5966335 12.8529378,36.1186655 12.2702531,36.1090581 L6.39190199,36.0001742 C5.80229883,35.9897662 5.36643836,36.4469182 5.36643836,37.0265645 L5.36643836,42.8734662 C5.36643836,43.4523119 5.78077486,43.9286787 6.37114673,43.9350836 L12.3017703,43.9999335 C12.8852238,44.0063384 13.3664384,43.5491865 13.3664384,42.9743439 L13.3664384,37.1714761" id="Fill-339" fill="#BFC8D6"></path>
                            <path d="M25.3664384,37.1630004 C25.3664384,36.5876577 24.9498357,36.1158929 24.3787366,36.1053733 L18.4963384,36.000177 C17.9183215,35.9896574 17.3664384,36.4492842 17.3664384,37.0286728 L17.3664384,42.8775852 C17.3664384,43.4569738 17.9413807,43.934403 18.5193976,43.9400674 L24.3257005,43.9999484 C24.8967996,44.0056128 25.3664384,43.5443676 25.3664384,42.969025 L25.3664384,37.1630004" id="Fill-340" fill="#BFC8D6"></path>
                            <path d="M35.3664384,37.1718357 C35.3664384,36.5966305 34.9413399,36.1178375 34.3817165,36.1080329 L28.5441072,36.0001819 C27.9775655,35.9895602 27.3664384,36.4454757 27.3664384,37.0247662 L27.3664384,42.8715966 C27.3664384,43.4508871 27.992171,43.928046 28.5587128,43.9337654 L34.2986955,43.9999467 C34.8583188,44.005666 35.3664384,43.5505676 35.3664384,42.9753624 L35.3664384,37.1718357" id="Fill-341" fill="#BFC8D6"></path>
                            <path d="M46.3664384,47.9657229 C46.3664384,47.4585001 45.9744322,47.0458813 45.4256236,47.0422427 L39.6131716,47.0000348 C39.0582139,46.9956684 38.3664384,47.4031932 38.3664384,47.9140545 L38.3664384,53.0685149 C38.3664384,53.5793762 39.0851163,53.9970891 39.640074,53.9970891 L45.2918803,54 C45.8406889,54 46.3664384,53.5902921 46.3664384,53.0830693 L46.3664384,47.9657229" id="Fill-342" fill="#BFC8D6"></path>
                            <path d="M57.3664384,47.9623189 C57.3664384,47.4550743 56.8776281,47.0411921 56.2947198,47.0367812 L50.4056806,47.0000244 C49.8152777,46.9963487 49.3664384,47.4087606 49.3664384,47.9196809 L49.3664384,53.0751975 C49.3664384,53.5861178 49.8077832,53.9985297 50.3973533,53.9985297 L56.3130398,54 C56.8959481,54 57.3664384,53.5890584 57.3664384,53.0818137 L57.3664384,47.9623189" id="Fill-343" fill="#BFC8D6"></path>
                            <path d="M13.3664384,47.1099332 C13.3664384,46.530787 12.8529378,46.0548868 12.2702531,46.0500472 L6.39190199,46.0000373 C5.80229883,45.9951977 5.36643836,46.4614185 5.36643836,47.0445978 L5.36643836,52.9352733 C5.36643836,53.5192592 5.78077486,53.9943527 6.37114673,53.9943527 L12.3017703,53.999999 C12.8852238,54.0008056 13.3664384,53.5345848 13.3664384,52.9554385 L13.3664384,47.1099332" id="Fill-344" fill="#BFC8D6"></path>
                            <path d="M25.3664384,47.1029468 C25.3664384,46.5233695 24.9498357,46.0522081 24.3787366,46.0473172 L18.4963384,46.000038 C17.9183215,45.995147 17.3664384,46.4630478 17.3664384,47.0467009 L17.3664384,52.9386632 C17.3664384,53.5223163 17.9413807,53.9983686 18.5193976,53.9983686 L24.3257005,53.9999989 C24.8967996,54.0008141 25.3664384,53.5304679 25.3664384,52.9517057 L25.3664384,47.1029468" id="Fill-345" fill="#BFC8D6"></path>
                            <path d="M35.3664384,47.1118431 C35.3664384,46.5324809 34.9413399,46.0551653 34.3817165,46.0510505 L28.5441072,46.0000271 C27.9775655,45.9959124 27.3664384,46.4600606 27.3664384,47.0427147 L27.3664384,52.9318008 C27.3664384,53.5152779 27.992171,53.9917704 28.5587128,53.9917704 L34.2986955,54 C34.8583188,54 35.3664384,53.5366748 35.3664384,52.9573125 L35.3664384,47.1118431" id="Fill-346" fill="#BFC8D6"></path>
                            <path d="M17.3999459,0.0081015769 C13.7125732,-0.175474925 10.661459,2.77827251 10.3664384,7.0843618 L13.4807162,7.21776174 C13.7349115,4.64488627 15.4287767,2.74060219 17.3999459,2.83352737 C19.5305649,2.93388051 21.3237974,5.37017263 21.3237974,8.16770571 C21.3237974,10.9650114 19.5305649,13.2555489 17.3999459,13.175888 C16.29073,13.1343521 15.2693269,12.4518143 14.541404,11.4137203 C14.120056,11.9848388 13.3936736,13.2989797 14.0815415,14.9297939 C15.0729033,15.5712505 16.202917,15.9546238 17.3999459,15.9962355 C21.2529308,16.1300144 24.3664384,12.6817018 24.3664384,8.29655792 C24.3664384,3.91133822 21.2529308,0.199863984 17.3999459,0.0081015769" id="Fill-347" fill="#003974"></path>
                            <path d="M37.3991524,1.00781513 C33.7120442,0.827530592 30.6608644,3.78367243 30.3664384,8.08959543 L33.4798545,8.22066237 C33.7343855,5.64761552 35.4275349,3.7420149 37.3991524,3.83327575 C39.5295525,3.93194239 41.3232376,6.36705652 41.3232376,9.16474545 C41.3232376,11.9623572 39.5295525,14.2542158 37.3991524,14.1759922 C36.2892698,14.1351832 35.2679544,13.453234 34.5410651,12.41573 C34.1197724,12.9870554 33.3928831,14.3016591 34.0806752,15.9320114 C35.0724682,16.5727659 36.2022984,16.9555524 37.3991524,16.9963613 C41.2522243,17.1278911 44.3664384,13.6772589 44.3664384,9.29149235 C44.3664384,4.90557146 41.2522243,1.19627689 37.3991524,1.00781513" id="Fill-348" fill="#003974"></path>
                            <path d="M55.8963746,2.00754711 C52.472898,1.83039479 49.64047,4.78890142 49.3664384,9.0946609 L52.2572036,9.22344185 C52.4936231,6.65033575 54.065659,4.74343546 55.8963746,4.83311098 C57.8744686,4.93001078 59.5401512,7.36381359 59.5401512,10.1618152 C59.5401512,12.9596597 57.8744686,15.2529029 55.8963746,15.1760269 C54.8662612,15.1359792 53.917513,14.4546966 53.2427964,13.4176959 C52.8513226,13.9893576 52.176606,15.3043367 52.8152456,16.9341224 C53.7355928,17.5743364 54.7848961,17.9563604 55.8963746,17.9964867 C59.4741379,18.1257388 62.3664384,14.6726819 62.3664384,10.2863558 C62.3664384,5.89987264 59.4741379,2.19270898 55.8963746,2.00754711" id="Fill-349" fill="#003974"></path>
                            <path d="M32.3664384,63 L32.3664384,62.9984268 L67.1482702,62.7191924 C69.4863179,62.7003146 71.3664384,60.819612 71.3664384,58.5157315 L71.3664384,57 L71.3664384,58.5165181 C71.3664384,60.819612 69.5196505,62.7018878 67.1823965,62.7207656 L32.3664384,63" id="Fill-350" fill="#E2E7EE"></path>
                            <g id="Group-353" transform="translate(6.366438, 63.000000)">
                                <mask id="mask-4" fill="white">
                                    <use xlink:href="#path-3"></use>
                                </mask>
                                <g id="Clip-352"></g>
                                <path d="M0.0908154981,0.378608401 C0.0844978982,0.378608401 0.0789699983,0.378608401 0.0734420984,0.378608401 C0.0813390983,0.378608401 0.0884463981,0.378608401 0.0963433979,0.378608401 L25.8476701,0.0708439033 L25.8476701,0.0731666542 L0.131879897,0.378608401 C0.118454997,0.378608401 0.104240398,0.378608401 0.0908154981,0.378608401" id="Fill-351" mask="url(#mask-4)"></path>
                            </g>
                            <g id="Group-356" transform="translate(1.366438, 8.000000)">
                                <mask id="mask-6" fill="white">
                                    <use xlink:href="#path-5"></use>
                                </mask>
                                <g id="Clip-355"></g>
                                <path d="M0.0904144494,51.4565817 C0.0850411364,51.3789049 0.0850411364,51.2995395 0.0850411364,51.2218627 C0.0850411364,51.2995395 0.0850411364,51.3772163 0.0904144494,51.4565817 M0.00982281494,3.42409481 C0.0109744037,2.01622461 1.03588838,0.788726304 2.64580943,0.0278337197 C2.66193167,0.0319775038 2.6792055,0.0361994725 2.69647933,0.0404214412 C2.68841821,0.0443306715 2.68035709,0.0482399018 2.67229597,0.0520709475 C1.06237492,0.812885347 0.0109744037,2.01614643 0.00982281494,3.42409481" id="Fill-354" fill="url(#linearGradient-7)" mask="url(#mask-6)"></path>
                            </g>
                            <mask id="mask-9" fill="white">
                                <use xlink:href="#path-8"></use>
                            </mask>
                            <g id="Clip-358"></g>
                            <path d="M6.06339595,64 C3.48893297,63.9913369 1.4327164,62.0830838 1.36803542,59.6959954 C1.36803542,59.6952079 1.36803542,59.6952079 1.36803542,59.6944203 C1.36803542,59.6928452 1.36803542,59.6912701 1.36803542,59.689695 C1.36643836,59.6526798 1.36643836,59.6164521 1.36643836,59.5794369 L1.36643836,20 L10.9911289,20.3008472 C13.5248668,29.7357134 16.2877831,33.9333977 25.7288116,33.9333977 C25.9771546,33.9333977 26.2286918,33.9302474 26.4866172,33.9247345 C27.3705907,33.9050456 28.2290112,33.8924446 29.0602817,33.8924446 C34.6667658,33.8924446 39.0435125,34.4484606 41.9485672,36.9686462 L39.7390328,36.9324186 C39.7334431,36.9324186 39.7270548,36.9324186 39.7206666,36.9324186 C39.1473215,36.9324186 38.443816,37.3655755 38.443816,37.9121407 L38.443816,43.4904142 C38.443816,44.0424923 39.1904422,44.499276 39.7669814,44.5055764 L45.6385776,44.5622806 C45.6425703,44.5622806 45.6457644,44.5622806 45.649757,44.5622806 C45.6537497,44.5622806 45.6577424,44.5622806 45.6625335,44.5622806 C45.6689218,44.6016585 45.67531,44.641824 45.6816983,44.6812019 C46.0162826,46.7375159 47.5039453,48.0551004 49.6312311,49.0222217 L49.6312311,53.7184301 C49.6312311,54.2657829 50.0544524,54.707603 50.6198121,54.707603 L56.2925743,54.7091781 C56.2925743,54.7091781 56.2925743,54.7091781 56.2933728,54.7091781 C56.8515458,54.7091781 57.3027156,54.2689332 57.3027156,53.7255181 L57.3027156,51.252586 C57.3314627,51.259674 57.3594113,51.2659745 57.3881584,51.2722749 C62.6265198,52.4835391 68.4901308,53.8562528 71.3664384,57.7853797 L71.3664384,59.303004 C71.3664384,61.6097614 69.4747191,63.4928126 67.1222477,63.511714 L32.1258411,63.7912971 L6.08655334,64 C6.07856804,64 6.07138126,64 6.06339595,64 M28.7911768,47.0486013 C28.2050553,47.0486013 27.5766116,47.4912089 27.5766116,48.0464373 L27.5766116,53.6822024 C27.5766116,54.2405811 28.2266156,54.6965772 28.8151328,54.6965772 L34.7777615,54.7044527 C34.7777615,54.7044527 34.7777615,54.7044527 34.7785601,54.7044527 C35.3598904,54.7044527 35.8869207,54.2610576 35.8869207,53.7066167 L35.8869207,48.1125922 C35.8869207,47.5581513 35.4453332,47.1013677 34.8640028,47.0974299 L28.7999607,47.0486013 C28.7975651,47.0486013 28.794371,47.0486013 28.7911768,47.0486013 M39.7310475,47.125782 C39.1561054,47.125782 38.443816,47.5652393 38.443816,48.1149548 L38.443816,53.6932283 C38.443816,54.246094 39.1904422,54.6981523 39.7669814,54.6981523 L45.6385776,54.7013025 C45.6385776,54.7013025 45.6385776,54.7013025 45.6393762,54.7013025 C46.2087285,54.7013025 46.7549235,54.2579074 46.7549235,53.7089794 L46.7549235,48.1708715 C46.7549235,47.6219435 46.3476729,47.1753981 45.777522,47.1714603 L39.7390328,47.125782 C39.7366372,47.125782 39.7342416,47.125782 39.7310475,47.125782 M6.57844826,46.8840017 C5.96996786,46.8840017 5.52199214,47.3368475 5.52199214,47.9038893 L5.52199214,53.6554255 C5.52199214,54.2256175 5.95240019,54.6894891 6.56567177,54.6894891 L12.7263361,54.695002 L12.7271347,54.695002 C13.3324209,54.695002 13.8323012,54.2405811 13.8323012,53.6751144 L13.8323012,47.9676815 C13.8323012,47.4022148 13.2988827,46.9375556 12.6935964,46.9328303 L6.5872321,46.8840017 C6.5848365,46.8840017 6.58164238,46.8840017 6.57844826,46.8840017 M17.8736651,46.9659077 C17.2763641,46.9659077 16.7086088,47.4163909 16.7086088,47.9771322 L16.7086088,53.6696015 C16.7086088,54.2334931 17.3059097,54.6934269 17.9064048,54.6934269 L23.9385058,54.695002 C23.9385058,54.695002 23.9385058,54.695002 23.9393043,54.695002 C24.5326126,54.695002 25.0197163,54.2413686 25.0197163,53.6822024 L25.0197163,48.0314737 C25.0197163,47.4715199 24.5869127,47.0163114 23.9936044,47.0115861 L17.8824489,46.9659077 C17.8792548,46.9659077 17.8760607,46.9659077 17.8736651,46.9659077 M28.7807959,36.7504927 C28.1978685,36.7504927 27.5766116,37.1867998 27.5766116,37.738878 L27.5766116,43.3746431 C27.5766116,43.9330218 28.2266156,44.3929557 28.8151328,44.3984686 L34.7777615,44.4622608 C34.7817542,44.4622608 34.7849483,44.4622608 34.788941,44.4622608 C35.3662787,44.4622608 35.8869207,44.0251661 35.8869207,43.474663 L35.8869207,37.8806384 C35.8869207,37.3261976 35.4453332,36.8646886 34.8640028,36.8552379 L28.7999607,36.7512802 C28.7935724,36.7512802 28.7871842,36.7504927 28.7807959,36.7504927 M17.8624856,36.564629 C17.2691773,36.564629 16.7086088,37.0080241 16.7086088,37.5656152 L16.7086088,43.2580846 C16.7086088,43.8219761 17.3059097,44.2866353 17.9064048,44.2921482 L23.9385058,44.3504275 C23.9424984,44.3504275 23.9456925,44.3504275 23.9496852,44.3504275 C24.5382023,44.3504275 25.0197163,43.9030946 25.0197163,43.3470786 L25.0197163,37.6963498 C25.0197163,37.1363961 24.5869127,36.6772498 23.9936044,36.6670115 L17.8824489,36.564629 C17.8752621,36.564629 17.8688739,36.564629 17.8624856,36.564629 M6.5664703,36.3748275 C5.96437815,36.3748275 5.52199214,36.8205853 5.52199214,37.3844769 L5.52199214,43.1360131 C5.52199214,43.7054175 5.95240019,44.1740145 6.56567177,44.180315 L12.7263361,44.2441072 C12.7303288,44.2441072 12.7343215,44.2441072 12.7383141,44.2441072 C13.3388092,44.2441072 13.8323012,43.7967742 13.8323012,43.2352454 L13.8323012,37.5270249 C13.8323012,36.9615582 13.2988827,36.4913861 12.6935964,36.4819354 L6.5872321,36.3748275 C6.58084385,36.3748275 6.57365707,36.3748275 6.5664703,36.3748275" id="Fill-360" fill="#ECEEF3" mask="url(#mask-9)"></path>
                            <path d="M45.354049,44 C45.3501773,44 45.3470799,44 45.3432083,44 L39.6495136,43.940545 C39.0904428,43.9339389 38.3664384,43.4549959 38.3664384,42.8761354 L38.3664384,37.0272502 C38.3664384,36.4541701 39.0486286,36 39.6046021,36 C39.6107968,36 39.6169915,36 39.6224118,36 L41.7650003,36.0379851 C41.8161065,36.0867052 41.8672127,36.1354253 41.9175446,36.1849711 C43.6288277,37.8654005 44.7996242,40.3534269 45.3664384,44 C45.3617923,44 45.3579207,44 45.354049,44" id="Fill-361" fill="#B1BBCC" mask="url(#mask-9)"></path>
                            <path d="M12.313301,44 C12.3094575,44 12.3056139,44 12.3017703,44 L6.37114673,43.9351481 C5.78077486,43.928743 5.36643836,43.4523619 5.36643836,42.8734988 L5.36643836,37.0264211 C5.36643836,36.4531625 5.79230556,36 6.37191544,36 C6.37883386,36 6.38575228,36 6.39190199,36 L12.2702531,36.1088871 C12.8529378,36.1184948 13.3664384,36.5964772 13.3664384,37.1713371 L13.3664384,42.9743795 C13.3664384,43.5452362 12.8913735,44 12.313301,44" id="Fill-362" fill="#B1BBCC" mask="url(#mask-9)"></path>
                            <path d="M24.3364614,44 C24.3326182,44 24.3295437,44 24.3257005,44 L18.5193976,43.9401173 C17.9413807,43.9344528 17.3664384,43.4570099 17.3664384,42.8776047 L17.3664384,37.0285252 C17.3664384,36.4555938 17.9060233,36 18.4771224,36 C18.4832716,36 18.4894207,36 18.4963384,36 L24.3787366,36.1051993 C24.9498357,36.1157192 25.3664384,36.5874975 25.3664384,37.1628566 L25.3664384,42.9690471 C25.3664384,43.5403601 24.9029487,44 24.3364614,44" id="Fill-363" fill="#B1BBCC" mask="url(#mask-9)"></path>
                            <path d="M34.3094575,44 C34.3056139,44 34.3025391,44 34.2986955,44 L28.5587128,43.9338235 C27.992171,43.9281046 27.3664384,43.4509804 27.3664384,42.871732 L27.3664384,37.0253268 C27.3664384,36.4526144 27.9644974,36 28.5256581,36 C28.5318078,36 28.5379575,36.000817 28.5441072,36.000817 L34.3817165,36.1086601 C34.9413399,36.1184641 35.3664384,36.5972222 35.3664384,37.1723856 L35.3664384,42.9754902 C35.3664384,43.5465686 34.8652372,44 34.3094575,44" id="Fill-364" fill="#B1BBCC" mask="url(#mask-9)"></path>
                            <path d="M45.292649,54 C45.2918803,54 45.2918803,54 45.2918803,54 L39.640074,53.9970891 C39.0851163,53.9970891 38.3664384,53.5793742 38.3664384,53.0685102 L38.3664384,47.9140243 C38.3664384,47.4060713 39.0520648,47 39.6054852,47 C39.6085598,47 39.6108657,47 39.6131716,47 L45.4256236,47.0422081 C45.9744322,47.0458468 46.3664384,47.4584676 46.3664384,47.9656929 L46.3664384,53.0830648 C46.3664384,53.5902901 45.8406889,54 45.292649,54" id="Fill-365" fill="#B1BBCC" mask="url(#mask-9)"></path>
                            <path d="M56.3138725,54 C56.3130398,54 56.3130398,54 56.3130398,54 L50.3973533,53.9983382 C49.8077832,53.9983382 49.3664384,53.5321978 49.3664384,52.9547154 L49.3664384,48 C49.3847583,48.0083091 49.4030783,48.0166182 49.4205656,48.0249273 C51.5989771,49.0195264 54.4235842,49.6634815 57.3664384,50.3531367 L57.3664384,52.9621936 C57.3664384,53.5355214 56.8959481,54 56.3138725,54" id="Fill-366" fill="#B1BBCC" mask="url(#mask-9)"></path>
                            <path d="M12.3025391,54 L12.3017703,54 L6.37114673,53.9943537 C5.78077486,53.9943537 5.36643836,53.5192579 5.36643836,52.9352692 L5.36643836,47.0445654 C5.36643836,46.4638032 5.79768655,46 6.38344614,46 C6.38652099,46 6.38959585,46 6.39190199,46 L12.2702531,46.0500101 C12.8529378,46.0548498 13.3664384,46.5307522 13.3664384,47.1099012 L13.3664384,52.9554346 C13.3664384,53.5345836 12.8852238,54 12.3025391,54" id="Fill-367" fill="#B1BBCC" mask="url(#mask-9)"></path>
                            <path d="M24.3264691,54 C24.3257005,54 24.3257005,54 24.3257005,54 L18.5193976,53.9983697 C17.9413807,53.9983697 17.3664384,53.5223151 17.3664384,52.9386591 L17.3664384,47.046668 C17.3664384,46.4662727 17.912941,46 18.4878834,46 C18.4901893,46 18.4932639,46 18.4963384,46 L24.3787366,46.0472794 C24.9498357,46.0521704 25.3664384,46.523334 25.3664384,47.1029142 L25.3664384,52.9517017 C25.3664384,53.5304667 24.8975683,54 24.3264691,54" id="Fill-368" fill="#B1BBCC" mask="url(#mask-9)"></path>
                            <path d="M34.2994642,54 C34.2986955,54 34.2986955,54 34.2986955,54 L28.5587128,53.9917704 C27.992171,53.9917704 27.3664384,53.5152762 27.3664384,52.9317971 L27.3664384,47.0426911 C27.3664384,46.4625039 27.9714158,46 28.5356514,46 C28.5387262,46 28.5418011,46 28.5441072,46 L34.3817165,46.0510236 C34.9413399,46.0551384 35.3664384,46.5324555 35.3664384,47.1118198 L35.3664384,52.9573089 C35.3664384,53.5366732 34.8590875,54 34.2994642,54" id="Fill-369" fill="#B1BBCC" mask="url(#mask-9)"></path>
                        </g>
                        <g id="Group-98" transform="translate(0.000000, 21.477143)">
                            <path d="M7.99586654,26.2339483 L7.99586654,31.8310984 C7.99586654,32.9018825 7.10792214,33.7783712 6.0249211,33.7783712 L1.96948979,33.7783712 C0.886488754,33.7783712 2.27373675e-13,32.9018825 2.27373675e-13,31.8310984 L2.27373675e-13,26.2339483 C2.27373675e-13,25.1631641 0.886488754,24.2866754 1.96948979,24.2866754 L6.0249211,24.2866754 C7.10792214,24.2866754 7.99586654,25.1631641 7.99586654,26.2339483" id="Fill-25" fill="#ED7D2B"></path>
                            <path d="M7.99586654,26.2339483 L7.99586654,29.3527511 C7.99586654,30.4235353 7.10792214,31.3000239 6.0249211,31.3000239 L1.96948979,31.3000239 C0.886488754,31.3000239 2.27373675e-13,30.4235353 2.27373675e-13,29.3527511 L2.27373675e-13,26.2339483 C2.27373675e-13,25.1631641 0.886488754,24.2866754 1.96948979,24.2866754 L6.0249211,24.2866754 C7.10792214,24.2866754 7.99586654,25.1631641 7.99586654,26.2339483" id="Fill-26" fill="#F99746"></path>
                            <path d="M52.9316758,29.0318037 C52.9316758,31.8958635 52.3392276,34.6289538 51.2693274,37.1173756 C48.0596267,44.5855196 40.5572244,49.8574046 31.8684701,49.8574046 L25.8479159,49.8574046 C18.1606465,49.8574046 11.4006238,45.7297043 7.72220499,39.6072367 C5.85897739,36.5028261 4.78616588,32.886051 4.78616588,29.0318037 C4.78616588,26.1691831 5.37861403,23.4360928 6.44851425,20.9462318 C9.65675926,13.479527 17.1591616,8.20764201 25.8479159,8.20764201 L31.8684701,8.20764201 C39.7697196,8.20764201 46.691319,12.5670577 50.2925886,18.9730528 C51.9724047,21.9594469 52.9316758,25.3905618 52.9316758,29.0318037" id="Fill-27" fill="#FE8B29"></path>
                            <path d="M35.4333485,41.016239 L33.4682257,53.6296161 C33.2076649,54.6054113 33.952956,55.5624967 34.9748198,55.5624967 L40.1379982,55.5624967 C41.2442896,55.5624967 42.2588752,54.9508256 42.7654402,53.9779088 L50.7904197,38.1536184 L35.4333485,41.016239" id="Fill-28" fill="#FE8B29"></path>
                            <path d="M23.6775469,41.2321229 L25.2540121,53.6296161 C25.5145729,54.6054113 24.7692818,55.5624967 23.7474179,55.5624967 L18.5842396,55.5624967 C17.4764926,55.5624967 16.4633626,54.9508256 15.9567976,53.9779088 L7.72220499,39.6072367 L23.6775469,41.2321229" id="Fill-29" fill="#FE8B29"></path>
                            <path d="M50.2925886,18.9730528 C50.7918753,21.3751211 50.3988508,24.8076752 49.7598219,26.6254177 C45.509334,38.7120381 35.5192317,40.895344 25.3064154,41.8135702 C18.0441947,42.4669788 7.72220499,39.6072367 7.72220499,39.6072367 C5.85897739,36.5028261 4.78616588,32.886051 4.78616588,29.0318037 C4.78616588,26.1691831 5.37861403,23.4360928 6.44851425,20.9462318 C9.65675926,13.479527 17.1591616,8.20764201 25.8479159,8.20764201 L31.8684701,8.20764201 C39.7697196,8.20764201 46.691319,12.5670577 50.2925886,18.9730528" id="Fill-31" fill="#F58220"></path>
                            <path d="M57.2005986,22.4061659 C56.9592886,22.5813722 56.7426327,22.7852889 56.553619,23.0149712 C56.0904234,23.5773983 55.8065294,24.279696 55.7744045,24.9415049 C55.7497505,25.4663878 55.9021568,25.8779019 56.1464551,25.9412117 C56.3937418,26.0052577 56.7486094,25.6784022 57.0093436,25.1461577 C57.295479,24.563118 57.4329435,23.8299015 57.3754176,23.1842882 C57.3552461,22.9523975 57.3059382,22.6814902 57.2005986,22.4061659 Z M56.2159345,26.3865892 C56.1554202,26.3865892 56.0941589,26.3792276 56.0336446,26.3637682 C55.5637252,26.2415655 55.294773,25.6887084 55.3321274,24.9208924 C55.3679877,24.1677995 55.6884892,23.3727455 56.2092107,22.7396469 C56.4400614,22.4599056 56.7067723,22.214764 57.004114,22.0071665 C56.8636612,21.7789566 56.6746475,21.5603167 56.4198899,21.3718595 C55.986578,21.0523655 55.5390713,20.9596092 55.0519688,21.0899097 C53.7415736,21.4410586 52.6313985,23.2858785 52.5417477,23.4934759 C52.5006578,23.6039001 52.377388,23.6635291 52.2630833,23.6259849 C52.1472844,23.5877045 52.0845288,23.4640295 52.1233775,23.3499245 C52.1622262,23.2343472 52.4864631,22.6836986 52.9391994,22.1382032 C53.728126,21.1878192 54.4154485,20.8278364 54.853243,20.6931189 C55.5017168,20.4928831 56.1188128,20.6040434 56.6858538,21.0229191 C56.9667595,21.2305165 57.1991044,21.4830198 57.3799001,21.7738035 C57.828901,21.5271895 58.3354277,21.3556639 58.8860328,21.2665884 C59.0070613,21.2474482 59.121366,21.3276898 59.1407903,21.4469479 C59.1609618,21.566206 59.0787819,21.6781025 58.9577534,21.6979789 C58.4527208,21.7796927 57.9895252,21.9372312 57.5808672,22.1639689 C57.7063783,22.4621141 57.7855698,22.7919143 57.8169475,23.146744 C57.8811972,23.877752 57.7325264,24.6757507 57.4082895,25.3360873 C57.078823,26.0089385 56.6432697,26.3865892 56.2159345,26.3865892 L56.2159345,26.3865892 Z" id="Fill-30" fill="#ED7D2B"></path>
                            <path d="M23.3645829,13.4248364 L15.0804983,13.4248364 C14.2449572,13.4248364 13.5680816,12.9239858 13.5680816,12.3051186 L13.5680816,1.12233218 C13.5680816,0.930915114 13.6292187,0.756768763 13.7340253,0.607089254 C14.138695,0.0256419304 15.2027726,-0.21470882 15.9961,0.230012029 C19.1402966,1.99162471 24.2932854,5.82284445 24.8740884,12.2288396 C24.9323142,12.8764913 24.2394265,13.4248364 23.3645829,13.4248364" id="Fill-32" fill="#F99746"></path>
                            <path d="M15.4167527,13.4248364 L15.0804983,13.4248364 C14.2449572,13.4248364 13.5680816,12.9239858 13.5680816,12.3051186 L13.5680816,1.12233218 C13.5680816,0.930915114 13.6292187,0.756768763 13.7340253,0.607089254 C13.7689608,0.637313001 13.8038963,0.6704152 13.8359205,0.704956625 C15.6350997,2.68677089 18.2290618,6.5769989 17.4983273,12.0287872 C17.3920651,12.8203615 16.4924755,13.4248364 15.4167527,13.4248364" id="Fill-33" fill="#ED7D2B"></path>
                            <path d="M11.0512687,20.9016157 C11.0512687,20.2266187 11.6029587,19.6811521 12.2856569,19.6811521 C12.9668995,19.6811521 13.5200452,20.2266187 13.5200452,20.9016157 C13.5200452,21.5751735 12.9668995,22.1220794 12.2856569,22.1220794 C11.6029587,22.1220794 11.0512687,21.5751735 11.0512687,20.9016157" id="Fill-34" fill="#FFFFFF"></path>
                        </g>
                    </g>
                    <g id="Group-7-Copy-7" transform="translate(80.500000, 57.000000) scale(-1, 1) translate(-80.500000, -57.000000) translate(68.000000, 37.000000)">
                        <polygon id="Fill-66" fill="#425B74" points="12 40 12 29.0222082 12 10 11 10 11 39.744112"></polygon>
                        <path d="M3,9.00005509 C3,4.02947747 7.02945281,0 12,0 C16.9706574,0 21,4.02947747 21,9.00005509 C21,13.9706327 16.9706574,18 12,18 C7.02945281,18 3,13.9706327 3,9.00005509" id="Fill-67" fill="#EFC60A"></path>
                        <path d="M5,9.00005596 C5,5.134031 8.13394413,2 12,2 C15.8659439,2 19,5.134031 19,9.00005596 C19,12.8660809 15.8659439,16 12,16 C8.13394413,16 5,12.8660809 5,9.00005596" id="Fill-68" fill="#E89E34"></path>
                        <path d="M0,21 L0,21 C0.312070419,27.899546 4.56335038,32.3721088 10.9756043,31.9756176 C11.3722099,25.5634207 6.89960738,21.3121786 0,21" id="Fill-71" fill="#003974"></path>
                        <path d="M25,18 L25,18 C24.6310834,25.5268151 19.5780445,30.4059533 12,29.9733987 L12.0288798,29.9733987 C11.5602813,22.9782474 16.8459892,18.34054 25,18" id="Fill-72" fill="#003974"></path>
                        <path d="M13.4065059,30 C13.4065059,30 18.8754149,23.4763688 21,22 C21,22 15.8938925,25.3461188 13,29.3937861 L13,29.9836049 L13.4065059,30 Z" id="Fill-74" fill="#425B74"></path>
                        <path d="M3.40650586,32 C3.40650586,32 8.87541491,25.4763688 11,24 C11,24 5.89389245,27.3461188 3,31.3937861 L3,31.9836049 L3.40650586,32 Z" id="Fill-74" fill="#425B74" transform="translate(7.000000, 28.000000) scale(-1, 1) translate(-7.000000, -28.000000) "></path>
                        <path d="M14.3864117,7.66341374 C14.7247718,7.66341374 15,7.88893678 15,8.16619045 C15,8.44344412 14.7247718,8.66896732 14.3864117,8.66896732 L13.5687007,8.66896732 C13.3032804,9.59311058 12.3234892,10.2849064 11.1488637,10.3464078 L13.4528114,12.1321867 C13.6934619,12.324447 13.7045991,12.6377654 13.4722715,12.8431291 C13.239245,13.0441215 12.8515574,13.0534648 12.6062797,12.8625314 L9.18583009,10.211531 C9.07095721,10.1174039 9.00225549,9.98910478 9.00231738,9.85930798 C8.99622712,9.57984543 9.26879961,9.35033705 9.615844,9.34530965 L10.979521,9.34531074 C11.547218,9.34416772 12.0454036,9.07106054 12.2764086,8.66896732 L9.61358832,8.66896732 C9.27522815,8.66896732 9,8.44344412 9,8.16619045 C9,7.88893678 9.27522815,7.66341374 9.61358832,7.66341374 L12.2712282,7.66341374 C12.0379315,7.27463482 11.5424466,7.00555358 10.9804744,7.00555358 L9.61358832,7.00555358 C9.27522815,7.00555358 9,6.78003053 9,6.50277671 C9,6.22552304 9.27522815,6 9.61358832,6 L14.3864117,6 C14.7247718,6 15,6.22552304 15,6.50277671 C15,6.78003053 14.7247718,7.00555358 14.3864117,7.00555358 L13.2225482,7.00555358 C13.3793637,7.20677822 13.4965097,7.42968996 13.5661845,7.66341374 L14.3864117,7.66341374 Z" id="Path-Copy" fill="#F8F9FB" fill-rule="nonzero" opacity="0.7" transform="translate(12.000000, 9.500000) scale(-1, 1) translate(-12.000000, -9.500000) "></path>
                    </g>
                </g>
            </g>
        </g>
    </g>
</svg>