<svg width="19" height="20" viewBox="0 0 19 20" fill="none" xmlns="http://www.w3.org/2000/svg">
<g clip-path="url(#clip0)">
<path fill-rule="evenodd" clip-rule="evenodd" d="M6.44071 9.15254H7.79665C9.52894 9.15254 10.9338 7.74924 10.9356 6.01695V2.0339C10.9356 0.910607 10.025 0 8.90173 0H5.32885C4.20556 0 3.29495 0.910607 3.29495 2.0339V6C3.29134 6.83603 3.62139 7.63897 4.21192 8.23077C4.80245 8.82258 5.60467 9.15436 6.44071 9.15254ZM5.32885 0.677966H8.08817C8.13135 1.2639 7.94266 1.84336 7.56275 2.29153C7.09884 2.81985 6.491 3.20152 5.8136 3.38983C5.21337 3.55733 4.59561 3.65403 3.97292 3.67797V2.0339C3.97292 1.28504 4.57999 0.677966 5.32885 0.677966ZM6.00682 4.0339C5.34392 4.22053 4.66113 4.3275 3.97292 4.35254L3.9797 6.01695C3.98157 7.37481 5.08285 8.47458 6.44071 8.47458H7.79665C8.45229 8.47549 9.0812 8.21474 9.54385 7.75018C10.0065 7.28561 10.2647 6.65564 10.2611 6V2.0339C10.2611 1.28504 9.65398 0.677966 8.90512 0.677966H8.76614C8.80704 1.41748 8.5646 2.14479 8.08817 2.71186C7.54051 3.34881 6.81615 3.80891 6.00682 4.0339Z" fill="#F78200"/>
<path d="M7.79665 9.15254L7.79665 8.90254H7.79665V9.15254ZM6.44071 9.15254L6.44071 8.90254L6.44017 8.90254L6.44071 9.15254ZM10.9356 6.01695L11.1856 6.01722V6.01695H10.9356ZM3.29495 6L3.54495 6.00108V6H3.29495ZM8.08817 0.677966L8.3375 0.659594L8.32043 0.427966H8.08817V0.677966ZM7.56275 2.29153L7.75063 2.4565L7.75345 2.45318L7.56275 2.29153ZM5.8136 3.38983L5.74664 3.14896L5.7464 3.14903L5.8136 3.38983ZM3.97292 3.67797H3.72292V3.93776L3.98252 3.92778L3.97292 3.67797ZM3.97292 4.35254L3.96383 4.10271L3.72193 4.11151L3.72292 4.35356L3.97292 4.35254ZM6.00682 4.0339L5.93986 3.79303L5.93906 3.79325L6.00682 4.0339ZM3.9797 6.01695L4.2297 6.0166L4.22969 6.01593L3.9797 6.01695ZM6.44071 8.47458L6.44071 8.22458L6.44071 8.22458L6.44071 8.47458ZM7.79665 8.47458L7.79699 8.22458H7.79665V8.47458ZM9.54385 7.75018L9.721 7.92659L9.721 7.92659L9.54385 7.75018ZM10.2611 6L10.011 6L10.0111 6.00138L10.2611 6ZM8.76614 0.677966V0.427966H8.50193L8.51652 0.691772L8.76614 0.677966ZM8.08817 2.71186L8.27775 2.87487L8.27958 2.87268L8.08817 2.71186ZM7.79665 8.90254H6.44071V9.40254H7.79665V8.90254ZM10.6856 6.01668C10.6839 7.611 9.39097 8.90254 7.79665 8.90254L7.79665 9.40254C9.6669 9.40254 11.1836 7.88747 11.1856 6.01722L10.6856 6.01668ZM10.6856 2.0339V6.01695H11.1856V2.0339H10.6856ZM8.90173 0.25C9.88695 0.25 10.6856 1.04868 10.6856 2.0339H11.1856C11.1856 0.772536 10.1631 -0.25 8.90173 -0.25V0.25ZM5.32885 0.25H8.90173V-0.25H5.32885V0.25ZM3.54495 2.0339C3.54495 1.04868 4.34363 0.25 5.32885 0.25V-0.25C4.06749 -0.25 3.04495 0.772536 3.04495 2.0339H3.54495ZM3.54495 6V2.0339H3.04495V6H3.54495ZM4.38889 8.05419C3.84539 7.50951 3.54162 6.77053 3.54495 6.00108L3.04495 5.99892C3.04105 6.90154 3.39739 7.76842 4.03495 8.40736L4.38889 8.05419ZM6.44017 8.90254C5.67072 8.90421 4.93239 8.59886 4.38889 8.05419L4.03495 8.40736C4.67252 9.0463 5.53863 9.4045 6.44126 9.40254L6.44017 8.90254ZM8.08817 0.427966H5.32885V0.927966H8.08817V0.427966ZM7.75345 2.45318C8.17575 1.95501 8.38549 1.31091 8.3375 0.659594L7.83885 0.696339C7.87721 1.2169 7.70957 1.7317 7.37205 2.12987L7.75345 2.45318ZM5.88055 3.6307C6.60478 3.42937 7.25463 3.02132 7.75061 2.45648L7.37489 2.12657C6.94305 2.61838 6.37722 2.97367 5.74664 3.14896L5.88055 3.6307ZM3.98252 3.92778C4.6247 3.9031 5.26179 3.80337 5.88079 3.63063L5.7464 3.14903C5.16496 3.31129 4.56653 3.40496 3.96331 3.42815L3.98252 3.92778ZM3.72292 2.0339V3.67797H4.22292V2.0339H3.72292ZM5.32885 0.427966C4.44192 0.427966 3.72292 1.14697 3.72292 2.0339H4.22292C4.22292 1.42311 4.71806 0.927966 5.32885 0.927966V0.427966ZM3.98201 4.60238C4.69007 4.57662 5.39255 4.46656 6.07457 4.27454L5.93906 3.79325C5.29528 3.97451 4.6322 4.07839 3.96383 4.10271L3.98201 4.60238ZM4.22969 6.01593L4.22292 4.35152L3.72292 4.35356L3.7297 6.01797L4.22969 6.01593ZM6.44071 8.22458C5.22079 8.22458 4.23138 7.23653 4.2297 6.0166L3.7297 6.01729C3.73176 7.51309 4.94492 8.72458 6.44071 8.72458L6.44071 8.22458ZM7.79665 8.22458H6.44071V8.72458H7.79665V8.22458ZM9.36671 7.57376C8.95106 7.99114 8.38604 8.2254 7.79699 8.22458L7.7963 8.72458C8.51855 8.72558 9.21134 8.43835 9.721 7.92659L9.36671 7.57376ZM10.0111 6.00138C10.0143 6.59041 9.78237 7.15639 9.36671 7.57376L9.721 7.92659C10.2306 7.41483 10.515 6.72086 10.511 5.99862L10.0111 6.00138ZM10.0111 2.0339V6H10.5111V2.0339H10.0111ZM8.90512 0.927966C9.51591 0.927966 10.0111 1.42311 10.0111 2.0339H10.5111C10.5111 1.14697 9.79205 0.427966 8.90512 0.427966V0.927966ZM8.76614 0.927966H8.90512V0.427966H8.76614V0.927966ZM8.27958 2.87268C8.79692 2.25692 9.06017 1.46717 9.01576 0.66416L8.51652 0.691772C8.55391 1.3678 8.33229 2.03266 7.89676 2.55105L8.27958 2.87268ZM6.07377 4.27476C6.93078 4.03652 7.69781 3.54932 8.27773 2.87486L7.89861 2.54887C7.38321 3.1483 6.70151 3.5813 5.93986 3.79303L6.07377 4.27476Z" fill="#F78200"/>
<path fill-rule="evenodd" clip-rule="evenodd" d="M10.9796 18.722C9.67688 18.9038 8.36271 18.991 7.0474 18.9831C5.6784 18.993 4.31062 18.899 2.95587 18.7017V15.9322C2.95587 15.745 2.80411 15.5932 2.61689 15.5932C2.42968 15.5932 2.27791 15.745 2.27791 15.9322V18.5661C1.41689 18.3864 0.921976 18.1864 0.8474 18.0441V14.261C0.849612 12.432 2.27582 10.9211 4.10164 10.8136L6.74231 16.0983C6.8003 16.2134 6.91853 16.2856 7.0474 16.2847C7.17505 16.2844 7.29165 16.2123 7.34909 16.0983L9.99316 10.8102C10.685 10.8498 11.3484 11.0993 11.8949 11.5254C11.9897 11.6085 12.1229 11.632 12.2405 11.5866C12.3581 11.5411 12.4407 11.434 12.455 11.3087C12.4692 11.1835 12.4128 11.0606 12.3084 10.9898C11.6 10.437 10.729 10.1332 9.83045 10.1254H4.27452C2.00396 10.1459 0.173058 11.9904 0.169434 14.261V18.0576C0.169434 19.617 6.34231 19.661 7.0474 19.661C8.39676 19.6702 9.74499 19.5807 11.0813 19.3932C11.2024 19.3751 11.3046 19.2937 11.3494 19.1797C11.3943 19.0657 11.3749 18.9365 11.2986 18.8407C11.2223 18.7449 11.1007 18.6971 10.9796 18.7153V18.722ZM8.01689 12.1153C7.99942 11.9414 7.85265 11.8093 7.67791 11.8102H6.4135C6.23876 11.8093 6.09199 11.9414 6.07452 12.1153L5.9796 13.061L4.85079 10.8034H9.24062L8.11181 13.061L8.01689 12.1153ZM6.54909 14.1966L7.0474 15.1898L7.54232 14.1966L7.37282 12.5017H6.72198L6.54909 14.1966Z" fill="#F78200"/>
<path d="M7.0474 18.9831L7.04891 18.733L7.04558 18.7331L7.0474 18.9831ZM10.9796 18.722L11.0141 18.9696L11.2296 18.9396V18.722H10.9796ZM2.95587 18.7017H2.70587V18.9179L2.91985 18.9491L2.95587 18.7017ZM2.27791 18.5661L2.22684 18.8108L2.52791 18.8737V18.5661H2.27791ZM0.8474 18.0441H0.5974V18.1056L0.625942 18.1601L0.8474 18.0441ZM0.8474 14.261L0.5974 14.2607V14.261H0.8474ZM4.10164 10.8136L4.32527 10.7018L4.25156 10.5543L4.08693 10.564L4.10164 10.8136ZM6.74231 16.0983L6.51868 16.2101L6.51905 16.2108L6.74231 16.0983ZM7.0474 16.2847L7.04664 16.0347L7.04566 16.0348L7.0474 16.2847ZM7.34909 16.0983L7.57235 16.2108L7.5727 16.2101L7.34909 16.0983ZM9.99316 10.8102L10.0075 10.5606L9.84316 10.5512L9.76956 10.6984L9.99316 10.8102ZM11.8949 11.5254L12.0596 11.3373L12.0542 11.3327L12.0486 11.3283L11.8949 11.5254ZM12.3084 10.9898L12.1546 11.1869L12.1612 11.1921L12.1681 11.1968L12.3084 10.9898ZM9.83045 10.1254L9.8326 9.87543H9.83045V10.1254ZM4.27452 10.1254L4.27452 9.87542L4.27227 9.87544L4.27452 10.1254ZM0.169434 14.261L-0.0805664 14.2606V14.261H0.169434ZM7.0474 19.661L7.04911 19.411H7.0474V19.661ZM11.0813 19.3932L11.116 19.6408L11.1184 19.6405L11.0813 19.3932ZM10.9796 18.7153L10.9425 18.468L10.7296 18.5V18.7153H10.9796ZM7.67791 11.8102L7.67791 12.0602L7.67916 12.0602L7.67791 11.8102ZM8.01689 12.1153L8.26564 12.0903L8.26564 12.0903L8.01689 12.1153ZM6.4135 11.8102L6.41225 12.0602H6.4135V11.8102ZM6.07452 12.1153L5.82577 12.0903L5.82577 12.0903L6.07452 12.1153ZM5.9796 13.061L5.756 13.1728L6.14213 13.9451L6.22835 13.086L5.9796 13.061ZM4.85079 10.8034V10.5534H4.44628L4.62718 10.9152L4.85079 10.8034ZM9.24062 10.8034L9.46423 10.9152L9.64513 10.5534H9.24062V10.8034ZM8.11181 13.061L7.86306 13.086L7.94928 13.9451L8.33541 13.1728L8.11181 13.061ZM7.0474 15.1898L6.82395 15.3019L7.04816 15.7489L7.27116 15.3013L7.0474 15.1898ZM6.54909 14.1966L6.30039 14.1712L6.293 14.2437L6.32564 14.3087L6.54909 14.1966ZM7.54232 14.1966L7.76607 14.3081L7.79825 14.2435L7.79107 14.1717L7.54232 14.1966ZM7.37282 12.5017L7.62158 12.4768L7.59907 12.2517H7.37282V12.5017ZM6.72198 12.5017V12.2517H6.49618L6.47327 12.4763L6.72198 12.5017ZM7.04588 19.233C8.37326 19.2411 9.69948 19.1531 11.0141 18.9696L10.9451 18.4744C9.65428 18.6545 8.35217 18.741 7.04891 18.7331L7.04588 19.233ZM2.91985 18.9491C4.28713 19.1482 5.66756 19.2431 7.04922 19.233L7.04558 18.7331C5.68924 18.7429 4.33412 18.6498 2.9919 18.4543L2.91985 18.9491ZM2.70587 15.9322V18.7017H3.20587V15.9322H2.70587ZM2.61689 15.8432C2.66604 15.8432 2.70587 15.8831 2.70587 15.9322H3.20587C3.20587 15.6069 2.94218 15.3432 2.61689 15.3432V15.8432ZM2.52791 15.9322C2.52791 15.8831 2.56775 15.8432 2.61689 15.8432V15.3432C2.2916 15.3432 2.02791 15.6069 2.02791 15.9322H2.52791ZM2.52791 18.5661V15.9322H2.02791V18.5661H2.52791ZM0.625942 18.1601C0.678878 18.2611 0.776782 18.33 0.854083 18.3757C0.941583 18.4274 1.05207 18.4772 1.17996 18.5252C1.43673 18.6215 1.78909 18.7195 2.22684 18.8108L2.32897 18.3214C1.90571 18.2331 1.58011 18.1412 1.35552 18.057C1.24273 18.0147 1.16169 17.9767 1.10851 17.9452C1.04514 17.9078 1.05321 17.8982 1.06886 17.9281L0.625942 18.1601ZM0.5974 14.261V18.0441H1.0974V14.261H0.5974ZM4.08693 10.564C2.1291 10.6794 0.599772 12.2995 0.5974 14.2607L1.0974 14.2613C1.09945 12.5646 2.42254 11.1629 4.11634 11.0631L4.08693 10.564ZM6.96595 15.9866L4.32527 10.7018L3.878 10.9253L6.51868 16.2101L6.96595 15.9866ZM7.04566 16.0348C7.01183 16.035 6.9808 16.016 6.96558 15.9858L6.51905 16.2108C6.61981 16.4108 6.82523 16.5363 7.04914 16.5347L7.04566 16.0348ZM7.12584 15.9858C7.11076 16.0157 7.08015 16.0346 7.04664 16.0348L7.04816 16.5347C7.26994 16.5341 7.47255 16.4089 7.57235 16.2108L7.12584 15.9858ZM9.76956 10.6984L7.12549 15.9865L7.5727 16.2101L10.2168 10.922L9.76956 10.6984ZM12.0486 11.3283C11.462 10.8709 10.75 10.6031 10.0075 10.5606L9.97886 11.0598C10.62 11.0965 11.2347 11.3277 11.7411 11.7226L12.0486 11.3283ZM12.1503 11.3534C12.1194 11.3653 12.0845 11.3592 12.0596 11.3373L11.7302 11.7135C11.895 11.8579 12.1263 11.8988 12.3307 11.8197L12.1503 11.3534ZM12.2066 11.2805C12.2028 11.3134 12.1812 11.3414 12.1503 11.3534L12.3307 11.8197C12.535 11.7407 12.6786 11.5547 12.7034 11.337L12.2066 11.2805ZM12.1681 11.1968C12.1955 11.2153 12.2103 11.2476 12.2066 11.2805L12.7034 11.337C12.7282 11.1193 12.6301 10.9059 12.4487 10.7829L12.1681 11.1968ZM9.8283 10.3754C10.6719 10.3827 11.4895 10.6679 12.1546 11.1869L12.4622 10.7927C11.7104 10.2061 10.7862 9.88363 9.8326 9.87544L9.8283 10.3754ZM4.27452 10.3754H9.83045V9.87543H4.27452V10.3754ZM0.419433 14.2614C0.422839 12.1278 2.14325 10.3946 4.27677 10.3754L4.27227 9.87544C1.86468 9.89711 -0.076723 11.8529 -0.0805661 14.2606L0.419433 14.2614ZM0.419434 18.0576V14.261H-0.0805664V18.0576H0.419434ZM7.0474 19.411C6.69724 19.411 4.99055 19.3999 3.37532 19.196C2.56523 19.0938 1.79512 18.945 1.23353 18.7322C0.951987 18.6256 0.739657 18.5089 0.601636 18.3869C0.46693 18.2678 0.419434 18.1597 0.419434 18.0576H-0.0805664C-0.0805664 18.3454 0.06484 18.5797 0.270467 18.7615C0.47278 18.9404 0.748215 19.083 1.0564 19.1998C1.67426 19.4339 2.49144 19.5884 3.3127 19.6921C4.96019 19.9001 6.69247 19.911 7.0474 19.911V19.411ZM11.0466 19.1456C9.72233 19.3315 8.38628 19.4202 7.04911 19.411L7.04569 19.911C8.40725 19.9203 9.76766 19.83 11.116 19.6408L11.0466 19.1456ZM11.1168 19.0882C11.1047 19.119 11.077 19.1411 11.0442 19.146L11.1184 19.6405C11.3278 19.609 11.5046 19.4683 11.5821 19.2712L11.1168 19.0882ZM11.103 18.9964C11.1237 19.0224 11.1289 19.0574 11.1168 19.0882L11.5821 19.2712C11.6596 19.0741 11.6261 18.8506 11.4942 18.685L11.103 18.9964ZM11.0167 18.9625C11.0495 18.9576 11.0824 18.9705 11.103 18.9964L11.4942 18.685C11.3622 18.5193 11.152 18.4366 10.9425 18.468L11.0167 18.9625ZM11.2296 18.722V18.7153H10.7296V18.722H11.2296ZM7.67916 12.0602C7.72503 12.0599 7.76356 12.0946 7.76814 12.1403L8.26564 12.0903C8.23528 11.7882 7.98026 11.5587 7.67666 11.5602L7.67916 12.0602ZM6.4135 12.0602H7.67791V11.5602H6.4135V12.0602ZM6.32327 12.1403C6.32785 12.0946 6.36638 12.0599 6.41225 12.0602L6.41475 11.5602C6.11115 11.5587 5.85613 11.7882 5.82577 12.0903L6.32327 12.1403ZM6.22835 13.086L6.32327 12.1402L5.82577 12.0903L5.73085 13.0361L6.22835 13.086ZM4.62718 10.9152L5.756 13.1728L6.20321 12.9492L5.0744 10.6916L4.62718 10.9152ZM9.24062 10.5534H4.85079V11.0534H9.24062V10.5534ZM8.33541 13.1728L9.46423 10.9152L9.01701 10.6916L7.8882 12.9492L8.33541 13.1728ZM7.76814 12.1402L7.86306 13.086L8.36056 13.0361L8.26564 12.0903L7.76814 12.1402ZM7.27085 15.0777L6.77255 14.0845L6.32564 14.3087L6.82395 15.3019L7.27085 15.0777ZM7.31856 14.0851L6.82364 15.0783L7.27116 15.3013L7.76607 14.3081L7.31856 14.0851ZM7.12406 12.5266L7.29356 14.2215L7.79107 14.1717L7.62158 12.4768L7.12406 12.5266ZM6.72198 12.7517H7.37282V12.2517H6.72198V12.7517ZM6.7978 14.222L6.97069 12.5271L6.47327 12.4763L6.30039 14.1712L6.7978 14.222Z" fill="#F78200"/>
<path fill-rule="evenodd" clip-rule="evenodd" d="M10.6777 15.5932C10.6777 13.3466 12.4989 11.5254 14.7455 11.5254C16.9921 11.5254 18.8133 13.3466 18.8133 15.5932C18.8133 17.8398 16.9921 19.661 14.7455 19.661C12.4989 19.661 10.6777 17.8398 10.6777 15.5932ZM11.3557 15.5932C11.3557 17.4654 12.8734 18.983 14.7455 18.983C16.6177 18.983 18.1354 17.4654 18.1354 15.5932C18.1354 13.7211 16.6177 12.2034 14.7455 12.2034C12.8734 12.2034 11.3557 13.7211 11.3557 15.5932Z" fill="#F78200"/>
<path d="M14.7455 11.2754C12.3609 11.2754 10.4277 13.2086 10.4277 15.5932H10.9277C10.9277 13.4847 12.637 11.7754 14.7455 11.7754V11.2754ZM19.0633 15.5932C19.0633 13.2086 17.1302 11.2754 14.7455 11.2754V11.7754C16.854 11.7754 18.5633 13.4847 18.5633 15.5932H19.0633ZM14.7455 19.911C17.1302 19.911 19.0633 17.9779 19.0633 15.5932H18.5633C18.5633 17.7017 16.854 19.411 14.7455 19.411V19.911ZM10.4277 15.5932C10.4277 17.9779 12.3609 19.911 14.7455 19.911V19.411C12.637 19.411 10.9277 17.7017 10.9277 15.5932H10.4277ZM14.7455 18.733C13.0115 18.733 11.6057 17.3273 11.6057 15.5932H11.1057C11.1057 17.6034 12.7353 19.233 14.7455 19.233V18.733ZM17.8854 15.5932C17.8854 17.3273 16.4796 18.733 14.7455 18.733V19.233C16.7558 19.233 18.3854 17.6034 18.3854 15.5932H17.8854ZM14.7455 12.4534C16.4796 12.4534 17.8854 13.8591 17.8854 15.5932H18.3854C18.3854 13.583 16.7558 11.9534 14.7455 11.9534V12.4534ZM11.6057 15.5932C11.6057 13.8591 13.0115 12.4534 14.7455 12.4534V11.9534C12.7353 11.9534 11.1057 13.583 11.1057 15.5932H11.6057Z" fill="#F78200"/>
<path d="M15.8945 14.3174H15.2822C15.3721 14.458 15.4307 14.6211 15.458 14.8066H16.0469L15.8916 15.3867H15.4551C15.4102 15.6777 15.2939 15.9092 15.1064 16.0811C14.9189 16.2529 14.6494 16.373 14.2979 16.4414L15.5781 17.959V18H14.6084L13.1904 16.3389L13.1875 15.8232H13.8818C14.2432 15.8232 14.4697 15.6777 14.5615 15.3867H13.1172L13.2695 14.8066H14.5439C14.4482 14.5703 14.2383 14.4502 13.9141 14.4463H13.1172L13.29 13.7344H16.0469L15.8945 14.3174Z" fill="#F78200"/>
</g>
<defs>
<clipPath id="clip0">
<rect width="19" height="20" fill="white"/>
</clipPath>
</defs>
</svg>
