<?xml version="1.0" encoding="UTF-8"?>
<svg width="371px" height="223px" viewBox="0 0 371 223" version="1.1" xmlns="http://www.w3.org/2000/svg" xmlns:xlink="http://www.w3.org/1999/xlink">
    <!-- Generator: Sketch 53.2 (72643) - https://sketchapp.com -->
    <title>Group 21</title>
    <desc>Created with Sketch.</desc>
    <defs>
        <linearGradient x1="52.4977467%" y1="32.5775023%" x2="50%" y2="67.4224977%" id="linearGradient-1">
            <stop stop-color="#FBFBFB" offset="0%"></stop>
            <stop stop-color="#F9FAFB" offset="100%"></stop>
        </linearGradient>
    </defs>
    <g id="Page-1" stroke="none" stroke-width="1" fill="none" fill-rule="evenodd">
        <g id="05a-no-SIP" transform="translate(-629.000000, -550.000000)">
            <g id="Group-21" transform="translate(629.000000, 543.000000)">
                <g id="Group-19">
                    <path d="M29.1463608,226 C29.1463608,226 -19.4996398,176.186118 8.90062002,128.645293 C37.301019,81.1032164 79.4499572,114.417684 77.6040711,59.0836417 C75.758185,3.74946003 165.328053,-1.00448336 193.83881,15.0400408 C222.348176,31.0847041 222.177003,50.4086062 281.034104,44.0151129 C339.891206,37.6214806 351.135747,90.9186753 335.82341,118.081423 C314.096952,156.621695 406.77396,150.264371 355.09082,226 L29.1463608,226" id="Fill-3" fill="url(#linearGradient-1)"></path>
                    <g id="Group-102" style="mix-blend-mode: luminosity;" transform="translate(47.000000, 0.000000)">
                        <g id="Group-100" opacity="0.781598772" transform="translate(114.264495, 114.903361) scale(-1, 1) rotate(-40.000000) translate(-114.264495, -114.903361) translate(35.407352, 31.117647)">
                            <polyline id="Fill-5" fill="#CFE7FF" points="38.6052101 167.454882 18.8020168 104.610185 102.583866 78.2096639 102.585798 78.2096639 137.885966 67.085395 157.68916 129.927773 38.6052101 167.454882"></polyline>
                            <path d="M31.1988235,115.010824 L42.7935294,151.805218 C43.5801681,154.302361 46.2415966,155.68816 48.7406723,154.901521 L143.676555,124.986059 C146.218151,124.184924 147.631008,121.474403 146.828908,118.93184 L135.280588,82.284916 C134.486218,79.7638067 131.797731,78.3638992 129.277395,79.1584622 L34.2796639,109.093639 C31.7941176,109.876605 30.4160504,112.525857 31.1988235,115.010824 Z M43.1994118,158.281941 L27.8261345,109.493336 L134.861176,75.7647059 L150.234454,124.553504 L43.1994118,158.281941 L43.1994118,158.281941 Z" id="Fill-6" fill="#C0D8FB"></path>
                            <path d="M84.8931933,103.896025 C92.1430252,101.611681 99.8721849,105.636681 102.156723,112.886126 C104.441261,120.135571 100.415294,127.864345 93.1654622,130.148689 C85.9156303,132.433034 78.1884034,128.408227 75.9038655,121.158782 C73.6193277,113.909336 77.6433613,106.180563 84.8931933,103.896025" id="Fill-7" fill="#C0D8FB"></path>
                            <polyline id="Fill-8" fill="#DCEAFF" points="48.4082353 136.430008 1.25055521e-12 91.7286387 59.5951261 27.1927647 59.5951261 27.1921849 84.7057143 -1.06865627e-11 133.112017 44.7000168 48.4082353 136.430008"></polyline>
                            <path d="M15.9260504,94.5961008 L44.2682353,120.767782 C46.1913445,122.544387 49.1910084,122.424941 50.9672269,120.501059 L118.496387,47.373042 C120.305462,45.414563 120.183697,42.3607815 118.223866,40.552479 L89.9957143,14.4851681 C88.0532773,12.6919412 85.0246218,12.8125462 83.2329412,14.7544034 L15.6593277,87.9297731 C13.8927731,89.8439916 14.0106723,92.8285798 15.9260504,94.5961008 Z M47.8380672,126.187084 L10.2572269,91.4833697 L86.3910924,9.03552101 L123.973866,43.7392353 L47.8380672,126.187084 L47.8380672,126.187084 Z" id="Fill-9" fill="#C0D8FB"></path>
                            <path d="M57.0032773,58.2738824 C62.159916,52.689521 70.8670588,52.3429748 76.4508403,57.4996134 C82.0346218,62.6560588 82.382521,71.3632017 77.2258824,76.9473697 C72.0692437,82.5315378 63.3621008,82.878084 57.7783193,77.7216387 C52.192605,72.565 51.8466387,63.8580504 57.0032773,58.2738824" id="Fill-10" fill="#C0D8FB"></path>
                        </g>
                        <g id="Group-95" transform="translate(38.268908, 116.770882)">
                            <path d="M15.5008403,48.520848 L15.5008403,58.8689153 C15.5008403,60.8500077 13.782605,62.4716043 11.6816807,62.4716043 L3.81915966,62.4716043 C1.72016807,62.4716043 3.41060513e-13,60.8500077 3.41060513e-13,58.8689153 L3.41060513e-13,48.520848 C3.41060513e-13,46.5378228 1.72016807,44.918159 3.81915966,44.918159 L11.6816807,44.918159 C13.782605,44.918159 15.5008403,46.5378228 15.5008403,48.520848" id="Fill-34" fill="#92AFF2"></path>
                            <path d="M15.5008403,48.520848 L15.5008403,54.2863102 C15.5008403,56.2654699 13.782605,57.8889993 11.6816807,57.8889993 L3.81915966,57.8889993 C1.72016807,57.8889993 3.41060513e-13,56.2654699 3.41060513e-13,54.2863102 L3.41060513e-13,48.520848 C3.41060513e-13,46.5378228 1.72016807,44.918159 3.81915966,44.918159 L11.6816807,44.918159 C13.782605,44.918159 15.5008403,46.5378228 15.5008403,48.520848" id="Fill-35" fill="#AEC3FF"></path>
                            <path d="M102.612857,53.6948816 C102.612857,58.99068 101.46479,64.0448816 99.3909244,68.6487472 C93.1712605,82.4603438 78.6252101,92.2092514 61.7830252,92.2092514 L50.1090756,92.2092514 C35.207395,92.2092514 22.1031933,84.5767304 14.9731933,73.2526127 C11.3589076,67.5103438 9.2792437,60.8210161 9.2792437,53.6948816 C9.2792437,48.3990833 10.4273109,43.3448816 12.5011765,38.7410161 C18.7208403,24.9294195 33.2668908,15.1805119 50.1090756,15.1805119 L61.7830252,15.1805119 C77.0983193,15.1805119 90.5156303,23.2421085 97.4987395,35.0900077 C100.755462,40.6138732 102.612857,46.9591674 102.612857,53.6948816" id="Fill-36" fill="#92AFF2"></path>
                            <path d="M68.6926891,75.8579909 L64.8831933,99.1846295 C64.3787395,100.991772 65.822521,102.76026 67.8036134,102.76026 L77.8134454,102.76026 C79.9588235,102.76026 81.9244538,101.629588 82.9063025,99.8321085 L98.4631933,70.5621926 L68.6926891,75.8579909" id="Fill-37" fill="#92AFF2"></path>
                            <path d="M45.9014286,76.2580749 L48.9571429,99.1846295 C49.4635294,100.991772 48.0197479,102.76026 46.0367227,102.76026 L36.0288235,102.76026 C33.8834454,102.76026 31.9178151,101.629588 30.9340336,99.8321085 L14.9731933,73.2526127 L45.9014286,76.2580749" id="Fill-38" fill="#92AFF2"></path>
                            <path d="M97.4987395,35.0900077 C98.4689916,39.5315203 97.7055462,45.88068 96.4666387,49.2417724 C88.2272269,71.598159 68.8589076,75.6337892 49.0595798,77.3326968 C34.9812605,78.54068 14.9731933,73.2526127 14.9731933,73.2526127 C11.3589076,67.5103438 9.2792437,60.8210161 9.2792437,53.6948816 C9.2792437,48.3990833 10.4273109,43.3448816 12.5011765,38.7410161 C18.7208403,24.9294195 33.2668908,15.1805119 50.1090756,15.1805119 L61.7830252,15.1805119 C77.0983193,15.1805119 90.5156303,23.2421085 97.4987395,35.0900077" id="Fill-40" fill="#AEC3FF"></path>
                            <path d="M45.2964706,24.8289153 L29.2370588,24.8289153 C27.617395,24.8289153 26.3031092,23.9011842 26.3031092,22.7569825 L26.3031092,2.07437744 C26.3031092,1.72261274 26.4229412,1.39983963 26.6258824,1.1215203 C27.4105882,0.0468984512 29.4747899,-0.395706591 31.0113445,0.423789208 C37.1073109,3.68437744 47.0978151,10.7699237 48.2207563,22.6178228 C48.3347899,23.8142094 46.9934454,24.8289153 45.2964706,24.8289153" id="Fill-41" fill="#AEC3FF"></path>
                            <path d="M29.8884034,24.8289153 L29.2370588,24.8289153 C27.617395,24.8289153 26.3031092,23.9011842 26.3031092,22.7569825 L26.3031092,2.07437744 C26.3031092,1.72261274 26.4229412,1.39983963 26.6258824,1.1215203 C26.6935294,1.17757072 26.7611765,1.23941946 26.8230252,1.30513375 C30.3116807,4.96773879 35.3388235,12.1653858 33.9240336,22.2467304 C33.7172269,23.7117724 31.9738655,24.8289153 29.8884034,24.8289153" id="Fill-42" fill="#92AFF2"></path>
                            <path d="M21.4247899,38.6559741 C21.4247899,37.4093354 22.4955462,36.3984951 23.817563,36.3984951 C25.1395798,36.3984951 26.2103361,37.4093354 26.2103361,38.6559741 C26.2103361,39.9026127 25.1395798,40.9134531 23.817563,40.9134531 C22.4955462,40.9134531 21.4247899,39.9026127 21.4247899,38.6559741" id="Fill-43" fill="#2B478B"></path>
                        </g>
                        <g id="Group-87" transform="translate(28.798319, 77.342311)">
                            <path d="M236.078378,145.609328 C236.078378,149.411092 183.250384,152.491933 118.083178,152.491933 C52.915308,152.491933 0.0867815126,149.411092 0.0867815126,145.609328 C0.0867815126,141.807563 52.915308,138.726723 118.083178,138.726723 C183.250384,138.726723 236.078378,141.807563 236.078378,145.609328" id="Fill-5" fill-opacity="0.0860194493" fill="#000000"></path>
                            <path d="M207.627958,74.9220168 C209.145185,63.9496639 208.47258,52.8052941 208.961571,41.7401681 C209.44863,30.675042 211.23258,19.302605 217.102412,9.90932773 C202.455857,18.6261345 193.930395,34.9657983 189.483084,51.4194958 C185.035773,67.8731933 183.939891,85.057479 180.068546,101.656134 C179.13695,105.658908 178.039134,109.833697 179.051908,113.817143 C180.113,117.986134 184.038462,121.714454 187.757118,118.838487 C191.359807,116.049496 194.516025,109.818235 196.802496,105.929496 C202.386277,96.4318487 206.116529,85.8402521 207.627958,74.9220168" id="Fill-66" fill="#C9CED4"></path>
                            <path d="M178.14737,114.306134 C179.683924,118.156218 183.661571,121.295042 187.007202,119.163193 C187.337706,118.954454 187.660479,118.691597 187.975521,118.376555 C187.998714,118.351429 188.021908,118.328235 188.045101,118.303109 C191.408126,114.855042 193.839555,107.945378 195.687286,103.579244 C200.238966,92.8407563 202.693588,81.2093277 202.772832,69.5431092 C202.854008,57.8169748 200.608126,46.2145378 199.59342,34.5328571 C198.580647,22.8511765 198.884092,10.6708403 203.748882,0 C189.579723,11.1694958 182.884597,29.4960504 180.487958,47.38 C178.091319,65.260084 179.308966,83.4455462 177.536613,101.401008 C177.109471,105.732353 176.533504,110.264706 178.14737,114.306134" id="Fill-67" fill="#AAB2BA"></path>
                            <path d="M187.007202,119.163193 C187.337706,118.954454 187.660479,118.691597 187.975521,118.376555 C187.998714,118.351429 188.021908,118.328235 188.045101,118.303109 C186.686361,111.83605 186.955017,104.180336 188.822076,94.845042 C189.396109,91.9748739 190.074513,89.0641176 190.729723,86.2480672 C192.502076,78.642605 194.332412,70.7762185 194.330479,62.8305882 C194.330479,58.7311765 193.841487,54.6085714 193.366025,50.6212605 C193.041319,47.8747899 192.703084,45.037479 192.529134,42.2426891 C192.018882,33.9472269 192.225689,26.9080672 195.254345,22.020084 C192.090395,27.1264706 190.807034,33.7655462 191.334681,42.3161345 C191.510563,45.1437815 191.848798,48.0004202 192.17737,50.7623529 C192.647034,54.7148739 193.134092,58.8026891 193.134092,62.8305882 C193.136025,70.6389916 191.319218,78.4357983 189.564261,85.9755462 C188.905185,88.8012605 188.224849,91.7216807 187.648882,94.6111765 C185.690983,104.402605 185.464849,112.404286 187.007202,119.163193" id="Fill-68" fill="#FFFFFF"></path>
                            <polyline id="Fill-69" fill="#6F7983" points="172.497874 116.38 172.679555 117.752269 176.282244 144.847815 197.183252 144.847815 200.785941 117.752269 200.965689 116.38 172.497874 116.38"></polyline>
                            <polygon id="Fill-70" fill="#6F7983" points="170.112832 116.38 203.350731 116.38 203.350731 110.579748 170.112832 110.579748"></polygon>
                            <polyline id="Fill-71" fill="#524645" points="172.497874 116.38 172.679555 117.752269 200.785941 117.752269 200.965689 116.38 172.497874 116.38"></polyline>
                            <path d="M164.971655,87.2144538 C164.933,76.5010924 156.281908,66.614958 146.146445,63.1417647 C140.313336,61.1432773 133.993168,61.2805042 127.829555,61.4389916 C122.475773,61.5781513 116.747034,61.8757983 113.076697,65.7780672 L110.117622,93.6660504 L127.622748,103.486471 L161.890815,91.0336134 L164.971655,87.2144538" id="Fill-72" fill="#DCAB28"></path>
                            <path d="M145.135605,147.812689 C151.287622,147.911261 157.959555,147.849412 162.851403,144.117227 C169.047874,139.391597 170.126361,130.100756 167.461067,122.777479 C164.795773,115.454202 159.211992,109.636555 153.778966,104.05084 C160.678966,101.781765 165.549555,94.4565546 164.971655,87.2144538 C155.721403,93.0862185 143.589387,94.1434454 133.461655,89.9609244 C123.335857,85.7784034 115.486866,76.4663025 113.076697,65.7780672 C100.884765,74.7867227 91.9708151,88.1363866 88.3217395,102.850588 C86.3503109,110.798151 85.9251008,119.116807 86.9842605,127.232521 C87.6587983,132.387227 88.615521,143.046471 93.590479,146.148571 C98.9597227,149.494202 110.997034,147.265714 117.164513,147.364286 C126.48821,147.513109 135.811908,147.663866 145.135605,147.812689" id="Fill-73" fill="#AF954A"></path>
                        </g>
                        <g id="Group-101" style="mix-blend-mode: luminosity;" transform="translate(175.882353, 82.174243)">
                            <path d="M33.490222,3.39027826 C33.3665246,3.12452195 33.2119027,2.88234548 33.0321548,2.6623959 L33.0321548,2.66220263 L33.030222,2.66026985 C32.8949279,2.49695052 32.7461044,2.34658078 32.5837515,2.2083875 L31.9111464,1.52611859 L31.7333313,1.65677405 C28.2891296,-0.0293772063 21.1765246,1.75785809 13.9808103,6.45546313 C5.28526407,12.1329841 -0.298517447,19.9506648 1.31148255,24.1053539 L1.06602037,24.286648 L2.0343397,25.250522 C2.08072625,25.2990346 2.1271128,25.3465808 2.17736491,25.3927741 L2.20442373,25.4200262 L2.21215482,25.4260178 C2.45761701,25.6502194 2.73786911,25.8442699 3.04904558,26.0079757 L3.0548439,26.0114547 L3.0548439,26.0110682 C6.4545918,27.7926984 13.6445078,26.0187993 20.917533,21.2697825 C29.7773649,15.4861522 35.4056002,7.48118582 33.490222,3.39027826" id="Fill-255" fill="#FFA412"></path>
                            <path d="M12.9467767,5.42104296 C21.8046758,-0.36258729 30.5408103,-1.73504948 32.4561884,2.35585809 C34.3715666,6.44657237 28.7433313,14.4515388 19.8834994,20.2353623 C11.0256002,26.0189925 2.28946575,27.3912614 0.374087595,23.3003539 C-1.54129056,19.2096396 4.08694474,11.2046732 12.9467767,5.42104296" id="Fill-256" fill="#FFB93E"></path>
                            <path d="M26.2655162,2.14170683 C23.0532473,2.14170683 18.3353481,3.89511859 13.7933313,6.8688833 C10.150054,9.2548917 7.015096,12.1240934 4.9663565,14.9480682 C2.9968607,17.6641942 2.26240692,20.0805472 2.94854138,21.5776732 C3.27324726,22.2854547 3.90139852,22.7779253 4.8156002,23.0415556 C5.32778507,23.1890262 5.9153481,23.260732 6.56475986,23.260732 C9.77702877,23.2609253 14.4949279,21.507127 19.0369447,18.5335556 C22.680222,16.1473539 25.81518,13.2781522 27.8639195,10.4541774 C29.8334153,7.73824464 30.5678691,5.32169842 29.8817347,3.82457237 C29.5570288,3.11679086 28.9288775,2.62432027 28.0146758,2.36069002 C27.502491,2.21321943 26.9149279,2.14170683 26.2655162,2.14170683 Z M6.58602037,23.9128497 C5.86702877,23.9128497 5.21181869,23.8320598 4.6358523,23.6658413 C3.53223886,23.3477068 2.76492793,22.7361774 2.3571128,21.8484547 C1.55887751,20.1068329 2.29912961,17.5207825 4.44064222,14.5665388 C6.53383549,11.6803287 9.72870944,8.75353036 13.437701,6.32519422 C19.1335834,2.59590851 24.9241716,0.794757247 28.1944237,1.73621103 C29.2980372,2.05453876 30.0653481,2.66606817 30.4731632,3.55359758 C31.2713985,5.29541271 30.5311464,7.88146313 28.3896338,10.8357068 C26.2964405,13.7219169 23.1015666,16.6489085 19.392575,19.0772446 C14.7017347,22.1490009 9.94518003,23.9126564 6.58602037,23.9128497 L6.58602037,23.9128497 Z" id="Fill-257" fill="#FFA412"></path>
                        </g>
                        <g id="Group-101-Copy" style="mix-blend-mode: luminosity;" transform="translate(169.764222, 59.077605) scale(-1, 1) translate(-169.764222, -59.077605) translate(158.873950, 50.476764)">
                            <path d="M21.4433796,2.1707537 C21.3641776,2.00059319 21.2651751,1.84553056 21.1500847,1.70469953 L21.1500847,1.70457578 L21.1488472,1.70333825 C21.06222,1.59876688 20.9669302,1.50248697 20.8629776,1.41400351 L20.4323168,0.97715507 L20.3184639,1.06081216 C18.1131837,-0.0188098659 13.5590697,1.12553503 8.95174184,4.13335409 C3.38408994,7.76860135 -0.191137071,12.7741667 0.839726239,15.4343633 L0.682559804,15.5504437 L1.30256283,16.1676004 C1.33226357,16.1986624 1.36196431,16.2291057 1.39414012,16.2586827 L1.41146555,16.2761319 L1.41641568,16.2799682 C1.57358211,16.4235218 1.7530241,16.5477699 1.95226659,16.6525888 L1.95597919,16.6548163 L1.95597919,16.6545688 C4.13279619,17.7953249 8.73641145,16.659519 13.3932405,13.6187816 C19.0660826,9.91559386 22.6697728,4.79011178 21.4433796,2.1707537" id="Fill-255" fill="#FFA412"></path>
                            <path d="M8.28966276,3.47102751 C13.9612673,-0.232160207 19.5549073,-1.11093096 20.7813005,1.50842712 C22.0076937,4.12766145 18.4040035,9.25314352 12.7311615,12.956455 C7.05955696,16.6596427 1.46591692,17.5382897 0.239523712,14.9189316 C-0.986869493,12.2996973 2.61682073,7.17421522 8.28966276,3.47102751" id="Fill-256" fill="#FFB93E"></path>
                            <path d="M16.8174888,1.37130869 C14.7607123,1.37130869 11.7398991,2.4939968 8.83170133,4.39806197 C6.49895543,5.92579397 4.49168017,7.76290871 3.17989733,9.57106523 C1.91885326,11.3101675 1.44859148,12.8573288 1.88791498,13.8159203 C2.09582019,14.2691041 2.49801776,14.584427 3.08336991,14.7532262 C3.41131562,14.8476498 3.78752504,14.8935622 4.20333545,14.8935622 C6.26011195,14.893686 9.28092508,13.7707504 12.1891229,11.866809 C14.5218688,10.3389532 16.529144,8.50183846 17.8409269,6.69368194 C19.101971,4.9547034 19.5722327,3.40741842 19.1329092,2.44882692 C18.925004,1.99564307 18.5228065,1.68032017 17.9374543,1.51152095 C17.6095086,1.41709733 17.2332992,1.37130869 16.8174888,1.37130869 Z M4.21694829,15.3111052 C3.75658677,15.3111052 3.33706376,15.2593764 2.96827953,15.1529487 C2.26164934,14.9492511 1.77034954,14.5576963 1.5092305,13.9892984 C0.998130205,12.8741592 1.47210457,11.2183427 2.8432889,9.32677662 C4.18353496,7.4787716 6.22917367,5.60477843 8.60399563,4.0499445 C12.2509994,1.66212847 15.9586423,0.508873346 18.0525447,1.11167469 C18.7591749,1.31549604 19.2504747,1.70705084 19.5115937,2.27532507 C20.022694,3.39058799 19.5487196,5.04640445 18.1775353,6.93797056 C16.8372893,8.78597558 14.7916505,10.6600925 12.4168286,12.2149264 C9.41334089,14.1817344 6.36777714,15.3109814 4.21694829,15.3111052 L4.21694829,15.3111052 Z" id="Fill-257" fill="#FFA412"></path>
                        </g>
                    </g>
                </g>
                <path d="M205.274,207 L202.214,207 L196.06,199.316 L194.156,197.276 L194.802,195.202 C198.406,196.018 201.67,195.032 202.01,191.564 L194.394,191.564 L194.394,189.388 L201.806,189.388 C201.228,187.756 199.698,186.974 197.964,186.974 L194.394,186.974 L194.394,184.798 L209.116,184.798 L208.096,186.974 L202.69,186.974 L202.69,187.11 C203.268,187.484 203.948,188.198 204.322,189.388 L209.116,189.388 L208.096,191.564 L204.56,191.564 C204.288,195.61 200.65,197.514 197.454,197.344 L197.42,197.446 C198.304,198.364 199.188,199.452 200.038,200.438 L205.274,206.728 L205.274,207 Z" id="₹" fill="#BFC4C8" fill-rule="nonzero" transform="translate(201.636000, 195.899000) rotate(-5.000000) translate(-201.636000, -195.899000) "></path>
            </g>
        </g>
    </g>
</svg>