<?xml version="1.0" encoding="UTF-8"?>
<svg width="305px" height="207px" viewBox="0 0 305 207" version="1.1" xmlns="http://www.w3.org/2000/svg" xmlns:xlink="http://www.w3.org/1999/xlink">
    <!-- Generator: Sketch 53.2 (72643) - https://sketchapp.com -->
    <title>Group 25</title>
    <desc>Created with Sketch.</desc>
    <defs>
        <linearGradient x1="50%" y1="-20.5302502%" x2="56.4347972%" y2="62.8171754%" id="linearGradient-1">
            <stop stop-color="#AAB2BA" offset="0%"></stop>
            <stop stop-color="#AAB2BA" stop-opacity="0" offset="100%"></stop>
        </linearGradient>
        <polygon id="path-2" points="0.352372881 0.218384181 169.047192 0.218384181 169.047192 153.973898 0.352372881 153.973898"></polygon>
        <linearGradient x1="-33.5958223%" y1="50.6949157%" x2="103.433518%" y2="51.4966816%" id="linearGradient-4">
            <stop stop-color="#A3B8CD" offset="0%"></stop>
            <stop stop-color="#CCD1D7" offset="100%"></stop>
        </linearGradient>
        <path d="M104.916667,81.4998767 C104.916667,97.515985 118.124462,110.5 134.416667,110.5 C150.708872,110.5 163.916667,97.515985 163.916667,81.4998767 C163.916667,65.4837685 150.708872,52.5 134.416667,52.5 C118.124462,52.5 104.916667,65.4837685 104.916667,81.4998767" id="path-5"></path>
    </defs>
    <g id="Page-1" stroke="none" stroke-width="1" fill="none" fill-rule="evenodd">
        <g id="20.1-Account-Details---nominee" transform="translate(-605.000000, -417.000000)">
            <g id="Group-25" transform="translate(580.785666, 392.798170)">
                <g id="Group-21">
                    <circle id="Oval" fill="url(#linearGradient-1)" opacity="0.147219" transform="translate(177.000000, 177.000000) rotate(10.000000) translate(-177.000000, -177.000000) " cx="177" cy="177" r="152"></circle>
                    <g id="Group-7" transform="translate(101.214334, 69.201830)">
                        <g id="Group-80-Copy">
                            <g id="Group-5" transform="translate(1.305085, 0.000000)">
                                <mask id="mask-3" fill="white">
                                    <use xlink:href="#path-2"></use>
                                </mask>
                                <g id="Clip-2"></g>
                            </g>
                            <path d="M-7.95807864e-13,17.3854689 C-7.95807864e-13,15.8833164 1.2289548,14.6539266 2.73154237,14.6539266 L124.635158,14.6539266 C126.137746,14.6539266 127.366701,15.8833164 127.366701,17.3854689 L127.366701,26.1778249 L-7.95807864e-13,26.1778249 L-7.95807864e-13,17.3854689" id="Fill-6" fill="url(#linearGradient-4)"></path>
                            <path d="M22.0846441,18.5922373 C21.0788588,18.5922373 20.2610056,19.4105254 20.2610056,20.4158757 C20.2610056,21.421226 21.0788588,22.2395141 22.0846441,22.2395141 C23.0899944,22.2395141 23.9078475,21.421226 23.9078475,20.4158757 C23.9078475,19.4105254 23.0899944,18.5922373 22.0846441,18.5922373 Z M22.0846441,22.7232655 C20.8121864,22.7232655 19.7772542,21.6878983 19.7772542,20.4158757 C19.7772542,19.1438531 20.8121864,18.1089209 22.0846441,18.1089209 C23.3566667,18.1089209 24.3915989,19.1438531 24.3915989,20.4158757 C24.3915989,21.6878983 23.3566667,22.7232655 22.0846441,22.7232655 L22.0846441,22.7232655 Z" id="Fill-7" fill="#EAEAE5"></path>
                            <path d="M14.7665989,18.5922373 C13.7608136,18.5922373 12.9429605,19.4105254 12.9429605,20.4158757 C12.9429605,21.421226 13.7608136,22.2395141 14.7665989,22.2395141 C15.7719492,22.2395141 16.5898023,21.421226 16.5898023,20.4158757 C16.5898023,19.4105254 15.7719492,18.5922373 14.7665989,18.5922373 Z M14.7665989,22.7232655 C13.4941412,22.7232655 12.459209,21.6878983 12.459209,20.4158757 C12.459209,19.1438531 13.4941412,18.1089209 14.7665989,18.1089209 C16.0386215,18.1089209 17.0735537,19.1438531 17.0735537,20.4158757 C17.0735537,21.6878983 16.0386215,22.7232655 14.7665989,22.7232655 L14.7665989,22.7232655 Z" id="Fill-8" fill="#EAEAE5"></path>
                            <path d="M7.44855367,18.5922373 C6.44276836,18.5922373 5.62491525,19.4105254 5.62491525,20.4158757 C5.62491525,21.421226 6.44276836,22.2395141 7.44855367,22.2395141 C8.45390395,22.2395141 9.27175706,21.421226 9.27175706,20.4158757 C9.27175706,19.4105254 8.45390395,18.5922373 7.44855367,18.5922373 Z M7.44855367,22.7232655 C6.17609605,22.7232655 5.14116384,21.6878983 5.14116384,20.4158757 C5.14116384,19.1438531 6.17609605,18.1089209 7.44855367,18.1089209 C8.72057627,18.1089209 9.75550847,19.1438531 9.75550847,20.4158757 C9.75550847,21.6878983 8.72057627,22.7232655 7.44855367,22.7232655 L7.44855367,22.7232655 Z" id="Fill-9" fill="#EAEAE5"></path>
                            <path d="M124.635158,110.067367 L2.73154237,110.067367 C1.2289548,110.067367 -7.95807864e-13,108.837977 -7.95807864e-13,107.335825 L-7.95807864e-13,26.1778249 L127.366701,26.1778249 L127.366701,107.335825 C127.366701,108.837977 126.137746,110.067367 124.635158,110.067367" id="Fill-10" fill="#D9E0EE"></path>
                            <path d="M2.77348023,109.438452 L126.59322,109.438452 L126.59322,28.5139266 L0.773480226,28.5139266 L0.773480226,107.438452 C0.773480226,108.543021 1.66891073,109.438452 2.77348023,109.438452 Z" id="Fill-11" fill="#FFFFFE"></path>
                            <path d="M56.5223503,44.3950678 L8.59702825,44.3950678 C7.68129379,44.3950678 6.93957062,43.6529096 6.93957062,42.7376102 L6.93957062,36.3370395 C6.93957062,35.4217401 7.68129379,34.6795819 8.59702825,34.6795819 L56.5223503,34.6795819 C57.4376497,34.6795819 58.1798079,35.4217401 58.1798079,36.3370395 L58.1798079,42.7376102 C58.1798079,43.6529096 57.4376497,44.3950678 56.5223503,44.3950678" id="Fill-12" fill="#F4F6F9"></path>
                            <path d="M118.769672,34.6795819 L70.8443503,34.6795819 C69.9290508,34.6795819 69.1868927,35.4217401 69.1868927,36.3374746 L69.1868927,42.7376102 C69.1868927,43.6529096 69.9290508,44.3950678 70.8443503,44.3950678 L118.769672,44.3950678 C119.685407,44.3950678 120.427565,43.6529096 120.427565,42.7376102 L120.427565,36.3374746 C120.427565,35.4217401 119.685407,34.6795819 118.769672,34.6795819 Z M118.769672,35.1146102 C119.443966,35.1146102 119.992537,35.6631808 119.992537,36.3374746 L119.992537,42.7376102 C119.992537,43.4114689 119.443966,43.9600395 118.769672,43.9600395 L70.8443503,43.9600395 C70.1704915,43.9600395 69.6219209,43.4114689 69.6219209,42.7376102 L69.6219209,36.3374746 C69.6219209,35.6631808 70.1704915,35.1146102 70.8443503,35.1146102 L118.769672,35.1146102 L118.769672,35.1146102 Z" id="Fill-13" fill-opacity="0.25352382" fill="#F78200"></path>
                            <path d="M15.4569887,48.3107571 C10.7525932,48.3107571 6.93913559,52.1246497 6.93913559,56.8286102 C6.93913559,61.5330056 10.7525932,65.3464633 15.4569887,65.3464633 C20.1613842,65.3464633 23.9748418,61.5330056 23.9748418,56.8286102 C23.9748418,52.1246497 20.1613842,48.3107571 15.4569887,48.3107571 M15.4569887,48.7457853 C19.9138531,48.7457853 23.5398136,52.3717458 23.5398136,56.8286102 C23.5398136,61.2854746 19.9138531,64.911435 15.4569887,64.911435 C11.0001243,64.911435 7.37416384,61.2854746 7.37416384,56.8286102 C7.37416384,52.3717458 11.0001243,48.7457853 15.4569887,48.7457853" id="Fill-14" fill="#F4F6F9"></path>
                            <path d="M15.4569887,63.8573616 C12.7846102,63.8573616 10.4624294,62.3673898 9.27654237,60.1761525 C11.0462373,58.9941808 13.1704802,58.303791 15.4569887,58.303791 C17.7434972,58.303791 19.8673051,58.9941808 21.637435,60.1761525 C20.451548,62.3673898 18.1293672,63.8573616 15.4569887,63.8573616" id="Fill-15" fill="#DAE1E7"></path>
                            <path d="M15.4569887,57.5542373 C13.7277514,57.5542373 12.3256554,56.1521412 12.3256554,54.4224689 C12.3256554,52.6932316 13.7277514,51.2911356 15.4569887,51.2911356 C17.186661,51.2911356 18.588322,52.6932316 18.588322,54.4224689 C18.588322,56.1521412 17.186661,57.5542373 15.4569887,57.5542373" id="Fill-16" fill="#DAE1E7"></path>
                            <path d="M102.850684,61.2071695 L33.1387119,61.2071695 C30.7203898,61.2071695 28.7601525,59.2469322 28.7601525,56.8286102 C28.7601525,54.4102881 30.7203898,52.4500508 33.1387119,52.4500508 L111.090554,52.4500508 C107.931379,54.9436328 105.150678,57.8966045 102.850684,61.2071695" id="Fill-17" fill="#D9E0EE" opacity="0.284923735"></path>
                            <path d="M15.4569887,71.5121186 C10.7525932,71.5121186 6.93913559,75.3255763 6.93913559,80.0299718 C6.93913559,84.7343672 10.7525932,88.5478249 15.4569887,88.5478249 C20.1613842,88.5478249 23.9748418,84.7343672 23.9748418,80.0299718 C23.9748418,75.3255763 20.1613842,71.5121186 15.4569887,71.5121186 M15.4569887,71.9471469 C19.9138531,71.9471469 23.5398136,75.5731073 23.5398136,80.0299718 C23.5398136,84.4868362 19.9138531,88.1127966 15.4569887,88.1127966 C11.0001243,88.1127966 7.37416384,84.4868362 7.37416384,80.0299718 C7.37416384,75.5731073 11.0001243,71.9471469 15.4569887,71.9471469" id="Fill-18" fill="#F4F6F9"></path>
                            <path d="M15.4569887,87.0587232 C12.7846102,87.0587232 10.4624294,85.5687514 9.27654237,83.3775141 C11.0462373,82.1951073 13.1704802,81.5051525 15.4569887,81.5051525 C17.7434972,81.5051525 19.8673051,82.1951073 21.637435,83.3775141 C20.451548,85.5687514 18.1293672,87.0587232 15.4569887,87.0587232" id="Fill-19" fill="#DAE1E7"></path>
                            <path d="M15.4569887,80.7555989 C13.7277514,80.7555989 12.3256554,79.3535028 12.3256554,77.6238305 C12.3256554,75.8945932 13.7277514,74.4924972 15.4569887,74.4924972 C17.186661,74.4924972 18.588322,75.8945932 18.588322,77.6238305 C18.588322,79.3535028 17.186661,80.7555989 15.4569887,80.7555989" id="Fill-20" fill="#DAE1E7"></path>
                            <path d="M95.6279096,84.4085311 L33.1387119,84.4085311 C30.7203898,84.4085311 28.7601525,82.4482938 28.7601525,80.0299718 C28.7601525,77.6116497 30.7203898,75.6514124 33.1387119,75.6514124 L96.5519096,75.6514124 C95.9467853,78.4329831 95.6274746,81.3211356 95.6274746,84.2815028 C95.6274746,84.3241356 95.6274746,84.3663333 95.6279096,84.4085311" id="Fill-21" fill="#D9E0EE" opacity="0.284923735"></path>
                            <path d="M127.366701,50.8835141 L127.366701,44.7074181 C127.367136,44.7074181 127.367136,44.7074181 127.367136,44.7074181 L127.367136,50.8835141 L127.366701,50.8835141" id="Fill-22" fill="#C5CDD4"></path>
                            <path d="M172.355582,85.9959492 C172.355582,105.982887 156.152955,122.185514 136.166017,122.185514 C116.179079,122.185514 99.976452,105.982887 99.976452,85.9959492 C99.976452,66.0090113 116.179079,49.8063842 136.166017,49.8063842 C156.152955,49.8063842 172.355582,66.0090113 172.355582,85.9959492" id="Fill-27" fill="#B8C5D2"></path>
                            <path d="M169.326915,85.9485311 C169.326915,104.168819 154.556401,118.939333 136.336113,118.939333 C118.115825,118.939333 103.345311,104.168819 103.345311,85.9485311 C103.345311,67.7282429 118.115825,52.9577288 136.336113,52.9577288 C154.556401,52.9577288 169.326915,67.7282429 169.326915,85.9485311" id="Fill-28" fill="#FFFFFE"></path>
                            <path d="M146.21865,90.0138701 L146.21865,90.0138701 C146.219085,90.0051695 146.21952,89.9964689 146.22039,89.9877684 C146.21952,89.9964689 146.219085,90.0051695 146.21865,90.0138701" id="Fill-32" fill="#A2A5A2"></path>
                            <path d="M146.21952,90.0151751 L146.21865,90.0138701 C146.219085,90.0051695 146.21952,89.9964689 146.22039,89.9877684 C146.267373,89.3156497 146.322621,88.6348305 146.384395,87.949226 L146.386571,87.9518362 C146.323927,88.6457062 146.266503,89.335226 146.21952,90.0151751" id="Fill-34" fill="#A2A5A2"></path>
                            <path d="M146.22039,89.9877684 C146.267373,89.3156497 146.322621,88.6348305 146.38396,87.949226 L146.384395,87.949226 C146.322621,88.6348305 146.267373,89.3156497 146.22039,89.9877684" id="Fill-35" fill="#1D5697"></path>
                            <path d="M135.191554,72.3260565 C135.20852,72.4174124 135.225486,72.5087684 135.239842,72.6001243 C135.225921,72.5087684 135.208955,72.4174124 135.191989,72.3260565 L135.191554,72.3260565" id="Fill-36" fill="#7A3939"></path>
                            <path d="M135.262898,72.7576045 C135.255503,72.7054011 135.248107,72.6527627 135.239842,72.6001243 C135.248107,72.6527627 135.255503,72.7054011 135.262898,72.7576045" id="Fill-37" fill="#BEBFBB"></path>
                            <path d="M142.900254,76.9325706 C142.822384,76.5806328 142.552667,76.2835085 142.179412,76.1947627 L141.275424,75.9794237 C141.037898,75.922435 140.803853,76.0285819 140.68161,76.2330452 L140.652463,76.2743729 C140.21178,77.1975028 138.792282,79.4605198 135.132825,80.5346045 L134.848316,80.6024689 L134.848316,80.6020339 L134.227531,80.7495085 L133.375311,80.2966441 C132.75061,79.757209 132.430429,79.1960226 132.425644,78.6283107 C132.419119,77.8900678 132.937672,77.2718927 133.374006,76.8838475 L133.498859,76.722452 C133.538446,76.6223955 133.530181,76.5723672 133.460141,76.5284294 C132.502644,75.8367345 130.349254,76.9034237 130.263989,77.0883107 C130.172198,77.1770565 130.080842,77.2749379 129.991226,77.3823898 C129.553588,77.9100791 129.183814,78.6692034 129.295616,79.6884746 C129.544017,81.9506215 131.419859,83.021226 131.499904,83.0655989 L131.562113,83.0816949 L131.630847,83.0616836 C131.670435,83.036452 131.693492,82.9916441 131.690011,82.944661 C131.685661,82.8798418 131.606051,81.3711638 133.300486,80.5472203 L134.06309,80.9522316 C130.789503,94.3798136 133.009887,110.469333 133.071661,110.905232 C133.232621,110.902621 133.323977,110.901316 133.323977,110.902186 L133.327893,110.88609 C133.304401,110.72339 131.019633,94.4907458 134.317147,80.9913842 L135.116294,80.8021469 C136.042469,81.9336554 135.60309,83.6128644 135.59874,83.6302655 C135.585689,83.6776836 135.600915,83.7285819 135.638328,83.760774 L135.722288,83.792096 L135.773621,83.7812203 C135.947633,83.7050904 140.061695,81.9005932 141.500333,80.1831017 C142.354729,79.1629605 142.734073,78.0827853 142.901559,77.3562881 C142.934621,77.2122938 142.930706,77.0687345 142.900254,76.9325706" id="Fill-39" fill="#FFFFFE"></path>
                        </g>
                        <mask id="mask-6" fill="white">
                            <use xlink:href="#path-5"></use>
                        </mask>
                        <g id="Clip-36"></g>
                        <g id="Group-6-Copy" mask="url(#mask-6)">
                            <g transform="translate(141.000000, 78.000000)">
                                <path d="M4.03816647,18.5990129 C2.65268891,19.2184169 1.30663342,20.6712347 0,22.9574664 L1.48898353,27 L24.3609475,27 L26,21.5 C24.733204,19.4889135 23.3387587,18.1838257 21.8166642,17.5847369 C20.2945696,16.985648 17.9919103,16.4574024 14.9086862,16 L9.91140586,16.4047898 C7.3813905,17.2482012 5.42364403,17.9796089 4.03816647,18.5990129 Z" id="Fill-40" fill="#AAB2BA"></path>
                                <path d="M10.0056285,14.1986938 C10.096449,14.9866061 10.2478165,17.6042157 10.2246662,18.0369657 C10.2104198,18.2882458 10.2727477,18.5367484 10.4009649,18.7465497 C10.8639714,19.5042788 12.0713501,21.2089841 13.4425618,20.9788137 C14.7265146,20.763272 15.935674,19.5126116 16.4930627,18.8541354 C16.6978541,18.6139656 16.7957978,18.288431 16.7655243,17.9606743 C16.6675806,16.9487023 16.5108707,14.6171854 16.966754,13.4168921 C17.4386646,12.1754904 12.7622983,14.0246309 10.8319171,14.8321716 C10.3831569,15.0204928 9.94508147,13.6729868 10.0056285,14.1986938" id="Fill-41" fill="#EBD7B4"></path>
                                <g id="Group-8" stroke-width="1" fill="none" transform="translate(6.000000, 0.000000)">
                                    <path d="M2.03175818,11.7713 C2.50660529,13.6910383 4.90985866,16.6784661 7.82837149,16.5711869 C10.7468843,16.4639076 12.65624,13.2633498 13.2360159,11.3594518 C13.8157917,9.45555388 13.8157917,6.22767328 13.8157917,6.22767328 C13.8157917,6.22767328 13.8157917,-0.349746253 7.146957,0.014596257 C0.478122255,0.378938767 1.56580334,8.30167462 1.56580334,8.30167462 C1.56580334,8.30167462 1.55691107,9.85156177 2.03175818,11.7713 Z" id="Fill-42" fill="#FEE9C5"></path>
                                    <path d="M1.5,11.0842685 C1.91421356,11.0842685 2.50329175,10.2125966 2.50329175,9.35906567 C2.50329175,8.50553469 2.16750531,7.81361112 1.75329175,7.81361112 C1.33907818,7.81361112 0.698207001,7.43346807 0.698207001,8.28699905 C0.698207001,9.14053003 1.08578644,11.0842685 1.5,11.0842685 Z" id="Oval" fill="#FEE9C5"></path>
                                    <path d="M13.3550847,11.1686394 C13.7692983,11.1686394 14.3583765,10.2969675 14.3583765,9.44343654 C14.3583765,8.58990556 14.0225901,7.897982 13.6083765,7.897982 C13.1941629,7.897982 12.5532917,7.51783895 12.5532917,8.37136992 C12.5532917,9.2249009 12.9408712,11.1686394 13.3550847,11.1686394 Z" id="Oval-Copy" fill="#FEE9C5" transform="translate(13.455834, 9.491125) scale(-1, 1) translate(-13.455834, -9.491125) "></path>
                                </g>
                            </g>
                        </g>
                        <g id="Group-6-Copy-2" mask="url(#mask-6)">
                            <g transform="translate(102.000000, 79.000000)">
                                <path d="M4.03816647,18.5990129 C2.65268891,19.2184169 1.30663342,20.6712347 0,22.9574664 L1.48898353,27 L24.3609475,27 L26,21.5 C24.733204,19.4889135 23.3387587,18.1838257 21.8166642,17.5847369 C20.2945696,16.985648 17.9919103,16.4574024 14.9086862,16 L9.91140586,16.4047898 C7.3813905,17.2482012 5.42364403,17.9796089 4.03816647,18.5990129 Z" id="Fill-40" fill="#AAB2BA"></path>
                                <path d="M10.0056285,14.1986938 C10.096449,14.9866061 10.2478165,17.6042157 10.2246662,18.0369657 C10.2104198,18.2882458 10.2727477,18.5367484 10.4009649,18.7465497 C10.8639714,19.5042788 12.0713501,21.2089841 13.4425618,20.9788137 C14.7265146,20.763272 15.935674,19.5126116 16.4930627,18.8541354 C16.6978541,18.6139656 16.7957978,18.288431 16.7655243,17.9606743 C16.6675806,16.9487023 16.5108707,14.6171854 16.966754,13.4168921 C17.4386646,12.1754904 12.7622983,14.0246309 10.8319171,14.8321716 C10.3831569,15.0204928 9.94508147,13.6729868 10.0056285,14.1986938" id="Fill-41" fill="#EBD7B4"></path>
                                <g id="Group-8" stroke-width="1" fill="none" transform="translate(5.000000, 0.000000)">
                                    <path d="M2.03175818,11.7713 C2.50660529,13.6910383 4.90985866,16.6784661 7.82837149,16.5711869 C10.7468843,16.4639076 12.65624,13.2633498 13.2360159,11.3594518 C13.8157917,9.45555388 13.8157917,6.22767328 13.8157917,6.22767328 C13.8157917,6.22767328 13.8157917,-0.349746253 7.146957,0.014596257 C0.478122255,0.378938767 1.56580334,8.30167462 1.56580334,8.30167462 C1.56580334,8.30167462 1.55691107,9.85156177 2.03175818,11.7713 Z" id="Fill-42" fill="#FEE9C5"></path>
                                    <path d="M1.5,11.0842685 C1.91421356,11.0842685 2.50329175,10.2125966 2.50329175,9.35906567 C2.50329175,8.50553469 2.16750531,7.81361112 1.75329175,7.81361112 C1.33907818,7.81361112 0.698207001,7.43346807 0.698207001,8.28699905 C0.698207001,9.14053003 1.08578644,11.0842685 1.5,11.0842685 Z" id="Oval" fill="#FEE9C5"></path>
                                    <path d="M13.3550847,11.1686394 C13.7692983,11.1686394 14.3583765,10.2969675 14.3583765,9.44343654 C14.3583765,8.58990556 14.0225901,7.897982 13.6083765,7.897982 C13.1941629,7.897982 12.5532917,7.51783895 12.5532917,8.37136992 C12.5532917,9.2249009 12.9408712,11.1686394 13.3550847,11.1686394 Z" id="Oval-Copy" fill="#FEE9C5" transform="translate(13.455834, 9.491125) scale(-1, 1) translate(-13.455834, -9.491125) "></path>
                                </g>
                            </g>
                        </g>
                        <g id="Group-6" mask="url(#mask-6)">
                            <g transform="translate(114.666667, 69.888268)">
                                <path d="M6.43225268,28.1283883 C4.33973967,29.085649 2.30676655,31.330913 0.333333333,34.8641802 L2.58217338,41.111732 L46.3333333,40.431732 L39.601626,32.611732 C37.68836,29.5036892 35.5823029,27.4867355 33.2834546,26.5608708 C30.9846063,25.6350062 27.5068564,24.8186266 22.8502046,24.111732 L15.3027174,24.7373163 C11.4815873,26.0407703 8.52476569,27.1711276 6.43225268,28.1283883 Z" id="Fill-40" fill="#003974"></path>
                                <path d="M14.3421781,21.0596094 C14.484896,22.339967 14.7227593,26.5935826 14.6863802,27.2968013 C14.6639931,27.7051315 14.7619368,28.1089482 14.963421,28.4498753 C15.6910027,29.6811851 17.588312,32.4513312 19.7430733,32.0773043 C21.7607134,31.7270491 23.6608211,29.6947259 24.5367176,28.6247021 C24.8585326,28.2344262 25.0124441,27.7054324 24.9648715,27.1728278 C24.8109599,25.5283732 24.5647015,21.7396583 25.2810897,19.7891818 C26.0226634,17.771904 18.6740878,20.7767572 15.6406317,22.0890109 C14.935437,22.3950329 14.2470328,20.2053356 14.3421781,21.0596094" id="Fill-41" fill="#EBD7B4"></path>
                                <g id="Group-8" stroke-width="1" fill="none" transform="translate(9.333333, 0.111732)">
                                    <path d="M1.979912,17.3107353 C2.67635443,20.1338798 6.20112603,24.5271561 10.4816115,24.3693925 C14.762097,24.2116289 17.5624853,19.5049261 18.4128233,16.7050762 C19.2631612,13.9052263 19.2631612,9.15834306 19.2631612,9.15834306 C19.2631612,9.15834306 19.2631612,-0.514332725 9.4822036,0.0214650839 C-0.298754026,0.557262893 1.29651156,12.208345 1.29651156,12.208345 C1.29651156,12.208345 1.28346957,14.4875908 1.979912,17.3107353 Z" id="Fill-42" fill="#FEE9C5"></path>
                                    <path d="M1.2,16.3003949 C1.80751322,16.3003949 2.67149456,15.0185245 2.67149456,13.7633319 C2.67149456,12.5081393 2.17900779,11.4906046 1.57149456,11.4906046 C0.963981337,11.4906046 0.0240369342,10.9315707 0.0240369342,12.1867633 C0.0240369342,13.4419559 0.592486775,16.3003949 1.2,16.3003949 Z" id="Oval" fill="#FEE9C5"></path>
                                    <path d="M18.5874576,16.4244697 C19.1949709,16.4244697 20.0589522,15.1425993 20.0589522,13.8874067 C20.0589522,12.6322141 19.5664654,11.6146794 18.9589522,11.6146794 C18.351439,11.6146794 17.4114946,11.0556455 17.4114946,12.3108381 C17.4114946,13.5660307 17.9799444,16.4244697 18.5874576,16.4244697 Z" id="Oval-Copy" fill="#FEE9C5" transform="translate(18.735223, 13.957537) scale(-1, 1) translate(-18.735223, -13.957537) "></path>
                                </g>
                            </g>
                        </g>
                    </g>
                </g>
                <g id="Group-19" transform="translate(193.971927, 161.722333)">
                    <path d="M23.8830508,11.9415254 C23.8830508,18.5365537 18.5369887,23.8830508 11.9415254,23.8830508 C5.34649718,23.8830508 -5.47117907e-13,18.5365537 -5.47117907e-13,11.9415254 C-5.47117907e-13,5.34649718 5.34649718,-4.11937151e-12 11.9415254,-4.11937151e-12 C18.5369887,-4.11937151e-12 23.8830508,5.34649718 23.8830508,11.9415254" id="Fill-53" fill="#F78200"></path>
                    <path d="M18.5069718,10.8235028 L13.059548,10.8235028 L13.059548,5.3760791 C13.059548,4.76138418 12.5566554,4.25849153 11.9415254,4.25849153 C11.3268305,4.25849153 10.8239379,4.76138418 10.8239379,5.3760791 L10.8239379,10.8235028 L5.37651412,10.8235028 C4.76181921,10.8235028 4.25849153,11.3268305 4.25849153,11.9415254 C4.25849153,12.5562203 4.76181921,13.059548 5.37651412,13.059548 L10.8239379,13.059548 L10.8239379,18.5069718 C10.8239379,19.1216667 11.3268305,19.6245593 11.9415254,19.6245593 C12.5566554,19.6245593 13.059548,19.1216667 13.059548,18.5069718 L13.059548,13.059548 L18.5069718,13.059548 C19.1216667,13.059548 19.6245593,12.5562203 19.6245593,11.9415254 C19.6245593,11.3268305 19.1216667,10.8235028 18.5069718,10.8235028" id="Fill-54" fill="#FFFFFE"></path>
                </g>
            </g>
        </g>
    </g>
</svg>