<svg width="15" height="15" viewBox="0 0 15 15" fill="none" xmlns="http://www.w3.org/2000/svg">
<path d="M3.85209 9.30184C3.86408 9.33116 3.8818 9.3578 3.90417 9.38021L5.95313 11.4292C6.04742 11.5235 6.20033 11.5235 6.29462 11.4292C6.38892 11.3349 6.38892 11.182 6.29462 11.0877L4.65784 9.4509L10.9048 9.4509C11.0381 9.45321 11.1481 9.347 11.1504 9.21365C11.1527 9.08029 11.0465 8.97033 10.9131 8.96803C10.9104 8.96796 10.9076 8.96799 10.9048 8.96803L4.65784 8.96803L6.29462 7.33125C6.38892 7.23696 6.38892 7.08405 6.29462 6.98976C6.20033 6.89546 6.04742 6.89546 5.95313 6.98976L3.90417 9.03872C3.88188 9.06121 3.86419 9.08783 3.85209 9.11709C3.82761 9.17623 3.82761 9.2427 3.85209 9.30184Z" fill="#F58220" stroke="#F58220" stroke-width="0.6"/>
<path d="M3.83328 4.76378C3.83563 4.89709 3.94558 5.00327 4.07889 5.00096L10.3249 4.89194L8.71692 6.55703C8.62428 6.65296 8.62695 6.80584 8.72288 6.89847C8.8188 6.99111 8.97168 6.98844 9.06432 6.89251L11.0772 4.80811C11.0991 4.78522 11.1163 4.7583 11.1279 4.72884C11.1514 4.66928 11.1502 4.60282 11.1247 4.54412C11.1121 4.51507 11.0939 4.48877 11.0712 4.46666L8.98684 2.45378C8.89091 2.36114 8.73803 2.36381 8.6454 2.45974C8.55276 2.55566 8.55543 2.70854 8.65136 2.80118L10.3165 4.40914L4.07047 4.51816C3.93715 4.52051 3.83097 4.63046 3.83328 4.76378Z" fill="#F58220" stroke="#F58220" stroke-width="0.6"/>
<rect x="0.65" y="0.812048" width="13.6333" height="12.7" rx="3.35" stroke="#F58220" stroke-width="1.3"/>
</svg>
