<svg width="272" height="282" viewBox="0 0 272 282" fill="none" xmlns="http://www.w3.org/2000/svg">
<g filter="url(#filter0_d)">
<rect width="272" height="282" rx="6" fill="#F58220"/>
</g>
<mask id="mask0" mask-type="alpha" maskUnits="userSpaceOnUse" x="0" y="0" width="272" height="282">
<rect width="272" height="282" rx="6" fill="white"/>
</mask>
<g mask="url(#mask0)">
<path fill-rule="evenodd" clip-rule="evenodd" d="M147.169 306.087C63.7743 306.087 -3.83057 296.157 -3.83057 283.906C-3.83057 271.658 63.7743 261.725 147.169 261.725C230.565 261.725 298.169 271.658 298.169 283.906C298.169 296.157 230.565 306.087 147.169 306.087" fill="#ECEFF4" fill-opacity="0.24511"/>
<circle opacity="0.42999" cx="255.5" cy="31.5" r="71.5" fill="url(#paint0_linear)"/>
<circle opacity="0.210612" r="71.5" transform="matrix(1 0 0 -1 37.5 258.5)" fill="url(#paint1_linear)"/>
<path fill-rule="evenodd" clip-rule="evenodd" d="M151.156 223.419C154.111 224.241 156.804 224.915 159.253 225.464C159.352 225.486 159.449 225.507 159.546 225.529C176.429 229.277 181.63 227.063 181.63 227.063C187.761 214.934 193.281 203.602 196.768 194.523C197.22 193.345 197.639 192.205 198.019 191.106C199.757 186.093 200.719 181.936 200.609 178.932C195.36 180.836 174.515 182.049 174.515 182.049C173.016 188.163 166.348 200.295 160.334 210.005C160.129 210.336 159.924 210.665 159.721 210.989C156.136 216.723 152.859 221.477 151.156 223.419" fill="#FFFFFE"/>
<path fill-rule="evenodd" clip-rule="evenodd" d="M188.925 181.721H188.926C188.928 181.596 188.929 181.551 188.929 181.551C188.929 181.551 188.927 181.616 188.926 181.689C188.926 181.7 188.925 181.711 188.925 181.721M188.984 181.688C189.439 181.375 189.893 181.052 190.344 180.722C190.344 180.721 190.344 180.721 190.344 180.721L188.984 181.688" fill="#C3B6A3"/>
<path fill-rule="evenodd" clip-rule="evenodd" d="M188.309 199.468C188.968 199.25 190.483 198.472 190.285 195.957C190.032 192.755 189.773 183.551 190.344 180.721C189.893 180.772 189.439 180.822 188.984 180.87L188.936 180.875C188.556 184.749 188.88 189.774 189.774 195.657C189.608 196.993 189.355 197.957 189.042 198.594V198.595C189.042 198.595 189.041 198.595 189.041 198.596C188.823 199.039 188.576 199.325 188.309 199.468M188.923 180.91C188.924 180.906 188.925 180.897 188.927 180.882C188.927 180.882 188.927 180.882 188.927 180.882H188.926C188.925 180.891 188.924 180.901 188.923 180.91" fill="#D5D5D5"/>
<path fill-rule="evenodd" clip-rule="evenodd" d="M156.11 206.108C156.11 206.573 156.624 206.949 157.257 206.949C157.89 206.949 158.403 206.573 158.403 206.108C158.403 205.643 157.89 205.266 157.257 205.266C156.624 205.266 156.11 205.643 156.11 206.108" fill="#FFFFFE"/>
<path fill-rule="evenodd" clip-rule="evenodd" d="M171.393 207.386C173.707 205.299 167.046 205.343 166.152 204.833C165.683 205.234 165.429 206.228 166.306 206.367L167.601 206.627C167.77 206.803 165.848 211.63 166.824 211.391C169.374 212.763 169.042 207.98 169.643 207.035L171.393 207.386" fill="#AD252A"/>
<path fill-rule="evenodd" clip-rule="evenodd" d="M175.122 208.603C175.105 209.879 176.186 211.195 173.912 210.442C174.315 209.877 174.652 208.991 175.122 208.603M176.848 207.592C174.434 205.836 173.059 207.975 172.136 209.755C171.401 210.975 169.4 213.17 172.4 212.82C172.796 212.667 173.034 212.033 173.245 211.728C173.849 211.949 175.774 211.848 175.387 212.808C175.017 213.821 177.23 214.216 177.503 213.317C177.522 211.486 177.113 209.411 176.848 207.592" fill="#AD252A"/>
<path fill-rule="evenodd" clip-rule="evenodd" d="M163.564 204.655C173.209 200.328 175.513 200.326 177.443 199.469C179.331 198.631 184.749 197.365 183.998 192.877C183.972 192.779 183.947 192.679 183.922 192.579C182.148 193.612 173.557 198.613 173.557 198.613L163.564 204.655" fill="#EBEBE9"/>
<path fill-rule="evenodd" clip-rule="evenodd" d="M176.024 227.713C180.105 227.713 181.63 227.063 181.63 227.063C187.761 214.934 193.281 203.602 196.768 194.523C193.179 199.171 188.799 204.034 184.081 208.54C185.513 208.856 186.522 209.367 185.393 210.386L183.643 210.035C183.117 210.863 183.306 214.636 181.647 214.636C181.412 214.636 181.139 214.561 180.824 214.391C180.8 214.397 180.778 214.4 180.758 214.4C180.247 214.399 180.766 212.607 181.189 211.218C174.036 217.633 166.337 223.019 159.546 225.529C167.285 227.247 172.57 227.713 176.024 227.713" fill="#F4F4F2"/>
<path fill-rule="evenodd" clip-rule="evenodd" d="M167.647 211.637C169.306 211.637 169.117 207.863 169.643 207.035L171.393 207.386C172.522 206.367 171.514 205.856 170.081 205.54C169.129 206.449 168.165 207.343 167.189 208.218C166.766 209.607 166.247 211.399 166.758 211.4C166.778 211.4 166.8 211.397 166.824 211.391C167.139 211.561 167.412 211.637 167.647 211.637" fill="#A32629"/>
<path fill-rule="evenodd" clip-rule="evenodd" d="M134.825 224.32C135.986 223.923 137.834 223.593 138.082 223.556C138.329 223.518 138.69 226.193 138.448 226.431C138.207 226.668 136.292 226.767 135.681 226.797C135.069 226.828 134.641 226.125 134.611 225.421C134.58 224.718 134.825 224.32 134.825 224.32" fill="#E7A89E"/>
<path fill-rule="evenodd" clip-rule="evenodd" d="M186.269 210.064C185.751 208.021 183.599 209.463 182.72 210.436C182.34 209.694 181.808 207.574 180.343 208.288C179.069 208.974 180.86 210.584 181.159 211.426C180.925 211.838 177.803 213.384 178.924 214.043C180.071 215.212 181.413 213.573 182.218 212.911L183.21 215.107C184.644 215.682 185.6 214.597 184.735 213.53C183.201 211.207 184.303 211.894 186.269 210.064" fill="#AD252A"/>
<path fill-rule="evenodd" clip-rule="evenodd" d="M132.457 200.151C133.305 201.379 134.712 202.401 136.452 202.915C139.828 203.91 143.186 202.609 143.952 200.01C144.718 197.412 142.603 194.497 139.226 193.502C135.851 192.507 132.493 193.807 131.726 196.407C131.355 197.665 131.661 198.998 132.457 200.151ZM129.689 195.807C130.711 192.341 135.187 190.607 139.689 191.933C144.191 193.261 147.011 197.145 145.99 200.61C145.638 201.802 144.879 202.787 143.851 203.516C143.628 203.674 143.721 204.025 143.992 204.057C147.795 204.512 152.175 204.993 154.115 205.087C154.536 205.108 154.841 205.111 155.002 205.09C156.414 204.913 159.393 204.26 159.814 204.167C159.848 204.16 159.881 204.158 159.915 204.162C160.973 204.294 162.224 204.438 163.603 204.589C163.622 204.591 163.642 204.593 163.662 204.595C163.629 204.615 163.596 204.635 163.564 204.655C162.7 206.123 161.828 207.573 160.966 208.98C158.039 208.73 155.68 208.471 154.813 208.212C154.736 208.189 154.671 208.166 154.619 208.144C154.012 207.881 153.04 207.549 151.918 207.219C149.558 206.524 146.537 205.838 144.869 205.818C143.318 205.8 140.192 205.275 138.095 204.888C138.087 204.887 138.08 204.886 138.072 204.885C137.387 204.821 136.688 204.69 135.989 204.484C133.669 203.799 131.795 202.434 130.663 200.798C129.601 199.261 129.195 197.484 129.689 195.807V195.807Z" fill="#34343E"/>
<path fill-rule="evenodd" clip-rule="evenodd" d="M138.247 225.595C140.047 227.621 143.639 227.369 146.27 225.032C148.902 222.695 149.576 219.158 147.777 217.132C145.977 215.106 142.385 215.358 139.754 217.695C138.397 218.9 137.561 220.424 137.315 221.897C137.085 223.279 137.376 224.614 138.247 225.595ZM135.416 222.074C135.744 220.112 136.859 218.079 138.668 216.473C139.212 215.989 144.738 212.162 146.135 211.485C147.637 210.758 150.078 208.851 151.918 207.219C152.793 206.443 153.532 205.728 153.969 205.232C154.007 205.189 154.055 205.14 154.115 205.087C155.481 203.867 162.387 200.036 167.916 196.948C170.768 195.354 173.252 193.957 174.42 193.219C177.708 191.139 181.231 190.832 184.749 191.486C185.022 191.537 185.085 191.901 184.845 192.042C181.991 193.704 170.799 200.236 163.662 204.595C163.629 204.615 163.596 204.635 163.564 204.655C162.399 205.367 161.344 206.019 160.455 206.581C160.427 206.599 160.395 206.612 160.362 206.62C159.941 206.715 156.968 207.392 155.614 207.833C155.461 207.883 155.184 208.015 154.813 208.212C153.098 209.123 149.339 211.423 146.091 213.452C145.859 213.597 145.925 213.954 146.194 214.002C147.434 214.224 148.541 214.793 149.365 215.721C151.764 218.423 150.865 223.138 147.356 226.255C143.847 229.371 139.058 229.708 136.659 227.006C135.498 225.697 135.109 223.917 135.416 222.074V222.074Z" fill="#34343E"/>
<path fill-rule="evenodd" clip-rule="evenodd" d="M113.496 279.943C125.535 279.943 135.295 279.615 135.295 279.209C135.295 278.803 125.535 278.474 113.496 278.474C101.456 278.474 91.0067 278.661 91.0067 279.067C91.0067 279.473 101.456 279.943 113.496 279.943" fill="black" fill-opacity="0.16032"/>
<path fill-rule="evenodd" clip-rule="evenodd" d="M124.912 272.76C124.728 271.514 123.879 268.452 123.879 268.452L120.621 269.133L121.939 273.72L124.438 274.665L124.912 272.76" fill="#FFFFFE"/>
<path fill-rule="evenodd" clip-rule="evenodd" d="M125.039 272.186C125.363 272.035 125.287 272.389 125.518 272.88C126.048 274.002 130.35 273.16 131.019 273.135C131.365 273.121 132.258 274.747 130.592 275.079C129.152 275.366 124.543 276.301 122.965 276.605C122.635 276.668 122.302 276.503 122.157 276.199C121.642 275.117 121.359 273.331 121.791 273.204C122.412 272.857 123.684 272.816 125.039 272.186" fill="#191B28"/>
<path fill-rule="evenodd" clip-rule="evenodd" d="M66.7011 252.759C67.9596 252.717 71.0969 252.215 71.0969 252.215L70.7843 248.901L66.0791 249.698L64.861 252.075L66.7011 252.759" fill="#FFFFFE"/>
<path fill-rule="evenodd" clip-rule="evenodd" d="M67.2576 252.95C67.3707 253.289 67.0266 253.174 66.5137 253.349C65.34 253.749 65.6954 258.119 65.6453 258.787C65.6203 259.132 63.9046 259.837 63.7608 258.145C63.6372 256.681 63.2228 251.996 63.0976 250.395C63.0718 250.059 63.2729 249.747 63.5904 249.638C64.7245 249.246 66.5298 249.165 66.6082 249.609C66.8836 250.265 66.7827 251.533 67.2576 252.95" fill="#191B28"/>
<path fill-rule="evenodd" clip-rule="evenodd" d="M109.239 227.558C111.583 236.744 117.481 249.003 118.388 251.634C119.295 254.265 124.855 270.166 124.912 271.092C121.853 272.404 121.24 272.62 121.24 272.62C120.424 270.439 116.004 257.821 113.675 254.301C111.347 250.781 102.099 235.746 102.099 235.746C97.2523 238.593 91.6916 245.434 86.9783 248.601C80.4387 252.418 69.2996 253.082 69.2996 253.082C67.966 250.776 67.6218 249.3 67.9789 248.901C70.9773 247.937 82.7198 246.563 84.7626 244.351C86.8055 242.139 92.7417 227.855 98.8452 223.37C99.4583 222.92 103.019 225.362 104.978 226.652C106.937 227.943 109.239 227.558 109.239 227.558" fill="#34343E"/>
<path fill-rule="evenodd" clip-rule="evenodd" d="M103.642 234.83C103.669 234.812 103.681 234.804 103.684 234.801L103.64 234.822L103.642 234.83" fill="#272834"/>
<path fill-rule="evenodd" clip-rule="evenodd" d="M105.886 241.884C105.886 241.883 105.886 241.882 105.886 241.882C105.84 241.808 105.794 241.735 105.749 241.661C105.796 241.737 105.842 241.811 105.886 241.884M102.179 235.876C102.114 235.79 102.08 235.746 102.08 235.746V235.747C102.085 235.753 102.119 235.798 102.179 235.876" fill="#867E7A"/>
<path fill-rule="evenodd" clip-rule="evenodd" d="M105.886 241.882C103.899 236.89 103.436 234.737 103.407 234.598C103.306 234.662 103.075 234.919 102.098 235.745L102.099 235.746C102.099 235.746 102.126 235.79 102.179 235.876C102.592 236.545 104.516 239.662 105.749 241.661C105.794 241.735 105.84 241.808 105.886 241.882" fill="#272834"/>
<path fill-rule="evenodd" clip-rule="evenodd" d="M127.484 200.373C127.8 199.831 127.944 199.461 128.461 198.809C128.961 198.179 128.997 198.561 129.202 197.864C129.447 197.025 131.26 196.329 131.726 196.407C132.496 196.534 132.822 197.895 132.704 198.339C132.439 199.339 130.843 199.027 130.298 199.636C129.744 200.257 129.548 201.182 129.27 201.41C128.992 201.638 127.484 200.373 127.484 200.373" fill="#E7A89E"/>
<path fill-rule="evenodd" clip-rule="evenodd" d="M91.3984 232.789C91.4501 232.701 91.5034 232.613 91.5559 232.525C91.5398 232.523 91.5228 232.52 91.5066 232.516C91.4719 232.61 91.4356 232.701 91.3984 232.789" fill="#867E7A"/>
<path fill-rule="evenodd" clip-rule="evenodd" d="M89.8225 235.527C91.182 234.75 93.4866 234.794 94.6667 234.423C95.4947 234.163 98.3808 232.941 99.817 231.528C98.7685 232.018 96.0528 232.683 93.5124 232.683C92.8363 232.683 92.1723 232.636 91.556 232.525C91.5035 232.613 91.4502 232.701 91.3985 232.789C91.0439 233.624 90.552 234.302 89.8242 235.525C89.8234 235.526 89.8234 235.526 89.8225 235.527" fill="#272834"/>
<path fill-rule="evenodd" clip-rule="evenodd" d="M112.423 211.431L110.103 209.682C110.542 208.473 110.916 205.393 111.52 204.392C112.181 203.294 112.261 203.397 112.261 203.397L113.65 205.183L114.303 206.023C114.303 206.023 114.017 206.461 113.907 207.34C113.829 207.955 113.837 208.785 114.087 209.832C114.274 210.616 112.423 211.431 112.423 211.431" fill="#E7A89E"/>
<path fill-rule="evenodd" clip-rule="evenodd" d="M113.891 207.474V207.474C114.003 206.595 114.303 206.023 114.303 206.023C114.303 206.023 114.017 206.461 113.907 207.34C113.901 207.383 113.896 207.428 113.891 207.474" fill="#CABBA7"/>
<path fill-rule="evenodd" clip-rule="evenodd" d="M113.7 207.48C113.762 207.48 113.826 207.478 113.891 207.474C113.896 207.428 113.901 207.383 113.907 207.34C114.017 206.461 114.303 206.023 114.303 206.023L113.65 205.183C113.65 205.183 112.459 205.492 112.093 205.681C111.527 205.972 111.954 207.48 113.7 207.48" fill="#C7938D"/>
<path fill-rule="evenodd" clip-rule="evenodd" d="M115.138 200.795C115.482 201.816 117.102 203.531 116.397 203.702C115.693 203.874 117.127 205.858 116.383 206.067C114.583 206.574 112.211 205.94 111.76 205.122C111.308 204.304 110.831 201.826 110.831 201.826L115.138 200.795" fill="#E7A89E"/>
<path fill-rule="evenodd" clip-rule="evenodd" d="M113.515 202.256C114.104 202.183 114.155 202.313 114.509 202.021C114.862 201.728 114.031 201.346 114.749 201.038C115.467 200.73 116.276 200.482 116.143 199.607C115.95 198.342 114.9 198.805 114.257 199.115C113.844 199.315 113.501 198.394 112.639 198.649C111.963 198.85 112.141 199.229 111.546 199.435C111.186 199.559 110.318 199.13 109.853 199.715C108.991 200.799 110.129 201.589 109.46 202.684C108.68 203.961 111.613 205.554 111.825 205.222C112.073 204.834 111.333 203.892 111.6 203.563C112.001 203.066 112.167 203.472 112.677 203.76C113.223 204.068 114.047 203.892 113.323 203.216C112.599 202.54 112.982 202.323 113.515 202.256" fill="#191B28"/>
<path fill-rule="evenodd" clip-rule="evenodd" d="M110.837 206.684C112.026 206.764 112.108 208.833 112.96 209.218C113.477 209.452 113.474 208.539 113.816 208.373C114.027 208.271 114.152 208.154 114.333 208.568C117.43 215.658 107.443 228.761 107.443 228.761C107.443 228.761 100.996 229.785 98.1304 229.343C94.6764 228.81 96.0415 228.004 96.426 227.258C96.8105 226.511 107.6 208.671 107.6 208.671C107.6 208.671 108.685 207.608 110.837 206.684" fill="#FFFFFE"/>
<path fill-rule="evenodd" clip-rule="evenodd" d="M113.864 208.121C119.663 210.109 121.108 221.629 123.256 222.868C125.403 224.106 130.421 224.932 134.885 223.984C135.222 225.376 135.842 226.107 135.956 226.965C136.134 228.305 122.95 227.108 120.757 225.635C117.3 223.315 116.244 216.213 115.648 216.914C114.765 217.952 113.433 222.025 113.069 223.55C112.705 225.074 113.303 228.966 109.432 230.675C107.848 231.375 106.106 230.883 105.669 230.016C104.92 228.528 107.971 225.206 109.798 221.471C111.537 217.916 113.222 216.046 113.934 212.841C114.474 210.416 113.864 208.121 113.864 208.121" fill="#1B5E91"/>
<path fill-rule="evenodd" clip-rule="evenodd" d="M109.048 218.562C108.162 220.552 105.42 223.004 104.337 224.464C101.835 227.839 101.96 230.409 99.9397 231.467C98.2499 232.352 90.4929 233.966 88.6237 230.861C87.8943 229.651 91.9574 228.717 94.438 226.731C96.7079 224.913 98.1998 222.442 99.3226 220.571C100.412 218.756 101.309 216.063 102.568 212.987C103.372 211.024 105.728 208.854 106.935 208.22C109.807 206.711 110.793 206.693 110.793 206.693C110.448 207.956 110.935 214.327 109.048 218.562" fill="#1B5E91"/>
<path fill-rule="evenodd" clip-rule="evenodd" d="M100.037 219.215C100.231 218.805 100.421 218.367 100.614 217.906C100.421 218.368 100.23 218.805 100.037 219.215" fill="#C3B6A3"/>
<path fill-rule="evenodd" clip-rule="evenodd" d="M100.833 219.338C106.007 219.338 109.056 216.275 110.031 214.493C107.966 215.106 106.109 215.544 105.067 215.543C105.045 215.543 105.021 215.543 104.997 215.544C104.973 215.544 104.948 215.544 104.922 215.544C104.742 215.544 104.519 215.539 104.292 215.498C103.498 216.572 102.088 216.608 100.774 217.517C100.721 217.649 100.668 217.778 100.614 217.906C100.421 218.367 100.231 218.805 100.037 219.215C100.021 219.247 100.006 219.28 99.9914 219.311C100.277 219.329 100.558 219.338 100.833 219.338" fill="#1D5380"/>
<path fill-rule="evenodd" clip-rule="evenodd" d="M113.087 215.376C113.344 214.802 113.568 214.207 113.753 213.561C113.513 214.325 113.277 214.934 113.087 215.376" fill="#D5D5D5"/>
<path fill-rule="evenodd" clip-rule="evenodd" d="M112.752 216.224C113.455 216.224 116.778 213.187 117.642 211.844C116.568 212.27 115.243 212.766 113.846 213.254C113.815 213.359 113.783 213.46 113.752 213.561C113.568 214.207 113.344 214.802 113.087 215.376C112.888 215.838 112.739 216.12 112.686 216.21C112.685 216.211 112.685 216.211 112.685 216.211C112.704 216.22 112.727 216.224 112.752 216.224" fill="#1D5380"/>
<path fill-rule="evenodd" clip-rule="evenodd" d="M108.768 209.037C111.245 211.055 116.853 208.566 118.355 207.898C120.005 207.165 127.255 200.015 128.035 198.604C129.438 199.334 130.111 199.29 130.306 200.114C130.501 200.938 122.662 209.529 119.686 210.972C117.415 212.073 108.003 215.544 105.067 215.543C105.045 215.543 105.021 215.543 104.997 215.544C104.285 215.546 102.714 215.548 103.148 213.115C103.597 210.596 108.768 209.037 108.768 209.037" fill="#1B5E91"/>
<path fill-rule="evenodd" clip-rule="evenodd" d="M138.082 223.556C137.023 223.72 136.568 223.648 136.568 224.519C136.568 225.391 136.351 226.308 137.239 226.308C138.128 226.308 139.091 226.125 138.999 225.666C138.907 225.207 138.613 223.473 138.082 223.556" fill="#E7A89E"/>
<path fill-rule="evenodd" clip-rule="evenodd" d="M103.133 211.924C103.566 211.25 104.122 210.588 104.697 210.007C104.067 210.596 103.439 211.374 103.133 211.924" fill="#C1B4A1"/>
<path fill-rule="evenodd" clip-rule="evenodd" d="M103.664 212.01C104.152 211.369 104.908 210.818 105.69 210.37C105.324 210.229 104.983 210.1 104.698 210.005C104.697 210.005 104.697 210.006 104.697 210.007C104.122 210.588 103.566 211.25 103.133 211.924C103.132 211.925 103.131 211.927 103.13 211.929C103.297 211.953 103.476 211.98 103.664 212.01" fill="#1D527F"/>
<path fill-rule="evenodd" clip-rule="evenodd" d="M113.116 209.256C113.122 209.256 113.128 209.256 113.134 209.256C113.156 209.134 113.117 209.031 112.957 209.031C112.955 209.031 112.951 209.031 112.948 209.031C112.872 209.033 112.812 209.053 112.759 209.087C112.821 209.141 112.888 209.186 112.96 209.218C113.018 209.245 113.07 209.256 113.116 209.256" fill="#BD8C86"/>
<path fill-rule="evenodd" clip-rule="evenodd" d="M112.118 209.779C112.326 209.761 112.535 209.736 112.746 209.705C112.778 209.668 112.802 209.648 112.816 209.648C112.817 209.648 112.82 209.649 112.821 209.65C112.829 209.656 112.839 209.658 112.849 209.658C112.926 209.658 113.052 209.502 113.11 209.345C113.12 209.315 113.129 209.285 113.134 209.256C113.128 209.256 113.122 209.256 113.116 209.256C113.07 209.256 113.018 209.245 112.96 209.218C112.888 209.186 112.821 209.141 112.759 209.087C112.585 209.198 112.509 209.454 112.295 209.633C112.238 209.681 112.178 209.73 112.118 209.779" fill="#D3D3D1"/>
<path fill-rule="evenodd" clip-rule="evenodd" d="M108.694 212.648C108.76 212.648 108.821 212.647 108.88 212.645C109.327 212.627 109.757 212.503 110.159 212.318C111.446 211.73 112.458 210.037 112.746 209.705C112.535 209.736 112.326 209.761 112.118 209.779C111.597 210.198 110.944 210.651 110.193 210.96C109.746 211.145 109.266 211.278 108.76 211.325C108.739 211.327 108.716 211.328 108.693 211.328C108.128 211.327 106.801 210.797 105.69 210.37C104.908 210.818 104.152 211.369 103.664 212.01C105.24 212.255 107.469 212.648 108.694 212.648" fill="#1D527F"/>
<path fill-rule="evenodd" clip-rule="evenodd" d="M113.489 209.234C113.48 209.027 113.341 208.691 112.904 208.7C112.576 208.708 112.547 208.841 112.269 209.074C111.434 209.774 110.192 210.632 108.734 210.766C107.275 210.9 103.986 208.932 101.824 209.363C99.6627 209.795 98.9745 211.715 95.8565 212.158C92.7394 212.601 89.4178 211.231 88.4978 211.373C87.5778 211.515 87.0188 211.706 87.0357 212.07C87.0527 212.434 87.4994 213.043 88.1392 213.311C88.7797 213.579 94.4494 214.061 95.9519 213.884C98.4042 213.597 100.545 211.424 102.124 211.311C103.702 211.198 107.005 212.157 108.854 212.085C110.917 212.005 112.635 209.633 112.77 209.727C112.904 209.82 113.226 209.634 113.492 209.572C113.673 209.529 113.499 209.44 113.489 209.234" fill="#E8A72D"/>
<mask id="mask1" mask-type="alpha" maskUnits="userSpaceOnUse" x="181" y="151" width="92" height="58">
<path fill-rule="evenodd" clip-rule="evenodd" d="M272.321 151.062H181.556V208.033H272.321V151.062Z" fill="white"/>
</mask>
<g mask="url(#mask1)">
<path fill-rule="evenodd" clip-rule="evenodd" d="M183.3 189.413C184.619 198.269 188.779 203.686 189.773 195.658C188.88 189.774 188.556 184.749 188.935 180.875C188.949 180.738 188.963 180.603 188.978 180.469C189.443 176.367 190.035 175.173 192.523 174.831C196.626 174.265 197.184 176.892 196.091 179.953C196.516 179.883 198.284 179.646 200.609 178.933C200.699 181.376 200.078 184.584 198.908 188.395C200.454 186.707 201.906 185.196 202.861 184.541C205.437 182.773 210.925 174.194 212.572 169.317C216.053 166.575 217.153 167.015 220.007 167.848C222.858 168.68 256.385 179.923 264.761 183.19C273.137 186.456 302.17 202.188 310.298 201.475C318.426 200.763 319.877 167.098 319.877 167.098C309.32 167.245 288.296 163.352 267.987 159.459C247.194 155.473 227.151 151.487 219.856 151.836C205.437 152.528 203.446 153.159 195.894 157.968C188.342 162.777 185.875 166.672 182.865 168.099C180.754 169.1 181.758 175.428 182.061 181.51C182.089 182.057 182.11 182.602 182.123 183.14C182.175 185.235 182.988 187.313 183.3 189.413" fill="#E6A389"/>
<path fill-rule="evenodd" clip-rule="evenodd" d="M323.432 167.489C290.168 160.119 227.804 149.158 226.468 151.345C225.132 153.532 220.08 168.293 221.709 169.048C223.337 169.803 292.94 195.519 309.588 204.937C326.236 214.355 323.432 167.489 323.432 167.489" fill="#FFFFFE"/>
<path fill-rule="evenodd" clip-rule="evenodd" d="M327.441 167.971C291.845 160.531 233.843 150.067 232.797 151.187C231.751 152.308 223.749 171.152 225.377 172.073C227.006 172.994 314.667 208.086 315.586 208.033C316.505 207.981 327.441 167.971 327.441 167.971" fill="#003974"/>
</g>
<path fill-rule="evenodd" clip-rule="evenodd" d="M261.869 186.868C251.558 182.738 241.873 178.84 235.07 176.08C241.873 178.841 251.558 182.738 261.869 186.868M225.324 172.033C225.189 171.905 225.141 171.616 225.165 171.199C225.141 171.617 225.189 171.905 225.324 172.033M225.264 170.419L225.264 170.419C223.176 169.626 221.912 169.142 221.709 169.048C221.677 169.033 221.647 169.013 221.62 168.987C221.647 169.013 221.677 169.033 221.709 169.048C221.912 169.142 223.175 169.626 225.264 170.419M221.389 168.318C221.388 168.309 221.388 168.301 221.387 168.292H221.387C221.388 168.301 221.388 168.309 221.389 168.318M219.376 167.664C218.611 167.442 217.969 167.272 217.346 167.226C217.969 167.272 218.611 167.442 219.376 167.664" fill="#B1A796"/>
<path fill-rule="evenodd" clip-rule="evenodd" d="M221.397 168.285C221.368 167.851 221.418 167.257 221.531 166.55C219.457 166.596 217.755 166.819 216.496 167.245C216.669 167.223 216.839 167.213 217.01 167.213C217.122 167.213 217.233 167.217 217.346 167.226C217.969 167.272 218.611 167.442 219.376 167.664C219.577 167.722 219.786 167.784 220.006 167.848C220.253 167.919 220.728 168.069 221.397 168.285C221.397 168.285 221.397 168.285 221.397 168.285H221.397" fill="#AF7F71"/>
<path fill-rule="evenodd" clip-rule="evenodd" d="M225.264 170.419C225.433 169.463 225.798 168.166 226.281 166.693C226.28 166.693 226.28 166.693 226.28 166.693C224.878 166.593 223.573 166.541 222.378 166.541C222.089 166.541 221.807 166.544 221.531 166.55C221.418 167.257 221.368 167.851 221.397 168.285C221.397 168.292 221.398 168.299 221.398 168.306C221.423 168.633 221.494 168.868 221.62 168.987C221.647 169.013 221.677 169.033 221.709 169.048C221.912 169.142 223.176 169.626 225.264 170.419" fill="#C0C1C1"/>
<path fill-rule="evenodd" clip-rule="evenodd" d="M272.321 191.047V175.829C254.924 171.339 237.493 167.493 226.28 166.693C225.798 168.166 225.433 169.463 225.264 170.418L225.264 170.419C225.264 170.419 225.264 170.419 225.264 170.419C225.212 170.713 225.178 170.974 225.165 171.199C225.141 171.616 225.189 171.905 225.324 172.033C225.34 172.049 225.358 172.062 225.377 172.073C225.699 172.254 229.374 173.769 235.071 176.08C241.873 178.84 251.558 182.738 261.869 186.868C265.31 188.246 268.825 189.652 272.321 191.047" fill="#1D4D77"/>
<path opacity="0.8" d="M231.867 190.464H228.479C229.22 191.172 229.714 192.052 229.961 193.106H231.867V195.503H230.067C229.926 196.52 229.564 197.396 228.982 198.131C228.399 198.867 227.632 199.443 226.679 199.861L231.681 207.133H228.002L223.503 200.542H219.4V198.145H222.656C224.95 198.145 226.291 197.264 226.679 195.503H219.4V193.106H226.679C226.467 192.234 226.017 191.576 225.329 191.131C224.641 190.686 223.75 190.464 222.656 190.464H219.4V188.067H231.867V190.464Z" fill="#F58220"/>
</g>
<defs>
<filter id="filter0_d" x="-14" y="-12" width="300" height="310" filterUnits="userSpaceOnUse" color-interpolation-filters="sRGB">
<feFlood flood-opacity="0" result="BackgroundImageFix"/>
<feColorMatrix in="SourceAlpha" type="matrix" values="0 0 0 0 0 0 0 0 0 0 0 0 0 0 0 0 0 0 127 0"/>
<feMorphology radius="5" operator="dilate" in="SourceAlpha" result="effect1_dropShadow"/>
<feOffset dy="2"/>
<feGaussianBlur stdDeviation="4.5"/>
<feColorMatrix type="matrix" values="0 0 0 0 0 0 0 0 0 0.223529 0 0 0 0 0.454902 0 0 0 0.0281906 0"/>
<feBlend mode="normal" in2="BackgroundImageFix" result="effect1_dropShadow"/>
<feBlend mode="normal" in="SourceGraphic" in2="effect1_dropShadow" result="shape"/>
</filter>
<linearGradient id="paint0_linear" x1="169.321" y1="-51.5128" x2="205.012" y2="120.846" gradientUnits="userSpaceOnUse">
<stop stop-color="#FEBD59"/>
<stop offset="1" stop-color="#F58220"/>
</linearGradient>
<linearGradient id="paint1_linear" x1="-14.6791" y1="-54.3609" x2="-64.6843" y2="117.997" gradientUnits="userSpaceOnUse">
<stop stop-color="#F58220"/>
<stop offset="1" stop-color="#FEBD59"/>
</linearGradient>
</defs>
</svg>
