<?xml version="1.0" encoding="UTF-8"?>
<svg width="10px" height="10px" viewBox="0 0 10 10" version="1.1" xmlns="http://www.w3.org/2000/svg" xmlns:xlink="http://www.w3.org/1999/xlink">
    <!-- Generator: Sketch 63.1 (92452) - https://sketch.com -->
    <title>paused</title>
    <desc>Created with Sketch.</desc>
    <g id="Page-1" stroke="none" stroke-width="1" fill="none" fill-rule="evenodd">
        <g id="06-my-transactions-copy-2" transform="translate(-935.000000, -698.000000)" fill="#DF9229" fill-rule="nonzero">
            <g id="Group-6" transform="translate(935.000000, 692.000000)">
                <g id="Group-24">
                    <g id="paused" transform="translate(0.000000, 6.000000)">
                        <path d="M4.99915441,9.99827206 C7.76007353,9.99827206 9.99830882,7.76007353 9.99830882,4.99911765 C9.99830882,2.23816176 7.76007353,0 4.99915441,0 C2.23823529,0 0,2.23819853 0,4.99915441 C0,7.76011029 2.23819853,9.99827206 4.99915441,9.99827206 Z M4.99915441,0.799852941 C7.31455882,0.799852941 9.19841912,2.68371324 9.19841912,4.99911765 C9.19841912,7.31452206 7.31455882,9.19838235 4.99915441,9.19838235 C2.68375,9.19838235 0.799889706,7.31452206 0.799889706,4.99911765 C0.799889706,2.68371324 2.68352941,0.799852941 4.99915441,0.799852941 Z" id="Shape"></path>
                        <path d="M4.07011029,7.35713235 C4.34625,7.35713235 4.57003676,7.13338235 4.57003676,6.85720588 L4.57003676,3.05786765 C4.57003676,2.78172794 4.34628676,2.55794118 4.07011029,2.55794118 C3.79397059,2.55794118 3.57018382,2.78169118 3.57018382,3.05786765 L3.57018382,6.85720588 C3.57018382,7.13338235 3.79393382,7.35713235 4.07011029,7.35713235 Z" id="Path"></path>
                        <path d="M6.06974265,7.35713235 C6.34588235,7.35713235 6.56966912,7.13338235 6.56966912,6.85720588 L6.56966912,3.05786765 C6.56966912,2.78172794 6.34591912,2.55794118 6.06974265,2.55794118 C5.79356618,2.55794118 5.56985294,2.78172794 5.56985294,3.05786765 L5.56985294,6.85720588 C5.56985294,7.13338235 5.79360294,7.35713235 6.06974265,7.35713235 Z" id="Path"></path>
                    </g>
                </g>
            </g>
        </g>
    </g>
</svg>