<svg width="75" height="75" viewBox="0 0 75 75" fill="none" xmlns="http://www.w3.org/2000/svg">
<path fill-rule="evenodd" clip-rule="evenodd" d="M46.2499 31.6936C46.1614 31.8686 45.9843 31.9999 45.8072 31.9999H25.4426C25.2655 31.9999 25.0884 31.8686 25.0884 31.6936C24.9999 31.5186 25.0884 31.2999 25.2655 31.2124L35.4478 25.0874C35.5806 24.9999 35.7577 24.9999 35.8905 25.0874L46.0728 31.2124C46.2056 31.2999 46.2942 31.5186 46.2499 31.6936ZM44.2134 31.1249L35.6249 25.9624L27.0364 31.1249H44.2134Z" fill="#003974"/>
<path fill-rule="evenodd" clip-rule="evenodd" d="M25.4427 43.2H45.8073C46.0729 43.2 46.25 43.375 46.25 43.6375V45.5625C46.25 45.825 46.0729 46 45.8073 46H25.4427C25.1771 46 25 45.825 25 45.5625V43.6375C25 43.375 25.1771 43.2 25.4427 43.2ZM25.8854 45.125H45.3646V44.075H25.8854V45.125Z" fill="#003974"/>
<path fill-rule="evenodd" clip-rule="evenodd" d="M33.8545 28.9373C33.8545 27.9748 34.6514 27.1873 35.6253 27.1873C36.5993 27.1873 37.3962 27.9748 37.3962 28.9373C37.3962 29.8998 36.5993 30.6873 35.6253 30.6873C34.6514 30.6873 33.8545 29.8998 33.8545 28.9373ZM34.7399 28.9373C34.7399 29.4185 35.1383 29.8123 35.6253 29.8123C36.1123 29.8123 36.5107 29.4185 36.5107 28.9373C36.5107 28.456 36.1123 28.0623 35.6253 28.0623C35.1383 28.0623 34.7399 28.456 34.7399 28.9373Z" fill="#003974"/>
<path d="M27.5312 33.146V42.0049" stroke="#003974" stroke-width="1.5"/>
<path d="M32.5312 33.146V42.0049" stroke="#003974" stroke-width="1.5"/>
<path d="M38.1562 33.146V42.0049" stroke="#003974" stroke-width="1.5"/>
<path d="M43.7812 33.146V42.0049" stroke="#003974" stroke-width="1.5"/>
<path d="M35.675 40.9548V42.0048" stroke="#003974" stroke-width="1.5"/>
<path d="M30.675 40.9548V42.0048" stroke="#003974" stroke-width="1.5"/>
<path d="M41.3195 40.9548V42.0048" stroke="#003974" stroke-width="1.5"/>
<path fill-rule="evenodd" clip-rule="evenodd" d="M55.1633 20.2238L56.2423 19.1818C45.9797 8.55454 29.0451 8.25895 18.4178 18.5216L19.4598 19.6006C29.4911 9.91343 45.4761 10.1925 55.1633 20.2238ZM18.8366 55.304L17.7576 56.346C28.0202 66.9733 44.9548 67.2689 55.582 57.0062L54.5401 55.9272C44.5087 65.6144 28.5237 65.3354 18.8366 55.304Z" fill="#F78200"/>
<path fill-rule="evenodd" clip-rule="evenodd" d="M57.2392 20.2561L56.7326 19.7031C56.5717 19.5274 56.4082 19.3536 56.2423 19.1818L55.7213 18.6423L54.6423 19.6843L55.1633 20.2238C55.3201 20.3862 55.4745 20.5504 55.6266 20.7164L56.1332 21.2694L57.2392 20.2561ZM59.8155 23.7886L60.2079 24.4278L58.9295 25.2125L58.5371 24.5733C58.3679 24.2977 58.1933 24.0251 58.0132 23.7557L57.5965 23.1321L58.8436 22.2986L59.2603 22.9222C59.4511 23.2077 59.6362 23.4965 59.8155 23.7886ZM62.3496 29.1702L62.0893 28.4668C61.9703 28.1452 61.8451 27.8259 61.7137 27.5089L61.4264 26.8161L60.0408 27.3907L60.3281 28.0835C60.4521 28.3825 60.5702 28.6838 60.6825 28.9873L60.9428 29.6907L62.3496 29.1702ZM63.4067 33.4779L63.5262 34.2183L62.0454 34.4574L61.9258 33.717C61.8743 33.3975 61.8166 33.079 61.7528 32.7617L61.6049 32.0265L63.0755 31.7308L63.2233 32.4661C63.2909 32.8021 63.352 33.1395 63.4067 33.4779ZM63.7142 39.3375L63.7373 38.5878C63.7478 38.2452 63.7518 37.9024 63.7492 37.5596L63.7436 36.8096L62.2436 36.8208L62.2492 37.5708C62.2517 37.8945 62.2479 38.2182 62.238 38.5418L62.2149 39.2914L63.7142 39.3375ZM63.0844 43.7071L62.9185 44.4385L61.4556 44.1066L61.6216 43.3752C61.6932 43.0596 61.7587 42.7427 61.8182 42.4246L61.956 41.6874L63.4304 41.9629L63.2927 42.7001C63.2297 43.0371 63.1603 43.3728 63.0844 43.7071ZM61.1529 49.3026L61.4569 48.6169C61.5959 48.3033 61.7288 47.9872 61.8556 47.6686L62.1328 46.9717L60.739 46.4172L60.4618 47.1141C60.3422 47.4147 60.2168 47.7131 60.0856 48.009L59.7816 48.6946L61.1529 49.3026ZM58.9253 53.0969L58.4948 53.711L57.2665 52.8501L57.697 52.2359C57.8828 51.9709 58.0633 51.7025 58.2383 51.4309L58.6448 50.8006L59.9054 51.6134L59.499 52.2438C59.3135 52.5315 59.1222 52.816 58.9253 53.0969ZM55.0425 57.5272L55.582 57.0062C55.8288 56.7679 56.0706 56.5255 56.3072 56.279L56.8267 55.738L55.7447 54.6991L55.2253 55.2401C55.0017 55.473 54.7733 55.702 54.5401 55.9272L54.0005 56.4482L55.0425 57.5272ZM18.9573 18.0006L18.4178 18.5216C18.171 18.7599 17.9293 19.0023 17.6926 19.2488L17.1732 19.7898L18.2551 20.8287L18.7746 20.2877C18.9982 20.0549 19.2266 19.8258 19.4598 19.6006L19.9993 19.0796L18.9573 18.0006ZM15.505 21.8168L15.0745 22.4309C14.8776 22.7118 14.6864 22.9963 14.5008 23.284L14.0944 23.9144L15.3551 24.7272L15.7615 24.0969C15.9366 23.8253 16.1171 23.557 16.3029 23.2919L16.7333 22.6777L15.505 21.8168ZM12.543 26.9109L12.847 26.2252L14.2182 26.8332L13.9143 27.5188C13.7831 27.8147 13.6576 28.1131 13.5381 28.4137L13.2608 29.1106L11.8671 28.5561L12.1443 27.8592C12.271 27.5406 12.4039 27.2245 12.543 26.9109ZM11.0814 31.0893L10.9155 31.8207C10.8396 32.155 10.7702 32.4907 10.7072 32.8277L10.5694 33.5649L12.0439 33.8405L12.1817 33.1032C12.2411 32.7851 12.3067 32.4682 12.3783 32.1526L12.5442 31.4212L11.0814 31.0893ZM10.2626 36.94L10.2856 36.1903L11.7849 36.2364L11.7619 36.986C11.752 37.3096 11.7482 37.6333 11.7506 37.957L11.7562 38.707L10.2563 38.7182L10.2507 37.9682C10.2481 37.6254 10.2521 37.2826 10.2626 36.94ZM10.4737 41.3095L10.5932 42.0499C10.6478 42.3883 10.7089 42.7257 10.7765 43.0618L10.9244 43.797L12.3949 43.5013L12.2471 42.7661C12.1833 42.4488 12.1256 42.1303 12.074 41.8109L11.9545 41.0704L10.4737 41.3095ZM11.9105 47.061L11.6503 46.3576L13.0571 45.8371L13.3173 46.5405C13.4296 46.844 13.5478 47.1453 13.6718 47.4444L13.959 48.1372L12.5734 48.7117L12.2862 48.0189C12.1547 47.7019 12.0295 47.3826 11.9105 47.061ZM13.792 51.1L14.1843 51.7392C14.3636 52.0313 14.5487 52.3202 14.7395 52.6057L15.1563 53.2292L16.4034 52.3957L15.9866 51.7721C15.8066 51.5027 15.6319 51.2301 15.4627 50.9545L15.0704 50.3153L13.792 51.1ZM17.2672 55.8247L16.7606 55.2717L17.8666 54.2584L18.3733 54.8115C18.5253 54.9774 18.6798 55.1416 18.8366 55.304L19.3576 55.8435L18.2786 56.8855L17.7576 56.346C17.5916 56.1742 17.4282 56.0004 17.2672 55.8247Z" fill="#F78200"/>
</svg>
