<svg width="14" height="12" viewBox="0 0 14 12" fill="none" xmlns="http://www.w3.org/2000/svg">
<path d="M0.608 3.04V2.896C0.608 1.95733 0.874667 1.24267 1.408 0.752C1.94133 0.250666 2.62933 -9.53674e-07 3.472 -9.53674e-07C3.888 -9.53674e-07 4.272 0.0639992 4.624 0.191999C4.98667 0.309333 5.296 0.479999 5.552 0.704C5.81867 0.927999 6.02667 1.216 6.176 1.568C6.32533 1.92 6.4 2.32533 6.4 2.784V2.992C6.4 3.45067 6.32533 3.86133 6.176 4.224C6.02667 4.58667 5.81867 4.89067 5.552 5.136C5.296 5.38133 4.98667 5.568 4.624 5.696C4.272 5.81333 3.888 5.872 3.472 5.872C2.62933 5.872 1.94133 5.632 1.408 5.152C0.874667 4.672 0.608 3.968 0.608 3.04ZM4.608 3.024L4.624 2.816C4.624 2.25067 4.528 1.84533 4.336 1.6C4.15467 1.35467 3.88267 1.232 3.52 1.232C3.12533 1.232 2.82667 1.35467 2.624 1.6C2.42133 1.83467 2.32 2.21867 2.32 2.752L2.304 3.024C2.304 3.6 2.39467 4.01067 2.576 4.256C2.768 4.49067 3.06667 4.608 3.472 4.608C3.87733 4.608 4.16533 4.49067 4.336 4.256C4.51733 4.01067 4.608 3.6 4.608 3.024ZM9.984 0.079999H11.872L4.192 12H2.224L9.984 0.079999ZM8.032 8.944V8.8C8.032 7.86133 8.29333 7.14667 8.816 6.656C9.34933 6.16533 10.0373 5.92 10.88 5.92C11.296 5.92 11.68 5.984 12.032 6.112C12.384 6.22933 12.688 6.4 12.944 6.624C13.2107 6.848 13.4187 7.136 13.568 7.488C13.7173 7.82933 13.792 8.22933 13.792 8.688V8.896C13.792 9.35467 13.7173 9.76533 13.568 10.128C13.4187 10.48 13.2107 10.7787 12.944 11.024C12.688 11.2693 12.384 11.456 12.032 11.584C11.68 11.7013 11.296 11.76 10.88 11.76C10.0373 11.76 9.34933 11.52 8.816 11.04C8.29333 10.56 8.032 9.86133 8.032 8.944ZM12.016 8.928L12.032 8.72C12.032 8.15467 11.936 7.75467 11.744 7.52C11.5627 7.27467 11.2907 7.152 10.928 7.152C10.5333 7.152 10.2347 7.26933 10.032 7.504C9.82933 7.73867 9.728 8.12267 9.728 8.656L9.712 8.928C9.712 9.504 9.80267 9.90933 9.984 10.144C10.176 10.3787 10.4747 10.496 10.88 10.496C11.2853 10.496 11.5733 10.3787 11.744 10.144C11.9253 9.90933 12.016 9.504 12.016 8.928Z" fill="#003974"/>
</svg>
