<svg width="76" height="76" viewBox="0 0 76 76" fill="none" xmlns="http://www.w3.org/2000/svg">
<path fill-rule="evenodd" clip-rule="evenodd" d="M39.6648 47.7954H38.7823V42.214C38.7823 39.767 37.2631 37.5706 34.9773 36.674C34.7882 36.8164 34.585 36.9413 34.3699 37.0459C34.3699 37.0459 33.314 37.4042 32.7521 37.4042C32.2354 37.4042 31.1342 37.0459 31.1342 37.0459C30.9191 36.9413 30.7159 36.8164 30.5269 36.674C28.2411 37.5706 26.7218 39.767 26.7218 42.214V47.7954H25.8394V42.214C25.8394 39.536 27.4275 37.1208 29.8516 36.0131C29.3657 35.3971 29.0751 34.6235 29.0751 33.7838V31.1494C28.1886 30.8664 27.5455 30.0435 27.5455 29.0745V27.8245H34.2229C35.4394 27.8245 36.4291 28.8025 36.4291 30.0047V30.3826V31.2547C36.3922 31.7806 36.4073 32.271 36.4217 32.7374C36.4583 33.9219 36.4901 34.9513 35.6526 36.0131C38.0767 37.1208 39.6648 39.536 39.6648 42.214V47.7954ZM31.8402 32.8535H30.9577V33.7256H31.8402V32.8535ZM29.3104 42.214H28.4279V47.7954H29.3104V42.214ZM37.0762 47.7954H36.1937V42.214H37.0762V47.7954ZM33.664 32.8535H34.5464V33.7256H33.664V32.8535ZM29.9576 31.2547H35.5466V33.7838C35.5466 35.3065 34.2929 36.5454 32.7521 36.5454C31.2112 36.5454 29.9576 35.3065 29.9576 33.7838V31.2547ZM35.5466 30.0047C35.5466 29.2834 34.9528 28.6966 34.2229 28.6966H28.4279V29.0745C28.4279 29.7957 29.0217 30.3826 29.7517 30.3826H35.5466V30.0047ZM54.2992 39.5686H53.4167V38.6966H54.2992V39.5686Z" fill="#F78200"/>
<path d="M42.084 35.6423V34.3923H54.4236V35.6423H42.084Z" fill="#F78200"/>
<path d="M42.062 39.8718V38.6218H51.8639V39.8718H42.062Z" fill="#F78200"/>
<path d="M42.062 44.1472V42.8972H54.4233V44.1472H42.062Z" fill="#F78200"/>
<path fill-rule="evenodd" clip-rule="evenodd" d="M55.988 20.2843L57.067 19.2423C46.8044 8.61509 29.8698 8.3195 19.2425 18.5821L20.2845 19.6611C30.3158 9.97398 46.3008 10.253 55.988 20.2843ZM19.6613 55.3646L18.5823 56.4066C28.8449 67.0338 45.7795 67.3294 56.4067 57.0668L55.3648 55.9878C45.3334 65.6749 29.3485 65.3959 19.6613 55.3646Z" fill="#F78200"/>
<path fill-rule="evenodd" clip-rule="evenodd" d="M58.064 20.3166L57.5573 19.7636C57.3964 19.588 57.2329 19.4142 57.067 19.2423L56.546 18.7028L55.467 19.7448L55.988 20.2843C56.1448 20.4467 56.2992 20.6109 56.4513 20.7769L56.958 21.3299L58.064 20.3166ZM60.6402 23.8492L61.0326 24.4884L59.7542 25.273L59.3618 24.6338C59.1927 24.3582 59.018 24.0856 58.8379 23.8162L58.4212 23.1927L59.6683 22.3591L60.085 22.9827C60.2759 23.2682 60.4609 23.5571 60.6402 23.8492ZM63.1743 29.2308L62.914 28.5274C62.795 28.2058 62.6698 27.8864 62.5384 27.5695L62.2511 26.8767L60.8655 27.4512L61.1528 28.144C61.2768 28.443 61.3949 28.7444 61.5072 29.0479L61.7675 29.7513L63.1743 29.2308ZM64.2314 33.5385L64.3509 34.2789L62.8701 34.5179L62.7506 33.7775C62.699 33.458 62.6413 33.1396 62.5775 32.8223L62.4296 32.087L63.9002 31.7913L64.0481 32.5266C64.1156 32.8627 64.1767 33.2 64.2314 33.5385ZM64.5389 39.398L64.562 38.6484C64.5725 38.3057 64.5765 37.9629 64.5739 37.6201L64.5683 36.8702L63.0683 36.8814L63.0739 37.6314C63.0764 37.9551 63.0726 38.2788 63.0627 38.6023L63.0396 39.352L64.5389 39.398ZM63.9091 43.7677L63.7432 44.4991L62.2803 44.1672L62.4463 43.4358C62.5179 43.1202 62.5834 42.8032 62.6429 42.4851L62.7807 41.7479L64.2551 42.0235L64.1174 42.7607C64.0544 43.0977 63.985 43.4334 63.9091 43.7677ZM61.9776 49.3631L62.2816 48.6775C62.4206 48.3639 62.5535 48.0477 62.6803 47.7291L62.9575 47.0322L61.5638 46.4778L61.2865 47.1747C61.1669 47.4753 61.0415 47.7736 60.9103 48.0695L60.6063 48.7552L61.9776 49.3631ZM59.75 53.1574L59.3196 53.7716L58.0912 52.9106L58.5217 52.2965C58.7075 52.0314 58.888 51.763 59.063 51.4915L59.4695 50.8611L60.7301 51.674L60.3237 52.3043C60.1382 52.5921 59.9469 52.8765 59.75 53.1574ZM55.8672 57.5878L56.4067 57.0668C56.6535 56.8285 56.8953 56.586 57.1319 56.3396L57.6514 55.7986L56.5694 54.7597L56.05 55.3006C55.8264 55.5335 55.598 55.7626 55.3648 55.9878L54.8253 56.5088L55.8672 57.5878ZM19.782 18.0611L19.2425 18.5821C18.9957 18.8204 18.754 19.0629 18.5173 19.3093L17.9979 19.8503L19.0798 20.8892L19.5993 20.3483C19.8229 20.1154 20.0513 19.8863 20.2845 19.6611L20.824 19.1401L19.782 18.0611ZM16.3297 21.8773L15.8992 22.4915C15.7024 22.7724 15.5111 23.0568 15.3255 23.3446L14.9191 23.9749L16.1798 24.7878L16.5862 24.1574C16.7613 23.8859 16.9418 23.6175 17.1276 23.3524L17.558 22.7383L16.3297 21.8773ZM13.3677 26.9714L13.6717 26.2858L15.0429 26.8937L14.739 27.5794C14.6078 27.8753 14.4824 28.1736 14.3628 28.4743L14.0855 29.1711L12.6918 28.6167L12.969 27.9198C13.0957 27.6012 13.2287 27.285 13.3677 26.9714ZM11.9061 31.1498L11.7402 31.8812C11.6643 32.2155 11.5949 32.5513 11.5319 32.8882L11.3941 33.6254L12.8686 33.901L13.0064 33.1638C13.0658 32.8457 13.1314 32.5287 13.203 32.2131L13.3689 31.4817L11.9061 31.1498ZM11.0873 37.0005L11.1104 36.2509L12.6096 36.2969L12.5866 37.0466C12.5767 37.3701 12.5729 37.6939 12.5753 38.0175L12.5809 38.7675L11.081 38.7788L11.0754 38.0288C11.0728 37.686 11.0768 37.3432 11.0873 37.0005ZM11.2984 41.37L11.4179 42.1104C11.4725 42.4489 11.5336 42.7862 11.6012 43.1223L11.7491 43.8576L13.2196 43.5619L13.0718 42.8266C13.008 42.5093 12.9503 42.1909 12.8987 41.8714L12.7792 41.131L11.2984 41.37ZM12.7352 47.1215L12.475 46.4181L13.8818 45.8977L14.142 46.6011C14.2543 46.9045 14.3725 47.2059 14.4965 47.5049L14.7837 48.1977L13.3981 48.7722L13.1109 48.0794C12.9795 47.7625 12.8542 47.4431 12.7352 47.1215ZM14.6167 51.1605L15.0091 51.7997C15.1883 52.0918 15.3734 52.3807 15.5642 52.6662L15.981 53.2898L17.2281 52.4562L16.8113 51.8327C16.6313 51.5633 16.4566 51.2907 16.2874 51.0151L15.8951 50.3759L14.6167 51.1605ZM18.092 55.8853L17.5853 55.3323L18.6913 54.319L19.198 54.872C19.35 55.038 19.5045 55.2022 19.6613 55.3646L20.1823 55.9041L19.1033 56.9461L18.5823 56.4066C18.4163 56.2347 18.2529 56.0609 18.092 55.8853Z" fill="#F78200"/>
</svg>
