<svg width="75" height="74" viewBox="0 0 75 74" fill="none" xmlns="http://www.w3.org/2000/svg">
<path fill-rule="evenodd" clip-rule="evenodd" d="M38.8401 46.9709H37.9576V41.3895C37.9576 38.9426 36.4384 36.7461 34.1526 35.8495C33.9635 35.992 33.7603 36.1168 33.5452 36.2214C33.5452 36.2214 32.4893 36.5797 31.9274 36.5797C31.4107 36.5797 30.3095 36.2214 30.3095 36.2214C30.0944 36.1168 29.8911 35.992 29.7022 35.8495C27.4164 36.7461 25.8971 38.9426 25.8971 41.3895V46.9709H25.0146V41.3895C25.0146 38.7115 26.6028 36.2963 29.0269 35.1886C28.541 34.5726 28.2504 33.7991 28.2504 32.9593V30.3249C27.3639 30.042 26.7208 29.219 26.7208 28.25V27H33.3982C34.6147 27 35.6043 27.978 35.6043 29.1802V29.5581V30.4302C35.5675 30.9561 35.5826 31.4466 35.597 31.9129C35.6336 33.0974 35.6654 34.1268 34.8279 35.1886C37.252 36.2963 38.8401 38.7115 38.8401 41.3895V46.9709ZM31.0155 32.0291H30.133V32.9012H31.0155V32.0291ZM28.4857 41.3895H27.6032V46.9709H28.4857V41.3895ZM36.2515 46.9709H35.369V41.3895H36.2515V46.9709ZM32.8393 32.0291H33.7217V32.9012H32.8393V32.0291ZM29.1329 30.4302H34.7219V32.9593C34.7219 34.482 33.4682 35.7209 31.9274 35.7209C30.3865 35.7209 29.1329 34.482 29.1329 32.9593V30.4302ZM34.7219 29.1802C34.7219 28.459 34.1281 27.8721 33.3982 27.8721H27.6032V28.25C27.6032 28.9713 28.197 29.5581 28.927 29.5581H34.7219V29.1802ZM53.4745 38.7442H52.592V37.8721H53.4745V38.7442Z" fill="#003974"/>
<path d="M41.2588 34.8179V33.5679H53.5985V34.8179H41.2588Z" fill="#003974"/>
<path d="M41.2373 39.0474V37.7974H51.0391V39.0474H41.2373Z" fill="#003974"/>
<path d="M41.2373 43.3228V42.0728H53.5986V43.3228H41.2373Z" fill="#003974"/>
<path fill-rule="evenodd" clip-rule="evenodd" d="M55.1633 19.4599L56.2423 18.4179C45.9797 7.79063 29.0451 7.49503 18.4178 17.7576L19.4598 18.8367C29.4911 9.14952 45.4761 9.42853 55.1633 19.4599ZM18.8366 54.5401L17.7576 55.5821C28.0202 66.2094 44.9548 66.5049 55.582 56.2423L54.5401 55.1633C44.5087 64.8505 28.5237 64.5714 18.8366 54.5401Z" fill="#F78200"/>
<path fill-rule="evenodd" clip-rule="evenodd" d="M57.2392 19.4922L56.7326 18.9392C56.5717 18.7635 56.4082 18.5897 56.2423 18.4179L55.7213 17.8784L54.6423 18.9204L55.1633 19.4599C55.3201 19.6223 55.4745 19.7865 55.6266 19.9524L56.1332 20.5054L57.2392 19.4922ZM59.8155 23.0247L60.2079 23.6639L58.9295 24.4486L58.5371 23.8094C58.3679 23.5338 58.1933 23.2612 58.0132 22.9917L57.5965 22.3682L58.8436 21.5347L59.2603 22.1582C59.4511 22.4437 59.6362 22.7326 59.8155 23.0247ZM62.3496 28.4063L62.0893 27.7029C61.9703 27.3813 61.8451 27.0619 61.7137 26.745L61.4264 26.0522L60.0408 26.6267L60.3281 27.3195C60.4521 27.6186 60.5702 27.9199 60.6825 28.2234L60.9428 28.9268L62.3496 28.4063ZM63.4067 32.714L63.5262 33.4544L62.0454 33.6935L61.9258 32.953C61.8743 32.6336 61.8166 32.3151 61.7528 31.9978L61.6049 31.2625L63.0755 30.9669L63.2233 31.7021C63.2909 32.0382 63.352 32.3756 63.4067 32.714ZM63.7142 38.5736L63.7373 37.8239C63.7478 37.4813 63.7518 37.1385 63.7492 36.7957L63.7436 36.0457L62.2436 36.0569L62.2492 36.8069C62.2517 37.1306 62.2479 37.4543 62.238 37.7778L62.2149 38.5275L63.7142 38.5736ZM63.0844 42.9432L62.9185 43.6746L61.4556 43.3427L61.6216 42.6113C61.6932 42.2957 61.7587 41.9788 61.8182 41.6607L61.956 40.9234L63.4304 41.199L63.2927 41.9362C63.2297 42.2732 63.1603 42.6089 63.0844 42.9432ZM61.1529 48.5387L61.4569 47.853C61.5959 47.5394 61.7288 47.2232 61.8556 46.9047L62.1328 46.2078L60.739 45.6533L60.4618 46.3502C60.3422 46.6508 60.2168 46.9492 60.0856 47.2451L59.7816 47.9307L61.1529 48.5387ZM58.9253 52.333L58.4948 52.9471L57.2665 52.0862L57.697 51.472C57.8828 51.2069 58.0633 50.9386 58.2383 50.667L58.6448 50.0367L59.9054 50.8495L59.499 51.4799C59.3135 51.7676 59.1222 52.0521 58.9253 52.333ZM55.0425 56.7633L55.582 56.2423C55.8288 56.004 56.0706 55.7616 56.3072 55.5151L56.8267 54.9741L55.7447 53.9352L55.2253 54.4762C55.0017 54.709 54.7733 54.9381 54.5401 55.1633L54.0005 55.6843L55.0425 56.7633ZM18.9573 17.2367L18.4178 17.7576C18.171 17.996 17.9293 18.2384 17.6926 18.4849L17.1732 19.0259L18.2551 20.0648L18.7746 19.5238C18.9982 19.2909 19.2266 19.0619 19.4598 18.8367L19.9993 18.3157L18.9573 17.2367ZM15.505 21.0529L15.0745 21.667C14.8776 21.9479 14.6864 22.2323 14.5008 22.5201L14.0944 23.1505L15.3551 23.9633L15.7615 23.333C15.9366 23.0614 16.1171 22.793 16.3029 22.528L16.7333 21.9138L15.505 21.0529ZM12.543 26.147L12.847 25.4613L14.2182 26.0693L13.9143 26.7549C13.7831 27.0508 13.6576 27.3492 13.5381 27.6498L13.2608 28.3467L11.8671 27.7922L12.1443 27.0953C12.271 26.7767 12.4039 26.4606 12.543 26.147ZM11.0814 30.3254L10.9155 31.0568C10.8396 31.3911 10.7702 31.7268 10.7072 32.0637L10.5694 32.801L12.0439 33.0765L12.1817 32.3393C12.2411 32.0212 12.3067 31.7043 12.3783 31.3887L12.5442 30.6573L11.0814 30.3254ZM10.2626 36.1761L10.2856 35.4264L11.7849 35.4725L11.7619 36.2221C11.752 36.5457 11.7482 36.8694 11.7506 37.1931L11.7562 37.9431L10.2563 37.9543L10.2507 37.2043C10.2481 36.8615 10.2521 36.5187 10.2626 36.1761ZM10.4737 40.5456L10.5932 41.286C10.6478 41.6244 10.7089 41.9618 10.7765 42.2978L10.9244 43.0331L12.3949 42.7374L12.2471 42.0021C12.1833 41.6849 12.1256 41.3664 12.074 41.0469L11.9545 40.3065L10.4737 40.5456ZM11.9105 46.2971L11.6503 45.5937L13.0571 45.0732L13.3173 45.7766C13.4296 46.0801 13.5478 46.3814 13.6718 46.6804L13.959 47.3732L12.5734 47.9478L12.2862 47.255C12.1547 46.938 12.0295 46.6187 11.9105 46.2971ZM13.792 50.3361L14.1843 50.9753C14.3636 51.2674 14.5487 51.5562 14.7395 51.8417L15.1563 52.4653L16.4034 51.6318L15.9866 51.0082C15.8066 50.7388 15.6319 50.4662 15.4627 50.1906L15.0704 49.5514L13.792 50.3361ZM17.2672 55.0608L16.7606 54.5078L17.8666 53.4945L18.3733 54.0475C18.5253 54.2135 18.6798 54.3777 18.8366 54.5401L19.3576 55.0796L18.2786 56.1216L17.7576 55.5821C17.5916 55.4102 17.4282 55.2365 17.2672 55.0608Z" fill="#F78200"/>
</svg>
