<svg width="22" height="21" viewBox="0 0 22 21" fill="none" xmlns="http://www.w3.org/2000/svg">
<path fill-rule="evenodd" clip-rule="evenodd" d="M15.1827 3.85C15.1811 5.20246 14.0755 6.29846 12.7111 6.3H10.9457V7.0175C13.0134 7.20461 14.567 8.97069 14.4725 11.0267C14.378 13.0828 12.6689 14.7016 10.5926 14.7016C8.51624 14.7016 6.80711 13.0828 6.71264 11.0267C6.61816 8.97069 8.17175 7.20461 10.2395 7.0175V6.3H8.47405C7.10966 6.29846 6.004 5.20246 6.00244 3.85C6.00244 3.6567 6.16052 3.5 6.35553 3.5H8.47405C9.13901 3.49963 9.77582 3.76602 10.2395 4.2385V2.8H8.47405C7.10966 2.79846 6.004 1.70246 6.00244 0.35C6.00244 0.1567 6.16052 0 6.35553 0H8.47405C9.343 0.000168703 10.1478 0.453545 10.5926 1.1935C11.0374 0.453545 11.8421 0.000168703 12.7111 0H14.8296C15.0246 0 15.1827 0.1567 15.1827 0.35C15.1811 1.70246 14.0755 2.79846 12.7111 2.8H10.9457V4.2385C11.4093 3.76602 12.0461 3.49963 12.7111 3.5H14.8296C15.0246 3.5 15.1827 3.6567 15.1827 3.85ZM14.4412 4.2H12.7111C11.8725 4.20105 11.1499 4.78575 10.981 5.6H12.7111C13.5497 5.59895 14.2723 5.01425 14.4412 4.2ZM12.7111 0.7H14.4412C14.2723 1.51425 13.5497 2.09895 12.7111 2.1H10.981C11.1499 1.28575 11.8725 0.701049 12.7111 0.7ZM6.74392 0.7C6.91285 1.51425 7.63543 2.09895 8.47405 2.1H10.2042C10.0352 1.28575 9.31266 0.701049 8.47405 0.7H6.74392ZM8.47405 5.6C7.63543 5.59895 6.91285 5.01425 6.74392 4.2H8.47405C9.31266 4.20105 10.0352 4.78575 10.2042 5.6H8.47405ZM10.5926 14C12.3476 14 13.7703 12.5897 13.7703 10.85C13.7676 9.11142 12.3465 7.7027 10.5926 7.7C8.83753 7.7 7.41479 9.1103 7.41479 10.85C7.41479 12.5897 8.83753 14 10.5926 14Z" fill="#F78200"/>
<path fill-rule="evenodd" clip-rule="evenodd" d="M21.1322 14.014C20.6434 13.1791 19.5665 12.8915 18.7206 13.37L14.3 15.9005C13.9698 15.5801 13.5263 15.4004 13.0642 15.4H8.97193L7.93385 14.3675C7.46943 13.9072 6.83929 13.649 6.18254 13.65H2.82469V12.95C2.82469 12.7567 2.66661 12.6 2.4716 12.6H0.353086C0.158082 12.6 0 12.7567 0 12.95V20.65C0 20.8433 0.158082 21 0.353086 21H2.4716C2.66661 21 2.82469 20.8433 2.82469 20.65V19.7155L7.12881 20.9335C7.28636 20.9769 7.44903 20.9993 7.61254 21H11.9802C12.2902 21.0003 12.5947 20.9194 12.8629 20.7655L20.4861 16.4045C21.3304 15.9212 21.6197 14.851 21.1322 14.014ZM2.11852 20.3H0.706173V13.3H2.11852V20.3ZM20.133 15.7955C20.3768 15.657 20.5548 15.4277 20.6273 15.1585C20.7376 14.7483 20.5879 14.3126 20.2479 14.0545C19.9079 13.7964 19.4445 13.7666 19.0737 13.979L14.6919 16.485C14.921 17.0238 14.8617 17.6407 14.534 18.1269C14.2063 18.6131 13.6541 18.9035 13.0642 18.9H8.82716V18.2H13.0642C13.6485 18.1983 14.1217 17.7292 14.1235 17.15C14.1227 16.9349 14.0562 16.725 13.9328 16.548C13.8935 16.4965 13.8511 16.4474 13.8057 16.401C13.6088 16.2069 13.3419 16.0986 13.0642 16.1H8.82716C8.73355 16.0993 8.6438 16.063 8.57647 15.9985L7.43247 14.8645C7.10255 14.5334 6.65202 14.348 6.18254 14.35H2.82469V18.9875L7.32301 20.258C7.41689 20.2861 7.51447 20.3003 7.61254 20.3H11.9802C12.166 20.2992 12.3484 20.251 12.5099 20.16L20.133 15.7955Z" fill="#F78200"/>
<path d="M11.8781 10.1555H11.3568C11.327 9.87069 11.1721 9.6062 10.9453 9.44344H11.8781C11.9346 9.44344 11.9808 9.39767 11.9808 9.34172C11.9808 9.28577 11.9346 9.23999 11.8781 9.23999H9.70663C9.65018 9.23999 9.604 9.28577 9.604 9.34172C9.604 9.39767 9.65018 9.44344 9.70663 9.44344H10.3285C10.7513 9.44344 11.1003 9.75879 11.1505 10.1555H9.70663C9.65018 10.1555 9.604 10.2013 9.604 10.2573C9.604 10.3132 9.65018 10.359 9.70663 10.359H11.1505C11.0992 10.771 10.7462 11.0802 10.3285 11.0812H9.70765C9.65018 11.0823 9.604 11.129 9.60503 11.186C9.60503 11.2135 9.61734 11.2399 9.63684 11.2593L11.1895 12.715C11.2306 12.7536 11.2952 12.7516 11.3342 12.7109C11.3732 12.6692 11.3712 12.6051 11.3301 12.5654L9.96421 11.2847H10.3275C10.8632 11.2847 11.3055 10.8778 11.3568 10.359H11.8781C11.9346 10.359 11.9808 10.3132 11.9808 10.2573C11.9808 10.2013 11.9346 10.1555 11.8781 10.1555Z" fill="#F78200"/>
</svg>
