<?xml version="1.0" encoding="UTF-8"?>
<svg width="12px" height="12px" viewBox="0 0 12 12" version="1.1" xmlns="http://www.w3.org/2000/svg" xmlns:xlink="http://www.w3.org/1999/xlink">
    <!-- Generator: Sketch 63.1 (92452) - https://sketch.com -->
    <title>processed</title>
    <desc>Created with Sketch.</desc>
    <g id="Page-1" stroke="none" stroke-width="1" fill="none" fill-rule="evenodd">
        <g id="06-my-transactions-copy-2" transform="translate(-934.000000, -409.000000)" fill="#38D597" fill-rule="nonzero" stroke="#38D597" stroke-width="0.5">
            <g id="Group-6" transform="translate(935.000000, 404.000000)">
                <g id="processed" transform="translate(0.000000, 6.000000)">
                    <path d="M4.99107914,9.97659472 C3.09410072,9.97678657 1.34484412,8.88978417 0.50705036,7.17889688 C-0.340719424,5.44709832 -0.084028777,3.28729017 1.14609113,1.80450839 C2.37486811,0.323261391 4.37256595,-0.323069544 6.23501199,0.157889688 C6.44009592,0.210839329 6.56345324,0.420143885 6.51069544,0.625419664 C6.4577458,0.830695444 6.2482494,0.953860911 6.04316547,0.901103118 C4.46772182,0.494196643 2.77678657,1.04095923 1.73678657,2.29467626 C0.696211031,3.54916067 0.479040767,5.3764988 1.19635492,6.84182254 C1.91098321,8.30139089 3.48738609,9.25218225 5.10541966,9.20805755 C6.72326139,9.16393285 8.19146283,8.17995204 8.84585132,6.70139089 C9.2301199,5.83309353 9.31146283,4.8498801 9.07453237,3.93266187 C9.02158273,3.72757794 9.14494005,3.51827338 9.35021583,3.46513189 C9.55491607,3.41199041 9.76460432,3.53553957 9.8177458,3.74081535 C10.097458,4.82455635 10.0017266,5.9863789 9.54781775,7.01199041 C8.77429257,8.75971223 7.03865707,9.9228777 5.12652278,9.97505995 C5.081247,9.97601918 5.03597122,9.97659472 4.99107914,9.97659472 Z" id="Path"></path>
                    <path d="M4.98800959,6.18513189 C4.88978417,6.18513189 4.79155875,6.14772182 4.71673861,6.07270983 C4.56690647,5.9228777 4.56690647,5.68 4.71673861,5.53016787 L9.32105516,0.925851319 C9.47069544,0.776019185 9.71395683,0.776019185 9.86359712,0.925851319 C10.0134293,1.07568345 10.0134293,1.31856115 9.86359712,1.46839329 L5.25928058,6.07270983 C5.18446043,6.14752998 5.08623501,6.18513189 4.98800959,6.18513189 L4.98800959,6.18513189 Z" id="Path"></path>
                    <path d="M4.98800959,6.18513189 C4.88978417,6.18513189 4.79155875,6.14772182 4.71673861,6.07270983 L3.08892086,4.44489209 C2.93908873,4.29505995 2.93908873,4.05218225 3.08892086,3.90235012 C3.23856115,3.75251799 3.48182254,3.75251799 3.63146283,3.90235012 L5.25928058,5.53016787 C5.40911271,5.68 5.40911271,5.9228777 5.25928058,6.07270983 C5.18446043,6.14752998 5.08623501,6.18513189 4.98800959,6.18513189 L4.98800959,6.18513189 Z" id="Path"></path>
                </g>
            </g>
        </g>
    </g>
</svg>