<svg width="60" height="38" viewBox="0 0 60 38" fill="none" xmlns="http://www.w3.org/2000/svg">
<path fill-rule="evenodd" clip-rule="evenodd" d="M3.47282 33.3392H29.8663C31.7819 33.3392 33.3391 31.7806 33.3391 29.8663V6.25114C33.3391 4.33692 31.7819 2.77832 29.8663 2.77832H3.47282C1.55721 2.77832 0 4.33692 0 6.25114V29.8663C0 31.7806 1.55721 33.3392 3.47282 33.3392ZM1.38913 6.25114C1.38913 5.10233 2.32401 4.16745 3.47282 4.16745H29.8663C31.0151 4.16745 31.95 5.10233 31.95 6.25114V29.8663C31.95 31.0152 31.0151 31.95 29.8663 31.95H3.47282C2.32401 31.95 1.38913 31.0152 1.38913 29.8663V6.25114Z" fill="#F58220"/>
<path d="M32.6445 11.113H0.694565C0.311165 11.113 0 10.8018 0 10.4184C0 10.035 0.311165 9.72388 0.694565 9.72388H32.6445C33.0279 9.72388 33.3391 10.035 33.3391 10.4184C33.3391 10.8018 33.0279 11.113 32.6445 11.113Z" fill="#F58220"/>
<path d="M7.64021 6.94565C7.25681 6.94565 6.94565 6.63448 6.94565 6.25108V0.694565C6.94565 0.311165 7.25681 0 7.64021 0C8.02361 0 8.33478 0.311165 8.33478 0.694565V6.25108C8.33478 6.63448 8.02361 6.94565 7.64021 6.94565Z" fill="#F58220"/>
<path d="M25.6989 6.94565C25.3155 6.94565 25.0043 6.63448 25.0043 6.25108V0.694565C25.0043 0.311165 25.3155 0 25.6989 0C26.0823 0 26.3935 0.311165 26.3935 0.694565V6.25108C26.3935 6.63448 26.0823 6.94565 25.6989 6.94565Z" fill="#F58220"/>
<path fill-rule="evenodd" clip-rule="evenodd" d="M55.2631 19.1833C55.3853 18.7926 55.4521 18.3867 55.4617 17.9774V12.3027C55.4617 8.2594 49.3614 5.20923 41.2749 5.20923C33.1884 5.20923 27.088 8.2594 27.088 12.3027V17.9774C27.2471 19.8996 28.3981 21.5993 30.124 22.4604C29.9937 22.8443 29.9267 23.2468 29.9254 23.6521V29.3269C29.9254 33.3701 36.0257 36.4203 44.1122 36.4203C52.1987 36.4203 58.2991 33.3701 58.2991 29.3269V23.6521C58.1435 21.7322 56.9906 20.0353 55.2631 19.1833ZM41.2749 25.0708C46.7368 25.0708 51.2908 23.6521 53.6742 21.5241C54.8091 22.2051 55.4617 22.9428 55.4617 23.6521C55.4617 25.3829 51.0354 27.9082 44.1122 27.9082C37.1891 27.9082 32.8904 25.4539 32.7628 23.7231C35.5016 24.6581 38.3811 25.114 41.2749 25.0708ZM52.6243 12.3027C52.6243 10.5719 48.198 8.0466 41.2749 8.0466C34.3517 8.0466 29.9254 10.5719 29.9254 12.3027C29.9254 14.0335 34.3517 16.5587 41.2749 16.5587C48.198 16.5587 52.6243 14.0335 52.6243 12.3027ZM29.9254 16.6438C33.3759 18.6067 37.3085 19.5603 41.2749 19.3961C45.2412 19.5603 49.1738 18.6067 52.6243 16.6438V17.9774C52.6243 19.7082 48.198 22.2335 41.2749 22.2335C34.3517 22.2335 29.9254 19.7082 29.9254 17.9774V16.6438ZM32.7628 29.3269C32.7628 31.0577 37.1891 33.5829 44.1122 33.5829C51.0354 33.5829 55.4617 31.0577 55.4617 29.3269V27.9933C52.0112 29.9562 48.0786 30.9098 44.1122 30.7456C40.1459 30.9098 36.2133 29.9562 32.7628 27.9933V29.3269Z" fill="#F58220"/>
<path d="M55.4617 17.9774L56.2115 17.9949L56.2117 17.9862V17.9774H55.4617ZM55.2631 19.1833L54.5473 18.9594L54.3557 19.572L54.9314 19.8559L55.2631 19.1833ZM27.088 17.9774H26.338V18.0084L26.3406 18.0392L27.088 17.9774ZM30.124 22.4604L30.8342 22.7014L31.0446 22.0816L30.4588 21.7893L30.124 22.4604ZM29.9254 23.6521L29.1754 23.6498V23.6521H29.9254ZM58.2991 23.6521H59.0491V23.6218L59.0466 23.5915L58.2991 23.6521ZM53.6742 21.5241L54.06 20.881L53.5866 20.5969L53.1747 20.9647L53.6742 21.5241ZM41.2749 25.0708L41.2749 24.3207L41.2637 24.3209L41.2749 25.0708ZM32.7628 23.7231L33.0051 23.0133L31.9313 22.6467L32.0148 23.7782L32.7628 23.7231ZM41.2749 19.3961L41.3059 18.6467L41.2749 18.6454L41.2438 18.6467L41.2749 19.3961ZM29.9254 16.6438L30.2962 15.9919L29.1754 15.3543V16.6438H29.9254ZM52.6243 16.6438H53.3743V15.3543L52.2535 15.9919L52.6243 16.6438ZM55.4617 27.9933H56.2117V26.7038L55.0909 27.3414L55.4617 27.9933ZM44.1122 30.7456L44.1433 29.9962L44.1122 29.9949L44.0812 29.9962L44.1122 30.7456ZM32.7628 27.9933L33.1336 27.3414L32.0128 26.7038V27.9933H32.7628ZM54.7119 17.9599C54.704 18.2991 54.6486 18.6356 54.5473 18.9594L55.9789 19.4071C56.122 18.9496 56.2003 18.4742 56.2115 17.9949L54.7119 17.9599ZM54.7117 12.3027V17.9774H56.2117V12.3027H54.7117ZM41.2749 5.95923C45.2348 5.95923 48.6596 6.7077 51.0653 7.91054C53.4997 9.12774 54.7117 10.7028 54.7117 12.3027H56.2117C56.2117 9.85921 54.3735 7.8876 51.7361 6.5689C49.07 5.23585 45.4014 4.45923 41.2749 4.45923V5.95923ZM27.838 12.3027C27.838 10.7028 29.05 9.12774 31.4844 7.91054C33.8901 6.7077 37.3149 5.95923 41.2749 5.95923V4.45923C37.1483 4.45923 33.4797 5.23585 30.8136 6.5689C28.1762 7.8876 26.338 9.85921 26.338 12.3027H27.838ZM27.838 17.9774V12.3027H26.338V17.9774H27.838ZM30.4588 21.7893C28.9675 21.0452 27.9729 19.5765 27.8355 17.9156L26.3406 18.0392C26.5212 20.2227 27.8287 22.1534 29.7892 23.1315L30.4588 21.7893ZM30.6754 23.6545C30.6764 23.3303 30.73 23.0084 30.8342 22.7014L29.4138 22.2194C29.2574 22.6802 29.1769 23.1632 29.1754 23.6498L30.6754 23.6545ZM30.6754 29.3269V23.6521H29.1754V29.3269H30.6754ZM44.1122 35.6703C40.1523 35.6703 36.7275 34.9218 34.3218 33.719C31.8874 32.5018 30.6754 30.9267 30.6754 29.3269H29.1754C29.1754 31.7703 31.0136 33.7419 33.651 35.0606C36.3171 36.3937 39.9857 37.1703 44.1122 37.1703V35.6703ZM57.5491 29.3269C57.5491 30.9267 56.3371 32.5018 53.9027 33.719C51.497 34.9218 48.0722 35.6703 44.1122 35.6703V37.1703C48.2388 37.1703 51.9074 36.3937 54.5735 35.0606C57.2109 33.7419 59.0491 31.7703 59.0491 29.3269H57.5491ZM57.5491 23.6521V29.3269H59.0491V23.6521H57.5491ZM54.9314 19.8559C56.4223 20.5912 57.4172 22.0558 57.5515 23.7127L59.0466 23.5915C58.8697 21.4087 57.559 19.4793 55.5948 18.5106L54.9314 19.8559ZM53.1747 20.9647C50.9855 22.9193 46.6464 24.3208 41.2749 24.3208V25.8208C46.8272 25.8208 51.5961 24.385 54.1737 22.0836L53.1747 20.9647ZM56.2117 23.6521C56.2117 23.0593 55.9392 22.5312 55.5646 22.0913C55.1889 21.6501 54.669 21.2464 54.06 20.881L53.2883 22.1672C53.8143 22.4828 54.1881 22.7885 54.4225 23.0637C54.658 23.3402 54.7117 23.5356 54.7117 23.6521H56.2117ZM44.1122 28.6582C47.6595 28.6582 50.6 28.0121 52.6794 27.1183C53.7163 26.6725 54.5656 26.1538 55.1691 25.5999C55.7511 25.0657 56.2117 24.3969 56.2117 23.6521H54.7117C54.7117 23.7728 54.619 24.0687 54.1548 24.4948C53.712 24.9011 53.0221 25.3382 52.087 25.7402C50.2224 26.5417 47.4881 27.1582 44.1122 27.1582V28.6582ZM32.0148 23.7782C32.0676 24.4943 32.5272 25.139 33.1163 25.6661C33.7238 26.2097 34.5668 26.7183 35.5962 27.1551C37.6595 28.0306 40.5672 28.6582 44.1122 28.6582V27.1582C40.7341 27.1582 38.0308 26.5587 36.1821 25.7743C35.2555 25.3811 34.5672 24.9516 34.1165 24.5483C33.6473 24.1284 33.5217 23.8173 33.5107 23.6679L32.0148 23.7782ZM41.2637 24.3209C38.4561 24.3628 35.6623 23.9205 33.0051 23.0133L32.5204 24.4328C35.3409 25.3957 38.3061 25.8653 41.2861 25.8207L41.2637 24.3209ZM41.2749 8.7966C44.6508 8.7966 47.385 9.41309 49.2496 10.2146C50.1847 10.6166 50.8747 11.0537 51.3174 11.46C51.7817 11.8861 51.8743 12.182 51.8743 12.3027H53.3743C53.3743 11.5579 52.9137 10.8891 52.3317 10.3549C51.7282 9.80101 50.8789 9.28226 49.842 8.83654C47.7627 7.94274 44.8222 7.2966 41.2749 7.2966V8.7966ZM30.6754 12.3027C30.6754 12.182 30.7681 11.8861 31.2323 11.46C31.6751 11.0537 32.365 10.6166 33.3001 10.2146C35.1647 9.41309 37.899 8.7966 41.2749 8.7966V7.2966C37.7276 7.2966 34.7871 7.94274 32.7077 8.83654C31.6708 9.28226 30.8215 9.80101 30.218 10.3549C29.636 10.8891 29.1754 11.5579 29.1754 12.3027H30.6754ZM41.2749 15.8087C37.899 15.8087 35.1647 15.1922 33.3001 14.3907C32.365 13.9887 31.6751 13.5517 31.2323 13.1453C30.7681 12.7192 30.6754 12.4233 30.6754 12.3027H29.1754C29.1754 13.0474 29.636 13.7162 30.218 14.2504C30.8215 14.8043 31.6708 15.3231 32.7077 15.7688C34.7871 16.6626 37.7276 17.3087 41.2749 17.3087V15.8087ZM51.8743 12.3027C51.8743 12.4233 51.7817 12.7192 51.3174 13.1453C50.8747 13.5517 50.1847 13.9887 49.2496 14.3907C47.385 15.1922 44.6508 15.8087 41.2749 15.8087V17.3087C44.8222 17.3087 47.7627 16.6626 49.842 15.7688C50.8789 15.3231 51.7282 14.8043 52.3317 14.2504C52.9137 13.7162 53.3743 13.0474 53.3743 12.3027H51.8743ZM41.2438 18.6467C37.418 18.8052 33.6245 17.8853 30.2962 15.9919L29.5545 17.2957C33.1272 19.3281 37.1991 20.3155 41.3059 20.1454L41.2438 18.6467ZM52.2535 15.9919C48.9252 17.8853 45.1318 18.8052 41.3059 18.6467L41.2438 20.1454C45.3506 20.3155 49.4225 19.3281 52.9952 17.2957L52.2535 15.9919ZM53.3743 17.9774V16.6438H51.8743V17.9774H53.3743ZM41.2749 22.9835C44.8222 22.9835 47.7627 22.3373 49.842 21.4435C50.8789 20.9978 51.7282 20.479 52.3317 19.9251C52.9137 19.3909 53.3743 18.7222 53.3743 17.9774H51.8743C51.8743 18.098 51.7817 18.3939 51.3174 18.82C50.8747 19.2264 50.1847 19.6635 49.2496 20.0654C47.385 20.867 44.6508 21.4835 41.2749 21.4835V22.9835ZM29.1754 17.9774C29.1754 18.7222 29.636 19.3909 30.218 19.9251C30.8215 20.479 31.6708 20.9978 32.7077 21.4435C34.7871 22.3373 37.7276 22.9835 41.2749 22.9835V21.4835C37.899 21.4835 35.1647 20.867 33.3001 20.0654C32.365 19.6635 31.6751 19.2264 31.2323 18.82C30.7681 18.3939 30.6754 18.098 30.6754 17.9774H29.1754ZM29.1754 16.6438V17.9774H30.6754V16.6438H29.1754ZM44.1122 32.8329C40.7363 32.8329 38.0021 32.2164 36.1375 31.4149C35.2024 31.013 34.5124 30.5759 34.0697 30.1695C33.6054 29.7434 33.5128 29.4475 33.5128 29.3269H32.0128C32.0128 30.0716 32.4734 30.7404 33.0554 31.2746C33.6589 31.8285 34.5082 32.3473 35.5451 32.793C37.6244 33.6868 40.5649 34.3329 44.1122 34.3329V32.8329ZM54.7117 29.3269C54.7117 29.4475 54.619 29.7434 54.1548 30.1695C53.712 30.5759 53.0221 31.013 52.087 31.4149C50.2224 32.2164 47.4881 32.8329 44.1122 32.8329V34.3329C47.6595 34.3329 50.6 33.6868 52.6794 32.793C53.7163 32.3473 54.5656 31.8285 55.1691 31.2746C55.7511 30.7404 56.2117 30.0716 56.2117 29.3269H54.7117ZM54.7117 27.9933V29.3269H56.2117V27.9933H54.7117ZM44.0812 31.4949C48.188 31.665 52.2599 30.6776 55.8326 28.6452L55.0909 27.3414C51.7626 29.2348 47.9692 30.1547 44.1433 29.9962L44.0812 31.4949ZM32.3919 28.6452C35.9646 30.6776 40.0365 31.665 44.1433 31.4949L44.0812 29.9962C40.2553 30.1547 36.4619 29.2348 33.1336 27.3414L32.3919 28.6452ZM33.5128 29.3269V27.9933H32.0128V29.3269H33.5128Z" fill="#FFFCFA"/>
<path fill-rule="evenodd" clip-rule="evenodd" d="M34.32 9.26245L31.95 10.148L30.5107 11.6906L30.8776 13.6835L32.7627 14.4336L33.9237 15.1217L34.32 9.26245Z" fill="white"/>
<path fill-rule="evenodd" clip-rule="evenodd" d="M33.7237 18.4622L30.8704 17.6189L31.3381 19.8593L34.32 20.8369L33.7237 18.4622Z" fill="white"/>
<path fill-rule="evenodd" clip-rule="evenodd" d="M33.5864 30.4673L32.7628 29.3268L33.1746 28.1697L34.32 29.3268L33.5864 30.4673Z" fill="white"/>
<path d="M18.4174 19.294C18.816 19.294 19.1401 19.6181 19.1401 20.0166C19.1401 20.4151 18.816 20.7393 18.4174 20.7393H17.4544C17.1418 22.0676 15.9878 23.0619 14.6044 23.1503L17.3179 25.7171C17.6013 25.9934 17.6144 26.4437 17.3408 26.7389C17.0664 27.0278 16.6098 27.0412 16.3209 26.7668L12.2924 22.9564C12.1571 22.8211 12.0762 22.6367 12.0763 22.4502C12.0691 22.0485 12.3902 21.7186 12.7989 21.7114L14.405 21.7114C15.0736 21.7098 15.6603 21.3172 15.9324 20.7393H12.7962C12.3977 20.7393 12.0736 20.4151 12.0736 20.0166C12.0736 19.6181 12.3977 19.294 12.7962 19.294H15.9263C15.6515 18.7351 15.068 18.3484 14.4061 18.3484H12.7962C12.3977 18.3484 12.0736 18.0242 12.0736 17.6257C12.0736 17.2272 12.3977 16.9031 12.7962 16.9031H18.4174C18.816 16.9031 19.1401 17.2272 19.1401 17.6257C19.1401 18.0242 18.816 18.3484 18.4174 18.3484H17.0467C17.2314 18.6376 17.3694 18.958 17.4514 19.294H18.4174Z" fill="#F78200" stroke="#FFF8F2" stroke-width="0.5"/>
</svg>
