<svg width="45" height="39" viewBox="0 0 45 39" fill="none" xmlns="http://www.w3.org/2000/svg">
<path fill-rule="evenodd" clip-rule="evenodd" d="M39.7315 7.68056V20.9775C42.3977 22.5819 44.1852 25.5038 44.1852 28.8356C44.1852 33.8889 40.0741 38 35.0208 38C33.0347 38 31.1945 37.3647 29.6919 36.287H4.61572C2.2544 36.287 0.333313 34.3659 0.333313 32.0046V7.68056C0.333313 5.31924 2.2544 3.39815 4.61572 3.39815H4.95831V1.85648C4.95831 1.38345 5.34176 1 5.81479 1C6.28783 1 6.67128 1.38345 6.67128 1.85648V3.39815H14.3796V1.85648C14.3796 1.38345 14.7631 1 15.2361 1C15.7091 1 16.0926 1.38345 16.0926 1.85648V3.39815H23.8009V1.85648C23.8009 1.38345 24.1844 1 24.6574 1C25.1304 1 25.5139 1.38345 25.5139 1.85648V3.39815H33.2222V1.85648C33.2222 1.38345 33.6056 1 34.0787 1C34.5517 1 34.9352 1.38345 34.9352 1.85648V3.39815H35.4491C37.8104 3.39815 39.7315 5.31924 39.7315 7.68056ZM2.04628 11.963V32.0046C2.04628 33.4214 3.19893 34.5741 4.61572 34.5741H27.8812C26.6154 33.0023 25.8565 31.0061 25.8565 28.8356C25.8565 25.8714 27.2715 23.2318 29.4613 21.5556H28.5972C28.1242 21.5556 27.7407 21.1721 27.7407 20.6991V15.9028C27.7407 15.4297 28.1242 15.0463 28.5972 15.0463H33.3935C33.8665 15.0463 34.25 15.4297 34.25 15.9028V19.704C34.5042 19.6828 34.7612 19.6713 35.0208 19.6713C36.0702 19.6713 37.0788 19.8491 38.0185 20.1753V11.963H23.8866C23.4135 11.963 23.0301 11.5795 23.0301 11.1065C23.0301 10.6334 23.4135 10.25 23.8866 10.25H38.0185V7.68056C38.0185 6.26376 36.8658 5.11111 35.4491 5.11111H34.9352V6.65278C34.9352 7.12581 34.5517 7.50926 34.0787 7.50926C33.6056 7.50926 33.2222 7.12581 33.2222 6.65278V5.11111H25.5139V6.65278C25.5139 7.12581 25.1304 7.50926 24.6574 7.50926C24.1844 7.50926 23.8009 7.12581 23.8009 6.65278V5.11111H16.0926V6.65278C16.0926 7.12581 15.7091 7.50926 15.2361 7.50926C14.7631 7.50926 14.3796 7.12581 14.3796 6.65278V5.11111H6.67128V6.65278C6.67128 7.12581 6.28783 7.50926 5.81479 7.50926C5.34176 7.50926 4.95831 7.12581 4.95831 6.65278V5.11111H4.61572C3.19893 5.11111 2.04628 6.26376 2.04628 7.68056V10.25H16.1782C16.6513 10.25 17.0347 10.6334 17.0347 11.1065C17.0347 11.5795 16.6513 11.963 16.1782 11.963H2.04628ZM32.537 19.8426H29.4537V16.7593H32.537V19.8426ZM27.5694 28.8356C27.5694 32.9444 30.9121 36.287 35.0208 36.287C39.1295 36.287 42.4722 32.9444 42.4722 28.8356C42.4722 24.7269 39.1295 21.3843 35.0208 21.3843C30.9121 21.3843 27.5694 24.7269 27.5694 28.8356Z" fill="#F78200"/>
<path d="M39.7315 20.9775H39.4815V21.1189L39.6026 21.1917L39.7315 20.9775ZM29.6919 36.287L29.8376 36.0839L29.7723 36.037H29.6919V36.287ZM4.95831 3.39815V3.64815H5.20831V3.39815H4.95831ZM6.67128 3.39815H6.42128V3.64815H6.67128V3.39815ZM14.3796 3.39815V3.64815H14.6296V3.39815H14.3796ZM16.0926 3.39815H15.8426V3.64815H16.0926V3.39815ZM23.8009 3.39815V3.64815H24.0509V3.39815H23.8009ZM25.5139 3.39815H25.2639V3.64815H25.5139V3.39815ZM33.2222 3.39815V3.64815H33.4722V3.39815H33.2222ZM34.9352 3.39815H34.6852V3.64815H34.9352V3.39815ZM2.04628 11.963V11.713H1.79628V11.963H2.04628ZM27.8812 34.5741V34.8241H28.4035L28.0759 34.4173L27.8812 34.5741ZM29.4613 21.5556L29.6133 21.7541L30.1992 21.3056H29.4613V21.5556ZM34.25 19.704H34V19.9758L34.2708 19.9531L34.25 19.704ZM38.0185 20.1753L37.9365 20.4115L38.2685 20.5268V20.1753H38.0185ZM38.0185 11.963H38.2685V11.713H38.0185V11.963ZM38.0185 10.25V10.5H38.2685V10.25H38.0185ZM34.9352 5.11111V4.86111H34.6852V5.11111H34.9352ZM33.2222 5.11111H33.4722V4.86111H33.2222V5.11111ZM25.5139 5.11111V4.86111H25.2639V5.11111H25.5139ZM23.8009 5.11111H24.0509V4.86111H23.8009V5.11111ZM16.0926 5.11111V4.86111H15.8426V5.11111H16.0926ZM14.3796 5.11111H14.6296V4.86111H14.3796V5.11111ZM6.67128 5.11111V4.86111H6.42128V5.11111H6.67128ZM4.95831 5.11111H5.20831V4.86111H4.95831V5.11111ZM2.04628 10.25H1.79628V10.5H2.04628V10.25ZM29.4537 19.8426H29.2037V20.0926H29.4537V19.8426ZM32.537 19.8426V20.0926H32.787V19.8426H32.537ZM29.4537 16.7593V16.5093H29.2037V16.7593H29.4537ZM32.537 16.7593H32.787V16.5093H32.537V16.7593ZM39.9815 20.9775V7.68056H39.4815V20.9775H39.9815ZM44.4352 28.8356C44.4352 25.4122 42.5983 22.4108 39.8604 20.7633L39.6026 21.1917C42.197 22.7529 43.9352 25.5954 43.9352 28.8356H44.4352ZM35.0208 38.25C40.2121 38.25 44.4352 34.027 44.4352 28.8356H43.9352C43.9352 33.7508 39.936 37.75 35.0208 37.75V38.25ZM29.5462 36.4902C31.0897 37.5972 32.9806 38.25 35.0208 38.25V37.75C33.0889 37.75 31.2993 37.1322 29.8376 36.0839L29.5462 36.4902ZM4.61572 36.537H29.6919V36.037H4.61572V36.537ZM0.083313 32.0046C0.083313 34.504 2.11633 36.537 4.61572 36.537V36.037C2.39247 36.037 0.583313 34.2279 0.583313 32.0046H0.083313ZM0.083313 7.68056V32.0046H0.583313V7.68056H0.083313ZM4.61572 3.14815C2.11633 3.14815 0.083313 5.18116 0.083313 7.68056H0.583313C0.583313 5.45731 2.39247 3.64815 4.61572 3.64815V3.14815ZM4.95831 3.14815H4.61572V3.64815H4.95831V3.14815ZM4.70831 1.85648V3.39815H5.20831V1.85648H4.70831ZM5.81479 0.75C5.20369 0.75 4.70831 1.24538 4.70831 1.85648H5.20831C5.20831 1.52152 5.47983 1.25 5.81479 1.25V0.75ZM6.92128 1.85648C6.92128 1.24538 6.4259 0.75 5.81479 0.75V1.25C6.14976 1.25 6.42128 1.52152 6.42128 1.85648H6.92128ZM6.92128 3.39815V1.85648H6.42128V3.39815H6.92128ZM14.3796 3.14815H6.67128V3.64815H14.3796V3.14815ZM14.1296 1.85648V3.39815H14.6296V1.85648H14.1296ZM15.2361 0.75C14.625 0.75 14.1296 1.24538 14.1296 1.85648H14.6296C14.6296 1.52152 14.9011 1.25 15.2361 1.25V0.75ZM16.3426 1.85648C16.3426 1.24538 15.8472 0.75 15.2361 0.75V1.25C15.5711 1.25 15.8426 1.52152 15.8426 1.85648H16.3426ZM16.3426 3.39815V1.85648H15.8426V3.39815H16.3426ZM23.8009 3.14815H16.0926V3.64815H23.8009V3.14815ZM23.5509 1.85648V3.39815H24.0509V1.85648H23.5509ZM24.6574 0.75C24.0463 0.75 23.5509 1.24538 23.5509 1.85648H24.0509C24.0509 1.52152 24.3224 1.25 24.6574 1.25V0.75ZM25.7639 1.85648C25.7639 1.24538 25.2685 0.75 24.6574 0.75V1.25C24.9923 1.25 25.2639 1.52152 25.2639 1.85648H25.7639ZM25.7639 3.39815V1.85648H25.2639V3.39815H25.7639ZM33.2222 3.14815H25.5139V3.64815H33.2222V3.14815ZM32.9722 1.85648V3.39815H33.4722V1.85648H32.9722ZM34.0787 0.75C33.4676 0.75 32.9722 1.24538 32.9722 1.85648H33.4722C33.4722 1.52152 33.7437 1.25 34.0787 1.25V0.75ZM35.1852 1.85648C35.1852 1.24537 34.6898 0.75 34.0787 0.75V1.25C34.4136 1.25 34.6852 1.52152 34.6852 1.85648H35.1852ZM35.1852 3.39815V1.85648H34.6852V3.39815H35.1852ZM35.4491 3.14815H34.9352V3.64815H35.4491V3.14815ZM39.9815 7.68056C39.9815 5.18116 37.9484 3.14815 35.4491 3.14815V3.64815C37.6723 3.64815 39.4815 5.45731 39.4815 7.68056H39.9815ZM2.29628 32.0046V11.963H1.79628V32.0046H2.29628ZM4.61572 34.3241C3.337 34.3241 2.29628 33.2833 2.29628 32.0046H1.79628C1.79628 33.5595 3.06086 34.8241 4.61572 34.8241V34.3241ZM27.8812 34.3241H4.61572V34.8241H27.8812V34.3241ZM25.6065 28.8356C25.6065 31.0655 26.3863 33.1165 27.6865 34.7309L28.0759 34.4173C26.8444 32.8882 26.1065 30.9468 26.1065 28.8356H25.6065ZM29.3093 21.357C27.0607 23.0783 25.6065 25.79 25.6065 28.8356H26.1065C26.1065 25.9528 27.4824 23.3852 29.6133 21.7541L29.3093 21.357ZM28.5972 21.8056H29.4613V21.3056H28.5972V21.8056ZM27.4907 20.6991C27.4907 21.3102 27.9861 21.8056 28.5972 21.8056V21.3056C28.2622 21.3056 27.9907 21.034 27.9907 20.6991H27.4907ZM27.4907 15.9028V20.6991H27.9907V15.9028H27.4907ZM28.5972 14.7963C27.9861 14.7963 27.4907 15.2917 27.4907 15.9028H27.9907C27.9907 15.5678 28.2622 15.2963 28.5972 15.2963V14.7963ZM33.3935 14.7963H28.5972V15.2963H33.3935V14.7963ZM34.5 15.9028C34.5 15.2917 34.0046 14.7963 33.3935 14.7963V15.2963C33.7285 15.2963 34 15.5678 34 15.9028H34.5ZM34.5 19.704V15.9028H34V19.704H34.5ZM35.0208 19.4213C34.7538 19.4213 34.4899 19.4331 34.2292 19.4549L34.2708 19.9531C34.5185 19.9324 34.7686 19.9213 35.0208 19.9213V19.4213ZM38.1005 19.9392C37.1349 19.6039 36.0986 19.4213 35.0208 19.4213V19.9213C36.0418 19.9213 37.0227 20.0943 37.9365 20.4115L38.1005 19.9392ZM37.7685 11.963V20.1753H38.2685V11.963H37.7685ZM23.8866 12.213H38.0185V11.713H23.8866V12.213ZM22.7801 11.1065C22.7801 11.7176 23.2754 12.213 23.8866 12.213V11.713C23.5516 11.713 23.2801 11.4414 23.2801 11.1065H22.7801ZM23.8866 10C23.2754 10 22.7801 10.4954 22.7801 11.1065H23.2801C23.2801 10.7715 23.5516 10.5 23.8866 10.5V10ZM38.0185 10H23.8866V10.5H38.0185V10ZM37.7685 7.68056V10.25H38.2685V7.68056H37.7685ZM35.4491 5.36111C36.7278 5.36111 37.7685 6.40184 37.7685 7.68056H38.2685C38.2685 6.12569 37.0039 4.86111 35.4491 4.86111V5.36111ZM34.9352 5.36111H35.4491V4.86111H34.9352V5.36111ZM35.1852 6.65278V5.11111H34.6852V6.65278H35.1852ZM34.0787 7.75926C34.6898 7.75926 35.1852 7.26388 35.1852 6.65278H34.6852C34.6852 6.98774 34.4136 7.25926 34.0787 7.25926V7.75926ZM32.9722 6.65278C32.9722 7.26388 33.4676 7.75926 34.0787 7.75926V7.25926C33.7437 7.25926 33.4722 6.98774 33.4722 6.65278H32.9722ZM32.9722 5.11111V6.65278H33.4722V5.11111H32.9722ZM25.5139 5.36111H33.2222V4.86111H25.5139V5.36111ZM25.7639 6.65278V5.11111H25.2639V6.65278H25.7639ZM24.6574 7.75926C25.2685 7.75926 25.7639 7.26388 25.7639 6.65278H25.2639C25.2639 6.98774 24.9923 7.25926 24.6574 7.25926V7.75926ZM23.5509 6.65278C23.5509 7.26388 24.0463 7.75926 24.6574 7.75926V7.25926C24.3224 7.25926 24.0509 6.98774 24.0509 6.65278H23.5509ZM23.5509 5.11111V6.65278H24.0509V5.11111H23.5509ZM16.0926 5.36111H23.8009V4.86111H16.0926V5.36111ZM16.3426 6.65278V5.11111H15.8426V6.65278H16.3426ZM15.2361 7.75926C15.8472 7.75926 16.3426 7.26388 16.3426 6.65278H15.8426C15.8426 6.98774 15.5711 7.25926 15.2361 7.25926V7.75926ZM14.1296 6.65278C14.1296 7.26388 14.625 7.75926 15.2361 7.75926V7.25926C14.9011 7.25926 14.6296 6.98774 14.6296 6.65278H14.1296ZM14.1296 5.11111V6.65278H14.6296V5.11111H14.1296ZM6.67128 5.36111H14.3796V4.86111H6.67128V5.36111ZM6.92128 6.65278V5.11111H6.42128V6.65278H6.92128ZM5.81479 7.75926C6.4259 7.75926 6.92128 7.26388 6.92128 6.65278H6.42128C6.42128 6.98774 6.14976 7.25926 5.81479 7.25926V7.75926ZM4.70831 6.65278C4.70831 7.26388 5.20369 7.75926 5.81479 7.75926V7.25926C5.47983 7.25926 5.20831 6.98774 5.20831 6.65278H4.70831ZM4.70831 5.11111V6.65278H5.20831V5.11111H4.70831ZM4.61572 5.36111H4.95831V4.86111H4.61572V5.36111ZM2.29628 7.68056C2.29628 6.40184 3.337 5.36111 4.61572 5.36111V4.86111C3.06086 4.86111 1.79628 6.12569 1.79628 7.68056H2.29628ZM2.29628 10.25V7.68056H1.79628V10.25H2.29628ZM16.1782 10H2.04628V10.5H16.1782V10ZM17.2847 11.1065C17.2847 10.4954 16.7893 10 16.1782 10V10.5C16.5132 10.5 16.7847 10.7715 16.7847 11.1065H17.2847ZM16.1782 12.213C16.7893 12.213 17.2847 11.7176 17.2847 11.1065H16.7847C16.7847 11.4414 16.5132 11.713 16.1782 11.713V12.213ZM2.04628 12.213H16.1782V11.713H2.04628V12.213ZM29.4537 20.0926H32.537V19.5926H29.4537V20.0926ZM29.2037 16.7593V19.8426H29.7037V16.7593H29.2037ZM32.537 16.5093H29.4537V17.0093H32.537V16.5093ZM32.787 19.8426V16.7593H32.287V19.8426H32.787ZM35.0208 36.037C31.0502 36.037 27.8194 32.8063 27.8194 28.8356H27.3194C27.3194 33.0824 30.774 36.537 35.0208 36.537V36.037ZM42.2222 28.8356C42.2222 32.8063 38.9915 36.037 35.0208 36.037V36.537C39.2676 36.537 42.7222 33.0824 42.7222 28.8356H42.2222ZM35.0208 21.6343C38.9915 21.6343 42.2222 24.865 42.2222 28.8356H42.7222C42.7222 24.5889 39.2676 21.1343 35.0208 21.1343V21.6343ZM27.8194 28.8356C27.8194 24.865 31.0502 21.6343 35.0208 21.6343V21.1343C30.774 21.1343 27.3194 24.5889 27.3194 28.8356H27.8194Z" fill="#FFF9F3"/>
<path fill-rule="evenodd" clip-rule="evenodd" d="M6.6713 15.0464H11.4676C11.9406 15.0464 12.3241 15.4298 12.3241 15.9029V20.6992C12.3241 21.1722 11.9406 21.5556 11.4676 21.5556H6.6713C6.19827 21.5556 5.81482 21.1722 5.81482 20.6992V15.9029C5.81482 15.4298 6.19827 15.0464 6.6713 15.0464ZM7.52778 19.8427H10.6111V16.7593H7.52778V19.8427Z" fill="#F78200"/>
<path d="M10.6111 19.8427V20.0927H10.8611V19.8427H10.6111ZM7.52778 19.8427H7.27778V20.0927H7.52778V19.8427ZM10.6111 16.7593H10.8611V16.5093H10.6111V16.7593ZM7.52778 16.7593V16.5093H7.27778V16.7593H7.52778ZM11.4676 14.7964H6.6713V15.2964H11.4676V14.7964ZM12.5741 15.9029C12.5741 15.2918 12.0787 14.7964 11.4676 14.7964V15.2964C11.8026 15.2964 12.0741 15.5679 12.0741 15.9029H12.5741ZM12.5741 20.6992V15.9029H12.0741V20.6992H12.5741ZM11.4676 21.8056C12.0787 21.8056 12.5741 21.3103 12.5741 20.6992H12.0741C12.0741 21.0341 11.8026 21.3056 11.4676 21.3056V21.8056ZM6.6713 21.8056H11.4676V21.3056H6.6713V21.8056ZM5.56482 20.6992C5.56482 21.3103 6.06019 21.8056 6.6713 21.8056V21.3056C6.33634 21.3056 6.06482 21.0341 6.06482 20.6992H5.56482ZM5.56482 15.9029V20.6992H6.06482V15.9029H5.56482ZM6.6713 14.7964C6.06019 14.7964 5.56482 15.2918 5.56482 15.9029H6.06482C6.06482 15.5679 6.33634 15.2964 6.6713 15.2964V14.7964ZM10.6111 19.5927H7.52778V20.0927H10.6111V19.5927ZM10.3611 16.7593V19.8427H10.8611V16.7593H10.3611ZM7.52778 17.0093H10.6111V16.5093H7.52778V17.0093ZM7.77778 19.8427V16.7593H7.27778V19.8427H7.77778Z" fill="#FFF9F3"/>
<path fill-rule="evenodd" clip-rule="evenodd" d="M17.6343 15.0464H22.4305C22.9036 15.0464 23.287 15.4298 23.287 15.9029V20.6992C23.287 21.1722 22.9036 21.5556 22.4305 21.5556H17.6343C17.1612 21.5556 16.7778 21.1722 16.7778 20.6992V15.9029C16.7778 15.4298 17.1612 15.0464 17.6343 15.0464ZM18.4907 19.8427H21.5741V16.7593H18.4907V19.8427Z" fill="#F78200"/>
<path d="M21.5741 19.8427V20.0927H21.8241V19.8427H21.5741ZM18.4907 19.8427H18.2407V20.0927H18.4907V19.8427ZM21.5741 16.7593H21.8241V16.5093H21.5741V16.7593ZM18.4907 16.7593V16.5093H18.2407V16.7593H18.4907ZM22.4305 14.7964H17.6343V15.2964H22.4305V14.7964ZM23.537 15.9029C23.537 15.2918 23.0417 14.7964 22.4305 14.7964V15.2964C22.7655 15.2964 23.037 15.5679 23.037 15.9029H23.537ZM23.537 20.6992V15.9029H23.037V20.6992H23.537ZM22.4305 21.8056C23.0417 21.8056 23.537 21.3103 23.537 20.6992H23.037C23.037 21.0341 22.7655 21.3056 22.4305 21.3056V21.8056ZM17.6343 21.8056H22.4305V21.3056H17.6343V21.8056ZM16.5278 20.6992C16.5278 21.3103 17.0231 21.8056 17.6343 21.8056V21.3056C17.2993 21.3056 17.0278 21.0341 17.0278 20.6992H16.5278ZM16.5278 15.9029V20.6992H17.0278V15.9029H16.5278ZM17.6343 14.7964C17.0231 14.7964 16.5278 15.2918 16.5278 15.9029H17.0278C17.0278 15.5679 17.2993 15.2964 17.6343 15.2964V14.7964ZM21.5741 19.5927H18.4907V20.0927H21.5741V19.5927ZM21.3241 16.7593V19.8427H21.8241V16.7593H21.3241ZM18.4907 17.0093H21.5741V16.5093H18.4907V17.0093ZM18.7407 19.8427V16.7593H18.2407V19.8427H18.7407Z" fill="#FFF9F3"/>
<path fill-rule="evenodd" clip-rule="evenodd" d="M6.6713 24.6389H11.4676C11.9406 24.6389 12.3241 25.0224 12.3241 25.4954V30.2917C12.3241 30.7647 11.9406 31.1482 11.4676 31.1482H6.6713C6.19827 31.1482 5.81482 30.7647 5.81482 30.2917V25.4954C5.81482 25.0224 6.19827 24.6389 6.6713 24.6389ZM7.52778 29.4352H10.6111V26.3519H7.52778V29.4352Z" fill="#F78200"/>
<path d="M10.6111 29.4352V29.6852H10.8611V29.4352H10.6111ZM7.52778 29.4352H7.27778V29.6852H7.52778V29.4352ZM10.6111 26.3519H10.8611V26.1019H10.6111V26.3519ZM7.52778 26.3519V26.1019H7.27778V26.3519H7.52778ZM11.4676 24.3889H6.6713V24.8889H11.4676V24.3889ZM12.5741 25.4954C12.5741 24.8843 12.0787 24.3889 11.4676 24.3889V24.8889C11.8026 24.8889 12.0741 25.1604 12.0741 25.4954H12.5741ZM12.5741 30.2917V25.4954H12.0741V30.2917H12.5741ZM11.4676 31.3982C12.0787 31.3982 12.5741 30.9028 12.5741 30.2917H12.0741C12.0741 30.6267 11.8026 30.8982 11.4676 30.8982V31.3982ZM6.6713 31.3982H11.4676V30.8982H6.6713V31.3982ZM5.56482 30.2917C5.56482 30.9028 6.06019 31.3982 6.6713 31.3982V30.8982C6.33634 30.8982 6.06482 30.6267 6.06482 30.2917H5.56482ZM5.56482 25.4954V30.2917H6.06482V25.4954H5.56482ZM6.6713 24.3889C6.06019 24.3889 5.56482 24.8843 5.56482 25.4954H6.06482C6.06482 25.1604 6.33634 24.8889 6.6713 24.8889V24.3889ZM10.6111 29.1852H7.52778V29.6852H10.6111V29.1852ZM10.3611 26.3519V29.4352H10.8611V26.3519H10.3611ZM7.52778 26.6019H10.6111V26.1019H7.52778V26.6019ZM7.77778 29.4352V26.3519H7.27778V29.4352H7.77778Z" fill="#FFF9F3"/>
<path fill-rule="evenodd" clip-rule="evenodd" d="M17.6343 24.6389H22.4305C22.9036 24.6389 23.287 25.0224 23.287 25.4954V30.2917C23.287 30.7647 22.9036 31.1482 22.4305 31.1482H17.6343C17.1612 31.1482 16.7778 30.7647 16.7778 30.2917V25.4954C16.7778 25.0224 17.1612 24.6389 17.6343 24.6389ZM18.4907 29.4352H21.5741V26.3519H18.4907V29.4352Z" fill="#F78200"/>
<path d="M21.5741 29.4352V29.6852H21.8241V29.4352H21.5741ZM18.4907 29.4352H18.2407V29.6852H18.4907V29.4352ZM21.5741 26.3519H21.8241V26.1019H21.5741V26.3519ZM18.4907 26.3519V26.1019H18.2407V26.3519H18.4907ZM22.4305 24.3889H17.6343V24.8889H22.4305V24.3889ZM23.537 25.4954C23.537 24.8843 23.0417 24.3889 22.4305 24.3889V24.8889C22.7655 24.8889 23.037 25.1604 23.037 25.4954H23.537ZM23.537 30.2917V25.4954H23.037V30.2917H23.537ZM22.4305 31.3982C23.0417 31.3982 23.537 30.9028 23.537 30.2917H23.037C23.037 30.6267 22.7655 30.8982 22.4305 30.8982V31.3982ZM17.6343 31.3982H22.4305V30.8982H17.6343V31.3982ZM16.5278 30.2917C16.5278 30.9028 17.0231 31.3982 17.6343 31.3982V30.8982C17.2993 30.8982 17.0278 30.6267 17.0278 30.2917H16.5278ZM16.5278 25.4954V30.2917H17.0278V25.4954H16.5278ZM17.6343 24.3889C17.0231 24.3889 16.5278 24.8843 16.5278 25.4954H17.0278C17.0278 25.1604 17.2993 24.8889 17.6343 24.8889V24.3889ZM21.5741 29.1852H18.4907V29.6852H21.5741V29.1852ZM21.3241 26.3519V29.4352H21.8241V26.3519H21.3241ZM18.4907 26.6019H21.5741V26.1019H18.4907V26.6019ZM18.7407 29.4352V26.3519H18.2407V29.4352H18.7407Z" fill="#FFF9F3"/>
<path d="M20.0324 11.9629C20.2577 11.9629 20.4786 11.8712 20.6379 11.7119C20.7973 11.5526 20.8889 11.3316 20.8889 11.1064C20.8889 10.8811 20.7973 10.6602 20.6379 10.5009C20.4786 10.3416 20.2577 10.2499 20.0324 10.2499C19.8072 10.2499 19.5862 10.3416 19.4269 10.5009C19.2676 10.6602 19.1759 10.8811 19.1759 11.1064C19.1759 11.3316 19.2676 11.5526 19.4269 11.7119C19.5862 11.8712 19.8072 11.9629 20.0324 11.9629Z" fill="#F78200"/>
<path d="M38.0267 26.4259C38.3931 26.4259 38.6911 26.7239 38.6911 27.0902C38.6911 27.4566 38.3931 27.7546 38.0267 27.7546H37.1413C36.8539 28.9758 35.793 29.89 34.5212 29.9713L37.0158 32.331C37.2764 32.5851 37.2885 32.9991 37.0369 33.2705C36.7846 33.5361 36.3648 33.5484 36.0992 33.2961L32.3956 29.793C32.2712 29.6686 32.1968 29.4991 32.1969 29.3276C32.1903 28.9583 32.4854 28.655 32.8612 28.6484L34.3378 28.6484C34.9525 28.6469 35.4919 28.286 35.742 27.7546H32.8588C32.4924 27.7546 32.1944 27.4566 32.1944 27.0902C32.1944 26.7239 32.4924 26.4259 32.8588 26.4259H35.7364C35.4838 25.9121 34.9473 25.5566 34.3388 25.5566H32.8588C32.4924 25.5566 32.1944 25.2585 32.1944 24.8922C32.1944 24.5258 32.4924 24.2278 32.8588 24.2278H38.0267C38.3931 24.2278 38.6911 24.5258 38.6911 24.8922C38.6911 25.2585 38.3931 25.5566 38.0267 25.5566H36.7665C36.9363 25.8225 37.0631 26.117 37.1386 26.4259H38.0267Z" fill="#F78200" stroke="#FFF9F3" stroke-width="0.5"/>
</svg>
