<svg width="50" height="37" viewBox="0 0 50 37" fill="none" xmlns="http://www.w3.org/2000/svg">
<path fill-rule="evenodd" clip-rule="evenodd" d="M45.4104 19.0432C45.5205 18.6911 45.5808 18.3254 45.5894 17.9565V12.8427C45.5894 9.19912 40.092 6.45044 32.8048 6.45044C25.5176 6.45044 20.0203 9.19912 20.0203 12.8427V17.9565C20.1636 19.6888 21.2009 21.2204 22.7562 21.9965C22.6388 22.3424 22.5783 22.7051 22.5772 23.0704V28.1842C22.5772 31.8278 28.0746 34.5765 35.3617 34.5765C42.6489 34.5765 48.1463 31.8278 48.1463 28.1842V23.0704C48.0061 21.3402 46.9672 19.811 45.4104 19.0432ZM32.8048 24.3488C37.7269 24.3488 41.8307 23.0704 43.9785 21.1527C45.0013 21.7663 45.5894 22.4311 45.5894 23.0704C45.5894 24.6301 41.6006 26.9057 35.3617 26.9057C29.1229 26.9057 25.2492 24.694 25.1341 23.1343C27.6022 23.9769 30.1971 24.3878 32.8048 24.3488ZM43.0325 12.8427C43.0325 11.283 39.0437 9.00735 32.8048 9.00735C26.566 9.00735 22.5772 11.283 22.5772 12.8427C22.5772 14.4024 26.566 16.6781 32.8048 16.6781C39.0437 16.6781 43.0325 14.4024 43.0325 12.8427ZM22.5772 16.7548C25.6866 18.5236 29.2306 19.383 32.8048 19.235C36.3791 19.383 39.923 18.5236 43.0325 16.7548V17.9565C43.0325 19.5163 39.0437 21.7919 32.8048 21.7919C26.566 21.7919 22.5772 19.5163 22.5772 17.9565V16.7548ZM25.1341 28.1842C25.1341 29.7439 29.1229 32.0196 35.3617 32.0196C41.6006 32.0196 45.5894 29.7439 45.5894 28.1842V26.9824C42.48 28.7513 38.936 29.6107 35.3617 29.4626C31.7875 29.6107 28.2435 28.7513 25.1341 26.9824V28.1842Z" fill="#F58220"/>
<path d="M45.5894 17.9565L46.3392 17.9741L46.3394 17.9653V17.9565H45.5894ZM45.4104 19.0432L44.6946 18.8194L44.503 19.432L45.0787 19.7159L45.4104 19.0432ZM20.0203 17.9565H19.2703V17.9875L19.2728 18.0184L20.0203 17.9565ZM22.7562 21.9965L23.4664 22.2375L23.6767 21.6176L23.091 21.3254L22.7562 21.9965ZM22.5772 23.0704L21.8272 23.068V23.0704H22.5772ZM48.1463 23.0704H48.8963V23.04L48.8939 23.0098L48.1463 23.0704ZM43.9785 21.1527L44.3644 20.5096L43.8909 20.2255L43.479 20.5932L43.9785 21.1527ZM32.8048 24.3488V23.5987L32.7936 23.5989L32.8048 24.3488ZM25.1341 23.1343L25.3764 22.4245L24.3027 22.0579L24.3861 23.1895L25.1341 23.1343ZM32.8048 19.235L32.8359 18.4856L32.8048 18.4844L32.7738 18.4856L32.8048 19.235ZM22.5772 16.7548L22.948 16.1029L21.8272 15.4653V16.7548H22.5772ZM43.0325 16.7548H43.7825V15.4653L42.6616 16.1029L43.0325 16.7548ZM45.5894 26.9824H46.3394V25.6929L45.2186 26.3305L45.5894 26.9824ZM35.3617 29.4626L35.3928 28.7133L35.3617 28.712L35.3307 28.7133L35.3617 29.4626ZM25.1341 26.9824L25.5049 26.3305L24.3841 25.6929V26.9824H25.1341ZM44.8396 17.939C44.8326 18.2378 44.7838 18.5341 44.6946 18.8194L46.1262 19.2671C46.2572 18.8481 46.3289 18.4129 46.3392 17.9741L44.8396 17.939ZM44.8394 12.8427V17.9565H46.3394V12.8427H44.8394ZM32.8048 7.20044C36.3651 7.20044 39.4394 7.87353 41.5944 8.95105C43.7781 10.0429 44.8394 11.4427 44.8394 12.8427H46.3394C46.3394 10.5991 44.652 8.80278 42.2652 7.60941C39.8498 6.40168 36.5317 5.70044 32.8048 5.70044V7.20044ZM20.7703 12.8427C20.7703 11.4427 21.8315 10.0429 24.0153 8.95105C26.1703 7.87353 29.2445 7.20044 32.8048 7.20044V5.70044C29.0779 5.70044 25.7599 6.40168 23.3444 7.60941C20.9577 8.80278 19.2703 10.5991 19.2703 12.8427H20.7703ZM20.7703 17.9565V12.8427H19.2703V17.9565H20.7703ZM23.091 21.3254C21.7703 20.6664 20.8894 19.3657 20.7677 17.8947L19.2728 18.0184C19.4378 20.0118 20.6315 21.7745 22.4213 22.6676L23.091 21.3254ZM23.3272 23.0727C23.3281 22.7886 23.3751 22.5065 23.4664 22.2375L22.046 21.7555C21.9025 22.1783 21.8286 22.6215 21.8272 23.068L23.3272 23.0727ZM23.3272 28.1842V23.0704H21.8272V28.1842H23.3272ZM35.3617 33.8265C31.8014 33.8265 28.7272 33.1534 26.5722 32.0759C24.3884 30.984 23.3272 29.5842 23.3272 28.1842H21.8272C21.8272 30.4278 23.5146 32.2241 25.9014 33.4175C28.3168 34.6252 31.6349 35.3265 35.3617 35.3265V33.8265ZM47.3963 28.1842C47.3963 29.5842 46.3351 30.984 44.1513 32.0759C41.9963 33.1534 38.9221 33.8265 35.3617 33.8265V35.3265C39.0886 35.3265 42.4067 34.6252 44.8221 33.4175C47.2089 32.2241 48.8963 30.4278 48.8963 28.1842H47.3963ZM47.3963 23.0704V28.1842H48.8963V23.0704H47.3963ZM45.0787 19.7159C46.3988 20.367 47.2798 21.6638 47.3988 23.131L48.8939 23.0098C48.7323 21.0167 47.5355 19.2551 45.7422 18.3706L45.0787 19.7159ZM43.479 20.5932C41.5255 22.3375 37.6365 23.5988 32.8048 23.5988V25.0988C37.8173 25.0988 42.136 23.8033 44.4781 21.7121L43.479 20.5932ZM46.3394 23.0704C46.3394 22.5126 46.083 22.0202 45.7385 21.6157C45.393 21.2099 44.9173 20.8413 44.3644 20.5096L43.5927 21.7958C44.0626 22.0777 44.3922 22.3483 44.5965 22.5882C44.8018 22.8293 44.8394 22.9889 44.8394 23.0704H46.3394ZM35.3617 27.6557C38.5669 27.6557 41.2269 27.072 43.1113 26.262C44.0508 25.8582 44.824 25.3866 45.3758 24.8802C45.9061 24.3935 46.3394 23.7724 46.3394 23.0704H44.8394C44.8394 23.1482 44.7741 23.3965 44.3615 23.7751C43.9705 24.134 43.3566 24.5239 42.519 24.8839C40.8492 25.6016 38.3955 26.1557 35.3617 26.1557V27.6557ZM24.3861 23.1895C24.4358 23.8627 24.8665 24.4602 25.4032 24.9405C25.9585 25.4373 26.7258 25.8996 27.6586 26.2953C29.5285 27.0888 32.1589 27.6557 35.3617 27.6557V26.1557C32.3257 26.1557 29.8998 25.6169 28.2444 24.9145C27.4145 24.5624 26.8019 24.1792 26.4035 23.8227C25.9866 23.4496 25.8899 23.1857 25.8821 23.0791L24.3861 23.1895ZM32.7936 23.5989C30.2721 23.6366 27.763 23.2393 25.3764 22.4245L24.8918 23.8441C27.4415 24.7145 30.1221 25.139 32.816 25.0987L32.7936 23.5989ZM32.8048 9.75735C35.8386 9.75735 38.2923 10.3114 39.962 11.0292C40.7997 11.3892 41.4136 11.7791 41.8046 12.138C42.2172 12.5166 42.2825 12.7649 42.2825 12.8427H43.7825C43.7825 12.1407 43.3492 11.5196 42.8189 11.0329C42.2671 10.5264 41.4939 10.0549 40.5544 9.6511C38.67 8.84109 36.01 8.25735 32.8048 8.25735V9.75735ZM23.3272 12.8427C23.3272 12.7649 23.3925 12.5166 23.8051 12.138C24.1961 11.7791 24.81 11.3892 25.6476 11.0292C27.3173 10.3114 29.7711 9.75735 32.8048 9.75735V8.25735C29.5997 8.25735 26.9396 8.84109 25.0553 9.6511C24.1158 10.0549 23.3426 10.5264 22.7908 11.0329C22.2605 11.5196 21.8272 12.1407 21.8272 12.8427H23.3272ZM32.8048 15.9281C29.7711 15.9281 27.3173 15.374 25.6476 14.6563C24.81 14.2962 24.1961 13.9064 23.8051 13.5474C23.3925 13.1688 23.3272 12.9206 23.3272 12.8427H21.8272C21.8272 13.5447 22.2605 14.1658 22.7908 14.6526C23.3426 15.159 24.1158 15.6305 25.0553 16.0343C26.9396 16.8444 29.5997 17.4281 32.8048 17.4281V15.9281ZM42.2825 12.8427C42.2825 12.9206 42.2172 13.1688 41.8046 13.5474C41.4136 13.9064 40.7997 14.2962 39.962 14.6563C38.2923 15.374 35.8386 15.9281 32.8048 15.9281V17.4281C36.01 17.4281 38.67 16.8444 40.5544 16.0343C41.4939 15.6305 42.2671 15.159 42.8189 14.6526C43.3492 14.1658 43.7825 13.5447 43.7825 12.8427H42.2825ZM32.7738 18.4856C29.34 18.6279 25.9353 17.8022 22.948 16.1029L22.2064 17.4067C25.438 19.245 29.1212 20.1382 32.8359 19.9844L32.7738 18.4856ZM42.6616 16.1029C39.6744 17.8022 36.2697 18.6279 32.8359 18.4856L32.7738 19.9844C36.4885 20.1382 40.1717 19.245 43.4033 17.4067L42.6616 16.1029ZM43.7825 17.9565V16.7548H42.2825V17.9565H43.7825ZM32.8048 22.5419C36.01 22.5419 38.67 21.9582 40.5544 21.1482C41.4939 20.7443 42.2671 20.2728 42.8189 19.7664C43.3492 19.2796 43.7825 18.6585 43.7825 17.9565H42.2825C42.2825 18.0344 42.2172 18.2826 41.8046 18.6613C41.4136 19.0202 40.7997 19.41 39.962 19.7701C38.2923 20.4878 35.8386 21.0419 32.8048 21.0419V22.5419ZM21.8272 17.9565C21.8272 18.6585 22.2605 19.2796 22.7908 19.7664C23.3426 20.2728 24.1158 20.7443 25.0553 21.1482C26.9396 21.9582 29.5997 22.5419 32.8048 22.5419V21.0419C29.7711 21.0419 27.3173 20.4878 25.6476 19.7701C24.81 19.41 24.1961 19.0202 23.8051 18.6613C23.3925 18.2826 23.3272 18.0344 23.3272 17.9565H21.8272ZM21.8272 16.7548V17.9565H23.3272V16.7548H21.8272ZM35.3617 31.2696C32.328 31.2696 29.8743 30.7155 28.2045 29.9977C27.3669 29.6377 26.753 29.2478 26.362 28.8889C25.9494 28.5103 25.8841 28.2621 25.8841 28.1842H24.3841C24.3841 28.8862 24.8174 29.5073 25.3477 29.994C25.8995 30.5005 26.6727 30.972 27.6122 31.3758C29.4966 32.1858 32.1566 32.7696 35.3617 32.7696V31.2696ZM44.8394 28.1842C44.8394 28.2621 44.7741 28.5103 44.3615 28.8889C43.9705 29.2478 43.3566 29.6377 42.519 29.9977C40.8492 30.7155 38.3955 31.2696 35.3617 31.2696V32.7696C38.5669 32.7696 41.2269 32.1858 43.1113 31.3758C44.0508 30.972 44.824 30.5005 45.3758 29.994C45.9061 29.5073 46.3394 28.8862 46.3394 28.1842H44.8394ZM44.8394 26.9824V28.1842H46.3394V26.9824H44.8394ZM35.3307 30.212C39.0454 30.3659 42.7286 29.4727 45.9602 27.6343L45.2186 26.3305C42.2313 28.0299 38.8266 28.8555 35.3928 28.7133L35.3307 30.212ZM24.7633 27.6343C27.9949 29.4727 31.6781 30.3659 35.3928 30.212L35.3307 28.7133C31.8969 28.8555 28.4922 28.0299 25.5049 26.3305L24.7633 27.6343ZM25.8841 28.1842V26.9824H24.3841V28.1842H25.8841Z" fill="#FFFCFA"/>
<path fill-rule="evenodd" clip-rule="evenodd" d="M26.5374 10.103L24.4017 10.9011L23.1047 12.2912L23.4353 14.0871L25.1341 14.763L26.1803 15.3831L26.5374 10.103Z" fill="white"/>
<path fill-rule="evenodd" clip-rule="evenodd" d="M26.0001 18.3935L23.4288 17.6335L23.8502 19.6525L26.5374 20.5335L26.0001 18.3935Z" fill="white"/>
<path fill-rule="evenodd" clip-rule="evenodd" d="M25.8764 29.2119L25.1341 28.1841L25.5052 27.1414L26.5374 28.1841L25.8764 29.2119Z" fill="white"/>
<mask id="path-6-inside-1" fill="white">
<path fill-rule="evenodd" clip-rule="evenodd" d="M26.1309 34.2439H7.02439C3.14493 34.2439 0 31.099 0 27.2195V7.02439C0 3.14493 3.14493 0 7.02439 0V0H30.7317C34.6112 0 37.7561 3.14493 37.7561 7.02439V7.03228"/>
</mask>
<path d="M26.1309 32.7439H7.02439V35.7439H26.1309V32.7439ZM7.02439 32.7439C3.97335 32.7439 1.5 30.2705 1.5 27.2195H-1.5C-1.5 31.9274 2.3165 35.7439 7.02439 35.7439V32.7439ZM1.5 27.2195V7.02439H-1.5V27.2195H1.5ZM1.5 7.02439C1.5 3.97335 3.97335 1.5 7.02439 1.5V-1.5C2.3165 -1.5 -1.5 2.3165 -1.5 7.02439H1.5ZM7.02439 1.5H30.7317V-1.5H7.02439V1.5ZM30.7317 1.5C33.7827 1.5 36.2561 3.97335 36.2561 7.02439H39.2561C39.2561 2.3165 35.4396 -1.5 30.7317 -1.5V1.5ZM36.2561 7.02439V7.03228H39.2561V7.02439H36.2561Z" fill="#F58220" mask="url(#path-6-inside-1)"/>
<path d="M5.31119 12.743H17.5226" stroke="#F58220" stroke-width="1.5"/>
<path d="M5.31119 18.0001H15.4228" stroke="#F58220" stroke-width="1.5"/>
<path d="M5.31119 23.2684H18.8781" stroke="#F58220" stroke-width="1.5"/>
</svg>
