<svg width="43" height="43" viewBox="0 0 43 43" fill="none" xmlns="http://www.w3.org/2000/svg">
<path fill-rule="evenodd" clip-rule="evenodd" d="M22.1212 10.9394C24.862 10.9394 27.0909 8.71047 27.0909 5.9697C27.0909 3.22892 24.862 1 22.1212 1C19.3804 1 17.1515 3.22892 17.1515 5.9697C17.1515 8.71047 19.3804 10.9394 22.1212 10.9394Z" stroke="#F78200" stroke-width="1.3"/>
<path d="M38.0771 20.4721L37.499 20.7692L37.6803 21.1221H38.0771V20.4721ZM35.865 17.3827L35.2336 17.2282L35.1484 17.5761L35.3971 17.834L35.865 17.3827ZM37.0811 12.4128L37.7125 12.5673L37.7126 12.5669L37.0811 12.4128ZM36.8584 11.3944L37.3683 10.9913L37.3678 10.9906L36.8584 11.3944ZM27.5165 13.3226V13.9726H27.841L28.036 13.7133L27.5165 13.3226ZM6.41841 22.7734L6.5492 23.4101L6.932 23.3314L7.04209 22.9565L6.41841 22.7734ZM4.54971 22.4537L4.18988 22.9951L4.19012 22.9952L4.54971 22.4537ZM3.21153 24.4332L3.57159 23.892L3.57146 23.892L3.21153 24.4332ZM5.94576 25.2329L6.59308 25.2919L6.6586 24.573L5.93681 24.5829L5.94576 25.2329ZM6.63081 30.7799L7.24351 30.5629L7.24347 30.5628L6.63081 30.7799ZM10.6895 36.6218H11.3395V36.3138L11.1011 36.1188L10.6895 36.6218ZM19.0977 39.6169V38.9669H18.4477V39.6169H19.0977ZM26.3047 39.6169H26.9547V38.9669H26.3047V39.6169ZM34.7129 36.6401L34.2785 36.1566L34.0629 36.3503V36.6401H34.7129ZM35.1868 36.2144L35.6212 36.6979L35.6222 36.6969L35.1868 36.2144ZM38.2767 31.983L37.91 31.4463L37.7642 31.5459L37.6888 31.7057L38.2767 31.983ZM41.492 29.786L41.8587 30.3227L41.8642 30.3189L41.492 29.786ZM40.7988 19.8221H38.0771V21.1221H40.7988V19.8221ZM38.6553 20.1751C38.0442 18.9859 37.2657 17.8985 36.3328 16.9314L35.3971 17.834C36.2422 18.7101 36.9463 19.6937 37.499 20.7692L38.6553 20.1751ZM36.4963 17.5372L37.7125 12.5673L36.4498 12.2583L35.2336 17.2282L36.4963 17.5372ZM37.7126 12.5669C37.8472 12.0154 37.7195 11.4354 37.3683 10.9913L36.3485 11.7975C36.4522 11.9286 36.489 12.0977 36.4497 12.2587L37.7126 12.5669ZM37.3678 10.9906C37.0159 10.5466 36.4796 10.2895 35.9141 10.2895V11.5895C36.0855 11.5895 36.2455 11.6674 36.349 11.7981L37.3678 10.9906ZM35.9141 10.2895H32.3105V11.5895H35.9141V10.2895ZM32.3105 10.2895C30.2071 10.2895 28.2365 11.2839 26.997 12.9319L28.036 13.7133C29.03 12.3917 30.6159 11.5895 32.3105 11.5895V10.2895ZM27.5165 12.6726H19.0977V13.9726H27.5165V12.6726ZM19.0977 12.6726C12.7974 12.6726 7.47486 16.8677 5.79474 22.5903L7.04209 22.9565C8.56321 17.7754 13.3868 13.9726 19.0977 13.9726V12.6726ZM6.28762 22.1367C5.62353 22.2731 5.13493 22.0621 4.9093 21.9123L4.19012 22.9952C4.64203 23.2953 5.4791 23.6299 6.5492 23.4101L6.28762 22.1367ZM4.90955 21.9124C4.38276 21.5623 4.05234 21.0069 4.05234 20.4721H2.75234C2.75234 21.5293 3.37973 22.4565 4.18988 22.9951L4.90955 21.9124ZM4.05234 20.4721V19.2805H2.75234V20.4721H4.05234ZM4.05234 19.2805C4.05234 18.2582 3.21901 17.439 2.20117 17.439V18.739C2.51088 18.739 2.75234 18.9859 2.75234 19.2805H4.05234ZM2.20117 17.439C1.18334 17.439 0.35 18.2582 0.35 19.2805H1.65C1.65 18.9859 1.89146 18.739 2.20117 18.739V17.439ZM0.35 19.2805V20.4721H1.65V19.2805H0.35ZM0.35 20.4721C0.35 22.3061 1.35563 23.9797 2.85161 24.9745L3.57146 23.892C2.39733 23.1112 1.65 21.8244 1.65 20.4721H0.35ZM2.85148 24.9744C3.76381 25.5814 4.80802 25.8897 5.87757 25.8897V24.5897C5.06154 24.5897 4.26833 24.3556 3.57159 23.892L2.85148 24.9744ZM5.87757 25.8897C5.9136 25.8897 5.94379 25.8871 5.96446 25.8849C5.98407 25.8828 6.00122 25.8802 6.00605 25.8795C6.0147 25.8783 6.00966 25.879 6.00342 25.8798C5.9958 25.8807 5.97819 25.8825 5.95472 25.8828L5.93681 24.5829C5.90208 24.5834 5.87317 24.5862 5.85421 24.5884C5.83665 24.5904 5.82025 24.5929 5.81752 24.5933C5.81097 24.5942 5.81673 24.5933 5.82493 24.5924C5.83418 24.5914 5.85296 24.5897 5.87757 24.5897V25.8897ZM5.29845 25.1739C5.26141 25.5803 5.23477 25.9997 5.23477 26.43H6.53477C6.53477 26.0523 6.55817 25.6749 6.59308 25.2919L5.29845 25.1739ZM5.23477 26.43C5.23477 27.9931 5.49845 29.5306 6.01814 30.9971L7.24347 30.5628C6.77344 29.2365 6.53477 27.8459 6.53477 26.43H5.23477ZM6.0181 30.9969C6.85502 33.3601 8.31866 35.5216 10.2778 37.1248L11.1011 36.1188C9.33724 34.6754 8.00628 32.7167 7.24351 30.5629L6.0181 30.9969ZM10.0395 36.6218V40.8085H11.3395V36.6218H10.0395ZM10.0395 40.8085C10.0395 41.8308 10.8728 42.6501 11.8906 42.6501V41.3501C11.5809 41.3501 11.3395 41.1031 11.3395 40.8085H10.0395ZM11.8906 42.6501H17.8965V41.3501H11.8906V42.6501ZM17.8965 42.6501C18.9143 42.6501 19.7477 41.8308 19.7477 40.8085H18.4477C18.4477 41.1031 18.2062 41.3501 17.8965 41.3501V42.6501ZM19.7477 40.8085V39.6169H18.4477V40.8085H19.7477ZM19.0977 40.2669H26.3047V38.9669H19.0977V40.2669ZM25.6547 39.6169V40.8085H26.9547V39.6169H25.6547ZM25.6547 40.8085C25.6547 41.8308 26.488 42.6501 27.5059 42.6501V41.3501C27.1962 41.3501 26.9547 41.1031 26.9547 40.8085H25.6547ZM27.5059 42.6501H33.5117V41.3501H27.5059V42.6501ZM33.5117 42.6501C34.5296 42.6501 35.3629 41.8308 35.3629 40.8085H34.0629C34.0629 41.1031 33.8214 41.3501 33.5117 41.3501V42.6501ZM35.3629 40.8085V36.6401H34.0629V40.8085H35.3629ZM35.1473 37.1236L35.6212 36.6979L34.7524 35.7308L34.2785 36.1566L35.1473 37.1236ZM35.6222 36.6969C37.0019 35.452 38.0888 33.9046 38.8645 32.2603L37.6888 31.7057C36.9768 33.2148 35.9874 34.6165 34.7513 35.7318L35.6222 36.6969ZM38.6434 32.5197L41.8587 30.3227L41.1253 29.2493L37.91 31.4463L38.6434 32.5197ZM41.8642 30.3189C42.3557 29.9756 42.65 29.4139 42.65 28.8132H41.35C41.35 28.9876 41.2645 29.1521 41.1198 29.2531L41.8642 30.3189ZM42.65 28.8132V21.6637H41.35V28.8132H42.65ZM42.65 21.6637C42.65 20.6413 41.8167 19.8221 40.7988 19.8221V21.1221C41.1085 21.1221 41.35 21.3691 41.35 21.6637H42.65ZM25.1035 19.8221H17.8965V21.1221H25.1035V19.8221ZM17.8965 19.8221C17.5868 19.8221 17.3453 19.5751 17.3453 19.2805H16.0453C16.0453 20.3029 16.8786 21.1221 17.8965 21.1221V19.8221ZM17.3453 19.2805C17.3453 18.9859 17.5868 18.739 17.8965 18.739V17.439C16.8786 17.439 16.0453 18.2582 16.0453 19.2805H17.3453ZM17.8965 18.739H25.1035V17.439H17.8965V18.739ZM25.1035 18.739C25.4132 18.739 25.6547 18.9859 25.6547 19.2805H26.9547C26.9547 18.2582 26.1214 17.439 25.1035 17.439V18.739ZM25.6547 19.2805C25.6547 19.5751 25.4132 19.8221 25.1035 19.8221V21.1221C26.1214 21.1221 26.9547 20.3029 26.9547 19.2805H25.6547ZM31.1094 23.3969C30.8 23.3969 30.5582 23.1496 30.5582 22.8553H29.2582C29.2582 23.8773 30.0919 24.6969 31.1094 24.6969V23.3969ZM30.5582 22.8553C30.5582 22.561 30.8 22.3137 31.1094 22.3137V21.0137C30.0919 21.0137 29.2582 21.8332 29.2582 22.8553H30.5582ZM31.1094 22.3137C31.4188 22.3137 31.6605 22.561 31.6605 22.8553H32.9605C32.9605 21.8332 32.1269 21.0137 31.1094 21.0137V22.3137ZM31.6605 22.8553C31.6605 23.1496 31.4188 23.3969 31.1094 23.3969V24.6969C32.1269 24.6969 32.9605 23.8773 32.9605 22.8553H31.6605Z" fill="#F78200"/>
</svg>
