<svg width="130" height="61" viewBox="0 0 130 61" fill="none" xmlns="http://www.w3.org/2000/svg">
<path fill-rule="evenodd" clip-rule="evenodd" d="M106.568 56.8285L114.896 56.5377L114.632 48.9784L113.636 49.0131L113.573 47.2153C113.57 47.1101 113.481 47.0278 113.376 47.0314L113.231 47.0365L113.179 45.5401L114.477 40.9771C114.759 39.9856 114.279 38.9363 113.344 38.5016L112.305 38.0182L112.819 37.0973L114.612 37.9977C115.273 38.3299 115.98 38.4747 116.671 38.4524C116.675 38.4522 116.679 38.4521 116.682 38.452C117.784 38.4135 118.847 37.9498 119.626 37.142C119.821 36.9395 119.998 36.7152 120.154 36.4707C120.232 36.3483 120.304 36.221 120.37 36.0886L120.39 36.044C120.445 35.9319 120.496 35.8189 120.539 35.7044C121.326 33.6683 120.452 31.3294 118.461 30.3298L113.156 27.6663L106.817 17.8837C106.563 17.4924 106.149 17.3085 105.741 17.3227C105.317 17.3375 104.901 17.567 104.683 18.0008L101.773 23.7982L101.384 23.603C100.975 23.3975 100.537 23.3084 100.11 23.3234C99.1765 23.356 98.2891 23.8842 97.8407 24.7777C97.1866 26.0805 97.7125 27.6669 99.0153 28.321L99.4043 28.5164L96.4937 34.3138C96.387 34.5263 96.348 34.7477 96.3646 34.9594C96.3933 35.3299 96.5919 35.6701 96.8937 35.88C97.023 35.9702 97.1712 36.0363 97.3333 36.0706C97.3892 36.0826 97.4468 36.09 97.506 36.0941C97.5487 36.0969 97.5922 36.0978 97.6364 36.0963C97.6489 36.0958 97.6615 36.0952 97.674 36.0943L109.306 35.3341L109.694 35.5287L108.935 36.8883L107.151 35.9396C106.973 35.845 106.781 35.804 106.593 35.8105C106.211 35.8239 105.846 36.0354 105.653 36.3976C105.366 36.9377 105.571 37.6082 106.111 37.8954L106.356 38.0258C106.187 37.9432 106.007 37.9073 105.83 37.9134C105.449 37.9267 105.085 38.1366 104.893 38.4979C104.606 39.038 104.811 39.7087 105.351 39.9959L106.495 40.6043L106.495 40.6049L105.559 40.1073C105.381 40.0127 105.189 39.9717 105.002 39.9782C104.619 39.9916 104.254 40.2031 104.061 40.5653C103.774 41.1054 103.979 41.7761 104.519 42.0631L104.958 42.2966C104.782 42.2045 104.592 42.1645 104.407 42.1709C104.025 42.1843 103.66 42.3954 103.467 42.7576C103.18 43.2977 103.385 43.9681 103.925 44.2554L104.619 44.6242L103.59 46.469C103.12 47.3113 103.422 48.3751 104.264 48.8452C104.552 49.006 104.867 49.0764 105.174 49.0656C105.765 49.045 106.331 48.7248 106.64 48.1709L107.494 46.6395L107.515 47.2361L107.421 47.2394C107.315 47.2431 107.233 47.3314 107.237 47.4366L107.299 49.2344L106.304 49.2692L106.568 56.8285" fill="#43526C" fill-opacity="0.0947334"/>
<path fill-rule="evenodd" clip-rule="evenodd" d="M114.816 45.4829L115.202 56.527L109.486 56.7266L109.108 45.9033L106.303 43.6984L109.84 37.6044L113.669 40.1704L114.816 45.4829" fill="#E1A378"/>
<path fill-rule="evenodd" clip-rule="evenodd" d="M106.811 49.0085C107.402 48.9878 107.968 48.6677 108.277 48.1137L114.962 36.1326C115.432 35.2904 115.13 34.2263 114.288 33.7566C113.446 33.2866 112.382 33.5883 111.912 34.4309L105.227 46.4118C104.757 47.2542 105.059 48.3179 105.901 48.788C106.19 48.9488 106.504 49.0192 106.811 49.0085" fill="#F58220"/>
<path fill-rule="evenodd" clip-rule="evenodd" d="M111.373 38.5112V38.5112C111.66 37.9711 111.455 37.3004 110.915 37.0134L108.788 35.8824C108.248 35.5952 107.577 35.8003 107.29 36.3404C107.003 36.8805 107.208 37.551 107.748 37.8384L109.875 38.9692C110.415 39.2564 111.086 39.0513 111.373 38.5112" fill="#F7D1B5"/>
<path fill-rule="evenodd" clip-rule="evenodd" d="M110.613 40.6115V40.6115C110.9 40.0714 110.695 39.4008 110.155 39.1137L108.028 37.9828C107.488 37.6957 106.817 37.9007 106.53 38.4408C106.243 38.9809 106.448 39.6515 106.988 39.9388L109.115 41.0695C109.655 41.3568 110.326 41.1518 110.613 40.6115" fill="#F7D1B5"/>
<path fill-rule="evenodd" clip-rule="evenodd" d="M109.781 42.6789V42.6789C110.068 42.1388 109.863 41.4684 109.323 41.1811L107.196 40.0504C106.656 39.7631 105.986 39.9681 105.698 40.5082C105.411 41.0483 105.616 41.7189 106.156 42.006L108.283 43.1369C108.823 43.4242 109.494 43.219 109.781 42.6789" fill="#F7D1B5"/>
<path fill-rule="evenodd" clip-rule="evenodd" d="M109.187 44.8712V44.8712C109.474 44.3311 109.269 43.6604 108.729 43.3732L106.602 42.2422C106.062 41.9552 105.392 42.1603 105.105 42.7004C104.817 43.2405 105.022 43.911 105.562 44.1982L107.689 45.329C108.229 45.6164 108.9 45.4113 109.187 44.8712" fill="#F7D1B5"/>
<path fill-rule="evenodd" clip-rule="evenodd" d="M114.816 45.4829L116.114 40.92C116.396 39.9285 115.916 38.8791 114.981 38.4444L111.657 36.8989C110.961 36.5749 110.135 36.8955 109.84 37.6044C109.57 38.252 109.84 38.9985 110.463 39.323L112.429 40.3481C112.429 40.3481 111.532 43.39 113.174 44.4365L114.816 45.4829" fill="#F6C8A4"/>
<path fill-rule="evenodd" clip-rule="evenodd" d="M108.937 49.1772L115.273 48.956L115.21 47.1583C115.207 47.0529 115.118 46.9706 115.013 46.9743L109.058 47.1822C108.953 47.1859 108.87 47.2742 108.874 47.3796L108.937 49.1772" fill="#ECEFF4"/>
<path fill-rule="evenodd" clip-rule="evenodd" d="M108.937 49.1772L110.369 49.1272L110.299 47.1389L109.058 47.1822C108.953 47.1859 108.87 47.2742 108.874 47.3796L108.937 49.1772" fill="#D9DAC7"/>
<path fill-rule="evenodd" clip-rule="evenodd" d="M116.533 56.4805L108.205 56.7714L107.941 49.212L116.269 48.9212L116.533 56.4805Z" fill="#1E1F44"/>
<path fill-rule="evenodd" clip-rule="evenodd" d="M110.633 56.6866L108.205 56.7714L107.941 49.212L110.369 49.1272L110.633 56.6866Z" fill="#0F1127"/>
<path fill-rule="evenodd" clip-rule="evenodd" d="M110.689 35.1491L116.249 37.9405C118.366 39.0036 120.945 38.1487 122.007 36.0314C123.07 33.9139 122.216 31.3358 120.099 30.2726L114.539 27.4816L110.689 35.1491" fill="#003974"/>
<path fill-rule="evenodd" clip-rule="evenodd" d="M122.305 35.2576C122.232 35.5197 122.134 35.7791 122.007 36.0314C120.945 38.1487 118.366 39.0036 116.249 37.9405L110.689 35.1491L111.429 33.6742L116.989 36.4656C118.854 37.4019 121.076 36.8491 122.305 35.2576" fill="#031B34"/>
<path fill-rule="evenodd" clip-rule="evenodd" d="M110.691 35.1505L115.386 37.5072L119.235 29.8394L114.541 27.4827L110.691 35.1505" fill="#F58220"/>
<path fill-rule="evenodd" clip-rule="evenodd" d="M110.691 35.1505L115.386 37.5072L116.121 36.0438L111.426 33.6872L110.691 35.1505" fill="#D7690C"/>
<path fill-rule="evenodd" clip-rule="evenodd" d="M106.442 25.2633L103.021 23.5459C101.718 22.8918 100.132 23.4177 99.4779 24.7205C98.8238 26.0234 99.3497 27.6098 100.653 28.2638L104.073 29.9813L106.442 25.2633" fill="#1E1F44"/>
<path fill-rule="evenodd" clip-rule="evenodd" d="M99.3112 36.0372L110.943 35.2769L114.793 27.6091L108.454 17.8265C107.936 17.0281 106.748 17.0931 106.321 17.9436L98.1309 34.2566C97.7041 35.1069 98.3618 36.0994 99.3112 36.0372" fill="#003974"/>
<path fill-rule="evenodd" clip-rule="evenodd" d="M99.9472 34.7706L111.684 33.802L110.943 35.2769L99.3112 36.0372C98.3618 36.0994 97.7041 35.1069 98.1309 34.2566L98.7669 32.9899C98.3401 33.8402 98.9978 34.8325 99.9472 34.7706" fill="#031B34"/>
<path fill-rule="evenodd" clip-rule="evenodd" d="M70.4454 18.1332C67.8668 18.7226 65.2604 19.1908 62.6317 19.4818C32.8233 22.7823 28.9158 8.31544 28.9158 8.31544L28.7732 4.23166C39.0029 20.8718 63.2421 15.9782 76.5576 14.7039C89.8731 13.4295 99.4779 24.7205 99.4779 24.7205C86.3025 15.7563 74.7054 17.1595 70.4454 18.1332" fill="#F3B673"/>
<path fill-rule="evenodd" clip-rule="evenodd" d="M69.6781 43.0958L68.22 43.1467L67.7892 30.8111L69.2473 30.7602L69.6781 43.0958Z" fill="#F3B673"/>
<path fill-rule="evenodd" clip-rule="evenodd" d="M51.0934 40.6102L52.2664 41.4778L59.6066 31.5543L58.4338 30.687L51.0934 40.6102" fill="#47609D"/>
<path fill-rule="evenodd" clip-rule="evenodd" d="M39.5744 31.3343L40.3474 32.5713L50.815 26.0305L50.0419 24.7935L39.5744 31.3343" fill="#00A9C9"/>
<path fill-rule="evenodd" clip-rule="evenodd" d="M109.04 10.3825C109.07 11.2306 109.781 11.894 110.629 11.8644C111.477 11.8348 112.141 11.1233 112.111 10.2753C112.082 9.42719 111.37 8.76378 110.522 8.7934C109.674 8.82301 109.011 9.53443 109.04 10.3825" fill="#F3B673"/>
<path fill-rule="evenodd" clip-rule="evenodd" d="M125.022 10.0952C125.052 10.9433 125.763 11.6067 126.611 11.5771C127.459 11.5475 128.123 10.8361 128.093 9.988C128.064 9.13993 127.352 8.47652 126.504 8.50613C125.656 8.53575 124.993 9.24717 125.022 10.0952" fill="#00A9C9"/>
<path fill-rule="evenodd" clip-rule="evenodd" d="M25.8746 21.1116C25.9042 21.9597 26.6157 22.6231 27.4637 22.5935C28.3118 22.5639 28.9752 21.8525 28.9456 21.0044C28.916 20.1563 28.2046 19.4929 27.3565 19.5225C26.5084 19.5521 25.845 20.2636 25.8746 21.1116" fill="#47609D"/>
<path fill-rule="evenodd" clip-rule="evenodd" d="M80.9923 23.2277C81.022 24.0758 81.7336 24.7392 82.5814 24.7096C83.4295 24.68 84.0931 23.9685 84.0635 23.1205C84.0339 22.2724 83.3223 21.6088 82.4742 21.6384C81.6263 21.668 80.9627 22.3796 80.9923 23.2277" fill="#00A9C9"/>
<path fill-rule="evenodd" clip-rule="evenodd" d="M124.182 20.9061L121.47 21.0008L124.345 25.6022L126.893 20.8114L124.182 20.9061" fill="#00A9C9"/>
<path fill-rule="evenodd" clip-rule="evenodd" d="M40.2459 46.9209L37.9593 45.4609L37.7173 50.8814L42.5326 48.3808L40.2459 46.9209" fill="#47609D"/>
<path fill-rule="evenodd" clip-rule="evenodd" d="M5.5778 17.4802L6.34753 14.8787L3.70968 15.5128L1.07203 16.1471L4.80807 20.0816L5.5778 17.4802" fill="#F3B673"/>
</svg>
