<?xml version="1.0" encoding="UTF-8"?>
<svg width="24px" height="16px" viewBox="0 0 24 16" version="1.1" xmlns="http://www.w3.org/2000/svg" xmlns:xlink="http://www.w3.org/1999/xlink">
    <!-- Generator: Sketch 53.2 (72643) - https://sketchapp.com -->
    <title>Combined-Shape</title>
    <desc>Created with Sketch.</desc>
    <g id="Page-1" stroke="none" stroke-width="1" fill="none" fill-rule="evenodd">
        <g id="trnsact-menu" transform="translate(-115.000000, -242.000000)" fill="#F78200" fill-rule="nonzero" stroke="#F78200" stroke-width="0.2">
            <g id="payment-method" transform="translate(127.000000, 250.000000) scale(1, -1) rotate(90.000000) translate(-127.000000, -250.000000) translate(119.000000, 238.000000)">
                <path d="M12.9937107,23.5338802 L12.9937107,22.8672135 L14.1606675,22.8672135 C14.2659194,22.8672135 14.3523374,22.7817591 14.3523374,22.6813977 L14.3523374,21.3390931 C14.3523374,21.2387317 14.2659194,21.1532773 14.1606675,21.1532773 C13.9679446,21.1532773 13.8131449,21.0002037 13.8151058,20.76981 C13.9659155,19.3855958 14.1613311,17.7397265 14.3530023,16.3278424 C14.6444345,14.1811014 14.8601147,12.983044 15.0601897,12.6979923 C15.1140389,12.4994937 15.1535941,12.2145594 15.1379769,11.9296341 C15.1142154,11.4961235 14.9682902,11.1502255 14.6710485,10.9205446 C14.5578903,10.8324587 12.8862611,9.09651873 12.7817383,8.98985853 C12.7008459,8.90739013 12.7008459,8.90739013 12.6198399,8.82514533 C12.1028205,8.30080487 11.6816653,7.89046847 11.3438423,7.5871476 C11.3352151,7.58178853 11.3352151,7.58178853 11.2766124,7.495862 C11.2364342,7.36334567 11.2364342,7.36334567 11.2401563,7.3407736 L11.2401563,2.73858633 C11.2401563,1.78233033 10.4490043,1 9.47820667,1 L4.2512553,1 L4.2512553,0.333333333 L9.47820667,0.333333333 C10.8155311,0.333333333 11.906823,1.41245678 11.906823,2.73858633 L11.906823,7.19805833 C12.227496,7.4915508 12.6221871,7.87801807 13.0945468,8.3570666 C13.1763151,8.44008527 13.1763151,8.44008527 13.2578894,8.52324887 C13.4548501,8.72423707 15.0048324,10.3338428 15.0791717,10.393396 C15.5482237,10.7560798 15.7701651,11.2823433 15.8036444,11.8931477 C15.8246978,12.2772521 15.7691957,12.6495773 15.6946511,12.9039429 C15.6784386,12.9680695 15.6590068,13.0037547 15.625187,13.0539107 L15.610427,13.0743337 C15.4003123,13.343052 14.9051698,16.9617827 14.5069558,20.5593457 C14.8077371,20.6919113 15.0190041,20.9914581 15.0190041,21.3390931 L15.0190041,22.6813977 C15.0190041,23.1516327 14.6324463,23.5338802 14.1606675,23.5338802 L12.9937107,23.5338802 Z M10.327044,23.5338802 L8.59374187,23.5338802 C8.12196313,23.5338802 7.73540533,23.1516327 7.73540533,22.6813977 L7.73540533,21.3297391 C7.73540533,20.9383731 8.00316847,20.6079547 8.364972,20.508127 C8.08338613,20.1997181 7.8264704,19.855097 7.59277753,19.4805552 C7.2613236,18.9493306 6.990925,18.3827703 6.77526667,17.8123245 C6.64475417,17.4671011 6.56243844,17.2017805 6.5039483,16.9810366 C6.49239053,16.9503035 6.48676052,16.92154 6.48385175,16.8852571 L6.48427833,16.8925728 L6.04053426,13.0813514 C5.46119273,11.1055024 5.51282165,9.94091127 6.01921439,9.38131227 C6.19660555,9.1852828 6.39088369,9.10288213 6.53773,9.09070787 C6.58931002,9.08504067 6.62585277,9.08403693 6.70183847,9.08403693 C7.55632467,9.08403693 8.14435133,9.72871007 8.5311604,10.7640315 C8.75268633,11.3569611 8.8712014,11.94968 8.93561533,12.5142968 C8.93482847,12.4984967 8.9292672,12.4787807 8.92475653,12.46963 C9.02187167,12.6680327 9.17529373,12.9457832 9.34215527,13.2046339 C9.5290294,13.4945299 9.70842887,13.7199924 9.85351707,13.8466078 C9.94944793,13.778069 10.0104191,13.6687317 10.0104191,13.5518555 L10.0104191,2.54682853 C10.0104191,2.26874037 9.7773786,2.03829834 9.49239593,2.03829834 L5.04394348,2.03829834 L5.04394348,4.66666667 L4.37727681,4.66666667 L4.37727681,1.84995261 C4.37727681,1.58550651 4.59356333,1.37163167 4.85723266,1.37163167 L9.49239593,1.37163167 C10.1439055,1.37163167 10.6770858,1.89886681 10.6770858,2.54682853 L10.6770858,13.5518555 C10.6770858,14.0158751 10.359142,14.420388 9.91410753,14.5461229 L9.82347907,14.5586797 L9.7303172,14.5586797 L9.65654447,14.5191366 C9.367205,14.3640473 9.0821336,14.0317122 8.78182053,13.5658395 C8.59728233,13.2795671 8.4301522,12.9763653 8.345733,12.7981106 C8.29870647,12.7283574 8.2745978,12.6449179 8.27668233,12.6022249 C8.22131527,12.1094777 8.11152133,11.5456889 7.90665653,10.997354 C7.60649447,10.1939492 7.2021962,9.7507036 6.70183847,9.7507036 C6.65012067,9.7507036 6.62990631,9.75125887 6.60192849,9.75421987 C6.60350551,9.75408793 6.5669625,9.7695872 6.51353251,9.828631 C6.20113451,10.1738524 6.15944875,11.1187809 6.68114467,12.8967631 L6.6946292,12.9906132 C6.6873922,12.9222061 6.68659887,12.914707 6.68159153,12.9012111 C6.69008133,12.9245441 6.6905296,12.9277829 6.69709993,12.9752569 L7.14037527,16.7824521 L7.14261327,16.7883671 C7.31547833,17.4507503 7.62818907,18.2779131 8.1583782,19.1276525 C8.39176507,19.5017039 8.6488246,19.8407079 8.94322893,20.1514679 C9.016699,20.2386489 9.0595084,20.3464034 9.0595084,20.4644905 L9.0595084,20.7965589 C9.0595084,20.9908497 8.90470873,21.1439233 8.7119858,21.1439233 L8.59374187,21.1439233 C8.48849,21.1439233 8.402072,21.2293777 8.402072,21.3297391 L8.402072,22.6813977 C8.402072,22.7817591 8.48849,22.8672135 8.59374187,22.8672135 L10.327044,22.8672135 L10.327044,23.5338802 Z M3.36708168,0.333333333 L3.36708168,1 L2.61532715,1 C1.72668817,1 1,1.71978893 1,2.59359873 L1,13.3881599 C1,14.3444159 1.79115203,15.1267462 2.76194966,15.1267462 L5.0542585,15.1267462 L4.99073683,14.5914189 L4.85723266,14.5914189 C4.59356333,14.5914189 4.37727681,14.377544 4.37727681,14.1130979 L4.37727681,7.33333333 L5.04394348,7.33333333 L5.04394348,13.9247522 L5.15520744,13.9247522 C5.39723683,13.9247522 5.60180005,14.0994505 5.63284069,14.3450839 L5.74186317,15.2638404 C5.77380614,15.5481215 5.54559345,15.7934129 5.26399189,15.7934129 L2.76194966,15.7934129 C1.42462517,15.7934129 0.333333333,14.7142894 0.333333333,13.3881599 L0.333333333,2.59359873 C0.333333333,1.35016799 1.35991443,0.333333333 2.61532715,0.333333333 L3.36708168,0.333333333 Z M2.5232115,13.8791737 L2.5232115,2.07919975 C2.34247035,2.15625115 2.21554792,2.33361911 2.21554792,2.53747449 L2.21554792,13.420899 C2.21554792,13.6247544 2.34247035,13.8021223 2.5232115,13.8791737 Z M3.18987817,14.1224519 C3.18987817,14.3825133 2.97818348,14.5867418 2.72411159,14.5867418 C2.07733183,14.5867418 1.54888125,14.0641837 1.54888125,13.420899 L1.54888125,2.53747449 C1.54888125,1.89418979 2.07733183,1.37163167 2.72411159,1.37163167 C2.98328087,1.37163167 3.18987817,1.58103266 3.18987817,1.83592155 L3.18987817,14.1224519 Z" id="Combined-Shape"></path>
            </g>
        </g>
    </g>
</svg>