<?xml version="1.0" encoding="UTF-8"?>
<svg width="9px" height="10px" viewBox="0 0 9 10" version="1.1" xmlns="http://www.w3.org/2000/svg" xmlns:xlink="http://www.w3.org/1999/xlink">
    <!-- Generator: Sketch 63.1 (92452) - https://sketch.com -->
    <title>reversed</title>
    <desc>Created with Sketch.</desc>
    <g id="Page-1" stroke="none" stroke-width="1" fill="none" fill-rule="evenodd">
        <g id="06-my-transactions-copy-2" transform="translate(-935.000000, -626.000000)" fill="#4A8ACC" fill-rule="nonzero" stroke="#4A8ACC" stroke-width="0.6">
            <g id="Group-6" transform="translate(935.000000, 620.000000)">
                <g id="Group-23">
                    <g id="reversed" transform="translate(0.000000, 4.000000)">
                        <g id="opposite-arrows" transform="translate(0.000000, 0.162037)">
                            <g id="Group-18">
                                <path d="M7.00030297,6.40832805 C6.97108483,6.39607333 6.93972362,6.38973468 6.90806058,6.38973468 L4.01039368,6.38973468 C3.87704063,6.38973468 3.76892144,6.49785388 3.76892144,6.63120692 C3.76892144,6.76455997 3.87704063,6.87267917 4.01039368,6.87267917 L6.32514658,6.87267917 L1.90789487,11.2899309 C1.81197002,11.3825959 1.80931383,11.5354478 1.9019788,11.6313726 C1.99464377,11.7272975 2.1474957,11.7299537 2.24342055,11.6372887 C2.24544288,11.6353569 2.24740484,11.6333648 2.24933662,11.6313726 L6.66658833,7.21412091 L6.66658833,9.52887382 C6.66658833,9.66222687 6.77470753,9.77034606 6.90806058,9.77034606 C7.04141362,9.77034606 7.14953282,9.66222687 7.14953282,9.52887382 L7.14953282,6.63120692 C7.1493819,6.59954388 7.14307343,6.56821285 7.13093945,6.53896453 C7.10643002,6.47983401 7.05943349,6.43283748 7.00030297,6.40832805 Z" id="Path" transform="translate(4.491856, 9.047412) rotate(-135.000000) translate(-4.491856, -9.047412) "></path>
                                <path d="M7.07462007,1.9524461 C6.98032516,1.85818138 6.82747323,1.85818138 6.73317832,1.9524461 L2.31592661,6.36969782 L2.31592661,4.05494491 C2.31592661,3.92159187 2.20780741,3.81347267 2.07445437,3.81347267 C1.94110132,3.81347267 1.83298213,3.92159187 1.83298213,4.05494491 L1.83298213,6.95261181 C1.83313305,6.98427486 1.83944151,7.01560588 1.85157549,7.04485421 C1.87608492,7.10398472 1.92308146,7.15098126 1.98221197,7.17549069 C2.0114603,7.18762467 2.04279132,7.19393313 2.07445437,7.19408405 L4.97212127,7.19408405 C5.10547431,7.19408405 5.21359351,7.08596485 5.21359351,6.95261181 C5.21359351,6.81925876 5.10547431,6.71113957 4.97212127,6.71113957 L2.65736836,6.71113957 L7.07462007,2.29388785 C7.1688848,2.19959294 7.1688848,2.04674102 7.07462007,1.9524461 Z" id="Path" transform="translate(4.489150, 4.537916) rotate(-136.000000) translate(-4.489150, -4.537916) "></path>
                            </g>
                        </g>
                    </g>
                </g>
            </g>
        </g>
    </g>
</svg>