<?xml version="1.0" encoding="UTF-8"?>
<svg width="245px" height="161px" viewBox="0 0 245 161" version="1.1" xmlns="http://www.w3.org/2000/svg" xmlns:xlink="http://www.w3.org/1999/xlink">
    <!-- Generator: Sketch 53.2 (72643) - https://sketchapp.com -->
    <title>Group 6</title>
    <desc>Created with Sketch.</desc>
    <g id="Page-1" stroke="none" stroke-width="1" fill="none" fill-rule="evenodd">
        <g id="20-Risk-Assessment" transform="translate(-1146.000000, -440.000000)">
            <g id="Group-6" transform="translate(1146.000000, 440.000000)">
                <g id="Group-4">
                    <g id="11132">
                        <path d="M17.711439,160.50397 C17.711439,160.50397 -12.788077,130.90054 6.615512,96.07269 C26.019101,61.243482 52.079703,78.758772 50.818606,38.221211 C49.557315,-2.31635 110.75316,-5.799135 130.23173,5.955131 C149.7103,17.709397 149.5939,31.865868 189.80525,27.182029 C230.01757,22.498093 237.69997,61.543406 227.23852,81.442859 C212.39461,109.67694 268.43442,105.01997 233.12351,160.50397 L17.711439,160.50397" id="Fill-2" fill="#EBF3FA"></path>
                        <path d="M151.64739,90.84536 C151.64739,90.84536 158.12796,63.377967 179.98982,60.357969 C179.98982,60.357969 180.13144,60.340606 180.372,60.340606 C181.44773,60.340606 184.50226,60.689709 185.66044,64.519366 C187.07664,69.203205 178.61921,69.236961 173.39188,71.120992 C168.16358,73.005023 155.9765,80.992003 151.64739,90.84536" id="Fill-3" fill="#D9E5FC"></path>
                        <path d="M151.15075,85.70533 C151.15075,85.70533 148.87804,62.953107 164.83163,54.878342 C164.83163,54.878342 165.5698,54.518763 166.59412,54.518763 C167.67761,54.518763 169.0812,54.920343 170.27236,56.572544 C172.59163,59.787803 166.12173,62.042277 162.61227,64.863231 C159.10378,67.684379 151.87049,77.015003 151.15075,85.70533" id="Fill-4" fill="#D9E5FC"></path>
                        <path d="M33.193415,139.84588 C29.818106,132.15475 42.061349,125.54711 42.061349,125.54711 C42.061349,125.54711 58.19468,130.76862 60.511137,129.3369 C62.827497,127.90421 47.589185,122.1783 47.589185,122.1783 C51.348905,118.50006 65.765724,115.12834 65.765724,115.12834 C65.765724,115.12834 75.490459,128.54829 77.38322,126.58986 C79.27569,124.6324 68.166086,115.14677 68.166086,115.14677 C73.065459,113.15245 80.45618,114.78981 80.45618,114.78981 C91.09902,118.57863 85.68351,132.04902 85.68351,132.04902 C85.68351,132.04902 89.15417,136.62742 96.04796,139.5316 C96.04796,139.5316 97.43409,139.97683 99.36439,141.07681 L98.28866,141.94302 C97.96856,141.72574 97.64749,141.52495 97.32448,141.34356 L97.31866,141.33968 L97.30411,141.33192 C97.09653,141.22522 96.80068,141.0739 96.43596,140.89251 L96.43499,140.89154 L96.43305,140.89057 C95.58624,140.51227 94.98096,140.21545 94.56386,139.98556 L94.56095,139.98362 C91.94874,138.75657 88.41115,137.26762 87.02017,137.47811 C87.02017,137.47811 87.00465,137.21524 86.85333,136.79911 C86.90668,137.01639 86.96197,137.24143 87.02017,137.47811 C88.35683,142.9072 79.67921,150.98148 73.702264,154.06026 C67.72493,157.14001 68.795616,153.89245 69.666385,149.3189 C70.537154,144.74632 76.82353,140.70336 77.79159,138.40543 C78.75965,136.1075 75.519074,137.19972 72.311187,140.21739 C69.103203,143.23506 70.147796,148.03171 65.047245,153.00781 C59.946597,157.98391 47.368219,150.98245 47.368219,150.98245 C52.13606,149.09386 57.280746,141.48033 56.484376,139.95355 C55.688006,138.4258 45.665966,146.71542 43.769713,147.5923 C41.873557,148.46821 36.568821,147.53701 33.193415,139.84588" id="Fill-6" fill="#CDE0FB"></path>
                        <path d="M187.33757,149.09289 C192.26226,143.28259 183.33244,134.3712 183.33244,134.3712 C183.33244,134.3712 167.96085,134.73301 166.31864,132.88904 C164.67643,131.04507 179.40103,130.01299 179.40103,130.01299 C177.08564,125.84296 165.43012,119.181 165.43012,119.181 C165.43012,119.181 153.50494,128.32616 152.36713,126.13493 C151.22932,123.9437 163.3388,118.57572 163.3388,118.57572 C159.59751,115.57454 152.75125,115.08469 152.75125,115.08469 C142.52163,115.62304 143.74092,128.73065 143.74092,128.73065 C143.74092,128.73065 139.53985,131.8104 132.79738,132.55051 L132.79641,132.55051 C132.79641,132.55051 131.47721,132.57767 129.5149,133.03357 L130.22591,134.06565 C130.55959,133.95895 130.89133,133.86777 131.21919,133.79405 L131.22501,133.79211 L131.23956,133.7892 C131.44714,133.7504 131.74396,133.69511 132.10771,133.63206 L132.10868,133.63109 L132.11062,133.63109 C132.94482,133.52148 133.54719,133.4206 133.96914,133.32845 L133.97205,133.32748 C136.55904,132.93754 140.02,132.55924 141.17333,133.10244 C141.17333,133.10244 141.25578,132.8774 141.4944,132.55536 C141.39255,132.72996 141.28585,132.91135 141.17333,133.10244 C138.60671,137.47423 144.05811,146.73676 148.45512,150.96014 C152.85213,155.18352 152.76289,152.0834 153.18969,147.88427 C153.61649,143.68514 149.20008,138.54511 148.9537,136.29665 C148.70732,134.04916 151.24096,135.83687 153.24692,139.29007 C155.25385,142.7423 153.10433,146.64073 156.24907,152.28516 C159.39381,157.92959 172.1367,155.10204 172.1367,155.10204 C168.48271,152.22599 165.98205,144.27878 167.06942,143.15746 C168.15679,142.03614 174.72078,151.83411 176.14183,153.08638 C177.56288,154.33962 182.41385,154.90222 187.33757,149.09289" id="Fill-7" fill="#CDE0FB"></path>
                        <path d="M109.02462,100.97216 L107.45516,100.53275 C107.44449,100.07588 107.41733,99.62968 107.3698,99.19512 L107.36883,99.18639 L107.36689,99.16796 C107.32712,98.89539 107.26892,98.50642 107.19423,98.03209 L107.19423,98.03015 L107.19326,98.02821 C106.97695,96.95442 106.84697,96.17066 106.78198,95.61194 L106.78198,95.60709 C106.16991,92.25671 105.17469,87.83642 104.01845,86.64429 C102.35102,88.58623 99.26933,89.3535 95.70943,89.3535 C90.08828,89.3535 83.27597,87.44163 78.95559,85.21742 C71.898355,81.586128 75.752941,80.387984 80.7433,78.089375 C82.07802,77.47488 83.64166,77.258085 85.27029,77.258085 C87.21999,77.258085 89.26281,77.568388 91.12327,77.878691 C92.98276,78.189091 94.65795,78.499394 95.86851,78.499394 C96.22062,78.499394 96.53296,78.473301 96.80068,78.413258 C99.67188,77.768208 96.40104,75.403348 91.30175,74.390086 C90.7537,74.281058 90.21923,74.233431 89.69155,74.233431 C87.87183,74.233431 86.1365,74.799426 84.19747,75.365421 C82.25941,75.931416 80.11862,76.497411 77.49089,76.497411 C76.42486,76.497508 75.278514,76.404291 74.032646,76.180221 C65.754957,74.69098 63.857249,57.805608 63.857249,57.805608 C66.632419,59.599526 71.124489,60.331585 74.781098,60.331779 C77.82263,60.331876 80.28643,59.825439 80.7045,59.002491 C81.626,57.19024 66.790335,53.24428 64.647799,52.023438 C62.505457,50.802693 59.763752,45.066792 64.838889,36.550774 C66.719428,33.395267 69.928188,32.40189 73.221726,32.40189 C78.81688,32.40189 84.65725,35.26727 84.65725,35.26727 C84.65725,35.26727 90.70229,54.348625 93.66564,55.592359 C93.76167,55.632614 93.84994,55.652208 93.92948,55.652208 C96.31568,55.652208 91.68393,38.269226 91.68393,38.269226 C97.7959,39.359312 110.92,50.899596 110.92,50.899596 C110.92,50.899596 104.69357,69.444153 107.87226,69.920035 C107.91591,69.926534 107.95956,69.929832 108.00224,69.929832 C111.09266,69.929832 112.54766,53.218575 112.54766,53.218575 C117.82349,56.558479 121.31743,64.782139 121.31743,64.782139 C124.97336,77.605442 108.31846,81.637732 108.31846,81.637732 C108.31846,81.637732 106.29989,88.11093 108.23504,96.72647 C108.23504,96.72647 108.75787,98.36383 109.02462,100.97216 M104.5568,86.01864 C104.38511,86.21846 104.20663,86.42604 104.01845,86.64429 C104.01845,86.64429 104.26095,86.44835 104.5568,86.01864" id="Fill-8" fill="#DCE9FB"></path>
                        <path d="M184.25297,99.89255 C183.26648,101.72294 182.03749,103.57176 180.77746,105.07526 L180.77746,105.07623 C179.45826,106.65151 178.10802,107.84849 176.96827,108.25395 L176.95954,108.25686 C176.8994,108.27723 176.8412,108.29663 176.78203,108.31215 L176.7733,108.31409 L176.77233,108.31506 C176.54147,108.38102 176.32031,108.41012 176.11079,108.40042 C172.37047,108.23261 168.42839,100.20877 168.42839,100.20877 C168.42839,100.20877 168.53121,99.25817 169.25871,98.58596 C169.89309,98.00008 170.381,97.84682 170.381,97.84682 C170.381,97.84682 174.40941,101.98387 175.39396,102.28166 C176.01282,102.4679 176.82665,99.57924 177.99259,95.95144 C179.1595,92.32364 183.25581,91.4293 183.25581,91.4293 C183.25581,91.4293 187.40159,94.05315 184.25297,99.89255" id="Fill-12" fill="#AEC3FF"></path>
                        <path d="M180.77746,105.07526 L180.77746,105.07623 C179.45826,106.65151 178.10802,107.84849 176.96827,108.25395 L176.95954,108.25686 L176.78203,108.31215 L176.77233,108.31506 L176.7733,108.31409 C176.81501,108.28693 178.0343,107.65449 178.22539,106.47982 C178.42133,105.2809 177.1516,104.29926 180.34193,102.44365 C182.20045,101.3621 180.77746,105.07526 180.77746,105.07526" id="Fill-13" fill="#94B0ED"></path>
                        <path d="M177.85776,160.10239 L186.62365,160.10239 C187.25124,159.67656 186.4539,155.51235 186.4539,155.51235 C186.4539,155.51235 184.06188,154.60443 183.64866,156.45034 C183.2335,158.29528 180.60092,158.88213 179.208,159.10717 C178.25449,159.26237 177.95282,159.78617 177.85776,160.10239" id="Fill-14" fill="#24406D"></path>
                        <path d="M191.22533,116.93933 C191.22533,116.93933 190.94888,122.05317 190.60259,127.9789 C190.35427,132.2275 190.07103,136.89417 189.82756,140.38908 C189.79555,140.85274 189.76354,141.29603 189.7325,141.71507 C189.72377,141.84505 189.71407,141.97406 189.70437,142.10307 C189.07678,149.9397 186.9777,156.80536 186.9777,156.80536 C184.5139,157.32431 183.40034,156.37468 183.40034,156.37468 C183.40034,156.37468 181.70187,136.47222 181.07331,128.44547 C180.61062,122.5372 180.21583,113.93427 180.21583,113.93427 L191.22533,116.93933" id="Fill-15" fill="#8E8DAA"></path>
                        <path d="M190.60259,127.9789 C190.35427,132.2275 190.07103,136.89417 189.82756,140.38908 C188.21639,136.58862 184.92421,121.77478 184.92421,121.77478 L190.60259,127.9789" id="Fill-16" fill="#656385"></path>
                        <path d="M190.8577,160.10239 L199.62456,160.10239 C200.25215,159.67656 199.45481,155.51235 199.45481,155.51235 C199.45481,155.51235 197.06182,154.60443 196.6486,156.45034 C196.23441,158.29528 193.60183,158.88213 192.20794,159.10717 C191.25443,159.26237 190.95373,159.78617 190.8577,160.10239" id="Fill-17" fill="#24406D"></path>
                        <path d="M182.59718,115.92277 C182.59718,115.92277 188.85659,131.50485 190.8577,137.41118 C192.2836,141.61807 196.30328,156.37759 196.30328,156.37759 C196.30328,156.37759 198.05219,156.91012 199.52077,155.88192 C199.52077,155.88192 201.01651,140.8023 197.99593,136.55079 C196.39252,134.29457 197.59726,113.10007 191.09826,112.91868 C184.59926,112.73729 182.59718,115.92277 182.59718,115.92277" id="Fill-18" fill="#8E8DAA"></path>
                        <path d="M195.41476,110.91078 C195.38857,113.12626 195.36432,114.75295 195.37014,115.16423 C195.3876,116.50477 194.53012,116.80741 193.64645,117.01208 C193.64645,117.01208 192.83068,117.18765 191.80054,117.36225 C190.79174,117.53103 189.57439,117.69787 188.71497,117.69205 C184.3199,117.65713 180.64166,116.36315 180.64166,116.36315 C179.81425,116.36315 179.43789,115.08469 179.30209,113.29795 C179.20994,112.08933 179.58339,100.0332 179.62995,97.02329 C179.66196,94.86407 180.8473,92.86878 181.17904,92.57681 C184.24812,89.86275 193.30501,90.20516 194.93461,92.07726 C195.33813,92.53995 195.4555,97.00292 195.46908,101.89269 C195.47781,105.04034 195.4458,108.36356 195.41476,110.91078" id="Fill-19" fill="#AEC3FF"></path>
                        <path d="M189.97694,91.0025 C188.8207,92.25574 184.93682,92.0695 185.05225,90.97631 C185.06777,90.84148 185.09299,90.04123 185.10657,89.91707 C185.11627,89.81716 185.12597,89.71919 185.13373,89.62801 C185.15992,89.35835 185.18126,89.11973 185.19872,88.91409 C185.2511,88.31463 185.26759,87.98968 185.26759,87.98968 L185.27147,87.98968 C185.38205,87.95767 187.8798,87.2486 189.1214,86.95469 C189.5385,86.85672 189.81495,86.80434 189.8101,86.8412 C189.42889,89.63092 190.35621,90.59122 189.97694,91.0025" id="Fill-20" fill="#FFB27D"></path>
                        <path d="M189.25332,87.77822 C189.25332,87.77822 188.21057,88.83746 185.19872,88.91409 C185.2511,88.31463 185.26759,87.98968 185.26759,87.98968 L185.27147,87.98968 C185.38205,87.95767 187.8798,87.2486 189.1214,86.95469 C189.34062,87.0449 189.05059,87.62787 189.25332,87.77822" id="Fill-21" fill="#ED975D"></path>
                        <path d="M184.5042,87.84127 C184.5042,87.84127 185.26662,88.11481 186.23856,88.24479 C187.65961,88.43685 189.52977,88.32433 190.11662,86.60355 C191.10602,83.70907 192.36896,81.973158 189.45799,80.791019 C187.90017,80.158094 186.90301,80.124532 186.22595,80.366062 C185.63813,80.574418 185.29087,80.990936 185.02897,81.402798 C184.46346,82.288893 183.32662,87.33396 184.5042,87.84127" id="Fill-22" fill="#FFB27D"></path>
                        <path d="M185.24819,79.162389 C184.20835,79.845172 184.54785,81.445575 185.77296,81.661012 C186.50725,81.790119 187.1232,81.815824 187.47919,81.974225 C188.20281,82.295877 188.82555,82.637026 188.65386,83.75951 C188.59663,84.14169 188.41039,84.60729 189.393,84.37643 C189.55402,84.3386 189.67042,84.34927 189.74996,84.39777 C190.15736,84.6393 189.63647,85.81203 189.47933,86.06617 C189.47933,86.06617 189.25332,86.90619 189.75578,87.31456 C189.81592,87.36403 190.80241,87.79471 193.17891,84.15818 C193.55236,83.58782 193.90835,82.301309 193.33217,81.063201 C192.75599,79.824996 191.1487,78.259028 188.12133,78.259028 C187.33272,78.259028 186.14835,78.57098 185.24819,79.162389" id="Fill-23" fill="#233862"></path>
                        <path d="M195.41476,110.91078 C194.97244,112.96621 195.08496,112.98755 194.40693,112.44823 C191.64243,110.25118 192.45044,109.09979 193.06445,107.19568 C193.67846,105.29157 191.52312,102.31367 193.06445,101.04394 C194.5728,99.80331 195.43125,101.80345 195.46908,101.89269 C195.47781,105.04034 195.4458,108.36356 195.41476,110.91078" id="Fill-24" fill="#94B0ED"></path>
                        <path d="M195.34686,110.64597 C195.34686,110.64597 194.30508,112.35026 193.6222,112.29012 C192.93932,112.22998 192.01685,111.97487 191.48529,112.48315 C190.95276,112.99046 190.09528,114.30093 190.33487,114.65013 C190.57446,114.99836 191.53864,114.6899 192.23025,114.30772 C192.9238,113.92554 194.01408,114.4959 194.59511,114.06134 C195.17614,113.62775 196.56809,111.90503 196.56809,111.90503 L195.34686,110.64597" id="Fill-25" fill="#FFB27D"></path>
                        <path d="M194.93461,92.07726 C194.93461,92.07726 203.58216,100.21362 202.45987,105.62719 C201.94771,108.0939 200.35982,110.17455 196.12868,113.54336 C196.12868,113.54336 194.1266,112.16014 193.68719,111.03688 C193.68719,111.03688 197.52839,105.62719 197.37998,104.70569 C197.19762,103.57855 194.57571,100.751 193.63578,100.31159 C192.69488,99.87218 192.78121,93.02107 194.93461,92.07726" id="Fill-26" fill="#AEC3FF"></path>
                        <path d="M193.6222,112.29012 C193.6222,112.29012 192.7104,111.89145 192.41746,111.72073 C192.12452,111.55001 192.18951,111.82646 192.27972,111.9642 C192.36896,112.10291 192.6134,112.41234 192.97133,112.44435 C193.32926,112.47733 193.6222,112.29012 193.6222,112.29012" id="Fill-27" fill="#FFB27D"></path>
                        <path d="M41.565388,94.60799 C41.252757,94.00465 48.386428,91.83379 48.499433,97.78474 C48.499433,97.78474 61.862735,97.45591 55.482075,90.00728 C53.273094,87.42902 53.500365,85.29696 53.566616,83.31234 C53.633643,81.327332 52.190671,75.558839 47.24435,76.139675 C47.24435,76.139675 45.949012,75.612674 44.33241,76.451239 C40.65611,78.35855 32.420713,96.80213 41.565388,94.60799" id="Fill-28" fill="#163560"></path>
                        <path d="M63.412698,100.07006 C63.412698,100.07006 64.282594,98.74601 64.983613,98.71982 C65.684632,98.69363 66.98288,98.33085 66.878993,98.58984 C66.775106,98.8498 65.970297,98.87599 65.892406,99.03119 C65.814515,99.18736 67.086767,99.42113 67.450226,99.44732 C67.813782,99.47254 68.670583,99.44732 68.644587,99.62871 C68.618688,99.8101 67.10025,100.56379 66.028982,100.46 C64.957617,100.35524 63.633373,100.77137 63.633373,100.77137 L63.412698,100.07006" id="Fill-29" fill="#FFB27D"></path>
                        <path d="M50.832671,100.4988 C50.832671,100.4988 51.305546,101.43485 52.16322,102.51058 C53.196852,103.80553 54.790562,105.3003 56.791672,105.59615 C57.747413,105.7368 58.682202,105.53116 59.541331,105.14995 L59.544435,105.14898 C61.97477,104.07034 63.80225,101.58908 63.80225,101.58908 C64.230602,100.42023 63.529583,99.62871 63.529583,99.62871 C63.529583,99.62871 58.622159,100.73257 58.154813,100.4988 C57.687467,100.26503 54.814036,93.89019 54.296444,92.82804 C53.19627,90.57182 51.450464,89.92386 51.450464,89.92386 L50.832671,100.4988" id="Fill-30" fill="#AEC3FF"></path>
                        <path d="M52.16322,102.51058 C53.196852,103.80553 54.790562,105.3003 56.791672,105.59615 C57.747413,105.7368 58.682202,105.53116 59.541331,105.14995 C59.446368,105.16159 57.019137,105.46229 56.051659,103.73084 C55.064781,101.96544 53.997587,99.16117 52.531626,100.09625 C51.899089,100.49977 51.927122,101.50178 52.16322,102.51058" id="Fill-31" fill="#94B0ED"></path>
                        <path d="M32.524212,153.4705 C32.524212,153.4705 31.026823,154.83723 31.318987,155.8082 C31.611151,156.77917 32.962458,157.42713 33.145109,158.61344 C33.32776,159.80072 34.05817,160.44771 34.715539,160.44771 C35.373005,160.44771 37.849803,160.44771 37.849803,160.44771 C37.849803,160.44771 38.333736,159.61254 37.164983,159.36034 C35.99623,159.10911 35.555559,157.71425 35.6286,156.42027 C35.701641,155.12532 35.519087,153.39872 35.519087,153.39872 L33.035499,152.82351 L32.524212,153.4705" id="Fill-32" fill="#1D3356"></path>
                        <path d="M45.198329,154.05153 C45.198329,154.05153 44.659591,159.84049 45.317057,160.1635 L53.730352,160.14701 C53.730352,160.14701 53.730352,159.17604 52.378948,158.95973 C51.027641,158.74439 48.65376,157.95287 48.251986,156.19038 C47.850212,154.42886 45.198329,154.05153 45.198329,154.05153" id="Fill-33" fill="#1D3356"></path>
                        <path d="M38.726392,96.59358 C38.726392,96.59358 38.600971,98.36092 38.726392,100.48231 C38.809812,101.88881 40.232026,103.77158 40.433786,104.23718 C40.940126,105.40603 41.511068,105.59615 41.511068,105.59615 L45.928448,106.67867 L47.481709,107.05891 L52.379724,105.59615 C52.379724,105.59615 54.610627,99.36875 53.714832,95.86414 C52.819037,92.35856 51.450464,89.92386 51.450464,89.92386 C51.450464,89.92386 48.12996,88.61436 42.249529,89.59212 L38.726392,96.59358" id="Fill-34" fill="#AEC3FF"></path>
                        <path d="M40.019402,101.05655 C40.102725,102.46208 40.232026,103.77158 40.433786,104.23718 C40.940126,105.40603 41.511068,105.59615 41.511068,105.59615 L45.928448,106.67867 L47.847011,106.1151 C47.847011,106.1151 41.442489,105.14413 42.152141,99.63356 L40.019402,101.05655" id="Fill-35" fill="#F2CCAA"></path>
                        <path d="M52.06816,106.54093 C52.06816,106.54093 54.493742,114.09141 54.649621,116.66191 C54.805403,119.23241 50.012924,153.17853 49.820088,154.3629 C49.63831,155.47937 48.251986,156.19038 48.251986,156.19038 C48.251986,156.19038 47.614308,156.56674 46.704254,156.30969 C45.441702,155.9537 45.042547,155.5269 45.042547,155.5269 C45.042547,155.5269 43.154636,131.31667 44.323001,122.66815 C45.491366,114.01963 45.505043,106.54093 45.505043,106.54093 L52.06816,106.54093" id="Fill-36" fill="#233862"></path>
                        <path d="M41.791398,106.31589 C41.791398,106.31589 38.091333,111.28035 37.746401,114.63655 C37.401469,117.99275 37.205238,129.78019 36.470463,133.052 C35.735591,136.32381 33.035499,142.61911 33.035499,152.82351 C33.035499,152.82351 33.31612,153.40842 34.182815,153.71979 C34.459847,153.8197 34.831163,153.9167 35.191615,153.99915 C35.906311,154.16308 36.639437,153.81388 36.965551,153.15719 C38.790994,149.48186 44.605659,137.62749 44.90374,135.16757 C45.114715,133.42642 46.950634,121.90088 50.955376,115.13901 C51.91684,113.51523 50.365422,107.05891 50.365422,107.05891 L41.791398,106.31589" id="Fill-37" fill="#2B478B"></path>
                        <path d="M52.455675,105.37596 C52.455675,105.37596 51.481795,106.14614 49.547421,106.18494 C47.236881,106.2315 41.511359,105.59615 41.511359,105.59615 C41.511359,105.59615 41.256928,106.30619 41.267307,107.05697 C41.267307,107.05697 48.260037,108.8214 52.311727,107.31499 C52.311727,107.31499 52.834266,106.33141 52.455675,105.37596" id="Fill-38" fill="#233862"></path>
                        <path d="M49.396974,106.98228 C49.396974,107.44788 49.713097,107.82618 50.101776,107.82618 C50.490552,107.82618 50.806675,107.44788 50.806675,106.98228 C50.806675,106.51765 50.490552,106.13838 50.101776,106.13838 C49.713097,106.13838 49.396974,106.51765 49.396974,106.98228 Z M49.047483,106.98228 C49.047483,106.32462 49.520358,105.78918 50.101776,105.78918 C50.683194,105.78918 51.156166,106.32462 51.156166,106.98228 C51.156166,107.64091 50.683194,108.17635 50.101776,108.17635 C49.520358,108.17635 49.047483,107.64091 49.047483,106.98228 L49.047483,106.98228 Z" id="Fill-39" fill="#FFFFFF"></path>
                        <path d="M34.726403,107.38871 L40.404783,112.3328 C40.815093,112.68976 41.437348,112.64708 41.794599,112.23677 L49.040111,103.91611 C49.397459,103.5058 49.354391,102.88306 48.944081,102.5261 L43.265701,97.58201 C42.855391,97.22408 42.233136,97.26773 41.875885,97.67804 L34.630373,105.9987 C34.273122,106.40901 34.316093,107.03078 34.726403,107.38871" id="Fill-40" fill="#F78248"></path>
                        <path d="M43.127185,106.76403 C43.207792,106.78537 46.1434,107.13069 46.143885,107.73694 C46.144467,108.43825 45.283495,109.37818 44.472478,109.33356 C44.143745,109.3161 42.629381,107.92318 42.629381,107.92318 L43.127185,106.76403" id="Fill-41" fill="#FFB27D"></path>
                        <path d="M44.634662,89.27105 C44.968633,88.4611 45.163603,87.22726 45.158074,85.70048 L45.379913,85.74413 L49.108787,86.4823 C49.108787,86.4823 49.024009,87.656 49.021487,88.7618 C49.021487,88.77053 49.021487,88.78023 49.02139,88.78896 C49.016831,89.74926 49.670126,90.71247 48.12996,91.09368 C47.653981,91.21105 43.933255,90.97243 44.634662,89.27105" id="Fill-42" fill="#FFB27D"></path>
                        <path d="M49.108884,86.4823 C49.108884,86.4823 49.024009,87.656 49.021487,88.7618 C46.934823,88.70263 45.831836,86.79949 45.379913,85.74413 L49.108884,86.4823" id="Fill-43" fill="#E8945B"></path>
                        <path d="M49.805732,87.52893 C49.805732,87.52893 44.868626,87.61041 44.865231,84.53551 C44.861836,81.460125 44.222412,79.399457 47.374427,79.217388 C50.526442,79.035416 51.140161,80.208243 51.391003,81.234406 C51.641845,82.260666 51.089915,87.42902 49.805732,87.52893" id="Fill-44" fill="#FFB27D"></path>
                        <path d="M49.622984,79.142116 C49.622984,79.142116 48.271192,82.750031 46.19675,83.28324 C44.122211,83.81674 43.222342,83.26093 43.222342,83.26093 C43.222342,83.26093 44.813627,81.997117 45.143815,79.790464 C45.143815,79.790464 48.60332,77.424828 49.622984,79.142116" id="Fill-45" fill="#163560"></path>
                        <path d="M49.287946,79.435056 C49.287946,79.435056 50.290344,79.809767 50.702885,80.540759 C51.106308,81.255746 51.450076,82.202466 51.370245,83.36375 C51.370245,83.36375 52.388745,80.911784 51.244242,79.52449 C50.030578,78.053485 49.287946,79.435056 49.287946,79.435056" id="Fill-46" fill="#163560"></path>
                        <path d="M43.127185,106.76403 C43.127185,106.76403 43.830726,106.53802 44.300885,106.60398 C44.771044,106.66994 45.118983,106.59428 45.118983,106.7262 C45.118983,106.85812 44.511957,106.91923 44.382947,106.98228 C44.25384,107.0463 43.127185,106.76403 43.127185,106.76403" id="Fill-47" fill="#FFB27D"></path>
                        <path d="M42.249529,89.59212 C42.249529,89.59212 38.744919,89.8385 37.401469,93.10352 C36.058116,96.36951 33.509247,101.85292 33.509247,102.77539 C33.509247,103.69786 34.933013,106.54093 42.579523,108.17635 C42.579523,108.17635 43.370461,107.34409 43.322543,106.68643 C43.322543,106.68643 38.54927,102.58624 38.562171,102.10706 C38.586421,101.20108 39.34467,100.0041 43.535361,95.81176 C44.67482,94.67201 42.249529,89.59212 42.249529,89.59212" id="Fill-48" fill="#AEC3FF"></path>
                        <path d="M140.19169,61.764372 L102.31901,61.764372 C101.40333,61.764372 100.52548,62.128219 99.87752,62.775791 L73.097857,89.55526 C72.450188,90.20322 72.086341,91.08107 72.086341,91.99772 L72.086341,129.86943 C72.086341,130.78511 72.450188,131.66393 73.097857,132.31189 L99.87752,159.09068 C100.52548,159.73864 101.40333,160.10239 102.31901,160.10239 L140.19169,160.10239 C141.10737,160.10239 141.98619,159.73864 142.63318,159.09068 L169.41294,132.31189 C170.0609,131.66393 170.42465,130.78511 170.42465,129.86943 L170.42465,91.99772 C170.42465,91.08107 170.0609,90.20322 169.41294,89.55526 L142.63318,62.775791 C141.98619,62.128219 141.10737,61.764372 140.19169,61.764372" id="Fill-49" fill="#EEAE8F"></path>
                        <path d="M137.370269,69.0902437 L105.140474,69.0902437 C104.361227,69.0902437 103.614174,69.3998798 103.062757,69.9509677 L80.2731622,92.740465 C79.7219934,93.291883 79.4123582,94.0389389 79.4123582,94.8190139 L79.4123582,127.048078 C79.4123582,127.827328 79.7219934,128.575209 80.2731622,129.126627 L103.062757,151.915547 C103.614174,152.466965 104.361227,152.776518 105.140474,152.776518 L137.370269,152.776518 C138.149516,152.776518 138.897395,152.466965 139.447986,151.915547 L162.237664,129.126627 C162.78908,128.575209 163.098633,127.827328 163.098633,127.048078 L163.098633,94.8190139 C163.098633,94.0389389 162.78908,93.291883 162.237664,92.740465 L139.447986,69.9509677 C138.897395,69.3998798 138.149516,69.0902437 137.370269,69.0902437" id="Fill-49-Copy" fill="#FFE5D4"></path>
                        <path d="M104.9836,70.061655 C104.55971,70.061655 104.16104,70.226749 103.86034,70.526964 L80.84903,93.53905 C80.5493,93.83878 80.38343,94.23745 80.38343,94.66134 L80.38343,127.20484 C80.38343,127.6297 80.5493,128.02837 80.84903,128.3281 L103.86034,151.34038 C104.16007,151.64011 104.55971,151.80501 104.9836,151.80501 L137.5271,151.80501 C137.95099,151.80501 138.35063,151.64011 138.65036,151.34038 L161.66167,128.3281 C161.96237,128.02837 162.12727,127.6297 162.12727,127.20484 L162.12727,94.66134 C162.12727,94.23745 161.96237,93.83878 161.66167,93.53905 L138.65036,70.526867 C138.35063,70.226749 137.95099,70.061655 137.5271,70.061655 L104.9836,70.061655 Z M137.5271,155.17964 L104.9836,155.17964 C103.65858,155.17964 102.41213,154.6636 101.47414,153.72658 L78.46283,130.7143 C77.52581,129.77728 77.0088,128.53083 77.0088,127.20484 L77.0088,94.66134 C77.0088,93.33632 77.52581,92.08987 78.46283,91.15188 L101.47414,68.140861 C102.41213,67.203259 103.65858,66.687025 104.9836,66.687025 L137.5271,66.687025 C138.85309,66.687025 140.09954,67.203259 141.03656,68.140861 L164.04787,91.15285 C164.98586,92.08987 165.5019,93.33632 165.5019,94.66134 L165.5019,127.20484 C165.5019,128.53083 164.98586,129.77728 164.04787,130.7143 L141.03656,153.72561 C140.09954,154.6636 138.85309,155.17964 137.5271,155.17964 L137.5271,155.17964 Z" id="Fill-50" fill="#FFE5D4"></path>
                    </g>
                    <g id="Group-12" transform="translate(99.526428, 91.062660)">
                        <rect id="Rectangle" fill="#003974" x="11.3373402" y="36.0793691" width="20.2434783" height="2.24927536" rx="1.12463768"></rect>
                        <rect id="Rectangle" fill="#F58220" x="15.8358909" y="40.5779199" width="11.2463768" height="2.24927536" rx="1.12463768"></rect>
                        <g id="gear" transform="translate(0.090963, 0.090963)" fill-rule="nonzero">
                            <path d="M36.4395239,6.29728764 C32.4324225,2.29192512 27.0376456,0.0539071564 21.3681159,0.0539071564 L21.3681159,5.85037958 C25.5212884,5.85037958 29.4420223,7.49715751 32.3408382,10.3953937 L34.5637854,8.17244651 L36.4395239,6.29728764 Z" id="Path" fill="#F7C453"></path>
                            <path d="M6.29670803,6.29670803 L10.3953937,10.3953937 C13.3098599,7.48092724 17.240448,5.85037958 21.3681159,5.85037958 L21.3681159,0.0539071564 C15.9994231,0.0539071564 10.7785405,1.97485819 6.29670803,6.29670803 Z" id="Path" fill="#F7C453"></path>
                            <path d="M5.85037958,21.3681159 C5.85037958,17.3836209 7.38122806,13.410139 10.3953937,10.3953937 L6.29670803,6.29670803 C2.3382969,10.255119 0.0539071564,15.6319268 0.0539071564,21.3681159 L5.85037958,21.3681159 Z" id="Path" fill="#66C69E"></path>
                            <path d="M5.85037958,21.3681159 L0.0539071564,21.3681159 C0.0539071564,26.6295739 1.99282729,31.7948105 5.68691913,35.8036509 C6.01326057,36.158395 6.57146075,36.1647711 6.91229333,35.8239386 L9.80994993,32.9268616 C10.1316542,32.6045777 10.1432471,32.0881121 9.83719339,31.7507573 C8.61935457,30.407135 5.85037958,26.8417249 5.85037958,21.3681159 L5.85037958,21.3681159 Z" id="Path" fill="#66C69E"></path>
                            <path d="M11.0330055,5.7176404 C14.0407952,2.81766521 17.3743465,0.978444545 20.8632432,0.0597037031 C15.6725022,0.176792372 10.6382658,2.11049557 6.29670803,6.29670803 L8.60602264,8.60602264 C9.32652406,7.58004695 10.1374506,6.61319535 11.0330055,5.7176404 Z" id="Path" fill="#F7C453"></path>
                            <path d="M4.66905857,21.0823499 C4.66905857,16.5315394 6.07934028,12.2038931 8.60602264,8.60602264 L6.29670803,6.29670803 C2.3382969,10.255119 0.0539071564,15.6313472 0.0539071564,21.3681159 L4.67195677,21.3681159 C4.6707974,21.2730538 4.66905857,21.177412 4.66905857,21.0823499 Z" id="Path" fill="#66C69E"></path>
                            <path d="M4.67253638,21.3681159 L0.0539071564,21.3681159 C0.0539071564,26.6295739 1.99282729,31.7948105 5.68691913,35.8042305 C6.01326057,36.158395 6.57146075,36.1647711 6.91229333,35.8239386 L8.84483731,33.8913946 C6.15701308,30.2141125 4.73050111,25.8325591 4.67253638,21.3681159 Z" id="Path" fill="#66C69E"></path>
                            <path d="M36.4395239,6.29670803 L32.3408382,10.3953937 C35.1579239,13.2136385 36.8858523,17.1053902 36.8858523,21.3681159 L41.1074232,21.3681159 L41.2082818,21.3681159 L42.6823247,21.3681159 C42.6823247,15.7779979 40.4941564,10.3501812 36.4395239,6.29670803 Z" id="Path" fill="#EE5761"></path>
                            <path d="M36.8858523,21.3681159 C36.8858523,25.22277 35.4628183,28.9122248 32.8920827,31.7606113 C32.5900866,32.0950677 32.6092149,32.6092149 32.9274413,32.9274413 L35.8245182,35.8239386 C36.1647711,36.1647711 36.7223917,36.1589746 37.0487331,35.8048101 C40.5874795,31.9629083 42.6823247,26.8672294 42.6823247,21.3681159 L36.8858523,21.3681159 Z" id="Path" fill="#EE5761"></path>
                            <path d="M22.3842375,21.5008551 C22.0909361,21.5008551 21.7976345,21.3889832 21.5738908,21.1652393 C21.1258235,20.7171721 21.1258235,19.9914537 21.573311,19.5433864 L28.5719719,12.5435663 C29.0200392,12.095499 29.7457575,12.095499 30.1938248,12.5429867 C30.6413126,12.991054 30.6413126,13.7167723 30.1938248,14.1648396 L23.195164,21.1646597 C22.9714203,21.3889832 22.6775391,21.5008551 22.3842375,21.5008551 L22.3842375,21.5008551 Z" id="Path" fill="#5E5E5E"></path>
                            <path d="M23.7695945,18.968956 C22.4445208,17.6438824 20.2957686,17.6438824 18.9706949,18.968956 C17.6456213,20.2940296 17.6456213,22.4422022 18.9706949,23.7672759 C20.2957686,25.0923494 22.4445208,25.0923494 23.7695945,23.7672759 C25.094668,22.4422022 25.094668,20.2940296 23.7695945,18.968956 L23.7695945,18.968956 Z" id="Path" fill="#FF6B6B"></path>
                            <path d="M23.6270012,18.8396947 C22.2949719,17.6490992 20.2505561,17.6896746 18.9712746,18.9683764 C17.646201,20.2940296 17.646201,22.4422022 18.9712746,23.7678555 C20.2505561,25.0465573 22.2949719,25.0871326 23.6270012,23.8965371 C22.110644,22.541322 22.110644,20.1949099 23.6270012,18.8396947 Z" id="Path" fill="#EE5253"></path>
                        </g>
                    </g>
                </g>
                <g id="Group-80" transform="translate(55.078431, 143.500000)" fill="#B0BECC">
                    <polygon id="Fill-179" points="0 16.4504804 6.49852451 16.4504804 6.49852451 4.04779412 0 4.04779412"></polygon>
                    <polygon id="Fill-181" points="13.0759804 16.4504804 19.5745049 16.4504804 19.5745049 6.90073529 13.0759804 6.90073529"></polygon>
                    <polygon id="Fill-183" points="26.1519608 16.4504804 32.6504853 16.4504804 32.6504853 0.243872549 26.1519608 0.243872549"></polygon>
                </g>
            </g>
        </g>
    </g>
</svg>