<?xml version="1.0" encoding="UTF-8"?>
<svg width="482px" height="179px" viewBox="0 0 482 179" version="1.1" xmlns="http://www.w3.org/2000/svg" xmlns:xlink="http://www.w3.org/1999/xlink">
    <!-- Generator: Sketch 53.2 (72643) - https://sketchapp.com -->
    <title>confirmation_illustration</title>
    <desc>Created with Sketch.</desc>
    <defs>
        <rect id="path-1" x="0.509540376" y="0.0321992003" width="564" height="191"></rect>
        <linearGradient x1="25.8079026%" y1="43.5789865%" x2="75.0671363%" y2="83.8949636%" id="linearGradient-3">
            <stop stop-color="#003974" stop-opacity="0" offset="0%"></stop>
            <stop stop-color="#003974" stop-opacity="0.06" offset="100%"></stop>
        </linearGradient>
    </defs>
    <g id="Page-1" stroke="none" stroke-width="1" fill="none" fill-rule="evenodd">
        <g id="confirmation_illustration" transform="translate(-83.000000, -13.000000)">
            <mask id="mask-2" fill="white">
                <use xlink:href="#path-1"></use>
            </mask>
            <g id="path-1"></g>
            <g id="Group-6" mask="url(#mask-2)">
                <g transform="translate(-189.203791, -302.369668)" id="Group">
                    <g>
                        <g id="Group-86" transform="translate(0.671967, 0.000000)">
                            <path d="M194.783529,142.094988 L739.315878,552.75649 C687.129669,615.454682 649.411905,660.653918 626.162585,688.354198 C535.634814,619.597703 363.193927,473.493201 108.839926,250.040691 C85.5362396,229.568171 114.184107,193.58627 194.783529,142.094988 Z" id="Rectangle-Copy-3" fill="url(#linearGradient-3)" fill-rule="nonzero" opacity="0.600058" transform="translate(420.157939, 415.224593) rotate(-40.000000) translate(-420.157939, -415.224593) "></path>
                            <g id="Group-6" transform="translate(590.531824, 371.369668)">
                                <g id="Group-4">
                                    <g id="11132">
                                        <path d="M13.3110815,120.627207 C13.3110815,120.627207 -9.61091501,98.3786667 4.97190653,72.2036987 C19.5547281,46.0277101 39.1406464,59.1913752 38.1928654,28.725258 C37.2449386,-1.74085932 83.236847,-4.35835612 97.8760207,4.47559535 C112.515194,13.3095468 112.427714,23.9488822 142.648666,20.4287299 C172.870348,16.9085047 178.644077,46.2531188 170.781745,61.2086083 C159.625763,82.4280108 201.742639,78.928052 175.204626,120.627207 L13.3110815,120.627207" id="Fill-2" fill="#EBF3FA"></path>
                                        <path d="M113.97102,68.2750842 C113.97102,68.2750842 118.84151,47.6318882 135.271852,45.3622003 C135.271852,45.3622003 135.378287,45.3491511 135.559081,45.3491511 C136.367549,45.3491511 138.663189,45.6115204 139.533623,48.4897099 C140.597972,52.0098621 134.241767,52.0352316 130.313152,53.4511803 C126.383809,54.8671291 117.224575,60.8697662 113.97102,68.2750842" id="Fill-3" fill="#D9E5FC"></path>
                                        <path d="M113.597769,64.4120803 C113.597769,64.4120803 111.889707,47.3125835 123.879672,41.2439713 C123.879672,41.2439713 124.434446,40.9737287 125.204277,40.9737287 C126.018576,40.9737287 127.073448,41.2755373 127.968668,42.5172536 C129.711722,44.9336905 124.84925,46.6280467 122.211706,48.7481426 C119.574891,50.8683842 114.138691,57.8808408 113.597769,64.4120803" id="Fill-4" fill="#D9E5FC"></path>
                                        <path d="M24.9466038,105.101562 C22.4098809,99.3212717 31.6113244,94.3552814 31.6113244,94.3552814 C31.6113244,94.3552814 43.7363744,98.2795219 45.4773141,97.2035087 C47.218181,96.1267665 35.765785,91.8234429 35.765785,91.8234429 C38.5914131,89.0590513 49.4264137,86.5250257 49.4264137,86.5250257 C49.4264137,86.5250257 56.7350655,96.6108266 58.1575753,95.1389631 C59.5798664,93.6678286 51.2304125,86.5388768 51.2304125,86.5388768 C54.9125499,85.0400401 60.467067,86.2706025 60.467067,86.2706025 C68.4657231,89.1181008 64.3956814,99.2418101 64.3956814,99.2418101 C64.3956814,99.2418101 67.0040657,102.682719 72.1851128,104.865364 C72.1851128,104.865364 73.2268627,105.199978 74.677585,106.026671 L73.8691171,106.677673 C73.6285451,106.514376 73.387244,106.363472 73.144485,106.227148 L73.1401109,106.224232 L73.1291758,106.2184 C72.9731685,106.138209 72.7508216,106.024484 72.4767153,105.88816 L72.4759863,105.887431 L72.4745283,105.886702 C71.8381058,105.602389 71.383206,105.379313 71.0697333,105.206539 L71.0675463,105.205081 C69.1043325,104.282888 66.4456469,103.163863 65.400252,103.322058 C65.400252,103.322058 65.3885879,103.124497 65.2748629,102.811753 C65.3149583,102.975051 65.3565116,103.14418 65.400252,103.322058 C66.4048225,107.402306 59.883133,113.470553 55.3911425,115.784419 C50.8988604,118.099014 51.7035375,115.658301 52.3579664,112.221037 C53.0123952,108.784501 57.7369387,105.746003 58.4644869,104.018988 C59.1920351,102.291972 56.7565711,103.112833 54.3456747,105.380771 C51.9347054,107.64871 52.7197721,111.253645 48.8864388,114.993447 C45.0530325,118.733249 35.5997174,113.471282 35.5997174,113.471282 C39.1830016,112.051907 43.0495048,106.329937 42.4509907,105.182482 C41.8524766,104.034297 34.3203844,110.264384 32.8952501,110.923406 C31.4701888,111.581698 27.4833996,110.881852 24.9466038,105.101562" id="Fill-6" fill="#CDE0FB"></path>
                                        <path d="M140.794074,112.051178 C144.495239,107.684431 137.784008,100.987051 137.784008,100.987051 C137.784008,100.987051 126.231446,101.25897 124.997239,99.8731294 C123.763031,98.4872886 134.829346,97.711626 134.829346,97.711626 C133.089208,94.5776283 124.329469,89.5708137 124.329469,89.5708137 C124.329469,89.5708137 115.367067,96.4438842 114.511942,94.7970592 C113.656818,93.1502342 122.757732,89.1159138 122.757732,89.1159138 C119.945955,86.8603686 114.800629,86.4922204 114.800629,86.4922204 C107.112529,86.8968189 108.02889,96.7478798 108.02889,96.7478798 C108.02889,96.7478798 104.871564,99.0624745 99.8042421,99.6187063 L99.8035131,99.6187063 C99.8035131,99.6187063 98.8120647,99.6391184 97.3372851,99.9817514 L97.8716466,100.757414 C98.1224248,100.677223 98.3717449,100.608697 98.618149,100.553292 L98.622523,100.551834 L98.6334581,100.549647 C98.7894655,100.520487 99.0125414,100.478934 99.2859187,100.431548 L99.2866477,100.430819 L99.2881057,100.430819 C99.9150511,100.348441 100.367764,100.272625 100.684882,100.203369 L100.687069,100.20264 C102.631328,99.9095798 105.232422,99.6252673 106.099211,100.033511 C106.099211,100.033511 106.161176,99.8643814 106.340512,99.6223513 C106.263966,99.7535724 106.183775,99.8898966 106.099211,100.033511 C104.17026,103.319142 108.267275,110.280422 111.57186,113.454515 C114.876446,116.628608 114.809377,114.298704 115.13014,111.142836 C115.450902,107.986969 112.131737,104.123965 111.94657,102.434128 C111.761402,100.745021 113.665566,102.088579 115.173151,104.683841 C116.681465,107.278375 115.065987,110.20825 117.429425,114.450338 C119.792863,118.692425 129.369818,116.567372 129.369818,116.567372 C126.623652,114.405868 124.744274,108.43312 125.56149,107.590389 C126.378706,106.747658 131.311891,114.11135 132.379885,115.052497 C133.447879,115.994373 137.093639,116.417196 140.794074,112.051178" id="Fill-7" fill="#CDE0FB"></path>
                                        <path d="M81.9377579,75.8859091 L80.7582258,75.5556693 C80.7502068,75.2123073 80.7297946,74.8769645 80.6940733,74.5503697 L80.6933443,74.5438086 L80.6918863,74.5299575 C80.661997,74.3251068 80.6182566,74.0327753 80.5621232,73.6762912 L80.5621232,73.6748332 L80.5613942,73.6733752 C80.3988258,72.8663653 80.3011389,72.2773283 80.2522955,71.8574207 L80.2522955,71.8537757 C79.7922926,69.3357883 79.0443322,66.013707 78.1753568,65.1177583 C76.9221952,66.5772288 74.6061424,67.1538727 71.9306896,67.1538727 C67.7060986,67.1538727 62.586288,65.7170014 59.3392943,64.0453902 C54.0354097,61.3162825 56.9323345,60.4158141 60.6828528,58.688288 C61.6859653,58.2264626 62.8611234,58.0635297 64.0851248,58.0635297 C65.5504273,58.0635297 67.0857143,58.2967388 68.4839483,58.5299479 C69.8814532,58.7632299 71.1404469,58.996439 72.0502466,58.996439 C72.3148759,58.996439 72.5496159,58.9768287 72.7508216,58.9317032 C74.90868,58.4469141 72.4504711,56.6695969 68.6180854,55.9080771 C68.2061969,55.8261368 67.8045145,55.7903426 67.4079351,55.7903426 C66.0403194,55.7903426 64.7361273,56.2157177 63.2788439,56.6410928 C61.8222895,57.0664679 60.2133728,57.491843 58.238495,57.491843 C57.4373171,57.491916 56.5757776,57.4218585 55.639442,57.253458 C49.4183217,56.1342148 47.992094,43.4439663 47.992094,43.4439663 C50.0777807,44.7921903 53.4538085,45.3423713 56.2019432,45.3425171 C58.4878151,45.34259 60.3394909,44.9619759 60.6536925,44.343487 C61.3462484,42.9814847 50.196463,40.0158875 48.586234,39.0983602 C46.9761509,38.1809059 44.9156149,33.8700735 48.7298483,27.4698364 C50.1431726,25.0983063 52.5547251,24.351731 55.0299928,24.351731 C59.2350465,24.351731 63.6243929,26.5052153 63.6243929,26.5052153 C63.6243929,26.5052153 68.1675596,40.845861 70.3946735,41.7805928 C70.4668452,41.8108465 70.5331847,41.8255725 70.5929632,41.8255725 C72.3863185,41.8255725 68.9053139,28.7613438 68.9053139,28.7613438 C73.498782,29.5806009 83.362236,38.2537336 83.362236,38.2537336 C83.362236,38.2537336 78.6827452,52.1909473 81.0716985,52.5485977 C81.1045038,52.5534821 81.1373091,52.5559607 81.1693853,52.5559607 C83.4919991,52.5559607 84.5855084,39.9965688 84.5855084,39.9965688 C88.5505732,42.506683 91.1764536,48.6871976 91.1764536,48.6871976 C93.924078,58.3245868 81.4070414,61.3550657 81.4070414,61.3550657 C81.4070414,61.3550657 79.8899794,66.2200157 81.3443468,72.6950489 C81.3443468,72.6950489 81.7372812,73.9256114 81.9377579,75.8859091 M78.5799553,64.6475493 C78.4509212,64.7977246 78.316784,64.9537319 78.1753568,65.1177583 C78.1753568,65.1177583 78.3576084,64.9704991 78.5799553,64.6475493" id="Fill-8" fill="#DCE9FB"></path>
                                        <path d="M138.475835,75.0745252 C137.734435,76.4501599 136.810784,77.8396457 135.863805,78.9696053 L135.863805,78.9703343 C134.872357,80.1542404 133.85758,81.0538341 133.000998,81.3585587 L132.994437,81.3607457 C132.949239,81.3760548 132.905498,81.390635 132.861029,81.4022991 L132.854468,81.4037571 L132.853739,81.4044861 C132.680235,81.4540585 132.514022,81.4759287 132.356556,81.4686386 C129.545509,81.3425206 126.582827,75.3121812 126.582827,75.3121812 C126.582827,75.3121812 126.660102,74.5977551 127.206857,74.0925538 C127.683627,73.652234 128.050317,73.5370511 128.050317,73.5370511 C128.050317,73.5370511 131.07788,76.6462625 131.817821,76.8700675 C132.282927,77.0100366 132.894563,74.8390561 133.770829,72.1125729 C134.647823,69.3860897 137.726416,68.713946 137.726416,68.713946 C137.726416,68.713946 140.842189,70.6859078 138.475835,75.0745252" id="Fill-12" fill="#AEC3FF"></path>
                                        <path d="M135.863805,78.9696053 L135.863805,78.9703343 C134.872357,80.1542404 133.85758,81.0538341 133.000998,81.3585587 L132.994437,81.3607457 L132.861029,81.4022991 L132.853739,81.4044861 L132.854468,81.4037571 C132.885815,81.3833449 133.802176,80.9080329 133.94579,80.0252063 C134.093049,79.1241547 133.13878,78.3864004 135.536482,76.9918115 C136.933257,76.1789696 135.863805,78.9696053 135.863805,78.9696053" id="Fill-13" fill="#94B0ED"></path>
                                        <path d="M133.669497,120.325399 L140.257526,120.325399 C140.729193,120.005365 140.12995,116.875741 140.12995,116.875741 C140.12995,116.875741 138.33222,116.193391 138.021664,117.58069 C137.709649,118.96726 135.731126,119.408309 134.684273,119.577438 C133.96766,119.694079 133.740939,120.087743 133.669497,120.325399" id="Fill-14" fill="#24406D"></path>
                                        <path d="M143.715931,87.8860803 C143.715931,87.8860803 143.508164,91.7294011 143.247909,96.1829 C143.061284,99.3759472 142.848414,102.883196 142.665433,105.509805 C142.641376,105.85827 142.617319,106.191426 142.593991,106.506357 C142.58743,106.604044 142.58014,106.701002 142.57285,106.797959 C142.101182,112.687601 140.523613,117.847507 140.523613,117.847507 C138.671937,118.237525 137.835038,117.523828 137.835038,117.523828 C137.835038,117.523828 136.558548,102.566078 136.086152,96.533552 C135.738416,92.0931752 135.441711,85.6276191 135.441711,85.6276191 L143.715931,87.8860803" id="Fill-15" fill="#8E8DAA"></path>
                                        <path d="M143.247909,96.1829 C143.061284,99.3759472 142.848414,102.883196 142.665433,105.509805 C141.454554,102.653559 138.980307,91.5201763 138.980307,91.5201763 L143.247909,96.1829" id="Fill-16" fill="#656385"></path>
                                        <path d="M143.439638,120.325399 L150.028396,120.325399 C150.500063,120.005365 149.90082,116.875741 149.90082,116.875741 C149.90082,116.875741 148.102362,116.193391 147.791805,117.58069 C147.480519,118.96726 145.501996,119.408309 144.454415,119.577438 C143.737801,119.694079 143.51181,120.087743 143.439638,120.325399" id="Fill-17" fill="#24406D"></path>
                                        <path d="M137.231421,87.1220818 C137.231421,87.1220818 141.935698,98.8328376 143.439638,103.271756 C144.511277,106.433456 147.532279,117.526015 147.532279,117.526015 C147.532279,117.526015 148.846677,117.926239 149.950392,117.153493 C149.950392,117.153493 151.07452,105.820362 148.804395,102.625128 C147.599347,100.929459 148.504773,85.0006737 143.620431,84.8643496 C138.73609,84.7280254 137.231421,87.1220818 137.231421,87.1220818" id="Fill-18" fill="#8E8DAA"></path>
                                        <path d="M146.864509,83.3553067 C146.844826,85.0203569 146.826601,86.2429003 146.830975,86.5519989 C146.844097,87.5594855 146.199655,87.7869355 145.535531,87.9407558 C145.535531,87.9407558 144.922437,88.0727059 144.148232,88.203927 C143.390065,88.3307741 142.475163,88.4561632 141.829263,88.4517891 C138.526136,88.4255449 135.761744,87.4530506 135.761744,87.4530506 C135.139902,87.4530506 134.857048,86.4922204 134.754987,85.149391 C134.685731,84.2410493 134.966399,75.1802311 135.001391,72.9181248 C135.025448,71.295357 135.916294,69.7957912 136.165614,69.5763603 C138.47219,67.5366009 145.278921,67.7939401 146.503651,69.2009221 C146.806918,69.5486581 146.895127,72.9028157 146.905333,76.577736 C146.911894,78.9433611 146.887837,81.4409364 146.864509,83.3553067" id="Fill-19" fill="#AEC3FF"></path>
                                        <path d="M142.7777,68.3931832 C141.908725,69.3350593 138.989784,69.1950901 139.076536,68.3735001 C139.0882,68.2721682 139.107154,67.6707381 139.11736,67.5774253 C139.12465,67.5023376 139.13194,67.428708 139.137772,67.3601814 C139.157455,67.1575177 139.173494,66.9781822 139.186616,66.8236329 C139.225982,66.373107 139.238375,66.1288899 139.238375,66.1288899 L139.241291,66.1288899 C139.324398,66.1048327 141.201589,65.5719292 142.134717,65.3510403 C142.448189,65.2774107 142.655956,65.2380443 142.652311,65.2657466 C142.365812,67.3623684 143.062742,68.0840846 142.7777,68.3931832" id="Fill-20" fill="#FFB27D"></path>
                                        <path d="M142.233862,65.9699666 C142.233862,65.9699666 141.45018,66.7660414 139.186616,66.8236329 C139.225982,66.373107 139.238375,66.1288899 139.238375,66.1288899 L139.241291,66.1288899 C139.324398,66.1048327 141.201589,65.5719292 142.134717,65.3510403 C142.299472,65.4188379 142.081499,65.8569706 142.233862,65.9699666" id="Fill-21" fill="#ED975D"></path>
                                        <path d="M138.664647,66.017352 C138.664647,66.017352 139.237646,66.2229317 139.96811,66.3206186 C141.036104,66.4649618 142.441628,66.3803971 142.882677,65.0871401 C143.626263,62.9117855 144.57543,61.607156 142.387682,60.7187161 C141.216898,60.2430396 140.46748,60.217816 139.958633,60.3993385 C139.516855,60.5559291 139.255871,60.8689643 139.05904,61.1785004 C138.634029,61.8444475 137.779634,65.6360817 138.664647,66.017352" id="Fill-22" fill="#FFB27D"></path>
                                        <path d="M139.223795,59.4947147 C138.4423,60.0078622 138.697452,61.2106495 139.618187,61.3725618 C140.170045,61.4695925 140.632964,61.4889112 140.900509,61.6079579 C141.444348,61.8496964 141.91237,62.1060879 141.783336,62.9496939 C141.740324,63.2369223 141.600355,63.5868453 142.338839,63.4133418 C142.459854,63.3849106 142.547334,63.3929296 142.607113,63.4293799 C142.913295,63.6109025 142.521819,64.492271 142.40372,64.6832706 C142.40372,64.6832706 142.233862,65.31459 142.611487,65.6215016 C142.656685,65.6586809 143.398085,65.9823597 145.18415,63.2493154 C145.464817,62.8206598 145.732362,61.8537788 145.299333,60.9232753 C144.866303,59.9926989 143.65834,58.8157912 141.383111,58.8157912 C140.790429,58.8157912 139.900313,59.0502396 139.223795,59.4947147" id="Fill-23" fill="#233862"></path>
                                        <path d="M146.864509,83.3553067 C146.532082,84.9000709 146.616647,84.916109 146.107072,84.5107816 C144.029404,82.8595825 144.636666,81.9942521 145.098127,80.5632129 C145.559588,79.1321737 143.939736,76.8941247 145.098127,75.9398555 C146.231732,75.0074566 146.876902,76.5106674 146.905333,76.577736 C146.911894,78.9433611 146.887837,81.4409364 146.864509,83.3553067" id="Fill-24" fill="#94B0ED"></path>
                                        <path d="M146.813479,83.156288 C146.813479,83.156288 146.030526,84.4371519 145.517306,84.3919535 C145.004085,84.3467552 144.3108,84.1550265 143.911305,84.5370258 C143.51108,84.918296 142.866639,85.9031834 143.046704,86.1656257 C143.226768,86.4273389 143.9514,86.1955149 144.471182,85.9082865 C144.992421,85.621058 145.811824,86.0497137 146.248499,85.7231189 C146.685174,85.3972531 147.731297,84.1025381 147.731297,84.1025381 L146.813479,83.156288" id="Fill-25" fill="#FFB27D"></path>
                                        <path d="M146.503651,69.2009221 C146.503651,69.2009221 153.002741,75.3158262 152.159281,79.3844099 C151.774366,81.2382727 150.580983,82.801991 147.401058,85.3338296 C147.401058,85.3338296 145.896389,84.2942667 145.566149,83.4500775 C145.566149,83.4500775 148.453014,79.3844099 148.341476,78.691854 C148.204422,77.8447488 146.233919,75.7196957 145.527512,75.3894558 C144.820376,75.059216 144.885257,69.9102452 146.503651,69.2009221" id="Fill-26" fill="#AEC3FF"></path>
                                        <path d="M145.517306,84.3919535 C145.517306,84.3919535 144.83204,84.092332 144.61188,83.9640269 C144.39172,83.8357218 144.440563,84.0434886 144.508361,84.1470075 C144.57543,84.2512553 144.759139,84.4838083 145.028142,84.5078655 C145.297146,84.5326517 145.517306,84.3919535 145.517306,84.3919535" id="Fill-27" fill="#FFB27D"></path>
                                        <path d="M31.2385835,71.1028993 C31.0036248,70.6494575 36.3649552,69.0179416 36.4498844,73.4903947 C36.4498844,73.4903947 46.4931114,73.2432616 41.6977085,67.6452229 C40.0375427,65.7075243 40.2083489,64.1051687 40.25814,62.613622 C40.3085143,61.1217837 39.2240447,56.7864566 35.5066233,57.2229856 C35.5066233,57.2229856 34.5331084,56.8269165 33.3181466,57.4571424 C30.5552131,58.8905873 24.3658775,72.7519114 31.2385835,71.1028993" id="Fill-28" fill="#163560"></path>
                                        <path d="M47.6579904,75.2079333 C47.6579904,75.2079333 48.3117632,74.2128398 48.838616,74.1931566 C49.3654688,74.1734735 50.3411707,73.9008252 50.2630941,74.0954698 C50.1850176,74.2908435 49.5801611,74.3105266 49.5216219,74.4271676 C49.4630827,74.5445376 50.4192472,74.7202281 50.6924059,74.7399113 C50.9656374,74.7588655 51.6095686,74.7399113 51.5900312,74.8762355 C51.5705668,75.0125596 50.4293804,75.5789975 49.624266,75.5009938 C48.8190786,75.4222611 47.8238393,75.7350048 47.8238393,75.7350048 L47.6579904,75.2079333" id="Fill-29" fill="#FFB27D"></path>
                                        <path d="M38.203436,75.530154 C38.203436,75.530154 38.5588265,76.233645 39.2034138,77.0421129 C39.9802428,78.0153362 41.178,79.1387348 42.6819398,79.3610817 C43.4002296,79.4667876 44.1027729,79.3122383 44.7484537,79.0257388 L44.7507866,79.0250098 C46.5773116,78.2143549 47.9507593,76.349557 47.9507593,76.349557 C48.2726885,75.4711045 47.7458357,74.8762355 47.7458357,74.8762355 C47.7458357,74.8762355 44.0576474,75.7058445 43.7064123,75.530154 C43.3551771,75.3544635 41.195642,70.5634347 40.8066442,69.7651729 C39.9798054,68.0695045 38.66774,67.5825283 38.66774,67.5825283 L38.203436,75.530154" id="Fill-30" fill="#AEC3FF"></path>
                                        <path d="M39.2034138,77.0421129 C39.9802428,78.0153362 41.178,79.1387348 42.6819398,79.3610817 C43.4002296,79.4667876 44.1027729,79.3122383 44.7484537,79.0257388 C44.677084,79.0344869 42.8528918,79.2604788 42.125781,77.9592027 C41.3840901,76.6324114 40.5820374,74.5248545 39.4802903,75.2276165 C39.0049054,75.530883 39.0259737,76.2839465 39.2034138,77.0421129" id="Fill-31" fill="#94B0ED"></path>
                                        <path d="M24.4436624,115.341183 C24.4436624,115.341183 23.3182955,116.368353 23.5378722,117.098088 C23.7574489,117.827823 24.7730274,118.3148 24.9102993,119.206374 C25.0475712,120.098678 25.5965129,120.584925 26.0905604,120.584925 C26.5846808,120.584925 28.4461252,120.584925 28.4461252,120.584925 C28.4461252,120.584925 28.8098264,119.957251 27.9314469,119.767709 C27.0530673,119.578896 26.7218797,118.530585 26.7767739,117.558091 C26.8316681,116.584868 26.6944691,115.287237 26.6944691,115.287237 L24.8279216,114.854936 L24.4436624,115.341183" id="Fill-32" fill="#1D3356"></path>
                                        <path d="M33.9689305,115.777858 C33.9689305,115.777858 33.5640404,120.128567 34.0581609,120.371326 L40.3811962,120.358933 C40.3811962,120.358933 40.3811962,119.629198 39.3655448,119.466629 C38.3499662,119.30479 36.5658693,118.709921 36.2639149,117.385317 C35.9619606,116.061441 33.9689305,115.777858 33.9689305,115.777858" id="Fill-33" fill="#1D3356"></path>
                                        <path d="M29.1049281,72.595175 C29.1049281,72.595175 29.0106676,73.9234243 29.1049281,75.5177609 C29.1676227,76.5748199 30.2364916,77.989821 30.3881249,78.339744 C30.7686661,79.2181965 31.1977592,79.3610817 31.1977592,79.3610817 L34.5176535,80.1746526 L35.6850111,80.460423 L39.366128,79.3610817 C39.366128,79.3610817 41.0427694,74.6808618 40.3695321,72.0469624 C39.6962949,69.4123339 38.66774,67.5825283 38.66774,67.5825283 C38.66774,67.5825283 36.172206,66.5983699 31.7527516,67.3332082 L29.1049281,72.595175" id="Fill-34" fill="#AEC3FF"></path>
                                        <path d="M30.0766934,75.9493326 C30.1393151,77.0056626 30.2364916,77.989821 30.3881249,78.339744 C30.7686661,79.2181965 31.1977592,79.3610817 31.1977592,79.3610817 L34.5176535,80.1746526 L35.9595549,79.7511 C35.9595549,79.7511 31.1462184,79.0213648 31.6795594,74.8798805 L30.0766934,75.9493326" id="Fill-35" fill="#F2CCAA"></path>
                                        <path d="M39.1319712,80.0711337 C39.1319712,80.0711337 40.9549241,85.7457181 41.0720754,87.6775845 C41.1891538,89.609451 37.5873528,115.121752 37.4424264,116.011869 C37.3058106,116.850955 36.2639149,117.385317 36.2639149,117.385317 C36.2639149,117.385317 35.7846663,117.668171 35.1007126,117.474984 C34.1518381,117.207439 33.8518521,116.886676 33.8518521,116.886676 C33.8518521,116.886676 32.4329873,98.6914104 33.3110753,92.191591 C34.1891633,85.6917716 34.1994423,80.0711337 34.1994423,80.0711337 L39.1319712,80.0711337" id="Fill-36" fill="#233862"></path>
                                        <path d="M31.408442,79.9020043 C31.408442,79.9020043 28.6276478,83.6330581 28.3684132,86.1554196 C28.1091786,88.6777811 27.9617006,97.5366645 27.4094784,99.9956025 C26.8571833,102.45454 24.8279216,107.185791 24.8279216,114.854936 C24.8279216,114.854936 25.0388231,115.294527 25.6901902,115.528538 C25.8983943,115.603625 26.1774579,115.676526 26.4483566,115.738492 C26.9854884,115.861694 27.5364713,115.599251 27.7815632,115.105714 C29.15348,112.34351 33.5235077,103.434325 33.7475313,101.585565 C33.9060902,100.276999 35.2858802,91.6149471 38.2956553,86.5330448 C39.0182462,85.3126884 37.8522737,80.460423 37.8522737,80.460423 L31.408442,79.9020043" id="Fill-37" fill="#2B478B"></path>
                                        <path d="M39.4232092,79.1955973 C39.4232092,79.1955973 38.6912869,79.7744282 37.2375027,79.8035884 C35.5010099,79.8385807 31.1979779,79.3610817 31.1979779,79.3610817 C31.1979779,79.3610817 31.0067596,79.8947142 31.0145599,80.458965 C31.0145599,80.458965 36.2699657,81.7850273 39.3150246,80.6528807 C39.3150246,80.6528807 39.7077403,79.9136684 39.4232092,79.1955973" id="Fill-38" fill="#233862"></path>
                                        <path d="M37.1244339,80.4028316 C37.1244339,80.7527545 37.362017,81.037067 37.6541298,81.037067 C37.9463155,81.037067 38.1838986,80.7527545 38.1838986,80.4028316 C38.1838986,80.0536376 37.9463155,79.7685961 37.6541298,79.7685961 C37.362017,79.7685961 37.1244339,80.0536376 37.1244339,80.4028316 Z M36.8617729,80.4028316 C36.8617729,79.9085653 37.2171635,79.5061539 37.6541298,79.5061539 C38.0910961,79.5061539 38.4465595,79.9085653 38.4465595,80.4028316 C38.4465595,80.8978268 38.0910961,81.3002382 37.6541298,81.3002382 C37.2171635,81.3002382 36.8617729,80.8978268 36.8617729,80.4028316 L36.8617729,80.4028316 Z" id="Fill-39" fill="#FFFFFF"></path>
                                        <path d="M26.0987252,80.7082852 L30.3663276,84.4240298 C30.6746972,84.6923041 31.1423547,84.6602278 31.4108477,84.3518582 L36.8562325,78.0984429 C37.1247984,77.7900733 37.0924305,77.3220513 36.7840609,77.053777 L32.5164585,73.3380324 C32.2080889,73.0690291 31.7404314,73.1018343 31.4719384,73.410204 L26.0265536,79.6636193 C25.7580606,79.9719889 25.7903556,80.4392819 26.0987252,80.7082852" id="Fill-40" fill="#F78248"></path>
                                        <path d="M32.4123564,80.2388052 C32.4729368,80.2548433 34.6792012,80.5143695 34.6795657,80.9699984 C34.6800031,81.4970699 34.0329372,82.2034769 33.4234151,82.1699426 C33.1763549,82.1568205 32.0382304,81.1099676 32.0382304,81.1099676 L32.4123564,80.2388052" id="Fill-41" fill="#FFB27D"></path>
                                        <path d="M33.545305,67.0919071 C33.7963018,66.483187 33.9428321,65.5558911 33.9386767,64.4084353 L34.1054005,64.4412406 L36.9078461,64.9960143 C36.9078461,64.9960143 36.844131,65.8781118 36.8422356,66.7091789 C36.8422356,66.7157399 36.8422356,66.72303 36.8421627,66.7295911 C36.8387363,67.4513072 37.329722,68.1752104 36.172206,68.4617098 C35.8144826,68.5499196 33.0181606,68.370584 33.545305,67.0919071" id="Fill-42" fill="#FFB27D"></path>
                                        <path d="M36.907919,64.9960143 C36.907919,64.9960143 36.844131,65.8781118 36.8422356,66.7091789 C35.2739974,66.6647095 34.4450444,65.2343993 34.1054005,64.4412406 L36.907919,64.9960143" id="Fill-43" fill="#E8945B"></path>
                                        <path d="M37.4316371,65.782612 C37.4316371,65.782612 33.7211413,65.8438485 33.7185898,63.5328988 C33.7160382,61.2215846 33.2354773,59.6728838 35.604383,59.5360494 C37.9732887,59.3992878 38.4345309,60.2807292 38.6230519,61.0519449 C38.811573,61.8232335 38.3967684,65.7075243 37.4316371,65.782612" id="Fill-44" fill="#FFB27D"></path>
                                        <path d="M37.2942923,59.4794785 C37.2942923,59.4794785 36.2783493,62.1910171 34.7192966,62.5917518 C33.160171,62.9927052 32.4838719,62.5749847 32.4838719,62.5749847 C32.4838719,62.5749847 33.6798066,61.6251625 33.9279603,59.9667462 C33.9279603,59.9667462 36.527961,58.1888459 37.2942923,59.4794785" id="Fill-45" fill="#163560"></path>
                                        <path d="M37.0424936,59.6996384 C37.0424936,59.6996384 37.7958486,59.9812535 38.1058949,60.5306325 C38.4090886,61.067983 38.6674484,61.7794931 38.6074512,62.6522593 C38.6074512,62.6522593 39.3729077,60.8094774 38.5127533,59.7668527 C37.6006207,58.6613148 37.0424936,59.6996384 37.0424936,59.6996384" id="Fill-46" fill="#163560"></path>
                                        <path d="M32.4123564,80.2388052 C32.4123564,80.2388052 32.9411046,80.0689467 33.2944539,80.1185191 C33.6478033,80.1680916 33.9092978,80.1112291 33.9092978,80.2103739 C33.9092978,80.3095188 33.4530857,80.3554461 33.3561279,80.4028316 C33.2590971,80.450946 32.4123564,80.2388052 32.4123564,80.2388052" id="Fill-47" fill="#FFB27D"></path>
                                        <path d="M31.7527516,67.3332082 C31.7527516,67.3332082 29.1188522,67.5183758 28.1091786,69.9722107 C27.0995779,72.4267746 25.1839682,76.5478467 25.1839682,77.2411316 C25.1839682,77.9344165 26.2540036,80.0711337 32.0007595,81.3002382 C32.0007595,81.3002382 32.5951912,80.6747509 32.5591783,80.1804847 C32.5591783,80.1804847 28.9718116,77.0989754 28.9815074,76.7388463 C28.9997326,76.0579545 29.5695967,75.1583609 32.7191222,72.007596 C33.5754858,71.1510137 31.7527516,67.3332082 31.7527516,67.3332082" id="Fill-48" fill="#AEC3FF"></path>
                                        <path d="M105.361456,46.4191864 L76.898138,46.4191864 C76.2099561,46.4191864 75.5502055,46.6926366 75.0632293,47.1793212 L54.9368987,67.305506 C54.4501413,67.7924821 54.1766911,68.4522327 54.1766911,69.1411436 L54.1766911,97.6037331 C54.1766911,98.291915 54.4501413,98.9523946 54.9368987,99.4393707 L75.0632293,119.565045 C75.5502055,120.052021 76.2099561,120.325399 76.898138,120.325399 L105.361456,120.325399 C106.049638,120.325399 106.710118,120.052021 107.196365,119.565045 L127.322769,99.4393707 C127.809745,98.9523946 128.083122,98.291915 128.083122,97.6037331 L128.083122,69.1411436 C128.083122,68.4522327 127.809745,67.7924821 127.322769,67.305506 L107.196365,47.1793212 C106.710118,46.6926366 106.049638,46.4191864 105.361456,46.4191864" id="Fill-49" fill="#EEAE8F"></path>
                                        <path d="M103.24101,51.9249658 L79.0186174,51.9249658 C78.432972,51.9249658 77.8715217,52.1576737 77.4571032,52.5718453 L60.3295194,69.6993557 C59.915287,70.1137755 59.6825798,70.6752274 59.6825798,71.2614949 L59.6825798,95.4833384 C59.6825798,96.0689855 59.915287,96.6310578 60.3295194,97.0454776 L77.4571032,114.172554 C77.8715217,114.586973 78.432972,114.819619 79.0186174,114.819619 L103.24101,114.819619 C103.826655,114.819619 104.388726,114.586973 104.802524,114.172554 L121.93017,97.0454776 C122.344588,96.6310578 122.577233,96.0689855 122.577233,95.4833384 L122.577233,71.2614949 C122.577233,70.6752274 122.344588,70.1137755 121.93017,69.6993557 L104.802524,52.5718453 C104.388726,52.1576737 103.826655,51.9249658 103.24101,51.9249658" id="Fill-49-Copy" fill="#FFE5D4"></path>
                                        <path d="M78.900718,52.6550326 C78.5821423,52.6550326 78.2825207,52.7791095 78.0565288,53.0047369 L60.7623145,70.2995345 C60.5370516,70.5247974 60.4123915,70.8244189 60.4123915,71.1429947 L60.4123915,95.601153 C60.4123915,95.9204578 60.5370516,96.2200793 60.7623145,96.4453422 L78.0565288,113.740286 C78.2817917,113.965549 78.5821423,114.08948 78.900718,114.08948 L103.358876,114.08948 C103.677452,114.08948 103.977803,113.965549 104.203066,113.740286 L121.49728,96.4453422 C121.723272,96.2200793 121.847203,95.9204578 121.847203,95.601153 L121.847203,71.1429947 C121.847203,70.8244189 121.723272,70.5247974 121.49728,70.2995345 L104.203066,53.004664 C103.977803,52.7791095 103.677452,52.6550326 103.358876,52.6550326 L78.900718,52.6550326 Z M103.358876,116.625692 L78.900718,116.625692 C77.9048955,116.625692 76.9681225,116.237861 76.2631735,115.533641 L58.9689592,98.2386975 C58.2647392,97.5344775 57.8761789,96.5977045 57.8761789,95.601153 L57.8761789,71.1429947 C57.8761789,70.1471722 58.2647392,69.2103992 58.9689592,68.5054502 L76.2631735,51.2114545 C76.9681225,50.5067971 77.9048955,50.11882 78.900718,50.11882 L103.358876,50.11882 C104.355428,50.11882 105.292201,50.5067971 105.996421,51.2114545 L123.290635,68.5061792 C123.995584,69.2103992 124.383416,70.1471722 124.383416,71.1429947 L124.383416,95.601153 C124.383416,96.5977045 123.995584,97.5344775 123.290635,98.2386975 L105.996421,115.532912 C105.292201,116.237861 104.355428,116.625692 103.358876,116.625692 L103.358876,116.625692 Z" id="Fill-50" fill="#FFE5D4"></path>
                                    </g>
                                    <g id="Group-12" transform="translate(74.799365, 68.438397)">
                                        <rect id="Rectangle" fill="#003974" x="8.52060968" y="27.1155507" width="15.2140427" height="1.69044919" rx="0.845224593"></rect>
                                        <rect id="Rectangle" fill="#F58220" x="11.9015081" y="30.4964491" width="8.45224593" height="1.69044919" rx="0.845224593"></rect>
                                        <g id="gear" transform="translate(0.068364, 0.068364)" fill-rule="nonzero">
                                            <path d="M27.386226,4.73274413 C24.3746778,1.72250273 20.3202181,0.0405140741 16.0592673,0.0405140741 L16.0592673,4.39686913 C19.1805956,4.39686913 22.1272342,5.63450968 24.3058473,7.8126872 L25.9765095,6.14202501 L27.386226,4.73274413 Z" id="Path" fill="#F7C453"></path>
                                            <path d="M4.73230852,4.73230852 L7.8126872,7.8126872 C10.0030624,5.62231177 12.9571069,4.39686913 16.0592673,4.39686913 L16.0592673,0.0405140741 C12.0244112,0.0405140741 8.10064225,1.48421019 4.73230852,4.73230852 Z" id="Path" fill="#F7C453"></path>
                                            <path d="M4.39686913,16.0592673 C4.39686913,13.0647089 5.54738258,10.0784274 7.8126872,7.8126872 L4.73230852,4.73230852 C1.75735357,7.70726336 0.0405140741,11.7482183 0.0405140741,16.0592673 L4.39686913,16.0592673 Z" id="Path" fill="#66C69E"></path>
                                            <path d="M4.39686913,16.0592673 L0.0405140741,16.0592673 C0.0405140741,20.0135307 1.49771492,23.8954787 4.27401997,26.9083339 C4.51928279,27.1749428 4.93879969,27.1797348 5.19495337,26.9235812 L7.37269529,24.7462748 C7.61447302,24.5040615 7.62318573,24.1159103 7.39317019,23.8623704 C6.47790002,22.8525673 4.39686913,20.1729734 4.39686913,16.0592673 L4.39686913,16.0592673 Z" id="Path" fill="#66C69E"></path>
                                            <path d="M8.29188615,4.29710862 C10.5523989,2.11762416 13.0577387,0.735352733 15.6798287,0.0448704849 C11.7787128,0.132868801 7.9952184,1.58614885 4.73230852,4.73230852 L6.46788037,6.46788037 C7.00937522,5.69680547 7.61882932,4.97016545 8.29188615,4.29710862 Z" id="Path" fill="#F7C453"></path>
                                            <path d="M3.50904402,15.844499 C3.50904402,12.4243246 4.56894518,9.17186998 6.46788037,6.46788037 L4.73230852,4.73230852 C1.75735357,7.70726336 0.0405140741,11.7477827 0.0405140741,16.0592673 L3.51122217,16.0592673 C3.51035084,15.987823 3.50904402,15.9159432 3.50904402,15.844499 Z" id="Path" fill="#66C69E"></path>
                                            <path d="M3.51165778,16.0592673 L0.0405140741,16.0592673 C0.0405140741,20.0135307 1.49771492,23.8954787 4.27401997,26.9087695 C4.51928279,27.1749428 4.93879969,27.1797348 5.19495337,26.9235812 L6.6473622,25.4711723 C4.62732039,22.7075007 3.55522133,19.414532 3.51165778,16.0592673 Z" id="Path" fill="#66C69E"></path>
                                            <path d="M27.386226,4.73230852 L24.3058473,7.8126872 C26.423036,9.93074697 27.7216654,12.8556038 27.7216654,16.0592673 L30.8943988,16.0592673 L30.9701993,16.0592673 L32.0780204,16.0592673 C32.0780204,11.8579984 30.4334964,7.77870758 27.386226,4.73230852 Z" id="Path" fill="#EE5761"></path>
                                            <path d="M27.7216654,16.0592673 C27.7216654,18.9562433 26.6521802,21.7290634 24.7201367,23.8697762 C24.4931706,24.1211379 24.5075466,24.5075466 24.7467106,24.7467106 L26.9240168,26.9235812 C27.1797348,27.1797348 27.5988161,27.1753784 27.8440789,26.9092051 C30.5036337,24.0218131 32.0780204,20.1921413 32.0780204,16.0592673 L27.7216654,16.0592673 Z" id="Path" fill="#EE5761"></path>
                                            <path d="M16.8229363,16.1590278 C16.6025048,16.1590278 16.3820731,16.0749501 16.2139179,15.9067948 C15.8771717,15.5700486 15.8771717,15.0246329 16.2134822,14.6878867 L21.4733453,9.42715233 C21.8100915,9.09040611 22.3555072,9.09040611 22.6922534,9.42671672 C23.0285641,9.76346294 23.0285641,10.3088786 22.6922534,10.6456248 L17.4323904,15.9063592 C17.2642351,16.0749501 17.0433679,16.1590278 16.8229363,16.1590278 L16.8229363,16.1590278 Z" id="Path" fill="#5E5E5E"></path>
                                            <path d="M17.8641052,14.2561719 C16.8682424,13.2603092 15.2533416,13.2603092 14.2574788,14.2561719 C13.261616,15.2520347 13.261616,16.8664998 14.2574788,17.8623626 C15.2533416,18.8582254 16.8682424,18.8582254 17.8641052,17.8623626 C18.8599679,16.8664998 18.8599679,15.2520347 17.8641052,14.2561719 L17.8641052,14.2561719 Z" id="Path" fill="#FF6B6B"></path>
                                            <path d="M17.7569388,14.1590252 C16.7558485,13.2642299 15.219362,13.2947244 14.2579144,14.2557363 C13.2620517,15.2520347 13.2620517,16.8664998 14.2579144,17.8627983 C15.219362,18.8238101 16.7558485,18.8543047 17.7569388,17.9595093 C16.6173163,16.9409935 16.6173163,15.177541 17.7569388,14.1590252 Z" id="Path" fill="#EE5253"></path>
                                        </g>
                                    </g>
                                </g>
                                <g id="Group-80" transform="translate(41.394349, 107.847826)" fill="#B0BECC">
                                    <polygon id="Fill-179" points="0 12.3634045 4.88398426 12.3634045 4.88398426 3.04213098 0 3.04213098"></polygon>
                                    <polygon id="Fill-181" points="9.82728961 12.3634045 14.7112739 12.3634045 14.7112739 5.1862669 9.82728961 5.1862669"></polygon>
                                    <polygon id="Fill-183" points="19.6545792 12.3634045 24.5385635 12.3634045 24.5385635 0.183283096 19.6545792 0.183283096"></polygon>
                                </g>
                            </g>
                        </g>
                    </g>
                </g>
            </g>
        </g>
    </g>
</svg>