<svg width="43" height="25" viewBox="0 0 43 25" fill="none" xmlns="http://www.w3.org/2000/svg">
<path d="M2.99723 20.7353C2.99723 20.7441 2.99723 20.7485 2.99723 20.7573C3.43766 20.3169 3.87808 19.8765 4.31851 19.4361C3.36278 19.4361 2.40706 19.4361 1.44693 19.4361C1.88736 19.8765 2.32778 20.3169 2.76821 20.7573C2.76821 19.8765 2.82546 19 2.93998 18.128C2.92236 18.2469 2.90915 18.3614 2.89153 18.4803C3.12495 16.7803 3.57419 15.1243 4.23923 13.5431C4.19519 13.6489 4.15115 13.7546 4.10711 13.8603C4.48587 12.9706 4.9263 12.1118 5.42839 11.2882C5.67943 10.8786 5.94368 10.4778 6.22556 10.0902C6.29162 9.99771 6.35769 9.90523 6.42815 9.81274C6.46779 9.75988 6.51184 9.70263 6.55147 9.64978C6.70122 9.45159 6.38411 9.86559 6.48981 9.72905C6.63956 9.53967 6.7893 9.35469 6.94345 9.17412C7.56005 8.44301 8.2295 7.76035 8.94739 7.12613C9.12797 6.96758 9.30854 6.81343 9.49352 6.66368C9.58161 6.59322 9.66969 6.51834 9.75778 6.44788C9.83265 6.39062 9.9868 6.27611 9.6785 6.50954C9.74457 6.46109 9.80623 6.41264 9.86789 6.36419C10.2511 6.07792 10.6474 5.80485 11.0482 5.545C11.9687 4.95483 12.9333 4.44834 13.9374 4.02113C13.8317 4.06517 13.726 4.10921 13.6203 4.15325C15.2015 3.48821 16.8575 3.03457 18.5575 2.80555C18.4386 2.82317 18.3241 2.83638 18.2052 2.85399C19.936 2.62497 21.6889 2.62497 23.4198 2.85399C23.3009 2.83638 23.1864 2.82317 23.0675 2.80555C24.7631 3.03897 26.4235 3.48821 28.0047 4.15325C27.899 4.10921 27.7932 4.06517 27.6875 4.02113C28.5772 4.39989 29.436 4.84032 30.2596 5.34241C30.6692 5.59345 31.0656 5.8577 31.4576 6.13958C31.5501 6.20564 31.6426 6.27171 31.7351 6.34217C31.7879 6.38181 31.8452 6.42585 31.898 6.46549C32.0962 6.61524 31.6822 6.29813 31.8187 6.40383C32.0081 6.55358 32.1931 6.70332 32.3737 6.85747C33.1048 7.47407 33.7875 8.14352 34.4217 8.86141C34.5802 9.04199 34.7344 9.22256 34.8841 9.40754C34.9546 9.49563 35.0295 9.58371 35.0999 9.6718C35.1572 9.74667 35.2717 9.90082 35.0383 9.59252C35.0867 9.65859 35.1352 9.72025 35.1836 9.78191C35.4699 10.1651 35.7429 10.5615 36.0028 10.9622C36.593 11.8827 37.0995 12.8473 37.5267 13.8514C37.4826 13.7457 37.4386 13.64 37.3946 13.5343C38.0596 15.1155 38.5132 16.7715 38.7423 18.4715C38.7246 18.3526 38.7114 18.2381 38.6938 18.1192C38.8083 18.9912 38.8656 19.8677 38.8656 20.7485C39.306 20.3081 39.7464 19.8677 40.1869 19.4272C39.2135 19.4272 38.2446 19.4272 37.2712 19.4272C37.7117 19.8677 38.1521 20.3081 38.5925 20.7485C38.5925 20.7397 38.5925 20.7353 38.5925 20.7265C38.5925 20.035 37.9847 19.3744 37.2712 19.4052C36.5533 19.4361 35.9499 19.9866 35.9499 20.7265C35.9499 20.7353 35.9499 20.7397 35.9499 20.7485C35.9499 21.462 36.5533 22.0698 37.2712 22.0698C38.2446 22.0698 39.2135 22.0698 40.1869 22.0698C40.9003 22.0698 41.5081 21.4664 41.5081 20.7485C41.5081 16.5292 40.2133 12.3056 37.7645 8.85701C35.2981 5.38204 31.8628 2.73948 27.8637 1.26405C23.8294 -0.224587 19.2798 -0.365524 15.1442 0.810415C11.1627 1.94231 7.51601 4.303 4.88666 7.5049C3.49491 9.20054 2.39825 11.0547 1.57025 13.0895C0.759864 15.0802 0.306224 17.1987 0.156479 19.3392C0.121245 19.8104 0.108032 20.2773 0.108032 20.7485C0.108032 21.462 0.711417 22.0698 1.42931 22.0698C2.38504 22.0698 3.34076 22.0698 4.30089 22.0698C5.01438 22.0698 5.62217 21.4664 5.62217 20.7485C5.62217 20.7397 5.62217 20.7353 5.62217 20.7265C5.62217 20.035 5.01438 19.3744 4.30089 19.4052C3.60062 19.4449 2.99723 19.9954 2.99723 20.7353V20.7353Z" fill="#F58220"/>
<path d="M23.7061 17.8549C23.138 17.3044 22.4024 16.8728 21.6141 16.745C20.698 16.5909 19.8392 16.7054 18.9935 17.1018C17.571 17.7712 16.6152 19.4405 16.7694 21.004C16.8619 21.9289 17.1878 22.726 17.7868 23.4351C18.2889 24.0341 19.042 24.4789 19.7995 24.6727C20.5703 24.8665 21.4379 24.8533 22.1866 24.567C23.0279 24.2411 23.6973 23.7214 24.217 22.9859C25.3225 21.4136 25.0142 19.1982 23.7061 17.8549C23.2216 17.3572 22.3144 17.3352 21.8387 17.8549C21.3498 18.3878 21.3234 19.1938 21.8387 19.7223C21.9004 19.784 21.9532 19.8677 22.0237 19.9249C21.8871 19.7443 21.8607 19.7091 21.94 19.8192C21.9576 19.8456 21.9796 19.8765 21.9973 19.9029C22.0897 20.0482 22.169 20.2024 22.2351 20.3609C22.191 20.2552 22.147 20.1495 22.103 20.0438C22.191 20.2641 22.2483 20.4887 22.2835 20.7221C22.2659 20.6032 22.2527 20.4887 22.2351 20.3698C22.2659 20.6164 22.2615 20.863 22.2307 21.1097C22.2483 20.9908 22.2615 20.8762 22.2791 20.7573C22.2439 20.9864 22.1866 21.211 22.0986 21.4268C22.1426 21.3211 22.1866 21.2154 22.2307 21.1097C22.1602 21.277 22.0765 21.44 21.9752 21.5897C21.8916 21.7131 21.7947 21.7351 22.0193 21.5413C21.9532 21.5985 21.9004 21.6778 21.8387 21.7395C21.7859 21.7923 21.7066 21.8892 21.6361 21.9201C21.689 21.8804 21.7418 21.8364 21.7947 21.7967C21.7594 21.8232 21.7198 21.8496 21.6846 21.876C21.5304 21.9773 21.3719 22.061 21.2001 22.1315C21.3058 22.0874 21.4115 22.0434 21.5172 21.9993C21.297 22.0874 21.0768 22.1447 20.8433 22.1799C20.9623 22.1623 21.0768 22.1491 21.1957 22.1315C20.9534 22.1623 20.7112 22.1623 20.469 22.1315C20.5879 22.1491 20.7024 22.1623 20.8213 22.1799C20.5879 22.1447 20.3633 22.0874 20.1431 21.9993C20.2488 22.0434 20.3545 22.0874 20.4602 22.1315C20.2928 22.061 20.1298 21.9773 19.9757 21.876C19.8524 21.7923 19.8348 21.6998 20.0241 21.9201C19.9669 21.854 19.8832 21.8011 19.8215 21.7351C19.7687 21.6822 19.6674 21.6029 19.641 21.5369C19.6806 21.5897 19.7247 21.6426 19.7643 21.6998C19.7379 21.6646 19.7114 21.625 19.685 21.5897C19.5837 21.44 19.5 21.277 19.4296 21.1097C19.4736 21.2154 19.5177 21.3211 19.5617 21.4268C19.4736 21.211 19.4164 20.9864 19.3811 20.7573C19.3987 20.8762 19.412 20.9908 19.4296 21.1097C19.3987 20.863 19.3987 20.6164 19.4252 20.3698C19.4075 20.4887 19.3943 20.6032 19.3767 20.7221C19.412 20.4887 19.4692 20.2641 19.5573 20.0438C19.5132 20.1495 19.4692 20.2552 19.4252 20.3609C19.4956 20.1936 19.5793 20.0306 19.6806 19.8765C19.7643 19.7532 19.8568 19.7355 19.6366 19.9249C19.7026 19.8677 19.7555 19.784 19.8215 19.7223C19.8744 19.6695 19.9537 19.5726 20.0241 19.5373C19.9713 19.577 19.9184 19.621 19.8656 19.6607C19.9008 19.6342 19.9405 19.6078 19.9757 19.5814C20.1298 19.4801 20.2928 19.3964 20.4602 19.3259C20.3545 19.37 20.2488 19.414 20.1431 19.4581C20.3633 19.37 20.5879 19.3127 20.8213 19.2775C20.7024 19.2951 20.5879 19.3083 20.469 19.3259C20.7112 19.2951 20.9534 19.2995 21.1957 19.3259C21.0768 19.3083 20.9623 19.2951 20.8433 19.2775C21.0768 19.3127 21.3014 19.37 21.5172 19.4581C21.4115 19.414 21.3058 19.37 21.2001 19.3259C21.3586 19.392 21.5128 19.4713 21.6537 19.5638C21.6846 19.5814 21.711 19.599 21.7374 19.621C21.8475 19.7003 21.8123 19.6739 21.6317 19.5373C21.689 19.6034 21.7682 19.6607 21.8343 19.7179C22.3276 20.2024 23.2172 20.2464 23.7017 19.7179C24.1818 19.2026 24.2346 18.3702 23.7061 17.8549Z" fill="#F58220"/>
<path d="M22.1514 4.70815C22.1514 3.58947 22.1514 2.47079 22.1514 1.3521C22.1514 0.660634 21.5436 -6.33183e-06 20.8301 0.0308235C20.1122 0.0616534 19.5089 0.612187 19.5089 1.3521C19.5089 2.47079 19.5089 3.58947 19.5089 4.70815C19.5089 5.39962 20.1166 6.06026 20.8301 6.02943C21.548 5.9986 22.1514 5.45248 22.1514 4.70815V4.70815Z" fill="#F58220"/>
<path d="M10.044 8.08182C9.38341 7.42118 8.71836 6.75614 8.05772 6.0955C7.56885 5.60662 6.67038 5.57139 6.19031 6.0955C5.70584 6.62401 5.66621 7.4432 6.19031 7.96291C6.85095 8.62355 7.516 9.28859 8.17664 9.94923C8.66551 10.4381 9.56398 10.4733 10.044 9.94923C10.5285 9.42512 10.5637 8.60593 10.044 8.08182V8.08182Z" fill="#F58220"/>
<path d="M33.5937 6.09549C32.933 6.75613 32.2724 7.42118 31.6073 8.08182C31.1185 8.57069 31.0832 9.46916 31.6073 9.94922C32.1359 10.4337 32.955 10.4733 33.4747 9.94922C34.1354 9.28858 34.796 8.62354 35.4611 7.9629C35.9499 7.47403 35.9852 6.57556 35.4611 6.09549C34.937 5.61102 34.1178 5.57579 33.5937 6.09549V6.09549Z" fill="#F58220"/>
<path d="M22.1514 17.9826C22.1514 17.0445 22.1514 16.1108 22.1514 15.1727C22.1514 13.6885 22.1514 12.1998 22.1514 10.7156C22.1514 10.3721 22.1514 10.0241 22.1514 9.68059C22.1514 8.98912 21.5436 8.32848 20.8301 8.35931C20.1122 8.39014 19.5089 8.94068 19.5089 9.68059C19.5089 10.6187 19.5089 11.5524 19.5089 12.4905C19.5089 13.9748 19.5089 15.4634 19.5089 16.9476C19.5089 17.2912 19.5089 17.6391 19.5089 17.9826C19.5089 18.6741 20.1166 19.3347 20.8301 19.3039C21.548 19.2731 22.1514 18.727 22.1514 17.9826V17.9826Z" fill="#F58220"/>
</svg>
