<?xml version="1.0" encoding="UTF-8"?>
<svg width="60px" height="60px" viewBox="0 0 60 60" version="1.1" xmlns="http://www.w3.org/2000/svg" xmlns:xlink="http://www.w3.org/1999/xlink">
    <!-- Generator: Sketch 53.2 (72643) - https://sketchapp.com -->
    <title>roi</title>
    <desc>Created with Sketch.</desc>
    <g id="Page-1" stroke="none" stroke-width="1" fill="none" fill-rule="evenodd">
        <g id="roi">
            <path d="M36.9844,36.4502 L38.588,36.4502 C38.8832,36.4502 39.1225,36.689 39.1225,36.9847 L39.1225,40.1918 C39.1225,40.4873 38.8832,40.7263 38.588,40.7263 L36.9844,40.7263 L36.9844,42.8644 C36.9844,42.8644 37.0519,43.8706 36.2973,43.9335 C35.5427,43.9964 24.1559,43.9335 24.1559,43.9335 L22.5523,43.9335 C22.2574,43.9335 22.0178,43.6944 22.0178,43.3989 L22.0178,40.1918 C22.0178,39.8961 22.2574,39.6573 22.5523,39.6573 L24.1559,39.6573 L24.1559,37.5192 L22.5523,37.5192 C22.2574,37.5192 22.0178,37.2801 22.0178,36.9847 L22.0178,33.7776 C22.0178,33.4819 22.2574,33.243 22.5523,33.243 L36.4499,33.243 C36.7451,33.243 36.9844,33.4819 36.9844,33.7776 L36.9844,36.4502 Z M35.9154,34.3121 L23.0869,34.3121 L23.0869,36.4502 L35.9154,36.4502 L35.9154,34.3121 Z M35.9154,42.8644 L23.0869,42.8644 L23.0869,40.7263 L35.9154,40.7263 L35.9154,42.8644 Z M25.2249,39.6573 L38.0535,39.6573 L38.0535,37.5192 L25.2249,37.5192 L25.2249,39.6573 Z" id="Shape" fill="#F78200"></path>
            <path d="M21.4833,23.0871 C21.4833,18.0765 25.5595,14.0002 30.5701,14.0002 C35.5807,14.0002 39.657,18.0765 39.657,23.0871 C39.657,28.0977 35.5807,32.174 30.5701,32.174 C25.5595,32.174 21.4833,28.0977 21.4833,23.0871 Z M22.5523,23.0871 C22.5523,27.5081 26.1491,31.1049 30.5701,31.1049 C34.9912,31.1049 38.588,27.5081 38.588,23.0871 C38.588,18.6661 34.9912,15.0693 30.5701,15.0693 C26.1491,15.0693 22.5523,18.6661 22.5523,23.0871 Z" id="Shape" fill="#F78200"></path>
            <path d="M41.2606,29.1005 L41.7951,29.1005 L41.7951,31.7731 L42.8642,31.7731 L42.8642,28.566 C42.8642,28.2937 42.6611,28.0693 42.398,28.0356 L43.9332,26.1938 L45.4684,28.0351 C45.2053,28.0693 45.0023,28.2937 45.0023,28.566 L45.0023,31.7731 L46.0713,31.7731 L46.0713,29.1005 L46.6058,29.1005 C46.8133,29.1005 47.002,28.9802 47.0902,28.7925 C47.1784,28.6048 47.1495,28.383 47.0164,28.2238 L44.3438,25.0167 C44.1407,24.7734 43.726,24.7734 43.5227,25.0167 L40.8501,28.2238 C40.717,28.3835 40.6888,28.6054 40.7765,28.7925 C40.8647,28.9802 41.0534,29.1005 41.2606,29.1005 Z" id="Path" fill="#F78200" fill-rule="nonzero"></path>
            <polygon id="Path" fill="#F78200" fill-rule="nonzero" points="41.7952 32.8421 42.8642 32.8421 42.8642 33.9111 41.7952 33.9111"></polygon>
            <polygon id="Path" fill="#F78200" fill-rule="nonzero" points="41.7952 34.9802 42.8642 34.9802 42.8642 36.0493 41.7952 36.0493"></polygon>
            <polygon id="Path" fill="#F78200" fill-rule="nonzero" points="45.0022 32.8421 46.0712 32.8421 46.0712 33.9111 45.0022 33.9111"></polygon>
            <polygon id="Path" fill="#F78200" fill-rule="nonzero" points="45.0022 34.9802 46.0712 34.9802 46.0712 36.0493 45.0022 36.0493"></polygon>
            <path d="M17.6177,37.6134 C17.4146,37.8566 16.9999,37.8566 16.7966,37.6134 L14.124,34.4063 C13.9909,34.2465 13.9627,34.0247 14.0504,33.8376 C14.1386,33.6494 14.3273,33.5291 14.5345,33.5291 L15.0691,33.5291 L15.0691,30.8565 L16.1381,30.8565 L16.1381,34.0636 C16.1381,34.3358 15.935,34.5603 15.672,34.5939 L17.2071,36.4358 L18.7423,34.5945 C18.4792,34.5603 18.2762,34.3358 18.2762,34.0636 L18.2762,30.8565 L19.3452,30.8565 L19.3452,33.5291 L19.8797,33.5291 C20.0872,33.5291 20.2759,33.6494 20.3642,33.837 C20.4524,34.0247 20.4234,34.2465 20.2903,34.4058 L17.6177,37.6134 Z" id="Path" fill="#F78200" fill-rule="nonzero"></path>
            <polygon id="Path" fill="#F78200" fill-rule="nonzero" points="15.0691 29.7874 16.1381 29.7874 16.1381 28.7184 15.0691 28.7184"></polygon>
            <polygon id="Path" fill="#F78200" fill-rule="nonzero" points="15.0691 27.6494 16.1381 27.6494 16.1381 26.5803 15.0691 26.5803"></polygon>
            <polygon id="Path" fill="#F78200" fill-rule="nonzero" points="18.2761 29.7874 19.3452 29.7874 19.3452 28.7184 18.2761 28.7184"></polygon>
            <polygon id="Path" fill="#F78200" fill-rule="nonzero" points="18.2761 27.6494 19.3452 27.6494 19.3452 26.5803 18.2761 26.5803"></polygon>
            <path d="M33.3011,26.3608 C32.417,26.3608 31.6975,25.6413 31.6975,24.7572 C31.6975,23.8732 32.417,23.1537 33.3011,23.1537 C34.1852,23.1537 34.9046,23.8732 34.9046,24.7572 C34.9046,25.6413 34.1852,26.3608 33.3011,26.3608 Z M33.8356,24.7573 C33.8356,24.4627 33.5961,24.2227 33.3011,24.2227 C33.006,24.2227 32.7666,24.4627 32.7666,24.7573 C32.7666,25.0518 33.006,25.2918 33.3011,25.2918 C33.5961,25.2918 33.8356,25.0518 33.8356,24.7573 Z" id="Shape" fill="#F78200"></path>
            <path d="M29.5594,21.5502 C29.5594,22.4343 28.84,23.1537 27.9559,23.1537 C27.0718,23.1537 26.3523,22.4343 26.3523,21.5502 C26.3523,20.6661 27.0718,19.9466 27.9559,19.9466 C28.84,19.9466 29.5594,20.6661 29.5594,21.5502 Z M28.4904,21.5502 C28.4904,21.2556 28.2509,21.0156 27.9559,21.0156 C27.6608,21.0156 27.4213,21.2556 27.4213,21.5502 C27.4213,21.8447 27.6608,22.0847 27.9559,22.0847 C28.2509,22.0847 28.4904,21.8447 28.4904,21.5502 Z" id="Shape" fill="#F78200"></path>
            <polygon id="Path" fill="#F78200" fill-rule="nonzero" points="29.0454 27.3062 31.1875 18.7554 32.224 19.015 30.0819 27.5659"></polygon>
            <path d="M30,1.75 L30,0.25 C13.5695,0.25 0.25,13.5695 0.25,30 L1.75,30 C1.75,14.398 14.398,1.75 30,1.75 Z M30,58.25 L30,59.75 C46.4305,59.75 59.75,46.4305 59.75,30 L58.25,30 C58.25,45.602 45.602,58.25 30,58.25 Z" id="Shape" fill="#F58220"></path>
            <path d="M31.2496,0.266499 L30.4997,0.254143 C30.3337,0.251408 30.1675,0.250035 30.0012,0.250029 L29.2512,0.25 L29.2511,1.75 L30.0011,1.75003 C30.1592,1.75004 30.3172,1.75134 30.475,1.75394 L31.2249,1.7663 L31.2496,0.266499 Z M35.464,0.75085 L36.2014,0.88776 L35.9276,2.36256 L35.1902,2.22565 C34.8712,2.16642 34.551,2.11267 34.2295,2.06441 L33.4878,1.95309 L33.7104,0.469703 L34.4521,0.581027 C34.7907,0.631851 35.1281,0.688472 35.464,0.75085 Z M41.1696,2.40789 L40.4676,2.14397 C40.1476,2.02367 39.8254,1.9089 39.5012,1.79971 L38.7905,1.56033 L38.3117,2.98187 L39.0225,3.22126 C39.3302,3.3249 39.636,3.43384 39.9397,3.54802 L40.6417,3.81195 L41.1696,2.40789 Z M45.1324,4.38081 L45.7778,4.76283 L45.0138,6.05366 L44.3683,5.67163 C44.0889,5.50624 43.8067,5.34568 43.5217,5.19003 L42.8635,4.83051 L43.5825,3.51408 L44.2407,3.87359 C44.5409,4.03753 44.8381,4.20663 45.1324,4.38081 Z M49.8987,7.87139 L49.3288,7.38385 C49.069,7.16162 48.8055,6.94386 48.5382,6.73068 L47.9519,6.26298 L47.0165,7.43559 L47.6028,7.90329 C47.8566,8.10578 48.107,8.31262 48.3538,8.5237 L48.9237,9.01123 L49.8987,7.87139 Z M52.8877,10.9932 L53.3672,11.57 L52.2137,12.5289 L51.7343,11.9521 C51.5267,11.7024 51.3148,11.4562 51.0987,11.2138 L50.5998,10.6538 L51.7197,9.6559 L52.2186,10.2159 C52.4461,10.4711 52.6692,10.7303 52.8877,10.9932 Z M56.2146,15.9019 L55.8422,15.2509 C55.6723,14.9538 55.4973,14.6597 55.3173,14.3688 L54.9227,13.731 L53.6471,14.5202 L54.0417,15.158 C54.2126,15.4343 54.3788,15.7135 54.5401,15.9956 L54.9125,16.6466 L56.2146,15.9019 Z M57.9888,19.8926 L58.2436,20.598 L56.8328,21.1076 L56.578,20.4022 C56.4677,20.0969 56.3522,19.7937 56.2315,19.4926 L55.9524,18.7965 L57.3447,18.2383 L57.6238,18.9344 C57.7509,19.2516 57.8726,19.571 57.9888,19.8926 Z M59.4408,25.6298 L59.3128,24.8908 C59.2544,24.5535 59.1903,24.2175 59.1203,23.8831 L58.9669,23.149 L57.4986,23.4559 L57.6521,24.19 C57.7184,24.5075 57.7794,24.8264 57.8348,25.1466 L57.9627,25.8856 L59.4408,25.6298 Z M59.75,30 L59.75,30.75 L58.25,30.75 L58.25,30 C58.25,29.6743 58.2445,29.3493 58.2335,29.0251 L58.2081,28.2755 L59.7072,28.2247 L59.7326,28.9742 C59.7442,29.3154 59.75,29.6574 59.75,30 Z M0.25,29.25 L0.25,30 C0.25,30.3427 0.255795,30.6846 0.267361,31.0258 L0.292771,31.7754 L1.79191,31.7246 L1.7665,30.975 C1.75551,30.6507 1.75,30.3257 1.75,30 L1.75,29.25 L0.25,29.25 Z M0.559249,34.3703 L0.68718,35.1093 C0.745571,35.4466 0.809742,35.7825 0.879651,36.117 L1.0331,36.8511 L2.50137,36.5442 L2.34792,35.8101 C2.28155,35.4926 2.22063,35.1736 2.1652,34.8534 L2.03727,34.1144 L0.559249,34.3703 Z M2.01121,40.1074 L1.75643,39.4021 L3.16722,38.8925 L3.422,39.5979 C3.53226,39.9031 3.64778,40.2064 3.76849,40.5074 L4.04759,41.2036 L2.65533,41.7618 L2.37622,41.0657 C2.24906,40.7485 2.12736,40.429 2.01121,40.1074 Z M3.78542,44.0981 L4.15778,44.7492 C4.32767,45.0462 4.50268,45.3403 4.68271,45.6313 L5.07732,46.2691 L6.35291,45.4799 L5.95831,44.8421 C5.78735,44.5658 5.62117,44.2865 5.45985,44.0045 L5.0875,43.3534 L3.78542,44.0981 Z M7.11226,49.0068 L6.6328,48.4301 L7.78627,47.4712 L8.26573,48.0479 C8.47334,48.2977 8.68523,48.5438 8.90129,48.7863 L9.40024,49.3463 L8.28033,50.3442 L7.78138,49.7842 C7.55391,49.5289 7.33084,49.2698 7.11226,49.0068 Z M10.1013,52.1287 L10.6712,52.6162 C10.931,52.8384 11.1945,53.0562 11.4618,53.2694 L12.0481,53.7371 L12.9835,52.5645 L12.3972,52.0968 C12.1434,51.8943 11.893,51.6874 11.6462,51.4764 L11.0763,50.9888 L10.1013,52.1287 Z M14.8676,55.6193 L14.2222,55.2372 L14.9862,53.9464 L15.6317,54.3284 C15.9111,54.4938 16.1933,54.6544 16.4783,54.81 L17.1365,55.1695 L16.4175,56.486 L15.7593,56.1265 C15.4591,55.9625 15.1619,55.7934 14.8676,55.6193 Z M18.8304,57.5922 L19.5324,57.8561 C19.8524,57.9764 20.1746,58.0912 20.4988,58.2003 L21.2095,58.4397 L21.6883,57.0182 L20.9775,56.7788 C20.6698,56.6752 20.364,56.5662 20.0603,56.452 L19.3583,56.1881 L18.8304,57.5922 Z M24.536,59.2492 L23.7986,59.1123 L24.0724,57.6375 L24.8098,57.7744 C25.1288,57.8336 25.449,57.8874 25.7705,57.9356 L26.5122,58.047 L26.2896,59.5304 L25.5479,59.419 C25.2093,59.3682 24.8719,59.3116 24.536,59.2492 Z M28.7504,59.7336 L29.5003,59.7459 C29.6663,59.7487 29.8325,59.75 29.9988,59.75 L30.7488,59.7501 L30.7489,58.2501 L29.9989,58.25 C29.8408,58.25 29.6828,58.2487 29.525,58.2461 L28.7751,58.2338 L28.7504,59.7336 Z" id="Shape" fill="#F58220"></path>
        </g>
    </g>
</svg>