<svg width="18" height="18" viewBox="0 0 18 18" fill="none" xmlns="http://www.w3.org/2000/svg">
<path fill-rule="evenodd" clip-rule="evenodd" d="M9 14C11.7614 14 14 11.7614 14 9C14 6.23858 11.7614 4 9 4C6.23858 4 4 6.23858 4 9C4 11.7614 6.23858 14 9 14ZM10.6744 6.09499C10.8169 6.09499 10.9323 6.21038 10.9323 6.35281C10.9323 6.49511 10.8169 6.6105 10.6744 6.6105H9.34142C9.63075 6.89077 9.8188 7.25938 9.87606 7.65821H10.6744C10.8169 7.65821 10.9323 7.7736 10.9323 7.91603C10.9323 8.05833 10.8169 8.17386 10.6744 8.17386H9.87606C9.74672 9.07021 8.97914 9.73593 8.07343 9.73708H7.67907L9.81391 11.7544C9.8811 11.8175 9.90959 11.9119 9.88829 12.0017C9.867 12.0915 9.79938 12.1631 9.71089 12.1895C9.62241 12.2158 9.52659 12.1928 9.45969 12.1292L6.85379 9.66672C6.77711 9.59407 6.75236 9.48213 6.79149 9.38401C6.83048 9.28603 6.9253 9.22157 7.0309 9.22157H8.07343C8.69484 9.22071 9.22977 8.78289 9.35322 8.17386H7.0309C6.88847 8.17386 6.77308 8.05847 6.77308 7.91603C6.77308 7.77374 6.88847 7.65821 7.0309 7.65821H9.35322C9.22977 7.04932 8.69484 6.61136 8.07343 6.61064H7.0309C6.88847 6.61064 6.77308 6.49511 6.77308 6.35281C6.77308 6.21038 6.88847 6.09499 7.0309 6.09499H10.6744Z" fill="url(#paint0_linear)"/>
<path d="M8.82321 1.97231C9.63053 1.97127 10.4323 2.10628 11.1948 2.37182C11.2992 2.40894 11.4158 2.38719 11.4998 2.31502C11.5839 2.24268 11.6229 2.1308 11.602 2.02186C11.5812 1.91291 11.5035 1.82348 11.3985 1.78757C10.5706 1.49924 9.69994 1.35249 8.82321 1.35352C4.5095 1.35352 1.00001 4.86284 1.00001 9.17673C0.998798 10.0909 1.15833 10.9982 1.47135 11.8571C1.52988 12.0177 1.70753 12.1002 1.8681 12.0417C2.02867 11.9832 2.11119 11.8055 2.05267 11.645C1.76451 10.854 1.61776 10.0186 1.61879 9.17673C1.61879 5.20418 4.85066 1.97231 8.82321 1.97231Z" fill="#F78200" stroke="#F78200" stroke-width="0.5"/>
<path d="M17 3.25207C17 3.08132 16.8615 2.94268 16.6906 2.94268H15.0573V1.30939C15.0573 1.13847 14.9189 1 14.7479 1C14.577 1 14.4385 1.13847 14.4385 1.30939V2.94268H12.7127C12.5418 2.94268 12.4033 3.08132 12.4033 3.25207C12.4033 3.423 12.5418 3.56146 12.7127 3.56146H14.4385V5.28729C14.4385 5.45822 14.577 5.59668 14.7479 5.59668C14.9189 5.59668 15.0573 5.45822 15.0573 5.28729V3.56146H16.6906C16.8615 3.56146 17 3.423 17 3.25207Z" fill="#F78200" stroke="#F78200" stroke-width="0.5"/>
<path d="M3.14595 16.3742C3.16719 16.4962 3.25921 16.5938 3.37989 16.6223C3.5004 16.6507 3.62644 16.6045 3.69999 16.5047L4.36297 15.6048C5.67081 16.5178 7.2283 17.005 8.82326 17C13.1371 17 16.6465 13.4907 16.6465 9.17681C16.6484 8.14211 16.4438 7.11742 16.0444 6.16283C15.9774 6.00692 15.7974 5.93389 15.6408 5.99932C15.4842 6.06493 15.4096 6.24432 15.4735 6.4016C15.8412 7.28057 16.0296 8.22412 16.0277 9.17681C16.0277 13.1494 12.7958 16.3812 8.82326 16.3812C7.36056 16.3859 5.93169 15.9408 4.7302 15.1065L5.71 13.7766C5.78355 13.6768 5.79046 13.5428 5.72761 13.436C5.6646 13.3293 5.54408 13.2702 5.42116 13.2863L2.99281 13.6015C2.90907 13.6124 2.83345 13.657 2.78338 13.7248C2.73331 13.7928 2.71311 13.8781 2.72761 13.9613L3.14595 16.3742Z" fill="#F78200" stroke="#F78200" stroke-width="0.5"/>
<defs>
<linearGradient id="paint0_linear" x1="4" y1="4" x2="4" y2="14" gradientUnits="userSpaceOnUse">
<stop stop-color="#FBB843"/>
<stop offset="1" stop-color="#F58220"/>
</linearGradient>
</defs>
</svg>
