<svg width="17" height="16" viewBox="0 0 17 16" fill="none" xmlns="http://www.w3.org/2000/svg">
<path d="M10.2891 5.06366C10.2891 4.90555 10.1611 4.77747 10.003 4.77747H5.95856C5.80045 4.77747 5.67236 4.90555 5.67236 5.06366C5.67236 5.22161 5.80045 5.34985 5.95856 5.34985H7.11579C7.80556 5.35065 8.39935 5.8368 8.53637 6.51267H5.95856C5.80045 6.51267 5.67236 6.64092 5.67236 6.79887C5.67236 6.95698 5.80045 7.08506 5.95856 7.08506H8.53637C8.39935 7.7611 7.80556 8.24708 7.11579 8.24804H5.95856C5.84133 8.24804 5.73609 8.31959 5.69281 8.42835C5.64937 8.53727 5.67684 8.66152 5.76196 8.74217L8.65456 11.4755C8.72882 11.5461 8.83518 11.5717 8.9334 11.5425C9.03162 11.5132 9.10669 11.4337 9.13032 11.334C9.15396 11.2344 9.12234 11.1296 9.04775 11.0595L6.67803 8.82027H7.11579C8.12114 8.81899 8.97317 8.08003 9.11675 7.08506H10.003C10.1611 7.08506 10.2891 6.95682 10.2891 6.79887C10.2891 6.64076 10.1611 6.51267 10.003 6.51267H9.11675C9.05318 6.06997 8.84445 5.6608 8.52328 5.34969H10.003C10.1611 5.34969 10.2891 5.22161 10.2891 5.06366V5.06366Z" fill="#F58220" stroke="#F58220" stroke-width="0.6"/>
<path d="M15.9424 3.08321C15.9424 2.92526 15.8144 2.79701 15.6563 2.79701H14.1454V1.28619C14.1454 1.12808 14.0173 1 13.8592 1C13.7011 1 13.573 1.12808 13.573 1.28619V2.79701H11.9766C11.8185 2.79701 11.6904 2.92526 11.6904 3.08321C11.6904 3.24132 11.8185 3.3694 11.9766 3.3694H13.573V4.96582C13.573 5.12393 13.7011 5.25202 13.8592 5.25202C14.0173 5.25202 14.1454 5.12393 14.1454 4.96582V3.3694H15.6563C15.8144 3.3694 15.9424 3.24132 15.9424 3.08321Z" fill="#F58220" stroke="#F58220" stroke-width="0.5"/>
<path d="M10.4494 1.59584C9.66303 1.28471 8.80589 1.11374 7.90882 1.11374C4.09319 1.11374 1 4.20692 1 8.02256C1 11.8382 4.09319 14.9314 7.90882 14.9314V14.9314C11.7245 14.9314 14.8176 11.8382 14.8176 8.02256C14.8176 7.71939 14.7981 7.42078 14.7603 7.12793" stroke="#F58220" stroke-width="1.4" stroke-linecap="round"/>
</svg>
