<svg width="17" height="16" viewBox="0 0 17 16" fill="none" xmlns="http://www.w3.org/2000/svg">
<path d="M10.289 5.06366C10.289 4.90555 10.1609 4.77747 10.0028 4.77747H5.95843C5.80033 4.77747 5.67224 4.90555 5.67224 5.06366C5.67224 5.22161 5.80033 5.34985 5.95843 5.34985H7.11567C7.80544 5.35065 8.39922 5.8368 8.53625 6.51267H5.95843C5.80033 6.51267 5.67224 6.64092 5.67224 6.79887C5.67224 6.95698 5.80033 7.08506 5.95843 7.08506H8.53625C8.39922 7.7611 7.80544 8.24708 7.11567 8.24804H5.95843C5.84121 8.24804 5.73596 8.31959 5.69268 8.42835C5.64924 8.53727 5.67671 8.66152 5.76184 8.74217L8.65443 11.4755C8.7287 11.5461 8.83506 11.5717 8.93328 11.5425C9.0315 11.5132 9.10656 11.4337 9.1302 11.334C9.15384 11.2344 9.12221 11.1296 9.04763 11.0595L6.67791 8.82027H7.11567C8.12102 8.81899 8.97305 8.08003 9.11662 7.08506H10.0028C10.1609 7.08506 10.289 6.95682 10.289 6.79887C10.289 6.64076 10.1609 6.51267 10.0028 6.51267H9.11662C9.05306 6.06997 8.84433 5.6608 8.52316 5.34969H10.0028C10.1609 5.34969 10.289 5.22161 10.289 5.06366Z" fill="white"/>
<path d="M15.9424 3.08321C15.9424 2.92526 15.8144 2.79701 15.6563 2.79701H14.1454V1.28619C14.1454 1.12808 14.0173 1 13.8592 1C13.7011 1 13.573 1.12808 13.573 1.28619V2.79701H11.9766C11.8185 2.79701 11.6904 2.92526 11.6904 3.08321C11.6904 3.24132 11.8185 3.3694 11.9766 3.3694H13.573V4.96582C13.573 5.12393 13.7011 5.25202 13.8592 5.25202C14.0173 5.25202 14.1454 5.12393 14.1454 4.96582V3.3694H15.6563C15.8144 3.3694 15.9424 3.24132 15.9424 3.08321Z" fill="white" stroke="white" stroke-width="0.5"/>
<path d="M10.4494 1.59581C9.66303 1.28468 8.80589 1.11371 7.90882 1.11371C4.09319 1.11371 1 4.20689 1 8.02253C1 11.8382 4.09319 14.9314 7.90882 14.9314V14.9314C11.7245 14.9314 14.8176 11.8382 14.8176 8.02253C14.8176 7.71936 14.7981 7.42075 14.7603 7.12789" stroke="white" stroke-linecap="round"/>
</svg>
