<svg width="21" height="21" viewBox="0 0 21 21" fill="none" xmlns="http://www.w3.org/2000/svg">
<path fill-rule="evenodd" clip-rule="evenodd" d="M17.2111 14.0139C15.3906 13.8783 13.9504 12.3547 13.9504 10.5C13.9504 8.55643 15.5316 6.9752 17.4752 6.9752C19.4188 6.9752 21 8.55643 21 10.5C21 10.7389 20.9759 10.9777 20.9285 11.2097C20.8945 11.3762 20.732 11.4837 20.5655 11.4495C20.399 11.4154 20.2917 11.2529 20.3257 11.0864C20.3649 10.8949 20.3848 10.6976 20.3848 10.5C20.3848 8.89567 19.0795 7.59043 17.4752 7.59043C15.8708 7.59043 14.5656 8.89567 14.5656 10.5C14.5656 12.1043 15.8708 13.4096 17.4752 13.4096C18.3912 13.4096 19.2353 12.9911 19.7912 12.2614C19.8942 12.1263 20.0872 12.1001 20.2223 12.2031C20.3575 12.3061 20.3836 12.4991 20.2806 12.6342C19.68 13.4227 18.8013 13.9107 17.8308 14.0069C17.8711 14.3199 17.895 14.6749 17.886 15.0612C17.977 14.9976 18.0767 14.9452 18.1837 14.9058C18.5096 14.7861 18.8626 14.8004 19.1777 14.9461L19.8931 15.277C20.0473 15.3483 20.1144 15.5311 20.0431 15.6853L19.7122 16.4007C19.5665 16.7158 19.3068 16.9553 18.9809 17.0751C18.8347 17.1288 18.683 17.1555 18.5318 17.1555C18.3459 17.1555 18.1606 17.1151 17.9868 17.0347L17.6006 16.8561C17.5349 17.0739 17.4564 17.2952 17.3624 17.5191C16.8671 18.6991 15.8701 19.831 15.0845 20.3847H18.7236C18.8936 20.3847 19.0312 20.5224 19.0312 20.6923C19.0312 20.8622 18.8936 20.9999 18.7236 20.9999H2.27637C2.10644 20.9999 1.96875 20.8622 1.96875 20.6923C1.96875 20.5224 2.10644 20.3847 2.27637 20.3847H5.91548C5.15464 19.8347 4.12502 18.6805 3.63759 17.5191C3.54363 17.2952 3.46508 17.0738 3.39937 16.8561L3.01317 17.0347C2.83943 17.1151 2.65412 17.1555 2.4682 17.1555C2.31697 17.1555 2.1653 17.1288 2.01912 17.0751C1.69325 16.9553 1.4335 16.7158 1.28773 16.4007L0.956895 15.6853C0.885568 15.5311 0.952711 15.3483 1.10693 15.277L1.82228 14.9461C2.13732 14.8004 2.49043 14.7861 2.8163 14.9058C2.92331 14.9452 3.02297 14.9976 3.11403 15.0612C3.10496 14.6749 3.12888 14.3199 3.16915 14.0069C1.39195 13.828 0 12.3235 0 10.5C0 9.61989 0.326197 8.77714 0.918463 8.12696C1.0329 8.00137 1.22743 7.9923 1.35302 8.1067C1.47857 8.22109 1.48768 8.41567 1.37324 8.54126C0.88442 9.07791 0.615234 9.77353 0.615234 10.5C0.615234 12.1043 1.92035 13.4095 3.52472 13.4095C5.12909 13.4095 6.43429 12.1043 6.43429 10.5C6.43429 8.89563 5.12905 7.59039 3.52472 7.59039C3.15623 7.59039 2.79727 7.65827 2.45782 7.79211C2.29991 7.85445 2.12116 7.77685 2.05878 7.61878C1.99648 7.46074 2.07408 7.28208 2.23215 7.21978C2.64379 7.05744 3.07867 6.97516 3.52472 6.97516C5.46829 6.97516 7.04952 8.55639 7.04952 10.5C7.04952 12.3546 5.60938 13.8782 3.78878 14.0138C3.69653 14.672 3.67906 15.548 3.94049 16.5124C3.9909 16.4087 4.05526 16.3109 4.13335 16.2218C4.36222 15.9608 4.6791 15.8045 5.02556 15.7817L5.81208 15.7301C5.89366 15.7248 5.97368 15.7521 6.03504 15.8058C6.0964 15.8596 6.13385 15.9356 6.13922 16.017L6.19082 16.8035C6.2377 17.5186 5.69408 18.1387 4.97885 18.1856L4.69182 18.2045C5.47961 19.4281 6.53937 20.1028 7.07212 20.3848H10.1924V19.5802H9.7118C8.9951 19.5802 8.41198 18.9971 8.41198 18.2803V17.4921C8.41198 17.3223 8.54967 17.1845 8.71959 17.1845H9.50779C9.75885 17.1845 9.99342 17.2563 10.1924 17.3801V15.8888H9.7118C8.9951 15.8888 8.41198 15.3057 8.41198 14.5889V13.8007C8.41198 13.6308 8.54967 13.4931 8.71959 13.4931H9.50779C9.75885 13.4931 9.99342 13.5649 10.1924 13.6887V12.1973H9.7118C8.9951 12.1973 8.41198 11.6143 8.41198 10.8975V10.1093C8.41198 9.93944 8.54967 9.80171 8.71959 9.80171H9.50779C9.75885 9.80171 9.99342 9.87349 10.1924 9.99727V7.93439C8.1448 7.77685 6.5269 6.06039 6.5269 3.9731C6.5269 1.78233 8.30923 0 10.5 0C12.6908 0 14.4731 1.78233 14.4731 3.97314C14.4731 6.06043 12.8552 7.77689 10.8076 7.93443V8.76684C11.0066 8.64306 11.2411 8.57128 11.4922 8.57128H12.2804C12.4503 8.57128 12.588 8.70901 12.588 8.8789V9.6671C12.588 10.3838 12.0049 10.9669 11.2882 10.9669H10.8076V12.4583C11.0066 12.3345 11.2411 12.2627 11.4922 12.2627H12.2804C12.4503 12.2627 12.588 12.4004 12.588 12.5703V13.3585C12.588 14.0752 12.0049 14.6583 11.2882 14.6583H10.8076V16.1497C11.0066 16.0259 11.2411 15.9541 11.4922 15.9541H12.2804C12.4503 15.9541 12.588 16.0918 12.588 16.2617V17.0499C12.588 17.7666 12.0049 18.3497 11.2882 18.3497H10.8076V20.3848H13.9278C14.4606 20.1029 15.5203 19.4281 16.3081 18.2045L16.0211 18.1857C15.3058 18.1387 14.7622 17.5187 14.8091 16.8035L14.8607 16.017C14.8661 15.9356 14.9035 15.8597 14.9649 15.8059C15.0262 15.7521 15.1062 15.7249 15.1878 15.7302L15.9744 15.7818C16.3208 15.8045 16.6377 15.9608 16.8666 16.2218C16.9447 16.3109 17.009 16.4087 17.0594 16.5124C17.3209 15.548 17.3034 14.6721 17.2111 14.0139ZM2.23133 16.4977C2.40302 16.5608 2.58895 16.5532 2.7549 16.4764L3.19106 16.2747L2.98934 15.8386C2.91256 15.6726 2.77573 15.5464 2.60408 15.4834C2.43251 15.4203 2.24655 15.4278 2.08052 15.5046L1.64436 15.7063L1.84607 16.1425C1.92285 16.3085 2.05964 16.4346 2.23133 16.4977ZM4.4276 17.1237C4.41562 16.9412 4.47542 16.765 4.59592 16.6275C4.71647 16.49 4.8834 16.4077 5.06588 16.3957L5.54539 16.3643L5.57685 16.8438C5.58883 17.0263 5.52903 17.2025 5.40853 17.34C5.28798 17.4775 5.12105 17.5598 4.93857 17.5718L4.45905 17.6032L4.4276 17.1237ZM9.7118 18.9649H10.1924V18.4844C10.1924 18.1069 9.8853 17.7998 9.50779 17.7998H9.02721V18.2803C9.02721 18.6578 9.3343 18.9649 9.7118 18.9649ZM10.1924 15.2735H9.7118C9.3343 15.2735 9.02721 14.9664 9.02721 14.5889V14.1083H9.50779C9.8853 14.1083 10.1924 14.4155 10.1924 14.793V15.2735ZM9.7118 11.5821H10.1924V11.1016C10.1924 10.7241 9.8853 10.4169 9.50779 10.4169H9.02721V10.8975C9.02721 11.275 9.3343 11.5821 9.7118 11.5821ZM11.4922 16.5693H11.9728V17.0499C11.9728 17.4274 11.6657 17.7345 11.2882 17.7345H10.8076V17.2539C10.8076 16.8764 11.1147 16.5693 11.4922 16.5693ZM11.9728 12.8779H11.4922C11.1147 12.8779 10.8076 13.185 10.8076 13.5625V14.0431H11.2882C11.6657 14.0431 11.9728 13.736 11.9728 13.3585V12.8779ZM11.4922 9.18647H11.9728V9.66706C11.9728 10.0446 11.6657 10.3516 11.2882 10.3516H10.8076V9.87111C10.8076 9.49356 11.1147 9.18647 11.4922 9.18647ZM7.14213 3.97314C7.14213 5.7209 8.48453 7.16038 10.1924 7.31633L10.8076 7.31629C12.5154 7.16038 13.8579 5.72086 13.8579 3.9731C13.8579 2.12157 12.3516 0.615234 10.5 0.615234C8.64843 0.615234 7.14213 2.12157 7.14213 3.97314ZM16.5724 17.1237L16.5409 17.6032L16.0614 17.5717C15.879 17.5597 15.712 17.4774 15.5915 17.3399C15.471 17.2024 15.4112 17.0262 15.4231 16.8437L15.4546 16.3642L15.9341 16.3957C16.1166 16.4076 16.2835 16.49 16.4041 16.6274C16.5246 16.765 16.5844 16.9412 16.5724 17.1237ZM18.3959 15.4833C18.2243 15.5464 18.0874 15.6725 18.0107 15.8385L17.8089 16.2747L18.2451 16.4764C18.4111 16.5532 18.5971 16.5607 18.7687 16.4976C18.9404 16.4346 19.0771 16.3084 19.1539 16.1424L19.3556 15.7063L18.9195 15.5045C18.7535 15.4278 18.5676 15.4202 18.3959 15.4833Z" fill="#AAB2BA"/>
<path d="M19.0541 10.0155H18.5373C18.5078 9.73071 18.3542 9.46622 18.1294 9.30346H19.0541C19.11 9.30346 19.1558 9.25768 19.1558 9.20173C19.1558 9.14578 19.11 9.10001 19.0541 9.10001H16.9015C16.8456 9.10001 16.7998 9.14578 16.7998 9.20173C16.7998 9.25768 16.8456 9.30346 16.9015 9.30346H17.518C17.9371 9.30346 18.283 9.61881 18.3328 10.0155H16.9015C16.8456 10.0155 16.7998 10.0613 16.7998 10.1173C16.7998 10.1732 16.8456 10.219 16.9015 10.219H18.3328C18.282 10.631 17.932 10.9402 17.518 10.9413H16.9025C16.8456 10.9423 16.7998 10.9891 16.8008 11.046C16.8008 11.0735 16.813 11.0999 16.8324 11.1193L18.3715 12.575C18.4122 12.6136 18.4763 12.6116 18.5149 12.5709C18.5536 12.5292 18.5515 12.4651 18.5108 12.4254L17.1569 11.1447H17.517C18.048 11.1447 18.4864 10.7378 18.5373 10.219H19.0541C19.11 10.219 19.1558 10.1732 19.1558 10.1173C19.1558 10.0613 19.11 10.0155 19.0541 10.0155Z" fill="#AAB2BA"/>
<path d="M11.4945 3.43552H10.9777C10.9482 3.15069 10.7946 2.8862 10.5698 2.72344H11.4945C11.5504 2.72344 11.5962 2.67766 11.5962 2.62172C11.5962 2.56577 11.5504 2.51999 11.4945 2.51999H9.34196C9.28601 2.51999 9.24023 2.56577 9.24023 2.62172C9.24023 2.67766 9.28601 2.72344 9.34196 2.72344H9.95842C10.3775 2.72344 10.7234 3.03879 10.7732 3.43552H9.34196C9.28601 3.43552 9.24023 3.4813 9.24023 3.53725C9.24023 3.5932 9.28601 3.63898 9.34196 3.63898H10.7732C10.7224 4.05097 10.3724 4.36022 9.95842 4.36123H9.34298C9.28601 4.36225 9.24023 4.40904 9.24125 4.46601C9.24125 4.49348 9.25346 4.51993 9.27279 4.53925L10.8119 5.99496C10.8526 6.03361 10.9167 6.03158 10.9553 5.99089C10.994 5.94918 10.992 5.88509 10.9513 5.84542L9.59729 4.56469H9.9574C10.4884 4.56469 10.9269 4.15778 10.9777 3.63898H11.4945C11.5504 3.63898 11.5962 3.5932 11.5962 3.53725C11.5962 3.4813 11.5504 3.43552 11.4945 3.43552Z" fill="#AAB2BA"/>
<path d="M4.49449 10.0155H3.97772C3.94822 9.73071 3.79461 9.46622 3.5698 9.30346H4.49449C4.55044 9.30346 4.59621 9.25768 4.59621 9.20173C4.59621 9.14578 4.55044 9.10001 4.49449 9.10001H2.34196C2.28601 9.10001 2.24023 9.14578 2.24023 9.20173C2.24023 9.25768 2.28601 9.30346 2.34196 9.30346H2.95842C3.37753 9.30346 3.7234 9.61881 3.77325 10.0155H2.34196C2.28601 10.0155 2.24023 10.0613 2.24023 10.1173C2.24023 10.1732 2.28601 10.219 2.34196 10.219H3.77325C3.72239 10.631 3.37245 10.9402 2.95842 10.9413H2.34298C2.28601 10.9423 2.24023 10.9891 2.24125 11.046C2.24125 11.0735 2.25346 11.0999 2.27279 11.1193L3.8119 12.575C3.85259 12.6136 3.91668 12.6116 3.95534 12.5709C3.99399 12.5292 3.99196 12.4651 3.95127 12.4254L2.59729 11.1447H2.9574C3.48841 11.1447 3.92685 10.7378 3.97772 10.219H4.49449C4.55044 10.219 4.59621 10.1732 4.59621 10.1173C4.59621 10.0613 4.55044 10.0155 4.49449 10.0155Z" fill="#AAB2BA"/>
</svg>
