<svg width="17" height="17" viewBox="0 0 17 17" fill="none" xmlns="http://www.w3.org/2000/svg">
<g opacity="0.599049">
<path d="M7.82321 1.97237C8.63053 1.97133 9.43233 2.10634 10.1948 2.37188C10.2992 2.409 10.4158 2.38725 10.4998 2.31508C10.5839 2.24274 10.6229 2.13086 10.602 2.02192C10.5812 1.91297 10.5035 1.82354 10.3985 1.78763C9.57062 1.4993 8.69994 1.35255 7.82321 1.35358C3.5095 1.35358 6.81562e-06 4.86291 6.81562e-06 9.17679C-0.00120175 10.091 0.158329 10.9983 0.471347 11.8572C0.529876 12.0178 0.707534 12.1003 0.868101 12.0418C1.02867 11.9832 1.11119 11.8056 1.05267 11.645C0.76451 10.8541 0.617755 10.0186 0.618791 9.17679C0.618791 5.20424 3.85066 1.97237 7.82321 1.97237Z" fill="#8F97A0" stroke="#8F97A0" stroke-width="0.5"/>
<path d="M10.3187 5.82337C10.3187 5.65244 10.1802 5.51398 10.0093 5.51398H5.63703C5.4661 5.51398 5.32764 5.65244 5.32764 5.82337C5.32764 5.99412 5.4661 6.13276 5.63703 6.13276H6.88806C7.63375 6.13362 8.27567 6.65918 8.4238 7.38984H5.63703C5.4661 7.38984 5.32764 7.52848 5.32764 7.69923C5.32764 7.87016 5.4661 8.00862 5.63703 8.00862H8.4238C8.27567 8.73946 7.63375 9.26484 6.88806 9.26588H5.63703C5.5103 9.26588 5.39652 9.34322 5.34974 9.4608C5.30277 9.57855 5.33247 9.71287 5.42449 9.80006L8.55157 12.755C8.63185 12.8313 8.74684 12.8589 8.85302 12.8273C8.9592 12.7957 9.04034 12.7098 9.0659 12.602C9.09145 12.4943 9.05726 12.381 8.97664 12.3052L6.41483 9.88449H6.88806C7.97491 9.88311 8.89601 9.08425 9.05122 8.00862H10.0093C10.1802 8.00862 10.3187 7.86999 10.3187 7.69923C10.3187 7.52831 10.1802 7.38984 10.0093 7.38984H9.05122C8.98251 6.91125 8.75685 6.46891 8.40965 6.13259H10.0093C10.1802 6.13259 10.3187 5.99412 10.3187 5.82337V5.82337Z" fill="#8F97A0" stroke="#8F97A0" stroke-width="0.5"/>
<path d="M16 3.25207C16 3.08132 15.8615 2.94268 15.6906 2.94268H14.0573V1.30939C14.0573 1.13847 13.9189 1 13.7479 1C13.577 1 13.4385 1.13847 13.4385 1.30939V2.94268H11.7127C11.5418 2.94268 11.4033 3.08132 11.4033 3.25207C11.4033 3.423 11.5418 3.56146 11.7127 3.56146H13.4385V5.28729C13.4385 5.45822 13.577 5.59668 13.7479 5.59668C13.9189 5.59668 14.0573 5.45822 14.0573 5.28729V3.56146H15.6906C15.8615 3.56146 16 3.423 16 3.25207Z" fill="#8F97A0" stroke="#8F97A0" stroke-width="0.5"/>
<path d="M2.14595 16.3742C2.16719 16.4962 2.25921 16.5938 2.37989 16.6223C2.5004 16.6507 2.62644 16.6045 2.69999 16.5047L3.36297 15.6048C4.67081 16.5178 6.2283 17.005 7.82326 17C12.1371 17 15.6465 13.4907 15.6465 9.17681C15.6484 8.14211 15.4438 7.11742 15.0444 6.16283C14.9774 6.00692 14.7974 5.93389 14.6408 5.99932C14.4842 6.06493 14.4096 6.24432 14.4735 6.4016C14.8412 7.28057 15.0296 8.22412 15.0277 9.17681C15.0277 13.1494 11.7958 16.3812 7.82326 16.3812C6.36056 16.3859 4.93169 15.9408 3.7302 15.1065L4.71 13.7766C4.78355 13.6768 4.79046 13.5428 4.72761 13.436C4.6646 13.3293 4.54408 13.2702 4.42116 13.2863L1.99281 13.6015C1.90907 13.6124 1.83345 13.657 1.78338 13.7248C1.73331 13.7928 1.71311 13.8781 1.72761 13.9613L2.14595 16.3742Z" fill="#8F97A0" stroke="#8F97A0" stroke-width="0.5"/>
</g>
</svg>
