<svg width="13" height="13" viewBox="0 0 13 13" fill="none" xmlns="http://www.w3.org/2000/svg">
<path fill-rule="evenodd" clip-rule="evenodd" d="M10.3791 10.3636C9.30966 11.4331 7.90481 11.9678 6.50001 11.9678C5.0952 11.9678 3.69035 11.4331 2.62096 10.3636C0.48202 8.22469 0.48202 4.74445 2.62096 2.60552C4.75985 0.466536 8.24022 0.466536 10.3791 2.60552C12.518 4.74445 12.518 8.22469 10.3791 10.3636ZM6.50001 2.4109C5.45632 2.4109 4.41269 2.80817 3.6181 3.60266C2.02907 5.19174 2.02907 7.77735 3.61815 9.36643C5.20723 10.9555 7.79279 10.9555 9.38191 9.36643C10.971 7.7774 10.971 5.19179 9.38191 3.60271C8.58733 2.80817 7.54369 2.4109 6.50001 2.4109Z" fill="#606C78"/>
<path d="M10.3791 10.3636L10.167 10.1515L10.167 10.1515L10.3791 10.3636ZM2.62096 10.3636L2.8331 10.1515L2.83309 10.1515L2.62096 10.3636ZM2.62096 2.60552L2.83309 2.81765L2.83309 2.81765L2.62096 2.60552ZM10.3791 2.60552L10.167 2.81765L10.167 2.81765L10.3791 2.60552ZM3.6181 3.60266L3.40598 3.39052L3.40597 3.39054L3.6181 3.60266ZM3.61815 9.36643L3.40602 9.57856L3.40602 9.57856L3.61815 9.36643ZM9.38191 9.36643L9.59404 9.57857L9.59404 9.57856L9.38191 9.36643ZM9.38191 3.60271L9.59405 3.39058L9.59404 3.39057L9.38191 3.60271ZM6.50001 12.2678C7.98085 12.2678 9.46309 11.704 10.5912 10.5757L10.167 10.1515C9.15623 11.1623 7.82877 11.6678 6.50001 11.6678V12.2678ZM2.40881 10.5757C3.53692 11.704 5.01917 12.2678 6.50001 12.2678V11.6678C5.17124 11.6678 3.84378 11.1623 2.8331 10.1515L2.40881 10.5757ZM2.40882 2.39339C0.152731 4.64948 0.152731 8.31966 2.40882 10.5758L2.83309 10.1515C0.81131 8.12971 0.81131 4.83943 2.83309 2.81765L2.40882 2.39339ZM10.5912 2.39339C8.3352 0.137245 4.66487 0.137245 2.40882 2.39339L2.83309 2.81765C4.85482 0.795827 8.14524 0.795827 10.167 2.81765L10.5912 2.39339ZM10.5912 10.5758C12.8473 8.31966 12.8473 4.64948 10.5912 2.39339L10.167 2.81765C12.1888 4.83943 12.1888 8.12971 10.167 10.1515L10.5912 10.5758ZM3.83022 3.81481C4.56611 3.07901 5.53237 2.7109 6.50001 2.7109V2.1109C5.38028 2.1109 4.25926 2.53734 3.40598 3.39052L3.83022 3.81481ZM3.83028 9.1543C2.35836 7.68238 2.35836 5.28671 3.83024 3.81479L3.40597 3.39054C1.69978 5.09677 1.69978 7.87233 3.40602 9.57856L3.83028 9.1543ZM9.16979 9.15429C7.69782 10.6262 5.3022 10.6262 3.83028 9.15429L3.40602 9.57856C5.11225 11.2847 7.88776 11.2847 9.59404 9.57857L9.16979 9.15429ZM9.16978 3.81484C10.6417 5.28676 10.6417 7.68242 9.16978 9.15429L9.59404 9.57856C11.3003 7.87237 11.3003 5.09681 9.59405 3.39058L9.16978 3.81484ZM6.50001 2.7109C7.46765 2.7109 8.4339 3.07901 9.16979 3.81485L9.59404 3.39057C8.74075 2.53734 7.61974 2.1109 6.50001 2.1109V2.7109Z" fill="white"/>
<path d="M8.3674 5.77942H7.20512V3.32928H5.79486V7.18967H8.3674V5.77942Z" fill="#606C78" stroke="white" stroke-width="0.6"/>
</svg>
