<?xml version="1.0" encoding="UTF-8"?>
<svg width="150px" height="53px" viewBox="0 0 150 53" version="1.1" xmlns="http://www.w3.org/2000/svg" xmlns:xlink="http://www.w3.org/1999/xlink">
    <!-- Generator: Sketch 53.2 (72643) - https://sketchapp.com -->
    <title>sbi-new-seeklogo.com 2</title>
    <desc>Created with Sketch.</desc>
    <g id="Page-1" stroke="none" stroke-width="1" fill="none" fill-rule="evenodd">
        <g id="09.5b-SIP" transform="translate(-300.000000, -478.000000)">
            <g id="sbi-new-seeklogo.com-2" transform="translate(300.000000, 478.000000)">
                <g id="g10" transform="translate(74.999998, 26.271187) scale(-1, 1) rotate(-180.000000) translate(-74.999998, -26.271187) translate(0.000000, 0.000001)">
                    <g id="g12" transform="translate(0.056497, 0.169492)">
                        <path d="M51.6008462,26.3592366 C51.6008462,40.6019764 40.0553662,52.1480213 25.812796,52.1480213 C11.5699997,52.1480213 0.0248279655,40.6019764 0.0248279655,26.3592366 C0.0248279655,12.6562426 10.5988415,1.43483047 24.0863271,0.571372867 L24.0863271,20.5327396 C21.6049712,21.2879656 19.7703667,23.5541237 19.7703667,26.3592366 C19.7703667,29.5968919 22.4678808,32.294067 25.812796,32.294067 C29.1576264,32.294067 31.8553664,29.5968919 31.8553664,26.3592366 C31.8553664,23.5541237 30.0214682,21.2879656 27.4314682,20.5327396 L27.4314682,0.571372867 C40.919208,1.43483047 51.6008462,12.6562426 51.6008462,26.3592366 L51.6008462,26.3592366" id="path14" fill="#00B6F0"></path>
                        <path d="M88.1412407,37.110451 C89.7039526,40.2361572 91.2669469,43.3621458 92.8299412,46.4878519 C83.9539527,54.7867218 67.0923712,54.4203376 61.5951962,42.5406769 C60.1302245,39.3740103 60.1813544,35.8646884 61.578812,32.1762704 C62.2536708,30.3960444 63.4672301,28.1762705 65.3949136,26.5854513 C66.3799418,25.7722027 70.164405,23.8978525 73.2240095,22.5109316 C76.0864388,21.2132481 80.0268342,20.2817227 81.8358737,17.7234459 C83.9033877,14.8000561 82.6265516,11.1901975 77.8310715,10.5328528 C75.1437834,10.1647455 71.1437835,11.2818924 65.1824842,16.092203 C63.0805069,13.3434742 60.978812,10.5950845 58.8768347,7.84649698 C78.9285291,-9.64016925 97.4375682,5.66991511 93.1005626,19.2775701 C91.9988678,22.734152 89.7322011,25.3922875 86.9242916,27.420762 C82.5810714,30.5573439 78.0466082,31.4076263 75.0194896,32.7271178 C69.3477384,35.1994341 70.1480208,42.158756 78.0132749,41.7338973 C82.9909584,41.4652532 84.5901109,40.0437843 88.1412407,37.110451" id="path16" fill="#271E79"></path>
                        <path d="M98.3042348,52.1683603 L117.746325,52.1683603 C124.282483,52.1683603 131.946042,46.4889819 131.946042,39.7087561 C131.946042,38.1420894 132.054234,36.9677957 131.946889,35.1485867 C131.73446,31.5505642 128.414404,27.5119202 126.274856,27.5119202 C129.604517,27.5119202 132.93107,22.7425418 133.747737,19.4411012 C135.731635,11.4229093 131.518923,0.0038621468 117.746325,0.0038621468 L98.3042348,0.0038621468 L98.3042348,52.1683603 Z M108.731918,42.649434 L116.371466,42.649434 C119.239263,42.649434 121.58559,40.2155357 121.58559,37.2401121 L121.58559,36.4652533 C121.58559,33.9163833 119.575421,31.8310727 117.118641,31.8310727 L113.965816,31.8310727 L113.965816,22.1862989 L117.644347,22.1862989 C120.968076,22.1862989 123.687285,19.365395 123.687285,15.9175137 L123.687285,15.917203 C123.687285,12.4693217 120.968076,9.64844609 117.644347,9.64844609 L108.731918,9.64844609 C108.731918,20.6488413 108.731918,31.6491518 108.731918,42.649434 L108.731918,42.649434 Z" id="path18" fill="#271E79"></path>
                        <polyline id="path20" fill="#271E79" points="138.945759 52.1683603 149.940109 52.1683603 149.940109 0.00397259877 138.945759 0.00397259877 138.945759 52.1683603"></polyline>
                    </g>
                </g>
            </g>
        </g>
    </g>
</svg>