<svg width="25" height="25" viewBox="0 0 25 25" fill="none" xmlns="http://www.w3.org/2000/svg">
<path fill-rule="evenodd" clip-rule="evenodd" d="M17.5054 15.4023H16.3936L16.0072 15.0186C17.3724 13.4266 18.2027 11.3627 18.2027 9.10137C18.2027 4.07463 14.1281 2.86102e-05 9.10134 2.86102e-05C4.0746 2.86102e-05 0 4.07463 0 9.10137C0 14.1281 4.0746 18.2027 9.10134 18.2027C11.3627 18.2027 13.4252 17.3738 15.0172 16.01L15.4037 16.3936V17.5026L22.4019 24.491L24.4896 22.4033L17.5054 15.4023V15.4023ZM9.10134 15.4023C5.62043 15.4023 2.80041 12.5823 2.80041 9.10137C2.80041 5.62185 5.62043 2.80044 9.10134 2.80044C12.5808 2.80044 15.4023 5.62185 15.4023 9.10137C15.4023 12.5823 12.5808 15.4023 9.10134 15.4023V15.4023Z" fill="#F58221"/>
</svg>
