<svg width="21" height="20" viewBox="0 0 21 20" fill="none" xmlns="http://www.w3.org/2000/svg">
<path d="M8.45703 14.2969C8.67264 14.2969 8.84766 14.1219 8.84766 13.9062C8.84766 13.6906 8.67264 13.5156 8.45703 13.5156C8.24142 13.5156 8.06641 13.6906 8.06641 13.9062C8.06641 14.1219 8.24142 14.2969 8.45703 14.2969Z" fill="white"/>
<path fill-rule="evenodd" clip-rule="evenodd" d="M4.82147 19.8856L0.133972 15.1981C-0.0186157 15.0455 -0.0186157 14.7983 0.133972 14.6457L2.7121 12.0676C2.86469 11.915 3.11188 11.915 3.26447 12.0676L3.42285 12.226L4.60999 11.1873C5.15701 10.7083 5.8075 10.3606 6.50711 10.1697C6.50528 10.1137 6.50391 10.0572 6.50391 10C6.50391 7.90298 7.76581 5.6218 9.55368 4.59015C9.45282 4.47449 9.37317 4.33823 9.32281 4.18549C9.12125 3.57178 9.45618 2.90817 10.0694 2.70569C10.0824 2.70142 10.0954 2.69742 10.1085 2.69342L10.1085 2.69341L10.128 2.68738L9.12247 0.881042C9.06448 0.77713 9.05716 0.652466 9.10233 0.54245C9.14764 0.432434 9.24042 0.349121 9.35471 0.315857C10.0757 0.106354 10.8252 0 11.582 0C12.339 0 13.0884 0.106354 13.8094 0.31601C13.9236 0.349121 14.0164 0.432587 14.0616 0.542603C14.1069 0.652466 14.0994 0.77713 14.0416 0.881042L13.036 2.68738L13.0525 2.69243L13.0525 2.69244C13.0663 2.69662 13.08 2.70081 13.0937 2.70538C13.7079 2.90817 14.043 3.57193 13.8414 4.18518C13.791 4.33823 13.712 4.47495 13.6115 4.59045C15.3731 5.60699 16.6528 7.86499 16.66 9.98245L17.7121 9.29214C18.092 9.05472 18.5539 8.99826 18.9798 9.13757C19.4055 9.27658 19.7452 9.59488 19.9115 10.0108C20.1416 10.5855 19.9913 11.2547 19.5377 11.676L14.7987 16.1174C14.4348 16.4552 13.9629 16.6406 13.4683 16.6406H7.83752L7.95197 16.7551C8.10455 16.9077 8.10455 17.1548 7.95197 17.3074L5.37384 19.8856C5.22125 20.0381 4.97406 20.0381 4.82147 19.8856ZM11.582 0.78125C11.0652 0.78125 10.5525 0.836029 10.052 0.944672L10.9225 2.50824C11.3609 2.44705 11.8028 2.44705 12.2417 2.50824L13.1122 0.944672C12.6115 0.836029 12.0988 0.78125 11.582 0.78125ZM10.3133 3.44788C11.1148 3.18558 11.9887 3.16574 12.8497 3.44757C13.0547 3.51517 13.1665 3.73672 13.0992 3.94119C13.0486 4.09515 12.9112 4.19968 12.7521 4.20898C11.9818 3.96408 11.1818 3.96362 10.4118 4.20822H10.4117C10.2512 4.19815 10.1149 4.09317 10.0648 3.94135C9.99756 3.73657 10.1094 3.51501 10.3133 3.44788ZM15.8789 10C15.8789 7.854 14.4023 5.60043 12.5874 4.97635C11.9084 4.74304 11.2067 4.74884 10.5293 4.99283C8.74054 5.63797 7.28516 7.88406 7.28516 10L7.28527 10.0104L7.28546 10.0247C7.44629 10.0084 7.60788 10 7.76917 10C8.80035 10 9.82269 10.3407 10.648 10.9593C10.6843 10.9828 10.717 11.0089 10.7492 11.0347C10.8371 11.1049 10.9209 11.1719 11.0614 11.1719H11.1914V10.7159C10.9312 10.6287 12.4274 10.5528 11.9727 10.7141V11.1719H12.7539C13.2361 11.1719 13.6766 11.389 13.9673 11.7491L15.8449 10.5173C15.8675 10.3552 15.8789 10.1819 15.8789 10ZM5.12451 11.7751C5.85846 11.1324 6.80161 10.7812 7.76917 10.7812C8.63251 10.7812 9.48837 11.0664 10.179 11.5842C10.1974 11.595 10.222 11.6144 10.2529 11.6389C10.3891 11.7468 10.6495 11.9531 11.0612 11.9531H12.7539C13.1985 11.9531 13.5352 12.3146 13.5352 12.7344C13.5352 13.1651 13.1847 13.5156 12.7539 13.5156H10.0195C9.80377 13.5156 9.62891 13.6905 9.62891 13.9062C9.62891 14.122 9.80377 14.2969 10.0195 14.2969H12.7539C13.6154 14.2969 14.3164 13.5959 14.3164 12.7344C14.3164 12.6448 14.3085 12.5565 14.2935 12.4695L18.1294 9.9527C18.3119 9.83994 18.5333 9.81354 18.7372 9.88007C18.9423 9.9472 19.106 10.1006 19.1861 10.3011C19.2989 10.5824 19.2281 10.8975 19.0047 11.1049L14.2659 15.5461C14.0483 15.7481 13.7651 15.8594 13.4683 15.8594H7.05627L3.97659 12.7795L5.12451 11.7751ZM7.12341 17.0312L2.98828 12.8961L0.962524 14.9219L5.09766 19.057L7.12341 17.0312Z" fill="white"/>
</svg>
