<svg width="33" height="32" viewBox="0 0 33 32" fill="none" xmlns="http://www.w3.org/2000/svg">
<path d="M19.3039 12.1379C19.2338 12.1376 19.1645 12.1244 19.0991 12.0991C17.3975 11.4181 15.4991 11.4181 13.7974 12.0991C13.5141 12.2122 13.1928 12.0742 13.0798 11.7909C12.9667 11.5077 13.1047 11.1863 13.3879 11.0733C15.3532 10.2909 17.5434 10.2909 19.5086 11.0733C19.7546 11.1713 19.8964 11.4302 19.8463 11.6902C19.7963 11.9503 19.5687 12.1381 19.3039 12.1379V12.1379Z" fill="#F58220" stroke="#F58220" stroke-width="0.6"/>
<circle cx="8.72414" cy="14.3448" r="1.10345" fill="#F58220" stroke="#F58220" stroke-width="0.6"/>
<path fill-rule="evenodd" clip-rule="evenodd" d="M11.4828 5.60559C11.4828 8.34797 13.7059 10.5711 16.4483 10.5711C19.1894 10.5681 21.4108 8.34673 21.4138 5.60559C21.4138 2.86321 19.1907 0.640076 16.4483 0.640076C13.7059 0.640076 11.4828 2.86321 11.4828 5.60559ZM12.5862 5.60559C12.5862 3.47263 14.3153 1.74352 16.4483 1.74352C18.5802 1.7461 20.3078 3.4737 20.3103 5.60559C20.3103 7.73855 18.5812 9.46766 16.4483 9.46766C14.3153 9.46766 12.5862 7.73855 12.5862 5.60559Z" fill="#F58220"/>
<path d="M16.4483 10.5711L16.4483 10.8711L16.4486 10.8711L16.4483 10.5711ZM21.4138 5.60559L21.7138 5.60592V5.60559H21.4138ZM16.4483 1.74352L16.4486 1.44352H16.4483V1.74352ZM20.3103 5.60559L20.6103 5.60559L20.6103 5.60523L20.3103 5.60559ZM16.4483 10.2711C13.8716 10.2711 11.7828 8.18229 11.7828 5.60559H11.1828C11.1828 8.51366 13.5402 10.8711 16.4483 10.8711V10.2711ZM21.1138 5.60527C21.111 8.18098 19.0237 10.2683 16.4479 10.2711L16.4486 10.8711C19.3552 10.8679 21.7106 8.51249 21.7138 5.60592L21.1138 5.60527ZM16.4483 0.940076C19.025 0.940076 21.1138 3.0289 21.1138 5.60559H21.7138C21.7138 2.69753 19.3563 0.340076 16.4483 0.340076V0.940076ZM11.7828 5.60559C11.7828 3.0289 13.8716 0.940076 16.4483 0.940076V0.340076C13.5402 0.340076 11.1828 2.69753 11.1828 5.60559H11.7828ZM16.4483 1.44352C14.1496 1.44352 12.2862 3.30695 12.2862 5.60559H12.8862C12.8862 3.63832 14.481 2.04352 16.4483 2.04352V1.44352ZM20.6103 5.60523C20.6076 3.30793 18.7459 1.4463 16.4486 1.44352L16.4479 2.04352C18.4144 2.0459 20.008 3.63946 20.0103 5.60596L20.6103 5.60523ZM16.4483 9.76766C18.7469 9.76766 20.6103 7.90424 20.6103 5.60559H20.0103C20.0103 7.57287 18.4156 9.16766 16.4483 9.16766V9.76766ZM12.2862 5.60559C12.2862 7.90424 14.1496 9.76766 16.4483 9.76766V9.16766C14.481 9.16766 12.8862 7.57287 12.8862 5.60559H12.2862Z" fill="#F58220"/>
<path d="M24.9278 31.4483H20.8427C20.067 31.4474 19.4384 30.8188 19.4375 30.0431V28.3168C17.6683 28.5666 15.8728 28.567 14.1034 28.3179V30.0431C14.1025 30.8188 13.4739 31.4474 12.6983 31.4483H8.61314C7.83709 31.4478 7.20792 30.8191 7.2069 30.0431C7.20369 28.1036 6.60816 26.2114 5.50001 24.6196C5.05192 23.9686 4.68226 23.2669 4.39871 22.5291H2.40518C1.62912 22.5281 1.00043 21.8989 1 21.1228V16.3944C1.00043 15.6183 1.62912 14.9892 2.40518 14.9881H4.18858C4.77946 13.0758 5.92896 11.384 7.48922 10.1304C7.12358 9.14776 6.66345 8.20296 6.1153 7.30924C5.80879 6.83284 5.81943 6.21871 6.14225 5.75321C6.45255 5.29178 7.0094 5.06156 7.55496 5.16915C8.51609 5.35491 9.4516 5.65481 10.3416 6.06247C10.5236 6.14247 10.6485 6.31419 10.6685 6.51197C10.6885 6.70975 10.6006 6.90301 10.4383 7.01787C10.2761 7.13272 10.0646 7.15141 9.8847 7.06679C9.07446 6.69584 8.22291 6.42273 7.34806 6.25324C7.23418 6.22826 7.11679 6.27685 7.05388 6.375C6.98223 6.47858 6.9801 6.61515 7.0485 6.72091C7.70599 7.79702 8.24814 8.93947 8.66595 10.1293C8.74981 10.3586 8.67259 10.6157 8.47629 10.7608C6.82808 11.9671 5.64755 13.7061 5.1347 15.6832C5.07041 15.9243 4.8519 16.0919 4.60237 16.0916H2.40518C2.23838 16.0922 2.10348 16.2276 2.10345 16.3944V21.1228C2.10347 21.2896 2.23837 21.425 2.40518 21.4256H4.78556C5.02135 21.4253 5.23115 21.5753 5.30711 21.7985C5.57196 22.5766 5.94213 23.3148 6.40733 23.9924C7.64327 25.7684 8.30724 27.8794 8.31034 30.0431C8.31096 30.2099 8.44634 30.3448 8.61314 30.3448H12.6983C12.8647 30.3443 12.9995 30.2095 13 30.0431V27.6713C13 27.5083 13.0722 27.3536 13.1972 27.2489C13.323 27.1457 13.4871 27.1017 13.6476 27.1282C15.7134 27.491 17.8266 27.4906 19.8922 27.1271C20.053 27.0986 20.2181 27.1426 20.3432 27.2474C20.4684 27.3522 20.5408 27.507 20.5409 27.6702V30.0431C20.5414 30.2095 20.6762 30.3443 20.8427 30.3448H24.9278C25.0946 30.3448 25.23 30.2099 25.2306 30.0431V29.5129C25.2715 27.545 25.9221 25.6384 27.0927 24.056C28.2276 22.4052 28.8145 20.4392 28.7705 18.4364C28.7692 17.7724 28.7082 17.1099 28.5884 16.4568C28.5386 16.1826 28.7007 15.9142 28.9667 15.8307C30.2518 15.3993 31.1762 14.2697 31.3448 12.9246C30.4312 13.5814 29.3654 13.9948 28.2478 14.1261C28.0242 14.1472 27.8101 14.0304 27.7069 13.8308C26.5013 11.6118 24.4786 9.94971 22.0679 9.19724C21.8815 9.13261 21.7437 8.97343 21.7066 8.77968C21.6694 8.58593 21.7384 8.38707 21.8876 8.25803C22.0369 8.12898 22.2436 8.08938 22.43 8.15414C24.9753 8.96176 27.1346 10.6774 28.4967 12.9742C29.2897 12.8182 30.0382 12.4884 30.6885 12.0087C31.0323 11.7495 31.4978 11.7211 31.8706 11.9365C32.2623 12.1575 32.4864 12.5891 32.4418 13.0367C32.2753 14.6579 31.2446 16.0622 29.7478 16.7069C29.8312 17.2797 29.8734 17.8576 29.8739 18.4364C29.9197 20.6673 29.2618 22.8559 27.9935 24.6918C26.956 26.089 26.3763 27.7731 26.3341 29.5129V30.0431C26.333 30.8192 25.7039 31.4479 24.9278 31.4483Z" fill="#F58220" stroke="#F58220" stroke-width="0.6"/>
</svg>
