<svg width="146" height="100" viewBox="0 0 146 100" fill="none" xmlns="http://www.w3.org/2000/svg">
<g filter="url(#filter0_d)">
<path fill-rule="evenodd" clip-rule="evenodd" d="M38.9887 80.6506C28.2017 75.6185 22.85 70.8273 25.6108 63.7466C28.372 56.6662 27.6595 56.2876 22.2094 50.6556C16.7596 45.0245 20.8682 43.3324 21.8474 38.7248C22.8274 34.1167 18.4817 31.1235 15.3175 26.1368C12.1533 21.1497 18.5002 11.6441 24.6804 15.2703C30.8603 18.8966 24.5971 25.2556 29.3344 30.5085C34.0721 35.7614 44.4857 34.6851 43.3217 41.1328C42.1578 47.5806 34.3979 52.4606 40.6907 56.9443C46.9838 61.4284 51.2347 64.5991 47.6129 71.7923C43.9911 78.9851 38.9887 80.6506 38.9887 80.6506Z" fill="#A6D09E"/>
<path d="M38.835 79.4113L25.8398 29.9688" stroke="white"/>
<path fill-rule="evenodd" clip-rule="evenodd" d="M31.6695 82.5797C25.6529 83.1007 22.0848 82.3492 21.4984 78.5329C20.9121 74.7167 20.503 74.7307 16.6781 73.6343C12.8536 72.5381 14.2282 70.7515 13.4876 68.4754C12.7472 66.1989 10.0779 65.9836 7.42099 64.5915C4.764 63.1991 5.13652 57.4062 8.77249 57.4348C12.4083 57.4636 11.273 61.8504 14.6885 62.9608C18.1042 64.0711 22.4047 60.9567 23.5318 64.0894C24.6588 67.2222 22.4903 71.3377 26.3936 71.7152C30.2971 72.0927 32.9699 72.4101 33.2068 76.4942C33.4436 80.5782 31.6695 82.5797 31.6695 82.5797Z" fill="#A6D09E"/>
<path d="M31.2863 82.0732L13.0156 63.6094" stroke="white"/>
<path fill-rule="evenodd" clip-rule="evenodd" d="M100.645 83.6543H48.5182C45.5804 83.6543 43.1992 81.2767 43.1992 78.3438V10.5058C43.1992 7.57291 45.5804 5.19531 48.5182 5.19531H67.4794C69.2581 5.19531 70.9189 6.08267 71.9054 7.56008L73.0025 9.20326C73.989 10.6807 75.6498 11.568 77.4282 11.568H100.645C103.583 11.568 105.964 13.9456 105.964 16.8785V78.3438C105.964 81.2767 103.583 83.6543 100.645 83.6543Z" fill="url(#paint0_linear)"/>
<path fill-rule="evenodd" clip-rule="evenodd" d="M90.2411 24.3988H50.5887C48.9065 24.3988 47.543 23.0375 47.543 21.3579V21.244C47.543 19.5645 48.9065 18.2031 50.5887 18.2031H90.2411C91.923 18.2031 93.2869 19.5645 93.2869 21.244V21.3579C93.2869 23.0375 91.923 24.3988 90.2411 24.3988Z" fill="#F3F9FF"/>
<path fill-rule="evenodd" clip-rule="evenodd" d="M98.7835 24.3988H90.0071C88.2933 24.3988 86.9043 23.0121 86.9043 21.301C86.9043 19.5902 88.2933 18.2031 90.0071 18.2031H98.7835C100.497 18.2031 101.886 19.5902 101.886 21.301C101.886 23.0121 100.497 24.3988 98.7835 24.3988Z" fill="#E68639"/>
<path fill-rule="evenodd" clip-rule="evenodd" d="M96.3956 83.6528H52.7667C51.6195 83.6528 50.6895 82.7243 50.6895 81.5792V32.8666C50.6895 31.7215 51.6195 30.793 52.7667 30.793H96.3956C97.5425 30.793 98.4725 31.7215 98.4725 32.8666V81.5792C98.4725 82.7243 97.5425 83.6528 96.3956 83.6528Z" fill="#F3F9FF"/>
<path opacity="0.133371" fill-rule="evenodd" clip-rule="evenodd" d="M87.4355 44.5135H61.7266C60.0007 44.5135 58.6016 43.1166 58.6016 41.3935C58.6016 39.6704 60.0007 38.2734 61.7266 38.2734H87.4355C89.1611 38.2734 90.5605 39.6704 90.5605 41.3935C90.5605 43.1166 89.1611 44.5135 87.4355 44.5135Z" fill="#35427E"/>
<path opacity="0.133371" fill-rule="evenodd" clip-rule="evenodd" d="M87.4355 55.7557H61.7266C60.0007 55.7557 58.6016 54.3588 58.6016 52.6357C58.6016 50.9126 60.0007 49.5156 61.7266 49.5156H87.4355C89.1611 49.5156 90.5605 50.9126 90.5605 52.6357C90.5605 54.3588 89.1611 55.7557 87.4355 55.7557Z" fill="#35427E"/>
<path opacity="0.133371" fill-rule="evenodd" clip-rule="evenodd" d="M63.1734 68.2349H59.8663C59.1679 68.2349 58.6016 67.6694 58.6016 66.9716V63.8994C58.6016 63.2022 59.1679 62.6367 59.8663 62.6367H63.1734C63.8721 62.6367 64.4384 63.2022 64.4384 63.8994V66.9716C64.4384 67.6694 63.8721 68.2349 63.1734 68.2349Z" fill="#35427E"/>
<path fill-rule="evenodd" clip-rule="evenodd" d="M88.3777 66.996H79.0248C77.8192 66.996 76.8418 66.0201 76.8418 64.8165C76.8418 63.6126 77.8192 62.6367 79.0248 62.6367H88.3777C89.5832 62.6367 90.5606 63.6126 90.5606 64.8165C90.5606 66.0201 89.5832 66.996 88.3777 66.996Z" fill="#F78200"/>
<path fill-rule="evenodd" clip-rule="evenodd" d="M108.221 77.6982C108.221 79.5887 107.583 81.3519 106.519 82.7325C105.009 84.7505 102.583 86.0464 99.8597 86.0464C95.2428 86.0464 91.5195 82.3077 91.5195 77.6982C91.5195 74.5118 93.3067 71.7292 95.9449 70.3485C97.0937 69.7323 98.4342 69.3711 99.8597 69.3711C104.477 69.3711 108.221 73.0887 108.221 77.6982Z" fill="#F78200"/>
<path fill-rule="evenodd" clip-rule="evenodd" d="M108.223 77.6982C108.223 79.5887 107.584 81.3519 106.52 82.7325C105.35 83.3488 104.031 83.6883 102.627 83.6883C98.01 83.6883 94.2656 79.9499 94.2656 75.3404C94.2656 73.4707 94.8826 71.7292 95.9462 70.3485C97.095 69.7323 98.4356 69.3711 99.861 69.3711C104.478 69.3711 108.223 73.0887 108.223 77.6982Z" fill="#F78200"/>
<path fill-rule="evenodd" clip-rule="evenodd" d="M99.3153 81.422C98.964 81.422 98.6359 81.2487 98.4375 80.9594L96.262 77.7846C95.9305 77.2999 96.0542 76.6392 96.5395 76.3082C97.0276 75.9786 97.6875 76.101 98.0176 76.5852L99.3092 78.4688L102.933 73.1013C103.261 72.6139 103.924 72.4872 104.409 72.8142C104.896 73.1417 105.025 73.8012 104.697 74.2878L100.197 80.953C100.001 81.2455 99.6717 81.4209 99.3196 81.422H99.3153Z" fill="#CCE9F1"/>
<path fill-rule="evenodd" clip-rule="evenodd" d="M114.594 55.9809L112.576 55.5625C112.24 56.1592 111.761 57.1763 111.784 58.0674C112.864 58.4016 114.297 58.7371 115.72 59.0563L114.594 55.9809Z" fill="#EDB6A4"/>
<path fill-rule="evenodd" clip-rule="evenodd" d="M112.576 55.5633L111.398 55.3187L105.994 53.7461L104.832 54.4091L110.645 57.6546C110.942 57.7915 111.336 57.93 111.784 58.0682C111.761 57.1771 112.24 56.1601 112.576 55.5633Z" fill="#EDB6A4"/>
<mask id="mask0" mask-type="alpha" maskUnits="userSpaceOnUse" x="104" y="53" width="9" height="6">
<path fill-rule="evenodd" clip-rule="evenodd" d="M112.574 55.563C112.238 56.1601 111.759 57.1771 111.782 58.0682C111.334 57.9297 110.94 57.7912 110.643 57.6546L104.83 54.4089L105.992 53.7461L111.395 55.3184" fill="white"/>
</mask>
<g mask="url(#mask0)">
<path fill-rule="evenodd" clip-rule="evenodd" d="M112.574 55.563L111.395 55.3184L105.992 53.7461L104.83 54.4089L110.643 57.6546C110.94 57.7912 111.334 57.9297 111.782 58.0682C111.759 57.1771 112.238 56.1601 112.574 55.563Z" fill="url(#paint1_linear)"/>
</g>
<path fill-rule="evenodd" clip-rule="evenodd" d="M121.018 50.6621L120.734 50.2201L119.673 48.609L126.045 45.5296L129.6 43.8036L134.532 41.4155L135.567 42.9908L135.881 43.4568L131.362 45.6424L129.615 46.4964L128.599 46.9896L127.552 47.4974L121.018 50.6621ZM92.709 59.9495C92.9406 61.1817 93.4208 62.2691 94.1625 63.177C94.6362 63.7794 95.2128 64.3141 95.8849 64.7664L127.706 49.3017L129.848 48.2639L131.56 47.4361L132.878 46.7918L138.877 43.8771C139.122 43.7439 139.34 43.575 139.528 43.3822C140.232 42.6325 140.464 41.4901 139.847 40.5624L139.444 39.9464C138.701 38.5029 137.219 38.2661 135.888 38.9061L129.09 42.2229L128.173 42.6603L127.582 42.9552L127.571 42.951L125.567 43.934L92.709 59.9495Z" fill="#125191"/>
<path fill-rule="evenodd" clip-rule="evenodd" d="M86.9043 65.9613L87.1108 65.9319L91.451 65.3517L95.885 64.7659C95.2128 64.3138 94.6366 63.7788 94.1626 63.1765C93.4211 62.2685 92.9409 61.1812 92.7093 59.9492L86.9841 65.8859L86.9043 65.9613Z" fill="#2065AD"/>
<path fill-rule="evenodd" clip-rule="evenodd" d="M135.883 43.4601L121.022 50.6601C119.518 51.3592 118.618 49.1575 119.673 48.614L134.534 41.4138C135.803 40.8614 136.786 42.9139 135.883 43.4601Z" fill="#135191"/>
<path fill-rule="evenodd" clip-rule="evenodd" d="M108.017 82.3398L108.055 82.9545C108.055 82.9545 108.064 82.9687 108.054 83.0149L108.051 83.0264C108.051 83.1965 108.043 83.6312 107.931 83.9226C107.902 84.0015 107.864 84.0659 107.817 84.1164C107.561 84.4012 110.11 84.5233 110.11 84.5233C110.11 84.5233 110.019 84.3827 109.957 84.1629C109.906 84.0063 109.918 83.4996 109.956 82.7561L108.017 82.3398Z" fill="#EDB6A4"/>
<path fill-rule="evenodd" clip-rule="evenodd" d="M104.976 86.0452L110.219 85.8597C110.579 85.2993 110.528 84.7266 110.158 84.1449C109.297 84.2344 108.49 84.1804 107.778 83.8711C107.113 84.4593 106.108 84.937 104.952 85.3664C104.582 85.5365 104.659 85.7731 104.976 86.0452Z" fill="black"/>
<path fill-rule="evenodd" clip-rule="evenodd" d="M110.236 86.084L104.985 86.2698L104.977 86.0452L110.228 85.8594L110.236 86.084Z" fill="#393768"/>
<path fill-rule="evenodd" clip-rule="evenodd" d="M107.906 67.6103C107.107 67.7774 106.134 68.5624 106.032 69.3289C105.682 71.9573 107.87 82.8775 107.897 83.1539C108.615 83.2462 109.295 83.2536 109.891 83.0815L109.989 83.0622C110.573 80.286 110.73 76.9884 110.41 73.3451C111.022 74.529 120.422 76.6612 120.699 75.9738L120.889 75.4158L122.264 71.3982C122.208 71.3817 122.157 71.372 122.101 71.3557C121.735 71.268 121.332 71.2451 120.98 71.0785C119.038 70.1585 109.287 67.3219 107.906 67.6103Z" fill="#385575"/>
<path fill-rule="evenodd" clip-rule="evenodd" d="M130.897 83.6014C130.897 83.6014 131.809 83.5244 132.11 83.7704C132.41 84.0163 132.373 81.4102 132.373 81.4102C132.373 81.4102 131.033 82.1796 130.432 81.8713C129.831 81.5631 130.897 83.6014 130.897 83.6014Z" fill="#EDB6A4"/>
<path fill-rule="evenodd" clip-rule="evenodd" d="M134.196 86.4173L133.695 81.3552C133.129 81.0419 132.577 81.1258 132.034 81.5191C132.174 82.3466 132.171 83.1312 131.914 83.8392C132.526 84.4464 133.051 85.3899 133.538 86.482C133.726 86.8299 133.951 86.7403 134.196 86.4173Z" fill="black"/>
<path fill-rule="evenodd" clip-rule="evenodd" d="M133.911 81.3242L134.412 86.3944L134.195 86.4158L133.693 81.3456L133.911 81.3242Z" fill="#393768"/>
<path fill-rule="evenodd" clip-rule="evenodd" d="M126.267 71.4141C125.731 76.0177 122.867 79.1286 121 81.9287C125.717 81.4747 127.923 81.5918 131.133 81.8076C131.303 82.4939 131.431 83.1612 131.345 83.7857L120.117 86.1911C113.679 86.8729 116.453 75.6704 119.322 72.3562L126.267 71.4141Z" fill="#385575"/>
<path fill-rule="evenodd" clip-rule="evenodd" d="M116.868 70.5533C117.543 67.3142 117.427 66.4808 116.424 64.2443C116.305 63.9794 115.475 63.7451 115.165 63.4335C114.695 62.9623 114.709 62.3803 114.577 61.7707C114.581 61.7637 114.524 60.2946 114.522 60.2895C114.367 59.5639 115.092 60.2767 114.953 59.4417C114.924 59.258 114.892 59.0696 114.864 58.8741C114.723 57.9598 114.602 56.9631 114.507 55.8821C115.283 55.8116 116.027 55.7305 116.736 55.6795C117.589 55.6142 118.391 55.5798 119.148 55.6423C120.122 55.7142 121.023 55.9404 121.859 56.4366C126.464 61.4923 124.072 64.7504 126.464 71.3351C121.875 73.29 116.797 72.5898 116.868 70.5533Z" fill="#71BFC6"/>
<path fill-rule="evenodd" clip-rule="evenodd" d="M116.424 54.159L119.349 53.6211C119.276 54.6574 119.388 54.9579 120.1 55.7936C119.974 56.9804 116.498 57.3347 117.155 55.9714C117.078 55.0097 116.962 54.9491 116.424 54.159Z" fill="#E0A494"/>
<path fill-rule="evenodd" clip-rule="evenodd" d="M115.939 55.3593C116.289 55.6155 117.989 54.9142 119.666 53.9405L119.043 49.1211L114.853 49.628C114.043 52.0222 115.211 55.0754 115.939 55.3593Z" fill="#EDB6A4"/>
<path fill-rule="evenodd" clip-rule="evenodd" d="M121.473 61.3769C121 61.7244 116.946 62.2412 116.644 61.852C116.21 62.2161 108.742 57.6919 108.237 56.966C107.836 56.923 107.468 56.7901 107.125 56.5821C106.851 56.1003 106.79 55.8148 106.785 55.2886C106.857 54.7946 106.971 54.312 107.209 54.1462C107.284 54.1021 107.704 54.9347 108.167 55.0568C108.364 54.8587 108.345 54.7304 108.296 54.4593C108.474 54.2914 108.527 54.227 108.797 54.3836C108.95 54.7793 109.162 55.2036 109.158 55.6768L117.175 59.5212L119.961 58.6843C120.114 59.569 120.934 60.7408 121.473 61.3769Z" fill="#EDB6A4"/>
<path fill-rule="evenodd" clip-rule="evenodd" d="M114.555 51.904C115.506 51.7693 116.008 51.5479 116.727 50.9276C116.976 51.5353 117.37 52.4016 117.153 52.7459C117.153 52.7459 117.575 52.9574 117.924 52.7957C117.861 52.4 117.916 52.0479 118.19 51.842C118.367 51.7171 118.406 51.7142 118.663 51.8128C118.98 51.9484 118.932 52.3091 118.707 52.5633C118.158 53.1296 119.039 53.6723 119.33 54.1284C119.84 53.9172 120.252 53.4547 120.293 53.0681C120.437 52.4461 120.544 51.8735 120.452 51.3039C120.444 51.2548 121.052 52.5915 120.975 53.9927C120.961 54.2308 120.79 54.947 121.277 55.4097C121.543 55.6627 122.708 55.9039 122.708 55.9039C122.708 55.9039 122.381 55.2689 122.114 54.1418C122 53.6639 122.51 52.5973 122.469 51.6663C122.437 50.9378 121.882 50.3194 121.655 49.9514C121.568 49.8109 120.789 49.4775 120.293 49.7461C120.175 49.8099 119.978 50.0446 120.221 50.66C120.464 51.2754 119.742 49.9247 119.682 49.8277C119.171 48.7294 117.676 47.8629 116.476 48.5126C115.197 49.9983 114.693 49.2133 113.789 50.0446C113.284 50.5293 114.013 51.3535 114.555 51.904Z" fill="black"/>
<path fill-rule="evenodd" clip-rule="evenodd" d="M40.7249 38.6879C40.49 39.1135 40.1754 39.4806 39.7555 39.753C39.4888 41.0524 35.3711 47.9021 34.3082 48.6894C33.6889 49.2768 30.186 51.0991 29.5944 50.7088C29.7669 49.7909 29.6713 48.8627 29.3184 47.9173L32.5012 47.181L33.3806 45.9001L37.1285 40.4802L37.8301 39.4464L38.2157 38.8868C37.9648 38.4275 37.9364 37.9323 37.8631 37.4738C38.0486 37.173 38.1309 37.2086 38.397 37.2704C38.5047 37.562 38.5545 37.6995 38.86 37.7832C39.2451 37.4014 39.1846 36.3624 39.2805 36.3555C39.6082 36.3854 39.9941 36.7891 40.3323 37.2388C40.6263 37.754 40.723 38.0655 40.7249 38.6879Z" fill="#EDB6A4"/>
<path fill-rule="evenodd" clip-rule="evenodd" d="M28.9201 47.9753L31.103 47.3008C31.5186 47.9475 32.2416 49.2268 32.2749 50.2267C31.2594 50.9775 29.9283 52.0279 28.3047 52.4193L28.9201 47.9753Z" fill="#D0E4FF"/>
<path fill-rule="evenodd" clip-rule="evenodd" d="M28.1195 90.8147C28.1195 90.8147 28.0566 91.7774 28.3225 92.0889C28.5884 92.4001 25.834 92.4137 25.834 92.4137C25.834 92.4137 26.6194 90.9863 26.2817 90.3594C25.944 89.7327 28.1195 90.8147 28.1195 90.8147Z" fill="#EDB6A4"/>
<path fill-rule="evenodd" clip-rule="evenodd" d="M31.1597 94.23L25.8006 93.8055C25.4575 93.2157 25.5352 92.6315 25.9401 92.0522C26.8171 92.1826 27.6464 92.1636 28.3892 91.8789C29.0432 92.5107 30.0511 93.0448 31.2149 93.536C31.5863 93.7269 31.4961 93.9659 31.1597 94.23Z" fill="black"/>
<path fill-rule="evenodd" clip-rule="evenodd" d="M25.7734 94.0341L31.1414 94.4594L31.1594 94.2298L25.7916 93.8047L25.7734 94.0341Z" fill="#A8CFEF"/>
<path fill-rule="evenodd" clip-rule="evenodd" d="M20.2109 65.6088C20.3023 65.804 20.4303 65.9788 20.4785 66.189C20.8335 67.7356 24.8224 73.9883 25.9538 77.2185C26.9709 80.4813 26.7087 85.4999 26.1399 91.0774C26.8501 91.3288 27.5876 91.3948 28.3615 91.2087C29.4752 85.5766 31.1775 78.5472 30.6433 76.8228C29.954 72.748 28.8571 68.7345 27.2491 64.7987L27.063 64.1375L26.7732 63.1133L25.6437 63.5445L21.6315 65.0709L20.2109 65.6088Z" fill="#385575"/>
<path fill-rule="evenodd" clip-rule="evenodd" d="M15.5475 88.9881C15.5475 88.9881 15.1276 89.8568 15.2575 90.245C15.3871 90.6332 12.8281 89.6156 12.8281 89.6156C12.8281 89.6156 14.0923 88.5858 14.0144 87.8783C13.9365 87.1709 15.5475 88.9881 15.5475 88.9881Z" fill="#EDB6A4"/>
<path fill-rule="evenodd" clip-rule="evenodd" d="M17.0852 93.2924L12.276 90.8934C12.1794 90.2184 12.4707 89.7061 13.0633 89.3203C13.8276 89.7692 14.6034 90.062 15.3992 90.0761C15.7682 90.9065 16.5022 91.7789 17.3969 92.6698C17.6697 92.9858 17.4962 93.1732 17.0852 93.2924Z" fill="black"/>
<path fill-rule="evenodd" clip-rule="evenodd" d="M12.1641 91.0968L16.981 93.4995L17.0841 93.2936L12.2672 90.8906L12.1641 91.0968Z" fill="#A8CFEF"/>
<path fill-rule="evenodd" clip-rule="evenodd" d="M19.9673 63.3029C19.9785 63.5181 17.8357 65.1604 17.7677 65.3652C16.4716 69.262 18.5394 72.2596 18.6433 75.571C18.3614 78.9764 16.2343 83.5313 13.6133 88.4892C14.1772 88.9881 14.8363 89.3255 15.6238 89.4423C18.7703 84.6371 22.9873 78.7574 23.1392 76.9586C24.0298 72.9229 24.5196 68.7917 24.5062 64.541L24.5814 63.8584L24.6974 62.8005L23.4886 62.7775L19.1958 62.6914L19.9673 63.3029Z" fill="#385575"/>
<path fill-rule="evenodd" clip-rule="evenodd" d="M16.9453 67.2694C17.1071 68.6738 28.0061 67.1945 28.0961 66.1885C26.9304 61.5116 27.3203 59.6163 28.193 54.6199C28.189 54.6125 28.189 54.6125 28.1912 54.6068C28.3336 53.7858 28.4667 52.9174 28.5867 51.9747C28.6118 51.7678 28.6389 51.5547 28.6622 51.3341C28.7803 50.3021 28.8721 49.179 28.9319 47.9622C28.0578 47.8208 27.3289 47.8582 26.4224 47.832C25.4673 47.9304 24.5622 47.7919 23.7146 47.8949C22.6255 48.0181 21.6696 47.9681 20.2026 48.9207C17.3772 51.6191 19.3422 59.7783 16.9453 67.2694Z" fill="#D0E4FF"/>
<path fill-rule="evenodd" clip-rule="evenodd" d="M26.6916 45.875L23.6287 46.3824C23.8839 47.5481 23.9075 47.4802 22.9395 47.9465C23.1885 50.1019 28.4207 50.4808 26.7805 47.8609C25.643 47.7591 26.2827 47.0963 26.6916 45.875Z" fill="#E0A494"/>
<path fill-rule="evenodd" clip-rule="evenodd" d="M27.4723 46.4918C27.272 46.8977 25.3204 46.9202 23.2978 46.8271L21.5449 42.0655L25.6683 40.5156C27.5751 42.3417 28.0087 45.8783 27.4723 46.4918Z" fill="#EDB6A4"/>
<path fill-rule="evenodd" clip-rule="evenodd" d="M27.6088 39.0195C28.3099 39.2251 28.3498 41.7014 27.0465 42.4845C26.1009 42.8184 25.5287 42.8553 24.5644 42.6272C24.627 43.3103 24.6809 44.302 25.0491 44.5156C25.0491 44.5156 24.7604 44.9147 24.3592 44.9332C24.2262 44.5367 24.0047 44.2375 23.6515 44.1787C23.4282 44.1485 23.3904 44.1645 23.1997 44.3798C22.9719 44.6581 23.1906 44.9688 23.5219 45.0957C24.3041 45.3551 24.2725 46.6598 24.2237 47.2223C23.6504 47.272 22.6808 46.6477 22.2981 46.3269C21.495 45.3893 21.1863 45.1412 20.9043 43.0775C21.2714 39.0714 23.8309 40.6247 27.6088 39.0195Z" fill="black"/>
<path fill-rule="evenodd" clip-rule="evenodd" d="M42.6923 53.2442L34.4178 44.9829C33.5561 44.1225 33.5561 42.7274 34.4178 41.8671L44.8632 31.438C45.725 30.5779 47.1222 30.5779 47.9837 31.438L56.2585 39.6996C57.1202 40.56 57.1202 41.9548 56.2585 42.8151L45.8125 53.2442C44.9511 54.1045 43.554 54.1045 42.6923 53.2442Z" fill="#E68639"/>
<path fill-rule="evenodd" clip-rule="evenodd" d="M44.6893 38.1199L43.1383 36.5714C42.7977 36.2313 42.7977 35.6792 43.1383 35.3391L44.6893 33.7906C45.0302 33.45 45.5829 33.45 45.9238 33.7906L47.4748 35.3391C47.8159 35.6792 47.8159 36.2313 47.4748 36.5714L45.9238 38.1199C45.5829 38.4603 45.0302 38.4603 44.6893 38.1199Z" fill="white"/>
<path fill-rule="evenodd" clip-rule="evenodd" d="M51.6686 43.997L47.473 39.8078C47.0975 39.4332 47.0975 38.8255 47.473 38.4509L47.8069 38.1173C48.1823 37.7422 48.791 37.7422 49.1662 38.1173L53.3621 42.3065C53.7375 42.681 53.7375 43.2887 53.3621 43.6633L53.0279 43.997C52.6527 44.3718 52.0441 44.3718 51.6686 43.997Z" fill="white"/>
<path fill-rule="evenodd" clip-rule="evenodd" d="M40.8907 41.9129L39.3397 40.3644C38.9988 40.0243 38.9988 39.4722 39.3397 39.1321L40.8907 37.5836C41.2313 37.243 41.7842 37.243 42.1249 37.5836L43.6759 39.1321C44.017 39.4722 44.017 40.0243 43.6759 40.3644L42.1249 41.9129C41.7842 42.2532 41.2313 42.2532 40.8907 41.9129Z" fill="white"/>
<path fill-rule="evenodd" clip-rule="evenodd" d="M47.8717 47.7899L43.6761 43.6007C43.3007 43.2262 43.3007 42.6185 43.6761 42.2436L44.01 41.9102C44.3855 41.5351 44.9941 41.5351 45.3693 41.9102L49.5652 46.0992C49.9406 46.474 49.9406 47.0817 49.5652 47.4563L49.231 47.7899C48.8558 48.1645 48.2472 48.1645 47.8717 47.7899Z" fill="white"/>
<path fill-rule="evenodd" clip-rule="evenodd" d="M37.0918 45.702L35.5408 44.1535C35.1999 43.8131 35.1999 43.2613 35.5408 42.921L37.0918 41.3724C37.4324 41.0321 37.9854 41.0321 38.326 41.3724L39.877 42.921C40.2182 43.2613 40.2182 43.8131 39.877 44.1535L38.326 45.702C37.9854 46.0424 37.4324 46.0424 37.0918 45.702Z" fill="white"/>
<path fill-rule="evenodd" clip-rule="evenodd" d="M44.0732 51.5829L39.8773 47.3937C39.5018 47.0191 39.5018 46.4114 39.8773 46.0366L40.2115 45.7032C40.5866 45.3281 41.1953 45.3281 41.5705 45.7032L45.7664 49.8921C46.1421 50.267 46.1421 50.8747 45.7664 51.2492L45.4322 51.5829C45.057 51.9575 44.4483 51.9575 44.0732 51.5829Z" fill="white"/>
<path fill-rule="evenodd" clip-rule="evenodd" d="M40.4673 40.3504C40.4014 40.2849 40.3725 40.1911 40.3896 40.0999L40.5773 39.1003C40.6062 38.9479 40.753 38.8474 40.9059 38.876C41.0588 38.9056 41.1592 39.0516 41.1306 39.204L41.0192 39.7973L42.7019 39.47C42.8546 39.4401 43.0024 39.5403 43.0318 39.6919C43.0616 39.8441 42.9619 39.9914 42.8096 40.0213L40.7198 40.4274C40.6285 40.4453 40.5339 40.4167 40.4681 40.3512C40.4675 40.351 40.4673 40.3507 40.4673 40.3504Z" fill="#003974"/>
<path fill-rule="evenodd" clip-rule="evenodd" d="M39.0721 49.2438C38.6512 49.4871 38.1919 49.6397 37.6914 49.6571C36.7914 50.6327 29.7254 54.3807 28.4082 54.5077C27.5738 54.6922 23.6314 54.4495 23.3262 53.8105C23.948 53.1132 24.3459 52.2684 24.532 51.2767L27.6394 52.2849L29.0543 51.6403L35.065 48.9269L36.2001 48.4027L36.8198 48.1219C36.842 47.5995 37.0734 47.1602 37.2477 46.7298C37.5618 46.5675 37.614 46.6405 37.8101 46.8303C37.7517 47.1356 37.7233 47.279 37.9418 47.5083C38.4691 47.3789 38.954 46.4582 39.0397 46.5015C39.3048 46.6961 39.4267 47.2407 39.4842 47.8003C39.4701 48.3925 39.3921 48.7093 39.0721 49.2438Z" fill="#EDB6A4"/>
</g>
<defs>
<filter id="filter0_d" x="0.693359" y="0.195312" width="144.51" height="99.2641" filterUnits="userSpaceOnUse" color-interpolation-filters="sRGB">
<feFlood flood-opacity="0" result="BackgroundImageFix"/>
<feColorMatrix in="SourceAlpha" type="matrix" values="0 0 0 0 0 0 0 0 0 0 0 0 0 0 0 0 0 0 127 0"/>
<feOffset/>
<feGaussianBlur stdDeviation="2.5"/>
<feColorMatrix type="matrix" values="0 0 0 0 0 0 0 0 0 0 0 0 0 0 0 0 0 0 0.111861 0"/>
<feBlend mode="normal" in2="BackgroundImageFix" result="effect1_dropShadow"/>
<feBlend mode="normal" in="SourceGraphic" in2="effect1_dropShadow" result="shape"/>
</filter>
<linearGradient id="paint0_linear" x1="41.1827" y1="8.84604" x2="50.271" y2="91.9917" gradientUnits="userSpaceOnUse">
<stop stop-color="#CFEAFB"/>
<stop offset="1" stop-color="#7CAADB"/>
</linearGradient>
<linearGradient id="paint1_linear" x1="104.846" y1="49.2692" x2="103.859" y2="56.4344" gradientUnits="userSpaceOnUse">
<stop stop-color="white"/>
<stop offset="1" stop-color="#1C1C1A"/>
</linearGradient>
</defs>
</svg>
