<?xml version="1.0" encoding="UTF-8"?>
<svg width="23px" height="20px" viewBox="0 0 23 20" version="1.1" xmlns="http://www.w3.org/2000/svg" xmlns:xlink="http://www.w3.org/1999/xlink">
    <!-- Generator: Sketch 53.2 (72643) - https://sketchapp.com -->
    <title>Group 10</title>
    <desc>Created with Sketch.</desc>
    <g id="Page-1" stroke="none" stroke-width="1" fill="none" fill-rule="evenodd">
        <g id="trnsact-menu" transform="translate(-114.000000, -288.000000)">
            <g id="Group-10" transform="translate(115.000000, 288.000000)">
                <path d="M4.6912137,7.12820784 L2.84217094e-14,11.8803464 L4.6912137,16.632485 L4.6912137,13.068381 L12.9008377,13.068381 L12.9008377,10.6923118 L4.6912137,10.6923118 L4.6912137,7.12820784 Z M21.1104617,4.75213856 L16.419248,1.29674049e-13 L16.419248,3.56410392 L8.20962398,3.56410392 L8.20962398,5.9401732 L16.419248,5.9401732 L16.419248,9.50427712 L21.1104617,4.75213856 Z" id="Shape" stroke="#F78200" fill-rule="nonzero"></path>
                <circle id="Oval-Copy" fill="#FFFFFF" cx="14.2352941" cy="13.0490195" r="6.117647"></circle>
                <path d="M20.145346,12.3106797 C20.1083198,12.2348909 20.0292699,12.1864036 19.9418154,12.1864036 L19.2769333,12.1864036 C18.8541982,9.9806663 16.8397895,8.30392157 14.4253612,8.30392157 C11.7042739,8.30392157 9.49019608,10.432778 9.49019608,13.0491288 C9.49019608,15.6654796 11.7040467,17.7941176 14.4253612,17.7941176 C16.1814949,17.7941176 17.8192809,16.8853076 18.6995058,15.4228245 C18.8235323,15.2164257 18.7503885,14.952803 18.5355,14.833332 C18.3210659,14.7138609 18.0466629,14.7841894 17.9228635,14.9905882 C17.2023285,16.1877014 15.8621152,16.9316108 14.4253612,16.9316108 C12.199017,16.9316108 10.3874575,15.1899979 10.3874575,13.0495656 C10.3874575,10.9086966 12.199017,9.16708363 14.4253612,9.16708363 C16.3430019,9.16708363 17.9496678,10.4602979 18.3590007,12.186622 L17.6993432,12.186622 C17.6118886,12.186622 17.5330659,12.2351093 17.4958125,12.3108981 C17.4587863,12.3866869 17.4708255,12.4760172 17.5267056,12.5404485 L18.6483959,13.8345364 C18.6911011,13.883679 18.7540229,13.9120725 18.8208064,13.9120725 C18.8873628,13.9120725 18.9505118,13.8834606 18.9929898,13.8345364 L20.1146802,12.5404485 C20.1705602,12.4757987 20.1823723,12.3864685 20.145346,12.3106797 Z" id="Path" fill="#F78200" fill-rule="nonzero"></path>
                <path d="M13.8829956,9.49019608 C13.6197236,9.49019608 13.4064034,9.70737428 13.4064034,9.97540756 L13.4064034,12.9195971 C13.1909113,13.0733907 13.0490196,13.3269291 13.0490196,13.6148622 C13.0490196,14.083122 13.4232953,14.4641665 13.8832369,14.4641665 C14.009202,14.4641665 14.1279277,14.4334569 14.2350705,14.3821105 L15.8928873,15.3562186 C15.9681767,15.4006861 16.0497404,15.4215686 16.1308214,15.4215686 C16.2953965,15.4215686 16.455628,15.3345991 16.5439483,15.17884 C16.6754636,14.9471669 16.5975197,14.6501438 16.3692381,14.51625 L14.7097321,13.5406678 C14.6875314,13.2841813 14.5564987,13.0601242 14.3600703,12.9200885 L14.3600703,9.97540756 C14.3595877,9.70761996 14.1460262,9.49019608 13.8829956,9.49019608 Z M13.8829956,13.9784637 C13.6858433,13.9784637 13.5256118,13.8150887 13.5256118,13.6148622 C13.5256118,13.41439 13.6860846,13.251015 13.8829956,13.251015 C14.0799065,13.251015 14.2403793,13.41439 14.2403793,13.6148622 C14.2403793,13.8150887 14.0799065,13.9784637 13.8829956,13.9784637 Z" id="Shape" fill="#F78200" fill-rule="nonzero"></path>
            </g>
        </g>
    </g>
</svg>