<?xml version="1.0" encoding="UTF-8"?>
<svg width="48px" height="46px" viewBox="0 0 48 46" version="1.1" xmlns="http://www.w3.org/2000/svg" xmlns:xlink="http://www.w3.org/1999/xlink">
    <!-- Generator: Sketch 53.2 (72643) - https://sketchapp.com -->
    <title>checked (2)</title>
    <desc>Created with Sketch.</desc>
    <g id="Page-1" stroke="none" stroke-width="1" fill="none" fill-rule="evenodd">
        <g id="08.1g-Add-Purchase---Existing-scheme---success" transform="translate(-346.000000, -244.000000)" fill="#00DD80" fill-rule="nonzero">
            <g id="checked-(2)" transform="translate(346.000000, 244.000000)">
                <path d="M44.7898821,18.3727927 C44.2300285,17.9198049 43.2983415,17.1641707 43.1816585,16.8060813 C43.0630122,16.4341545 43.3695854,15.2374065 43.5535854,14.525248 C43.9946992,12.8062317 44.5446423,10.6677927 43.3122724,8.98439837 C42.0857927,7.31287805 39.8801301,7.16646341 38.1077276,7.04772358 C37.3737846,6.99630081 36.143378,6.91514634 35.8327846,6.68963415 C35.5182642,6.46215854 35.0454553,5.2970122 34.7626301,4.59869106 C34.0643089,2.86780081 33.269126,0.905414634 31.3285244,0.280300813 C29.3978333,-0.350703252 27.6332846,0.766947154 26.0804106,1.75005691 C25.3959268,2.18126016 24.3653211,2.83414228 23.9341179,2.83414228 C23.5206789,2.83414228 22.5019472,2.17144309 21.8254106,1.73229268 C20.3319065,0.760963415 18.4645122,-0.441768293 16.4962358,0.226914634 C14.559561,0.885686992 13.7723252,2.83610569 13.0740041,4.55315854 C12.7931423,5.24549593 12.3262236,6.40073171 12.005813,6.63615447 C11.6932561,6.86755691 10.441065,6.9506748 9.69328455,7.00013415 C7.82392683,7.12672764 5.70530894,7.26921545 4.51445122,8.95457317 C3.34537805,10.6102927 3.86951626,12.6517764 4.33241463,14.4539106 C4.51445122,15.1699959 4.8229878,16.3688008 4.71219512,16.7267967 C4.59354878,17.0689919 3.67167886,17.8266829 3.12173577,18.2796707 C1.73089024,19.4272398 0,20.8534268 0,22.9899024 C0,25.1124472 1.6973252,26.5229268 3.06021545,27.6544146 C3.65167073,28.1449878 4.54380894,28.8867846 4.6645122,29.2547846 C4.78315854,29.6187642 4.47462195,30.8016748 4.28865854,31.5079431 C3.83763415,33.2427602 3.27385366,35.4029837 4.55371951,37.1002154 C5.80198374,38.7500447 7.99773577,38.8963659 9.76424797,39.0151057 C10.4981911,39.0665285 11.7266341,39.145626 12.0391911,39.3731951 C12.351748,39.6007642 12.8225935,40.7638537 13.1054187,41.4621748 C13.8057033,43.193065 14.5989228,45.1554512 16.5414878,45.7825285 C16.9311789,45.9110854 17.3169431,45.9665285 17.6927967,45.9665285 C19.1804106,45.9665285 20.5532114,45.0961748 21.791565,44.3166992 C22.4739919,43.8854959 23.5027276,43.2326138 23.9339309,43.2326138 C24.3553171,43.2326138 25.368065,43.8775488 26.036748,44.3048252 C27.5203415,45.2483862 29.371935,46.4313902 31.3362846,45.7587805 C33.2709024,45.1000081 34.0582317,43.1515528 34.7565528,41.4305732 C35.0374146,40.7401992 35.5043333,39.583 35.8247439,39.3475772 C36.1392642,39.1161748 37.3835081,39.0330569 38.1273618,38.9835976 C39.9828821,38.8570041 42.0876626,38.7165732 43.296378,37.0568333 C44.5129472,35.3892398 43.9906789,33.3259715 43.5298374,31.5080366 C43.3498577,30.7978415 43.0491748,29.6129675 43.1579106,29.2568415 C43.2765569,28.9146463 44.1984268,28.1569553 44.7464065,27.7039675 C46.1390285,26.5565854 47.8699187,25.1283415 47.8699187,22.9918659 C47.8699187,20.873248 46.160813,19.4865163 44.7898821,18.3727927 Z M42.2321138,24.6535691 C41.0749146,25.6050772 39.8780732,26.5922073 39.4072276,28.0066138 C38.926565,29.4467317 39.3182195,30.9896951 39.6960366,32.4812358 C39.8800366,33.2091951 40.1885732,34.4257642 40.147061,34.6769878 C39.846378,34.9025 38.606061,34.9875813 37.8642642,35.0350772 C36.3945081,35.1339959 34.728878,35.2447886 33.488561,36.1546911 C32.2601179,37.0547764 31.6646423,38.5245325 31.0889878,39.9449228 C30.808126,40.6452073 30.3333537,41.8182073 30.1374797,41.9963171 C29.7774268,41.9963171 28.7705691,41.3494187 28.1672398,40.9657114 C26.9229959,40.1744553 25.5125163,39.2743699 23.9358943,39.2743699 C22.3573089,39.2743699 20.9349553,40.1764187 19.676874,40.9716951 C19.067561,41.3554959 18.0468659,42.0042642 17.8293008,42.0517602 C17.5227276,41.8321382 17.0558089,40.6729756 16.7749472,39.9806382 C16.1934024,38.5424837 15.5920366,37.0569268 14.3517195,36.1646951 C13.1193496,35.2764837 11.5486179,35.1716748 10.027439,35.0707927 C9.31331707,35.0232967 7.98202846,34.9342886 7.74062195,34.7701098 C7.61795528,34.4199675 7.92854878,33.2232195 8.11647561,32.511061 C8.4824187,31.1005813 8.89987805,29.5022683 8.42903252,28.0423293 C7.95622358,26.5844472 6.70010569,25.5379472 5.59030894,24.6160772 C5.04831301,24.1650528 4.03743496,23.3243374 3.95235366,23.0197276 C4.04136179,22.6478008 5.07991463,21.7912846 5.63771138,21.3343699 C6.79491057,20.3808984 7.99175203,19.3937683 8.46259756,17.9793618 C8.94728049,16.5293333 8.54767886,14.9744959 8.16387805,13.4710813 C7.97791463,12.7450854 7.66535772,11.5304797 7.68910569,11.2990772 C7.99175203,11.0815122 9.22215854,10.9983943 9.95806504,10.948935 C11.5029919,10.8460894 13.1033618,10.7372602 14.3436789,9.82932114 C15.572122,8.92923577 16.1675976,7.46144309 16.743252,6.04114634 C17.0241138,5.33889837 17.5009431,4.16776829 17.6828862,3.99171545 C18.0488293,3.99760569 19.0655976,4.65834146 19.6729472,5.05205285 C20.9271016,5.86705691 22.3514187,6.79089024 23.9358943,6.79089024 C25.5125163,6.79089024 26.9387967,5.88884146 28.1929512,5.09562195 C28.8022642,4.70985772 29.8229593,4.06305285 30.0406179,4.01555691 C30.3452276,4.23517886 30.8141098,5.39434146 31.0949715,6.08667886 C31.6765163,7.52286992 32.2778821,9.00842683 33.5181992,9.90056504 C34.7505691,10.7907398 36.3232642,10.8955488 37.8465,10.9964309 C38.5982073,11.0478537 39.8583455,11.132935 40.0936748,11.2753293 C40.214378,11.6235081 39.9077114,12.8262398 39.721748,13.5423252 C39.3597317,14.9586951 38.9482561,16.5629919 39.421065,18.0268577 C39.8978008,19.5006341 41.1737398,20.5351667 42.2993374,21.447126 C42.8136585,21.8664553 43.7612398,22.6320935 43.907561,23 C43.7672236,23.3855772 42.7721463,24.2064715 42.2321138,24.6535691 Z" id="Shape"></path>
                <path d="M32.7804228,15.5380894 C31.9377439,14.833878 30.6934065,14.9485976 29.9951789,15.7853862 L21.1744919,26.3310732 L17.4218455,22.5804837 C16.6483537,21.8069919 15.398126,21.8069919 14.6247276,22.5804837 C13.8512358,23.3539756 13.8512358,24.6042033 14.6247276,25.3776016 L19.9065,30.659374 C20.2763699,31.0332642 20.780874,31.2389553 21.3051057,31.2389553 C21.3327805,31.2389553 21.3625122,31.2389553 21.390187,31.2350285 C21.9479837,31.2112805 22.4643618,30.9541667 22.8203943,30.5288537 L33.027626,18.3233333 C33.7279106,17.4846748 33.6191748,16.238374 32.7804228,15.5380894 Z" id="Path"></path>
            </g>
        </g>
    </g>
</svg>