<svg width="18" height="16" viewBox="0 0 18 16" fill="none" xmlns="http://www.w3.org/2000/svg">
<path fill-rule="evenodd" clip-rule="evenodd" d="M6.65026 3.8H11.5503H15.7503C16.3103 3.8 16.8003 4.29 16.8003 4.85V5.97434L9.10026 8.7L1.40026 5.97434V4.85C1.40026 4.29 1.89026 3.8 2.45026 3.8H6.65026ZM0.70026 6.34284V13.25C0.70026 14.23 1.47026 15 2.45026 15H15.7503C16.7303 15 17.5003 14.23 17.5003 13.25V4.85C17.5003 3.87 16.7303 3.1 15.7503 3.1H11.9003V2.05C11.9003 1.49 11.4103 1 10.8503 1H7.35026C6.79026 1 6.30026 1.49 6.30026 2.05V3.1H2.45026C1.47026 3.1 0.70026 3.87 0.70026 4.85V6.11C0.673522 6.19021 0.677423 6.27043 0.70026 6.34284ZM1.40026 6.77044L8.96026 9.4H9.10026C9.13526 9.4 9.15276 9.4 9.16151 9.39125C9.17026 9.3825 9.17026 9.365 9.17026 9.33L16.8003 6.67609V13.25C16.8003 13.81 16.3103 14.3 15.7503 14.3H2.45026C1.89026 14.3 1.40026 13.81 1.40026 13.25V6.77044ZM11.2003 3.1V2.05C11.2003 1.84 11.0603 1.7 10.8503 1.7H7.35026C7.14026 1.7 7.00026 1.84 7.00026 2.05V3.1H11.2003Z" fill="#AAB2BA"/>
<path d="M16.8003 5.97434L16.8837 6.21001L17.0503 6.15104V5.97434H16.8003ZM9.10026 8.7L9.01684 8.93567L9.10026 8.9652L9.18368 8.93567L9.10026 8.7ZM1.40026 5.97434H1.15026V6.15104L1.31684 6.21001L1.40026 5.97434ZM0.70026 6.34284H0.95026V6.30435L0.938684 6.26764L0.70026 6.34284ZM11.9003 3.1H11.6503V3.35H11.9003V3.1ZM6.30026 3.1V3.35H6.55026V3.1H6.30026ZM0.70026 6.11L0.937431 6.18906L0.95026 6.15057V6.11H0.70026ZM8.96026 9.4L8.87813 9.63612L8.91802 9.65H8.96026V9.4ZM1.40026 6.77044L1.48239 6.53431L1.15026 6.41879V6.77044H1.40026ZM9.17026 9.33L9.08813 9.09388L8.92026 9.15227V9.33H9.17026ZM16.8003 6.67609H17.0503V6.32444L16.7181 6.43996L16.8003 6.67609ZM11.2003 3.1V3.35H11.4503V3.1H11.2003ZM7.00026 3.1H6.75026V3.35H7.00026V3.1ZM11.5503 3.55H6.65026V4.05H11.5503V3.55ZM15.7503 3.55H11.5503V4.05H15.7503V3.55ZM17.0503 4.85C17.0503 4.15193 16.4483 3.55 15.7503 3.55V4.05C16.1722 4.05 16.5503 4.42807 16.5503 4.85H17.0503ZM17.0503 5.97434V4.85H16.5503V5.97434H17.0503ZM9.18368 8.93567L16.8837 6.21001L16.7168 5.73867L9.01684 8.46433L9.18368 8.93567ZM1.31684 6.21001L9.01684 8.93567L9.18368 8.46433L1.48368 5.73867L1.31684 6.21001ZM1.15026 4.85V5.97434H1.65026V4.85H1.15026ZM2.45026 3.55C1.75219 3.55 1.15026 4.15193 1.15026 4.85H1.65026C1.65026 4.42807 2.02833 4.05 2.45026 4.05V3.55ZM6.65026 3.55H2.45026V4.05H6.65026V3.55ZM0.95026 13.25V6.34284H0.45026V13.25H0.95026ZM2.45026 14.75C1.60833 14.75 0.95026 14.0919 0.95026 13.25H0.45026C0.45026 14.3681 1.33219 15.25 2.45026 15.25V14.75ZM15.7503 14.75H2.45026V15.25H15.7503V14.75ZM17.2503 13.25C17.2503 14.0919 16.5922 14.75 15.7503 14.75V15.25C16.8683 15.25 17.7503 14.3681 17.7503 13.25H17.2503ZM17.2503 4.85V13.25H17.7503V4.85H17.2503ZM15.7503 3.35C16.5922 3.35 17.2503 4.00807 17.2503 4.85H17.7503C17.7503 3.73193 16.8683 2.85 15.7503 2.85V3.35ZM11.9003 3.35H15.7503V2.85H11.9003V3.35ZM11.6503 2.05V3.1H12.1503V2.05H11.6503ZM10.8503 1.25C11.2722 1.25 11.6503 1.62807 11.6503 2.05H12.1503C12.1503 1.35193 11.5483 0.75 10.8503 0.75V1.25ZM7.35026 1.25H10.8503V0.75H7.35026V1.25ZM6.55026 2.05C6.55026 1.62807 6.92833 1.25 7.35026 1.25V0.75C6.65219 0.75 6.05026 1.35193 6.05026 2.05H6.55026ZM6.55026 3.1V2.05H6.05026V3.1H6.55026ZM2.45026 3.35H6.30026V2.85H2.45026V3.35ZM0.95026 4.85C0.95026 4.00807 1.60833 3.35 2.45026 3.35V2.85C1.33219 2.85 0.45026 3.73193 0.45026 4.85H0.95026ZM0.95026 6.11V4.85H0.45026V6.11H0.95026ZM0.938684 6.26764C0.929461 6.2384 0.929568 6.21265 0.937431 6.18906L0.463089 6.03094C0.417476 6.16778 0.425385 6.30245 0.461836 6.41803L0.938684 6.26764ZM9.04239 9.16388L1.48239 6.53431L1.31813 7.00656L8.87813 9.63612L9.04239 9.16388ZM9.10026 9.15H8.96026V9.65H9.10026V9.15ZM8.98473 9.21447C9.04231 9.15689 9.10771 9.15104 9.11312 9.15043C9.1192 9.14976 9.12212 9.14984 9.11826 9.14991C9.11464 9.14999 9.10977 9.15 9.10026 9.15V9.65C9.11165 9.65 9.14139 9.65037 9.16834 9.64738C9.19344 9.64459 9.27195 9.63436 9.33829 9.56803L8.98473 9.21447ZM8.92026 9.33C8.92026 9.33951 8.92025 9.34438 8.92017 9.348C8.9201 9.35186 8.92002 9.34894 8.92069 9.34286C8.9213 9.33745 8.92715 9.27205 8.98473 9.21447L9.33829 9.56803C9.40462 9.50169 9.41485 9.42318 9.41764 9.39808C9.42063 9.37113 9.42026 9.34139 9.42026 9.33H8.92026ZM16.7181 6.43996L9.08813 9.09388L9.25239 9.56612L16.8824 6.91221L16.7181 6.43996ZM17.0503 13.25V6.67609H16.5503V13.25H17.0503ZM15.7503 14.55C16.4483 14.55 17.0503 13.9481 17.0503 13.25H16.5503C16.5503 13.6719 16.1722 14.05 15.7503 14.05V14.55ZM2.45026 14.55H15.7503V14.05H2.45026V14.55ZM1.15026 13.25C1.15026 13.9481 1.75219 14.55 2.45026 14.55V14.05C2.02833 14.05 1.65026 13.6719 1.65026 13.25H1.15026ZM1.15026 6.77044V13.25H1.65026V6.77044H1.15026ZM10.9503 2.05V3.1H11.4503V2.05H10.9503ZM10.8503 1.95C10.8984 1.95 10.9192 1.96497 10.9272 1.97303C10.9353 1.98108 10.9503 2.00181 10.9503 2.05H11.4503C11.4503 1.88819 11.3952 1.73392 11.2808 1.61947C11.1663 1.50503 11.0121 1.45 10.8503 1.45V1.95ZM7.35026 1.95H10.8503V1.45H7.35026V1.95ZM7.25026 2.05C7.25026 2.00181 7.26523 1.98108 7.27329 1.97303C7.28134 1.96497 7.30207 1.95 7.35026 1.95V1.45C7.18845 1.45 7.03418 1.50503 6.91973 1.61947C6.80529 1.73392 6.75026 1.88819 6.75026 2.05H7.25026ZM7.25026 3.1V2.05H6.75026V3.1H7.25026ZM11.2003 2.85H7.00026V3.35H11.2003V2.85Z" fill="#AAB2BA"/>
</svg>
