<?xml version="1.0" encoding="UTF-8"?>
<svg width="23px" height="19px" viewBox="0 0 23 19" version="1.1" xmlns="http://www.w3.org/2000/svg" xmlns:xlink="http://www.w3.org/1999/xlink">
    <!-- Generator: Sketch 53.2 (72643) - https://sketchapp.com -->
    <title>Combined-Shape</title>
    <desc>Created with Sketch.</desc>
    <g id="Page-1" stroke="none" stroke-width="1" fill="none" fill-rule="evenodd">
        <g id="trnsact-menu" transform="translate(-115.000000, -202.000000)" fill="#F78200" fill-rule="nonzero" stroke="#F78200" stroke-width="0.3">
            <g id="swap-horizontal-orientation-arrows" transform="translate(115.000000, 202.000000)">
                <path d="M7.11904762,11.3826531 L7.11904762,11.9302721 L5.13192704,11.9302721 L5.13192704,8.78134305 L0.94167698,12.829932 L5.13192704,16.8785209 L5.13192704,13.7295919 L13.6336327,13.7295919 L13.6336327,11.9302721 L9.30952381,11.9302721 L9.30952381,11.3826531 L14.1812517,11.3826531 L14.1812517,14.2772109 L5.67954607,14.2772109 L5.67954607,18.1690982 L0.153561115,12.829932 L5.67954607,7.49076579 L5.67954607,11.3826531 L7.11904762,11.3826531 Z M11.5,4.34183674 L11.5,4.88945578 L9.32313422,4.88945578 L9.32313422,6.6887755 L17.8248399,6.6887755 L17.8248399,9.83770457 L22.0150899,5.78911566 L17.8248399,1.74052674 L17.8248399,4.88945578 L13.6904762,4.88945578 L13.6904762,4.34183674 L17.2772208,4.34183674 L17.2772208,0.449949452 L22.8032058,5.78911566 L17.2772208,11.1282818 L17.2772208,7.23639455 L8.77551518,7.23639455 L8.77551518,4.34183674 L11.5,4.34183674 Z" id="Combined-Shape"></path>
            </g>
        </g>
    </g>
</svg>