<?xml version="1.0" encoding="UTF-8"?>
<svg width="22px" height="21px" viewBox="0 0 22 21" version="1.1" xmlns="http://www.w3.org/2000/svg" xmlns:xlink="http://www.w3.org/1999/xlink">
    <!-- Generator: Sketch 53.2 (72643) - https://sketchapp.com -->
    <title>Group</title>
    <desc>Created with Sketch.</desc>
    <g id="Page-1" stroke="none" stroke-width="1" fill="none" fill-rule="evenodd">
        <g id="trnsact-menu" transform="translate(-119.000000, -329.000000)" fill="#F78200" fill-rule="nonzero">
            <g id="Group" transform="translate(119.000000, 329.000000)">
                <g id="payment-method-copy" transform="translate(0.000000, 0.916667)" stroke="#F78200" stroke-width="0.2">
                    <path d="M11.3923048,19.6910067 L11.3923048,19.1053585 L12.417444,19.1053585 C12.5099048,19.1053585 12.5858206,19.0302892 12.5858206,18.9421245 L12.5858206,17.7629472 C12.5858206,17.6747824 12.5099048,17.5997131 12.417444,17.5997131 C12.2481422,17.5997131 12.112155,17.4652422 12.1138776,17.2628478 C12.2463597,16.0468541 12.2490661,15.4869546 12.417444,14.2466536 C12.6734591,12.3608013 13.054198,11.4052435 13.2299583,11.1548335 C13.2772633,10.980458 13.3120115,10.7301511 13.2982922,10.4798522 C13.2774184,10.0990251 13.1492272,9.7951634 12.8881085,9.59339508 C12.7887023,9.51601404 11.3202225,7.99103903 11.228402,7.897341 C11.1573403,7.8248948 11.1573403,7.8248948 11.0861788,7.75264503 C10.6319916,7.2920265 10.2620184,6.93155737 9.96525038,6.66509841 C9.95767157,6.66039062 9.95767157,6.66039062 9.90619075,6.58490655 C9.87089532,6.46849463 9.87089532,6.46849463 9.87416511,6.4486657 L9.87416511,2.40577202 C9.87416511,1.56572769 9.17916,0.878472222 8.32634127,0.878472222 L3.73460969,0.878472222 L3.73460969,0.292824074 L8.32634127,0.292824074 C9.50114367,0.292824074 10.4598133,1.24080405 10.4598133,2.40577202 L10.4598133,6.3232943 C10.7415156,6.58111928 11.0882408,6.92062004 11.5031956,7.34145087 C11.5750268,7.41438046 11.5750268,7.41438046 11.6466876,7.48743737 C11.819712,7.66399992 13.1813285,9.07799385 13.2466335,9.13030968 C13.6586827,9.44891732 13.853652,9.91122516 13.8830626,10.4477999 C13.9015574,10.785225 13.8528004,11.1123023 13.787315,11.3357554 C13.7730728,11.3920889 13.7560025,11.4234373 13.7262927,11.467498 L13.7133265,11.485439 C13.5287465,11.7215005 13.0714685,13.9176016 12.7216486,17.0779608 C12.9858766,17.194416 13.1714688,17.4575595 13.1714688,17.7629472 L13.1714688,18.9421245 C13.1714688,19.3552128 12.8318885,19.6910067 12.417444,19.6910067 L11.3923048,19.6910067 Z M9.09763879,19.7360562 L7.57498102,19.7360562 C7.1605365,19.7360562 6.82095621,19.4002624 6.82095621,18.9871741 L6.82095621,17.7997795 C6.82095621,17.4559753 7.05617869,17.165712 7.37401304,17.0780161 C7.12664768,16.8070875 6.90095435,16.5043474 6.69566165,16.1753228 C6.40448858,15.7086568 5.76491988,15.1112863 5.71353792,14.917369 C5.70338474,14.8903708 5.69843893,14.8651028 5.69588366,14.8332294 L5.69625839,14.839656 L5.30644155,11.4916038 C4.79750611,9.75587537 4.84286069,8.73281441 5.28771264,8.24122223 C5.44354584,8.06901579 5.61421379,7.9966291 5.7432142,7.98593434 C5.78852582,7.98095586 5.8206276,7.98007411 5.88737893,7.98007411 C6.63802132,7.98007411 7.15458641,8.54640155 7.49438743,9.4559027 C7.68899181,9.97677483 7.79310401,10.4974619 7.84968986,10.9934621 C7.84899862,10.9795821 7.8441132,10.9622622 7.8401507,10.9542236 C7.92546365,11.1285149 8.06024068,11.3725109 8.2068239,11.5999041 C8.37098763,11.8545697 8.52858508,12.0526322 8.65604103,12.1638603 C8.74031364,12.1036509 8.79387514,12.0076011 8.79387514,11.9049286 L8.79387514,2.23731812 C8.79387514,1.99302539 8.58915551,1.79058847 8.33880615,1.79058847 L4.43096424,1.79058847 L4.43096424,4.09953704 L3.84531609,4.09953704 L3.84531609,1.62513198 C3.84531609,1.39282342 4.03531779,1.20494032 4.26694397,1.20494032 L8.33880615,1.20494032 C8.91113918,1.20494032 9.37952329,1.66810175 9.37952329,2.23731812 L9.37952329,11.9049286 C9.37952329,12.312557 9.10021849,12.6679103 8.70926808,12.7783649 L8.62965349,12.7893957 L8.54781337,12.7893957 L8.48300608,12.7546582 C8.22882939,12.6184165 7.97840209,12.3264694 7.7145854,11.9172132 C7.55247372,11.6657308 7.40565454,11.3993765 7.33149461,11.2427847 C7.29018311,11.1815084 7.26900432,11.1082091 7.27083552,11.0707045 C7.22219709,10.6378398 7.12574617,10.142567 6.94577814,9.66087001 C6.6820941,8.95510121 6.3269293,8.56572226 5.88737893,8.56572226 C5.84194628,8.56572226 5.82418853,8.56621005 5.79961079,8.5688112 C5.80099616,8.5686953 5.76889414,8.58231098 5.72195738,8.63417932 C5.44752441,8.93744673 5.41090463,9.76754019 5.8692,11.3294481 L5.88104579,11.4118928 C5.87468829,11.3517991 5.87399137,11.3452114 5.86959256,11.3333556 C5.87705062,11.353853 5.87744441,11.3566982 5.88321626,11.3984027 L6.27458735,14.5781699 C6.49980891,14.9836404 6.8057885,15.4126863 7.19252613,15.8653076 C7.40709617,16.1164312 7.62336967,16.491707 7.8819957,16.764701 C7.94653711,16.8412871 7.98414398,16.9359464 7.98414398,17.0396826 L7.98414398,17.3313955 C7.98414398,17.5020745 7.84815677,17.6365455 7.67885503,17.6365455 L7.57498102,17.6365455 C7.48252017,17.6365455 7.40660436,17.7116148 7.40660436,17.7997795 L7.40660436,18.9871741 C7.40660436,19.0753388 7.48252017,19.1504081 7.57498102,19.1504081 L9.09763879,19.1504081 L9.09763879,19.7360562 Z M2.95788773,0.292824074 L2.95788773,0.878472222 L2.29749226,0.878472222 C1.51684759,0.878472222 0.878472222,1.51078681 0.878472222,2.27840444 L0.878472222,11.7611265 C0.878472222,12.6011709 1.57347731,13.2884263 2.42629606,13.2884263 L4.4400257,13.2884263 L4.38422367,12.8181562 L4.26694397,12.8181562 C4.03531779,12.8181562 3.84531609,12.630273 3.84531609,12.3979644 L3.84531609,6.44212963 L4.43096424,6.44212963 L4.43096424,12.232508 L4.52870654,12.232508 C4.74132263,12.232508 4.92102574,12.3859756 4.94829408,12.6017578 L5.0440673,13.4088598 C5.07212831,13.6585929 4.8716498,13.8740745 4.62427065,13.8740745 L2.42629606,13.8740745 C1.25149364,13.8740745 0.292824074,12.9260945 0.292824074,11.7611265 L0.292824074,2.27840444 C0.292824074,1.18608507 1.19464705,0.292824074 2.29749226,0.292824074 L2.95788773,0.292824074 Z M2.21657121,12.1924686 L2.21657121,1.82651922 C2.05779513,1.89420674 1.9462973,2.05001956 1.9462973,2.22910085 L1.9462973,11.789887 C1.9462973,11.9689683 2.05779513,12.1247811 2.21657121,12.1924686 Z M2.80221936,12.4061817 C2.80221936,12.6346384 2.61625146,12.8140475 2.39305636,12.8140475 C1.82487831,12.8140475 1.36064916,12.3549947 1.36064916,11.789887 L1.36064916,2.22910085 C1.36064916,1.66399312 1.82487831,1.20494032 2.39305636,1.20494032 C2.62072938,1.20494032 2.80221936,1.38889327 2.80221936,1.61280609 L2.80221936,12.4061817 Z" id="Combined-Shape"></path>
                </g>
                <g id="stp-copy-2" transform="translate(11.000000, 0.000000)">
                    <g id="Group-10" transform="translate(4.000000, 2.000000)">
                        <path d="M0.957986849,0.744002069 C0.784821368,0.744002069 0.644511258,0.886849717 0.644511258,1.06314697 L0.644511258,2.99966979 C0.502772699,3.10082663 0.409444267,3.26758994 0.409444267,3.45697615 C0.409444267,3.76497123 0.655621806,4.01560094 0.958145607,4.01560094 C1.04099836,4.01560094 1.1190895,3.99540189 1.18956202,3.96162913 L2.27998095,4.60234283 C2.32950212,4.631591 2.38315013,4.64532637 2.43648064,4.64532637 C2.54472895,4.64532637 2.65012021,4.5881227 2.70821239,4.48567315 C2.79471583,4.33329151 2.74344865,4.13792639 2.59329778,4.04985856 L1.50176781,3.4081753 C1.48716544,3.23947284 1.40097947,3.0921006 1.2717799,2.999993 L1.2717799,1.06314697 C1.27146244,0.88701132 1.13099368,0.744002069 0.957986849,0.744002069 Z M0.957986849,3.69613289 C0.82831112,3.69613289 0.722919858,3.58867393 0.722919858,3.45697615 C0.722919858,3.32511682 0.828469877,3.21765791 0.957986849,3.21765791 C1.08750387,3.21765791 1.19305389,3.32511682 1.19305389,3.45697615 C1.19305389,3.58867393 1.08750387,3.69613289 0.957986849,3.69613289 Z" id="Shape"></path>
                    </g>
                    <path d="M6.02214981,8.46909869 L6.42579323,9.19044929 C6.01752228,9.30499741 5.58997727,9.36543916 5.15456131,9.36543916 C2.63915562,9.36543916 0.592816456,7.39786496 0.592816456,4.97948082 C0.592816456,2.56109672 2.63936561,0.593320594 5.15456131,0.593320594 C7.38630146,0.593320594 9.24828959,2.14319411 9.63903834,4.18203383 L10.253612,4.18203383 C10.3344493,4.18203383 10.4075178,4.22685241 10.4417425,4.29690658 C10.4759671,4.36696081 10.4650488,4.44953189 10.4133969,4.50928996 L9.37657946,5.70546042 C9.3373156,5.75068269 9.27894475,5.77712968 9.21742443,5.77712968 C9.15569406,5.77712968 9.09753321,5.75088462 9.05805936,5.70546042 L8.02124191,4.50928996 C7.96959001,4.44973376 7.95846175,4.36716268 7.99268638,4.29710845 C8.02712099,4.22705428 8.09997957,4.18223575 8.18081691,4.18223575 L8.7905613,4.18223575 C8.41220065,2.58653424 6.92710345,1.39117133 5.15456131,1.39117133 C3.09667391,1.39117133 1.4221864,3.00100479 1.4221864,4.97988461 C1.4221864,6.95836064 3.09667391,8.5681941 5.15456131,8.5681941 C5.44994567,8.5681941 5.74091543,8.53417672 6.02214981,8.46909869 Z M7.30295235,7.91190847 C7.73945752,7.61672509 8.1123092,7.23112215 8.38742451,6.77403933 C8.50185657,6.58325772 8.75549682,6.51825064 8.95370577,6.62868192 C9.15233459,6.73911321 9.21994399,6.98278874 9.105302,7.1735704 C8.76653384,7.73642962 8.30636916,8.21056469 7.76745745,8.57228016 L7.30295235,7.91190847 Z" id="Combined-Shape"></path>
                </g>
            </g>
        </g>
    </g>
</svg>