<?xml version="1.0" encoding="UTF-8"?>
<svg width="34px" height="34px" viewBox="0 0 34 34" version="1.1" xmlns="http://www.w3.org/2000/svg" xmlns:xlink="http://www.w3.org/1999/xlink">
    <!-- Generator: Sketch 53.2 (72643) - https://sketchapp.com -->
    <title>taxsavings</title>
    <desc>Created with Sketch.</desc>
    <g id="Page-1" stroke="none" stroke-width="1" fill="none" fill-rule="evenodd">
        <g id="09.4e-SIP" transform="translate(-759.000000, -772.000000)" fill="#F78200" fill-rule="nonzero">
            <g id="taxsavings" transform="translate(759.000000, 772.000000)">
                <path d="M21.6407344,10.495375 L21.6119141,10.4906602 C21.2498672,10.4321563 20.9091367,10.6789883 20.8510312,11.041168 C20.7930586,11.4032148 21.0394922,11.7438789 21.4016055,11.8019844 L21.4248477,11.8057695 C21.4614375,11.8118125 21.4977617,11.8147344 21.5336211,11.8147344 C21.8528359,11.8147344 22.1343984,11.5838398 22.1879883,11.258582 C22.2476211,10.8967344 22.002582,10.5550078 21.6407344,10.495375 Z" id="Path"></path>
                <path d="M33.3230547,18.9005469 C32.5497539,18.1273125 31.2916875,18.1273125 30.5184531,18.9005469 C30.2591367,19.1598633 30.2591367,19.5803477 30.5184531,19.8397305 C30.7777695,20.0990469 31.1982539,20.0990469 31.4576367,19.8397305 C31.7130352,19.5842656 32.1286055,19.584332 32.3840039,19.8397305 C32.7680313,20.2236914 32.7680313,20.8484414 32.3840039,21.2324688 C32.1201719,21.4963672 31.7693477,21.6416641 31.3961445,21.6416641 C31.0230078,21.6416641 30.6721836,21.4963672 30.4083516,21.2324688 C30.4079531,21.2320703 30.4074883,21.2316719 30.4070234,21.2312734 C30.4116055,21.1036406 30.4146602,20.9758086 30.4146602,20.8474453 C30.4146602,16.7359023 27.9939531,12.9826211 24.2476445,11.285543 C23.9135547,11.1342695 23.5200313,11.2823555 23.3687578,11.6163789 C23.217418,11.9504688 23.3655703,12.3439922 23.6995938,12.4952656 C26.9720273,13.9776523 29.0865352,17.2560625 29.0865352,20.8473789 C29.0865352,23.9786328 27.5123086,26.8613945 24.8755156,28.5587383 C24.6856602,28.6809922 24.5709102,28.8913008 24.5709102,29.1171484 L24.5709102,32.2734375 C24.5709102,32.4931758 24.3922109,32.671875 24.1724727,32.671875 L20.9849727,32.671875 C20.7652344,32.671875 20.5865352,32.4931758 20.5865352,32.2734375 L20.5865352,30.9653672 C20.5865352,30.4393633 20.1586133,30.0114414 19.6326758,30.0114414 L12.7747695,30.0114414 C12.2487656,30.0114414 11.8208437,30.4393633 11.8208437,30.9653672 L11.8208437,32.2734375 C11.8208437,32.4931758 11.6421445,32.671875 11.4224062,32.671875 L8.23490625,32.671875 C8.01516797,32.671875 7.83646875,32.4931758 7.83646875,32.2734375 L7.83646875,29.1171484 C7.83646875,28.8913672 7.72171875,28.6809922 7.53186328,28.5588047 C5.63178125,27.335668 4.25444922,25.4678594 3.65367187,23.2994961 C3.56501953,22.979418 3.25350781,22.7738906 2.92426562,22.8187813 C2.89079687,22.8232969 2.85819141,22.8303359 2.82658203,22.8395664 L2.18987891,22.8395664 C1.71500781,22.8395664 1.32865625,22.4532148 1.32865625,21.9783438 L1.32865625,19.7163477 C1.32865625,19.2414766 1.71500781,18.855125 2.18987891,18.855125 L2.83501562,18.855125 C2.86396875,18.8632266 2.89371875,18.8693359 2.92419922,18.8735195 C3.25344141,18.9186094 3.56488672,18.7130156 3.65360547,18.3929375 C4.68622266,14.668875 7.96888281,11.9819453 11.8221719,11.7068242 C12.1880039,11.6807266 12.4633906,11.3629727 12.437293,10.9971406 C12.4111953,10.6313086 12.093043,10.3565859 11.7276094,10.3820195 C11.0941602,10.4272422 10.4745898,10.5305039 9.87374609,10.6849648 C9.48958594,8.89458594 7.89537109,7.54806641 5.99196875,7.54806641 L5.73942578,7.54806641 C5.37266406,7.54806641 5.07536328,7.84536719 5.07536328,8.21212891 L5.07536328,13.4216992 C3.93875391,14.5545234 3.0546875,15.9506484 2.52967969,17.5271328 L2.18987891,17.5271328 C0.982679688,17.5271328 0.00053125,18.5092813 0.00053125,19.7164805 L0.00053125,21.9784766 C0.00053125,23.1856758 0.982679688,24.1678242 2.18987891,24.1678242 L2.53034375,24.1678242 C3.24587109,26.3163984 4.63854297,28.1749102 6.50834375,29.4720234 L6.50834375,32.2734375 C6.50834375,33.2254375 7.28290625,34 8.23490625,34 L11.4224062,34 C12.3744062,34 13.1489687,33.2254375 13.1489687,32.2734375 L13.1489687,31.3395664 L19.2583438,31.3395664 L19.2583438,32.2734375 C19.2583438,33.2254375 20.0329063,34 20.9849063,34 L24.1724063,34 C25.1244063,34 25.8989688,33.2254375 25.8989688,32.2734375 L25.8989688,29.471957 C28.2142891,27.8669844 29.7594961,25.4397031 30.2480469,22.7173125 C30.6031211,22.8823984 30.992793,22.9697227 31.3960781,22.9697227 C32.1240234,22.9697227 32.8083398,22.6862344 33.3231211,22.1715195 C34.224918,21.2697227 34.224918,19.8024102 33.3230547,18.9005469 Z M6.40348828,8.90826562 C7.52953906,9.08517187 8.42124219,9.97594531 8.60073828,11.1010664 C7.81973437,11.4129766 7.08242578,11.8161953 6.40348828,12.2996328 L6.40348828,8.90826562 Z" id="Shape"></path>
                <path d="M7.98853906,16.5391406 C7.86502344,16.4149609 7.69369531,16.3445703 7.51904688,16.3445703 C7.34373438,16.3445703 7.17307031,16.4149609 7.04955469,16.5391406 C6.92603906,16.6626563 6.85498438,16.8333203 6.85498438,17.0086328 C6.85498438,17.1832813 6.92603906,17.3546094 7.04955469,17.478125 C7.17307031,17.6016406 7.34439844,17.6726953 7.51904688,17.6726953 C7.69369531,17.6726953 7.86502344,17.6016406 7.98853906,17.478125 C8.11205469,17.3539453 8.18310938,17.1832813 8.18310938,17.0086328 C8.18310938,16.8339844 8.11205469,16.6626563 7.98853906,16.5391406 Z" id="Path"></path>
                <path d="M20.206625,14.1445312 L12.6655313,14.1445312 C12.2987695,14.1445312 12.0014688,14.441832 12.0014688,14.8085938 C12.0014688,15.1753555 12.2987695,15.4726562 12.6655313,15.4726562 L20.206625,15.4726562 C20.5733867,15.4726562 20.8706875,15.1753555 20.8706875,14.8085938 C20.8706875,14.441832 20.5733867,14.1445312 20.206625,14.1445312 Z" id="Path"></path>
                <path d="M16.4360781,5.75031641 C14.4954219,5.75031641 12.9165469,7.32919141 12.9165469,9.26984766 C12.9165469,11.2105039 14.4954219,12.7893789 16.4360781,12.7893789 C18.3767344,12.7893789 19.9556094,11.2105039 19.9556094,9.26984766 C19.9556094,7.32919141 18.3767344,5.75031641 16.4360781,5.75031641 Z M16.4360781,11.4612539 C15.22775,11.4612539 14.2446719,10.4781758 14.2446719,9.26984766 C14.2446719,8.06151953 15.22775,7.07844141 16.4360781,7.07844141 C17.6444062,7.07844141 18.6274844,8.06151953 18.6274844,9.26984766 C18.6274844,10.4781758 17.6444062,11.4612539 16.4360781,11.4612539 Z" id="Shape"></path>
                <path d="M16.4349492,0 C16.0681875,0 15.7708867,0.297300781 15.7708867,0.6640625 L15.7708867,3.52876172 C15.7708867,3.89552344 16.0682539,4.19282422 16.4349492,4.19282422 C16.8017109,4.19282422 17.0990117,3.89552344 17.0990117,3.52876172 L17.0990117,0.6640625 C17.0990117,0.297300781 16.8017109,0 16.4349492,0 Z" id="Path"></path>
                <path d="M22.4249922,2.56852734 C22.1656758,2.30921094 21.7451914,2.30921094 21.4858086,2.56852734 L19.737,4.31733594 C19.4776836,4.57665234 19.4776836,4.99713672 19.737,5.25651953 C19.8666914,5.38621094 20.0366914,5.45102344 20.206625,5.45102344 C20.3765586,5.45102344 20.5465586,5.38621094 20.6761836,5.25651953 L22.4249922,3.50771094 C22.6843086,3.24839453 22.6843086,2.82791016 22.4249922,2.56852734 Z" id="Path"></path>
                <path d="M13.1350898,4.31394922 L11.3862812,2.56514062 C11.1269648,2.30582422 10.7064805,2.30582422 10.4470977,2.56514062 C10.1877812,2.82445703 10.1877812,3.24494141 10.4470977,3.50432422 L12.1959727,5.25313281 C12.3256641,5.38282422 12.4955977,5.44763672 12.6655312,5.44763672 C12.8354648,5.44763672 13.0054648,5.38282422 13.1350898,5.25313281 C13.3944062,4.99381641 13.3944062,4.57333203 13.1350898,4.31394922 Z" id="Path"></path>
                <path d="M11.5401445,20.4349297 L9.22947266,20.4349297 C8.86271094,20.4349297 8.56541016,20.7322305 8.56541016,21.0989922 C8.56541016,21.4657539 8.86271094,21.7630547 9.22947266,21.7630547 L9.72074609,21.7630547 L9.72074609,25.3460039 C9.72074609,25.7127656 10.0180469,26.0100664 10.3848086,26.0100664 C10.7515703,26.0100664 11.0488711,25.7127656 11.0488711,25.3460039 L11.0488711,21.7630547 L11.5401445,21.7630547 C11.9069063,21.7630547 12.204207,21.4657539 12.204207,21.0989922 C12.204207,20.7322305 11.9069063,20.4349297 11.5401445,20.4349297 Z" id="Path"></path>
                <path d="M17.7956133,25.0909375 L16.039168,20.8758008 C15.9361055,20.6283047 15.6943203,20.4671367 15.4262383,20.4671367 C15.1581562,20.4671367 14.9163711,20.6283047 14.8133086,20.8758008 L13.0568633,25.0909375 C12.9158164,25.4294766 13.0759219,25.8182852 13.4144609,25.959332 C13.7529336,26.1005117 14.1418086,25.9403398 14.2828555,25.6018008 L14.384457,25.357957 L16.4680195,25.357957 L16.5696211,25.6018008 C16.6759375,25.8568672 16.9227695,26.0106641 17.1828828,26.0105977 C17.2680156,26.0105977 17.354543,25.9941289 17.4380156,25.959332 C17.7765547,25.8182852 17.9366602,25.4294766 17.7956133,25.0909375 Z M14.9378867,24.0297656 L15.4262383,22.8576953 L15.9145898,24.0297656 L14.9378867,24.0297656 Z" id="Shape"></path>
                <path d="M22.2539961,23.2233945 L23.4004336,21.4604414 C23.6003828,21.1529805 23.5131914,20.7416602 23.2057305,20.5417109 C22.8982031,20.3416953 22.4868828,20.4289531 22.287,20.7364141 L21.4618359,22.0053047 L20.6366719,20.7364141 C20.4367227,20.4289531 20.0254023,20.3417617 19.7179414,20.5417109 C19.4104805,20.7416602 19.3233555,21.1529805 19.5232383,21.4604414 L20.6696758,23.2233945 L19.5232383,24.9863477 C19.3232891,25.2938086 19.4104805,25.7051289 19.7179414,25.9050781 C19.8297695,25.977793 19.9552773,26.0125234 20.0793242,26.0125234 C20.2965391,26.0125234 20.5094375,25.9060742 20.6366719,25.7104414 L21.4618359,24.4415508 L22.287,25.7104414 C22.4143008,25.9061406 22.6271328,26.0125234 22.8443477,26.0125234 C22.9684609,26.0125234 23.0939688,25.977793 23.2057305,25.9050781 C23.5131914,25.7051289 23.6003164,25.2938086 23.4004336,24.9863477 L22.2539961,23.2233945 Z" id="Path"></path>
            </g>
        </g>
    </g>
</svg>