<svg width="14" height="14" viewBox="0 0 14 14" fill="none" xmlns="http://www.w3.org/2000/svg">
<circle cx="7.00002" cy="7.00008" r="6.98128" fill="#4AC27B" fill-opacity="0.28644"/>
<circle cx="7.00004" cy="7.00004" r="5.75126" fill="#4AC27B"/>
<path d="M6.31889 9.65507C6.1347 9.65511 5.95835 9.58049 5.83011 9.44826L3.61629 7.16748C3.44398 6.99339 3.37842 6.74018 3.44459 6.50435C3.51075 6.26851 3.69845 6.08636 3.93617 6.0273C4.17389 5.96825 4.42501 6.04138 4.59385 6.21883L6.3017 7.97826L9.39083 4.56957C9.64482 4.29732 10.0703 4.2794 10.3463 4.52935C10.6223 4.77929 10.6465 5.20449 10.4007 5.48413L6.82457 9.43183C6.6978 9.57134 6.51894 9.65215 6.33046 9.65507H6.31889Z" fill="white"/>
</svg>
