<?xml version="1.0" encoding="UTF-8"?>
<svg width="33px" height="33px" viewBox="0 0 33 33" version="1.1" xmlns="http://www.w3.org/2000/svg" xmlns:xlink="http://www.w3.org/1999/xlink">
    <!-- Generator: Sketch 63.1 (92452) - https://sketch.com -->
    <title>tick</title>
    <desc>Created with Sketch.</desc>
    <g id="Page-1" stroke="none" stroke-width="1" fill="none" fill-rule="evenodd">
        <g id="Account-Locked-4" transform="translate(-1067.000000, -348.000000)" fill="#F78200" fill-rule="nonzero" stroke="#FFFFFF" stroke-width="1.2">
            <g id="tick" transform="translate(1068.000000, 349.000000)">
                <path d="M30.3497856,11.0802339 C30.1071614,10.2847258 29.267188,9.83493847 28.4705921,10.0739671 C27.6739962,10.3129958 27.2204197,11.1509291 27.455848,11.9485965 C27.8035906,13.1106398 27.979687,14.3172559 27.9785575,15.5302144 C27.9785575,22.3943275 22.3943275,27.9785575 15.5302144,27.9785575 C8.66610136,27.9785575 3.08187135,22.3943275 3.08187135,15.5302144 C3.08187135,8.66610136 8.66610136,3.08187135 15.5302144,3.08187135 C17.9566539,3.07752617 20.3309824,3.78562236 22.3586745,5.11832359 C22.8096959,5.42278676 23.3896084,5.46116165 23.8768163,5.21878447 C24.3640241,4.9764073 24.6832329,4.4907357 24.7124668,3.94735409 C24.7417007,3.40397248 24.4764418,2.88685657 24.0180507,2.59360624 C17.3861316,-1.76078936 8.53514778,-0.392321814 3.52794303,5.76162099 C-1.47926173,11.9155638 -1.01937171,20.8598983 4.59259259,26.4678363 C9.60673461,31.472347 17.378947,32.4328795 23.4605887,28.7996465 C29.5422304,25.1664135 32.3800676,17.8673322 30.3497856,11.0802339 L30.3497856,11.0802339 Z" id="Path"></path>
                <path d="M22.5592982,10.2318129 L13.2641326,19.5293957 L8.49992203,14.7651852 C8.11822588,14.383489 7.56189162,14.2344197 7.04048498,14.3741302 C6.51907833,14.5138407 6.11181339,14.9211056 5.9721029,15.4425123 C5.83239241,15.9639189 5.98146174,16.5202532 6.36315789,16.9019493 L11.7600585,22.2982456 C12.5907388,23.1289153 13.9375264,23.1289153 14.7682066,22.2982456 L24.6960624,12.368577 C25.2861135,11.7785259 25.2861135,10.821864 24.6960623,10.2318129 C24.1060112,9.64176179 23.1493494,9.64176177 22.5592982,10.2318129 Z" id="Path"></path>
            </g>
        </g>
    </g>
</svg>