<svg width="32" height="34" viewBox="0 0 32 34" fill="none" xmlns="http://www.w3.org/2000/svg">
<path d="M19.125 18.4167C17.3513 18.4167 15.6711 17.7664 14.3933 16.5849C14.1071 16.32 14.0887 15.8709 14.355 15.5833C14.6214 15.2986 15.0676 15.2787 15.3566 15.5451C16.371 16.4829 17.7097 17 19.125 17C22.2501 17 24.7916 14.4585 24.7916 11.3333C24.7916 8.20817 22.2501 5.66667 19.125 5.66667C15.9998 5.66667 13.4583 8.20817 13.4583 11.3333C13.4583 11.8929 13.5348 12.4355 13.6835 12.9483C13.794 13.3223 13.5787 13.7176 13.2033 13.8267C12.8236 13.9372 12.434 13.7204 12.325 13.3464C12.1365 12.7047 12.0416 12.0275 12.0416 11.3333C12.0416 7.42758 15.2192 4.25 19.125 4.25C23.0307 4.25 26.2083 7.42758 26.2083 11.3333C26.2083 15.2391 23.0307 18.4167 19.125 18.4167Z" fill="#F58220"/>
<path d="M14.9034 16.2633C14.7221 16.2633 14.5407 16.1939 14.4019 16.0565C14.1256 15.7803 14.1256 15.3312 14.4019 15.0549L18.4167 11.0401V4.95833C18.4167 4.56733 18.7341 4.25 19.1251 4.25C19.5161 4.25 19.8334 4.56733 19.8334 4.95833V11.3333C19.8334 11.5218 19.7583 11.7017 19.6266 11.8348L15.4049 16.0565C15.2646 16.1953 15.0833 16.2633 14.9034 16.2633Z" fill="#F58220"/>
<path d="M9.20837 28.3335C9.04829 28.3335 8.88679 28.2797 8.75504 28.1692C8.45471 27.9184 8.41504 27.4736 8.66579 27.1718L10.1788 25.3557C11.23 24.0934 11.4354 22.3283 10.7001 20.8592C10.5627 20.5872 10.6165 20.2571 10.8333 20.0418L13.4159 17.4592C14.4486 16.4264 14.4486 14.7434 13.4159 13.7107L5.43862 21.0632C5.15246 21.3295 4.70196 21.3125 4.43846 21.0235C4.17212 20.7359 4.19054 20.2868 4.47812 20.0233L12.4554 12.6708C13.015 12.1552 13.8763 12.1693 14.4175 12.7091C16.0027 14.2943 16.0027 16.8755 14.4175 18.4622L12.1777 20.7019C12.903 22.5705 12.5659 24.704 11.2654 26.2652L9.75237 28.0785C9.61212 28.2457 9.41096 28.3335 9.20837 28.3335V28.3335Z" fill="#F58220"/>
<path d="M13.4583 33.9998H0.708333C0.317333 33.9998 0 33.6825 0 33.2915V22.5305C0 19.2254 1.5725 16.0606 4.2075 14.0631L7.15133 11.8304C7.46017 11.5953 7.905 11.6533 8.143 11.9678C8.37958 12.2795 8.31867 12.7229 8.00558 12.9595L5.06175 15.1922C2.7795 16.9233 1.41667 19.666 1.41667 22.5305V32.5832H12.75V30.4624C12.75 30.0714 13.0673 29.7541 13.4583 29.7541C15.0209 29.7541 16.2917 28.4834 16.2917 26.9208V26.2082C16.2917 25.8172 16.609 25.4999 17 25.4999C17.391 25.4999 17.7083 25.8172 17.7083 26.2082V26.9208C17.7083 29.0217 16.1741 30.7741 14.1667 31.1113V33.2915C14.1667 33.6825 13.8493 33.9998 13.4583 33.9998Z" fill="#F58220"/>
<path d="M29.0417 26.9167H10.625C10.234 26.9167 9.91671 26.5993 9.91671 26.2083C9.91671 25.8173 10.234 25.5 10.625 25.5H29.0417C29.4313 25.5 29.75 25.1812 29.75 24.7917V2.125C29.75 1.73542 29.4313 1.41667 29.0417 1.41667H9.20837C8.81879 1.41667 8.50004 1.73542 8.50004 2.125V17.9293C8.50004 18.3203 8.18271 18.6377 7.79171 18.6377C7.40071 18.6377 7.08337 18.3217 7.08337 17.9293V2.125C7.08337 0.953417 8.03679 0 9.20837 0H29.0417C30.2133 0 31.1667 0.953417 31.1667 2.125V24.7917C31.1667 25.9632 30.2133 26.9167 29.0417 26.9167Z" fill="#F58220"/>
</svg>
