<?xml version="1.0" encoding="UTF-8"?>
<svg width="30px" height="34px" viewBox="0 0 30 34" version="1.1" xmlns="http://www.w3.org/2000/svg" xmlns:xlink="http://www.w3.org/1999/xlink">
    <!-- Generator: Sketch 53.2 (72643) - https://sketchapp.com -->
    <title>Group 114</title>
    <desc>Created with Sketch.</desc>
    <g id="Page-1" stroke="none" stroke-width="1" fill="none" fill-rule="evenodd">
        <g id="Group-114" transform="translate(0.935057, 0.109980)" fill="#003974" fill-rule="nonzero">
            <path d="M0,7.27595761e-12 L28.1336074,7.27595761e-12 L28.1336074,33.712318 L0,33.712318 L0,7.27595761e-12 Z M1,32.712318 L27.1336074,32.712318 L27.1336074,0.999999969 L1,0.999999969 L1,32.712318 Z" id="Path-42"></path>
            <path d="M7.50938275,22.2325775 L6.12873772,20.785574 C5.93811042,20.5857845 5.94553786,20.2692891 6.14532736,20.0786618 L12.8216737,13.7084878 C13.1512488,13.3940268 13.4211033,12.9651567 14.0540566,12.9690256 C14.6870099,12.9728946 14.9549487,13.3642355 15.322662,13.7237751 L21.8440403,20.1001941 C22.0414845,20.2932495 22.0450424,20.609812 21.851987,20.8072562 L20.4537562,22.2372739 C20.2607008,22.4347182 19.9441383,22.438276 19.7466941,22.2452207 L14.0540566,16.679121 L8.2162949,22.2491672 C8.0165054,22.4397945 7.70001005,22.432367 7.50938275,22.2325775 Z" id="Path-43"></path>
        </g>
    </g>
</svg>