<?xml version="1.0" encoding="UTF-8"?>
<svg width="43px" height="29px" viewBox="0 0 43 29" version="1.1" xmlns="http://www.w3.org/2000/svg" xmlns:xlink="http://www.w3.org/1999/xlink">
    <!-- Generator: Sketch 53.2 (72643) - https://sketchapp.com -->
    <title>redeem_active</title>
    <desc>Created with Sketch.</desc>
    <g id="Page-1" stroke="none" stroke-width="1" fill="none" fill-rule="evenodd">
        <g id="Transact" transform="translate(-838.000000, -632.000000)" fill="#F78200" fill-rule="nonzero" stroke="#F78200" stroke-width="0.2">
            <g id="Group-6" transform="translate(618.000000, 597.000000)">
                <g id="redeem_active" transform="translate(220.000000, 35.000000)">
                    <g id="payment-method" transform="translate(21.750000, 14.500000) scale(-1, 1) rotate(-90.000000) translate(-21.750000, -14.500000) translate(7.250000, -7.250000)">
                        <path d="M23.5511006,42.6551579 L23.5511006,41.4468245 L25.6662098,41.4468245 C25.8569789,41.4468245 26.0136115,41.2919384 26.0136115,41.1100333 L26.0136115,38.6771062 C26.0136115,38.4952012 25.8569789,38.3403151 25.6662098,38.3403151 C25.3168996,38.3403151 25.0363251,38.0628692 25.0398793,37.6452806 C25.3132218,35.1363924 25.6674126,32.1532543 26.0148167,29.5942144 C26.5430375,25.7032463 26.9339579,23.5317673 27.2965938,23.015111 C27.3941955,22.6553323 27.4658893,22.1388889 27.4375831,21.6224618 C27.3945154,20.8367238 27.130026,20.2097837 26.5912754,19.7934871 C26.3861762,19.6338314 23.3563482,16.4874402 23.1669007,16.2941186 C23.0202832,16.1446446 23.0202832,16.1446446 22.8734598,15.9955759 C21.9363622,15.0452088 21.1730184,14.3014741 20.5607142,13.751705 C20.5450774,13.7419917 20.5450774,13.7419917 20.43886,13.5862499 C20.366037,13.346064 20.366037,13.346064 20.3727833,13.3051522 L20.3727833,4.96368772 C20.3727833,3.23047372 18.9388203,1.8125 17.1792496,1.8125 L7.70540023,1.8125 L7.70540023,0.604166666 L17.1792496,0.604166666 C19.6031501,0.604166666 21.5811167,2.56007791 21.5811167,4.96368772 L21.5811167,13.0464807 C22.1623365,13.5784358 22.8777141,14.2789078 23.7338661,15.1471832 C23.8820711,15.2976546 23.8820711,15.2976546 24.0299245,15.4483886 C24.3869158,15.8126797 27.1962587,18.7300901 27.3309987,18.8380302 C28.1811555,19.4953946 28.5834242,20.4492472 28.6441055,21.5563302 C28.6822648,22.2525194 28.5816672,22.9273589 28.4465551,23.3883965 C28.41717,23.504626 28.3819498,23.5693054 28.3206514,23.6602131 L28.2938989,23.6972298 C27.913066,24.1842818 27.0156203,30.7432311 26.2938574,37.2638141 C26.8390235,37.5040892 27.2219449,38.0470178 27.2219449,38.6771062 L27.2219449,41.1100333 C27.2219449,41.9623343 26.5213089,42.6551579 25.6662098,42.6551579 L23.5511006,42.6551579 Z M18.7177673,42.6551579 L15.5761571,42.6551579 C14.7210582,42.6551579 14.0204222,41.9623343 14.0204222,41.1100333 L14.0204222,38.6601521 C14.0204222,37.9508012 14.5057429,37.3519179 15.1615117,37.1709802 C14.6511374,36.6119891 14.1854776,35.9873633 13.7619093,35.3085063 C13.161149,34.3456617 12.6710516,33.3187712 12.2801708,32.2848382 C12.0436169,31.6591207 11.8944197,31.1782272 11.7884063,30.7781288 C11.7674578,30.7224251 11.7572534,30.6702913 11.7519813,30.6045285 L11.7527545,30.6177882 L10.9484683,23.7099494 C9.89841182,20.1287231 9.99198924,18.0179017 10.9098261,17.0036285 C11.2313476,16.6483251 11.5834767,16.4989739 11.8496356,16.476908 C11.9431244,16.4666362 12.0093581,16.4648169 12.1470822,16.4648169 C13.6958385,16.4648169 14.7616368,17.633287 15.4627282,19.5098071 C15.864244,20.584492 16.0790525,21.658795 16.1958028,22.682163 C16.1943766,22.6535253 16.1842968,22.61779 16.1761212,22.6012044 C16.3521424,22.9608093 16.6302199,23.4642321 16.9326564,23.9333989 C17.2713658,24.4588354 17.5965273,24.8674862 17.8594997,25.0969766 C18.0333744,24.9727501 18.1438846,24.7745762 18.1438846,24.5627381 L18.1438846,4.61612671 C18.1438846,4.11209192 17.7214987,3.69441574 17.2049676,3.69441574 L9.14214756,3.69441574 L9.14214756,8.45833334 L7.93381422,8.45833334 L7.93381422,3.35303911 C7.93381422,2.87373055 8.32583354,2.4860824 8.8037342,2.4860824 L17.2049676,2.4860824 C18.3858287,2.4860824 19.352218,3.44169609 19.352218,4.61612671 L19.352218,24.5627381 C19.352218,25.4037736 18.7759449,26.1369533 17.9693199,26.3648478 L17.8050558,26.387607 L17.6361999,26.387607 L17.5024869,26.3159351 C16.9780591,26.0348357 16.4613672,25.4324784 15.9170497,24.5880841 C15.5825742,24.0692154 15.2796509,23.5196621 15.1266411,23.1965755 C15.0414055,23.0701478 14.9977085,22.9189137 15.0014867,22.8415326 C14.9011339,21.9484283 14.7021324,20.9265611 14.330815,19.9327041 C13.7867712,18.4765329 13.0539806,17.6731503 12.1470822,17.6731503 C12.0533437,17.6731503 12.0167052,17.6741567 11.9659954,17.6795235 C11.9688537,17.6792844 11.9026195,17.7073768 11.8057777,17.8143937 C11.2395563,18.4401075 11.1640009,20.1527904 12.1095747,23.3753831 L12.1340154,23.5454864 C12.1208984,23.4214986 12.1194605,23.4079064 12.1103846,23.3834451 C12.1257724,23.4257362 12.1265849,23.4316065 12.1384936,23.5176531 L12.9419302,30.4181944 L12.9459866,30.4289154 C13.2593045,31.6294849 13.8260927,33.1287175 14.7870605,34.6688702 C15.2100742,35.3468383 15.6759946,35.9612831 16.2096024,36.5245356 C16.3427669,36.6825511 16.420359,36.8778562 16.420359,37.091889 L16.420359,37.693763 C16.420359,38.0459151 16.1397846,38.323361 15.7904743,38.323361 L15.5761571,38.323361 C15.3853881,38.323361 15.2287555,38.4782471 15.2287555,38.6601521 L15.2287555,41.1100333 C15.2287555,41.2919384 15.3853881,41.4468245 15.5761571,41.4468245 L18.7177673,41.4468245 L18.7177673,42.6551579 Z M6.10283554,0.604166666 L6.10283554,1.8125 L4.74028046,1.8125 C3.12962231,1.8125 1.8125,3.11711744 1.8125,4.7008977 L1.8125,24.2660398 C1.8125,25.9992538 3.24646305,27.4172275 5.00603376,27.4172275 L9.16084353,27.4172275 L9.0457105,26.4469468 L8.8037342,26.4469468 C8.32583354,26.4469468 7.93381422,26.0592985 7.93381422,25.5799899 L7.93381422,13.2916667 L9.14214756,13.2916667 L9.14214756,25.2386134 L9.34381349,25.2386134 C9.78249175,25.2386134 10.1532626,25.555254 10.2095238,26.0004646 L10.407127,27.6657107 C10.4650236,28.1809702 10.0513881,28.6255609 9.5409853,28.6255609 L5.00603376,28.6255609 C2.58213312,28.6255609 0.604166666,26.6696495 0.604166666,24.2660398 L0.604166666,4.7008977 C0.604166666,2.44717948 2.4648449,0.604166666 4.74028046,0.604166666 L6.10283554,0.604166666 Z M4.57332084,25.1560023 L4.57332084,3.76854955 C4.24572751,3.90820521 4.01568061,4.22968464 4.01568061,4.59917251 L4.01568061,24.3253794 C4.01568061,24.6948674 4.24572751,25.0163467 4.57332084,25.1560023 Z M5.78165418,25.5969441 C5.78165418,26.0683054 5.39795756,26.4384695 4.93745226,26.4384695 C3.76516394,26.4384695 2.80734727,25.491333 2.80734727,24.3253794 L2.80734727,4.59917251 C2.80734727,3.43321899 3.76516394,2.4860824 4.93745226,2.4860824 C5.40719658,2.4860824 5.78165418,2.8656217 5.78165418,3.32760781 L5.78165418,25.5969441 Z" id="Combined-Shape"></path>
                    </g>
                </g>
            </g>
        </g>
    </g>
</svg>