<?xml version="1.0" encoding="UTF-8"?>
<svg width="47px" height="38px" viewBox="0 0 47 38" version="1.1" xmlns="http://www.w3.org/2000/svg" xmlns:xlink="http://www.w3.org/1999/xlink">
    <!-- Generator: Sketch 53.2 (72643) - https://sketchapp.com -->
    <title>switch_active</title>
    <desc>Created with Sketch.</desc>
    <g id="Page-1" stroke="none" stroke-width="1" fill="none" fill-rule="evenodd">
        <g id="Transact" transform="translate(-661.000000, -630.000000)" fill="#F78200" fill-rule="nonzero" stroke="#F78200" stroke-width="0.3">
            <g id="Group-6" transform="translate(618.000000, 597.000000)">
                <g id="switch_active" transform="translate(43.000000, 33.000000)">
                    <path d="M14.612782,23.3643932 L14.612782,24.4884533 L10.5339555,24.4884533 L10.5339555,18.0248621 L1.93291591,26.3351236 L10.5339555,34.645385 L10.5339555,28.1817939 L27.984825,28.1817939 L27.984825,24.4884533 L19.1090226,24.4884533 L19.1090226,23.3643932 L29.1088851,23.3643932 L29.1088851,29.305854 L11.6580156,29.305854 L11.6580156,37.2944647 L0.315204394,26.3351236 L11.6580156,15.3757824 L11.6580156,23.3643932 L14.612782,23.3643932 Z M23.6052632,8.9121912 L23.6052632,10.0362513 L19.1369597,10.0362513 L19.1369597,13.7295918 L36.5878293,13.7295918 L36.5878293,20.1931831 L45.1888687,11.8829216 L36.5878293,3.57266015 L36.5878293,10.0362513 L28.1015038,10.0362513 L28.1015038,8.9121912 L35.463769,8.9121912 L35.463769,0.923580454 L46.8065803,11.8829216 L35.463769,22.8422626 L35.463769,14.853652 L18.0128996,14.853652 L18.0128996,8.9121912 L23.6052632,8.9121912 Z" id="Combined-Shape"></path>
                </g>
            </g>
        </g>
    </g>
</svg>