<?xml version="1.0" encoding="UTF-8"?>
<svg width="39px" height="37px" viewBox="0 0 39 37" version="1.1" xmlns="http://www.w3.org/2000/svg" xmlns:xlink="http://www.w3.org/1999/xlink">
    <!-- Generator: Sketch 53.2 (72643) - https://sketchapp.com -->
    <title>swp_active</title>
    <desc>Created with Sketch.</desc>
    <g id="Page-1" stroke="none" stroke-width="1" fill="none" fill-rule="evenodd">
        <g id="Transact" transform="translate(-1199.000000, -626.000000)" fill="#F78200" fill-rule="nonzero">
            <g id="Group-6" transform="translate(618.000000, 597.000000)">
                <g id="swp_active" transform="translate(581.000000, 28.000000)">
                    <g id="payment-method-copy" transform="translate(0.000000, 1.658731)" stroke="#F78200" stroke-width="0.2">
                        <path d="M20.6146468,35.6313455 L20.6146468,34.5716011 L22.4696606,34.5716011 C22.6369706,34.5716011 22.774342,34.4357614 22.774342,34.2762253 L22.774342,32.1424759 C22.774342,31.9829396 22.6369706,31.8470999 22.4696606,31.8470999 C22.1633049,31.8470999 21.9172329,31.6037716 21.9203499,31.2375341 C22.1600795,29.0371646 22.1649768,28.0240131 22.4696606,25.7796589 C22.932926,22.3671643 23.6218821,20.6380597 23.9399245,20.1849368 C24.0255241,19.8694002 24.0884018,19.4164639 24.0635764,18.9635421 C24.0258047,18.2744264 23.7938397,17.7245814 23.3213392,17.3594768 C23.1414613,17.219454 20.4842121,14.4599754 20.3180608,14.2904266 C20.1894729,14.1593334 20.1894729,14.1593334 20.0607045,14.0285958 C19.2388419,13.1950956 18.5693666,12.5428181 18.0323578,12.0606543 C18.0186438,12.0521354 18.0186438,12.0521354 17.925488,11.9155452 C17.8616201,11.704895 17.8616201,11.704895 17.8675369,11.6690141 L17.8675369,4.35330175 C17.8675369,2.83322153 16.6099086,1.5896164 15.0667128,1.5896164 L6.75786515,1.5896164 L6.75786515,0.529872134 L15.0667128,0.529872134 C17.1925457,0.529872134 18.9272812,2.24526447 18.9272812,4.35330175 L18.9272812,11.4421516 C19.4370282,11.908692 20.0644357,12.5230267 20.8153063,13.2845301 C20.9452866,13.416498 20.9452866,13.416498 21.0749585,13.5486962 C21.3880503,13.8681903 23.8519278,16.426846 23.9700987,16.5215128 C24.7157116,17.0980409 25.0685131,17.9345979 25.1217323,18.9055427 C25.1551991,19.5161214 25.0669722,20.1079756 24.9484748,20.5123193 C24.9227032,20.6142561 24.891814,20.6709818 24.8380535,20.7507107 L24.8145908,20.7831753 C24.4805889,21.2103342 23.6531335,25.1842315 23.020126,30.9029767 C23.4982529,31.1137051 23.8340864,31.5898696 23.8340864,32.1424759 L23.8340864,34.2762253 C23.8340864,35.0237184 23.2196078,35.6313455 22.4696606,35.6313455 L20.6146468,35.6313455 Z M16.462394,35.7128636 L13.7071085,35.7128636 C12.9571613,35.7128636 12.3426827,35.1052367 12.3426827,34.3577436 L12.3426827,32.2091248 C12.3426827,31.5870029 12.7683233,31.0617646 13.3434522,30.9030768 C12.8958387,30.412825 12.4874412,29.8650096 12.1159592,29.2696317 C11.5890746,28.4251885 10.4317598,27.3442324 10.3387829,26.9933344 C10.3204105,26.9444805 10.3114609,26.8987574 10.3068371,26.8410818 L10.3075152,26.8527109 L9.60213233,20.7943307 C8.68120153,17.6534888 8.76327172,15.8022356 9.56824192,14.9126878 C9.85022581,14.6010762 10.1590535,14.4700908 10.3924828,14.4507383 C10.4744753,14.4417297 10.5325642,14.4401341 10.6533523,14.4401341 C12.0116576,14.4401341 12.9463945,15.4649171 13.5612725,17.1106811 C13.9134138,18.0532116 14.1018073,18.9954072 14.2042007,19.8929314 C14.2029499,19.8678152 14.1941096,19.8364745 14.1869394,19.8219284 C14.3413152,20.1373127 14.5851974,20.5788292 14.8504432,20.9903027 C15.1475014,21.4511261 15.4326778,21.8095249 15.6633123,22.0107948 C15.8158056,21.9018445 15.9127264,21.7280401 15.9127264,21.5422518 L15.9127264,4.04848041 C15.9127264,3.6064269 15.5422814,3.24011247 15.0892683,3.24011247 L8.01793529,3.24011247 L8.01793529,7.41820988 L6.95819102,7.41820988 L6.95819102,2.94071501 C6.95819102,2.52034714 7.30200362,2.1803682 7.72113671,2.1803682 L15.0892683,2.1803682 C16.1249185,2.1803682 16.9724707,3.01846983 16.9724707,4.04848041 L16.9724707,21.5422518 C16.9724707,22.279865 16.467062,22.9228853 15.759628,23.1227555 L15.6155635,23.142716 L15.4674718,23.142716 L15.3502015,23.0798577 C14.8902627,22.8333251 14.4371085,22.3050399 13.959726,21.564481 C13.666381,21.1094176 13.4007082,20.6274432 13.2665141,20.3440866 C13.1917599,20.2332057 13.1534364,20.1005688 13.15675,20.0327034 C13.0687376,19.2494244 12.8942074,18.3532165 12.5685509,17.4815743 C12.0914084,16.2044689 11.4487292,15.4998784 10.6533523,15.4998784 C10.5711409,15.4998784 10.5390078,15.500761 10.4945338,15.5054679 C10.4970407,15.5052582 10.4389513,15.5298961 10.3540181,15.6237531 C9.85742512,16.1725227 9.79116076,17.6745965 10.6204571,20.5009061 L10.6418924,20.6500917 C10.6303883,20.5413508 10.6291272,20.5294302 10.6211675,20.5079768 C10.634663,20.5450673 10.6353756,20.5502158 10.6458199,20.6256811 L11.3540152,26.3795455 C11.761559,27.1132541 12.3152363,27.8896228 13.0150473,28.7086518 C13.4033169,29.163066 13.7946689,29.8421365 14.2626589,30.3361256 C14.3794481,30.47471 14.4474986,30.6459982 14.4474986,30.8337114 L14.4474986,31.3615728 C14.4474986,31.6704205 14.2014265,31.913749 13.895071,31.913749 L13.7071085,31.913749 C13.5397984,31.913749 13.4024269,32.0495887 13.4024269,32.2091248 L13.4024269,34.3577436 C13.4024269,34.5172797 13.5397984,34.6531194 13.7071085,34.6531194 L16.462394,34.6531194 L16.462394,35.7128636 Z M5.35236827,0.529872134 L5.35236827,1.5896164 L4.15736695,1.5896164 C2.74477183,1.5896164 1.5896164,2.7338047 1.5896164,4.12282708 L1.5896164,21.2820384 C1.5896164,22.8021188 2.84724466,24.0457238 4.39044049,24.0457238 L8.03433222,24.0457238 L7.93335712,23.1947588 L7.72113671,23.1947588 C7.30200362,23.1947588 6.95819102,22.8547797 6.95819102,22.4344118 L6.95819102,11.6571869 L8.01793529,11.6571869 L8.01793529,22.1350145 L8.19480231,22.1350145 C8.57953619,22.1350145 8.90471324,22.4127178 8.95405595,22.8031808 L9.12735988,24.2636511 C9.17813694,24.7155491 8.8153663,25.1054681 8.36772784,25.1054681 L4.39044049,25.1054681 C2.26460754,25.1054681 0.529872134,23.3900758 0.529872134,21.2820384 L0.529872134,4.12282708 C0.529872134,2.14624917 2.16174228,0.529872134 4.15736695,0.529872134 L5.35236827,0.529872134 Z M4.01093838,22.0625622 L4.01093838,3.30513002 C3.72362928,3.4276122 3.5218713,3.7095592 3.5218713,4.03361106 L3.5218713,21.3340812 C3.5218713,21.6581331 3.72362928,21.9400801 4.01093838,22.0625622 Z M5.07068265,22.4492812 C5.07068265,22.862679 4.73416931,23.187324 4.33029246,23.187324 C3.30216075,23.187324 2.46212705,22.3566571 2.46212705,21.3340812 L2.46212705,4.03361106 C2.46212705,3.01103517 3.30216075,2.1803682 4.33029246,2.1803682 C4.74227221,2.1803682 5.07068265,2.51323544 5.07068265,2.91841102 L5.07068265,22.4492812 Z" id="Combined-Shape"></path>
                    </g>
                    <g id="stp-copy-2" transform="translate(19.904762, 0.000000)">
                        <g id="Group-10" transform="translate(7.238095, 3.619048)">
                            <path d="M1.73350001,1.34628946 C1.42015295,1.34628946 1.16625847,1.60477568 1.16625847,1.92378976 L1.16625847,5.42797391 C0.90977917,5.61101962 0.74089915,5.9127818 0.74089915,6.25548065 C0.74089915,6.81280508 1.18636327,7.26632551 1.73378729,7.26632551 C1.88371132,7.26632551 2.0250191,7.22977485 2.1525408,7.16866224 L4.12567981,8.32804893 C4.21528955,8.38097419 4.3123669,8.40582867 4.40886973,8.40582867 C4.60474762,8.40582867 4.79545562,8.30231727 4.9005748,8.11693237 C5.05710484,7.84119416 4.96433565,7.48767632 4.69263408,7.32831549 L2.71748461,6.16717435 C2.69106127,5.86190323 2.53510571,5.59522966 2.30131601,5.42855876 L2.30131601,1.92378976 C2.30074156,1.6050681 2.04655999,1.34628946 1.73350001,1.34628946 Z M1.73350001,6.68824047 C1.49884869,6.68824047 1.3081407,6.49379092 1.3081407,6.25548065 C1.3081407,6.01687806 1.49913597,5.8224286 1.73350001,5.8224286 C1.96786415,5.8224286 2.15885942,6.01687806 2.15885942,6.25548065 C2.15885942,6.49379092 1.96786415,6.68824047 1.73350001,6.68824047 Z" id="Shape"></path>
                        </g>
                        <path d="M10.8972235,15.3250357 L11.6276258,16.6303368 C10.8888498,16.8376144 10.115197,16.9469851 9.32730142,16.9469851 C4.77561493,16.9469851 1.07271549,13.3866128 1.07271549,9.0104891 C1.07271549,4.63436549 4.77599491,1.07362774 9.32730142,1.07362774 C13.3656884,1.07362774 16.7350002,3.87816077 17.4420694,7.56748979 L18.554155,7.56748979 C18.7004321,7.56748979 18.8326513,7.64859008 18.8945817,7.77535476 C18.9565119,7.90211956 18.936755,8.0515339 18.8432896,8.15966755 L16.9671438,10.3241665 C16.8960949,10.4059972 16.7904715,10.4538537 16.679149,10.4538537 C16.5674464,10.4538537 16.462203,10.4063626 16.3907741,10.3241665 L14.5146282,8.15966755 C14.4211629,8.05189918 14.401026,7.90248485 14.4629563,7.77572005 C14.5252666,7.64895536 14.6571059,7.56785517 14.803383,7.56785517 L15.90673,7.56785517 C15.2220774,4.68039529 12.5347586,2.51735764 9.32730142,2.51735764 C5.60350517,2.51735764 2.57348015,5.43038962 2.57348015,9.01121977 C2.57348015,12.5913193 5.60350517,15.5043512 9.32730142,15.5043512 C9.86180645,15.5043512 10.3883232,15.442796 10.8972235,15.3250357 Z M13.2148662,14.3167868 C14.0047327,13.7826454 14.6794166,13.0848877 15.1772444,12.2577855 C15.3843119,11.9125616 15.84328,11.7949297 16.2019438,11.9947578 C16.5613674,12.1945858 16.6837082,12.6355225 16.4762608,12.9807464 C15.8632517,13.9992536 15.0305728,14.8572123 14.0553992,15.5117451 L13.2148662,14.3167868 Z" id="Combined-Shape"></path>
                    </g>
                </g>
            </g>
        </g>
    </g>
</svg>