<?xml version="1.0" encoding="UTF-8"?>
<svg width="25px" height="25px" viewBox="0 0 25 25" version="1.1" xmlns="http://www.w3.org/2000/svg" xmlns:xlink="http://www.w3.org/1999/xlink">
    <!-- Generator: Sketch 53.2 (72643) - https://sketchapp.com -->
    <title>rupees (3)</title>
    <desc>Created with Sketch.</desc>
    <g id="Page-1" stroke="none" stroke-width="1" fill="none" fill-rule="evenodd">
        <g id="Dashboard---V1.5" transform="translate(-617.000000, -170.000000)" fill-rule="nonzero">
            <g id="Group-10" transform="translate(600.000000, 149.000000)">
                <g id="rupees-(3)" transform="translate(17.000000, 21.000000)">
                    <path d="M20.1432506,12.7410468 C20.1432506,17.1334515 16.5824873,20.6942148 12.1900826,20.6942148 C7.79767792,20.6942148 4.2369146,17.1334515 4.2369146,12.7410468 C4.2369146,8.34864211 7.79767792,4.78787879 12.1900826,4.78787879 C16.5824873,4.78787879 20.1432506,8.34864211 20.1432506,12.7410468 Z" id="Path" fill="#FFFFFF"></path>
                    <polygon id="Path" fill="#FFFFFF" points="6.95108044 19.6227187 5.15291405 22.0627798 5.13569642 22.086185 3.81881674 23.8733213 3.16750606 20.1136902"></polygon>
                    <g id="Group">
                        <path d="M12.1900826,1.51515152 C13.4480458,1.51353733 14.6974001,1.72391529 15.8854167,2.13767645 C16.0481771,2.19551694 16.2297693,2.16161977 16.3607847,2.04916708 C16.4918001,1.93644545 16.5525999,1.76211694 16.5200478,1.59236185 C16.4874957,1.42260675 16.3664342,1.28325152 16.2028667,1.22729421 C14.9128895,0.778021694 13.5561941,0.54935 12.1900826,0.550964187 C5.46848099,0.550964187 3.38813179e-21,6.01917617 3.38813179e-21,12.7410468 C-0.00188318182,14.1655368 0.24669635,15.5795347 0.734439532,16.9179365 C0.825639187,17.1681302 1.10246639,17.2969934 1.35266012,17.2055247 C1.60285386,17.1143251 1.731448,16.8374979 1.64024835,16.5873041 C1.19124483,15.3548984 0.962304132,14.0528151 0.964187328,12.7410468 C0.964187328,6.55103953 6.00007534,1.51515152 12.1900826,1.51515152 Z" id="Path" fill="#FFFFFF"></path>
                        <path d="M15.7158687,8.43129092 C15.7158687,8.21184568 15.5379161,8.03367121 15.318249,8.03367121 L9.699208,8.03367121 C9.47976276,8.03367121 9.30158829,8.21184568 9.30158829,8.43129092 C9.30158829,8.65095808 9.47976276,8.82891062 9.699208,8.82891062 L11.3067721,8.82891062 C12.2650977,8.8300201 13.0902917,9.50521914 13.2808918,10.4444625 L9.699208,10.4444625 C9.47976276,10.4444625 9.30158829,10.6224151 9.30158829,10.8420823 C9.30158829,11.0617494 9.47976276,11.239702 9.699208,11.239702 L13.2813355,11.239702 C13.0911792,12.1793892 12.2655415,12.8552539 11.3067721,12.8556977 L9.699208,12.8556977 C9.5363437,12.8556977 9.38989895,12.9551026 9.32976783,13.1064289 C9.26963671,13.2577551 9.30780116,13.4306043 9.42606638,13.5424349 L13.4448655,17.3395699 C13.6046235,17.4900086 13.8557984,17.4824645 14.006459,17.3231504 C14.1571196,17.1638362 14.1502411,16.9124394 13.9911488,16.7615569 L10.6990263,13.6509371 L11.3067721,13.6509371 C12.7044319,13.6507152 13.8895251,12.6231612 14.0876693,11.239702 L15.318249,11.239702 C15.5379161,11.239702 15.7158687,11.0617494 15.7158687,10.8420823 C15.7158687,10.6224151 15.5379161,10.4444625 15.318249,10.4444625 L14.0870036,10.4444625 C13.9989149,9.82939462 13.7089099,9.26114454 13.2624752,8.82891062 L15.318249,8.82891062 C15.5379161,8.82891062 15.7158687,8.65095808 15.7158687,8.43129092 Z" id="Path" stroke="#F78200" stroke-width="0.5" fill="#F58220"></path>
                        <path d="M24.9311295,3.50889938 C24.9311295,3.2428332 24.7153711,3.02680572 24.4490358,3.02680572 L21.9043238,3.02680572 L21.9043238,0.482093664 C21.9043238,0.215758402 21.6885654,0 21.4222301,0 C21.1558949,0 20.9401364,0.215758402 20.9401364,0.482093664 L20.9401364,3.02680572 L18.2506887,3.02680572 C17.9843534,3.02680572 17.768595,3.2428332 17.768595,3.50889938 C17.768595,3.77523457 17.9843534,3.99099304 18.2506887,3.99099304 L20.9401364,3.99099304 L20.9401364,6.68044077 C20.9401364,6.94677603 21.1558949,7.16253444 21.4222301,7.16253444 C21.6885654,7.16253444 21.9043238,6.94677603 21.9043238,6.68044077 L21.9043238,3.99099304 L24.4490358,3.99099304 C24.7153711,3.99099304 24.9311295,3.77523457 24.9311295,3.50889938 Z" id="Path" fill="#FFFFFF"></path>
                        <path d="M3.34398678,23.9556431 C3.37680785,24.1458441 3.52019842,24.2981125 3.70824725,24.3425017 C3.896027,24.3868909 4.09241563,24.3147921 4.20702052,24.1592954 L5.24007837,22.7574036 C7.27794635,24.1800103 9.70482521,24.9389312 12.1900826,24.9311295 C18.9119533,24.9311295 24.3801653,19.4629175 24.3801653,12.7410468 C24.3833936,11.1287771 24.0643293,9.53211088 23.4420734,8.04466901 C23.3376915,7.80173898 23.0570979,7.68794118 22.8130919,7.78990186 C22.5690857,7.89213154 22.4528667,8.17164904 22.5524062,8.41673127 C23.1254304,9.78633994 23.4189373,11.2565642 23.415978,12.7410468 C23.415978,18.9310541 18.3800899,23.9669421 12.1900826,23.9669421 C9.91089876,23.9742059 7.68444387,23.2809271 5.81229552,21.980727 L7.33928416,19.9086928 C7.45388905,19.753196 7.46465007,19.5441632 7.36645579,19.3779055 C7.26853044,19.2113787 7.08075069,19.119641 6.88920455,19.1443913 L3.10536116,19.6356319 C2.97488375,19.6523114 2.85705062,19.72172 2.7790332,19.827447 C2.70101584,19.9334431 2.66980888,20.0663417 2.69213802,20.196012 L3.34398678,23.9556431 Z M5.89273416,20.2460507 L4.7515281,21.7950994 L4.7515281,21.7956375 L4.10156253,22.6769649 L3.72896219,20.5263753 L5.89273416,20.2460507 Z" id="Shape" fill="#FFFFFF"></path>
                    </g>
                </g>
            </g>
        </g>
    </g>
</svg>