<?xml version="1.0" encoding="UTF-8"?>
<svg width="41px" height="36px" viewBox="0 0 41 36" version="1.1" xmlns="http://www.w3.org/2000/svg" xmlns:xlink="http://www.w3.org/1999/xlink">
    <!-- Generator: Sketch 53.2 (72643) - https://sketchapp.com -->
    <title>stp_hover</title>
    <desc>Created with Sketch.</desc>
    <g id="Page-1" stroke="none" stroke-width="1" fill="none" fill-rule="evenodd">
        <g id="Transact" transform="translate(-1018.000000, -628.000000)">
            <g id="Group-6" transform="translate(618.000000, 597.000000)">
                <g id="stp_hover" transform="translate(401.000000, 31.000000)">
                    <path d="M8.67874534,13.1871845 L2.84217094e-14,21.9786408 L8.67874534,30.7700972 L8.67874534,24.1765048 L23.8665497,24.1765048 L23.8665497,19.7807768 L8.67874534,19.7807768 L8.67874534,13.1871845 Z M39.0543541,8.79145634 L30.3756088,1.29674049e-13 L30.3756088,6.59359225 L15.1878044,6.59359225 L15.1878044,10.9893204 L30.3756088,10.9893204 L30.3756088,17.5829127 L39.0543541,8.79145634 Z" id="Shape" stroke="#F78200"></path>
                    <circle id="Oval-Copy" fill="#FFFFFF" fill-rule="nonzero" cx="26.3352941" cy="24.1406861" r="11.317647"></circle>
                    <path d="M37.2688901,22.7747574 C37.2003916,22.6345482 37.0541493,22.5448467 36.8923585,22.5448467 L35.6623266,22.5448467 C34.8802667,18.4642327 31.1536106,15.3622549 26.6869182,15.3622549 C21.6529067,15.3622549 17.5568627,19.3006393 17.5568627,24.1408883 C17.5568627,28.9811373 21.6524864,32.9191176 26.6869182,32.9191176 C29.9357656,32.9191176 32.9656697,31.2378191 34.5940857,28.5322253 C34.8235348,28.1503875 34.6882187,27.6626855 34.290675,27.4416642 C33.8939719,27.2206427 33.3863264,27.3507504 33.1572975,27.7325882 C31.8243077,29.9472476 29.3449131,31.32348 26.6869182,31.32348 C22.5681814,31.32348 19.2167964,28.1014961 19.2167964,24.1416964 C19.2167964,20.1810887 22.5681814,16.9591047 26.6869182,16.9591047 C30.2345535,16.9591047 33.2068854,19.3515511 33.9641513,22.5452507 L32.7437849,22.5452507 C32.5819939,22.5452507 32.4361719,22.6349522 32.3672531,22.7751615 C32.2987547,22.9153708 32.3210272,23.0806318 32.4244054,23.1998297 L34.4995324,25.5938923 C34.578537,25.6848062 34.6949424,25.7373341 34.8184918,25.7373341 C34.9416212,25.7373341 35.0584468,25.6844021 35.1370311,25.5938923 L37.2121584,23.1998297 C37.3155364,23.0802276 37.3373888,22.9149667 37.2688901,22.7747574 Z" id="Path" fill="#F78200" fill-rule="nonzero"></path>
                    <path d="M25.6835419,17.5568627 C25.1964887,17.5568627 24.8018463,17.9586424 24.8018463,18.454504 L24.8018463,23.9012546 C24.4031859,24.1857728 24.1406863,24.6548188 24.1406863,25.1874951 C24.1406863,26.0537757 24.8330963,26.758708 25.6839883,26.758708 C25.9170237,26.758708 26.1366662,26.7018953 26.3348804,26.6069044 L29.4018415,28.4090044 C29.5411269,28.4912693 29.6920197,28.5299019 29.8420196,28.5299019 C30.1464835,28.5299019 30.4429118,28.3690083 30.6063044,28.080854 C30.8496077,27.6522588 30.7054114,27.102766 30.2830905,26.8550625 L27.2130044,25.0502354 C27.1719331,24.5757354 26.9295226,24.1612298 26.5661301,23.9021637 L26.5661301,18.454504 C26.5652372,17.9590969 26.1701485,17.5568627 25.6835419,17.5568627 Z M25.6835419,25.8601578 C25.3188101,25.8601578 25.0223818,25.5579141 25.0223818,25.1874951 C25.0223818,24.8166215 25.3192565,24.5143778 25.6835419,24.5143778 C26.047827,24.5143778 26.3447017,24.8166215 26.3447017,25.1874951 C26.3447017,25.5579141 26.047827,25.8601578 25.6835419,25.8601578 Z" id="Shape" fill="#F78200" fill-rule="nonzero"></path>
                </g>
            </g>
        </g>
    </g>
</svg>