<?xml version="1.0" encoding="UTF-8"?>
<svg width="38px" height="36px" viewBox="0 0 38 36" version="1.1" xmlns="http://www.w3.org/2000/svg" xmlns:xlink="http://www.w3.org/1999/xlink">
    <!-- Generator: Sketch 63.1 (92452) - https://sketch.com -->
    <title>unlock</title>
    <desc>Created with Sketch.</desc>
    <g id="Page-1" stroke="none" stroke-width="1" fill="none" fill-rule="evenodd">
        <g id="Account-Locked-3" transform="translate(-1062.000000, -339.000000)" fill="#F58322" fill-rule="nonzero">
            <g id="unlock" transform="translate(1061.999891, 339.155216)">
                <path d="M24.8916783,29.4593179 C25.6802344,29.4593179 26.283248,28.8563044 26.283248,28.0677482 L26.283248,24.8207522 C26.283248,24.0321961 25.6802344,23.4291825 24.8916783,23.4291825 C24.1031221,23.4291825 23.5001086,24.0321961 23.5001086,24.8207522 L23.5001086,28.0677482 C23.5001086,28.8099188 24.1031221,29.4593179 24.8916783,29.4593179 Z" id="Path" stroke="#FFFFFF" stroke-width="0.9"></path>
                <path d="M9.42871685,0.273351429 C4.22011257,0.273351429 7.18326839e-05,4.49332286 7.18326839e-05,9.70193571 L7.18326839e-05,10.5590786 C-0.00624037725,11.0119071 0.404403908,11.4295929 0.857288194,11.4295929 C1.31017248,11.4295929 1.72083399,11.0119071 1.71443114,10.5590786 L1.71443114,9.70193571 C1.71443114,5.41338 5.14017828,1.98763714 9.42871685,1.98763714 C13.7172554,1.98763714 17.1430026,5.41338 17.1430026,9.70193571 L17.1430026,14.8447929 L14.571574,14.8447929 C13.1618269,14.8447929 12.0001454,16.0064786 12.0001454,17.4162214 L12.0001454,32.8447929 C12.0001454,34.2545357 13.1618269,35.4162214 14.571574,35.4162214 L35.1430026,35.4162214 C36.5527497,35.4162214 37.7144311,34.2545357 37.7144311,32.8447929 L37.7144311,17.4162214 C37.7144311,16.0064786 36.5527497,14.8447929 35.1430026,14.8447929 L18.8572883,14.8447929 L18.8572883,9.70193571 C18.8572883,4.49332286 14.6373211,0.273351429 9.42871685,0.273351429 Z M14.571574,16.5590786 L35.1430026,16.5590786 C35.6326883,16.5590786 36.0001454,16.9265357 36.0001454,17.4162214 L36.0001454,32.8447929 C36.0001454,33.3344786 35.6326883,33.7019357 35.1430026,33.7019357 L14.571574,33.7019357 C14.0818883,33.7019357 13.7144311,33.3344786 13.7144311,32.8447929 L13.7144311,17.4162214 C13.7144311,16.9265357 14.0818883,16.5590786 14.571574,16.5590786 Z" id="Shape"></path>
            </g>
        </g>
    </g>
</svg>