<svg width="18" height="16" viewBox="0 0 18 16" fill="none" xmlns="http://www.w3.org/2000/svg">
<path d="M5.45046 4.93445L7.74187 2.6432V12.1289C7.74187 12.5565 8.0885 12.9031 8.51606 12.9031C8.94362 12.9031 9.29025 12.5565 9.29025 12.1289V2.64325L11.5815 4.93445C11.7326 5.08563 11.9308 5.16124 12.1289 5.16124C12.327 5.16124 12.5251 5.08568 12.6763 4.93445C12.9787 4.6321 12.9787 4.14194 12.6763 3.83959L9.06367 0.22689C9.04551 0.208774 9.02646 0.191639 9.00669 0.175381C8.99813 0.168361 8.98909 0.162271 8.98037 0.155716C8.96891 0.147097 8.95771 0.138323 8.94579 0.130323C8.93511 0.123148 8.92401 0.116955 8.91302 0.1104C8.90233 0.103948 8.89185 0.0972903 8.88081 0.0913548C8.86961 0.0853677 8.85815 0.0803613 8.84669 0.0749419C8.83518 0.0695226 8.82393 0.0637935 8.81211 0.0588903C8.80107 0.0543484 8.78982 0.0506323 8.77862 0.0466065C8.76602 0.0420645 8.75358 0.0372129 8.74063 0.0332903C8.72948 0.0299355 8.71818 0.0275097 8.70698 0.024671C8.69376 0.0213161 8.68065 0.0176 8.66724 0.0149161C8.65433 0.0123871 8.64127 0.0108903 8.62827 0.00898064C8.61635 0.00722581 8.60453 0.00500645 8.5924 0.00381935C8.56855 0.00149677 8.54465 0.00036129 8.52071 0.000206452C8.51916 0.000206452 8.51766 0 8.51611 0C8.51462 0 8.51307 0.000206452 8.51157 0.000206452C8.48762 0.000309677 8.46367 0.00149677 8.43978 0.00381935C8.42796 0.00500645 8.4164 0.00717419 8.40468 0.00887742C8.39136 0.0107871 8.37805 0.0123355 8.36489 0.0149677C8.35178 0.0175484 8.33908 0.0211613 8.32623 0.0244129C8.31456 0.0273548 8.3029 0.0299355 8.29134 0.0333935C8.2789 0.0371613 8.26677 0.0418581 8.25459 0.0462452C8.24298 0.0504258 8.23126 0.0542452 8.2198 0.0589935C8.20845 0.0636903 8.19761 0.0692129 8.18656 0.0744258C8.17469 0.08 8.16272 0.0853161 8.15105 0.0915097C8.14053 0.0971355 8.13062 0.103535 8.12034 0.109626C8.10884 0.116439 8.09727 0.122942 8.08607 0.130426C8.07487 0.13791 8.0644 0.146271 8.05361 0.154271C8.04411 0.161342 8.03446 0.167897 8.02527 0.175484C8.00644 0.190916 7.98842 0.207277 7.97113 0.224361C7.97031 0.225187 7.96943 0.225858 7.96855 0.226684L4.35565 3.83954C4.05335 4.14188 4.0533 4.63205 4.35565 4.9344C4.65794 5.2368 5.14816 5.2367 5.45046 4.93445Z" fill="#F58220"/>
<path d="M16.2581 7.74219C15.8305 7.74219 15.4839 8.08882 15.4839 8.51638V14.4519H1.54839V8.51638C1.54839 8.08882 1.20175 7.74219 0.774194 7.74219C0.346632 7.74219 0 8.08882 0 8.51638V15.2261C0 15.6536 0.346632 16.0003 0.774194 16.0003H16.2581C16.6856 16.0003 17.0323 15.6536 17.0323 15.2261V8.51638C17.0323 8.08882 16.6856 7.74219 16.2581 7.74219Z" fill="#F58220"/>
</svg>
