<svg width="15" height="16" viewBox="0 0 15 16" fill="none" xmlns="http://www.w3.org/2000/svg">
<path fill-rule="evenodd" clip-rule="evenodd" d="M0.0136719 15.4156C0.0136719 11.286 2.61399 9.01172 7.33555 9.01172C12.0571 9.01172 14.6574 11.2862 14.6574 15.4156C14.6574 15.7382 14.4007 15.9996 14.0839 15.9996H0.587182C0.27041 15.9996 0.0136719 15.7382 0.0136719 15.4156ZM7.33555 10.1796C3.47465 10.1796 1.40715 11.744 1.18156 14.8317H13.4897C13.264 11.744 11.1964 10.1796 7.33555 10.1796Z" fill="#AAB2BA"/>
<path fill-rule="evenodd" clip-rule="evenodd" d="M3.53125 3.95116C3.53125 1.69869 5.1667 0 7.33555 0C9.5044 0 11.1398 1.69869 11.1398 3.95134C11.1398 6.26959 9.43325 8.15553 7.33555 8.15553C5.23785 8.15553 3.53125 6.26959 3.53125 3.95116ZM4.67827 3.95134C4.67827 5.62569 5.87022 6.98784 7.33555 6.98784C8.80088 6.98784 9.99283 5.62569 9.99283 3.95134C9.99283 2.36438 8.8506 1.16788 7.33555 1.16788C5.79586 1.16788 4.67827 2.3385 4.67827 3.95134Z" fill="#AAB2BA"/>
</svg>
