<svg width="15" height="16" viewBox="0 0 15 16" fill="none" xmlns="http://www.w3.org/2000/svg">
<path fill-rule="evenodd" clip-rule="evenodd" d="M0.0135498 15.4161C0.0135498 11.2865 2.61387 9.01221 7.33542 9.01221C12.057 9.01221 14.6573 11.2867 14.6573 15.4161C14.6573 15.7386 14.4005 16.0001 14.0838 16.0001H0.58706C0.270288 16.0001 0.0135498 15.7386 0.0135498 15.4161ZM7.33542 10.1801C3.47453 10.1801 1.40703 11.7445 1.18144 14.8322H13.4896C13.2639 11.7445 11.1963 10.1801 7.33542 10.1801Z" fill="#003974"/>
<path fill-rule="evenodd" clip-rule="evenodd" d="M3.53113 3.95116C3.53113 1.69869 5.16658 0 7.33543 0C9.50428 0 11.1397 1.69869 11.1397 3.95134C11.1397 6.26959 9.43313 8.15553 7.33543 8.15553C5.23772 8.15553 3.53113 6.26959 3.53113 3.95116ZM4.67815 3.95134C4.67815 5.62569 5.8701 6.98784 7.33543 6.98784C8.80075 6.98784 9.99271 5.62569 9.99271 3.95134C9.99271 2.36438 8.85047 1.16788 7.33543 1.16788C5.79573 1.16788 4.67815 2.3385 4.67815 3.95134Z" fill="#003974"/>
</svg>
