<svg width="790" height="142" viewBox="0 0 790 142" fill="none" xmlns="http://www.w3.org/2000/svg">
<rect width="790" height="142" rx="6" fill="#FFE8BF"/>
<mask id="mask0" mask-type="alpha" maskUnits="userSpaceOnUse" x="0" y="0" width="790" height="142">
<rect width="790" height="142" rx="6" fill="white"/>
</mask>
<g mask="url(#mask0)">
<path fill-rule="evenodd" clip-rule="evenodd" d="M1.08326 148.024C11.9459 137.734 26.3389 132 41.3009 132H194.877C207.821 132 220.295 136.848 229.842 145.59C230.188 145.907 229.967 146.484 229.498 146.489L1.49196 149.033C0.960105 149.039 0.6971 148.389 1.08326 148.024Z" fill="#F58220" fill-opacity="0.150814"/>
<path fill-rule="evenodd" clip-rule="evenodd" d="M731.953 -22.1152C740.045 16.0949 775.506 42.162 814.39 38.4843L937.547 26.8361C950.569 25.6045 962.833 20.159 972.48 11.3259C972.855 10.9825 972.661 10.3574 972.157 10.2873L732.811 -23.0358C732.284 -23.1093 731.843 -22.6365 731.953 -22.1152Z" fill="#F58220" fill-opacity="0.150814"/>
</g>
<path fill-rule="evenodd" clip-rule="evenodd" d="M193.763 24.6462L164.757 34.2392L170.58 39.0922V39.0923L145.481 65.3665L123.481 46.4766L35.6611 118.433L36.4344 118.445H58.3114L123.265 65.2248L146.459 85.1394L181.639 48.3102L181.64 48.3098L187.925 53.548L193.763 24.6462Z" fill="#F58220" fill-opacity="0.536905"/>
<path fill-rule="evenodd" clip-rule="evenodd" d="M90.9013 117.938L84.2382 117.364C84.2382 117.364 84.6234 113.256 83.4512 107.777C82.5863 103.73 80.8716 98.9347 77.5255 94.4934C71.8191 86.9197 54.869 82.6828 54.869 82.6828V81.7024L55.4784 81.6363C55.4784 81.6363 55.2157 81.4531 54.869 81.347V79.0293C55.3699 79.0221 56.0869 79.0521 56.7953 79.2179C56.3982 79.1189 55.5514 78.9247 54.869 78.872V77.6533C79.4226 78.3099 87.4302 93.141 89.9397 104.619C91.5468 111.965 90.9013 117.938 90.9013 117.938Z" fill="#67B475"/>
<path fill-rule="evenodd" clip-rule="evenodd" d="M120.063 115.782L90.9014 117.938C90.7505 113.446 89.5782 108.801 88.4444 105.279C87.3107 101.758 86.2139 99.3592 86.2139 99.3592C77.4901 80.244 54.869 77.6533 54.869 77.6533L79.9761 67.3713C92.1051 68.284 100.614 74.1091 106.566 81.4232C118.222 95.7481 120.063 115.782 120.063 115.782Z" fill="#95D39E"/>
<path fill-rule="evenodd" clip-rule="evenodd" d="M120.063 115.782L90.9013 117.938L84.2381 117.364C84.2381 117.364 84.6234 113.256 83.4512 107.777C84.8404 106.941 86.4923 106.105 88.4444 105.279C88.9571 105.063 89.4555 104.842 89.9398 104.619C108.507 96.0493 106.777 82.7001 106.566 81.4232C118.222 95.7481 120.063 115.782 120.063 115.782Z" fill="#67B475"/>
<path fill-rule="evenodd" clip-rule="evenodd" d="M92.8001 116.679L116.955 117.147L117.19 113.103C117.293 110.444 116.497 106.526 114.886 101.771C113.662 98.1575 112.392 95.3174 112.379 95.2891C109.785 89.348 106.482 84.3102 102.56 80.3116C99.4268 77.1169 95.8927 74.5737 92.056 72.7527C87.8929 70.7767 84.2629 70.0883 82.1615 69.8492C81.0583 69.7236 79.9416 69.8722 78.9098 70.2827L64.852 75.8774C64.1187 76.1692 64.1559 77.2175 64.9072 77.4594C71.7436 79.6605 77.435 82.81 81.8626 86.8468C86.0117 90.6299 89.0635 95.1934 90.933 100.411C92.5948 105.048 92.9941 109.354 93.0364 112.149C93.0693 114.318 92.9032 115.915 92.8001 116.679ZM117.77 118.027L91.7815 117.525L91.8731 117.024C91.887 116.948 93.2216 109.329 90.1057 100.665C88.2802 95.5899 85.3043 91.1498 81.2606 87.4683C76.1945 82.8562 69.4244 79.4233 61.1381 77.265L59.8616 76.9326L80.1457 68.8601L80.2236 68.8582C80.443 68.8533 85.6673 68.7745 92.3828 71.9504C96.319 73.8122 99.943 76.4133 103.154 79.6819C107.16 83.7599 110.53 88.8931 113.17 94.939C113.379 95.4035 118.315 106.486 118.054 113.14L118.054 113.149L117.77 118.027Z" fill="#67B475"/>
<path fill-rule="evenodd" clip-rule="evenodd" d="M103.786 88.1664C103.786 92.4477 101.278 95.0346 96.9966 95.0346C92.7153 95.0346 88.2821 92.4477 88.2821 88.1664C88.2821 83.8851 90.6532 81.3245 94.9345 81.3245C99.2159 81.3245 103.786 83.8851 103.786 88.1664Z" fill="#67B475"/>
<path fill-rule="evenodd" clip-rule="evenodd" d="M142.712 131.89V134.448C142.712 134.652 142.65 134.841 142.543 134.998C142.431 135.164 142.269 135.294 142.08 135.367C142.022 135.39 141.962 135.407 141.9 135.418C141.843 135.428 141.785 135.434 141.726 135.434H100.978C100.453 135.434 100.02 135.017 99.9931 134.499C99.9926 134.482 99.9921 134.465 99.9921 134.448V131.89C99.9921 131.873 99.9926 131.856 99.9931 131.839C100.02 131.32 100.453 130.904 100.978 130.904H141.726C141.785 130.904 141.843 130.909 141.9 130.92C141.962 130.931 142.022 130.948 142.08 130.97C142.269 131.043 142.431 131.174 142.543 131.339C142.65 131.497 142.712 131.686 142.712 131.89Z" fill="#FFBA2C"/>
<path fill-rule="evenodd" clip-rule="evenodd" d="M122.702 135.434H100.872C100.403 135.434 100.017 135.018 99.9932 134.499C99.9926 134.482 99.9921 134.465 99.9921 134.448V131.89C99.9921 131.873 99.9926 131.856 99.9932 131.839C100.017 131.32 100.403 130.904 100.872 130.904H120.022C120.327 132.238 121.04 134.082 122.702 135.434Z" fill="#FFA500"/>
<path fill-rule="evenodd" clip-rule="evenodd" d="M137.29 135.434H137.753V130.904H137.29V135.434Z" fill="#FFA500"/>
<path fill-rule="evenodd" clip-rule="evenodd" d="M135.723 135.434H136.186V130.904H135.723V135.434Z" fill="#FFA500"/>
<path fill-rule="evenodd" clip-rule="evenodd" d="M133.843 135.434H134.306V130.904H133.843V135.434Z" fill="#FFA500"/>
<path fill-rule="evenodd" clip-rule="evenodd" d="M130.961 135.434H131.424V130.904H130.961V135.434Z" fill="#FFA500"/>
<path fill-rule="evenodd" clip-rule="evenodd" d="M127.914 135.434H128.377V130.904H127.914V135.434Z" fill="#FFA500"/>
<path fill-rule="evenodd" clip-rule="evenodd" d="M123.243 135.434H123.706V130.904H123.243V135.434Z" fill="#FFA500"/>
<path fill-rule="evenodd" clip-rule="evenodd" d="M118.869 135.434H119.332V130.904H118.869V135.434Z" fill="#FFA500"/>
<path fill-rule="evenodd" clip-rule="evenodd" d="M114.964 135.434H115.427V130.904H114.964V135.434Z" fill="#FFA500"/>
<path fill-rule="evenodd" clip-rule="evenodd" d="M138.783 135.434H139.246V130.904H138.783V135.434Z" fill="#FFA500"/>
<path fill-rule="evenodd" clip-rule="evenodd" d="M139.768 135.434H140.231V130.904H139.768V135.434Z" fill="#FFA500"/>
<path fill-rule="evenodd" clip-rule="evenodd" d="M140.72 135.434H141.183V130.904H140.72V135.434Z" fill="#FFA500"/>
<path fill-rule="evenodd" clip-rule="evenodd" d="M141.9 130.92V135.418C141.843 135.428 141.785 135.434 141.726 135.434H141.436V130.904H141.726C141.785 130.904 141.843 130.909 141.9 130.92Z" fill="#FFA500"/>
<path fill-rule="evenodd" clip-rule="evenodd" d="M142.543 131.339V134.998C142.431 135.164 142.269 135.294 142.08 135.367V130.97C142.269 131.043 142.431 131.174 142.543 131.339Z" fill="#FFA500"/>
<path fill-rule="evenodd" clip-rule="evenodd" d="M138.355 127.36V129.918C138.355 130.122 138.293 130.311 138.186 130.468C138.074 130.634 137.913 130.764 137.723 130.837C137.666 130.86 137.605 130.877 137.543 130.888C137.486 130.898 137.429 130.904 137.369 130.904H96.6213C96.0958 130.904 95.6631 130.488 95.6364 129.969C95.6359 129.952 95.6353 129.935 95.6353 129.918V127.36C95.6353 127.343 95.6359 127.326 95.6364 127.309C95.6631 126.79 96.0958 126.374 96.6213 126.374H137.369C137.395 126.374 137.421 126.375 137.447 126.377C137.458 126.378 137.469 126.379 137.48 126.381C137.492 126.382 137.505 126.383 137.517 126.385C137.526 126.387 137.534 126.388 137.543 126.39C137.605 126.401 137.666 126.417 137.723 126.44C137.732 126.444 137.74 126.447 137.749 126.451C137.757 126.454 137.766 126.458 137.774 126.462C137.79 126.469 137.807 126.477 137.824 126.486C137.833 126.49 137.843 126.496 137.852 126.501C137.861 126.506 137.869 126.511 137.877 126.516C137.893 126.525 137.908 126.535 137.923 126.546C137.941 126.558 137.958 126.57 137.974 126.583C137.987 126.593 138 126.603 138.012 126.614C138.013 126.615 138.014 126.615 138.014 126.616C138.023 126.624 138.031 126.631 138.04 126.639C138.065 126.662 138.089 126.687 138.111 126.712C138.118 126.72 138.125 126.728 138.131 126.735C138.137 126.743 138.143 126.751 138.15 126.759C138.162 126.776 138.175 126.793 138.186 126.809C138.293 126.967 138.355 127.156 138.355 127.36Z" fill="#FFBA2C"/>
<path fill-rule="evenodd" clip-rule="evenodd" d="M118.346 130.904H96.5156C96.0462 130.904 95.6604 130.488 95.6365 129.969C95.6359 129.952 95.6353 129.935 95.6353 129.918V127.36C95.6353 127.343 95.6359 127.326 95.6365 127.309C95.6604 126.79 96.0462 126.374 96.5156 126.374H115.664C115.673 126.411 115.682 126.448 115.691 126.486C116.011 127.809 116.729 129.589 118.346 130.904Z" fill="#FFA500"/>
<path fill-rule="evenodd" clip-rule="evenodd" d="M132.934 130.904H133.397V126.374H132.934V130.904Z" fill="#FFA500"/>
<path fill-rule="evenodd" clip-rule="evenodd" d="M131.366 130.904H131.829V126.374H131.366V130.904Z" fill="#FFA500"/>
<path fill-rule="evenodd" clip-rule="evenodd" d="M129.486 130.904H129.949V126.374H129.486V130.904Z" fill="#FFA500"/>
<path fill-rule="evenodd" clip-rule="evenodd" d="M126.604 130.904H127.068V126.374H126.604V130.904Z" fill="#FFA500"/>
<path fill-rule="evenodd" clip-rule="evenodd" d="M123.557 130.904H124.021V126.374H123.557V130.904Z" fill="#FFA500"/>
<path fill-rule="evenodd" clip-rule="evenodd" d="M118.886 130.904H119.349V126.374H118.886V130.904Z" fill="#FFA500"/>
<path fill-rule="evenodd" clip-rule="evenodd" d="M114.512 130.904H114.975V126.374H114.512V130.904Z" fill="#FFA500"/>
<path fill-rule="evenodd" clip-rule="evenodd" d="M110.607 130.904H111.07V126.374H110.607V130.904Z" fill="#FFA500"/>
<path fill-rule="evenodd" clip-rule="evenodd" d="M134.426 130.904H134.889V126.374H134.426V130.904Z" fill="#FFA500"/>
<path fill-rule="evenodd" clip-rule="evenodd" d="M135.412 130.904H135.875V126.374H135.412V130.904Z" fill="#FFA500"/>
<path fill-rule="evenodd" clip-rule="evenodd" d="M136.364 130.904H136.827V126.374H136.364V130.904Z" fill="#FFA500"/>
<path fill-rule="evenodd" clip-rule="evenodd" d="M137.543 126.39V130.888C137.486 130.898 137.429 130.904 137.369 130.904H137.08V126.374H137.369C137.429 126.374 137.486 126.379 137.543 126.39Z" fill="#FFA500"/>
<path fill-rule="evenodd" clip-rule="evenodd" d="M138.186 126.809V130.468C138.074 130.634 137.913 130.764 137.723 130.837V126.44C137.913 126.513 138.074 126.644 138.186 126.809Z" fill="#FFA500"/>
<path fill-rule="evenodd" clip-rule="evenodd" d="M140.46 122.942V125.5C140.46 125.704 140.398 125.893 140.291 126.05C140.179 126.216 140.018 126.346 139.829 126.419C139.771 126.442 139.71 126.459 139.648 126.47C139.592 126.48 139.534 126.486 139.474 126.486H98.7265C98.563 126.486 98.4082 126.445 98.272 126.374C97.9837 126.223 97.7776 125.933 97.745 125.595C97.7433 125.58 97.7423 125.565 97.7417 125.55C97.7412 125.534 97.7406 125.517 97.7406 125.5V122.942C97.7406 122.925 97.7412 122.908 97.7417 122.891C97.7684 122.372 98.2011 121.956 98.7265 121.956H139.474C139.534 121.956 139.592 121.961 139.648 121.972C139.71 121.982 139.771 121.999 139.829 122.022C140.018 122.095 140.179 122.225 140.291 122.391C140.398 122.549 140.46 122.738 140.46 122.942Z" fill="#FFBA2C"/>
<path fill-rule="evenodd" clip-rule="evenodd" d="M120.451 126.486H98.6208C98.4748 126.486 98.3369 126.445 98.2153 126.374C97.9575 126.223 97.7739 125.933 97.745 125.595C97.7433 125.58 97.7423 125.565 97.7418 125.55C97.7412 125.534 97.7406 125.517 97.7406 125.5V122.942C97.7406 122.925 97.7412 122.908 97.7418 122.891C97.7657 122.372 98.1521 121.956 98.6208 121.956H117.77C118.068 123.253 118.75 125.033 120.317 126.374C120.361 126.411 120.406 126.449 120.451 126.486Z" fill="#FFA500"/>
<path fill-rule="evenodd" clip-rule="evenodd" d="M135.039 126.486H135.502V121.956H135.039V126.486Z" fill="#FFA500"/>
<path fill-rule="evenodd" clip-rule="evenodd" d="M133.471 126.486H133.935V121.956H133.471V126.486Z" fill="#FFA500"/>
<path fill-rule="evenodd" clip-rule="evenodd" d="M131.592 126.486H132.055V121.956H131.592V126.486Z" fill="#FFA500"/>
<path fill-rule="evenodd" clip-rule="evenodd" d="M128.71 126.486H129.173V121.956H128.71V126.486Z" fill="#FFA500"/>
<path fill-rule="evenodd" clip-rule="evenodd" d="M125.663 126.486H126.126V121.956H125.663V126.486Z" fill="#FFA500"/>
<path fill-rule="evenodd" clip-rule="evenodd" d="M120.991 126.486H121.455V121.956H120.991V126.486Z" fill="#FFA500"/>
<path fill-rule="evenodd" clip-rule="evenodd" d="M116.618 126.486H117.081V121.956H116.618V126.486Z" fill="#FFA500"/>
<path fill-rule="evenodd" clip-rule="evenodd" d="M112.712 126.486H113.175V121.956H112.712V126.486Z" fill="#FFA500"/>
<path fill-rule="evenodd" clip-rule="evenodd" d="M136.531 126.486H136.994V121.956H136.531V126.486Z" fill="#FFA500"/>
<path fill-rule="evenodd" clip-rule="evenodd" d="M137.517 126.486H137.98V121.956H137.517V126.486Z" fill="#FFA500"/>
<path fill-rule="evenodd" clip-rule="evenodd" d="M138.469 126.486H138.932V121.956H138.469V126.486Z" fill="#FFA500"/>
<path fill-rule="evenodd" clip-rule="evenodd" d="M139.648 121.971V126.47C139.592 126.48 139.534 126.486 139.474 126.486H139.185V121.956H139.474C139.534 121.956 139.592 121.961 139.648 121.971Z" fill="#FFA500"/>
<path fill-rule="evenodd" clip-rule="evenodd" d="M140.292 122.391V126.05C140.179 126.216 140.018 126.346 139.829 126.419V122.022C140.018 122.095 140.179 122.225 140.292 122.391Z" fill="#FFA500"/>
<path fill-rule="evenodd" clip-rule="evenodd" d="M141.436 118.412V120.97C141.436 121.174 141.374 121.363 141.267 121.52C141.155 121.686 140.994 121.816 140.805 121.889C140.747 121.912 140.687 121.929 140.624 121.94C140.568 121.95 140.51 121.956 140.451 121.956H99.7026C99.1773 121.956 98.7445 121.539 98.7178 121.021C98.7173 121.004 98.7167 120.987 98.7167 120.97V118.412C98.7167 118.395 98.7173 118.378 98.7178 118.361C98.7424 117.881 99.1146 117.489 99.5859 117.433C99.6241 117.428 99.6628 117.426 99.7026 117.426H140.451C140.51 117.426 140.568 117.431 140.624 117.442C140.687 117.452 140.747 117.469 140.805 117.492C140.994 117.565 141.155 117.695 141.267 117.861C141.374 118.019 141.436 118.208 141.436 118.412Z" fill="#FFBA2C"/>
<path fill-rule="evenodd" clip-rule="evenodd" d="M121.427 121.956H99.597C99.1282 121.956 98.7417 121.539 98.7178 121.021C98.7173 121.004 98.7167 120.987 98.7167 120.97V118.412C98.7167 118.395 98.7173 118.378 98.7178 118.361C98.7397 117.881 99.072 117.489 99.4928 117.433C99.5266 117.428 99.5614 117.426 99.597 117.426H118.746C118.747 117.428 118.747 117.431 118.748 117.433C119.055 118.765 119.768 120.606 121.427 121.956Z" fill="#FFA500"/>
<path fill-rule="evenodd" clip-rule="evenodd" d="M136.015 121.956H136.478V117.426H136.015V121.956Z" fill="#FFA500"/>
<path fill-rule="evenodd" clip-rule="evenodd" d="M134.447 121.956H134.911V117.426H134.447V121.956Z" fill="#FFA500"/>
<path fill-rule="evenodd" clip-rule="evenodd" d="M132.568 121.956H133.031V117.426H132.568V121.956Z" fill="#FFA500"/>
<path fill-rule="evenodd" clip-rule="evenodd" d="M129.686 121.956H130.149V117.426H129.686V121.956Z" fill="#FFA500"/>
<path fill-rule="evenodd" clip-rule="evenodd" d="M126.639 121.956H127.102V117.426H126.639V121.956Z" fill="#FFA500"/>
<path fill-rule="evenodd" clip-rule="evenodd" d="M121.968 121.956H122.431V117.426H121.968V121.956Z" fill="#FFA500"/>
<path fill-rule="evenodd" clip-rule="evenodd" d="M117.594 121.956H118.057V117.426H117.594V121.956Z" fill="#FFA500"/>
<path fill-rule="evenodd" clip-rule="evenodd" d="M113.688 121.956H114.151V117.426H113.688V121.956Z" fill="#FFA500"/>
<path fill-rule="evenodd" clip-rule="evenodd" d="M137.507 121.956H137.97V117.426H137.507V121.956Z" fill="#FFA500"/>
<path fill-rule="evenodd" clip-rule="evenodd" d="M138.493 121.956H138.956V117.426H138.493V121.956Z" fill="#FFA500"/>
<path fill-rule="evenodd" clip-rule="evenodd" d="M139.445 121.956H139.908V117.426H139.445V121.956Z" fill="#FFA500"/>
<path fill-rule="evenodd" clip-rule="evenodd" d="M140.624 117.441V121.94C140.568 121.95 140.51 121.955 140.451 121.955H140.161V117.426H140.451C140.51 117.426 140.568 117.431 140.624 117.441Z" fill="#FFA500"/>
<path fill-rule="evenodd" clip-rule="evenodd" d="M141.267 117.861V121.52C141.155 121.686 140.994 121.816 140.805 121.889V117.492C140.994 117.565 141.155 117.695 141.267 117.861Z" fill="#FFA500"/>
<path fill-rule="evenodd" clip-rule="evenodd" d="M138.441 113.889V116.447C138.441 116.651 138.379 116.84 138.272 116.997C138.159 117.163 137.998 117.293 137.809 117.366C137.751 117.389 137.691 117.406 137.629 117.417C137.61 117.42 137.59 117.424 137.571 117.426C137.561 117.427 137.55 117.428 137.539 117.429C137.529 117.43 137.518 117.431 137.507 117.431C137.49 117.432 137.472 117.433 137.455 117.433H96.7069C96.1815 117.433 95.7488 117.016 95.7221 116.498C95.7216 116.481 95.7209 116.464 95.7209 116.447V113.889C95.7209 113.872 95.7216 113.855 95.7221 113.838C95.7227 113.824 95.7238 113.81 95.7248 113.797C95.764 113.379 96.067 113.035 96.4638 112.933C96.4736 112.931 96.4839 112.928 96.4938 112.926C96.5624 112.911 96.6337 112.903 96.7069 112.903H137.455C137.485 112.903 137.514 112.904 137.543 112.907C137.556 112.908 137.569 112.909 137.582 112.911H137.583C137.598 112.913 137.613 112.916 137.629 112.919C137.691 112.93 137.751 112.946 137.809 112.969C137.998 113.042 138.159 113.173 138.272 113.338C138.379 113.496 138.441 113.685 138.441 113.889Z" fill="#FFBA2C"/>
<path fill-rule="evenodd" clip-rule="evenodd" d="M118.431 117.433H96.6011C96.1324 117.433 95.7459 117.016 95.722 116.498C95.7214 116.481 95.7208 116.464 95.7208 116.447V113.889C95.7208 113.872 95.7214 113.855 95.722 113.838C95.7225 113.824 95.7236 113.81 95.7247 113.797C95.7601 113.37 96.0418 113.02 96.4075 112.927C96.42 112.923 96.4326 112.921 96.4453 112.919C96.4958 112.908 96.5476 112.903 96.6011 112.903H115.75C115.753 112.914 115.755 112.924 115.758 112.935C116.067 114.264 116.78 116.085 118.422 117.426C118.425 117.428 118.429 117.431 118.431 117.433Z" fill="#FFA500"/>
<path fill-rule="evenodd" clip-rule="evenodd" d="M133.019 117.433H133.482V112.903H133.019V117.433Z" fill="#FFA500"/>
<path fill-rule="evenodd" clip-rule="evenodd" d="M131.452 117.433H131.915V112.903H131.452V117.433Z" fill="#FFA500"/>
<path fill-rule="evenodd" clip-rule="evenodd" d="M129.572 117.433H130.035V112.903H129.572V117.433Z" fill="#FFA500"/>
<path fill-rule="evenodd" clip-rule="evenodd" d="M126.69 117.433H127.153V112.903H126.69V117.433Z" fill="#FFA500"/>
<path fill-rule="evenodd" clip-rule="evenodd" d="M123.643 117.433H124.106V112.903H123.643V117.433Z" fill="#FFA500"/>
<path fill-rule="evenodd" clip-rule="evenodd" d="M118.972 117.433H119.435V112.903H118.972V117.433Z" fill="#FFA500"/>
<path fill-rule="evenodd" clip-rule="evenodd" d="M114.598 117.433H115.061V112.903H114.598V117.433Z" fill="#FFA500"/>
<path fill-rule="evenodd" clip-rule="evenodd" d="M110.692 117.433H111.155V112.903H110.692V117.433Z" fill="#FFA500"/>
<path fill-rule="evenodd" clip-rule="evenodd" d="M134.511 117.433H134.975V112.903H134.511V117.433Z" fill="#FFA500"/>
<path fill-rule="evenodd" clip-rule="evenodd" d="M135.497 117.433H135.96V112.903H135.497V117.433Z" fill="#FFA500"/>
<path fill-rule="evenodd" clip-rule="evenodd" d="M136.449 117.433H136.912V112.903H136.449V117.433Z" fill="#FFA500"/>
<path fill-rule="evenodd" clip-rule="evenodd" d="M137.629 112.918V117.417C137.572 117.427 137.514 117.433 137.455 117.433H137.165V112.903H137.455C137.514 112.903 137.572 112.908 137.629 112.918Z" fill="#FFA500"/>
<path fill-rule="evenodd" clip-rule="evenodd" d="M138.272 113.338V116.997C138.16 117.163 137.998 117.293 137.809 117.366V112.969C137.998 113.042 138.16 113.172 138.272 113.338Z" fill="#FFA500"/>
<path fill-rule="evenodd" clip-rule="evenodd" d="M138.355 109.391V111.949C138.355 112.153 138.293 112.342 138.186 112.5C138.074 112.665 137.913 112.795 137.723 112.869C137.678 112.886 137.631 112.901 137.583 112.911H137.582C137.569 112.914 137.556 112.917 137.543 112.919C137.486 112.93 137.429 112.935 137.369 112.935H96.6213C96.5782 112.935 96.5351 112.932 96.4937 112.926C96.4773 112.925 96.461 112.922 96.4453 112.919C96.0021 112.839 95.6599 112.459 95.6364 112C95.6359 111.983 95.6353 111.966 95.6353 111.949V109.391C95.6353 109.374 95.6359 109.357 95.6364 109.34C95.6631 108.821 96.0958 108.405 96.6213 108.405H137.369C137.395 108.405 137.421 108.406 137.447 108.408C137.458 108.409 137.469 108.41 137.48 108.412C137.492 108.413 137.505 108.414 137.517 108.416C137.526 108.418 137.534 108.419 137.543 108.421C137.605 108.432 137.666 108.449 137.723 108.472C137.732 108.475 137.74 108.478 137.749 108.482C137.757 108.485 137.766 108.489 137.774 108.493C137.791 108.5 137.807 108.509 137.824 108.517C137.842 108.527 137.86 108.536 137.877 108.547C137.893 108.557 137.908 108.566 137.923 108.577C137.941 108.589 137.958 108.601 137.974 108.614C137.987 108.624 138 108.634 138.012 108.645C138.013 108.646 138.014 108.646 138.014 108.648C138.023 108.655 138.031 108.662 138.04 108.67C138.065 108.693 138.089 108.718 138.111 108.743C138.118 108.751 138.125 108.759 138.131 108.766C138.137 108.775 138.143 108.782 138.15 108.79C138.162 108.807 138.175 108.824 138.186 108.84C138.293 108.998 138.355 109.187 138.355 109.391Z" fill="#FFBA2C"/>
<path fill-rule="evenodd" clip-rule="evenodd" d="M118.346 112.935H96.5156C96.498 112.935 96.4806 112.934 96.4638 112.933C96.4447 112.932 96.4261 112.93 96.4076 112.927C95.9879 112.87 95.6582 112.478 95.6365 112C95.6359 111.983 95.6353 111.966 95.6353 111.949V109.391C95.6353 109.374 95.6359 109.357 95.6365 109.34C95.6604 108.821 96.0462 108.405 96.5156 108.405H115.664C115.673 108.442 115.682 108.479 115.691 108.517C116.008 109.829 116.717 111.591 118.306 112.903C118.32 112.914 118.333 112.924 118.346 112.935Z" fill="#FFA500"/>
<path fill-rule="evenodd" clip-rule="evenodd" d="M132.934 112.935H133.397V108.405H132.934V112.935Z" fill="#FFA500"/>
<path fill-rule="evenodd" clip-rule="evenodd" d="M131.366 112.935H131.829V108.405H131.366V112.935Z" fill="#FFA500"/>
<path fill-rule="evenodd" clip-rule="evenodd" d="M129.486 112.935H129.949V108.405H129.486V112.935Z" fill="#FFA500"/>
<path fill-rule="evenodd" clip-rule="evenodd" d="M126.604 112.935H127.068V108.405H126.604V112.935Z" fill="#FFA500"/>
<path fill-rule="evenodd" clip-rule="evenodd" d="M123.557 112.935H124.021V108.405H123.557V112.935Z" fill="#FFA500"/>
<path fill-rule="evenodd" clip-rule="evenodd" d="M118.886 112.935H119.349V108.405H118.886V112.935Z" fill="#FFA500"/>
<path fill-rule="evenodd" clip-rule="evenodd" d="M114.512 112.935H114.975V108.405H114.512V112.935Z" fill="#FFA500"/>
<path fill-rule="evenodd" clip-rule="evenodd" d="M110.607 112.935H111.07V108.405H110.607V112.935Z" fill="#FFA500"/>
<path fill-rule="evenodd" clip-rule="evenodd" d="M134.426 112.935H134.889V108.405H134.426V112.935Z" fill="#FFA500"/>
<path fill-rule="evenodd" clip-rule="evenodd" d="M135.412 112.935H135.875V108.405H135.412V112.935Z" fill="#FFA500"/>
<path fill-rule="evenodd" clip-rule="evenodd" d="M136.364 112.935H136.827V108.405H136.364V112.935Z" fill="#FFA500"/>
<path fill-rule="evenodd" clip-rule="evenodd" d="M137.543 108.421V112.919C137.486 112.93 137.429 112.935 137.369 112.935H137.08V108.405H137.369C137.429 108.405 137.486 108.411 137.543 108.421Z" fill="#FFA500"/>
<path fill-rule="evenodd" clip-rule="evenodd" d="M138.186 108.841V112.5C138.074 112.665 137.913 112.796 137.723 112.869V108.472C137.913 108.545 138.074 108.675 138.186 108.841Z" fill="#FFA500"/>
<path fill-rule="evenodd" clip-rule="evenodd" d="M140.46 104.973V107.531C140.46 107.735 140.398 107.924 140.291 108.081C140.179 108.247 140.018 108.377 139.829 108.45C139.771 108.473 139.71 108.49 139.648 108.501C139.592 108.511 139.534 108.517 139.474 108.517H98.7265C98.563 108.517 98.4082 108.476 98.272 108.405C97.9837 108.254 97.7776 107.964 97.745 107.626C97.7433 107.611 97.7423 107.596 97.7417 107.582C97.7412 107.565 97.7406 107.548 97.7406 107.531V104.973C97.7406 104.956 97.7412 104.939 97.7417 104.922C97.7684 104.403 98.2011 103.987 98.7265 103.987H139.474C139.534 103.987 139.592 103.992 139.648 104.003C139.71 104.013 139.771 104.03 139.829 104.053C140.018 104.126 140.179 104.256 140.291 104.422C140.398 104.58 140.46 104.769 140.46 104.973Z" fill="#FFBA2C"/>
<path fill-rule="evenodd" clip-rule="evenodd" d="M120.451 108.517H98.6208C98.4748 108.517 98.3369 108.476 98.2153 108.405C97.9575 108.254 97.7739 107.964 97.745 107.626C97.7433 107.611 97.7423 107.596 97.7418 107.581C97.7412 107.565 97.7406 107.548 97.7406 107.531V104.973C97.7406 104.956 97.7412 104.939 97.7418 104.922C97.7657 104.403 98.1521 103.987 98.6208 103.987H117.77C118.068 105.284 118.75 107.064 120.317 108.405C120.361 108.443 120.406 108.48 120.451 108.517Z" fill="#FFA500"/>
<path fill-rule="evenodd" clip-rule="evenodd" d="M135.039 108.517H135.502V103.987H135.039V108.517Z" fill="#FFA500"/>
<path fill-rule="evenodd" clip-rule="evenodd" d="M133.471 108.517H133.935V103.987H133.471V108.517Z" fill="#FFA500"/>
<path fill-rule="evenodd" clip-rule="evenodd" d="M131.592 108.517H132.055V103.987H131.592V108.517Z" fill="#FFA500"/>
<path fill-rule="evenodd" clip-rule="evenodd" d="M128.71 108.517H129.173V103.987H128.71V108.517Z" fill="#FFA500"/>
<path fill-rule="evenodd" clip-rule="evenodd" d="M125.663 108.517H126.126V103.987H125.663V108.517Z" fill="#FFA500"/>
<path fill-rule="evenodd" clip-rule="evenodd" d="M120.991 108.517H121.455V103.987H120.991V108.517Z" fill="#FFA500"/>
<path fill-rule="evenodd" clip-rule="evenodd" d="M116.618 108.517H117.081V103.987H116.618V108.517Z" fill="#FFA500"/>
<path fill-rule="evenodd" clip-rule="evenodd" d="M112.712 108.517H113.175V103.987H112.712V108.517Z" fill="#FFA500"/>
<path fill-rule="evenodd" clip-rule="evenodd" d="M136.531 108.517H136.994V103.987H136.531V108.517Z" fill="#FFA500"/>
<path fill-rule="evenodd" clip-rule="evenodd" d="M137.517 108.517H137.98V103.987H137.517V108.517Z" fill="#FFA500"/>
<path fill-rule="evenodd" clip-rule="evenodd" d="M138.469 108.517H138.932V103.987H138.469V108.517Z" fill="#FFA500"/>
<path fill-rule="evenodd" clip-rule="evenodd" d="M139.648 104.003V108.501C139.592 108.511 139.534 108.517 139.474 108.517H139.185V103.987H139.474C139.534 103.987 139.592 103.992 139.648 104.003Z" fill="#FFA500"/>
<path fill-rule="evenodd" clip-rule="evenodd" d="M140.292 104.422V108.081C140.179 108.247 140.018 108.377 139.829 108.45V104.053C140.018 104.126 140.179 104.257 140.292 104.422Z" fill="#FFA500"/>
<path fill-rule="evenodd" clip-rule="evenodd" d="M143.79 100.443V103.001C143.79 103.205 143.728 103.394 143.621 103.551C143.509 103.717 143.348 103.847 143.159 103.92C143.101 103.943 143.04 103.96 142.978 103.971C142.921 103.981 142.864 103.987 142.804 103.987H102.056C101.531 103.987 101.098 103.57 101.072 103.052C101.071 103.035 101.071 103.018 101.071 103.001V100.443C101.071 100.426 101.071 100.409 101.072 100.392C101.096 99.9124 101.468 99.52 101.94 99.4639C101.978 99.4589 102.017 99.4568 102.056 99.4568H142.804C142.864 99.4568 142.921 99.4622 142.978 99.4727C143.04 99.4836 143.101 99.5004 143.159 99.5233C143.348 99.5963 143.509 99.7266 143.621 99.8923C143.728 100.05 143.79 100.239 143.79 100.443Z" fill="#FFBA2C"/>
<path fill-rule="evenodd" clip-rule="evenodd" d="M123.781 103.987H101.951C101.482 103.987 101.096 103.57 101.072 103.052C101.071 103.035 101.071 103.018 101.071 103.001V100.443C101.071 100.426 101.071 100.409 101.072 100.392C101.093 99.9124 101.426 99.52 101.847 99.4639C101.88 99.4589 101.915 99.4567 101.951 99.4567H121.1C121.101 99.4589 121.101 99.4618 121.102 99.4639C121.409 100.797 122.121 102.637 123.781 103.987Z" fill="#FFA500"/>
<path fill-rule="evenodd" clip-rule="evenodd" d="M138.369 103.987H138.832V99.4568H138.369V103.987Z" fill="#FFA500"/>
<path fill-rule="evenodd" clip-rule="evenodd" d="M136.801 103.987H137.265V99.4568H136.801V103.987Z" fill="#FFA500"/>
<path fill-rule="evenodd" clip-rule="evenodd" d="M134.922 103.987H135.385V99.4568H134.922V103.987Z" fill="#FFA500"/>
<path fill-rule="evenodd" clip-rule="evenodd" d="M132.04 103.987H132.503V99.4568H132.04V103.987Z" fill="#FFA500"/>
<path fill-rule="evenodd" clip-rule="evenodd" d="M128.993 103.987H129.456V99.4568H128.993V103.987Z" fill="#FFA500"/>
<path fill-rule="evenodd" clip-rule="evenodd" d="M124.322 103.987H124.785V99.4568H124.322V103.987Z" fill="#FFA500"/>
<path fill-rule="evenodd" clip-rule="evenodd" d="M119.948 103.987H120.411V99.4568H119.948V103.987Z" fill="#FFA500"/>
<path fill-rule="evenodd" clip-rule="evenodd" d="M116.042 103.987H116.505V99.4568H116.042V103.987Z" fill="#FFA500"/>
<path fill-rule="evenodd" clip-rule="evenodd" d="M139.861 103.987H140.324V99.4568H139.861V103.987Z" fill="#FFA500"/>
<path fill-rule="evenodd" clip-rule="evenodd" d="M140.847 103.987H141.31V99.4568H140.847V103.987Z" fill="#FFA500"/>
<path fill-rule="evenodd" clip-rule="evenodd" d="M141.799 103.987H142.262V99.4568H141.799V103.987Z" fill="#FFA500"/>
<path fill-rule="evenodd" clip-rule="evenodd" d="M142.978 99.4725V103.971C142.922 103.981 142.864 103.987 142.805 103.987H142.515V99.4567H142.805C142.864 99.4567 142.922 99.4622 142.978 99.4725Z" fill="#FFA500"/>
<path fill-rule="evenodd" clip-rule="evenodd" d="M143.622 99.8922V103.551C143.509 103.717 143.348 103.847 143.159 103.92V99.5233C143.348 99.5963 143.509 99.7265 143.622 99.8922Z" fill="#FFA500"/>
<path fill-rule="evenodd" clip-rule="evenodd" d="M138.441 95.9198V98.4779C138.441 98.6818 138.379 98.8709 138.272 99.0284C138.159 99.1941 137.998 99.3243 137.809 99.3974C137.751 99.4203 137.691 99.4371 137.629 99.448C137.61 99.4513 137.59 99.4546 137.571 99.4567C137.556 99.4589 137.541 99.4601 137.526 99.4612C137.518 99.4617 137.51 99.4622 137.503 99.4628C137.487 99.4634 137.471 99.4639 137.455 99.4639H96.7069C96.1815 99.4639 95.7488 99.0475 95.7221 98.5287C95.7216 98.5117 95.7209 98.4948 95.7209 98.4779V95.9198C95.7209 95.903 95.7216 95.886 95.7221 95.8691C95.7488 95.3503 96.1815 94.9339 96.7069 94.9339H137.455C137.472 94.9339 137.49 94.9345 137.507 94.9355C137.548 94.9377 137.589 94.9426 137.629 94.9497C137.691 94.9606 137.751 94.9775 137.809 95.0004C137.839 95.0118 137.867 95.0244 137.895 95.0385C137.912 95.0473 137.929 95.056 137.945 95.0658C137.947 95.0664 137.949 95.0674 137.951 95.0691C137.968 95.0788 137.984 95.0892 138 95.1002C138.004 95.1017 138.006 95.1039 138.009 95.1056C138.024 95.1154 138.038 95.1263 138.053 95.1377C138.088 95.1639 138.12 95.1922 138.151 95.2232C138.161 95.2326 138.17 95.2424 138.179 95.2522C138.18 95.2538 138.182 95.2555 138.183 95.2576C138.189 95.2636 138.195 95.2696 138.2 95.2762C138.201 95.2772 138.203 95.279 138.204 95.28C138.213 95.2914 138.223 95.3034 138.232 95.3159C138.246 95.3334 138.259 95.3509 138.272 95.3693C138.379 95.5268 138.441 95.7159 138.441 95.9198Z" fill="#FFBA2C"/>
<path fill-rule="evenodd" clip-rule="evenodd" d="M118.431 99.4639H96.6011C96.1324 99.4639 95.7459 99.0475 95.722 98.5286C95.7214 98.5117 95.7208 98.4948 95.7208 98.4779V95.9198C95.7208 95.9029 95.7214 95.886 95.722 95.8691C95.7459 95.3502 96.1324 94.9338 96.6011 94.9338H115.75C115.758 94.9682 115.766 95.003 115.776 95.0385C116.093 96.3602 116.809 98.14 118.422 99.4567C118.425 99.4589 118.429 99.4617 118.431 99.4639Z" fill="#FFA500"/>
<path fill-rule="evenodd" clip-rule="evenodd" d="M133.019 99.464H133.482V94.934H133.019V99.464Z" fill="#FFA500"/>
<path fill-rule="evenodd" clip-rule="evenodd" d="M131.452 99.464H131.915V94.934H131.452V99.464Z" fill="#FFA500"/>
<path fill-rule="evenodd" clip-rule="evenodd" d="M129.572 99.464H130.035V94.934H129.572V99.464Z" fill="#FFA500"/>
<path fill-rule="evenodd" clip-rule="evenodd" d="M126.69 99.464H127.153V94.934H126.69V99.464Z" fill="#FFA500"/>
<path fill-rule="evenodd" clip-rule="evenodd" d="M123.643 99.464H124.106V94.934H123.643V99.464Z" fill="#FFA500"/>
<path fill-rule="evenodd" clip-rule="evenodd" d="M118.972 99.464H119.435V94.934H118.972V99.464Z" fill="#FFA500"/>
<path fill-rule="evenodd" clip-rule="evenodd" d="M114.598 99.464H115.061V94.934H114.598V99.464Z" fill="#FFA500"/>
<path fill-rule="evenodd" clip-rule="evenodd" d="M110.692 99.464H111.155V94.934H110.692V99.464Z" fill="#FFA500"/>
<path fill-rule="evenodd" clip-rule="evenodd" d="M134.511 99.464H134.975V94.934H134.511V99.464Z" fill="#FFA500"/>
<path fill-rule="evenodd" clip-rule="evenodd" d="M135.497 99.464H135.96V94.934H135.497V99.464Z" fill="#FFA500"/>
<path fill-rule="evenodd" clip-rule="evenodd" d="M136.449 99.464H136.912V94.934H136.449V99.464Z" fill="#FFA500"/>
<path fill-rule="evenodd" clip-rule="evenodd" d="M137.629 94.9497V99.448C137.572 99.4585 137.514 99.4639 137.455 99.4639H137.165V94.9339H137.455C137.514 94.9339 137.572 94.9393 137.629 94.9497Z" fill="#FFA500"/>
<path fill-rule="evenodd" clip-rule="evenodd" d="M138.272 95.3693V99.0284C138.16 99.1941 137.998 99.3244 137.809 99.3974V95.0004C137.998 95.0734 138.16 95.2036 138.272 95.3693Z" fill="#FFA500"/>
<path fill-rule="evenodd" clip-rule="evenodd" d="M141.436 91.4944V94.0526C141.436 94.2565 141.374 94.4456 141.267 94.6031C141.155 94.7688 140.994 94.899 140.805 94.9721C140.747 94.995 140.687 95.0118 140.624 95.0228C140.568 95.0331 140.51 95.0385 140.451 95.0385H99.7026C99.5446 95.0385 99.3947 95.0009 99.2622 94.9339C98.9652 94.7851 98.7527 94.4892 98.7205 94.1437C98.7194 94.1307 98.7184 94.1169 98.7178 94.1033C98.7173 94.0864 98.7167 94.0696 98.7167 94.0526V91.4944C98.7167 91.4776 98.7173 91.4606 98.7178 91.4438C98.7424 90.9637 99.1146 90.5718 99.5859 90.5157C99.6241 90.5108 99.6628 90.5085 99.7026 90.5085H140.451C140.51 90.5085 140.568 90.514 140.624 90.5244C140.687 90.5353 140.747 90.5521 140.805 90.575C140.994 90.6481 141.155 90.7783 141.267 90.944C141.374 91.1015 141.436 91.2906 141.436 91.4944Z" fill="#FFBA2C"/>
<path fill-rule="evenodd" clip-rule="evenodd" d="M121.427 95.0385H99.597C99.4558 95.0385 99.3222 95.0009 99.204 94.9339C98.9385 94.7851 98.7493 94.4892 98.7205 94.1436C98.7194 94.1306 98.7184 94.1169 98.7178 94.1033C98.7173 94.0864 98.7167 94.0695 98.7167 94.0526V91.4944C98.7167 91.4775 98.7173 91.4606 98.7178 91.4437C98.7397 90.9641 99.072 90.5718 99.4928 90.5157C99.5266 90.5108 99.5614 90.5085 99.597 90.5085H118.746C118.747 90.5108 118.747 90.5134 118.748 90.5157C119.047 91.8144 119.732 93.5948 121.302 94.9339C121.343 94.9693 121.385 95.0042 121.427 95.0385Z" fill="#FFA500"/>
<path fill-rule="evenodd" clip-rule="evenodd" d="M136.015 95.0386H136.478V90.5087H136.015V95.0386Z" fill="#FFA500"/>
<path fill-rule="evenodd" clip-rule="evenodd" d="M134.447 95.0386H134.911V90.5087H134.447V95.0386Z" fill="#FFA500"/>
<path fill-rule="evenodd" clip-rule="evenodd" d="M132.568 95.0386H133.031V90.5087H132.568V95.0386Z" fill="#FFA500"/>
<path fill-rule="evenodd" clip-rule="evenodd" d="M129.686 95.0386H130.149V90.5087H129.686V95.0386Z" fill="#FFA500"/>
<path fill-rule="evenodd" clip-rule="evenodd" d="M126.639 95.0386H127.102V90.5087H126.639V95.0386Z" fill="#FFA500"/>
<path fill-rule="evenodd" clip-rule="evenodd" d="M121.968 95.0386H122.431V90.5087H121.968V95.0386Z" fill="#FFA500"/>
<path fill-rule="evenodd" clip-rule="evenodd" d="M117.594 95.0386H118.057V90.5087H117.594V95.0386Z" fill="#FFA500"/>
<path fill-rule="evenodd" clip-rule="evenodd" d="M113.688 95.0386H114.151V90.5087H113.688V95.0386Z" fill="#FFA500"/>
<path fill-rule="evenodd" clip-rule="evenodd" d="M137.507 95.0386H137.97V90.5087H137.507V95.0386Z" fill="#FFA500"/>
<path fill-rule="evenodd" clip-rule="evenodd" d="M138.493 95.0386H138.956V90.5087H138.493V95.0386Z" fill="#FFA500"/>
<path fill-rule="evenodd" clip-rule="evenodd" d="M139.445 95.0386H139.908V90.5087H139.445V95.0386Z" fill="#FFA500"/>
<path fill-rule="evenodd" clip-rule="evenodd" d="M140.624 90.5243V95.0226C140.568 95.033 140.51 95.0384 140.451 95.0384H140.161V90.5084H140.451C140.51 90.5084 140.568 90.5139 140.624 90.5243Z" fill="#FFA500"/>
<path fill-rule="evenodd" clip-rule="evenodd" d="M141.267 90.9439V94.6029C141.155 94.7687 140.994 94.8989 140.805 94.9719V90.5749C140.994 90.6479 141.155 90.7782 141.267 90.9439Z" fill="#FFA500"/>
<path fill-rule="evenodd" clip-rule="evenodd" d="M138.441 86.9715V89.5297C138.441 89.7336 138.379 89.9228 138.272 90.0802C138.159 90.2459 137.998 90.3761 137.809 90.4492C137.751 90.472 137.691 90.489 137.629 90.4999C137.61 90.5031 137.59 90.5064 137.571 90.5085C137.561 90.5097 137.55 90.5107 137.539 90.5118C137.529 90.513 137.518 90.5134 137.507 90.514C137.49 90.5151 137.472 90.5156 137.455 90.5156H96.7069C96.1815 90.5156 95.7488 90.0993 95.7221 89.5804C95.7216 89.5635 95.7209 89.5466 95.7209 89.5297V86.9715C95.7209 86.9547 95.7216 86.9377 95.7221 86.9209C95.7488 86.402 96.1815 85.9856 96.7069 85.9856H137.455C137.514 85.9856 137.572 85.9911 137.629 86.0015C137.691 86.0124 137.751 86.0292 137.809 86.0522C137.998 86.1252 138.159 86.2554 138.272 86.4212C138.379 86.5786 138.441 86.7678 138.441 86.9715Z" fill="#FFBA2C"/>
<path fill-rule="evenodd" clip-rule="evenodd" d="M118.431 90.5157H96.6011C96.1324 90.5157 95.7459 90.0993 95.722 89.5804C95.7214 89.5636 95.7208 89.5466 95.7208 89.5297V86.9716C95.7208 86.9547 95.7214 86.9377 95.722 86.9209C95.7459 86.402 96.1324 85.9857 96.6011 85.9857H115.75C116.056 87.317 116.766 89.157 118.422 90.5086C118.425 90.5108 118.429 90.5135 118.431 90.5157Z" fill="#FFA500"/>
<path fill-rule="evenodd" clip-rule="evenodd" d="M133.019 90.5157H133.482V85.9857H133.019V90.5157Z" fill="#FFA500"/>
<path fill-rule="evenodd" clip-rule="evenodd" d="M131.452 90.5157H131.915V85.9857H131.452V90.5157Z" fill="#FFA500"/>
<path fill-rule="evenodd" clip-rule="evenodd" d="M129.572 90.5157H130.035V85.9857H129.572V90.5157Z" fill="#FFA500"/>
<path fill-rule="evenodd" clip-rule="evenodd" d="M126.69 90.5157H127.153V85.9857H126.69V90.5157Z" fill="#FFA500"/>
<path fill-rule="evenodd" clip-rule="evenodd" d="M123.643 90.5157H124.106V85.9857H123.643V90.5157Z" fill="#FFA500"/>
<path fill-rule="evenodd" clip-rule="evenodd" d="M118.972 90.5157H119.435V85.9857H118.972V90.5157Z" fill="#FFA500"/>
<path fill-rule="evenodd" clip-rule="evenodd" d="M114.598 90.5157H115.061V85.9857H114.598V90.5157Z" fill="#FFA500"/>
<path fill-rule="evenodd" clip-rule="evenodd" d="M110.692 90.5156H111.156V85.9856H110.692V90.5156Z" fill="#FFA500"/>
<path fill-rule="evenodd" clip-rule="evenodd" d="M134.511 90.5157H134.975V85.9857H134.511V90.5157Z" fill="#FFA500"/>
<path fill-rule="evenodd" clip-rule="evenodd" d="M135.497 90.5157H135.96V85.9857H135.497V90.5157Z" fill="#FFA500"/>
<path fill-rule="evenodd" clip-rule="evenodd" d="M136.449 90.5157H136.912V85.9857H136.449V90.5157Z" fill="#FFA500"/>
<path fill-rule="evenodd" clip-rule="evenodd" d="M137.629 86.0014V90.4997C137.572 90.5101 137.514 90.5156 137.455 90.5156H137.165V85.9855H137.455C137.514 85.9855 137.572 85.9911 137.629 86.0014Z" fill="#FFA500"/>
<path fill-rule="evenodd" clip-rule="evenodd" d="M138.272 86.421V90.0801C138.16 90.2458 137.998 90.376 137.809 90.4491V86.0521C137.998 86.1251 138.16 86.2553 138.272 86.421Z" fill="#FFA500"/>
<path fill-rule="evenodd" clip-rule="evenodd" d="M77.9364 112.384C77.9364 99.6475 88.2615 89.3226 100.998 89.3226C113.734 89.3226 124.059 99.6475 124.059 112.384C124.059 125.12 113.734 135.445 100.998 135.445C88.2615 135.445 77.9364 125.12 77.9364 112.384Z" fill="#FD8200"/>
<path fill-rule="evenodd" clip-rule="evenodd" d="M75.9247 112.384C75.9247 99.6475 86.2497 89.3226 98.9861 89.3226C111.723 89.3226 122.048 99.6475 122.048 112.384C122.048 125.12 111.723 135.445 98.9861 135.445C86.2497 135.445 75.9247 125.12 75.9247 112.384Z" fill="#FFBA2C"/>
<path fill-rule="evenodd" clip-rule="evenodd" d="M98.986 92.8985C93.7085 92.8985 88.7469 94.9536 85.0151 98.6854C81.2833 102.417 79.2281 107.379 79.2281 112.656C79.2281 117.934 81.2833 122.896 85.0151 126.627C88.7469 130.359 93.7086 132.414 98.986 132.414C104.264 132.414 109.225 130.359 112.957 126.627C116.689 122.896 118.744 117.934 118.744 112.656C118.744 107.379 116.689 102.417 112.957 98.6854C109.225 94.9536 104.264 92.8985 98.986 92.8985ZM98.986 133.668C93.3737 133.668 88.0973 131.482 84.1287 127.514C80.1602 123.545 77.9746 118.269 77.9746 112.656C77.9746 107.044 80.1602 101.768 84.1287 97.7991C88.0973 93.8306 93.3737 91.6451 98.986 91.6451C104.599 91.6451 109.875 93.8306 113.843 97.7991C117.812 101.768 119.998 107.044 119.998 112.656C119.998 118.269 117.812 123.545 113.843 127.514C109.875 131.482 104.599 133.668 98.986 133.668Z" fill="#FFA500"/>
<path fill-rule="evenodd" clip-rule="evenodd" d="M167.842 119.853C167.842 119.853 165.34 116.934 167.687 115.08C167.687 115.08 169.402 114.042 170.8 114.126C170.8 114.126 168.819 117.448 169.46 117.779C170.101 118.109 171.401 113.918 171.401 113.918C171.401 113.918 175.303 113.539 176.558 114.143C176.558 114.143 173.222 116.873 173.925 117.035C174.627 117.198 178.231 114.518 178.231 114.518C178.231 114.518 181.863 115.136 181.669 117.352C181.475 119.567 180.224 120.252 179.674 120.193C179.124 120.134 175.906 118.906 175.836 119.356C175.766 119.807 177.703 121.28 179.059 121.349C179.059 121.349 176.499 124.172 174.797 123.357C173.095 122.542 172.95 121.251 171.889 120.766C170.828 120.282 169.923 120.283 170.361 120.777C170.799 121.271 172.718 121.751 173.325 122.824C173.932 123.897 174.476 124.621 172.715 124.356C170.955 124.091 168.093 122.803 167.967 121.328L167.842 119.853Z" fill="#67B475"/>
<path fill-rule="evenodd" clip-rule="evenodd" d="M179.884 117.412C179.884 117.412 170.02 117.032 167.841 119.853C167.841 119.853 167.36 121.296 165.877 122.609L165.646 123.239C165.646 123.239 167.355 121.437 167.967 121.328C167.967 121.328 167.011 117.833 179.884 117.412Z" fill="#67B475"/>
<path fill-rule="evenodd" clip-rule="evenodd" d="M165.877 122.609C165.877 122.609 163.76 124.175 163.613 126.973L163.997 127.008C163.997 127.008 164.673 124.115 165.896 122.983C167.118 121.852 165.877 122.609 165.877 122.609Z" fill="#67B475"/>
<path fill-rule="evenodd" clip-rule="evenodd" d="M159.094 116.182C159.094 116.182 163.074 113.953 161.217 110.929C161.217 110.929 159.731 109.071 158.139 108.594C158.139 108.594 158.988 113.104 158.139 113.21C157.29 113.317 157.555 108.116 157.555 108.116C157.555 108.116 153.363 106.1 151.719 106.259C151.719 106.259 154.319 110.663 153.47 110.557C152.62 110.451 149.702 105.994 149.702 105.994C149.702 105.994 145.404 105.198 144.714 107.745C144.024 110.292 145.139 111.565 145.775 111.725C146.412 111.884 150.498 111.831 150.392 112.361C150.286 112.892 147.527 113.741 145.988 113.264C145.988 113.264 147.686 117.456 149.914 117.243C152.143 117.031 152.833 115.651 154.212 115.545C155.592 115.439 156.6 115.811 155.91 116.182C155.221 116.553 152.886 116.304 151.772 117.251C150.657 118.198 149.755 118.782 151.825 119.207C153.894 119.631 157.609 119.366 158.351 117.774L159.094 116.182Z" fill="#95D39E"/>
<path fill-rule="evenodd" clip-rule="evenodd" d="M146.677 108.541C146.677 108.541 157.821 112.149 159.094 116.182C159.094 116.182 159.041 117.986 160.156 120.056V120.852C160.156 120.852 158.988 118.145 158.351 117.774C158.351 117.774 160.845 114.272 146.677 108.541Z" fill="#67B475"/>
<path fill-rule="evenodd" clip-rule="evenodd" d="M160.156 120.056C160.156 120.056 161.874 122.665 160.894 125.842L160.452 125.723C160.452 125.723 160.881 122.224 159.982 120.465C159.083 118.705 160.156 120.056 160.156 120.056Z" fill="#67B475"/>
<path fill-rule="evenodd" clip-rule="evenodd" d="M165.426 113.108C165.426 113.108 160.18 110.171 162.628 106.184C162.628 106.184 164.586 103.735 166.685 103.106C166.685 103.106 165.566 109.051 166.685 109.191C167.804 109.331 167.454 102.476 167.454 102.476C167.454 102.476 172.98 99.8183 175.149 100.028C175.149 100.028 171.721 105.834 172.84 105.694C173.959 105.554 177.807 99.6785 177.807 99.6785C177.807 99.6785 183.472 98.6293 184.382 101.987C185.291 105.344 183.822 107.023 182.983 107.233C182.143 107.443 176.757 107.373 176.897 108.072C177.037 108.772 180.674 109.891 182.703 109.261C182.703 109.261 180.464 114.787 177.527 114.507C174.589 114.228 173.68 112.409 171.861 112.269C170.042 112.129 168.713 112.619 169.623 113.108C170.532 113.598 173.61 113.269 175.079 114.518C176.547 115.766 177.737 116.536 175.009 117.095C172.281 117.655 167.384 117.305 166.405 115.207L165.426 113.108Z" fill="#95D39E"/>
<path fill-rule="evenodd" clip-rule="evenodd" d="M181.794 103.036C181.794 103.036 167.105 107.792 165.426 113.108C165.426 113.108 165.496 115.487 164.027 118.215V119.264C164.027 119.264 165.566 115.696 166.405 115.207C166.405 115.207 163.118 110.59 181.794 103.036Z" fill="#67B475"/>
<path fill-rule="evenodd" clip-rule="evenodd" d="M164.027 118.215C164.027 118.215 161.762 121.655 163.053 125.842L163.636 125.685C163.636 125.685 163.07 121.073 164.255 118.754C165.44 116.434 164.027 118.215 164.027 118.215Z" fill="#67B475"/>
<path fill-rule="evenodd" clip-rule="evenodd" d="M165.249 134.922C170.924 134.922 175.525 130.322 175.525 124.646H154.973C154.973 130.322 159.574 134.922 165.249 134.922Z" fill="#FFA447"/>
<path fill-rule="evenodd" clip-rule="evenodd" d="M167.778 134.844C167.36 134.896 166.934 134.922 166.501 134.922C160.826 134.922 156.225 130.321 156.225 124.646H158.778C158.778 129.889 162.705 134.215 167.778 134.844Z" fill="#FFBA6F"/>
<path fill-rule="evenodd" clip-rule="evenodd" d="M175.667 135.445H154.831C154.831 134.745 155.398 134.177 156.099 134.177H174.399C175.1 134.177 175.667 134.745 175.667 135.445Z" fill="#FFA447"/>
<path fill-rule="evenodd" clip-rule="evenodd" d="M154.635 124.961H175.759V124.646H154.635V124.961Z" fill="#F56700"/>
<path fill-rule="evenodd" clip-rule="evenodd" d="M79.9833 53.7266L79.9798 54.3498C79.9798 54.3498 80.1496 56.2983 77.75 56.5829C75.3507 56.8683 73.3829 56.8307 73.4479 55.3269C73.664 54.1627 74.0512 52.3555 74.0672 51.3922C74.0732 51.0342 74.0487 50.6543 73.982 50.2253L78.6315 50.1324L80.001 50.3562L79.9833 53.7266Z" fill="#FFB37B"/>
<path fill-rule="evenodd" clip-rule="evenodd" d="M80.001 50.3562L79.9833 53.7266C79.4893 53.9563 78.932 54.0965 78.3072 54.0965C76.1704 54.0965 74.7892 52.5294 74.0672 51.3922C74.0732 51.0342 74.0487 50.6543 73.9819 50.2253L78.6315 50.1324L80.001 50.3562Z" fill="#FA9256"/>
<path fill-rule="evenodd" clip-rule="evenodd" d="M73.6259 49.4772C74.1652 52.3805 77.9115 52.2852 79.5304 52.1026C79.986 52.052 80.2727 51.9938 80.2727 51.9938C80.7864 51.8566 81.073 51.0474 81.2062 49.9875C81.4705 47.89 81.1367 44.8109 80.7823 44.0234C80.249 42.8384 79.2445 41.5567 75.4719 42.4815C71.6987 43.4069 72.9336 45.7573 73.6259 49.4772Z" fill="#FFB37B"/>
<path fill-rule="evenodd" clip-rule="evenodd" d="M70.5604 135.436H75.8689C75.8292 135.157 75.6939 134.31 75.4455 133.53C75.3594 133.259 75.2589 132.995 75.1448 132.766C74.6286 131.735 71.3492 132.39 71.3492 132.39C71.3492 132.39 71.0447 132.651 70.8069 133.648C70.7015 134.087 70.6087 134.67 70.5604 135.436Z" fill="#0B3563"/>
<path fill-rule="evenodd" clip-rule="evenodd" d="M86.602 133.76C86.6165 134.483 86.7074 135.166 86.9694 135.436H97.4695C97.3361 135.056 96.9582 134.484 95.8802 134.309C94.6553 134.111 92.7459 133.521 91.6311 132.343C91.2339 131.924 90.938 131.43 90.8085 130.853C90.3145 128.654 86.7238 131.527 86.7238 131.527C86.7238 131.527 86.5788 132.685 86.602 133.76Z" fill="#0B3563"/>
<path fill-rule="evenodd" clip-rule="evenodd" d="M79.618 109.985C79.7642 110.791 79.857 111.451 79.8816 111.925C80.2154 118.436 85.3623 133.323 86.283 133.67C87.7074 134.208 89.9507 133.065 91.1242 132.691C91.6105 132.536 91.9387 132.046 91.8305 131.548C89.2816 119.83 88.3448 102.957 88.0041 92.9674C87.8318 87.9357 86.9681 84.4599 86.9681 84.4599C86.9681 84.4599 74.4148 81.1105 74.3403 85.3475C74.2742 89.0967 78.4985 103.8 79.618 109.985Z" fill="#0D458E"/>
<path fill-rule="evenodd" clip-rule="evenodd" d="M79.6181 109.985L88.0042 92.9674C87.8319 87.9357 86.9682 84.4599 86.9682 84.4599C86.9682 84.4599 74.4149 81.1105 74.3404 85.3475C74.2743 89.0967 78.4986 103.8 79.6181 109.985Z" fill="#0B3563"/>
<path fill-rule="evenodd" clip-rule="evenodd" d="M82.4111 85.3623L75.7749 133.459C75.7749 133.459 72.8607 134.162 70.594 133.6C70.594 133.6 68.6512 108.02 68.8131 101.835C68.9749 95.6512 67.4188 85.2875 69.1683 84.1446C70.9178 83.0016 82.4111 85.3623 82.4111 85.3623Z" fill="#0D458E"/>
<path fill-rule="evenodd" clip-rule="evenodd" d="M81.94 41.2599C81.94 41.2599 80.2794 41.1322 78.3208 40.2805C76.7311 39.5894 74.7255 40.3506 74.0745 40.6935C74.092 40.5886 74.1339 40.4454 74.2332 40.3019C74.2332 40.3019 73.9409 40.5091 73.8979 40.7988C73.8678 40.8211 73.8543 40.8363 73.8621 40.8415C73.8621 40.8415 73.5306 40.7809 73.3178 40.8767C73.3178 40.8767 73.4668 40.8553 73.52 40.9511C73.5257 40.9613 73.534 40.9699 73.5439 40.9776C71.0641 42.1757 70.8352 46.0948 71.6331 47.0016C72.5932 48.0926 73.7445 50.5496 73.7445 50.5496C73.7445 50.5496 74.1641 49.9691 73.9896 49.0091C73.815 48.049 74.6443 48.049 75.6916 47.6125C76.739 47.1762 75.8662 45.9542 76.7826 45.2124C77.6991 44.4705 81.0595 44.9069 81.0158 44.3395C82.2632 43.8851 81.94 41.3876 81.94 41.2599Z" fill="#0B3563"/>
<path fill-rule="evenodd" clip-rule="evenodd" d="M72.8819 56.1626L74.4099 88.9455C74.4099 88.9455 87.1619 89.1538 86.7979 86.2681C86.4337 83.3824 82.2013 57.1665 82.2013 57.1665L72.8819 56.1626Z" fill="#E6F3FE"/>
<path fill-rule="evenodd" clip-rule="evenodd" d="M68.3292 74.7447C69.0879 77.0206 67.6575 84.6578 67.1476 87.2449C67.0355 87.792 66.9609 88.1155 66.9609 88.1155C68.7271 90.9884 75.1949 90.9514 75.1949 90.9514C76.4386 85.4536 77.0854 76.6976 77.0854 76.6976L72.1228 54.9434L65.8788 60.7148C65.8788 60.7148 66.3515 64.2348 66.9361 67.8167C67.3964 70.6526 67.9188 73.5382 68.3292 74.7447Z" fill="#003E7D"/>
<path fill-rule="evenodd" clip-rule="evenodd" d="M78.9417 49.9547C78.9417 49.9547 79.0628 50.3292 80.0081 50.1925C80.0081 50.1925 80.8016 50.0778 80.7427 49.6601C80.7427 49.6601 79.9449 49.4249 78.9417 49.9547Z" fill="white"/>
<path fill-rule="evenodd" clip-rule="evenodd" d="M91.1776 69.8567C91.1901 69.844 91.1901 69.819 91.1901 69.8069C91.1901 69.3342 89.3864 68.2892 87.4338 67.0582C87.4089 67.0333 87.3964 67.0205 87.3964 67.0205C87.3951 67.0197 87.3938 67.0189 87.3926 67.0181C87.4273 68.024 87.4235 69.0111 87.3637 69.9299C87.253 71.6339 87.3767 73.6707 87.5829 75.7445C88.5127 74.2926 90.9959 70.3915 91.1776 69.8567ZM86.109 56.6299C86.109 56.6299 86.1102 56.6355 86.1119 56.6437C86.4136 56.9361 94.9263 65.2012 96.5756 68.4387C98.2547 71.7224 88.9014 78.2644 88.9014 78.2644C88.9014 78.2644 88.2995 78.5024 87.8818 78.4093C88.3228 82.0403 88.818 85.3905 88.5246 86.8206C87.9944 89.4051 85.6037 90.273 85.6037 90.0743C85.6037 90.0111 84.9877 80.6499 84.2544 75.8144C82.627 65.082 80.6859 55.0098 80.6859 55.0098C83.4695 55.2991 86.109 56.6299 86.109 56.6299Z" fill="#003E7D"/>
<path fill-rule="evenodd" clip-rule="evenodd" d="M72.5206 54.9043C72.5051 54.5914 73.9869 54.1592 73.9869 54.1592C73.9869 54.1592 75.6831 56.5109 78.4775 56.5515C78.4775 56.5515 77.6813 58.1014 76.7427 58.5027C76.7427 58.5027 72.6128 56.7623 72.5206 54.9043Z" fill="#D3EAFA"/>
<path fill-rule="evenodd" clip-rule="evenodd" d="M82.4021 78.7084C82.3336 79.4741 81.9824 80.1873 81.4167 80.7084L80.5275 81.5277C80.3043 81.7334 79.9532 81.7049 79.7655 81.4665L78.664 80.0677C78.3686 79.6925 78.2298 79.2179 78.2749 78.7427C78.378 77.6843 78.5699 75.6449 78.7236 73.6766C78.8486 72.0818 78.9489 70.5324 78.9564 69.5899C78.9806 66.5805 78.3836 56.9839 78.3836 56.9839L79.1051 57.0215C79.1051 57.0215 80.8969 60.7467 81.8351 65.8152C82.0666 67.0628 82.2452 68.3911 82.3339 69.7664C82.3339 69.7664 82.7099 75.2475 82.4021 78.7084Z" fill="#E35345"/>
<path fill-rule="evenodd" clip-rule="evenodd" d="M82.4021 78.7084C82.3336 79.474 81.9824 80.1873 81.4167 80.7084L80.5275 81.5277C80.3043 81.7334 79.9532 81.7049 79.7655 81.4665L78.664 80.0677C78.3686 79.6925 78.2298 79.2179 78.2749 78.7427C78.378 77.6843 78.5699 75.6449 78.7236 73.6766C80.7174 71.4367 81.5252 68.3412 81.8351 65.8151C82.0666 67.0628 82.2452 68.3911 82.3339 69.7663C82.3339 69.7663 82.7099 75.2475 82.4021 78.7084Z" fill="#D64B41"/>
<path fill-rule="evenodd" clip-rule="evenodd" d="M78.4775 56.4965C78.4775 56.4965 79.9579 55.619 79.9629 54.6675C79.9629 54.6675 80.9191 54.5478 81.3367 55.0115C81.3367 55.0115 81.6877 56.6419 81.2222 57.5891C81.2222 57.5891 79.0904 57.2644 78.4775 56.4965Z" fill="#D3EAFA"/>
<path fill-rule="evenodd" clip-rule="evenodd" d="M77.4726 56.3554L79.4799 55.8743C79.4799 55.8743 79.7421 55.897 79.735 56.2241C79.7277 56.551 79.1697 57.5065 78.9224 57.5828C78.6752 57.6592 76.9978 57.0169 77.4726 56.3554Z" fill="#D64B41"/>
<path fill-rule="evenodd" clip-rule="evenodd" d="M72.7544 54.7428C72.7389 54.4299 73.7418 53.7853 73.7418 53.7853C73.7418 53.7853 75.6831 56.0543 78.4775 56.0949C78.4775 56.0949 77.6813 57.6448 76.7427 58.046C76.7427 58.046 72.8466 56.6007 72.7544 54.7428Z" fill="#E6F3FE"/>
<path fill-rule="evenodd" clip-rule="evenodd" d="M78.4775 56.0948C78.4775 56.0948 79.9748 55.3013 79.9798 54.3497C79.9798 54.3497 80.8836 54.7475 81.3013 55.211C81.3013 55.211 81.6877 56.2403 81.2221 57.1874C81.2221 57.1874 79.0903 56.8627 78.4775 56.0948Z" fill="#E6F3FE"/>
<path fill-rule="evenodd" clip-rule="evenodd" d="M89.4978 78.797C89.4978 77.9614 88.763 77.2906 87.9369 77.4161C87.7074 77.4509 87.5004 77.5454 87.3571 77.7362C86.7886 78.4929 86.2477 80.6949 87.2551 80.7977C87.6652 80.8397 88.1918 80.5519 88.5975 80.2437C89.0097 79.9305 89.4978 79.4401 89.4978 78.9224V78.797Z" fill="#FFB37B"/>
<path fill-rule="evenodd" clip-rule="evenodd" d="M67.1476 87.2449C68.9759 85.3418 72.1352 81.598 72.0232 78.5256C71.874 74.2221 66.9361 67.8168 66.9361 67.8168C67.3964 70.6526 67.9188 73.5383 68.3291 74.7447C69.0879 77.0206 67.6574 84.6577 67.1476 87.2449Z" fill="#0B3563"/>
<path fill-rule="evenodd" clip-rule="evenodd" d="M67.2049 79.7593C67.2049 79.7593 68.5193 80.4166 69.3174 80.0879C70.1153 79.7593 71.0542 79.5125 71.9461 80.5278C72.838 81.5431 73.0257 82.2472 72.838 82.6227C72.6501 82.9983 70.5708 82.8575 70.2257 82.6227C69.8806 82.3881 69.335 81.8102 68.9888 81.911C68.0337 82.1886 67.2292 81.4599 66.7789 80.8796C66.5073 80.5295 67.2403 80.3599 67.2049 79.7593Z" fill="#FFB37B"/>
<path fill-rule="evenodd" clip-rule="evenodd" d="M72.1228 54.9434C72.1228 54.9434 66.8877 55.5229 65.6529 57.8028C64.4183 60.0826 57.9984 69.322 58.2086 73.1617C58.4188 77.0014 66.9661 81.307 66.9661 81.307C66.9661 81.307 68.8592 80.5071 68.8876 79.6464C68.9159 78.7857 62.9785 73.6417 63.3384 72.6817C63.6984 71.7218 70.2363 64.1294 70.8671 61.626C71.4979 59.1227 72.1228 54.9434 72.1228 54.9434Z" fill="#003E7D"/>
<path fill-rule="evenodd" clip-rule="evenodd" d="M87.3964 67.0205C87.3964 67.0205 87.4089 67.0333 87.4337 67.0581C89.3865 68.2892 91.1901 69.3341 91.1901 69.8069C91.4512 68.9733 88.9139 65.4907 88.0929 64.782C87.2596 64.0604 87.3964 67.0205 87.3964 67.0205Z" fill="#0B3563"/>
<path fill-rule="evenodd" clip-rule="evenodd" d="M73.7418 53.7853C73.7418 53.7853 77.7162 70.4315 77.0836 76.7021C77.0836 76.7021 75.6222 70.0012 72.1059 64.5125C72.1059 64.5125 73.3892 63.3839 73.3195 62.9678C73.3195 62.9678 72.3669 62.6853 71.4427 62.8755C71.4427 62.8755 71.5448 55.7001 72.1211 54.9421C72.6974 54.184 73.7418 53.7853 73.7418 53.7853Z" fill="#0B3563"/>
<path fill-rule="evenodd" clip-rule="evenodd" d="M79.9798 54.3497C79.9259 54.375 83.9185 70.6159 84.2544 75.8144C84.2544 75.8144 83.856 66.5378 83.8953 63.8642C83.8953 63.8642 82.2446 62.9903 82.2446 62.6837C82.2446 62.3771 84.0055 61.5481 84.0055 61.5481C84.0055 61.5481 82.8905 55.8352 82.2819 55.2058C81.6734 54.5762 79.9798 54.3497 79.9798 54.3497Z" fill="#0B3563"/>
<path fill-rule="evenodd" clip-rule="evenodd" d="M38.3679 135.67L58.3208 135.647C60.9176 135.644 63.0396 133.517 63.0368 130.92L63.0267 122.273C63.0237 119.677 60.8966 117.554 58.2999 117.557L38.3469 117.581C35.7502 117.584 33.628 119.711 33.631 122.308L33.6409 130.954C33.644 133.551 35.7713 135.673 38.3679 135.67Z" fill="#0B3563"/>
<path fill-rule="evenodd" clip-rule="evenodd" d="M43.5697 115.571C43.5698 115.31 43.7422 115.088 43.9797 115.014C44.0349 114.997 44.0923 114.987 44.1532 114.986L45.0391 114.985L48.3225 114.982L50.1123 114.98C50.4344 114.979 50.6963 115.242 50.6966 115.563L50.6992 117.429L43.5721 117.436L43.5697 115.571ZM59.7669 119.81L59.7666 119.809C59.0199 118.513 57.6777 117.598 56.121 117.445L56.1197 117.445C56.1186 117.445 56.1174 117.445 56.1162 117.445C55.9636 117.43 55.8095 117.422 55.6521 117.422L51.6792 117.428L51.6767 115.561C51.6769 115.145 51.5136 114.753 51.2172 114.457C50.921 114.162 50.5272 113.999 50.1113 114L49.075 114.001L44.9032 114.006L44.1512 114.007C43.2899 114.008 42.588 114.71 42.5897 115.572L42.5921 117.438L35.7341 117.445C33.1277 117.449 30.9981 119.584 31 122.19L31.0112 130.937C31.0143 133.544 33.149 135.674 35.7555 135.67L55.6725 135.648C56.0238 135.648 56.3659 135.608 56.695 135.534H56.6962C56.6973 135.534 56.6973 135.534 56.6985 135.534C57.2269 135.416 57.7213 135.209 58.1667 134.93C59.5105 134.091 60.4075 132.596 60.4065 130.903L60.3966 122.156C60.395 121.303 60.1661 120.503 59.7669 119.81Z" fill="#0D458E"/>
</svg>
